/* XPM */
static char *FA_Pozos_SC_R[] = {
/* columns rows colors chars-per-pixel */
"30 30 256 2 ",
"   c #151819",
".  c #1A1616",
"X  c #2B2624",
"o  c #242223",
"O  c #3B3A3C",
"+  c #4D392D",
"@  c #7F5324",
"#  c #634432",
"$  c #7E573D",
"%  c #1C4F4F",
"&  c #285D5C",
"*  c #3F7473",
"=  c #2D6C6B",
"-  c #136F6F",
";  c #464748",
":  c #5B5855",
">  c #725C44",
",  c #786858",
"<  c #686867",
"1  c #6F6E70",
"2  c #706F72",
"3  c #7C7A77",
"4  c #7D7C7D",
"5  c #76767A",
"6  c #776C65",
"7  c #A5613B",
"8  c #936C55",
"9  c #957352",
"0  c #BC7144",
"q  c #A67450",
"w  c #8B7B6C",
"e  c #C67647",
"r  c #FECB01",
"t  c #FFCC01",
"y  c #FFCD06",
"u  c #FCCB07",
"i  c #FECE09",
"p  c #FFCF0C",
"a  c #FCCB08",
"s  c #FFD00D",
"d  c #FFD00B",
"f  c #F7CB14",
"g  c #FACE15",
"h  c #F8CE1A",
"j  c #FED212",
"k  c #FED214",
"l  c #FDD216",
"z  c #FED319",
"x  c #FFD41A",
"c  c #FDD41D",
"v  c #FFD81D",
"b  c #EFC829",
"n  c #F6CD22",
"m  c #F4CE2A",
"M  c #FED621",
"N  c #FDD726",
"B  c #FFD827",
"V  c #FEDA2E",
"C  c #FFD929",
"Z  c #FEDE35",
"A  c #FEDC31",
"S  c #FEDF3B",
"D  c #FBDC3B",
"F  c #F5D236",
"G  c #E8C635",
"H  c #FEE03B",
"J  c #848279",
"K  c #988C78",
"L  c #B7946F",
"P  c #B98669",
"I  c #BAB37C",
"U  c #CBBD78",
"Y  c #DAC254",
"T  c #E7CA49",
"R  c #EFD14B",
"E  c #F0D14A",
"W  c #F8D641",
"Q  c #E3C952",
"!  c #E4CC58",
"~  c #F7DF5A",
"^  c #F4DA57",
"/  c #FEE243",
"(  c #FEE54B",
")  c #FDE553",
"_  c #FFE854",
"`  c #FEE95B",
"'  c #F9E059",
"]  c #DCCA6B",
"[  c #D9C566",
"{  c #D2C47E",
"}  c #E5CE69",
"|  c #ECD46B",
" . c #EFDB6A",
".. c #F2DC65",
"X. c #EADB7D",
"o. c #E9D875",
"O. c #FFEC62",
"+. c #FEED65",
"@. c #F1E06F",
"#. c #FEEE69",
"$. c #FDE361",
"%. c #FEF06E",
"&. c #EFE47C",
"*. c #F6E873",
"=. c #FEF275",
"-. c #FDF37C",
";. c #3C3CBC",
":. c #2C2CAE",
">. c #595A8F",
",. c #61768E",
"<. c #66798D",
"1. c #6F7F8B",
"2. c #7E7E81",
"3. c #617793",
"4. c #627893",
"5. c #5555BA",
"6. c #7070A6",
"7. c #0D0DE0",
"8. c #0000FB",
"9. c #1313F2",
"0. c #1D1DE5",
"q. c #2827F9",
"w. c #3E3EF1",
"e. c #6466DE",
"r. c #726EDC",
"t. c #4645E6",
"y. c #5959EF",
"u. c #4A4BF9",
"i. c #6868E9",
"p. c #6E70F6",
"a. c #0C9E9E",
"s. c #0FADAD",
"d. c #08BCBC",
"f. c #74828C",
"g. c #798588",
"h. c #619191",
"j. c #51BFBF",
"k. c #69AEAE",
"l. c #7CA6A6",
"z. c #1FCBCB",
"x. c #24DEDD",
"c. c #08FAF9",
"v. c #45E9E9",
"b. c #848383",
"n. c #838488",
"m. c #8C8C8C",
"M. c #828C8C",
"N. c #968D8A",
"B. c #8A9287",
"V. c #93928E",
"C. c #94988A",
"Z. c #9A9C82",
"A. c #8E8F90",
"S. c #948F92",
"D. c #8A9595",
"F. c #939494",
"G. c #9A9A97",
"H. c #94979A",
"J. c #9D9D9D",
"K. c #979897",
"L. c #B39583",
"P. c #A59F9F",
"I. c #A89589",
"U. c #A5A186",
"Y. c #A4A28B",
"T. c #ADAC86",
"R. c #B6A887",
"E. c #A7A699",
"W. c #B8B390",
"Q. c #999BA7",
"!. c #8B86BA",
"~. c #9E9FB9",
"^. c #90A9A9",
"/. c #A1A1A1",
"(. c #A5A5A3",
"). c #A4A5A3",
"_. c #A9A7A6",
"`. c #AAAAAA",
"'. c #B3ACA8",
"]. c #B8B4A7",
"[. c #AEAEB3",
"{. c #AFBBBA",
"}. c #B2B1B2",
"|. c #B6B6B6",
" X c #B7B6B3",
".X c #B7B9BA",
"XX c #BBBCBB",
"oX c #BAB9B3",
"OX c #C3B59A",
"+X c #C2BEBB",
"@X c #DEDA8B",
"#X c #DCCD9B",
"$X c #DDD997",
"%X c #E7D986",
"&X c #EBDE9C",
"*X c #EBE281",
"=X c #F2EA88",
"-X c #FDF482",
";X c #FEF987",
":X c #FFFA82",
">X c #FCF38A",
",X c #FEF989",
"<X c #FEFA8E",
"1X c #FEFC8E",
"2X c #F3EF93",
"3X c #FEFB90",
"4X c #FEFD97",
"5X c #F7F499",
"6X c #FFFF9A",
"7X c #FEFE9E",
"8X c #FDFB9D",
"9X c #FCF598",
"0X c #C9C7A7",
"qX c #DDDAAC",
"wX c #DAD4A2",
"eX c #C6C5B9",
"rX c #DEDDB7",
"tX c #D7D6BA",
"yX c #E2DDA8",
"uX c #EEEDAB",
"iX c #E6E4A5",
"pX c #FEFEA6",
"aX c #FEFEA2",
"sX c #FEFEA8",
"dX c #FEFDAE",
"fX c #FAFAA9",
"gX c #F7F7AC",
"hX c #E3E3B5",
"jX c #E4E4B7",
"kX c #FEFEB0",
"lX c #FEFEB7",
"zX c #FDFBB5",
"xX c #FEFEB9",
"cX c #F7F7B2",
"vX c #BABAC1",
"bX c #B5B3D7",
"nX c #A6A3D7",
"mX c #8383EC",
"MX c #9D9BE0",
"NX c #B7B8E5",
"BX c #C3C3C3",
"VX c #CCCCC2",
"CX c #CDCDCC",
"ZX c #D2CFCC",
"AX c #DBD9CB",
"SX c #DBD4C1",
"DX c #C3C3D7",
"FX c #C9C9D2",
"GX c #D4D3D5",
"HX c #E0DDD1",
"JX c #FDFFC4",
"KX c #FFFFCB",
"LX c #FEFFCC",
"PX c #E1E1DE",
"IX c #D7D8E0",
"UX c #E3E4E4",
/* pixels */
"<.,.1.Y.[ m p p p p p p p p p p p p p p p p p p n Q T.f.,.<.",
",.M.! ) >XzXLXKXKXKXKXKXKXKXKXKXKXLXLXLXKXKXKXLXxX9X$.E B.,.",
"f.Q -XJXxXxXlXlXlXlXlXlXlXlXlXlXlXlXlXlXlXlXlXlXxXxXJX8XW g.",
"T.^ xXdXdXkXkXkXkXkXkXkXkXkXkXdXdXkXxXzXdXkXkXkXkXkXdXxX*.U ",
"Q -XpXpXsXsXsXsXsXsXsXsXpXpXaXuXjXjXVXtXgXpXsXsXsXsXpXpX8Xm ",
"g 4X7X7X7X7X7X6X8X8X6X6XaXfXcXeXCX|.0XwXfX7X7X7X7X7X7X7XpXp ",
"y 6X4X4X4X5XiXjXhXrXuXiX0XE.C.J.BX`.qX5X4X4X4X4X4X4X4X4X7Xi ",
"i <X3X3X1X5X0X[.`.[.BXb.; O X K..X/.oXiX<X3X3X3X3X3X3X<X4Xi ",
"y ,X,X;X>XiX0X/.(.)._.; .     L.K : }.qX>X,X,X;X:X;X,X;X<Xy ",
"y -X-X:X=XW.G.|.b.m.`.; X + # q $ : XXyX-.-X=X2XuX2X-X-X;Xi ",
"y -.-.-.=XY.5 |.G.b._.8 7 0 e 8 6 A.XXyX*XqXtXeXoXwX-X-.-Xy ",
"y =.=.=.=XY.1 |.BX2.K.I.P P L.N.m.K.XXrX0X|.vX].@X*X-.=.-.y ",
"y %.%.%.&.Y.2 |.+X3 F.`.}.BXXXBX|.E.m.< < |.XX].$X*.%.%.=.y ",
"y #.#.#.&.U.1 |.R., H.`.).).J.}./.O o . ; {.H.F.eX*X+.#.%.y ",
"y O.O.O.@.U.1 .XL > Q.}.`._.J.`.m.o   . & v.= < VX%X` O.#.y ",
"y ` ` ` @.U.1 .XOX@ w n.J.}.< ).A.% - a.d.s.* S.VXX.` ` O.y ",
"t _ _ _  .U.2 |.PXq 9 3 b.VXF.V.^.z.c.c.x.h.b.(.eXX.) _ ` y ",
"y ( ( ( ..U.1  XUXZX].4 2.CX(.4 /.l.j.k.D.F.V.Q.BXo.( ( ) y ",
"t ( ( / ~ W.5 }.UXAXeXb.4 FX!.5 J.m.N.P.G.V.6.t.nX@./ ( ( t ",
"t / / / /  .W.OX&Xo.{ J 2.DXt.3 (.m.A.eX~.5.0.q.bX .D / / t ",
"t H S S S S ' ~ D Z ] J 2.DXw.>.m.n.n.vXi.8.8.y.CX| D H H t ",
"t Z Z Z Z Z A A Z Z ] J 2.GXmX7.:.:.K XXt.8.w.NXHX} A Z Z t ",
"r V V V V V V V V V ] J 2.GXGXi.q.9.;.e.u.p.bXSX#XR V V V t ",
"r B B N B B B N N N ] J 4 GXPXIXNXMXr.!.'.X...E F N B N C r ",
"u M M c M M M M M c E T.n.ZXAXwX%X| ^ D C c l x v M M c M r ",
"G k x z x x x x z x c R U } R m n h l k l x c c x x z z z f ",
"I g j k k k k k k k j k M l j s j j k k k k k k k k j k s Y ",
"f.b i p p s s s s s s s i d s s s s s s s s s s s p p i g B.",
"3.C.f a y y y y y y y y y y y y y y y y y y y y y y y p Z.4.",
"<.3.M.Y u r r t t t t t t t t t t t t t t t t r r r T B.3.<."
};
