/* XPM */
static char *FA_PozoPluvial_N[] = {
/* columns rows colors chars-per-pixel */
"30 30 241 2 ",
"   c gray7",
".  c #161717",
"X  c #171A1A",
"o  c #1B1E1E",
"O  c #1E1E1E",
"+  c #210E0E",
"@  c #221111",
"#  c #201515",
"$  c #1D2F2F",
"%  c #212323",
"&  c #222626",
"*  c #272727",
"=  c #2A2F2F",
"-  c #213C3C",
";  c #373737",
":  c #0E4343",
">  c #2A4141",
",  c #3C5F5F",
"<  c #137272",
"1  c #117A7A",
"2  c gray29",
"3  c #544C4C",
"4  c #565656",
"5  c #57575E",
"6  c #5A5A5A",
"7  c #5B5B5C",
"8  c #5D5D5D",
"9  c #61615F",
"0  c #5A5A61",
"q  c #5F5F60",
"w  c #5C5C67",
"e  c #5D5D69",
"r  c #53537A",
"t  c #5F6061",
"y  c #616162",
"u  c #636463",
"i  c #656563",
"p  c #636364",
"a  c #636464",
"s  c #656565",
"d  c #696967",
"f  c #666769",
"g  c #64646C",
"h  c #636B6B",
"j  c #6A6A6A",
"k  c #6C6C6A",
"l  c #6D6E6D",
"z  c #666677",
"x  c #6B6E70",
"c  c #696974",
"v  c #6D6D76",
"b  c #6E6E79",
"n  c #6E7071",
"m  c #6F7274",
"M  c #727272",
"N  c #757575",
"B  c #797976",
"V  c #727378",
"C  c #75757A",
"Z  c #76797B",
"A  c #777B7E",
"S  c #797979",
"D  c #7D7A7A",
"F  c #787B7E",
"G  c #7E7E7E",
"H  c #828276",
"J  c #8C8C78",
"K  c #38389A",
"L  c #424283",
"P  c #555583",
"I  c #535389",
"U  c #454599",
"Y  c #65788B",
"T  c #66798D",
"R  c #687B8F",
"E  c #6A7D8F",
"W  c #797C80",
"Q  c #7C7E82",
"!  c #697D90",
"~  c #6E7F91",
"^  c #5F5FB6",
"/  c #0D0DD1",
"(  c #0202EE",
")  c #0000F3",
"_  c #0101FB",
"`  c #0606F9",
"'  c #0000FE",
"]  c #0505FF",
"[  c #0909F8",
"{  c #0F0FFB",
"}  c #1919F9",
"|  c #2323E5",
" . c #2828F5",
".. c #2020F9",
"X. c #2525FB",
"o. c #2525FC",
"O. c #2D2DF9",
"+. c #3333F4",
"@. c #3434F6",
"#. c #3434FC",
"$. c #4444CB",
"%. c #4545CC",
"&. c #4B4BCF",
"*. c #5B5BD7",
"=. c #6969DB",
"-. c #5757EE",
";. c #4F4FF7",
":. c #5757F2",
">. c #6868E1",
",. c #6D6DEB",
"<. c #6464FF",
"1. c #7878F1",
"2. c #0B9494",
"3. c #0BAAAA",
"4. c #7F8080",
"5. c #7B8084",
"6. c #7C8187",
"7. c #7F8489",
"8. c #6E8090",
"9. c #728291",
"0. c #748393",
"q. c #768593",
"w. c #7A8693",
"e. c #788694",
"r. c #7B8896",
"t. c #7F9E9E",
"y. c #55BEBE",
"u. c #6DA6A6",
"i. c #00C9C9",
"p. c #05D1D1",
"a. c #04DBDB",
"s. c #03E1E1",
"d. c #13EAEA",
"f. c #1FE9E9",
"g. c #00F2F2",
"h. c #00F8F8",
"j. c cyan",
"k. c #0AF8F8",
"l. c #54CDCD",
"z. c #60C0C0",
"x. c #44F5F5",
"c. c #808080",
"v. c #868686",
"b. c #858588",
"n. c #84848D",
"m. c #8A8A8A",
"M. c #8E8E8E",
"N. c #928F8F",
"B. c #979789",
"V. c #858C92",
"C. c #888891",
"Z. c #868F99",
"A. c #8C8C98",
"S. c #86909B",
"D. c #929192",
"F. c #949292",
"G. c #939493",
"H. c #959591",
"J. c #929294",
"K. c #919595",
"L. c #959595",
"P. c #969699",
"I. c #999999",
"U. c #9E9E9F",
"Y. c #A5A592",
"T. c #A5A597",
"R. c #A1A19A",
"E. c #9DA2A2",
"W. c #A2A2A2",
"Q. c #A5A5A2",
"!. c #A0A0A4",
"~. c #A6A6A7",
"^. c #A4A4AA",
"/. c #A5A5AC",
"(. c #A6A8A8",
"). c #AAAAAB",
"_. c #ACABAB",
"`. c #ADADAA",
"'. c #A9A9AC",
"]. c #ABACAC",
"[. c #ADADAD",
"{. c #BEBEAC",
"}. c #AEAEB1",
"|. c #B1B2B2",
" X c #B4B5B5",
".X c #B8B2B2",
"XX c #B2B2BA",
"oX c #B6B6BF",
"OX c #B8B9B9",
"+X c #BFBBBB",
"@X c #BABBBF",
"#X c #BBBDBD",
"$X c #BDBEBE",
"%X c #C2C29B",
"&X c #C2C2BA",
"*X c #C1C1BD",
"=X c #9999CD",
"-X c #AEAEC0",
";X c #B5B5C3",
":X c #B4B4C4",
">X c #B7B8C0",
",X c #B8B8C1",
"<X c #BFBFC1",
"1X c #B9B9C6",
"2X c #B7B7DE",
"3X c #8D8DEA",
"4X c #9090E4",
"5X c #9C9CEA",
"6X c #9898EE",
"7X c #AAAAE3",
"8X c #A0A0EA",
"9X c #B1B1E1",
"0X c #B4B4EA",
"qX c #C2C2C2",
"wX c #C5C5C5",
"eX c #C9C9C9",
"rX c #CCCCCA",
"tX c #CBCBCC",
"yX c #CDCFCF",
"uX c #D6D6D1",
"iX c #D3D3D4",
"pX c #D6D6D6",
"aX c #D3D3D8",
"sX c #D8D8D8",
"dX c #DDDDDD",
"fX c #E2E2D9",
"gX c #E5E5D9",
"hX c #E8E8DE",
"jX c #EEEEDF",
"kX c #C1C1E7",
"lX c #CFCFE4",
"zX c #DFDFE3",
"xX c #DADAE7",
"cX c #D4D4EB",
"vX c #DADAE8",
"bX c #E1E1E1",
"nX c #E7E7E6",
"mX c #E9E9E7",
"MX c #EEEEE7",
"NX c #E4E4E8",
"BX c #E9E9E9",
/* pixels */
"T T E S.7.f 6 7 7 7 7 7 7 7 7 7 7 7 7 7 7 7 7 6 p W S.~ T T ",
"Y 0.Q k M D c.G c.c.c.c.c.c.c.c.c.c.c.c.c.c.G c.G N l Z 9.Y ",
"~ F M c.G G G G G G G G G G G G G G G G G G G D D G c.N M 8.",
"Z.l c.G G G G G G G G G G G G G G G G D D N D m.v.G G c.M V.",
"A N G G G G G G G G G G G G G G 4.G G v.M.W._.qXqXD.D G D f ",
"y D G G G G G G c.c.D G c.c.G D S N c.~.eXsXeX XOXW.c.G G 7 ",
"6 G G G G G D D S S m.c.S S D c.M.W.W.~.pXW.I.m.N v.c.G G 7 ",
"7 G G G D D m.W.|.OXwXwXW.I._. X].M.m.U.pX[.).(.4.S G D G 7 ",
"6 D D D D S D.W._.#XW.|.pX[.S 6 2 * ; W.yX[.|.|.U.G S D D 6 ",
"6 S S S S S L.).I.I.I.m.pXN O   . X = |.+Xh G.|.|.m.N S D 7 ",
"6 S S S S M.).|.[._.|.L.pXu o & % + - x.l.: 3 wXOXG N S S 6 ",
"6 N N M G D.v.W.[._.8 N dXs # @ $ < 1 s.i.> D yX#XS N N N 6 ",
"6 N N M G M.M D ~.eXl N dXs 2.p.a.h.g.3., S I.tX@XS M N N 6 ",
"6 M M M D M.S s _.bXW.n .Xz.d.j.j.k.f.u.M.G.G.rX>XC M M N 6 ",
"6 M M l S M.S s [.bXQ.j I.E.K.y.y.t.K.L.L.G.G.tX,XV l M M 6 ",
"6 l l k N M.S a _.bX!.j I.U.F.N.F.L.D.D.H.J.%.6X&Xb l l M 6 ",
"6 l l k N m.S p `.cX*.r R.U.M.D ~.$XR.H.A.$.' 5X*Xb k l l 6 ",
"6 k k j N m.S a `.xXo.L Y.^.b.c.|.qX1X^ | _ [ 8X*Xb j k k 6 ",
"6 k k j M m.S s [.vXO.K J T.B.N [.<X,.' ] ' +.lXoXv d k k 6 ",
"6 j j s M m.S a '.mX-.( U P I d ~.1X:.` ' { 4XhX-Xv s j j 6 ",
"6 s s a M m.S s '.MX2XX._ ) ) z %X*X@.'  .3XjXmX:Xv i s s 6 ",
"6 s s u l m.S s ].NXgX7X:...} / &.>.#.1.kXiX;XXXC.f i s s 6 ",
"6 a a y l v.N s _.nXaXgXfX9X0X<.;.=.=X{.U.n.c g 8 u a u a 6 ",
"6 y y y a M.M.8 ].BXbXzXzXuX}./.L.H B e 5 8 9 y a p y y y 6 ",
"7 y y y 8 l W.D ).iX}.P.c.C e w 0 6 7 9 u y y y y y y y y 6 ",
"m 8 8 8 8 7 k M.M.M s 8 4 6 8 8 8 y y q 8 8 8 8 8 8 8 8 8 t ",
"Z.t 8 8 8 8 7 s y 6 7 8 8 8 8 8 8 8 8 8 8 8 8 8 8 8 8 8 7 5.",
"9.x 6 7 7 7 7 6 6 8 7 7 7 7 7 7 7 7 7 7 7 7 7 7 7 7 7 6 u q.",
"R r.a 7 6 6 6 7 7 6 6 7 7 7 7 7 7 7 7 7 7 7 7 7 7 6 6 y w.E ",
"T T 0.6.7 6 6 6 6 6 6 6 6 6 6 6 6 6 6 6 6 6 6 6 6 6 Z e.! Y "
};
