/* XPM */
static char *FA_PozosPluviales_N_R[] = {
/* columns rows colors chars-per-pixel */
"30 30 256 2 ",
"   c #121111",
".  c #1B1313",
"X  c #1E1010",
"o  c #181615",
"O  c #1E1E1F",
"+  c #1C2F2F",
"@  c #232021",
"#  c #252525",
"$  c #262B2B",
"%  c #383B3B",
"&  c #3E3E40",
"*  c #1C4F50",
"=  c #1B5858",
"-  c #265C5C",
";  c #136F6F",
":  c #177474",
">  c #2B6B6B",
",  c #3D7373",
"<  c #434545",
"1  c #444848",
"2  c #4F5050",
"3  c #4D5858",
"4  c #5A5A5A",
"5  c #5C5C5B",
"6  c #5B5B5C",
"7  c #5E5E5E",
"8  c #5F5F62",
"9  c #5F5F65",
"0  c #586161",
"q  c #5B7B7B",
"w  c #626262",
"e  c #646463",
"r  c #616167",
"t  c #636565",
"y  c #656565",
"u  c #686866",
"i  c #636369",
"p  c #696969",
"a  c #6B6B6C",
"s  c #6B6D6D",
"d  c #6D6D6D",
"f  c #72726E",
"g  c #6E6E71",
"h  c #6F6F75",
"j  c #6F7275",
"k  c #717171",
"l  c #727275",
"z  c #767676",
"x  c #7B7B77",
"c  c #77777E",
"v  c #76787B",
"b  c #7A7A7A",
"n  c #7D7D78",
"m  c #7A7A7D",
"M  c #7D7D7E",
"N  c #80807F",
"B  c #919176",
"V  c #3333A9",
"C  c #2222B5",
"Z  c #3C3CBD",
"A  c #595990",
"S  c #585895",
"D  c #64788B",
"F  c #667A8D",
"G  c #687B8F",
"H  c #6A7C8F",
"J  c #6C7D8F",
"K  c #777782",
"L  c #7F7F80",
"P  c #7A7B83",
"I  c #697D90",
"U  c #4444A1",
"Y  c #5555BA",
"T  c #6F6EA7",
"R  c #6C6CAA",
"E  c #2424D8",
"W  c #0C0CE1",
"Q  c #1C1CE6",
"!  c #0101FB",
"~  c #0000FC",
"^  c #1212F2",
"/  c #2222FB",
"(  c #2A2AF8",
")  c #3B3BF0",
"_  c #3E3EF3",
"`  c #5151D8",
"'  c #6B6BCD",
"]  c #6969DD",
"[  c #4444E7",
"{  c #4949E1",
"}  c #4141ED",
"|  c #5959EE",
" . c #5050F5",
".. c #6565E3",
"X. c #6D6DE4",
"o. c #6161EE",
"O. c #6F6FFF",
"+. c #7575F3",
"@. c #0B9E9E",
"#. c #199595",
"$. c #0EADAD",
"%. c #07BCBC",
"&. c #2AAFAF",
"*. c #36A4A4",
"=. c #7B8085",
"-. c #7D8185",
";. c #728191",
":. c #758593",
">. c #778694",
",. c #7A8693",
"<. c #7B8896",
"1. c #619191",
"2. c #51BFBF",
"3. c #64A9A9",
"4. c #69AEAE",
"5. c #7CA6A6",
"6. c #78B2B2",
"7. c #00CBCB",
"8. c #0FCACA",
"9. c #1FCBCB",
"0. c #23DEDE",
"q. c #37D7D7",
"w. c #3DD3D3",
"e. c #01E7E7",
"r. c #00F4F4",
"t. c #0AF8F8",
"y. c #04FBFB",
"u. c #68C3C3",
"i. c #45E9E9",
"p. c #828282",
"a. c #858585",
"s. c #838383",
"d. c #888884",
"f. c #878788",
"g. c #828589",
"h. c #84888E",
"j. c #898989",
"k. c #8A8A8C",
"l. c #8B8C8C",
"z. c #8E8E8D",
"x. c #8C8A8A",
"c. c #968C8B",
"v. c #908F8F",
"b. c #90928F",
"n. c #95958E",
"m. c #9B9A8B",
"M. c #848595",
"N. c #878E94",
"B. c #8E8E92",
"V. c #8A8B94",
"C. c #868F99",
"Z. c #918F90",
"A. c #8B9192",
"S. c #8D9192",
"D. c #87909B",
"F. c #84909C",
"G. c #839B9C",
"H. c #819C9C",
"J. c #919191",
"K. c #939595",
"L. c #969696",
"P. c #959091",
"I. c #9D9696",
"U. c #999996",
"Y. c #93939B",
"T. c #939499",
"R. c #959698",
"E. c #93959C",
"W. c #97979D",
"Q. c #969899",
"!. c #909C9C",
"~. c #999A9A",
"^. c #9B9B9D",
"/. c #9B9D9E",
"(. c #9E9E9E",
"). c #A59F9F",
"_. c #A4A48F",
"`. c #A0A09F",
"'. c #9F9FA2",
"]. c #9E9EA5",
"[. c #9897A8",
"{. c #8787B8",
"}. c #8282BA",
"|. c #9E9FB9",
" X c #85ADAE",
".X c #9AA4A4",
"XX c #A1A1A1",
"oX c #A5A2A2",
"OX c #A5A6A2",
"+X c #A2A5A5",
"@X c #A5A5A5",
"#X c #A6A8A8",
"$X c #A1AAAA",
"%X c #A9A9A9",
"&X c #ACABAE",
"*X c #AAADAD",
"=X c #ADADAD",
"-X c #ACA9A9",
";X c #AFAFB0",
":X c #A4A4B4",
">X c #AFB1B1",
",X c #AEB3B5",
"<X c #AEBABA",
"1X c #B1B2B2",
"2X c #B4B3B3",
"3X c #B2B2B5",
"4X c #B0B4B4",
"5X c #B5B5B5",
"6X c #BCB6B6",
"7X c #BBBBB3",
"8X c #B3B3B8",
"9X c #B6B7B9",
"0X c #B6B8B9",
"qX c #BABABA",
"wX c #BBBCBD",
"eX c #BEBEBE",
"rX c #C0BABA",
"tX c #BFC2BF",
"yX c #C0C0BF",
"uX c #9A9ADC",
"iX c #BBBBC0",
"pX c #B7B7C8",
"aX c #BBBBC8",
"sX c #A6A6D7",
"dX c #A6A6D0",
"fX c #B1B1DF",
"gX c #8383EC",
"hX c #8787EC",
"jX c #9898E2",
"kX c #9A9AF2",
"lX c #BBBBE5",
"zX c #BABAE2",
"xX c #BEC0C0",
"cX c #BFC5C5",
"vX c #BEC1C5",
"bX c #C0C1C0",
"nX c #C2C4C5",
"mX c #C8C5C5",
"MX c #C2C2CD",
"NX c gray79",
"BX c #CDCDCE",
"VX c #C2C2D3",
"CX c #C6C6D6",
"ZX c #CECED1",
"AX c #C9C9D2",
"SX c #C1C1D8",
"DX c #CBCBDD",
"FX c #D5D5D3",
"GX c #D3D3D4",
"HX c #D7D6D5",
"JX c #DBDBDF",
"KX c #E2E2DF",
"LX c #D2D2E0",
"PX c #DEDEE3",
"IX c #E7E7E3",
"UX c #E2E2E4",
/* pixels */
"F D H F.h.s 5 7 7 7 7 7 7 7 7 7 7 7 7 7 7 7 7 5 p -.D.J D F ",
"D :.g.p.(.2XbXeXeXeXeXeXeXeXeXeXeXeXeXeXeXeXeXbX5X+Xj.p.;.D ",
"J -.~.wX5X5X5X5X5X5X5X5X5X5X5X5X5X2X2X2X5X5X5X5X5X5XqX@Xm J ",
"C.p.5X=X1X1X1X1X1X1X1X1X1X1X1X>X=X1XqX5X1X1X1X1X1X1X=X5XJ.N.",
"P ~.=X*X=X=X=X=X=X=X=X=X*X-X%X1X0XeXbXwX>X=X=X=X=X=X*X*X@Xs ",
"t +X%X%X%X%X@X@X%X#X+X@X*X1XqX2XNX5X*X%X1X@X%X%X%X%X%X%X*X7 ",
"5 @X@X@X+X@X=XqXwXwX5X=X#XL.l.(.nX%X4X+X+X@X@X@X@X@X@X+X%X7 ",
"5 XXXXXX`.@X1X1X*X2XbXs.2 % $ I.6XXX2X=XXXXXXXXX+XXXXXXX+X7 ",
"6 (.(.(.(.=X1XXXXX+X@X<   . X u.3.3 1X5X^.(.(.^.~.^.(.(.XX5 ",
"5 ~.~.~.'.(.~.5Xp.z.-X1 + = : 8.#.0 wX0XR.~.^.%X5X+X~.~.(.7 ",
"5 L.L.L.(.J.z 5XQ.a.$X*.7.e.r.&.q v.qX,XR.5XbXwX2X=X~.L.~.5 ",
"6 K.J.J.^.J.k 5XbXN !.6.q.w.u.H.x.U.wXvX*X5XeX#X/.Q.L.J.L.6 ",
"5 J.J.J.~.J.k 5XaXc J.-X,XcXrXmX9X].l.y p 5XwX=X#XJ.J.J.J.5 ",
"6 z.z.l.L.z.k 5XhXS m.&XoXoX(.1XXX& # o < <XK.K.qX/.l.z.J.5 ",
"4 j.j.j.K.z.g 7XO.U _.3X*X#X(.%Xx.@ O X - i.> p nX/.a.j.l.6 ",
"6 a.a.a.J.z.g 7XkXE R d.^.;Xt @XA.* ; @.%.$., P.nXQ.p.a.j.4 ",
"4 s.s.p.z.z.k 5XPX| ` K s.NXL.Z. X9.y.t.0.1.p.OXxXE.L s.s.6 ",
"6 p.N M z.z.d 5XIXDXdXP N BXOXb .X5.2.4.G.L.b.[.pXT.M N p.4 ",
"4 M M b f.L.b 1XUXZXyXp.M AX{.m (.z.c.).U.n.T { uXU.v M M 6 ",
"4 b b b b J.~.@X3XY.W.M N SX[ x OXz.S.tX|.Y Q ( sXK.z b b 4 ",
"4 z z z z z j.j.l l z.M L CX_ A z.a.j.iXX.! ~ | VXV.l z z 4 ",
"4 l l k l l d k z l z.M L GXgXW C V B qX} ! ) lXHXM.g k z 4 ",
"4 k k d k k k k k d l.M p.FXLXo./ ^ Z ]  .+.fXMX:XP d d k 4 ",
"4 d d a d d d d d a z.M M GXKXJXzXjX..' }.'.B.K h s d a d 4 ",
"6 p p p p p p p p y L J.a.BXZX8X@XL.k.n f r w y u p p p p 4 ",
"j w y e y y y y y y y L L.B.L g i 9 8 w e y y y y y e y e w ",
"C.w w w w w w w w w w w a e 7 w w e w e w w w w w w w w 7 =.",
";.g 5 7 7 7 7 7 7 7 7 7 5 7 7 7 7 7 7 7 7 7 7 7 7 7 7 7 e :.",
"G <.t 7 6 5 6 5 5 5 5 5 5 5 5 5 5 5 5 5 5 5 5 5 6 5 4 w ,.H ",
"F F :.-.6 4 4 4 4 4 4 4 4 4 4 4 4 4 4 4 4 4 4 4 4 4 v >.I D "
};
