/* XPM */
static char *FA_PozosFecales_FS[] = {
/* columns rows colors chars-per-pixel */
"30 30 256 2 ",
"   c #141214",
".  c #141719",
"X  c #1F1F1E",
"o  c #232323",
"O  c #2A2725",
"+  c #3C3E3E",
"@  c #763000",
"#  c #7B3801",
"$  c #4A372D",
"%  c #78430D",
"&  c #5F402F",
"*  c #59453A",
"=  c #6C4722",
"-  c #7F5124",
";  c #634332",
":  c #6E5033",
">  c #7D593D",
",  c #464544",
"<  c #4D5555",
"1  c #5A5855",
"2  c #6A574D",
"3  c #725C44",
"4  c #766859",
"5  c #686767",
"6  c #6F7170",
"7  c #707171",
"8  c #7C7A77",
"9  c #777878",
"0  c #7A7A7A",
"q  c #7E7C7C",
"w  c #766B65",
"e  c #9F2A26",
"r  c #9E2E2B",
"t  c #9E2B28",
"y  c #A12926",
"u  c #A12E2B",
"i  c #A12F2C",
"p  c #A52F2C",
"a  c #A22C2A",
"s  c #AA2D2A",
"d  c #AD2D29",
"f  c #A02622",
"g  c #B02F2C",
"h  c #A2302D",
"j  c #A5302D",
"k  c #A9312E",
"l  c #AD322F",
"z  c #B5322F",
"x  c #B1312E",
"c  c #A53431",
"v  c #AE3330",
"b  c #AA3330",
"n  c #A73936",
"m  c #A63B39",
"M  c #B13431",
"N  c #B53532",
"B  c #B33330",
"V  c #BA3532",
"C  c #BE3532",
"Z  c #BA3734",
"A  c #BE3734",
"S  c #BE3835",
"D  c #BE3D39",
"F  c #C5312E",
"G  c #C13734",
"H  c #C53734",
"J  c #C93532",
"K  c #CA3532",
"L  c #C23A37",
"P  c #C53936",
"I  c #C93936",
"U  c #CD3B37",
"Y  c #CC3C37",
"T  c #C63B38",
"R  c #C73C39",
"E  c #C13D3A",
"W  c #CB3B38",
"Q  c #CC3B39",
"!  c #CA3C39",
"~  c #CC3C38",
"^  c #C93F3C",
"/  c #824B16",
"(  c #8F5822",
")  c #915E2B",
"_  c #825337",
"`  c #955D3D",
"'  c #986A3D",
"]  c #A5613B",
"[  c #C4413D",
"{  c #CC403E",
"}  c #AE4541",
"|  c #AD4A48",
" . c #BF4340",
".. c #BB4946",
"X. c #BD4946",
"o. c #BA4C4A",
"O. c #B54A48",
"+. c #B6514F",
"@. c #BB524F",
"#. c #AC5653",
"$. c #B75250",
"%. c #BC5452",
"&. c #B65D5B",
"*. c #B45C57",
"=. c #966D44",
"-. c #936B54",
";. c #887055",
":. c #957351",
">. c #BC6F44",
",. c #BA615E",
"<. c #BD615E",
"1. c #A47E59",
"2. c #A87E5F",
"3. c #A77756",
"4. c #BC7E5B",
"5. c #A76946",
"6. c #8A7A6E",
"7. c #807979",
"8. c #957F7E",
"9. c #997F7E",
"0. c #AD6967",
"q. c #AE6B69",
"w. c #B56563",
"e. c #BB6361",
"r. c #B76A67",
"t. c #B76D6F",
"y. c #BB6E6F",
"u. c #B3766D",
"i. c #B76E70",
"p. c #A07E7D",
"a. c #BB7473",
"s. c #B07977",
"d. c #B47B7D",
"f. c #B47578",
"g. c #C84846",
"h. c #C64847",
"j. c #C4514F",
"k. c #CF524F",
"l. c #C25553",
"z. c #CE5351",
"x. c #C65C5A",
"c. c #C85F5E",
"v. c #CA794A",
"b. c #CD7E51",
"n. c #C36A69",
"m. c #D16A68",
"M. c #C57372",
"N. c #CC7673",
"B. c #CD7F7D",
"V. c #C57E7C",
"C. c #9D8579",
"Z. c #A68868",
"A. c #B98669",
"S. c #B7946F",
"D. c #A5867A",
"F. c #BF807F",
"G. c #B39A79",
"H. c #CB9476",
"J. c #62798C",
"K. c #647C8F",
"L. c #66798C",
"P. c #7F7F80",
"I. c #657D91",
"U. c #6E7E90",
"Y. c #727F90",
"T. c #817F8C",
"R. c #7F8080",
"E. c #6F8093",
"W. c #7A8392",
"Q. c #828282",
"!. c #848484",
"~. c #888887",
"^. c #868788",
"/. c #8E8E8E",
"(. c #8C8B8B",
"). c #838887",
"_. c #978180",
"`. c #948F8C",
"'. c #9E9089",
"]. c #8B8692",
"[. c #838692",
"{. c #998E98",
"}. c #8E9192",
"|. c #919191",
" X c #949495",
".X c #999795",
"XX c #9F9D97",
"oX c #959799",
"OX c #9A9A9B",
"+X c #9F9E9E",
"@X c #97999A",
"#X c #A08787",
"$X c #A88988",
"%X c #AA8587",
"&X c #BF8280",
"*X c #B78A88",
"=X c #B98E8D",
"-X c #A49488",
";X c #B39583",
":X c #BA9E84",
">X c #A38C94",
",X c #A09F9F",
"<X c #A69A91",
"1X c #B19696",
"2X c #B99D9D",
"3X c #A2A09E",
"4X c #ACA59E",
"5X c #9A9FA4",
"6X c #A2A1A1",
"7X c #A2A4A4",
"8X c #A5A5A5",
"9X c #A9A5A5",
"0X c #AAAAAA",
"qX c #ABADAD",
"wX c #B0A7A8",
"eX c #B4AFAE",
"rX c #BDAEAF",
"tX c #BBB2A7",
"yX c #AFB8B9",
"uX c #B2B2B2",
"iX c #B6B5B5",
"pX c #B5B3B3",
"aX c #B7B7BA",
"sX c #B3B9B9",
"dX c #BDBBBA",
"fX c #BABBBB",
"gX c #B8B4B1",
"hX c #C68F8F",
"jX c #CA8E8C",
"kX c #C68682",
"lX c #C2918E",
"zX c #CB9392",
"xX c #C59998",
"cX c #C0A896",
"vX c #C5AE9D",
"bX c #C0A493",
"nX c #C3AEAD",
"mX c #CAA7A6",
"MX c #CAB9AD",
"NX c #C0BFBF",
"BX c #C4BCBB",
"VX c #C6B8B6",
"CX c #D1BCB9",
"ZX c #CEC6BC",
"AX c #BCC4C5",
"SX c #C4C3C3",
"DX c #CCCBCA",
"FX c #CDC8C3",
"GX c #D6C7C7",
"HX c #D4CBCB",
"JX c #D4D1CC",
"KX c #D4D2D2",
"LX c #D9D2D1",
"PX c #DBDDDC",
"IX c #E1DEDE",
"UX c #E3E4E4",
/* pixels */
"L.J.U.{.d.%.X.X.X.X.X.X.X.X.X.X.X.X.X.X.X.X.X.X.%.i.>XY.J.L.",
"J.W.a.h.! W U U U U U U U U U U U U ~ ~ U U U U Y ! h.n.T.J.",
"E.y.I U ~ ~ ~ ~ ~ ~ ~ ~ ~ ~ ~ ~ ~ U K K ~ ~ ~ ~ ~ ~ U I x.Y.",
"{.h.Q ! W W ! ! ! ! W ~ ! ! ~ I I { k.g.W Q W W W Q ! ! g.%X",
"t.^ W ! ! ! ! ! W Q ! ! I J J x.N.jXnXxXg.I ! ! ! ! ! ! W %.",
"@.! ! ! ! W J K ^ ^ F J { z.m.2XDXsX*Xa.z.I ! ! ! ! ! ! ! X.",
"X.! ! ! I g.n.B.zXzXN.M.d.p.8.+XSX9XV.[ I ! ! ! ! ! ! ! W X.",
"X.R T ! P j.2XyXqXsXNXQ.< + O @XaX7XeXM.T R R ! ^ R T T T X.",
"X.T T P [ M.2X,X6X6X8X,   . . ;XC.1 pXhXE R T H F H T T T X.",
"X.L L H j.$XOXpXQ./.0X, O $ ; 5.> 1 dXjXS E  .c.B.l.L L L X.",
"X.L L G l.9.9 iX.X!.9X-.] >.v.-.w }.fXkX..lXmXnXeX&X[ G L X.",
"X.S S A %.9.6 iXSXP..X-XA.A.;X`.(.oXdXmX=XiXAX1X,.o.D A S X.",
"X.S S C %.9.7 iXBX8 |.0XuXSXdXSXiX3X(.5 5 iXdXwXa.D C S A X.",
"X.Z Z C @.9.7 iX:X4 oX0X7X7X+XuX6X+ o . , gX X XrX<.V S Z X.",
"X.Z Z V @.9.6 aXS.3 5XuX0X9X+X0X(.o X . * H.* 5 BXe.z Z V X.",
"X.N N N +.9.7 aXvX- 6.^.OXeX5 8X`.$ & _ ` ` 2  XBX<.z N N X.",
"X.N N z +.9.7 iXIX1.:.8 !.DX X|.<X3.b.b.4.6.Q.7XVX,.x N B X.",
"X.B M x +._.6 pXUXJXtXq P.DX8X0 3X'.D.D.`. X|.XXnX,.g B B X.",
"X.M M x O.D.0 uXUXHXBXQ.q DX-X0 +X/.}.6XOX X6.=.bXe.d M M X.",
"X.v v l M &.$X1XzXr.s.8 R.FX=.0 8X/.`.NX4X;./ ) vXe.d v l X.",
"X.l l l l l $.+.k s 0.7.R.FX' 4 /.!.~.dXZ.# # 1.CX*.s l l ..",
"X.l l k v v s s b l q.7.q KX:X% = : [.fX=.@ ' ZXLX*.s l k X.",
"..k k k k k b b k k 0.7.R.KXLXZ.( / > Z.1.G.MXCXlX} p k k X.",
"X.j j j j j j j j p q.8 R.KXUXPXZXcX2.3.u.F.w.| n j j j p ..",
"..j p j j j j j j u #.#X).DXGXmXlXa.w.| m y f y p j j j u X.",
"w.c u i i i i i i u h #.%Xu.#.m h e e y a i h h h i i i u @.",
">X} u i i i i i i i u i m h e t u i i i i i i i i i i u c f.",
"W.&.u r r r r r r r r r e r r r r r r r r r r r r r r t o.[.",
"K.].$.n r r r r r r r r r r r r r r r r r r r r r r c O.].I.",
"L.K.W.d.o.....X.X.X.X.X.X.X.X.X.X.X.X.X.X.X.X.......t.[.I.L."
};
