/* XPM */
static char *FA_PozoPluvial_NR_R[] = {
/* columns rows colors chars-per-pixel */
"30 30 256 2 ",
"   c #1A1D1C",
".  c #161614",
"X  c #220F0E",
"o  c #211313",
"O  c #201F1E",
"+  c #1D302F",
"@  c #262828",
"#  c #213B3B",
"$  c #373737",
"%  c #0F4343",
"&  c #2B4141",
"*  c #3D5F5F",
"=  c #127676",
"-  c #585A5D",
";  c #4E4A4B",
":  c #605E5B",
">  c #53537A",
",  c #676565",
"<  c #656364",
"1  c #6B6A6A",
"2  c #666867",
"3  c #6E7172",
"4  c #747576",
"5  c #74777A",
"6  c #74787A",
"7  c #7C7B7B",
"8  c #666677",
"9  c #D26F1D",
"0  c #D0701E",
"q  c #CD6F20",
"w  c #CF7223",
"e  c #CF7224",
"r  c #CF7426",
"t  c #CF742E",
"y  c #D17526",
"u  c #D37424",
"i  c #D27729",
"p  c #D3752A",
"a  c #D57A2E",
"s  c #D4792C",
"d  c #D97B2D",
"f  c #D97D2C",
"g  c #CC773A",
"h  c #CD7836",
"j  c #D67D31",
"k  c #D67D32",
"l  c #D87E30",
"z  c #D37F3E",
"x  c #DA8135",
"c  c #DC8335",
"v  c #D7833D",
"b  c #DD8539",
"n  c #DC863D",
"m  c #E28A3D",
"M  c #E18636",
"N  c #F38F3E",
"B  c #F3903F",
"V  c #F4913F",
"C  c #8C8C78",
"Z  c #BC9675",
"A  c #BE9979",
"S  c #D78647",
"D  c #DA904D",
"F  c #D48952",
"G  c #D98D56",
"H  c #DD935B",
"J  c #E28D42",
"K  c #E48E43",
"L  c #ED8E41",
"P  c #E59046",
"I  c #E69349",
"U  c #E7944C",
"Y  c #E9944A",
"T  c #E9954A",
"R  c #F59241",
"E  c #F59444",
"W  c #F1964B",
"Q  c #EB9A51",
"!  c #EE9D54",
"~  c #EE9A52",
"^  c #E79957",
"/  c #F09F56",
"(  c #F29D52",
")  c #F09F58",
"_  c #F3A157",
"`  c #F5A55E",
"'  c #F3A25B",
"]  c #D99866",
"[  c #C99A73",
"{  c #C19C7D",
"}  c #D49E74",
"|  c #CE9A6A",
" . c #E69D60",
".. c #DDA06F",
"X. c #D9A57A",
"o. c #ECA76B",
"O. c #E8A161",
"+. c #F5A661",
"@. c #F7A862",
"#. c #F9AD66",
"$. c #FAAC64",
"%. c #FAAE68",
"&. c #FBAE6B",
"*. c #F8A967",
"=. c #FEB16A",
"-. c #FEB26D",
";. c #FEB36C",
":. c #E5AA76",
">. c #F4B275",
",. c #FFB572",
"<. c #FFB674",
"1. c #FCB372",
"2. c #FEB97A",
"3. c #FEBB7E",
"4. c #F6B57A",
"5. c #38389B",
"6. c #434383",
"7. c #555486",
"8. c #454599",
"9. c #61778C",
"0. c #66798C",
"q. c #6F7E8E",
"w. c #627A90",
"e. c #717F90",
"r. c #605FB6",
"t. c #0302EF",
"y. c #0100F2",
"u. c #0001FE",
"i. c #0404FB",
"p. c #0C0BF9",
"a. c #1614F9",
"s. c #2424FB",
"d. c #2B2BF7",
"f. c #3434F7",
"g. c #2423E4",
"h. c #0F0ED0",
"j. c #4847CC",
"k. c #5C5BD6",
"l. c #7C6DD4",
"z. c #514FF6",
"x. c #5858F1",
"c. c #5857ED",
"v. c #5C62FF",
"b. c #696AE7",
"n. c #7477F2",
"m. c #0B9494",
"M. c #0CAAAA",
"N. c #75818E",
"B. c #7C8288",
"V. c #7F9E9E",
"C. c #788592",
"Z. c #55BEBE",
"A. c #6EA6A6",
"S. c #00C9C9",
"D. c #05D7D6",
"F. c #03E1E1",
"G. c #00FDFD",
"H. c #06F5F5",
"J. c #14EAE9",
"K. c #20E9E9",
"L. c #60C0C0",
"P. c #45F5F5",
"I. c #54CDCC",
"U. c #8C8C8C",
"Y. c #838384",
"T. c #918F8E",
"R. c #98948C",
"E. c #828A91",
"W. c #8B8D94",
"Q. c #959292",
"!. c #959495",
"~. c #939392",
"^. c #9B9B9B",
"/. c #9A9897",
"(. c #A79D95",
"). c #A0A09B",
"_. c #A8A596",
"`. c #B7A190",
"'. c #9EA2A4",
"]. c #A3A3A3",
"[. c gray67",
"{. c #ADADAB",
"}. c #AEAEAD",
"|. c #AAABAC",
" X c #A4A6AB",
".X c #B3AEA9",
"XX c #BAB3AE",
"oX c #ABAEB1",
"OX c #ADB1B4",
"+X c #B2B2B2",
"@X c #BDBCBD",
"#X c #B7B6B5",
"$X c #C5A283",
"%X c #C9A78A",
"&X c #D7A982",
"*X c #D1AF9A",
"=X c #D7B89D",
"-X c #E9B586",
";X c #F4B981",
":X c #FFBD82",
">X c #FDBF86",
",X c #F8BF8B",
"<X c #E4BC97",
"1X c #CCB5A2",
"2X c #C3B6AA",
"3X c #D4BAA7",
"4X c #D2BDB7",
"5X c #CCB6B4",
"6X c #C2C29B",
"7X c #FFC086",
"8X c #FEC189",
"9X c #FCC28D",
"0X c #F6C08F",
"qX c #FDC590",
"wX c #FFC996",
"eX c #F6C69A",
"rX c #EBC99A",
"tX c #D9C4AF",
"yX c #C1C0BE",
"uX c #D7C3B5",
"iX c #D9C6B7",
"pX c #E1C1A3",
"aX c #F3CAA3",
"sX c #F1CCAC",
"dX c #E1CBB2",
"fX c #AF9EC3",
"gX c #BBBBC4",
"hX c #B7B7DE",
"jX c #9696E9",
"kX c #8B8CEA",
"lX c #9CA0EC",
"zX c #ADB2EC",
"xX c #B1B1E1",
"cX c #AAAAE3",
"vX c #BEC1E9",
"bX c #C0C3C3",
"nX c #C6C9CB",
"mX c #CBCCCC",
"MX c #C0C4C8",
"NX c #DECFC1",
"BX c #C8CED0",
"VX c #D5D5D6",
"CX c #DCD6D3",
"ZX c #DBDBDB",
"AX c #D4D3D0",
"SX c #E2D1C1",
"DX c #E4D8CC",
"FX c #E6E6DA",
"GX c #E4E2D6",
"HX c #DADCE6",
"JX c #D4D4EB",
"KX c #CACEE6",
"LX c #DDE3E6",
"PX c #E1E1E2",
"IX c #EBECE4",
"UX c #E6E6E7",
/* pixels */
"0.9.q.(.&X! R E E E E E E E E E E E E E E E E R ~ ..(.N.9.0.",
"9.E.X.*.2.9XwXwXwXwXwXwXwXwXwXwXwXwXwXwXwXwXwXwXqX3.*.o.U.9.",
"e.:.,.qX8X8X8X8X8X8X8X8X8X8X8X8X8X8X8X8X8X8X8X7X8X8X9X3.+.N.",
"(.+.7X:X:X:X:X:X:X:X:X:X:X:X:X:X:X:X:X:X3.2.3.9X,X:X:X>X&.%X",
"..&.2.2.2.2.2.2.2.2.2.2.2.2.2.2.2.2.2.:X,XaXsXSXNX0X2.2.<.! ",
"W -.,.,.,.,.,.<.<.<.-.,.<.<.,.,.-.=.>.3XNXVXMX#X#X<X<.,.<.E ",
"R -.-.=.;.-.=.=.#.#.4.>.#.$.%.1.;XeX=X'.VX]._.X.| :.-.=.-.R ",
"R %.%.%.%.%.4.<XaXsXSXSX<X-XpXtX2XT.U.).VX[..XeX;.$.%.#.=.R ",
"R #.#.#.#.$.-X].|.@X'.OXCXXX5 - ; @ $ ].mX}.+X+X<X%.$.$.#.R ",
"R @.@.@.@.+.;X1X^././.U.VX4 O . .   @ +X@X2 Q.oX5X>.` @.@.R ",
"R ` ` ` ` :.2XXX}.[.+X!.VX<   @ @ X # P.I.% ; MXuXo.' ` ` R ",
"R ' ' _ @.$XB.].}.[.- 4 ZX, o o + = = F.S.& 7 BXiXO._ ' ' R ",
"R / / / +.$X3 7 ].nX1 4 ZX, m.D.D.G.H.M.* 7 ^.nXiX .( / ) R ",
"R ! ! ~ ` $X5 , [.PX].3 #XL.J.G.G.H.K.A.U.~.!.nXuX^ ( ! ! R ",
"R Q Q Q ' { 5 , }.PX].2 ^.'.~.Z.Z.V.~.!.!.~.~.nXuXH W Q Q R ",
"V T U Y ! { 5 , {.PX].2 ^.^.Q.T.Q.!.Q.~.!.~.j.jXdXH T U U V ",
"R I I P Q { 6 < {.JXk.> ).^.U.7  X@X).Q.W.j.u.jXdXG P I I R ",
"V P P K Q A 6 < {.HXs.6._. XY.Y.+XbXgXr.g.i.p.lXdXG K P K B ",
"R J J m U A 5 , {.HXd.5.C _.R.4 }.gXb.u.i.u.f.KX4XG m J J R ",
"V m m m I Z 5 , |.IXc.t.8.7.7.2  XgXx.i.u.p.jXFX5XF m J m V ",
"V b b b K Z 6 , |.IXhXs.u.y.y.8 6XyXf.u.d.kXIXLX4XF M n b V ",
"V b b x J Z 6 , {.UXFXcXx.s.a.h.j.b.f.n.vXCX4X3X} n c b c V ",
"B x x l S Z 4 , [.UXVXFXGXxXzXv.z.l.fXrX&X| S z d c x x x B ",
"N j j j x [ W.: {.UXLXHXHXDX=X*XX.U D g p a f l k j j j k B ",
"R a a a s v %X7  XDX1XX.] F g h t y y a j a k a a a a a s N ",
"] d i i i u v [ [ S h p 9 u i i i s s i i i i i i i i i i Y ",
"`.b y y y y w a s 0 u y i i y y y y y y y y y y y y y r d } ",
"C.^ u w w w e w w e e w w w w w w w w w w w w w w w w q L E.",
"w.~.I d w q q q q q q q q q q q q q q q q q q q q w y L R.w.",
"0.w.E.} L N N N N N N N N N N N N N N N N N N N N N ] W.w.0."
};
