/* XPM */
static char *FA_PozoPluvial_SC_R[] = {
/* columns rows colors chars-per-pixel */
"30 30 256 2 ",
"   c #1A1D1C",
".  c #161614",
"X  c #220F0E",
"o  c #211313",
"O  c #1F201E",
"+  c #1D302F",
"@  c #262828",
"#  c #213B3C",
"$  c #373737",
"%  c #0F4443",
"&  c #2B4141",
"*  c #3D605F",
"=  c #127676",
"-  c #574E4C",
";  c #58585B",
":  c #46464A",
">  c #62605B",
",  c #53537A",
"<  c #676665",
"1  c #656563",
"2  c #686765",
"3  c #6A6866",
"4  c #6B6B6A",
"5  c #636B6B",
"6  c #6A6A75",
"7  c #6E7071",
"8  c #747476",
"9  c #737379",
"0  c #73747A",
"q  c #7C7B7A",
"w  c #77787C",
"e  c #807F7C",
"r  c #FECB01",
"t  c #FFCC01",
"y  c #FFCD06",
"u  c #FCCB07",
"i  c #FECF09",
"p  c #FFCF0C",
"a  c #FCCB08",
"s  c #FFD00D",
"d  c #FFD10B",
"f  c #F7CB14",
"g  c #FACE15",
"h  c #FED112",
"j  c #FED214",
"k  c #FFD515",
"l  c #FED319",
"z  c #FED41A",
"x  c #FED51D",
"c  c #FFD81E",
"v  c #EFC829",
"b  c #F3CD29",
"n  c #F7CD21",
"m  c #FED621",
"M  c #FCD524",
"N  c #FFD926",
"B  c #FFDA21",
"V  c #FFD929",
"C  c #FFDA2E",
"Z  c #FFDC2B",
"A  c #F7D028",
"S  c #F1CD32",
"D  c #FFDE35",
"F  c #FDDC32",
"G  c #FEDF3A",
"H  c #FADA3B",
"J  c #F9D538",
"K  c #E8C635",
"L  c #FFE13D",
"P  c #FFE235",
"I  c #8C8C78",
"U  c #BAB37C",
"Y  c #CABD74",
"T  c #CABE7B",
"R  c #C7B970",
"E  c #DAC254",
"W  c #E3C748",
"Q  c #F5D547",
"!  c #E3C952",
"~  c #E4CC58",
"^  c #EFDA5E",
"/  c #F3D955",
"(  c #FFE345",
")  c #FFE343",
"_  c #FEE54B",
"`  c #FEE849",
"'  c #FEE653",
"]  c #FFE954",
"[  c #FFEB5B",
"{  c #DEC96C",
"}  c #D4C265",
"|  c #EED967",
" . c #EED972",
".. c #E9D477",
"X. c #F3DF7F",
"o. c #FEEC62",
"O. c #FFED65",
"+. c #FEEE69",
"@. c #F7E267",
"#. c #FFF16D",
"$. c #FFF166",
"%. c #F2E472",
"&. c #F6E976",
"*. c #FDF276",
"=. c #FFF474",
"-. c #FFF57D",
";. c #FFF67A",
":. c #FEF87F",
">. c #38389B",
",. c #434383",
"<. c #565586",
"1. c #464599",
"2. c #61768E",
"3. c #66798D",
"4. c #6F7F8B",
"5. c #617793",
"6. c #627893",
"7. c #7B7C86",
"8. c #6060B6",
"9. c #0303EF",
"0. c #0101F2",
"q. c #0000FE",
"w. c #0303FB",
"e. c #0D0CF9",
"r. c #1616F9",
"t. c #2424FB",
"y. c #2E2FFB",
"u. c #2928F5",
"i. c #3030EF",
"p. c #100FD0",
"a. c #4848CC",
"s. c #5C5CD6",
"d. c #5858F1",
"f. c #5657FB",
"g. c #5858ED",
"h. c #6969E7",
"j. c #7374F3",
"k. c #817CD2",
"l. c #0B9494",
"z. c #0CAAAA",
"x. c #74828C",
"c. c #798588",
"v. c #7F9E9E",
"b. c #55BEBE",
"n. c #6EA6A6",
"m. c #00C9C9",
"M. c #05D7D6",
"N. c #03E1E1",
"B. c #00FDFD",
"V. c #06F5F5",
"C. c #14EAE9",
"Z. c #20E9E9",
"A. c #60C0C0",
"S. c #45F5F5",
"D. c #54CDCD",
"F. c #8C8D8C",
"G. c #828788",
"H. c #918F8F",
"J. c #8A9287",
"K. c #969987",
"L. c #8A8B95",
"P. c #959592",
"I. c #959495",
"U. c #929293",
"Y. c #9B9B9B",
"T. c #A9A988",
"R. c #A1A19A",
"E. c #A5A594",
"W. c #9F9FA4",
"Q. c #9EA1A1",
"!. c #A3A4A3",
"~. c #AAAAAB",
"^. c #ADADAB",
"/. c #AEAEAD",
"(. c #AAAAAC",
"). c #A3A4AC",
"_. c #B0AEAB",
"`. c #AFB0A0",
"'. c #B5B5AE",
"]. c #ACACB1",
"[. c #B2B2B2",
"{. c #BDBCBC",
"}. c #B9B7B4",
"|. c #CAC184",
" X c #CCC88A",
".X c #C8C496",
"XX c #DBCF9E",
"oX c #DAD290",
"OX c #E3D698",
"+X c #FEF682",
"@X c #FFF282",
"#X c #FEF987",
"$X c #FEFA8E",
"%X c #FEFA8B",
"&X c #FFF189",
"*X c #E9E696",
"=X c #FFFE96",
"-X c #FCFB91",
";X c #F4F39B",
":X c #FBF59C",
">X c #FFFE9A",
",X c #FFFF9E",
"<X c #FDFB9B",
"1X c #FDF393",
"2X c #F7EB8E",
"3X c #C1C1AD",
"4X c #CBC8AB",
"5X c #C6C5B9",
"6X c #D8D4BA",
"7X c #DCDABD",
"8X c #D8D3B5",
"9X c #D5D1B1",
"0X c #E3D9AA",
"qX c #E9E7A9",
"wX c #F7F6A2",
"eX c #FFFFA0",
"rX c #FEFEA6",
"tX c #FEFEA8",
"yX c #FEFEAD",
"uX c #E5E1B4",
"iX c #F4F4B3",
"pX c #FFFFB0",
"aX c #FEFEB7",
"sX c #FBFAB4",
"dX c #F3F3BD",
"fX c #FEFEBA",
"gX c #B6AFC3",
"hX c #BBBBC4",
"jX c #B7B7DE",
"kX c #9797EA",
"lX c #8A8BEA",
"zX c #ABACE8",
"xX c #B7B7E5",
"cX c #C0BFC5",
"vX c #C0C2C3",
"bX c #C5C6CB",
"nX c #CACBCD",
"mX c #DDDDCD",
"MX c #CECED4",
"NX c #D6D5D5",
"BX c #D9DAD7",
"VX c #DDDDDD",
"CX c #E0DDD0",
"ZX c #E2E1CB",
"AX c #EBE6CA",
"SX c #FDFFC4",
"DX c #FFFFCB",
"FX c #FFFFCD",
"GX c #F2F1C2",
"HX c #E5E5D9",
"JX c #DADBE5",
"KX c #D7D9EA",
"LX c #C9CAE6",
"PX c #E1E1E2",
"IX c #EAEAE4",
"UX c #E6E6E9",
/* pixels */
"3.2.4.E.} b p p p p p p p p p p p p p p p p p p n ! T.x.2.3.",
"2.G.~ ' &XsXFXDXDXDXDXDXDXDXDXDXDXDXDXDXDXDXDXFXfX1X@.Q J.2.",
"x.! @XSXfXfXaXaXaXaXaXaXaXaXaXaXaXaXaXaXaXfXaXaXaXfXSX:XQ c.",
"T./ fXyXyXpXpXpXpXpXpXpXpXpXpXpXpXpXpXyXyXyXyXsXsXyXyXfX&.Y ",
"! @XrXrXtXtXtXtXtXtXtXtXtXtXtXtXtXtXtXyXiXdXGXZXmXiXrXrX<Xb ",
"g =X,X,X,X,XeXeXeXeX,X,XeXeXeX,X>X>X;X9XmXMXcX}.[.uXeX,XrXp ",
"y >X=X=X=X=X=X=X-X-XwX;X-X-X-X<XwXiX9XW.NX!.`.XX X*X>X=X,Xi ",
"i $X-X$X$X$X;XuXdXGXZXAXqXqXuX7X3XH.F.!.BX~.'.iX=X%X-X$X=Xi ",
"y %X%X#X#X#X*X!.(.{.W.].BX'.8 ; : @ $ !.nX/.[.[.qX%X#X#X$Xy ",
"y +X+X+X+X+X:X4XY.Y.Y.F.NX8 O . .   @ [.{.5 P.].4X1X-.+X#Xi ",
"y -.-.-.-.*X3X}./.^.[.I.NX1   @ @ X # S.D.% - vX6X2X;.-.+Xy ",
"y *.*.*.:..X7.Q./.~.; 8 VX< o o + = = N.m.& q nX7X&.=.*.-.y ",
"y #.#.#.;. X7 e !.nX4 8 VX< l.M.M.B.V.z.* q Y.bX7X%.#.#.*.y ",
"y +.+.O.=. X9 2 ~.PX!.7 }.A.C.B.B.V.Z.n.F.U.P.bX7X%.$.+.#.y ",
"y o.o.o.#.|.9 < /.PX!.3 Y.Q.U.b.b.v.U.I.I.P.P.bX7X%.[ o.+.y ",
"y [ [ [ O.|.9 < ^.PX!.3 Y.Y.U.H.U.I.U.U.P.U.a.kXuX| [ [ o.y ",
"t ] ] ' [ |.0 1 ^.KXs., R.Y.F.q !.{.R.P.L.a.q.kXuX| ] ' [ y ",
"y _ _ _ ] T 9 < ^.JXt.,.E.).G.G.[.vXhX8.u.w.e.kXuX^ ` _ ' y ",
"t _ ( ( ] T 0 < ^.JXy.>.I E.K.8 /.hXh.q.w.q.i.LX8X/ ) ( _ t ",
"t ) ) L _ T 9 2 (.IXg.9.1.<.<.3 !.hXd.w.q.e.kXHX9X/ L ) ( t ",
"t L G G ( Y 0 2 (.IXjXt.q.0.0.6 .X5Xi.q.u.lXIXJX6X/ P G L t ",
"t D D F L Y 0 2 ^.UXHXzXd.t.r.p.a.h.y.j.xXCX8X0X .H F D D t ",
"r C C V L R 8 3 ~.IXNXHXHXzXzXf.f.k.gX;XX.| Q J N Z C C C t ",
"r N N N V { L.> _.UXJXJXKXZXOXOX .( Q S M m B N V N N N V r ",
"u m m m x F oXw ).AXXX../ Q b b M z z c m m m m m m m x m r ",
"K j z l z j C { { J A l d h k k z x x z z z z z z z l l l f ",
"U g h j j j h x z d s h j j j j j j j j j j j j j j h j s E ",
"x.v i p p s s i i s s s s s s s s s s s s s s s s p p i g J.",
"5.K.f a y y y y y y y y y y y y y y y y y y y y y y y p K.6.",
"3.5.G.E u r r t t t t t t t t t t t t t t t t r r r W J.5.3."
};
