/* XPM */
static char *FA_PozosPluviales_A_R[] = {
/* columns rows colors chars-per-pixel */
"30 30 256 2 ",
"   c #1B1213",
".  c #181819",
"X  c #1C2F2F",
"o  c #242323",
"O  c #262B2A",
"+  c #393A37",
"@  c #3E3E40",
"#  c #1C4F50",
"$  c #1A5858",
"%  c #265C5D",
"&  c #136F6F",
"*  c #167575",
"=  c #3D7374",
"-  c #2B6B6C",
";  c #464848",
":  c #4D5858",
">  c #586160",
",  c #5A7B7B",
"<  c #676768",
"1  c #706F6F",
"2  c #70706F",
"3  c #6F6F70",
"4  c #706F70",
"5  c #727272",
"6  c #7F7F7F",
"7  c #7A7A7C",
"8  c #79797B",
"9  c #807F7F",
"0  c #80807E",
"q  c #909177",
"w  c #3333A9",
"e  c #2222B5",
"r  c #3C3CBC",
"t  c #2F619B",
"y  c #30619B",
"u  c #31629D",
"i  c #34649E",
"p  c #33649E",
"a  c #3667A1",
"s  c #3566A2",
"d  c #3867A3",
"f  c #3868A1",
"g  c #3D6BA4",
"h  c #3E6CA5",
"j  c #3B6BA4",
"k  c #3B6AA7",
"l  c #595993",
"z  c #64778A",
"x  c #65788B",
"c  c #677A8C",
"v  c #697B8C",
"b  c #7B7D80",
"n  c #7A7A84",
"m  c #777782",
"M  c #6B7E92",
"N  c #4444A1",
"B  c #5555BA",
"V  c #416FA7",
"C  c #416FA8",
"Z  c #4573AB",
"A  c #4574AC",
"S  c #4976AE",
"D  c #4A74A9",
"F  c #4571A7",
"G  c #4E7BB1",
"H  c #4B7BB5",
"J  c #497DB9",
"K  c #4C7FBB",
"L  c #4C7EBC",
"P  c #4A7EBB",
"I  c #517EB5",
"U  c #537DB4",
"Y  c #557EB7",
"T  c #6D6DA9",
"R  c #2425D8",
"E  c #0C0CE1",
"W  c #0000FD",
"Q  c #1212F3",
"!  c #1B1CE6",
"~  c #2626FA",
"^  c #3D3DF2",
"/  c #5151D8",
"(  c #666BDC",
")  c #4242EC",
"_  c #4949E0",
"`  c #5655F2",
"'  c #5859EC",
"]  c #6164EC",
"[  c #6D6DE5",
"{  c #6F6FFF",
"}  c #7875F0",
"|  c #0B9E9E",
" . c #199494",
".. c #0EADAD",
"X. c #07BCBC",
"o. c #2AAFAF",
"O. c #37A4A4",
"+. c #6D8095",
"@. c #72879D",
"#. c #72869B",
"$. c #619191",
"%. c #5B83AE",
"&. c #4D80BC",
"*. c #4C80BB",
"=. c #5582B7",
"-. c #5082BD",
";. c #5582B9",
":. c #5A86BB",
">. c #5E8ABE",
",. c #5B88BF",
"<. c #6283AF",
"1. c #768CA3",
"2. c #798EA4",
"3. c #7790AF",
"4. c #6A8EBC",
"5. c #6589B8",
"6. c #6C91BD",
"7. c #7992B2",
"8. c #7293BC",
"9. c #7D9BBD",
"0. c #7790B0",
"q. c #51BFBF",
"w. c #67ACAC",
"e. c #78B2B2",
"r. c #7CA6A6",
"t. c #628CC1",
"y. c #648EC3",
"u. c #6690C4",
"i. c #6C95C7",
"p. c #6B95CA",
"a. c #6F98CB",
"s. c #7396C0",
"d. c #7599C2",
"f. c #7C9CC4",
"g. c #729BCE",
"h. c #749CCD",
"j. c #7E9EC8",
"k. c #7484D1",
"l. c #769FD1",
"z. c #7EA1CC",
"x. c #7EA6D6",
"c. c #7BA3D3",
"v. c #7BA3D5",
"b. c #07CBCB",
"n. c #1FCBCB",
"m. c #23DEDE",
"M. c #3AD5D5",
"N. c #00E7E7",
"B. c #05F8F8",
"V. c #68C3C3",
"C. c #45E9E9",
"Z. c #838383",
"A. c #8E8E8E",
"S. c #8B8A8A",
"D. c #888884",
"F. c #938E8D",
"G. c #93938F",
"H. c #9B9A8B",
"J. c #898E97",
"K. c #918F90",
"L. c #88909A",
"P. c #8C939C",
"I. c #879697",
"U. c #949494",
"Y. c #9A9A97",
"T. c #939A9B",
"R. c #9E9F9F",
"E. c #9B9A9B",
"W. c #9D9696",
"Q. c #A49F9F",
"!. c #A4A48F",
"~. c #A6A69F",
"^. c #8897A8",
"/. c #909AA6",
"(. c #9F9FA3",
"). c #9897A8",
"_. c #839AB4",
"`. c #809CBB",
"'. c #9E9FB9",
"]. c #8787B9",
"[. c #85ADAE",
"{. c #9AA3A8",
"}. c #9DA6B2",
"|. c #A4A3A3",
" X c #A4A9A9",
".X c #ABAAAA",
"XX c #B2B0AE",
"oX c #AEAFB1",
"OX c #A1ADBA",
"+X c #ADB5BD",
"@X c #AEB8B8",
"#X c #B6B6B6",
"$X c #B3B3B2",
"%X c #B3B6B9",
"&X c #BABBBC",
"*X c #B9BAB7",
"=X c #C1BCBB",
"-X c #BEC2BF",
";X c #84A3CA",
":X c #89A4C4",
">X c #98ABC5",
",X c #9EB2C8",
"<X c #81A7D4",
"1X c #80A8D6",
"2X c #8BABD2",
"3X c #82A9DA",
"4X c #85ABDA",
"5X c #86ADDB",
"6X c #88AFDE",
"7X c #8CAED9",
"8X c #89B1DE",
"9X c #93B3D7",
"0X c #91B4DD",
"qX c #9AB7DB",
"wX c #9FB6D3",
"eX c #A5B6CD",
"rX c #A8B8C9",
"tX c #B8BBC6",
"yX c #A5A7D6",
"uX c #A1B7D2",
"iX c #A5BBD5",
"pX c #8485ED",
"aX c #9799E3",
"sX c #9A9BF3",
"dX c #8DB3E1",
"fX c #8EB4E1",
"gX c #92B6E2",
"hX c #95B9E3",
"jX c #9ABBE3",
"kX c #9FBDE2",
"lX c #9CBCE3",
"zX c #A1BFE3",
"xX c #A2BFE4",
"cX c #AFB1E2",
"vX c #BCBAE3",
"bX c #BEC2C4",
"nX c #BDC4CC",
"mX c #B6C0CB",
"MX c #AAC0D9",
"NX c #B4C3D4",
"BX c #BCC3D8",
"VX c #A4C1E4",
"CX c #A9C3E3",
"ZX c #ABC4E3",
"AX c #ABC4E3",
"SX c #B6CBE5",
"DX c #B5CCE5",
"FX c #B0C7E5",
"GX c #CBCBCC",
"HX c #C3C4C5",
"JX c #C7C8D7",
"KX c #CED0D6",
"LX c #D5D5D7",
"PX c #E2E2DF",
"IX c #D8D8E2",
"UX c #E4E5E3",
/* pixels */
"c x M _.9.>.&.-.-.-.-.-.-.-.-.-.-.-.-.-.-.-.-.&.,.d._.M x c ",
"z @.f.h.9XCXSXSXSXSXSXSXSXSXSXSXSXDXDXDXSXSXSXSXAXqXz.d.@.z ",
"M d.7XFXAXZXCXCXCXCXCXCXCXCXCXCXCXCXVXCXCXCXCXCXZXAXFXqXi.+.",
"_.h.CXkXzXzXxXzXVXVXxXxXzXVXVXkXkXzXAXCXzXVXzXxXxXzXkXVX<X`.",
"s.4XjXjXjXjXjXlXjXjXlXjXjXhXhXiXMXNXnXmXkXjXjXjXjXjXjXjXgX>.",
";.dXgXgXgXgXgXdXgX0XdXfXhXlXCX+XGX#XrX,XkXgXgXgXgXgXgXgXhX&.",
"L fXdXdXdX0XuXMXNXNXMXuX,X/.J.R.HX.XiX8X8XdXdXdXdXdXdXdXgX&.",
"&.6X6X8X5X0X+XXX.X$XbXZ.; + O W.*X|.%XuX5X8X8X8X8X8X6X6X8X&.",
"*.4X4X3X4XwX+X(.|.|. X;       V.w.: $XrX1X5X4X3Xx.3X4X3X5X*.",
"L 1X1Xx.2X{.E.#XZ.A..X; X $ * b. .> &XiXc.x.<X9XiX7Xx.x.3XK ",
"*.c.c.v.2XP.8 #XY.Z. XO.b.N.B.o., F.&XuXz.rXnXtX%X,X1Xc.x.&.",
"K c.l.l.;XP.2 #XHX0 T.e.M.M.V.I.S.Y.&XNXOX#X=XOX:Xz.c.l.c.*.",
"L h.g.g.;XP.5 #XtX8 U..X@XbX=XHX%X(.S.< < #X&XoX>Xh.g.g.h.L ",
"K a.a.a.j.L.5 #XpXl H..X|.|.R.$X|.@ o . ; @XU.U.&X;Xp.a.g.L ",
"K i.i.i.f.L.4 *X{ N !.$X.X XR..XS.o .   % C.- < HX;Xu.i.i.K ",
"P u.u.y.d.L.3 *XsXR T D.E.oX< |.A.# & | X...= U.nXj.t.u.u.P ",
"P t.t.t.s.L.5 #XIX' / m Z.GXU.K.[.n.B.B.m.$.Z.~.bXj.>.t.y.P ",
"P >.>.>.8.L.1 #XUXJXyXn 0 GX|.7 {.r.q.w.I.U.G.).tXf.:.>.5.P ",
"P :.:.;.4.^.8 $XUXKXbXZ.6 JX].8 R.A.F.Q.Y.G.T _ aX9.;.:.:.P ",
"J ;.;.=.;.8./.}.eXf._.b 0 JX) 8 |.A.K.-X'.B ! ~ yX9.H ;.=.J ",
"P I I I I I 6.4.G G 7.b 9 JX^ l A.Z.S.tX[ W W ' BX8.H I I P ",
"J G G G G G S G G G 7.b 6 KXpXE e w q &X) W ^ vXLX4.S G G J ",
"J S S S S S S S S S 3.b 9 LXIX] ~ Q r ( ` } cXBX>XY A S S J ",
"J Z Z Z Z Z Z Z Z Z 0.7 6 LXPXLXvXaX] ( k.:X8.Y S Z Z Z Z J ",
"P C V V V V V V V h <.^.D.GXKXeX>X9.4.%.D d d g V C C V V J ",
"5.h j g g g g g g g h <.^.7.<.F g s a a f g h h h g g g j -.",
"_.A f f f f f f f f a f F f i a a f f f f f f f f f f f h 8.",
"+.:.p p i i i i i i i p y p i i i i i i i i i i i i i u I @.",
"v 2.I j u y y y y y y y y y y y y y y y y y y y t y s H 2.v ",
"x v @.8.H J J J J J J J J J J J J J J J J J J J J J 4.1.v x "
};
