/* XPM */
static char *FA_PozoFecal_FS[] = {
/* columns rows colors chars-per-pixel */
"30 30 256 2 ",
"   c #14191C",
".  c #1D1B1B",
"X  c #161313",
"o  c #39281E",
"O  c #252424",
"+  c #2D2927",
"@  c #362E28",
"#  c #373737",
"$  c #3D3531",
"%  c #752F00",
"&  c #7B3500",
"*  c #7B3C02",
"=  c #733806",
"-  c #634230",
";  c #7A4E33",
":  c #695039",
">  c #474C4D",
",  c #594E47",
"<  c #4E5051",
"1  c #5F5D5D",
"2  c #545D5D",
"3  c #635242",
"4  c #705B45",
"5  c #665D53",
"6  c #6E6154",
"7  c #666363",
"8  c #666565",
"9  c #636262",
"0  c #676868",
"q  c #6A6B6B",
"w  c #6C6966",
"e  c #70706F",
"r  c #747676",
"t  c #767A7B",
"y  c #767B7C",
"u  c #777C7C",
"i  c #797A7A",
"p  c #7D7C7C",
"a  c #9D221F",
"s  c #9E2723",
"d  c #9E2B28",
"f  c #9E2E2B",
"g  c #9F2F2C",
"h  c #A12722",
"j  c #A22926",
"k  c #A12D2B",
"l  c #A12F2C",
"z  c #A52F2C",
"x  c #A42C2A",
"c  c #AD2F2C",
"v  c #AA2E2B",
"b  c #A2302D",
"n  c #A5312E",
"m  c #A3312B",
"M  c #AA312E",
"N  c #AD312E",
"B  c #B1312D",
"V  c #B5322F",
"C  c #A63330",
"Z  c #A53532",
"A  c #AE3330",
"S  c #AD3531",
"D  c #A93430",
"F  c #A43937",
"G  c #AB3E3B",
"H  c #B23431",
"J  c #B63532",
"K  c #B53431",
"L  c #BA3532",
"P  c #BD3734",
"I  c #BC3532",
"U  c #BE3936",
"Y  c #B93835",
"T  c #B23E3A",
"R  c #B63E3B",
"E  c #BA3F3C",
"W  c #C8312E",
"Q  c #C7332F",
"!  c #C63531",
"~  c #C13531",
"^  c #CB3633",
"/  c #C23A36",
"(  c #C63936",
")  c #CA3936",
"_  c #CD3B37",
"`  c #C63B38",
"'  c #C73C39",
"]  c #C23B38",
"[  c #CB3B39",
"{  c #CA3C39",
"}  c #CC3C38",
"|  c #CB3D3B",
" . c #83450A",
".. c #8A4F18",
"X. c #8E5624",
"o. c #855423",
"O. c #915B25",
"+. c #935F2D",
"@. c #8C583A",
"#. c #AD403C",
"$. c #B5413B",
"%. c #BA413E",
"&. c #966433",
"*. c #966836",
"=. c #A4623A",
"-. c #C3413F",
";. c #AB4846",
":. c #AE4946",
">. c #BB4946",
",. c #BD4946",
"<. c #B34E4B",
"1. c #B94C4A",
"2. c #BA4340",
"3. c #BB514E",
"4. c #BB5453",
"5. c #B45E5D",
"6. c #B45757",
"7. c #896644",
"8. c #8E6C4B",
"9. c #8A745F",
"0. c #99795B",
"q. c #AB6841",
"w. c #B86F46",
"e. c #B46D44",
"r. c #A4784E",
"t. c #B8615E",
"y. c #A47E57",
"u. c #BC6461",
"i. c #B76D6F",
"p. c #B96968",
"a. c #AE7D60",
"s. c #B76E70",
"d. c #A67270",
"f. c #A97271",
"g. c #AE7573",
"h. c #B07574",
"j. c #B3797D",
"k. c #BA7778",
"l. c #C54542",
"z. c #CC4644",
"x. c #C54846",
"c. c #C24C4A",
"v. c #CC4A47",
"b. c #CA5451",
"n. c #CD5B59",
"m. c #C65A57",
"M. c #C87648",
"N. c #D47D4B",
"B. c #C87D52",
"V. c #C16665",
"C. c #CB6966",
"Z. c #CB7D7B",
"A. c #C57D7B",
"S. c #D47978",
"D. c #9B897F",
"F. c #AE8F67",
"G. c #A98A6C",
"H. c #AC8A76",
"J. c #AF8F7D",
"K. c #B78F78",
"L. c #B3987A",
"P. c #C4815C",
"I. c #D3807E",
"U. c #D69A7A",
"Y. c #62798C",
"T. c #647C8F",
"R. c #66798C",
"E. c #657D91",
"W. c #6E7E90",
"Q. c #727F90",
"!. c #817F8C",
"~. c #6F8093",
"^. c #7A8392",
"/. c #838383",
"(. c #82898B",
"). c #8C8B8C",
"_. c #958F8B",
"`. c #8B8692",
"'. c #838593",
"]. c #998E98",
"[. c #8B9192",
"{. c #929292",
"}. c #959392",
"|. c #959595",
" X c #929496",
".X c #999797",
"XX c #9A9897",
"oX c #9B9C9C",
"OX c #AE838A",
"+X c #BA8C8B",
"@X c #A7908F",
"#X c #A38C94",
"$X c #A19E9E",
"%X c #BB9998",
"&X c #BCA48E",
"*X c #A2A09F",
"=X c #9D9EA1",
"-X c #9DA1A5",
";X c #A1A1A1",
":X c #A7A6A6",
">X c #A3A3A4",
",X c #A4ABAB",
"<X c #ABAAAA",
"1X c #ADADAD",
"2X c #ABACAC",
"3X c #B3A3A3",
"4X c #BCA4A3",
"5X c #B6ABAB",
"6X c #B2AFB0",
"7X c #AEB4B5",
"8X c #B2B2B2",
"9X c #B3B4B6",
"0X c #BDBDBB",
"qX c #B7B7B6",
"wX c #C18888",
"eX c #C88785",
"rX c #C0908F",
"tX c #C09C8F",
"yX c #D6908F",
"uX c #C59997",
"iX c #D7908E",
"pX c #C6A29F",
"aX c #C1B19C",
"sX c #CBA3A1",
"dX c #CDAAA7",
"fX c #CDABA9",
"gX c #D0A9AA",
"hX c #C4B7A6",
"jX c #C0BFBF",
"kX c #C9BDB1",
"lX c #D1B2B3",
"zX c #D5B5B4",
"xX c #D9B4B3",
"cX c #CBC2B7",
"vX c #C0C0BF",
"bX c #D4C0BF",
"nX c #AFB9C2",
"mX c #C2C3C3",
"MX c #C6CDCD",
"NX c #CBCCCB",
"BX c #DCCDCC",
"VX c #D3CDC3",
"CX c #CCD1D0",
"ZX c #D6D5D4",
"AX c #D9D3D3",
"SX c #DDDDDD",
"DX c #D2DDDD",
"FX c #E1DDDA",
"GX c #E0D9D4",
"HX c #E1E0DF",
"JX c #DFDEE0",
"KX c #DEE2E2",
"LX c #E3E3E3",
"PX c #E9EAEB",
"IX c #E2E9EB",
"UX c #E4EBF0",
/* pixels */
"R.Y.W.].j.4.,.,.,.,.,.,.,.,.,.,.,.,.,.,.,.,.,.,.4.s.#XQ.Y.R.",
"Y.^.s.x.[ [ _ _ _ _ _ _ _ _ _ _ _ _ _ _ _ _ _ _ } [ l.V.!.Y.",
"~.s.) _ } } } } } } } } } } } } } } } } } | } ^ ^ } } ) m.Q.",
"].c._ { [ [ [ [ [ [ [ [ [ [ [ [ [ } [ ) ^ W ^ v.v.) [ { l.OX",
"i.{ [ { { { { { { { | | { { { | | { | z.n.S.eXzXlXn.^ { [ 4.",
"3.| { { | | | | | | ) ) | | { ) ^ W x.rXbXDXMX8XqXZ.| [ { ,.",
",.{ { [ { { ) ^ ! ! b.x.! Q ( z.n.S.wX,XZX>X@Xt.;.c.| [ [ ,.",
",.' ` ` ` ( m.eXyXyXzXxXZ.C.yXsX4X).).$XAX1X3XI._ ! ' ' ` ,.",
",.` ` ` ` ( V.;X2X0X>X7XAX5Xt 2 > O # ;XNX1X8X6XA.-.( ` ( ,.",
",./ / ] / / C.%XoXXX.X).ZXr . X X . + 8X0X8 }.7X4Xb.~ ] / ,.",
",./ / / / u.3X5X1X<X8X|.ZX9 . O O   @ U.K.o < mXdX,.~ ] / ,.",
",.U U I -.h.(.;X1X<X1 r SX8     + - - w.=.$ i CXgX2.I U U ,.",
",.U U I l.g.r p :XNXq r SX8 ; q.e.M.M.@., i XXMXfX%.I U P ,.",
",.P P L -.g.t 8 <XLX;Xe 9XJ.B.N.N.B.P.D.).{.}.MXdX%.I U L ,.",
",.Y Y K -.g.y 8 1XLX>X0 oX$X}.H.H._.{.|.|.|.}.MXfX$.I Y L ,.",
",.J J V %.f.t 7 2XHX*X0 oXoX{.{.{.|.{.{. X{.7.aXlX$.V Y J ,.",
",.J J B E f.t 7 1XGX0.5 =XoX).p :X0X=X X_.7.* aXlXT V J K ,.",
",.H H B E f.t 7 2XFXO.3 -X:X/./.8XmX0X9.o.*  .hXlXT B H H >.",
",.H H N R f.y 7 1XFX+.: (.-X Xr 1XvXG.&  .& &.ZXdXT B H B ,.",
",.A A c R d.t 7 <XPXy.* 4 6 6 0 :X0Xy.* &  .&XIXpX#.c A N ,.",
",.N N v T f.y 8 <XPXcXO.% * * w nXjX&.% X.&XUXUXdX#.c S N >.",
",.N N v T f.u 8 2XLXKXhXy.X...= 8.G.*.L.VXBXfXsXp.S M A M ,.",
">.M M x T d.r 8 <XLXAXLXJXkXcXF.r.a.tXgXeXu.G D j M M M v ,.",
",.n n z D h.[.1 2XPXKXKXKXAXuXrXk.6.<.m h j x n C n n n z >.",
">.n z n x #.+Xi ,XBXpXk.5.<.m m j h j z n n n n n n n n k >.",
"p.C k l l j G h.g.;.F k a s k k l b b l l l l l l l l l k 3.",
"#X:.k l l l d Z C s j k b b l l l l l l l l l l l l l k Z h.",
"^.5.k f f f f d d g f f f f f f f f f f f f f f f f f d 1.'.",
"T.`.4.F f f f f f f f f f f f f f f f f f f f f f f C 1.`.E.",
"R.T.^.j.1.>.>.,.,.,.,.,.,.,.,.,.,.,.,.,.,.,.,.>.>.>.i.'.E.R."
};
