/* XPM */
static char *FA_PozoPluvial_SC[] = {
/* columns rows colors chars-per-pixel */
"30 30 256 2 ",
"   c #1A1D1C",
".  c #161612",
"X  c #220F0E",
"o  c #211313",
"O  c #1F201D",
"+  c #1D302F",
"@  c #282827",
"#  c #252828",
"$  c #213B3B",
"%  c #373737",
"&  c #0F4443",
"*  c #2B4141",
"=  c #3D605F",
"-  c #127676",
";  c #46464E",
":  c #574E4A",
">  c #5F5F5F",
",  c #62605B",
"<  c #505060",
"1  c #535379",
"2  c #666663",
"3  c #676665",
"4  c #686763",
"5  c #686764",
"6  c #6A6866",
"7  c #6B6B6A",
"8  c #636B6B",
"9  c #6A6A77",
"0  c #6E7070",
"q  c #747476",
"w  c #73737D",
"e  c #74747D",
"r  c #74747D",
"t  c #7C7B79",
"y  c #77787D",
"u  c #807F7A",
"i  c #FECB00",
"p  c #FFCD00",
"a  c #FFCF05",
"s  c #FCCB05",
"d  c #F3CC0C",
"f  c #FACD0B",
"g  c #FED100",
"h  c #FED500",
"j  c #FBD301",
"k  c #FFD900",
"l  c #FEDE00",
"z  c #FFDA04",
"x  c #FFD608",
"c  c #F8D70B",
"v  c #F6CE1A",
"b  c #FACD13",
"n  c #EFDA18",
"m  c #EEDC17",
"M  c #F7D010",
"N  c #FED814",
"B  c #F3D41A",
"V  c #F2D918",
"C  c #F8DE1E",
"Z  c #FEE200",
"A  c #FEE600",
"S  c #FFE900",
"D  c #FEED00",
"F  c #FFE30C",
"G  c #FFEB0C",
"H  c #FEF100",
"J  c #FEF600",
"K  c #FEFA00",
"L  c #FEFE01",
"P  c #FCFB03",
"I  c #FFF30C",
"U  c #FEFE09",
"Y  c #FFFF0D",
"T  c #FDF90C",
"R  c #ECEC1F",
"E  c #F1E313",
"W  c #F3EB13",
"Q  c #FEFE1E",
"!  c #FFFD1A",
"~  c #F8F318",
"^  c #CECF26",
"/  c #D7D73F",
"(  c #EFC828",
")  c #F3CD20",
"_  c #F9D727",
"`  c #F2D43E",
"'  c #E8C633",
"]  c #FEE227",
"[  c #FCE627",
"{  c #FEFE20",
"}  c #F4F32A",
"|  c #FFFF29",
" . c #FFFE2E",
".. c #FBF423",
"X. c #E9E23D",
"o. c #FCF436",
"O. c #FEFF31",
"+. c #FDFD3C",
"@. c #FFF33D",
"#. c #8C8C78",
"$. c #BAB37C",
"%. c #CABE5B",
"&. c #C7B95C",
"*. c #C9BC6D",
"=. c #DCC34F",
"-. c #CBC35C",
";. c #DFCA5A",
":. c #D6C25A",
">. c #E3C947",
",. c #EED74B",
"<. c #EFDA5E",
"1. c #EBE942",
"2. c #F6F645",
"3. c #FEFE41",
"4. c #FCFD45",
"5. c #FEFA4C",
"6. c #E8E65C",
"7. c #FFFF57",
"8. c #FEFC51",
"9. c #FFFF58",
"0. c #F3F358",
"q. c #DEC861",
"w. c #DCCC7A",
"e. c #D5D572",
"r. c #F3DF68",
"t. c #E9D466",
"y. c #E3E365",
"u. c #F4F362",
"i. c #E3E176",
"p. c #F2F17C",
"a. c #F1F073",
"s. c #38389B",
"d. c #434383",
"f. c #565586",
"g. c #464599",
"h. c #61768E",
"j. c #66798D",
"k. c #6F7F8D",
"l. c #7B7C8F",
"z. c #617793",
"x. c #627893",
"c. c #6060B5",
"v. c #0303EF",
"b. c #0101F2",
"n. c #0000FD",
"m. c #0404FB",
"M. c #0D0CF7",
"N. c #1616F9",
"B. c #2424FB",
"V. c #2E2FFC",
"C. c #2928F4",
"Z. c #3636F4",
"A. c #2424E5",
"S. c #100FCF",
"D. c #4848CC",
"F. c #5C5CD5",
"G. c #5858F1",
"H. c #5657FA",
"J. c #5858ED",
"K. c #6969E8",
"L. c #7374F4",
"P. c #817CCB",
"I. c #0B9493",
"U. c #0CAAA9",
"Y. c #74828E",
"T. c #79858A",
"R. c #7F9E9E",
"E. c #55BEBE",
"W. c #6EA6A5",
"Q. c #60C0BF",
"!. c #00C9C9",
"~. c #05D7D5",
"^. c #03E1E1",
"/. c #00FDFD",
"(. c #06F5F5",
"). c #14EAE9",
"_. c #20E9E9",
"`. c #45F5F4",
"'. c #54CDCC",
"]. c #838383",
"[. c #8C8D8B",
"{. c #828C8C",
"}. c #918F8E",
"|. c #8A9287",
" X c #96968D",
".X c #969A86",
"XX c #8A8B96",
"oX c #959591",
"OX c #949495",
"+X c #929292",
"@X c #9A9A96",
"#X c #9C9B9B",
"$X c #ADAC86",
"%X c #A1A48C",
"&X c #AFB087",
"*X c #A4A495",
"=X c #A2A39C",
"-X c #9F9FAA",
";X c #9EA1A2",
":X c #A3A4A3",
">X c #A3A4AC",
",X c #ABABAB",
"<X c #ADADAA",
"1X c #AEAEAD",
"2X c #A9AAAE",
"3X c #B0AEAA",
"4X c #BBBAA6",
"5X c #B5B6AB",
"6X c #ACACB8",
"7X c #B6AFBA",
"8X c #B2B3B2",
"9X c #B0B0B4",
"0X c #BDBCBD",
"qX c #B5B3B7",
"wX c #D1D181",
"eX c #C1C196",
"rX c #C7C69B",
"tX c #DBCF95",
"yX c #DBDA99",
"uX c #CBC889",
"iX c #E3D68A",
"pX c #E3D999",
"aX c #E6E19E",
"sX c #F9EA86",
"dX c #DCD9A2",
"fX c #D9D2AA",
"gX c #DDDAA9",
"hX c #C1C1BF",
"jX c #D8D3AF",
"kX c #E1E1AC",
"lX c #E7E3A3",
"zX c #9595DF",
"xX c #BBBBC3",
"cX c #B7B7DE",
"vX c #8A8BEC",
"bX c #999AEE",
"nX c #9394F2",
"mX c #ABACE9",
"MX c #B7B7E6",
"NX c #C0BFCE",
"BX c #C4C5CC",
"VX c #CBCCCC",
"CX c #C9CAD6",
"ZX c #D6D5D5",
"AX c #DBDBD8",
"SX c #E0DDCA",
"DX c #E9E4C5",
"FX c #E4E5DC",
"GX c #E7E6D7",
"HX c #D9DAE7",
"JX c #DBDCE3",
"KX c #D7D9EB",
"LX c #C9CAE9",
"PX c #E1E1E2",
"IX c #EAEAE5",
"UX c #E6E6E9",
/* pixels */
"j.h.k.%X:.) a a a a a a a a a a a a a a a a a a v >.$XY.h.j.",
"h.{.>.] o.5.9.7.7.7.7.7.7.7.7.7.7.7.7.7.7.7.7.9.8.@.] ` |.h.",
"Y.>...4.3.3.3.3.3.3.3.3.3.3.3.3.3.3.3.3.3.3.3.+.+.3.4.o._ T.",
"$XC O. . . . . . . . . . . . . . .O.O.| | { | 4.+. . .O.[ *.",
">.~ Q Q Q Q Q Q Q Q { { Q Q Q { { Q Q  .2.u.p.kXgX2.! Q ! v ",
"f Y Y U Y Y Y Y Y Y L U Y Y Y U L L ~ wXjXCXNX5XqXy.Y U Y p ",
"p L L L L L L L K K ..~ L L P T } 0.e.-XZX:X&X/ ^ R P L L p ",
"p K K K K L } y.a.p.kXlX6.1.i.yXeX}.[.=XZX2X5Xu.L L K K L p ",
"p K K K K K 1.=X2X0X-X6XAX4Xe < ; @ % :XVX1X9X8X6.T K K K p ",
"p J J J J J o.uX#X@X@X[.ZXq O . .   @ 8X0X8 oX6XrX..J J K p ",
"p J J J J X.eX4X<X<X8XOXZX2   # # X $ `.'.& : BXyXW J J J p ",
"p H H H T -.l.;X1X,X> q AX3 o o + - - ^.!.* t CXyXW J H J p ",
"p H H H I -.9 u :XVX7 q AX3 I.~.~./.(.U.= t @XBXdXE H H H p ",
"p D D D I -.w 4 ,XPX:X0 8XQ.)././.(._.W.[.+XoXBXdXE H D H p ",
"p D D D I -.e 2 1XPX:X6 #X;XOXE.E.R.OXOXOXoXoXBXdXE D D D p ",
"p S S S G -.w 2 <XPX:X6 #X#X+X}.+XoX+X+X X+XD.nXaXm D S S p ",
"p S A A G -.r 2 <XKXF.1 *X#X[.t :X0X=X XXXD.n.bXaXn S A S p ",
"p A A A G %.w 2 <XHXB.d.*X>X].].8XhXxXc.A.m.M.bXlXn S A A i ",
"p A Z Z G %.e 3 1XHXV.s.#.*X Xq 1XxXK.n.m.n.Z.LXdXV A Z A p ",
"p Z Z Z F %.w 4 ,XIXJ.v.g.f.f.6 :XxXG.m.n.M.zXFXfXV A Z Z p ",
"p Z l l F %.w 4 2XIXcXB.n.b.b.9 eXhXZ.n.C.vXIXKXfXV Z l Z p ",
"p l l l F %.e 5 <XUXGXmXG.B.N.S.D.K.V.L.MXSXfXpX,.c l l l p ",
"i k k k F &.q 6 ,XIXZXGXGXmXmXH.H.P.7XsXr.,.B c k l k k k p ",
"i k h h z ;.XX, 3XUXJXHXKXDXiXiX<.] _ d j h k k z k k h k i ",
"s h h h h N w.y >XDXtXt.` _ d d j h h k h h h h h h h h h i ",
"' g h g h g N q.;._ M j g h h h h h h h h h h h h h g g g d ",
"$.f g g g g g x h g g g g g g g g g g g g g g g g g g g g =.",
"Y.( p p p g g p p g g g g g g g g g g g g g g g g p p p b |.",
"z..Xb s p p p p p p p p p p p p p p p p p p p p p p i f .Xx.",
"j.z.{.:.s i i p p p p p p p p p p p p p p p p i i i >.|.z.j."
};
