/* XPM */
static char *FA_PozosFecales_N_R[] = {
/* columns rows colors chars-per-pixel */
"30 30 227 2 ",
"   c gray7",
".  c #12171A",
"X  c #161618",
"o  c #1F1F1E",
"O  c #212122",
"+  c #252424",
"@  c #2B2421",
"#  c #2A2928",
"$  c #3A3A39",
"%  c #3E3E3E",
"&  c #753100",
"*  c #793600",
"=  c #7B3B01",
"-  c #47352C",
";  c #4C382D",
":  c #78430C",
">  c #7F4C1C",
",  c #5F402F",
"<  c #524036",
"1  c #5F4A3E",
"2  c #6C4722",
"3  c #7F5224",
"4  c #624331",
"5  c #6E5033",
"6  c #7E553D",
"7  c #7C5B3C",
"8  c #444343",
"9  c #464645",
"0  c #504F4F",
"q  c #565250",
"w  c #5A5A5A",
"e  c #5E5C5B",
"r  c #5B5B5C",
"t  c #5E5E5E",
"y  c #69584D",
"u  c #725C44",
"i  c #62615F",
"p  c #766759",
"a  c #626262",
"s  c #646261",
"d  c #656463",
"f  c #636565",
"g  c #656565",
"h  c #696969",
"j  c #6B6D6D",
"k  c #6D6D6D",
"l  c #766B65",
"z  c #706F6F",
"x  c #71706F",
"c  c #6C6E70",
"v  c #6F7275",
"b  c #717171",
"n  c #747472",
"m  c #767676",
"M  c #7A7977",
"N  c #7D7B77",
"B  c #75787B",
"V  c #7A7A7A",
"C  c #7E7B79",
"Z  c #7F7D7A",
"A  c #7B7B7C",
"S  c #7A7C7D",
"D  c #7E7E7E",
"F  c #834A12",
"G  c #8F5822",
"H  c #915D2A",
"J  c #825337",
"K  c #905B3E",
"L  c #9B5E3C",
"P  c #97693B",
"I  c #996B3E",
"U  c #A5613B",
"Y  c #976D44",
"T  c #986C41",
"R  c #956F49",
"E  c #8F6C57",
"W  c #976B52",
"Q  c #887055",
"!  c #957351",
"~  c #A76946",
"^  c #BC7045",
"/  c #AB7352",
"(  c #A37A50",
")  c #A37E59",
"_  c #A47E59",
"`  c #BC7E5B",
"'  c #88786F",
"]  c #8C7B6C",
"[  c #8B7D6F",
"{  c #807F7F",
"}  c #C67547",
"|  c #CE7C4D",
" . c #CD7E51",
".. c #9C846B",
"X. c #9D8679",
"o. c #A38465",
"O. c #A88561",
"+. c #A38669",
"@. c #A88B6D",
"#. c #BA8567",
"$. c #B8866A",
"%. c #B7946F",
"&. c #AB8772",
"*. c #A18A7E",
"=. c #B59775",
"-. c #CB9476",
";. c #64788B",
":. c #667A8D",
">. c #687B8F",
",. c #6A7C8F",
"<. c #6C7D8F",
"1. c #7B7E82",
"2. c #7F7F80",
"3. c #697D90",
"4. c #7B8085",
"5. c #7D8185",
"6. c #728191",
"7. c #758593",
"8. c #778694",
"9. c #7A8693",
"0. c #7B8896",
"q. c #818181",
"w. c #828384",
"e. c #838485",
"r. c #858585",
"t. c #888887",
"y. c #8D8884",
"u. c #828589",
"i. c #868788",
"p. c #84888E",
"a. c #898989",
"s. c #8C8B8B",
"d. c #8D8C8B",
"f. c #8B8B8C",
"g. c #8E8E8E",
"h. c #978E8A",
"j. c #918F8D",
"k. c #9E9082",
"l. c #9E9089",
"z. c #848B91",
"x. c #878E94",
"c. c #868F99",
"v. c #8D9193",
"b. c #87909B",
"n. c #84909C",
"m. c #919191",
"M. c #949393",
"N. c #979593",
"B. c #929395",
"V. c #969696",
"C. c #999695",
"Z. c #999897",
"A. c #93979B",
"S. c #969798",
"D. c #979A9A",
"F. c #9A9A9A",
"G. c #9D9B9B",
"H. c #9D9C9B",
"J. c #9E9E9E",
"K. c #A09387",
"L. c #A89589",
"P. c #B39381",
"I. c #B49785",
"U. c #B99E83",
"Y. c #BA9F87",
"T. c #A69A91",
"R. c #A09C98",
"E. c #A1A09F",
"W. c #ACA59E",
"Q. c #BBAB9A",
"!. c #BEAB98",
"~. c #9F9FA0",
"^. c #9A9FA4",
"/. c #A1A2A2",
"(. c #A4A3A3",
"). c #A3A4A4",
"_. c #A5A5A5",
"`. c #A8A7A6",
"'. c #ACA8A4",
"]. c #A9A9A9",
"[. c #ABACAB",
"{. c #ACACAB",
"}. c #ADADAD",
"|. c #B0AFAF",
" X c #BBB1A6",
".X c #BFB3A6",
"XX c #B1B1AF",
"oX c #AFAFB0",
"OX c #B2B2B1",
"+X c #B4B3B2",
"@X c #B6B4B3",
"#X c #B5B5B5",
"$X c #B8B4B2",
"%X c #B8B8B7",
"&X c #B6B9BB",
"*X c #BABABA",
"=X c #BDBCBB",
"-X c #BEBEBE",
";X c #C7B19A",
":X c #C0BBB6",
">X c #C8BCB1",
",X c #C2BEBB",
"<X c #C0BFBF",
"1X c #C2C0BF",
"2X c #CEC4BA",
"3X c #D0C5BB",
"4X c #C0C0C0",
"5X c #C4C3C2",
"6X c #C6C4C3",
"7X c #C6C6C6",
"8X c #CAC6C2",
"9X c #CCC6C1",
"0X c #CECAC6",
"qX c gray79",
"wX c #CECBC9",
"eX c #CECECD",
"rX c #D5D0CB",
"tX c #D0D0CF",
"yX c #D3D2D2",
"uX c #D3D4D3",
"iX c #D6D5D6",
"pX c #D9D5D2",
"aX c #DDDCDB",
"sX c #E1E0DE",
"dX c #E1E1E2",
"fX c #E4E3E2",
"gX c #E5E7E7",
/* pixels */
":.;.,.n.p.j r t t t t t t t t t t t t t t t t t h 5.b.<.;.:.",
";.7.u.q.J.@X4X-X-X-X-X-X-X-X-X-X-X-X-X-X-X-X-X4X#X).a.w.6.;.",
"<.5.F.=X#X#X#X#X#X#X#X#X#X#X#X#X#X@X+X+X#X#X#X#X#X#X*X_.A <.",
"c.q.#X}.OXOXOXOXOXOXOXOXOXOXOXOX}.OX*X#XOXOXOXOXOXOX}.#Xm.x.",
"1.F.}.{.}.}.}.}.}.}.}.}.[.[.].OX%X-X4X=XXX}.}.}.}.}.{.{._.j ",
"f ).].].].]._._.]._.)._.].+X*X+XqX#X}.].oX_.].].].].].].[.t ",
"e _._._.)._.}.*X=X=X#X}.].V.f.J.6X].+X(.)._._._._._._.).].t ",
"r /././.~._.OXOX{.@X4Xq.0 $ # D.*X(.@X}././././.(./././.).t ",
"r J.J.J.J.}.OX/./.(._.9   X . P.X.q +X@XF.J.J.G.F.H.J.J./.r ",
"r F.F.F.E.J.F.#Xq.g.[.9 @ ; 4 ~ 6 e =X#XV.F.G.].#X(.F.F.J.t ",
"r V.V.V.J.m.m #XZ.w.`.E U ^ } W l g.*XXXV.#X4X=X+X}.F.V.F.r ",
"r M.M.M.H.m.b #X4X2.C.L.#.$.I.h.f.V.=X1X[.#X-X`.G.C.V.M.V.r ",
"r m.m.m.F.m.b #X,XM m.].OX5X-X7X#XE.s.g h #X=X}.`.m.m.m.M.r ",
"r g.g.d.V.g.b #XY.p A.{.).).J.OX/.% + X 8 $XN.M.*XH.s.g.m.r ",
"w a.a.a.M.g.x &X%.u ^.+X[.`.J.].s.O o . < -.1 h 6XG.r.a.f.r ",
"r r.r.e.m.g.z &X;X3 ] i.G.|.d ).j.- , J L K y m.5XZ.q.r.a.w ",
"w w.w.q.g.g.b #XsX) ! N e.qXV.m.T./ |  .` ' q.).<XC.{ w.e.r ",
"r q.q.D d.g.k @XgXrX XZ 2.eX).V E.l.&.*.h.V.m.R.:XN.A q.q.w ",
"w D D A t.V.V OXfXtX4Xq.D wXK.V J.g.v./.F.B.[ R Q.S.M D D r ",
"w V V V A m.F._.+XN.Z.A q.9XY V _.g.j.4XW.Q > H .XM.n V A w ",
"w m m m m m a.a.n n g.D D 0XI p g.r.a.=X@.= * _ 8Xd.b m m w ",
"w n n b n n k b m n g.D { yXU.: 2 5 z.*XT & P 3XiXy.z n n w ",
"w b b k b b b b b k f.D q.iXpXO.G F 7 +.( =.>X6X'.C k k b w ",
"w k k j k k k k k j g.D D uXdXaX2X!.o...k.E.g.N x j k j k w ",
"r h h h h h h h h g D M.r.eXeX@X_.V.s.S b s a g h h h h h w ",
"v a g d g g g g g g g { V.j.{ k d i i a a g g g g g d g d a ",
"c.a a a a a a a a a a a j a t a a a a a a a a a a a a a t 4.",
"6.c e t t t t t t t t t r t t t t t t t t t t t t t t t f 7.",
">.0.f t r r r r r r r r r r r r r r r r r r r r r r w a 9.,.",
":.:.7.5.r w w w w w w w w w w w w w w w w w w w w w B 8.3.;."
};
