/* XPM */
static char *FA_PozosPluviales_SC[] = {
/* columns rows colors chars-per-pixel */
"30 30 256 2 ",
"   c #15140E",
".  c #1D1210",
"X  c #1A1A1B",
"o  c #20110E",
"O  c #1D302F",
"+  c #242527",
"@  c #393B41",
"#  c #1C4F50",
"$  c #1B5958",
"%  c #285D5B",
"&  c #136F70",
"*  c #177574",
"=  c #2D6C6A",
"-  c #3F7472",
";  c #444746",
":  c #4A5159",
">  c #586161",
",  c #5C7C7B",
"<  c #686867",
"1  c #6F6E72",
"2  c #706F73",
"3  c #76767C",
"4  c #7F7F7F",
"5  c #7A7A7C",
"6  c #7C7B77",
"7  c #FECB00",
"8  c #FFCD00",
"9  c #FFCF05",
"0  c #FBCC04",
"q  c #F6CC0C",
"w  c #FACD0B",
"e  c #FED100",
"r  c #FED500",
"t  c #FBD101",
"y  c #FED900",
"u  c #FEDE00",
"i  c #FBDE00",
"p  c #FCD809",
"a  c #F6CD16",
"s  c #F6CE1A",
"d  c #FDCE11",
"f  c #FBDD1E",
"g  c #F5D211",
"h  c #FEE100",
"j  c #FEE600",
"k  c #FCE102",
"l  c #FEE900",
"z  c #FEED00",
"x  c #F7EE0B",
"c  c #F6F203",
"v  c #FEF100",
"b  c #FEF500",
"n  c #FBF205",
"m  c #FEFA01",
"M  c #FEFE02",
"N  c #FFFD06",
"B  c #FBF50A",
"V  c #FEFE0A",
"C  c #FFFF0C",
"Z  c #FAFB0F",
"A  c #F4F70E",
"S  c #ECE41E",
"D  c #F6E01E",
"F  c #FDFE13",
"G  c #FFFE1E",
"H  c #FEFD1B",
"J  c #F9F419",
"K  c #EFC828",
"L  c #F3CD20",
"P  c #EFD225",
"I  c #F3DD28",
"U  c #F3D728",
"Y  c #EBCB36",
"T  c #EBDC3D",
"R  c #EED037",
"E  c #F1D237",
"W  c #EFE427",
"Q  c #F0E326",
"!  c #F1EB25",
"~  c #FBE22B",
"^  c #FBE424",
"/  c #FEFE21",
"(  c #FEFE2E",
")  c #FBFC2B",
"_  c #FFF128",
"`  c #EAE03A",
"'  c #F3E838",
"]  c #FFF436",
"[  c #FEFE31",
"{  c #FFFF3B",
"}  c #FBF538",
"|  c #858277",
" . c #828177",
".. c #81817F",
"X. c #959476",
"o. c #A5A275",
"O. c #A2A176",
"+. c #A8A774",
"@. c #B3AD7D",
"#. c #B8B379",
"$. c #C9BC6D",
"%. c #CDBE74",
"&. c #DCC94D",
"*. c #DCC34F",
"=. c #DEDA40",
"-. c #D8C457",
";. c #D8D75C",
":. c #E4CB45",
">. c #E3C949",
",. c #EADC41",
"<. c #E8D342",
"1. c #F1D645",
"2. c #EAD454",
"3. c #E5CD58",
"4. c #E9E84A",
"5. c #FEFE40",
"6. c #FCFE45",
"7. c #F7F748",
"8. c #FDFB4A",
"9. c #E9E855",
"0. c #FFFF57",
"q. c #FEFC50",
"w. c #FEFF58",
"e. c #D0C368",
"r. c #CACA7C",
"t. c #DDDB7A",
"y. c #DEDC70",
"u. c #D3D268",
"i. c #E9D673",
"p. c #DDE064",
"a. c #DFE07A",
"s. c #E7E863",
"d. c #2324B4",
"f. c #3C3CBC",
"g. c #3534A7",
"h. c #595A8F",
"j. c #595894",
"k. c #61768E",
"l. c #66798D",
"z. c #6F7F8D",
"x. c #7D7D82",
"c. c #777782",
"v. c #617793",
"b. c #627893",
"n. c #4545A0",
"m. c #5555B9",
"M. c #6C6CA9",
"N. c #7070A5",
"B. c #2525D7",
"V. c #0D0DE0",
"C. c #1D1DE4",
"Z. c #0000FA",
"A. c #1313F2",
"S. c #2827F9",
"D. c #3E3EF1",
"F. c #5252D8",
"G. c #726ED9",
"H. c #4645E6",
"J. c #5959ED",
"K. c #4A4BFA",
"L. c #6667E6",
"P. c #6E70F8",
"I. c #7070FE",
"U. c #0C9E9E",
"Y. c #1A9593",
"T. c #0FADAC",
"R. c #08BCBB",
"E. c #2BAFAE",
"W. c #38A4A3",
"Q. c #74828E",
"!. c #79858A",
"~. c #619190",
"^. c #51BFBE",
"/. c #67ACAB",
"(. c #79B2B1",
"). c #7CA6A6",
"_. c #08CACA",
"`. c #1FCBCB",
"'. c #24DEDD",
"]. c #3BD5D4",
"[. c #01E8E6",
"{. c #05F8F7",
"}. c #69C3C3",
"|. c #45E9E8",
" X c #848483",
".X c #8E8F8E",
"XX c #8C8A8A",
"oX c #838989",
"OX c #8A9287",
"+X c #96978A",
"@X c #938F91",
"#X c #8C9192",
"$X c #839C9B",
"%X c #949594",
"&X c #9E9F9E",
"*X c #9A9A9A",
"=X c #979997",
"-X c #968C8A",
";X c #A59F9E",
":X c #ADAC86",
">X c #A3A48E",
",X c #A2A29E",
"<X c #B9B28F",
"1X c #9B9BA7",
"2X c #8B86B5",
"3X c #9E9FB8",
"4X c #85ADAE",
"5X c #9AA4A4",
"6X c #A4A3A2",
"7X c #A4A9A9",
"8X c #AAAAAA",
"9X c #ACACA4",
"0X c #B8B7A9",
"qX c #ACACB1",
"wX c #AEAEBC",
"eX c #AFB8B7",
"rX c #B6B6B2",
"tX c #B6B6B5",
"yX c #B2B2B3",
"uX c #BCBAB2",
"iX c #B5B6B9",
"pX c #BBBCBB",
"aX c #C0B98C",
"sX c #C0BABA",
"dX c #DCCD89",
"fX c #C3C296",
"gX c #DCD49C",
"hX c #D7D798",
"jX c #C7C68C",
"kX c #E9DD83",
"lX c #E0E081",
"zX c #C9C8A8",
"xX c #C1C2BE",
"cX c #CDCDB9",
"vX c #CAC9B3",
"bX c #DBD4B9",
"nX c #9D9BDF",
"mX c #B8B7C9",
"MX c #A5A4D2",
"NX c #B8B6D9",
"BX c #8585EB",
"VX c #9B9BF1",
"CX c #B7B8E6",
"ZX c #BFC5C5",
"AX c #CBCBCB",
"SX c #C8C7C6",
"DX c #D1CFC9",
"FX c #DBD8C7",
"GX c #C3C3D6",
"HX c #C9C9D9",
"JX c #D4D4D1",
"KX c #D3D2DE",
"LX c #E0DDCE",
"PX c #E1E2DF",
"IX c #DBDBE2",
"UX c #E5E5E3",
/* pixels */
"l.k.z.>X-.L 9 9 9 9 9 9 9 9 9 9 9 9 9 9 9 9 9 9 s >.:XQ.k.l.",
"k.oX>.~ ] 8.w.0.0.0.0.0.0.0.0.0.0.w.w.w.0.0.0.0.q.} ~ E OXk.",
"Q.:._ 6.5.5.5.5.5.5.5.5.5.5.5.5.5.{ { { 5.5.5.5.5.5.6.] U !.",
":Xf [ ( ( ( [ [ [ [ ( [ [ [ [ ( ) [ 8.6.( [ ( ( ( ( ( [ ^ $.",
":.J G G G G / / G G / / H H F 4.s.lXzXhX} H G G G G G G H s ",
"w C C V C V M M F Z M M F ) 7.fXAXiXr.;.) N C C C C V V C 8 ",
"8 M M M M J 4.s.a.t.4.9.e.+.X.&XSX9Xp.A M M M M M M M M M 8 ",
"8 m m m m J jXwXqXwXxX X: @ + =XuX6X0X9.m m m m N m m m M 8 ",
"8 m m m B 4.fX,X,X6X6X;   . o }./.: yXt.c m m m m m m m m 8 ",
"8 b b m ! #.*XrX X.X9X; O $ * _.Y.> pXt.c n x ' 9.! b b m 8 ",
"8 b b b ! O.3 tX*X X7XW._.[.{.E., .XpXy.S t.gXzX0Xp.B b b 8 ",
"8 v v v Q o.1 rXxX..=X(.].].}.$XXX=XpXgXr.tXmX<X=.S n v b 8 ",
"8 v v v W o.2 tXmX3 %X8XeXZXsXSXiX1XXX< < tXpX0X;.x v v v 8 ",
"8 z z z W o.1 rXBXj.+X8X6X6X&XyX6X@ + X ; eX%X%XzX` z z v 8 ",
"8 z z z Q o.1 uXI.n.>XyX8X7X&X8XXX+ X . % |.= < cX,.l z z 8 ",
"8 l l l Q o.1 uXVXB.M. X*XqX< 6X#X# & U.R.T.- @XcXT l l l 8 ",
"8 j j l I o.1 rXIXJ.F.c. XSX%X@X4X`.{.{.'.~...6XvX,.j l l 8 ",
"8 j j j I o.1 rXUXHXMXx...AX6X5 5X).^./.$X%X.X1XxX,.j j j 7 ",
"8 h h j D #.3 yXUXFXvX..4 HX2X5 &XXX-X;X*X+XN.H.MX` k j j 8 ",
"8 h h h k T @.aXkX2.e. .4 GXH.6 6X.X#XxX3Xm.C.S.mX,.i h h 8 ",
"8 h u u u u ~ I i u &.| x.GXD.h..X XXXpXL.Z.Z.J.DX<.i h h 8 ",
"8 u u u u u u u u u &.| x.JXBXV.d.g.X.pXH.Z.D.CXLX:.u u u 8 ",
"7 y y y y y y y y y &.| x.JXKXL.S.A.f.L.K.P.NXbXdXP y y y 8 ",
"7 y y r y y y r r r &.| 4 JXPXIXCXnXG.2X<Xi.1.P g r y r y 7 ",
"0 r r r r r r r r r E @.oXDXFXgXi.2.1.f p t r r y r r r r 7 ",
"Y e r e r r r r e r t R %.3.R a q 0 t e e r r r r r e e e q ",
"#.w e e e e e e e e e e p e e e e e e e e e e e e e e e e *.",
"Q.K 8 8 8 e e e e e e e 8 e e e e e e e e e e e e 8 8 8 d OX",
"v.+Xa 0 8 8 8 8 8 8 8 8 8 8 8 8 8 8 8 8 8 8 8 8 8 8 7 w +Xb.",
"l.v.oX-.0 7 7 8 8 8 8 8 8 8 8 8 8 8 8 8 8 8 8 7 7 7 :.OXv.l."
};
