/* XPM */
static char *FA_PozoPluvial_FS_R[] = {
/* columns rows colors chars-per-pixel */
"30 30 256 2 ",
"   c #1C1D1D",
".  c #151414",
"X  c #220E0E",
"o  c #211313",
"O  c #1D2F2F",
"+  c #242525",
"@  c #2A2F2F",
"#  c #213C3C",
"$  c #373737",
"%  c #0F4343",
"&  c #2B4141",
"*  c #3D5F5F",
"=  c #127676",
"-  c #5F5E5E",
";  c #535959",
":  c #4F4B4B",
">  c #53537A",
",  c #666565",
"<  c #656364",
"1  c #6A6A6A",
"2  c #656A69",
"3  c #6F7272",
"4  c #747575",
"5  c #767A7A",
"6  c #7C7B7B",
"7  c #666677",
"8  c #9E2F2C",
"9  c #9E302D",
"0  c #A12F2B",
"q  c #A3322E",
"w  c #A03330",
"e  c #A33632",
"r  c #A33734",
"t  c #A53533",
"y  c #A53936",
"u  c #A43834",
"i  c #A63B38",
"p  c #A93D3A",
"a  c #AA3C3A",
"s  c #A33539",
"d  c #AD413D",
"f  c #AB403D",
"g  c #A23B44",
"h  c #AF4441",
"j  c #AE4441",
"k  c #AB4747",
"l  c #B24744",
"z  c #B14542",
"x  c #B44A46",
"c  c #BB4946",
"v  c #BC4946",
"b  c #B54D4A",
"n  c #BE4B48",
"m  c #BE4D4A",
"M  c #BB4E4B",
"N  c #AE514F",
"B  c #BA514E",
"V  c #BD514C",
"C  c #B7514E",
"Z  c #AE575B",
"A  c #BD5451",
"S  c #BE5754",
"D  c #BA5451",
"F  c #B2545B",
"G  c #B75E5B",
"H  c #BE5D5C",
"J  c #AB4C54",
"K  c #BE6758",
"L  c #B65961",
"P  c #B85C64",
"I  c #B56A6C",
"U  c #B96466",
"Y  c #B86F75",
"T  c #AB7D7C",
"R  c #A77A78",
"E  c #B27A7B",
"W  c #B87677",
"Q  c #C04F4C",
"!  c #C05652",
"~  c #C25A56",
"^  c #C45D5A",
"/  c #C95F5B",
"(  c #C6615E",
")  c #C9615E",
"_  c #CB6461",
"`  c #CC6663",
"'  c #CC6966",
"]  c #C66A69",
"[  c #C76969",
"{  c #D16A67",
"}  c #D26D6A",
"|  c #D46E6A",
" . c #D26764",
".. c #CF716E",
"X. c #D6716E",
"o. c #DA716E",
"O. c #C97472",
"+. c #D57571",
"@. c #D97472",
"#. c #DC7572",
"$. c #DD7976",
"%. c #D87976",
"&. c #D47E7C",
"*. c #DE7D7A",
"=. c #DD7D7A",
"-. c #E27B78",
";. c #8C8C78",
":. c #AD807E",
">. c #DE827F",
",. c #D7817E",
"<. c #39389B",
"1. c #434283",
"2. c #555486",
"3. c #464599",
"4. c #62798C",
"5. c #657A8D",
"6. c #6D7D8E",
"7. c #727D8E",
"8. c #687D90",
"9. c #5F5FB6",
"0. c #0302EF",
"q. c #0100F2",
"w. c #0000FE",
"e. c #0403FB",
"r. c #0C09F9",
"t. c #100FFA",
"y. c #1A18F8",
"u. c #2423FB",
"i. c #2B2AF7",
"p. c #3434F7",
"a. c #2323E5",
"s. c #0F0CD0",
"d. c #4747CC",
"f. c #5B5BD6",
"g. c #7464D6",
"h. c #504EF7",
"j. c #5857F2",
"k. c #5857ED",
"l. c #5F66FF",
"z. c #6A6BE6",
"x. c #7579F2",
"c. c #817E8C",
"v. c #0B9494",
"b. c #0CAAAA",
"n. c #7F8787",
"m. c #7A8292",
"M. c #7F9E9E",
"N. c #55BEBE",
"B. c #6DA6A6",
"V. c #00C9C9",
"C. c #05D6D6",
"Z. c #03E1E1",
"A. c #1AE9E9",
"S. c #00FDFD",
"D. c #06F5F5",
"F. c #60C0C0",
"G. c #45F5F5",
"H. c #54CCCC",
"J. c #8D8C8C",
"K. c #838384",
"L. c #928F8F",
"P. c #8B8692",
"I. c #868794",
"U. c #998D98",
"Y. c #8B9190",
"T. c #959591",
"R. c #959495",
"E. c #939293",
"W. c #9A9999",
"Q. c #9E9E9F",
"!. c #979789",
"~. c #AE8386",
"^. c #B28383",
"/. c #B88787",
"(. c #A38D94",
"). c #A49D9D",
"_. c #BA9290",
"`. c #A1A19A",
"'. c #A5A594",
"]. c #9DA2A2",
"[. c #A3A3A4",
"{. c gray67",
"}. c #ADADAB",
"|. c #AEAEAE",
" X c #AAAAAC",
".X c #A5A8AB",
"XX c #B6ABAB",
"oX c #ADB2B2",
"OX c #B2B2B2",
"+X c #B8B2B2",
"@X c #BDBDBD",
"#X c #B4BABA",
"$X c #C68785",
"%X c #DF8380",
"&X c #DF8481",
"*X c #DD8683",
"=X c #DB8C8A",
"-X c #D48482",
";X c #DF918E",
":X c #C8999B",
">X c #D39E9D",
",X c #DB9492",
"<X c #E08683",
"1X c #E08986",
"2X c #E28F8C",
"3X c #E28C8A",
"4X c #E2908E",
"5X c #E29391",
"6X c #E59897",
"7X c #E59998",
"8X c #C8A09F",
"9X c #DEA09E",
"0X c #DBB19F",
"qX c #C3A5A5",
"wX c #CAA6A9",
"eX c #DFAEAC",
"rX c #D8A5A4",
"tX c #C7AEBB",
"yX c #C2ABB3",
"uX c #CEB4B3",
"iX c #CCB2BA",
"pX c #D7BBB5",
"aX c #D1B8BA",
"sX c #E2B3B3",
"dX c #E2A6A4",
"fX c #C2C29B",
"gX c #C1C0BF",
"hX c #A793C7",
"jX c #BBBBC4",
"kX c #B6B7DE",
"lX c #938FE1",
"zX c #979BED",
"xX c #8B8DEA",
"cX c #9EA1EB",
"vX c #AFB5EB",
"bX c #B0B1E1",
"nX c #AAAAE3",
"mX c #BFC2E8",
"MX c #C1C3C3",
"NX c #C5CACA",
"BX c #CACCCB",
"VX c #DAC6C5",
"CX c #DED2CD",
"ZX c #C9D0D0",
"AX c #D5D5D6",
"SX c #D8D4D5",
"DX c #D8DBDB",
"FX c #E5E5DA",
"GX c #E7E8DB",
"HX c #CCD0E5",
"JX c #DADAE7",
"KX c #D4D4EB",
"LX c #DCE0E3",
"PX c #E1E1E2",
"IX c #ECECE7",
"UX c #E5E7E8",
/* pixels */
"5.4.6.U.^.H m m Q Q Q Q Q Q Q Q Q Q Q Q Q Q m m H W (.7.4.5.",
"4.m.W ' =.2X7X6X6X6X6X6X6X6X6X6X6X6X6X6X6X6X6X6X5X%X..O.c.4.",
"6.W %.5X4X2X2X2X2X2X2X2X2X2X2X2X2X2X2X2X2X4X2X3X3X4X5X%X] 7.",
"U.[ 3X*X1X1X1X1X1X1X1X1X1X1X1X1X1X1X1X<X<X>.&X;X=X*X*X3X+.~.",
"W +.>.>.%X%X%X%X%X%X&X&X%X%X%X&X&X%X&X1X,XdXeXVXVX,X>.>.=.H ",
"A $.*.=.*.*.*.*.*.*.$.*.*.*.*.=.$.#.,.qXVXAXNX+X#X>X-.=.*.m ",
"n $.$.#.$.#.#.#.o.X.*X&.o.o.@.=.=X9X8X[.AX[.).$XY &.$.#.$.m ",
"m @.@.@.@.@.-X>XeXsXVXVX>X,XrXuXXXJ.J.).SX|.}.rX-.o.+.@.@.m ",
"m X.X.X.X.| $X[. X@X[.oXSXXX5 ; : + $ [.BX|.OXOX:X+.| X.X.m ",
"m } } } } } =XqXW.W.W.J.AX4   . .   @ OX@X2 E.oXyX&.{ } | m ",
"n { { { { $XXX+X|.{.OXR.AX<   + + X # G.H.% : MXuX.. .{ { m ",
"m ` ` _ X./.n.[.|.{.- 4 DX, o o O = = Z.V.& 6 ZXaX] ` ` ' n ",
"n _ _ ) } /.3 6 [.NX1 4 DX, v.C.C.S.D.b.* 5 W.NXaX] ) _ _ m ",
"m ) ) ^ ' ^.5 , {.PX[.3 +XF.A.S.S.D.A.B.J.E.T.BXiX[ / ( ) n ",
"n ^ ^ ~ ` ^.5 , |.PX[.1 W.].E.N.N.M.E.R.R.T.E.NXiXU ^ ^ ^ m ",
"v ~ ~ ! _ ^.5 < }.PX[.2 W.Q.E.L.E.R.E.E.T.E.d.zXpXP ! ~ ~ n ",
"n S S A ( ^.5 < }.KXf.> `.Q.J.6 .X@X`.T.P.d.w.zXpXL ! S S v ",
"v A A B ^ :.5 < }.JXu.1.'..XK.K.OXMXjX9.a.e.r.cXpXL V A A n ",
"v B B b ~ T 5 , }.JXi.<.;.'.!.4 |.jXz.w.e.w.p.HXiXF M B B v ",
"n b b x S T 5 <  XIXk.0.3.2.2., .XjXj.e.w.t.lXGXyXF x b b n ",
"v x x l D T 5 ,  XIXkXu.w.q.q.7 fXgXp.w.i.xXGXUXtXF l x x v ",
"v l l z C T 5 , }.UXFXnXj.u.y.s.d.z.p.x.mXSXtXwXW b z l z v ",
"v h h d b R 4 , {.UXAXFXFXbXvXl.h.g.hX0X$XY J k a d j h j v ",
"v d d p j E Y.- }.UXLXLXLXCXwX:X$XK G g s i a d j d d d f c ",
"n p p p y N _.6 .XCXqX/.I Z g g s t t a p p p p p p p p p v ",
"U i u y y e k E E N j r 0 q u u y i i y y y y y y y y y y B ",
"(.h e e e r w p i 0 q e u u r r r e e e e e e e e e e e a W ",
"m.G w 9 w w w 9 9 w w w w w w w w w w w w w w w w w w 9 B I.",
"5.I.D i 9 9 9 9 9 9 9 9 9 9 9 9 9 9 9 9 9 9 9 9 8 9 e b P.8.",
"5.5.m.E M c c v v v v v v v v v v v v v v v v c c c I I.8.5."
};
