/* XPM */
static char *FA_PozosPluviales_FS[] = {
/* columns rows colors chars-per-pixel */
"30 30 256 2 ",
"   c #140F0F",
".  c #1B1212",
"X  c #1E1E1F",
"o  c #200E0E",
"O  c #1D2F2F",
"+  c #242323",
"@  c #252C2C",
"#  c #363F3F",
"$  c #3E3E40",
"%  c #1C4F50",
"&  c #1C5858",
"*  c #275B5B",
"=  c #136F6F",
"-  c #167575",
";  c #3E7373",
":  c #2C6A6A",
">  c #444646",
",  c #4D5757",
"<  c #576161",
"1  c #5B7B7B",
"2  c #676768",
"3  c #6F7171",
"4  c #707172",
"5  c #7C7A7B",
"6  c #78797A",
"7  c #9E2A27",
"8  c #9D2929",
"9  c #9E2E2B",
"0  c #9E2627",
"q  c #9D2F33",
"w  c #A12E2B",
"e  c #A12F2C",
"r  c #A52F2C",
"t  c #A12C29",
"y  c #AA2D2D",
"u  c #AC2E2C",
"i  c #A32A25",
"p  c #A5302D",
"a  c #A2302E",
"s  c #A9312E",
"d  c #AD322F",
"f  c #B2312E",
"g  c #A53431",
"h  c #AD3330",
"j  c #AB3331",
"k  c #A43B3B",
"l  c #A63938",
"z  c #B23431",
"x  c #B53532",
"c  c #B43330",
"v  c #BA3532",
"b  c #BA3734",
"n  c #BD3633",
"m  c #BE3835",
"M  c #BD3C3A",
"N  c #C5322E",
"B  c #C13734",
"V  c #C53734",
"C  c #C93632",
"Z  c #CA3532",
"A  c #C23A37",
"S  c #C53936",
"D  c #C93936",
"F  c #CD3B37",
"G  c #CC3C37",
"H  c #C63B38",
"J  c #C63C3A",
"K  c #C03D3A",
"L  c #CA3B38",
"P  c #CC3B39",
"I  c #CA3C39",
"U  c #CC3C38",
"Y  c #C93F3D",
"T  c #C3413E",
"R  c #CC403D",
"E  c #A8464E",
"W  c #AE4240",
"Q  c #B24B46",
"!  c #BB4946",
"~  c #BD4946",
"^  c #B64A49",
"/  c #B94D4A",
"(  c #BF4340",
")  c #B6514F",
"_  c #BB514F",
"`  c #AB5556",
"'  c #BC5452",
"]  c #B65E5D",
"[  c #B75250",
"{  c #BB635F",
"}  c #AD5A65",
"|  c #B65F64",
" . c #807B7B",
".. c #977F7E",
"X. c #907F7E",
"o. c #997F7F",
"O. c #9F7E7E",
"+. c #AC6B69",
"@. c #AE6866",
"#. c #B56364",
"$. c #B96363",
"%. c #B66B6F",
"&. c #BB6E6F",
"*. c #B46F71",
"=. c #AD787D",
"-. c #BA7372",
";. c #B47B7D",
":. c #B87778",
">. c #C44442",
",. c #C74A48",
"<. c #C3514F",
"1. c #CF524F",
"2. c #CD5552",
"3. c #C55B59",
"4. c #C36A69",
"5. c #D16B68",
"6. c #C47472",
"7. c #CB7674",
"8. c #CD7F7E",
"9. c #80807E",
"0. c #919076",
"q. c #C2807D",
"w. c #3333A8",
"e. c #2322B4",
"r. c #3C3DBC",
"t. c #5A5A8F",
"y. c #585895",
"u. c #62798C",
"i. c #657A8D",
"p. c #7D7D83",
"a. c #777782",
"s. c #657D91",
"d. c #6E7E90",
"f. c #727F90",
"g. c #4544A0",
"h. c #5555BA",
"j. c #785DBE",
"k. c #6E6DA8",
"l. c #2524D7",
"z. c #0E0DE0",
"x. c #0000FB",
"c. c #1312F2",
"v. c #1C1BE4",
"b. c #2727F9",
"n. c #3D3DF1",
"m. c #5151D8",
"M. c #6966DE",
"N. c #4544E6",
"B. c #5959ED",
"V. c #4E53F8",
"C. c #6767E9",
"Z. c #706FFE",
"A. c #7379F6",
"S. c #817F8C",
"D. c #976CA5",
"F. c #0C9F9E",
"G. c #1A9595",
"H. c #0FADAD",
"J. c #08BBBB",
"K. c #2BAFAF",
"L. c #37A3A3",
"P. c #7F8081",
"I. c #6F8093",
"U. c #7A8392",
"Y. c #609191",
"T. c #51BFBF",
"R. c #67ABAB",
"E. c #78B2B2",
"W. c #7CA6A6",
"Q. c #08C9C9",
"!. c #1FCBCB",
"~. c #24DDDD",
"^. c #3AD4D4",
"/. c #00E7E6",
"(. c #05F7F7",
"). c #69C3C3",
"_. c #44E8E8",
"`. c #828282",
"'. c #858484",
"]. c #8E8E8E",
"[. c #8C8A8B",
"{. c #868886",
"}. c #9F8787",
"|. c #978785",
" X c #93938F",
".X c #9B998A",
"XX c #8B8692",
"oX c #838593",
"OX c #968E95",
"+X c #8D9191",
"@X c #839C9C",
"#X c #949595",
"$X c #939A9A",
"%X c #9D9D9D",
"&X c #9C9896",
"*X c #A88586",
"=X c #BE8281",
"-X c #B88D8D",
";X c #A38C94",
":X c #BB8C9B",
">X c #AF9796",
",X c #A39F9F",
"<X c #B99C9C",
"1X c #9DA09F",
"2X c #A4A48F",
"3X c #B8A09F",
"4X c #9B9BA7",
"5X c #9E9FB8",
"6X c #8787B8",
"7X c #85ADAE",
"8X c #9AA5A5",
"9X c #A2A1A1",
"0X c #A5A4A2",
"qX c #A4A9A9",
"wX c #AAABAB",
"eX c #ABA5A4",
"rX c #B6AFAE",
"tX c #B7ABAB",
"yX c #AFAFB0",
"uX c #AFB9B9",
"iX c #AEB5B5",
"pX c #B6B5B5",
"aX c #B3B3B3",
"sX c #B3B9B9",
"dX c #BBBABB",
"fX c #BBB6B6",
"gX c #C78F8F",
"hX c #C6898A",
"jX c #C2918F",
"kX c #C99393",
"lX c #C49594",
"zX c #C3AEAD",
"xX c #CAA9AC",
"cX c #C3A2A6",
"vX c #C3BCBC",
"bX c #BFC0BD",
"nX c #9F93D5",
"mX c #BBBBC3",
"MX c #A8A3D1",
"NX c #B3AEDB",
"BX c #8684EC",
"VX c #9A96E1",
"CX c #9B9AF1",
"ZX c #B9BCE5",
"AX c #CAB9C7",
"SX c #BEC5C5",
"DX c gray76",
"FX c #CBCBCB",
"GX c #C8C5C5",
"HX c #D3C9CB",
"JX c #C3C3D7",
"KX c #CACBD9",
"LX c #D4D2D2",
"PX c #D6D1D8",
"IX c #DCDDE1",
"UX c #E4E4E2",
/* pixels */
"i.u.d.OX;.' ~ ~ ~ ~ ~ ~ ~ ~ ~ ~ ~ ~ ~ ~ ~ ~ ~ ~ ' *.;Xf.u.i.",
"u.U.-.,.I L F F F F F F F F F F F F U U F F F F G L >.4.S.u.",
"I.&.D F U U U U U U U U U U U U U F Z C U U U U U U F D 3.f.",
"OX,.P I L L I I I I L U I I U D D R 1.,.L P L L L P I I >.*X",
"%.Y L I I I I I L P I I D C C 3.7.gXzXlX,.D I I I I I I L ' ",
"_ I I I I L C Z Y J N C R 2.5.3XFXsX-X-.2.D I I I I I I I ~ ",
"~ I I I D ,.4.8.kXkX7.6.;.O.X.1XDXeXq.>.L I I I I I I I L ~ ",
"~ J H I S <.<XuXwXsXvX`., # @ &XfX9XrX6.J J J I Y J H H H ~ ",
"~ H H S T 6.<X,X9X9XqX>   . o ).R., aXjXM J H V N V H H H ~ ",
"~ A A V <.*X&XaX`.].wX> O & - Q.G.< dXgXM M ( 3.8.<.A A A ~ ",
"~ A A B ' ..6 pX#X'.qXL.Q./.(.K.1 +XdXhX^ jXxXzXrX=XT B A ~ ",
"~ m m n ' o.3 pXDX .$XE.^.^.).@X[.$XdXxX-XpXSX>X#./ K m m ~ ",
"~ m m n ' o.4 pXmX6 #XwXiXSXvXGXsX4X[.2 2 pXdXeX:.M n m n ~ ",
"~ b b v _ o.4 pXBXy..XwX0X9X%XaX9X$ + . > uX#X#XrX{ v m v ~ ",
"~ b b v _ ..3 fXZ.g.2XaXwXqX%XwX[.+ X . * _.: 2 vX$.c b b ~ ",
"~ x x c ) ..3 fXCXl.k.{.%XyX2 0X+X% = F.J.H.; #XvX$.f x x ~ ",
"~ x x f ) o.4 pXIXB.m.a.'.GX#X].7X!.(.(.~.Y.`.0XvX| f x c ~ ",
"~ z z f ) |.3 aXUXKXMXp.9.FX0X5 8XW.T.R.@X#X X4XfX#.u z z ! ",
"~ z z f ^ *X6 aXUXHXvX`.5 KX6X6 %X].|.,X&X Xk.N.nX{ u z z ~ ",
"~ h h d h ] *X>XkX%.=.5 P.JXN.6 0X].+XbX5Xh.v.b.MX$.y h d ~ ",
"~ d d d d h [ ) j y @.5 P.JXn.t.].'.{.mXC.x.x.B.AX} y d d ! ",
"~ d d s h h u u j h +. .p.LXBXz.e.w.0.dXN.x.n.ZXLX} y d s ~ ",
"! s s s s s j j s p +. .P.LXPXC.b.c.r.M.V.A.NXAX:XE r s s ~ ",
"~ p p p p p p p p r +.5 P.LXUXIXZXVXM.j.D.=X#.E k p p p r ! ",
"! p r p p p p p p w ` }.{.FXHXcXjX-.#.Q l 8 0 i w p p p w ! ",
"#.g w e e e e e e w a ` *X*.` k q 8 8 7 t e a a e e e e w _ ",
";XW w e e e e e e e w e l e 8 t t e e e e e e e e e e w g :.",
"U.] w 9 9 9 9 9 9 9 9 9 7 9 9 9 9 9 9 9 9 9 9 9 9 9 9 8 / oX",
"i.XX[ l 9 9 9 9 9 9 9 9 9 9 9 9 9 9 9 9 9 9 9 9 9 9 g ^ XXs.",
"i.i.U.;./ ! ! ~ ~ ~ ~ ~ ~ ~ ~ ~ ~ ~ ~ ~ ~ ~ ~ ! ! ! %.oXs.i."
};
