/* XPM */
static char *FA_Pozos_A[] = {
/* columns rows colors chars-per-pixel */
"30 30 256 2 ",
"   c #0F1113",
".  c #1A1313",
"X  c #12161B",
"o  c #1F1E1E",
"O  c #242322",
"+  c #2C2725",
"@  c #3F3D3B",
"#  c #4D382E",
"$  c #7E5225",
"%  c #624333",
"&  c #7E553F",
"*  c #1C4F4F",
"=  c #265C5D",
"-  c #3C7374",
";  c #2A6B6B",
":  c #136F6F",
">  c #454546",
",  c #56514C",
"<  c #5B5755",
"1  c #725C45",
"2  c #776758",
"3  c #676768",
"4  c #71706F",
"5  c #727170",
"6  c #7B7A77",
"7  c #7C7C7D",
"8  c #787777",
"9  c #756B65",
"0  c #A4613B",
"q  c #8F6C57",
"w  c #957252",
"e  c #976A52",
"r  c #BB7045",
"t  c #A27D59",
"y  c #A76947",
"u  c #8B7B6C",
"i  c #807F7F",
"p  c #C67547",
"a  c #80807F",
"s  c #909077",
"d  c #9C8679",
"f  c #B98669",
"g  c #B79470",
"h  c #3333A9",
"j  c #2222B5",
"k  c #3D3CBC",
"l  c #2C5E9A",
"z  c #295E9D",
"x  c #2D5F9C",
"c  c #295C9C",
"v  c #265C9E",
"b  c #2E619E",
"n  c #31639F",
"m  c #2A5DA0",
"M  c #2F63A1",
"N  c #2D63A5",
"B  c #2D64A5",
"V  c #2C65AB",
"C  c #3064A3",
"Z  c #3165A5",
"A  c #3063A0",
"S  c #3A6AA3",
"D  c #3167A8",
"F  c #3765A9",
"G  c #3268AA",
"H  c #3269AD",
"J  c #346BAC",
"K  c #3568A3",
"L  c #2F6AB1",
"P  c #326BB0",
"I  c #326CB2",
"U  c #346DB2",
"Y  c #346FB5",
"T  c #2F71BF",
"R  c #3671B6",
"E  c #3370B7",
"W  c #3672B9",
"Q  c #3674BE",
"!  c #3976BE",
"~  c #3A75BB",
"^  c #3F7ABF",
"/  c #5A5990",
"(  c #65778A",
")  c #66788B",
"_  c #677A8C",
"`  c #697B8C",
"'  c #687A8B",
"]  c #7B7D80",
"[  c #6C7E91",
"{  c #5555BA",
"}  c #4271AD",
"|  c #4C79A8",
" . c #557BAB",
".. c #497DB7",
"X. c #4B7BB5",
"o. c #477CBA",
"O. c #447ABB",
"+. c #487CBA",
"@. c #487BBA",
"#. c #4671B0",
"$. c #517EB5",
"%. c #517DB2",
"&. c #587CB8",
"*. c #6E6FA7",
"=. c #0D0CE1",
"-. c #0000FD",
";. c #1212F3",
":. c #1B1CE6",
">. c #2726FA",
",. c #3D3DF2",
"<. c #3576C5",
"1. c #3475C2",
"2. c #3977C1",
"3. c #3778C6",
"4. c #3A78C2",
"5. c #3D7AC3",
"6. c #3A7AC6",
"7. c #3C7BC6",
"8. c #3D7CC7",
"9. c #3A7BC9",
"0. c #3B7CCA",
"q. c #3F7EC8",
"w. c #3578C9",
"e. c #437CC1",
"r. c #497FC1",
"t. c #5D69DA",
"y. c #6D7FCF",
"u. c #6B69DC",
"i. c #4242EC",
"p. c #4949E0",
"a. c #5655F2",
"s. c #6466E9",
"d. c #7976F1",
"f. c #0B9E9E",
"g. c #0EADAD",
"h. c #07BCBC",
"j. c #6F8194",
"k. c #7F8A97",
"l. c #72879D",
"z. c #7F8B98",
"x. c #7E8C9F",
"c. c #778697",
"v. c #619191",
"b. c #4E80BA",
"n. c #5C83B5",
"m. c #5283BC",
"M. c #5D86BA",
"N. c #5E89BB",
"B. c #5F89B7",
"V. c #6B88AC",
"C. c #6887AC",
"Z. c #778CA3",
"A. c #788FA4",
"S. c #7A90AC",
"D. c #638AB7",
"F. c #618BBA",
"G. c #6A8CB4",
"H. c #6B92BD",
"J. c #7492B7",
"K. c #7797BA",
"L. c #69AEAE",
"P. c #7CA6A6",
"I. c #51C0BF",
"U. c #4A83C7",
"Y. c #5286C2",
"T. c #5C8BC4",
"R. c #5289CA",
"E. c #638FC2",
"W. c #6C95C6",
"Q. c #7497C2",
"!. c #7499C5",
"~. c #7A9DC6",
"^. c #7FA2CB",
"/. c #1FCBCB",
"(. c #23DDDE",
"). c #07F9FA",
"_. c #45E9E9",
"`. c #828282",
"'. c #848485",
"]. c #8E8E8E",
"[. c #8B8B8B",
"{. c #878786",
"}. c #968D8A",
"|. c #91908F",
" X c #95958E",
".X c #808A97",
"XX c #8D9192",
"oX c #85969E",
"OX c #949494",
"+X c #979897",
"@X c #9F9E9E",
"#X c #9B9B9A",
"$X c #979898",
"%X c #B29583",
"&X c #B99F87",
"*X c #A49E9F",
"=X c #A89589",
"-X c #9FA09F",
";X c #A3A39F",
":X c #8996A5",
">X c #8394A9",
",X c #999CA6",
"<X c #8299B3",
"1X c #819CBF",
"2X c #8B9FB5",
"3X c #9E9FB9",
"4X c #8787B9",
"5X c #86ADAD",
"6X c #99A3AA",
"7X c #8FA3BC",
"8X c #9AA7B5",
"9X c #A1A2A2",
"0X c #A4A5A3",
"qX c #A8A7A6",
"wX c #ABABAA",
"eX c #A4A7AB",
"rX c #B0AFAF",
"tX c #BAB3AA",
"yX c #A4ABB3",
"uX c #AEB2B6",
"iX c #AFB8BC",
"pX c #B5B6B6",
"aX c #B3B2B2",
"sX c #B9B7B4",
"dX c #B5B9BB",
"fX c #BABBBC",
"gX c #C5B19B",
"hX c #C2BEBB",
"jX c #BEC1BF",
"kX c #C5C1BC",
"lX c #8CA3C9",
"zX c #8BA4C3",
"xX c #93AAC4",
"cX c #92ABC9",
"vX c #95AAC3",
"bX c #AAB9CA",
"nX c #ABB5C7",
"mX c #BCBEC1",
"MX c #B7BDC4",
"NX c #A0A5DB",
"BX c #8383EC",
"VX c #9498E3",
"CX c #AEB1E2",
"ZX c #BCBBE3",
"AX c #BBC2C9",
"SX c #BAC0D7",
"DX c #C3C3C3",
"FX c #CCCDCD",
"GX c #C8C8C7",
"HX c #D5D0CB",
"JX c #CBCCD3",
"KX c #C4C6D7",
"LX c #D4D5D7",
"PX c #E0E0DE",
"IX c #D0D1E0",
"UX c #E3E4E3",
/* pixels */
"_ ) [ >XK.m.o.+.+.+.+.+.+.+.+.+.+.+.+.+.+.+.+.o.m.H.<Xj.) _ ",
"( l.W.r.5.0.9.9.9.9.9.9.9.9.9.0.0.0.0.0.9.9.9.9.9.7.e.E.l.( ",
"j.H.4.9.0.9.9.9.9.9.9.9.9.9.9.0.0.9.w.w.9.9.9.9.9.0.9.3.T.j.",
"<Xr.9.6.9.9.9.9.9.9.9.9.9.9.9.3.6.q.R.U.6.9.9.9.9.9.6.9.e.K.",
"H.5.6.6.6.6.7.8.6.9.8.7.6.<.<.T.!.lXnXvXU.6.6.6.6.6.6.6.6.m.",
"b.7.6.7.7.6.<.<.7.5.<.<.q.R.W.yXGXsX2XJ.R.6.7.7.7.7.7.7.6.+.",
"+.6.6.6.6.U.W.^.cXcX~.Q.K.x.k.@XDXeX~.e.6.6.6.6.6.6.6.6.6.+.",
"+.4.4.5.2.Y.8XtXwXsXmX`., @ + $XdX0XuXQ.4.4.4.5.5.5.4.4.4.+.",
"+.4.4.2.O.!.8X-X9X9XqX>   X X %Xd , aXxX~ 5.4.1.T 1.4.4.2.+.",
"+.! ! Q m.:X#XpX`.].wX> + # % y & < fXxX~ ! O.T.^.Y.Q 2.2.o.",
"+.! ! Q m.k.8 pX+X'.qXq 0 r p e 9 |.fXzXX.xXbXnXuX1X^ Q ! +.",
"+.~ ~ W m.z.4 pXDX] +X=Xf f %X}.[.+XfXbX7XpXkX6XB.+.! W Q o.",
"o.W W W m.z.5 pXhX6 OXwXaXDXfXGXpX;X[.3 3 pXfXyXK.~ W W W +.",
"+.R R E m.k.5 pX&X2 $XwX0X9X@XaX9X@ O . > iXOXOXiXN.Y W R +.",
"+.R R Y $.k.4 dXg 1 ,XaXwXqX@XwX[.O o . = _.; 3 AXF.I R Y +.",
"+.U U I $.k.4 dXgX$ u {.#XrX3 0XXX* : f.h.g.- OXAXN.L U U +.",
"+.U U P $.z.5 pXPXt w 6 '.GXOX|.5X/.).).(.v.`.;XMXM.P U I @.",
"@.P H H %..X4 aXUXHXtX7 ] FX0X7 6XP.I.L.oXOX|.,XbXM.V P H o.",
"+.H H H X.>X6 aXUXJXmX`.7 JX4X7 @X].}.*X#X X*.p.VXD.V H H +.",
"+.H H G J n.:X6XvXG.S.7 a KXi.6 0X].XXjX3X{ :.>.NXD.V H G +.",
"+.G G G D G $.%.Z B C.] a KX,./ ].'.{.mXs.-.-.a.SXn.B G D +.",
"+.D D Z D D N N G Z V.] 7 LXBX=.j h s fXi.-.,.ZXLX&.N D Z +.",
"+.Z Z C Z Z Z Z Z B C.] a LXIXs.>.;.k u.a.d.CXSXlX} N Z B +.",
"+.C C M C C C C C M V.7 i LXUXLXZXVXs.t.y.1XD.#.F M C C M +.",
"..M M M M M M M M b  .oX{.FXJXnX7XJ.D.| S m v z M M M M b @.",
"F.Z b b b b b b b b M  .>XG. .S m v v z z b A M b b b b b b.",
"<X} x b b b b b b b b b S b c z b b b b b b b b b b b b K H.",
"j.M.b l x x x x x x x l c x x x x x x x x x x x x x x c X.l.",
"' A.X.S l l l l l l l l l l l l l l l l l l l l l l n X.A.` ",
") ' l.J...+.+.+.+.+.+.+.+.+.+.+.+.+.+.+.+.+.+.+.+...H.Z.` ) "
};
