/* XPM */
static char *FA_PozosPluviales_N[] = {
/* columns rows colors chars-per-pixel */
"30 30 256 2 ",
"   c #1E0F0F",
".  c #111010",
"X  c #1C1010",
"o  c #181615",
"O  c #1A1212",
"+  c #1E1E1F",
"@  c #1C2F2F",
"#  c #232021",
"$  c #252525",
"%  c #262B2B",
"&  c #393C3C",
"*  c #3E3E40",
"=  c #1C4F50",
"-  c #1A5858",
";  c #265C5C",
":  c #136F6F",
">  c #167575",
",  c #2B6B6B",
"<  c #3D7373",
"1  c #434545",
"2  c #444848",
"3  c #4D5858",
"4  c #505252",
"5  c #5A5A5A",
"6  c #5D5D5B",
"7  c #5A5A5D",
"8  c #5D5D5D",
"9  c #60605F",
"0  c #5D5D63",
"q  c #586161",
"w  c #5F6061",
"e  c #5A7B7B",
"r  c #616161",
"t  c #636463",
"y  c #636365",
"u  c #636464",
"i  c #656566",
"p  c #6A6A66",
"a  c #666669",
"s  c #64646C",
"d  c #676869",
"f  c #6A6A6A",
"g  c #6A6B6C",
"h  c #6D6D6D",
"j  c #6B6E70",
"k  c #6F6F71",
"l  c #6F6F79",
"z  c #6F7274",
"x  c #717171",
"c  c #747373",
"v  c #777771",
"b  c #757575",
"n  c #7B7B77",
"m  c #70707A",
"M  c #757779",
"N  c #77777E",
"B  c #76797A",
"V  c #777B7E",
"C  c #797A7A",
"Z  c #797A7D",
"A  c #7A7C7F",
"S  c #7E7E7E",
"D  c #80807F",
"F  c #909076",
"G  c #3333A9",
"H  c #2222B4",
"J  c #3C3CBC",
"K  c #595990",
"L  c #585895",
"P  c #65788B",
"I  c #66798D",
"U  c #687B8F",
"Y  c #6A7D8F",
"T  c #777782",
"R  c #797C80",
"E  c #7E7F81",
"W  c #7A7A84",
"Q  c #7B7C8C",
"!  c #697D90",
"~  c #6E7F91",
"^  c #4444A1",
"/  c #5555BA",
"(  c #6F6FA6",
")  c #6C6CAA",
"_  c #7F7FB7",
"`  c #2424D8",
"'  c #0C0CE1",
"]  c #1C1CE5",
"[  c #0101FB",
"{  c #0000FC",
"}  c #1212F2",
"|  c #2A2AF7",
" . c #2222F9",
".. c #3B3BF0",
"X. c #3E3EF2",
"o. c #5151D8",
"O. c #6868CA",
"+. c #6969DD",
"@. c #4444E7",
"#. c #4949E0",
"$. c #4141ED",
"%. c #5858EB",
"&. c #5959EF",
"*. c #5151F5",
"=. c #6464E1",
"-. c #6D6DE5",
";. c #6161EE",
":. c #6F6FFF",
">. c #7676F3",
",. c #0B9E9E",
"<. c #199595",
"1. c #0EADAD",
"2. c #07BCBC",
"3. c #2AAFAF",
"4. c #37A4A4",
"5. c #7D8180",
"6. c #7B8084",
"7. c #7C8187",
"8. c #7E808A",
"9. c #7F8489",
"0. c #6E8090",
"q. c #728291",
"w. c #748393",
"e. c #768593",
"r. c #7A8693",
"t. c #788694",
"y. c #7B8896",
"u. c #619191",
"i. c #64A9A9",
"p. c #69AEAE",
"a. c #7CA6A6",
"s. c #78B2B2",
"d. c #51C0BF",
"f. c #00CBCB",
"g. c #0ECACA",
"h. c #1FCBCB",
"j. c #23DDDD",
"k. c #37D7D7",
"l. c #3DD3D3",
"z. c #00E7E7",
"x. c #00F4F4",
"c. c #0AF7F7",
"v. c #04FBFB",
"b. c #68C3C3",
"n. c #45E9E9",
"m. c #818180",
"M. c #858586",
"N. c #858582",
"B. c #888884",
"V. c #8B8C87",
"C. c #86868B",
"Z. c #85878E",
"A. c #878A8A",
"S. c #87898C",
"D. c #89898A",
"F. c #8C8A8A",
"G. c #8A8B8D",
"H. c #8D8D8D",
"J. c #968B8B",
"K. c #908F8F",
"L. c #90918F",
"P. c #95958E",
"I. c #9B9A8B",
"U. c #858C92",
"Y. c #8F8F95",
"T. c #898991",
"R. c #868F99",
"E. c #918F90",
"W. c #8B9192",
"Q. c #8D9092",
"!. c #86909B",
"~. c #839B9C",
"^. c #819C9C",
"/. c #919191",
"(. c #959091",
"). c #939696",
"_. c #959696",
"`. c #9D9595",
"'. c #9A9A97",
"]. c #979999",
"[. c #909C9C",
"{. c #999999",
"}. c #9A9B9C",
"|. c gray62",
" X c #A49E9F",
".X c #A4A48F",
"XX c #9E9EA5",
"oX c #9898A9",
"OX c #9E9FB9",
"+X c #8787B8",
"@X c #85ADAE",
"#X c #9DA0A0",
"$X c #9AA4A4",
"%X c #A1A1A2",
"&X c #A5A2A2",
"*X c #A5A6A2",
"=X c #A5A5A5",
"-X c #A0A2A8",
";X c #A7A9AA",
":X c #A1AAAA",
">X c #A9A9A9",
",X c #ACAAAA",
"<X c #ACABAE",
"1X c #ABACAC",
"2X c #ADADAE",
"3X c #A0A0B0",
"4X c #AFAFB0",
"5X c #AEB5B5",
"6X c #AEBABA",
"7X c #B2B2B2",
"8X c #B1B1B6",
"9X c #B6B6B6",
"0X c #BCB6B6",
"qX c #BABAB3",
"wX c #B6B7B9",
"eX c #B6B8BD",
"rX c #B9BABA",
"tX c #BBBDBE",
"yX c #BEBEBE",
"uX c #C0BABA",
"iX c #BEC1BF",
"pX c #9998DB",
"aX c #B6B5C6",
"sX c #BBBBC0",
"dX c #BBBBC8",
"fX c #A7A7D1",
"gX c #A5A6D4",
"hX c #B0B0DE",
"jX c #8383EC",
"kX c #8686EC",
"lX c #9797E2",
"zX c #9A9AF2",
"xX c #BABAE3",
"cX c #BBBBE6",
"vX c #BFC5C5",
"bX c #C1C2C2",
"nX c #C3C5C5",
"mX c #C8C5C5",
"MX c #C0C0CB",
"NX c #CAC9C9",
"BX c #CDCDCE",
"VX c #C0C0D1",
"CX c #C6C6D6",
"ZX c #CDCDD0",
"AX c #C9C9D2",
"SX c #C1C1D8",
"DX c #CBCBDD",
"FX c #D5D5D3",
"GX c #D3D3D4",
"HX c #D5D5D5",
"JX c #D1D1DF",
"KX c #DBDBDF",
"LX c #E2E2DF",
"PX c #DEDEE3",
"IX c #E7E7E3",
"UX c #E2E2E4",
/* pixels */
"I I Y !.9.a 5 5 5 5 5 5 5 5 5 5 5 5 5 5 5 5 5 5 y R !.~ I I ",
"P w.E g x S m.S m.m.m.m.m.m.m.m.m.m.m.m.m.m.S m.S c h B q.P ",
"~ Z x m.S S S S S S S S S S S S S S C C S S S S S S m.b x 0.",
"R.h m.S S S S S S S S S S S S S S m.H.D.S S S S S S S m.x U.",
"V c S S S S S m.S S m.S S C C H.|.>XrX2XM.S S S S S S S C a ",
"r S S S S S C C S S C C m.H.{.1XNX9X#X).H.S S S S S S S S 7 ",
"5 S S S S N._.=X1X2X|.{.{.H.M.#XnX=X#X5.S S S S S S S S S 5 ",
"5 S S S C D.>X9X2X9XyXN.4 & % `.0X%X7X}.S S S S S S S S S 5 ",
"5 C C C S {.>X%X%X%X=X1 . O   b.i.3 7X>XC S S C c C S C S 5 ",
"5 C C C M._.{.9Xm.H.,X2 @ - > g.<.q rX;XM C S /.%XD.C C C 5 ",
"5 C C b M.F.b 9X].M.:X4.f.z.x.3.e K.rX-XA >XrX9X7X|.S b C 5 ",
"5 b b c N.F.x 9XbXD [.s.k.l.b.^.F.'.tXeX%X9XbX%XA.S C c b 5 ",
"5 b b c N.H.x 9XdXN /.>X5XvXuXmXwXXXG.i f 9XtX,X].B c c b 5 ",
"5 c c x m.D.x 9XkXL I.<X&X&X|.7X%X* $ o 1 6X)._.9XD.x c c 5 ",
"5 x x h m.D.x qX:.^ .X8X1X;X|.>XF.# + X ; n., f bXG.h x x 5 ",
"5 h h h S D.k qXzX` ) B.}.4Xu =XW.= : ,.2.1.< (.bXS.g h x 5 ",
"5 h h g S D.x 9XPX%.o.T N.NX_.E.@Xh.v.c.j.u.m.*XtXZ.f h h 5 ",
"5 g g f S D.x 9XIXDXfXW D BX*XC $Xa.d.p.~._.L.oXaXC.d g g 5 ",
"5 g g f C /.C 7XUXZXyXm.S AX+XZ |.H.J. X'.P.( #.pXV.a g g 5 ",
"5 f f i f M._.%X<XT.Y.Z D SX@.n *XH.Q.iXOX/ ] | gXA.y f f 5 ",
"5 i i i i i S Z i u M.S m.CXX.K H.M.D.sX-.[ { &.VX8.y i i 5 ",
"5 i i u i i r r i i D.S E GXjX' H G F rX$.[ ..cXHXQ r i i 5 ",
"5 u u t u u i i u t M.S m.FXJX;. .} J +.*.>.hXMX3Xl r u u 5 ",
"5 r r r r r r r r r M.S S GXLXKXxXlX=.O._ }.C.m s r r r r 5 ",
"7 r r r r r r r r 8 C /.M.BXZX8X=X/.M.v p 7 5 6 9 r r r r 5 ",
"z 8 8 8 8 8 8 8 8 8 r S _.G.Z a 0 7 7 7 8 9 r r r 8 8 8 8 w ",
"R.w 8 8 8 8 8 8 8 8 8 8 f 8 5 6 6 8 8 8 8 8 8 8 8 8 8 8 6 6.",
"q.j 5 6 6 6 6 6 6 6 6 5 5 5 6 6 6 6 6 6 6 6 6 6 6 5 6 5 t e.",
"U y.u 5 5 5 5 5 5 5 5 5 5 5 5 5 5 5 5 5 5 5 5 5 5 5 5 r r.Y ",
"I I w.7.8 5 5 5 5 5 5 5 5 5 5 5 5 5 5 5 5 5 5 5 5 5 B t.! P "
};
