/* XPM */
static char *FA_PozosFecales_NR_R[] = {
/* columns rows colors chars-per-pixel */
"30 30 256 2 ",
"   c #141618",
".  c #151819",
"X  c #1A1918",
"o  c #292828",
"O  c #262322",
"+  c #3A3C3D",
"@  c #793600",
"#  c #4A372D",
"$  c #78430D",
"%  c #5F402F",
"&  c #534036",
"*  c #6D4722",
"=  c #7F5224",
"-  c #624738",
";  c #6E5033",
":  c #7D583D",
">  c #464544",
",  c #494E52",
"<  c #5B5755",
"1  c #6A584D",
"2  c #725C44",
"3  c #766759",
"4  c #686767",
"5  c #6F6F70",
"6  c #6F7071",
"7  c #7C7A77",
"8  c #7C7C7C",
"9  c #747577",
"0  c #766B65",
"q  c #824C16",
"w  c #905B27",
"e  c #825337",
"r  c #955D3D",
"t  c #986A3D",
"y  c #A5613B",
"u  c #CE701F",
"i  c #CD6F20",
"p  c #CF7223",
"a  c #CF7325",
"s  c #CF752A",
"d  c #D17323",
"f  c #D17526",
"g  c #D47423",
"h  c #D37729",
"j  c #D57729",
"k  c #D3782B",
"l  c #D3782C",
"z  c #D57B2E",
"x  c #D97B2D",
"c  c #CF7D37",
"v  c #D67E32",
"b  c #DA7F32",
"n  c #976D44",
"m  c #936C55",
"M  c #887055",
"N  c #9A7652",
"B  c #BC7044",
"V  c #A47E58",
"C  c #AB7352",
"Z  c #BC7E5B",
"A  c #A76946",
"S  c #8A7B6E",
"D  c #827D7A",
"F  c #CA794A",
"G  c #CD7E51",
"H  c #DA8135",
"J  c #DC8335",
"K  c #D68139",
"L  c #DE853A",
"P  c #DB8339",
"I  c #E18A3F",
"U  c #E1883A",
"Y  c #F38F3E",
"T  c #F3903F",
"R  c #F4913F",
"E  c #B6875D",
"W  c #9F856B",
"Q  c #9D8679",
"!  c #AB8560",
"~  c #A88B6D",
"^  c #B98669",
"/  c #B7946F",
"(  c #A68978",
")  c #B09678",
"_  c #D78B4A",
"`  c #D48847",
"'  c #D08C52",
"]  c #DE995D",
"[  c #DB9559",
"{  c #E28D42",
"}  c #E48F45",
"|  c #E58F43",
" . c #ED8E41",
".. c #E69146",
"X. c #E69349",
"o. c #E9964C",
"O. c #EA9348",
"+. c #EB944A",
"@. c #F59241",
"#. c #F69545",
"$. c #F39242",
"%. c #F1964B",
"&. c #EB9A50",
"*. c #EE9A51",
"=. c #EE9D54",
"-. c #EE9C53",
";. c #ED9D59",
":. c #E39556",
">. c #F09E56",
",. c #F09F58",
"<. c #F2A159",
"1. c #F5A55E",
"2. c #F3A35D",
"3. c #F8A75F",
"4. c #FBA85C",
"5. c #C8966C",
"6. c #CB996D",
"7. c #C5966D",
"8. c #D79861",
"9. c #DC9B63",
"0. c #DC9E6A",
"q. c #D69B69",
"w. c #C99A7A",
"e. c #D39F76",
"r. c #DDA16E",
"t. c #DDA575",
"y. c #D5A073",
"u. c #E3A165",
"i. c #E5A46A",
"p. c #EDA76A",
"a. c #F3A562",
"s. c #F6A862",
"d. c #F3A964",
"f. c #FAAB62",
"g. c #F9AC66",
"h. c #FAAC65",
"j. c #F6AC6A",
"k. c #FAAF69",
"l. c #FBAF6C",
"z. c #F8A765",
"x. c #FEB16B",
"c. c #FEB26D",
"v. c #FCB16B",
"b. c #E0A472",
"n. c #EBAC73",
"m. c #EFB37E",
"M. c #F4B376",
"N. c #FFB572",
"B. c #FEB675",
"V. c #FDB371",
"C. c #FDB779",
"Z. c #FEB97A",
"A. c #FEBA7D",
"S. c #61778C",
"D. c #66798C",
"F. c #6F7E8E",
"G. c #7F7F80",
"H. c #627A90",
"J. c #717F90",
"K. c #75818E",
"L. c #7F8081",
"P. c #788592",
"I. c #828181",
"U. c #838485",
"Y. c #8E8E8E",
"T. c #8B8A8B",
"R. c #868788",
"E. c #948F8B",
"W. c #978D85",
"Q. c #9B918C",
"!. c #9F9184",
"~. c #838A91",
"^. c #8D8E91",
"/. c #8D9193",
"(. c #919192",
"). c #949495",
"_. c #959799",
"`. c #9A9A9B",
"'. c #9F9E9E",
"]. c #9F9C98",
"[. c #999897",
"{. c #A19386",
"}. c #A19283",
"|. c #AE9A8A",
" X c #A99688",
".X c #B39583",
"XX c #BB9E84",
"oX c #B29984",
"OX c #A39A94",
"+X c #AB9E95",
"@X c #A19F9F",
"#X c #A7A39E",
"$X c #B5A191",
"%X c #BAA99A",
"&X c #9A9FA4",
"*X c #A1A2A2",
"=X c #A5A5A5",
"-X c #A3A3A3",
";X c #A9A7A6",
":X c #AAAAAA",
">X c #ABACAC",
",X c #ACAAA7",
"<X c #B2AFAD",
"1X c #BAB3AB",
"2X c #AEB2B6",
"3X c #B2B2B2",
"4X c #B6B6B6",
"5X c #B6B4B3",
"6X c #B9B5B1",
"7X c #B7B9BA",
"8X c #BDBDBD",
"9X c #BBBBBA",
"0X c #D8AC84",
"qX c #D5AF8D",
"wX c #D0A480",
"eX c #C6AC94",
"rX c #C9B099",
"tX c #C7B19A",
"yX c #DBB593",
"uX c #DCBB9E",
"iX c #DFB996",
"pX c #C5A488",
"aX c #E3B78C",
"sX c #E4B88D",
"dX c #EEB98A",
"fX c #FEBD82",
"gX c #FCBC83",
"hX c #F7BB83",
"jX c #EDBF94",
"kX c #E6BE9A",
"lX c #C4B5A6",
"zX c #C8B7A8",
"xX c #D5B9A2",
"cX c #C9BDB2",
"vX c #C3BCB6",
"bX c #FFC086",
"nX c #FEC189",
"mX c #FDC38D",
"MX c #E9C09B",
"NX c #FDC490",
"BX c #FFC996",
"VX c #FBC594",
"CX c #DAC0A9",
"ZX c #C1C0BF",
"AX c #CCC3BB",
"SX c #D8C5B6",
"DX c #E0C2A6",
"FX c #B9BEC3",
"GX c #C4C3C3",
"HX c #CCCBCA",
"JX c #CDC9C3",
"KX c #D0CDCB",
"LX c #D7D0CA",
"PX c #D7D6D3",
"IX c #E1E0DE",
"UX c #E3E3E4",
/* pixels */
"D.S.F.OXwX;.@.#.#.#.#.#.#.#.#.#.#.#.#.#.#.#.#.@.*.t.+XK.S.D.",
"S.~.t.z.C.mXBXBXBXBXBXBXBXBXBXBXBXBXBXBXBXBXBXBXmXA.j.p.T.S.",
"J.b.V.NXnXnXnXnXnXnXnXnXnXnXnXnXnXnXbXbXnXnXnXnXnXnXmXA.a.K.",
"+Xa.bXfXfXfXfXfXfXfXfXfXfXfXfXfXgXgXNXmXfXfXfXfXfXfXfXgXl.pX",
"r.l.Z.Z.Z.Z.Z.A.Z.Z.A.Z.C.B.N.dXkXDXAXCXhXZ.Z.Z.Z.Z.Z.Z.B.-.",
"%.c.N.N.N.N.c.c.B.V.x.c.B.gXNXlXHX4XtXqXhXV.N.N.N.N.N.V.B.$.",
"@.c.c.c.x.M.sXMXDXCXjXsXeX|.W.'.GX,XiXj.v.c.v.c.c.c.c.x.c.@.",
"@.k.k.k.h.M.lX2X>X2XZXI., + o `.7X*X6XaXk.k.k.k.v.k.k.g.v.@.",
"@.g.g.f.j.sXlX@X-X-X=X>   . . .XQ < 3XuXd.g.g.f.4.f.g.h.g.@.",
"@.s.s.3.n.$X`.5XI.Y.:X> O # - A : < 9XuX2.a.p.m.jXn.1.s.s.@.",
"@.1.1.1.n.{.9 4X[.U.;Xm y B F m 0 ^.9XiXu.uXSXcX6XyXs.2.1.@.",
"$.<.<.<.i.{.6 4XGXG.[. X^ ^ .XW.T._.8XSXrX4XFX%Xt.i.2.<.<.@.",
"@.>.>.>.i.{.6 4XvX7 (.:X3XGX8XGX4X@XT.4 4 4X8X<X0X;.>.>.,.@.",
"@.=.=.-.i.}.6 4XXX3 _.>X-X-X'.3X*X+ O   > 6X).).vXb.*.=.=.@.",
"@.&.&.&.u.}.5 7X/ 2 &X3X>X;X'.:XT.O X   & w.- 4 AXt.o.&.&.@.",
"R o.o.+.9.}.5 7XtX= S R.`.<X4 =XE.# % e r r 1 (.AXr...o.o.R ",
"@.X.X...9.}.6 4XIXV N 7 U.HX).(.OXC G G Z S I.-XAXr.| X.X.@.",
"R ..} | ] !.5 5XUXKX1X8 G.HX=X8 #XQ.~ ( E.).(.].cX0.{ ..} T ",
"$.{ { I [ oX7 3XUXLXAXI.8 HX{.7 '.Y./.*X`.).S n eXr.U { { @.",
"R I I I { q.|.%XiXe.w.D L.JXn 8 =XY.E.ZX#XM q w lX0.L I I R ",
"R L L L L L ] [ P P 6.D G.JXt 3 Y.U.R.8X~ @ @ V SX8.J L L R ",
"R P P P L P J J L P 5.D 8 PXXX$ * ; ~.9Xn @ t AXPX[ H P J R ",
"T H H H H H H H H H 5.D G.PXPX! w q : W N ) cXSXqX_ b H H T ",
"Y v v v v v v v v v 5.D I.PXUXPXAXeX! E 7.0X8.` K v v v v T ",
"$.z z z z z z z z l '  XU.KXLXxXqXy.8._ K f g j z z z z l Y ",
"9.x h h h h h h h h l ' XX6.' c s d d f f k k k k h h h j O.",
"$XL d f f f f f f f f f v f d d f f f f f f f f f f f a x e.",
"P.:.d p p p p p p p p p u p p p p p p p p p p p p p p i O.~.",
"H.(.O.x p i i i i i i i i i i i i i i i i i i i i p f  .Q.H.",
"D.H.~.e. .Y Y Y Y Y Y Y Y Y Y Y Y Y Y Y Y Y Y Y Y Y 0.^.H.D."
};
