/* XPM */
static char *FA_Pozos_N_R[] = {
/* columns rows colors chars-per-pixel */
"30 30 246 2 ",
"   c gray7",
".  c #1C1010",
"X  c #181616",
"o  c #12171B",
"O  c #151719",
"+  c #1F1E1E",
"@  c #232020",
"#  c #252525",
"$  c #2B2421",
"%  c #2A2928",
"&  c #3A3A39",
"*  c #3F3E3E",
"=  c #4C382D",
"-  c #7E5224",
";  c #624331",
":  c #7E553D",
">  c #1C4F4F",
",  c #265C5C",
"<  c #136F6F",
"1  c #2B6B6B",
"2  c #3D7373",
"3  c #414545",
"4  c #464645",
"5  c #504F4F",
"6  c #565250",
"7  c #5A5A5A",
"8  c #5E5C5B",
"9  c #5B5B5C",
"0  c #5E5E5E",
"q  c #725C44",
"w  c #776758",
"e  c #5F5F62",
"r  c #5F5F65",
"t  c #626262",
"y  c #646463",
"u  c #616167",
"i  c #636565",
"p  c #656565",
"a  c #686866",
"s  c #636369",
"d  c #696969",
"f  c #6B6B6C",
"g  c #6B6D6D",
"h  c #6D6D6D",
"j  c #766B65",
"k  c #706F6F",
"l  c #71716F",
"z  c #6D6E71",
"x  c #6F6F75",
"c  c #6F7275",
"v  c #717171",
"b  c #747472",
"n  c #727274",
"m  c #767676",
"M  c #7B7A77",
"N  c #7D7A77",
"B  c #76787B",
"V  c #7A7A7A",
"C  c #7E7D79",
"Z  c #7A7A7D",
"A  c #7D7D7D",
"S  c #A5613B",
"D  c #8F6C57",
"F  c #976A52",
"G  c #957352",
"H  c #A76946",
"J  c #BC7044",
"K  c #A37D59",
"L  c #8B7B6C",
"P  c #C77547",
"I  c #80807F",
"U  c #9D8679",
"Y  c #919176",
"T  c #BA8567",
"R  c #B8866B",
"E  c #B7946F",
"W  c #3333A9",
"Q  c #2222B5",
"!  c #3C3CBD",
"~  c #595990",
"^  c #64788B",
"/  c #667A8D",
"(  c #687B8F",
")  c #6A7C8F",
"_  c #6C7D8F",
"`  c #777782",
"'  c #797982",
"]  c #7B7E82",
"[  c #7F7F80",
"{  c #697D90",
"}  c #5555BA",
"|  c #6F6EA7",
" . c #0C0CE1",
".. c #1C1CE6",
"X. c #0101FB",
"o. c #0000FC",
"O. c #1212F2",
"+. c #2222FB",
"@. c #2A2AF8",
"#. c #3B3BF0",
"$. c #3E3EF3",
"%. c #6B6BCD",
"&. c #6969DD",
"*. c #4444E7",
"=. c #4949E1",
"-. c #4141ED",
";. c #5959EF",
":. c #5050F5",
">. c #6565E3",
",. c #6D6DE4",
"<. c #6161EE",
"1. c #7575F3",
"2. c #0B9E9E",
"3. c #0EADAD",
"4. c #07BCBC",
"5. c #7B8085",
"6. c #7D8185",
"7. c #728191",
"8. c #758593",
"9. c #778694",
"0. c #7A8693",
"q. c #7B8896",
"w. c #619191",
"e. c #51BFBF",
"r. c #69AEAE",
"t. c #7CA6A6",
"y. c #1FCBCB",
"u. c #23DEDE",
"i. c #04FBFB",
"p. c #0AF8F8",
"a. c #45E9E9",
"s. c #818181",
"d. c #828384",
"f. c #838485",
"g. c #858585",
"h. c #888887",
"j. c #828589",
"k. c #868788",
"l. c #84888E",
"z. c #898989",
"x. c #8C8B8A",
"c. c #8B8C8B",
"v. c #8A8A8C",
"b. c #8B8C8C",
"n. c #8E8E8D",
"m. c #968D8A",
"M. c #91918F",
"N. c #95958E",
"B. c #848595",
"V. c #878E94",
"C. c #8E8E92",
"Z. c #8A8B94",
"A. c #868F99",
"S. c #8D9292",
"D. c #87909B",
"F. c #84909C",
"G. c #839B9C",
"H. c #919191",
"J. c #959091",
"K. c #939595",
"L. c #969696",
"P. c #9A9694",
"I. c #999996",
"U. c #93959A",
"Y. c #93959C",
"T. c #969999",
"R. c #9A9A9A",
"E. c #9B9D9E",
"W. c #9E9E9E",
"Q. c #A89589",
"!. c #B39381",
"~. c #B29786",
"^. c #BA9F87",
"/. c #A59F9F",
"(. c #A0A09F",
"). c #9F9FA2",
"_. c #9A9FA4",
"`. c #9897A8",
"'. c #8282BA",
"]. c #8787B8",
"[. c #9E9FB9",
"{. c #86ADAD",
"}. c #9AA4A5",
"|. c #A1A1A1",
" X c #A4A3A2",
".X c #A5A6A2",
"XX c #A3A4A4",
"oX c #A5A5A5",
"OX c #A9A7A6",
"+X c #A5A8A8",
"@X c #A9A9A9",
"#X c #ACABAB",
"$X c #ACACAB",
"%X c #AEADAD",
"&X c #B0AFAF",
"*X c #BBB1A6",
"=X c #B1B1AF",
"-X c #A4A4B4",
";X c #AFAFB0",
":X c #AEBABA",
">X c #B2B2B1",
",X c #B4B3B2",
"<X c #B5B5B5",
"1X c #B8B8B7",
"2X c #B3B3B8",
"3X c #B6B9BB",
"4X c #BABABA",
"5X c #BCBCBB",
"6X c #BBBDBE",
"7X c #BEBEBE",
"8X c #C7B19A",
"9X c #C2BEBB",
"0X c #BFC2BF",
"qX c #9A9ADC",
"wX c #BBBBC0",
"eX c #B7B7C8",
"rX c #A6A6D7",
"tX c #B1B1DF",
"yX c #8383EC",
"uX c #9898E2",
"iX c #BABAE2",
"pX c #BBBBE5",
"aX c #BEC0C0",
"sX c #C1C1C0",
"dX c #C4C2C1",
"fX c #C2C4C5",
"gX c #C6C6C6",
"hX c #C8C8C7",
"jX c #C2C2CD",
"kX c #CACACA",
"lX c #CECECD",
"zX c #D5D0CB",
"xX c #C2C2D3",
"cX c #C6C6D6",
"vX c #C9C9D2",
"bX c #CDCDD0",
"nX c #C1C1D8",
"mX c #D0D0D0",
"MX c #D5D5D3",
"NX c #D3D3D4",
"BX c #D7D6D5",
"VX c #DBDBDF",
"CX c #E2E1DF",
"ZX c #D2D2E0",
"AX c #E4E3E2",
"SX c #E5E7E7",
/* pixels */
"/ ^ ) F.l.g 9 0 0 0 0 0 0 0 0 0 0 0 0 0 0 0 0 0 d 6.D._ ^ / ",
"^ 8.j.s.W.,XsX7X7X7X7X7X7X7X7X7X7X7X7X7X7X7X7XsX<XXXz.d.7.^ ",
"_ 6.R.5X<X<X<X<X<X<X<X<X<X<X<X<X<X,X,X,X<X<X<X<X<X<X4XoXZ _ ",
"A.s.<X%X>X>X>X>X>X>X>X>X>X>X>X>X%X>X4X<X>X>X>X>X>X>X%X<XH.V.",
"] R.%X$X%X%X%X%X%X%X%X%X#X#X@X>X1X7XsX5X=X%X%X%X%X%X$X$XoXg ",
"i XX@X@X@X@XoXoX@XoXXXoX@X,X4X,XkX<X%X@X;XoX@X@X@X@X@X@X#X0 ",
"8 oXoXoXXXoX%X4X5X5X<X%X@XL.b.W.gX@X,X XXXoXoXoXoXoXoXXX@X0 ",
"9 |.|.|.).oX>X>X$X,XsXs.5 & % T.4X X,X%X|.|.|.|. X|.|.|.XX0 ",
"9 W.W.W.W.%X>X|.|. XoX4   O o !.U 6 ,X<XR.W.W.R.R.E.W.W.|.9 ",
"9 R.R.R.(.W.R.<Xs.n.@X4 $ = ; H : 8 5X<XL.R.R.@X<XXXR.R.W.0 ",
"9 L.L.L.W.H.m <XI.d.OXD S J P F j n.4X=XL.<XsX5X,X%XR.L.R.9 ",
"9 K.H.H.E.H.v <XsX[ P.Q.T R ~.m.b.T.6XsX$X<X7X+XE.T.L.H.L.9 ",
"9 H.H.H.R.H.v <X9XM H.@X>XdX6XgX<X(.c.p d <X5X%X+XH.H.H.H.9 ",
"9 n.n.b.L.n.v <X^.w U.#XXXXXW.>X|.* # X 3 :XK.K.4XE.b.n.H.9 ",
"7 z.z.z.K.n.l 3XE q _.,X#XOXW.@Xx.@ + . , a.1 d fXE.g.z.b.9 ",
"9 g.g.f.H.n.k 3X8X- L k.R.&Xy oXS.> < 2.4.3.2 J.fXT.d.g.z.7 ",
"7 d.d.s.n.n.v <XCXK G N f.hXL.M.{.y.i.p.u.w.s..XaXY.[ s.f.9 ",
"9 s.s.A n.n.h <XSXzX*XC [ lX.XV }.t.e.r.G.L.M.`.eXU.A I s.7 ",
"7 A A V h.L.V >XAXmXsXs.A vX].Z W.n.m./.I.N.| =.qXI.B A A 9 ",
"7 V V V V H.R.oX,XL.I.A I nX*.M .Xn.S.0X[.} ..@.rXK.m V V 7 ",
"7 m m m m m z.z.b n n.A [ cX$.~ n.g.z.wX,.X.o.;.xXZ.n m m 7 ",
"7 n n v n n h v m n n.A [ NXyX .Q W Y 4X-.X.#.pXBXB.z b b 7 ",
"7 v v h v v v v v h b.A s.MXZX<.+.O.! &.:.1.tXjX-X' h h v 7 ",
"7 h h f h h h h h f n.A A NXCXVXiXuX>.%.'.).C.` x g h f h 7 ",
"9 d d d d d d d d p [ H.g.lXbX2XoXL.v.C l u t p a d d d d 7 ",
"c t p y p p p p p p p [ L.C.[ z s r e t y p p p p p y p y t ",
"A.t t t t t t t t t t t f y 0 t t y t y t t t t t t t t 0 5.",
"7.z 8 0 0 0 0 0 0 0 0 0 9 0 0 0 0 0 0 0 0 0 0 0 0 0 0 0 y 8.",
"( q.i 0 9 9 9 9 9 9 9 9 9 9 9 9 9 9 9 9 9 9 9 9 9 9 7 t 0.) ",
"/ / 8.6.9 7 7 7 7 7 7 7 7 7 7 7 7 7 7 7 7 7 7 7 7 7 B 9.{ ^ "
};
