/* XPM */
static char *FA_Pozos_FS[] = {
/* columns rows colors chars-per-pixel */
"30 30 256 2 ",
"   c #141214",
".  c #1A1313",
"X  c #191A1C",
"o  c #242323",
"O  c #2A2725",
"+  c #3C3E3E",
"@  c #4D382D",
"#  c #7E5124",
"$  c #634332",
"%  c #7E553D",
"&  c #1C4F4F",
"*  c #275B5B",
"=  c #3E7373",
"-  c #2C6A6A",
";  c #136F6F",
":  c #454545",
">  c #4D5555",
",  c #5A5855",
"<  c #725C44",
"1  c #776858",
"2  c #676767",
"3  c #6F7170",
"4  c #707171",
"5  c #7B7A77",
"6  c #7D7B7B",
"7  c #777878",
"8  c #766B65",
"9  c #9E2A27",
"0  c #9D2929",
"q  c #9E2E2B",
"w  c #9E2627",
"e  c #9D2F33",
"r  c #A12E2B",
"t  c #A12F2C",
"y  c #A52F2C",
"u  c #A12C29",
"i  c #AA2D2D",
"p  c #AC2E2C",
"a  c #A32A25",
"s  c #A5302D",
"d  c #A2302E",
"f  c #A9312E",
"g  c #AD322F",
"h  c #B2312E",
"j  c #A53431",
"k  c #AE3330",
"l  c #AA3330",
"z  c #A43B3B",
"x  c #A63938",
"c  c #B13431",
"v  c #B53532",
"b  c #B43330",
"n  c #BA3532",
"m  c #BE3532",
"M  c #B93734",
"N  c #BE3734",
"B  c #BE3835",
"V  c #BD3E3A",
"C  c #C5312E",
"Z  c #C13734",
"A  c #C53734",
"S  c #C93532",
"D  c #CA3532",
"F  c #C23A37",
"G  c #C53936",
"H  c #C93936",
"J  c #CD3B37",
"K  c #CC3C37",
"L  c #C63B38",
"P  c #C73C39",
"I  c #C13D3A",
"U  c #CB3B38",
"Y  c #CC3B39",
"T  c #CA3C39",
"R  c #CC3C38",
"E  c #C93F3C",
"W  c #A5613B",
"Q  c #C4413D",
"!  c #CC403E",
"~  c #A8464E",
"^  c #AE4240",
"/  c #B24B46",
"(  c #BB4946",
")  c #BD4946",
"_  c #B94D4A",
"`  c #BB4845",
"'  c #B6514F",
"]  c #BB524F",
"[  c #AB5556",
"{  c #BC5452",
"}  c #B75E5D",
"|  c #B75250",
" . c #936B54",
".. c #957252",
"X. c #BC6F44",
"o. c #BB635F",
"O. c #A37D58",
"+. c #A76946",
"@. c #AD5A65",
"#. c #B65F64",
"$. c #8B7B6C",
"%. c #817A7A",
"&. c #957F7E",
"*. c #997F7E",
"=. c #AC6B69",
"-. c #AD6867",
";. c #B56364",
":. c #B96363",
">. c #B76C6D",
",. c #BB6E6F",
"<. c #B46F71",
"1. c #A07E7D",
"2. c #BA7372",
"3. c #B47B7D",
"4. c #B57877",
"5. c #C74846",
"6. c #C4514F",
"7. c #CF524F",
"8. c #CE5351",
"9. c #C65C5A",
"0. c #C45957",
"q. c #C67547",
"w. c #C36A69",
"e. c #D16A68",
"r. c #C57372",
"t. c #CC7673",
"y. c #CD7F7D",
"u. c #C57E7C",
"i. c #919076",
"p. c #9D8579",
"a. c #B98669",
"s. c #B7946F",
"d. c #A4817F",
"f. c #3333A8",
"g. c #2322B4",
"h. c #3C3DBC",
"j. c #5A5A8F",
"k. c #62798C",
"l. c #657A8D",
"z. c #7F7F80",
"x. c #657D91",
"c. c #6E7E90",
"v. c #727F90",
"b. c #5555BA",
"n. c #785DBE",
"m. c #6F6EA5",
"M. c #0E0DE0",
"N. c #0000FB",
"B. c #1312F2",
"V. c #1C1BE4",
"C. c #2727F9",
"Z. c #3D3DF1",
"A. c #6966DE",
"S. c #4544E6",
"D. c #5959EF",
"F. c #4E53F8",
"G. c #6767E9",
"H. c #7379F6",
"J. c #817F8C",
"K. c #976CA5",
"L. c #0C9F9F",
"P. c #0FADAD",
"I. c #08BBBB",
"U. c #7F8081",
"Y. c #6F8093",
"T. c #7A8392",
"R. c #609191",
"E. c #51BFBF",
"W. c #69ADAD",
"Q. c #7CA6A6",
"!. c #1FCBCB",
"~. c #24DDDD",
"^. c #08F9F9",
"/. c #44E8E8",
"(. c #828181",
"). c #848485",
"_. c #8E8E8E",
"`. c #8B8B8B",
"'. c #868788",
"]. c #968D8A",
"[. c #9B8483",
"{. c #93928F",
"}. c #8B8692",
"|. c #838593",
" X c #998E98",
".X c #8D9191",
"XX c #839B9C",
"oX c #939494",
"OX c #999795",
"+X c #979999",
"@X c #9F9E9E",
"#X c #9A9B9B",
"$X c #969999",
"%X c #AA8687",
"&X c #BE8281",
"*X c #B88C8B",
"=X c #B39583",
"-X c #BA9F86",
";X c #A38C94",
":X c #BB8C9B",
">X c #A39F9F",
",X c #AE9796",
"<X c #B99D9D",
"1X c #B19696",
"2X c #A89589",
"3X c #A0A09E",
"4X c #999CA6",
"5X c #9E9FB8",
"6X c #8787B8",
"7X c #86ADAC",
"8X c #9AA4A5",
"9X c #A2A1A1",
"0X c #A4A5A3",
"qX c #A9A5A5",
"wX c #AAABAB",
"eX c #B4AFAE",
"rX c #B7ABAB",
"tX c #BBB2A7",
"yX c #AFB9BA",
"uX c #B2B2B2",
"iX c #B6B5B5",
"pX c #B5B3B3",
"aX c #B7B7BA",
"sX c #B3B9B9",
"dX c #BBBBBB",
"fX c #BCB0BF",
"gX c #C88C8A",
"hX c #C2918F",
"jX c #CB9392",
"kX c #C59998",
"lX c #C7AF9A",
"zX c #C3AEAD",
"xX c #C8A7A8",
"cX c #C3BCBC",
"vX c #BFC0BD",
"bX c #9F93D5",
"nX c #BBBAC0",
"mX c #ABA0D0",
"MX c #B3AEDB",
"NX c #8483EB",
"BX c #9A96E1",
"VX c #B9BCE5",
"CX c #CAB9C7",
"ZX c #BCC4C4",
"AX c #C4C3C3",
"SX c #CDCCCC",
"DX c #C8C8C7",
"FX c #D4C9CB",
"GX c #D4D1CD",
"HX c #C3C3D7",
"JX c #C9C9D2",
"KX c #D4D2D2",
"LX c #D6D1D8",
"PX c #E1DEDD",
"IX c #D9DCE0",
"UX c #E4E4E3",
/* pixels */
"l.k.c. X3.{ ) ) ) ) ) ) ) ) ) ) ) ) ) ) ) ) ) ) { <.;Xv.k.l.",
"k.T.2.5.T U J J J J J J J J J J J J R R J J J J K T 5.w.J.k.",
"Y.,.H J R R R R R R R R R R R R R J D D R R R R R R J H 9.v.",
" X5.Y T U U T T T T U R T T R H H ! 7.7.U Y U U U Y T T 5.%X",
">.E U T T T T T U Y T T H S S 9.t.gXzXkX5.H T T T T T T U { ",
"] T T T T U S D E E C S ! 8.e.<XDXsX*X2.8.H T T T T T T T ) ",
") T T T H 5.w.y.jXjXt.r.3.1.&.@XAXqXu.Q H T T T T T T T U ) ",
") P L T G 6.<XyXwXsXcX(.> + O +XaX0XeXr.L P P T E P L L L ) ",
") L L G Q r.<X>X9X9X0X:       =Xp., pXhXI P L A C A L L L ) ",
") F F A 6.%X#XpX(._.wX: O @ $ +.% , dXgXB V ` 9.y.0.F F F ) ",
") F F Z 6.*.7 iXOX).qX .W X.q. .8 .XdXgX( hXxXzXeX&XQ Z F ) ",
") B B N { *.3 iXAXz.OX2Xa.a.=X].`.$XdXxX*XiXZX,X;._ I N B ) ",
") B B m { *.4 iXcX5 oXwXuXAXdXDXiX3X`.2 2 iXdXrX4.V m B N ) ",
") M M m ] *.4 iX-X1 $XwX0X9X@XuX9X+ o . : yXoXoXrXo.n B n ) ",
") M M n ] *.3 aXs.< 4XuXwXqX@XwX`.o X . * /.- 2 cX:.b M M ) ",
") v v b ' *.4 aXlX# $.'.#XeX2 0X.X& ; L.I.P.= oXcX:.h v v ) ",
") v v h ' *.4 iXPXO...5 ).DXoX{.7X!.^.^.~.R.(.0XcX#.h v b ) ",
") c c h ' [.3 pXUXGXtX6 z.SX0X6 8XQ.E.W.XXoX{.4XfX;.p c c ) ",
") c c h / d.6 uXUXFXcX(.6 JX6X7 @X_.].>X#X{.m.S.bXo.p c c ) ",
") k k g c } %X1XjX>.4.6 U.HXS.5 0X_..XvX5Xb.V.C.mX:.i k g ) ",
") g g g g g | ' f p -.6 U.HXZ.j._.).'.nXG.N.N.D.CX@.i g g ( ",
") g g f l l p p l l =.%.z.KXNXM.g.f.i.dXS.N.Z.VXKX@.i g f ) ",
"( f f f f f l l f s =.%.U.KXLXG.C.B.h.A.F.H.MXCX:X~ y f f ) ",
") s s s s s s s s y =.6 U.KXUXIXVXBXA.n.K.&X;.~ z s s s y ( ",
"( s y s s s s s s r [ [.'.SXFXxXhX2.;./ x 0 w a r s s s r ) ",
";.j r t t t t t t r d [ %X<.[ z e 0 0 9 u t d d t t t t r ] ",
";X^ r t t t t t t t r t x t 0 u u t t t t t t t t t t r j 4.",
"T.} r q q q q q q q q q 9 q q q q q q q q q q q q q q 0 _ |.",
"l.}.| x q q q q q q q q q q q q q q q q q q q q q q j _ }.x.",
"l.l.T.3._ ( ( ) ) ) ) ) ) ) ) ) ) ) ) ) ) ) ) ( ( ( >.|.x.l."
};
