/* XPM */
static char *FA_PozoFecal_N_R[] = {
/* columns rows colors chars-per-pixel */
"30 30 215 2 ",
"   c #131313",
".  c #171716",
"X  c #11181B",
"o  c #161A1C",
"O  c #1A1818",
"+  c #1E1D1D",
"@  c #39281E",
"#  c #232222",
"$  c #252423",
"%  c #272727",
"&  c #2C2623",
"*  c #2E2D2C",
"=  c #362E28",
"-  c #373737",
";  c #3D3531",
":  c #742F00",
">  c #753200",
",  c #7B3500",
"<  c #7A3A00",
"1  c #7A3D01",
"2  c #7E3F02",
"3  c #7C3C06",
"4  c #703F0D",
"5  c #604130",
"6  c #664430",
"7  c #7A4E33",
"8  c #695038",
"9  c #494949",
"0  c #594E47",
"q  c #4E5052",
"w  c #565656",
"e  c #5A5A5A",
"r  c #5C5C5B",
"t  c #5B5B5C",
"y  c #5E5E5E",
"u  c #635242",
"i  c #705B45",
"p  c #665D53",
"a  c #6E6053",
"s  c #6D6255",
"d  c #626262",
"f  c #646363",
"g  c #646463",
"h  c #636565",
"j  c #656565",
"k  c #6A6765",
"l  c #6A6865",
"z  c #6E6A67",
"x  c #676868",
"c  c #696969",
"v  c #6C6B6B",
"b  c #6A6B6C",
"n  c #6B6D6D",
"m  c #6D6E6E",
"M  c #706F6F",
"N  c #73716F",
"B  c #6C6E70",
"V  c #6F7275",
"C  c #727272",
"Z  c #767573",
"A  c #767676",
"S  c #797673",
"D  c #767877",
"F  c #75787B",
"G  c #797979",
"H  c #7E7C7A",
"J  c #7B7B7C",
"K  c #7B7C7C",
"L  c #7D7D7D",
"P  c #824305",
"I  c #82450A",
"U  c #85480F",
"Y  c #895019",
"T  c #855423",
"R  c #8D5520",
"E  c #8D5828",
"W  c #915B25",
"Q  c #935F2D",
"!  c #8C583A",
"~  c #966534",
"^  c #986534",
"/  c #A4623A",
"(  c #896745",
")  c #8E6C4B",
"_  c #8A755F",
"`  c #997A5B",
"'  c #AB6841",
"]  c #B46D44",
"[  c #B86F46",
"{  c #A3794E",
"}  c #A37D57",
"|  c #A57F57",
" . c #817E7C",
".. c #C57447",
"X. c #CB7849",
"o. c #D37D4B",
"O. c #D57D4B",
"+. c #C37C53",
"@. c #CD7E51",
"#. c #81807E",
"$. c #84827E",
"%. c #9B897F",
"&. c #A68668",
"*. c #A5886B",
"=. c #AD8C6D",
"-. c #B18A64",
";. c #AB8975",
":. c #AC8A76",
">. c #AF8F7D",
",. c #B78F78",
"<. c #B59777",
"1. c #C4815C",
"2. c #D69B7A",
"3. c #64788B",
"4. c #667A8D",
"5. c #687B8F",
"6. c #6A7C8F",
"7. c #6C7D8F",
"8. c #7B7E82",
"9. c #697D90",
"0. c #7B8085",
"q. c #7D8185",
"w. c #728191",
"e. c #758593",
"r. c #778694",
"t. c #7A8693",
"y. c #7B8896",
"u. c #818182",
"i. c #868480",
"p. c #818284",
"a. c #858685",
"s. c #888683",
"d. c #828589",
"f. c #85888B",
"g. c #82888C",
"h. c #84888E",
"j. c #898A89",
"k. c #8C8A89",
"l. c #8E8E8E",
"z. c #918F8C",
"x. c #998E89",
"c. c #878E94",
"v. c #868F99",
"b. c #8F9090",
"n. c #87909B",
"m. c #84909C",
"M. c #929292",
"N. c #959391",
"B. c #949493",
"V. c #909397",
"C. c #939495",
"Z. c #959595",
"A. c #999999",
"S. c #9C9B9A",
"D. c #9E9E9E",
"F. c #A19F9E",
"G. c #BCA48C",
"H. c #BBA591",
"J. c #B5A89B",
"K. c #9D9EA1",
"L. c #9BA0A5",
"P. c #9EA2A5",
"I. c #A1A1A1",
"U. c #A3A4A5",
"Y. c #A6A5A5",
"T. c #AAAAAA",
"R. c #ACABA9",
"E. c #ABADAD",
"W. c #ADADAD",
"Q. c #B1B1B1",
"!. c #B3B5B7",
"~. c #B5B5B5",
"^. c #BBB6B2",
"/. c #BAB9B7",
"(. c #BABABA",
"). c #BFBBB8",
"_. c #BFBDB9",
"`. c #BEBEBE",
"'. c #C3AD98",
"]. c #C3AF9C",
"[. c #C5B29F",
"{. c #C6B9AA",
"}. c #C0BBB7",
"|. c #CABDB1",
" X c #CFC0B3",
".X c #CBC1B7",
"XX c #C2C1BF",
"oX c #AFB9C2",
"OX c #BABEC2",
"+X c #C1C1C1",
"@X c #C4C3C2",
"#X c #C3C6C7",
"$X c #C5C5C5",
"%X c #C9C9CA",
"&X c #CECECD",
"*X c #D5CBC1",
"=X c #D9D4CE",
"-X c #D4D3D3",
";X c #D5D4D3",
":X c #D6D5D5",
">X c #D8D7D7",
",X c #D5D6D8",
"<X c #DDDDDD",
"1X c #E0DAD4",
"2X c #E1DDDA",
"3X c #E1DFDF",
"4X c #E0E0DE",
"5X c #DDE0E2",
"6X c #DFE2E5",
"7X c #E1E1E1",
"8X c #E7E6E6",
"9X c #E2E5E8",
"0X c #E6EAED",
"qX c #E8E9EA",
"wX c #EAECEE",
/* pixels */
"4.3.6.m.h.n r y y y y y y y y y y y y y y y y r c q.n.7.3.4.",
"3.e.d.u.D.~.+X`.`.`.`.`.`.`.`.`.`.`.`.`.`.`.`.+X~.U.j.p.w.3.",
"7.q.A.(.~.~.~.~.~.~.~.~.~.~.~.~.~.~.~.~.~.~.~.Q.~.~.(.Y.J 7.",
"v.u.~.W.Q.Q.Q.Q.Q.Q.Q.Q.Q.Q.Q.Q.Q.Q.Q.Q.Q.E.W.~.Q.Q.W.~.M.c.",
"8.A.W.E.W.W.W.W.W.W.W.W.W.W.W.W.W.W.W.Q.~.+X$X&X&X~.E.E.Y.b ",
"h U.T.T.T.T.T.T.T.T.Y.T.T.T.T.T.Y.U.T.~.&X;X$X~.~.~.T.Y.R.y ",
"r Y.Y.U.Y.Y.U.U.I.D.R.Y.I.I.I.Y.W.(.Q.U.:XI.I.I.M.U.Y.U.T.y ",
"r I.I.I.I.I.T.~.@X%X&X&X~.Q.(.+XQ.l.j.D.>XE.W._.Y.D.I.I.U.y ",
"t D.D.D.D.D.Y.U.R.(.I.Q.:XQ.A w 9 % - I.&XW.Q.Q.Q.I.D.D.I.r ",
"r A.A.S.A.A.W.Q.A.A.A.k.:XZ +   . O * Q.`.k C.W.(.Y.Z.A.D.y ",
"r Z.Z.Z.A.U.Q.~.W.R.Q.B.:Xf + $ # X = 2.,.@ q $XXXS.Z.Z.A.r ",
"t B.B.M.S.D.a.I.W.R.y A <Xj o o & 5 6 [ / ; K &X$XB.B.B.Z.t ",
"r M.M.l.A.S.C L Y.%Xm A <Xj 7 ' ] X...! 0 G A.%X@XM.M.M.B.r ",
"t l.l.k.Z.S.A j R.7XI.M !.>.+.O.o.@.1.%.l.B.B.%XXXl.l.l.M.r ",
"e j.j.j.M.A.G j W.7XU.c A.F.N.:.;.x.B.B.Z.C.B.%XXXk.j.j.l.t ",
"t a.a.p.l.Z.G g E.7XI.c A.D.M.M.M.Z.M.M.C.M.( '.#Xs.a.a.j.e ",
"e p.p.u.j.B.A f E.1X` p K.D.l.K Y.`.K.C.z.( 2 ].#Xi.u.u.a.t ",
"t u.u.L a.M.G g E.2XW u L.Y.a.u.Q.+X)._ T 2 I [.$X$.L #.u.e ",
"e L L G a.M.G j W.2XQ 8 g.P.V.A W.XX=., P , ~ =X_.#.J L L t ",
"e G G A u.M.G g T.qX} 1 i s a x Y._.| 3 < U H.9X^. .D G J e ",
"e A A C L l.G j T.wX.XW > 1 < z oX+X~ : E G.0X8X}.H A A A e ",
"e C C C K l.G j E.8X6X{.| R Y 4 ) &.^ <.*X-X)./.N.Z C C Z e ",
"e C C m G l.Z j R.8X;X6X5X|. X-.{ *.J.OXY.z.S N c m C m C e ",
"e m m v m M.l.y E.qX7X3X4X,XQ.R.D.f.u.z g c b n m m m v m e ",
"t c c c j A I.G T.;XQ.S.a.H l k g d g c b c c c c c c c c e ",
"V d j g j d C M.b.A v g y y h h j j j j j j j j j j g j g d ",
"v.d d d d d y c j r d d g f d d d d d d d d d d d d d d y 0.",
"w.B r y y y y y y d y y y y y y y y y y y y y y y y y y h e.",
"5.y.h y t r t r r r r r r r r r r r r r r r r r t r e d t.6.",
"4.4.e.q.t e e e e e e e e e e e e e e e e e e e e e F r.9.3."
};
