/* XPM */
static char *FA_Pozos_N[] = {
/* columns rows colors chars-per-pixel */
"30 30 242 2 ",
"   c #111111",
".  c #1C1010",
"X  c #181616",
"o  c #12161A",
"O  c #141618",
"+  c #1F1E1E",
"@  c #232020",
"#  c #252525",
"$  c #2B2421",
"%  c #2A2928",
"&  c #3C3B3A",
"*  c #3F3E3E",
"=  c #4D382D",
"-  c #7E5224",
";  c #624332",
":  c #7E553D",
">  c #1C4F4F",
",  c #265C5C",
"<  c #136F6F",
"1  c #2B6B6B",
"2  c #3D7373",
"3  c #414545",
"4  c #464645",
"5  c #515151",
"6  c #565250",
"7  c #5A5A5A",
"8  c #5D5C5B",
"9  c #5A5A5D",
"0  c #5D5D5D",
"q  c #725C44",
"w  c #60605F",
"e  c #776758",
"r  c #5D5D63",
"t  c #5F6061",
"y  c #616161",
"u  c #636463",
"i  c #636365",
"p  c #646364",
"a  c #636464",
"s  c #666666",
"d  c #6A6A66",
"f  c #666669",
"g  c #64646C",
"h  c #676869",
"j  c #6A6A6A",
"k  c #6A6B6C",
"l  c #6D6D6E",
"z  c #766B65",
"x  c #70706F",
"c  c #6B6E70",
"v  c #6F6F79",
"b  c #6F7274",
"n  c #717171",
"m  c #747373",
"M  c #777771",
"N  c #757575",
"B  c #7B7A77",
"V  c #7D7A77",
"C  c #70707A",
"Z  c #76797A",
"A  c #777B7E",
"S  c #797A7A",
"D  c #7D7C7B",
"F  c #797A7D",
"G  c #7E7E7E",
"H  c #A5613B",
"J  c #8F6C57",
"K  c #976A52",
"L  c #957252",
"P  c #A76946",
"I  c #BB7044",
"U  c #A37D59",
"Y  c #8B7B6C",
"T  c #C77547",
"R  c #80807F",
"E  c #9D8679",
"W  c #909076",
"Q  c #BA8567",
"!  c #B8866A",
"~  c #B7946F",
"^  c #3333A9",
"/  c #2222B4",
"(  c #3C3CBC",
")  c #595990",
"_  c #65788B",
"`  c #66798D",
"'  c #687B8F",
"]  c #6A7D8F",
"[  c #797C80",
"{  c #7E7F81",
"}  c #7B7C8C",
"|  c #697D90",
" . c #6E7F91",
".. c #5555BA",
"X. c #6F6FA6",
"o. c #7F7FB7",
"O. c #0C0CE1",
"+. c #1C1CE5",
"@. c #0101FB",
"#. c #0000FC",
"$. c #1212F2",
"%. c #2A2AF7",
"&. c #2222F9",
"*. c #3B3BF0",
"=. c #3E3EF2",
"-. c #6868CA",
";. c #6969DD",
":. c #4444E7",
">. c #4949E0",
",. c #4141ED",
"<. c #5959EF",
"1. c #5151F5",
"2. c #6464E1",
"3. c #6D6DE5",
"4. c #6161EE",
"5. c #7676F3",
"6. c #0B9E9E",
"7. c #0EADAD",
"8. c #07BCBC",
"9. c #7B8084",
"0. c #7C8187",
"q. c #7E808A",
"w. c #7F8489",
"e. c #6E8090",
"r. c #728291",
"t. c #748393",
"y. c #768593",
"u. c #7A8693",
"i. c #788694",
"p. c #7B8896",
"a. c #619191",
"s. c #69AEAE",
"d. c #7CA6A6",
"f. c #51C0BF",
"g. c #1FCBCB",
"h. c #23DDDD",
"j. c #0AF7F7",
"k. c #04FBFB",
"l. c #45E9E9",
"z. c #818080",
"x. c #838384",
"c. c #838485",
"v. c #858586",
"b. c #8B8C87",
"n. c #86868A",
"m. c #85878E",
"M. c #878A8A",
"N. c #87898C",
"B. c #898989",
"V. c #8C8B8A",
"C. c #8C8C8B",
"Z. c #8A8B8D",
"A. c #8D8D8D",
"S. c #968B8B",
"D. c #968E89",
"F. c #91908F",
"G. c #95958E",
"H. c #858C92",
"J. c #868F99",
"K. c #8D9191",
"L. c #86909B",
"P. c #839B9C",
"I. c #919191",
"U. c #959292",
"Y. c #929797",
"T. c #959595",
"R. c #9A9694",
"E. c #9A9A97",
"W. c #92969B",
"Q. c #969999",
"!. c #9A9999",
"~. c #9A9A9C",
"^. c #9E9E9E",
"/. c #A89589",
"(. c #B39381",
"). c #B29786",
"_. c #BA9F86",
"`. c #A49E9F",
"'. c #A1A09F",
"]. c #9A9FA4",
"[. c #9898A9",
"{. c #8787B8",
"}. c #9E9FB9",
"|. c #86ADAD",
" X c #9AA4A5",
".X c #A2A2A1",
"XX c #A4A2A1",
"oX c #A5A6A2",
"OX c #A2A4A4",
"+X c #A5A5A5",
"@X c #A9A7A6",
"#X c #AAA9A7",
"$X c #A9AAAA",
"%X c #ACABAB",
"&X c #ACACAB",
"*X c #ADADAD",
"=X c #B0AFAF",
"-X c #BCB1A6",
";X c #A0A0B0",
":X c #AEBABA",
">X c #B2B2B2",
",X c #B0B0B6",
"<X c #B6B6B6",
"1X c #B9B9B7",
"2X c #B6B8BA",
"3X c #B9BABA",
"4X c #BBBDBE",
"5X c #BEBEBE",
"6X c #C7B19A",
"7X c #C2BEBB",
"8X c #BEC1BF",
"9X c #9998DB",
"0X c #B6B5C6",
"qX c #BBBBC0",
"wX c #A5A6D4",
"eX c #B0B0DE",
"rX c #8383EC",
"tX c #9797E2",
"yX c #BABAE3",
"uX c #BBBBE6",
"iX c #C1C2C2",
"pX c #C4C2C1",
"aX c #C4C4C3",
"sX c #C6C7C7",
"dX c #C8C8C7",
"fX c #C0C0CB",
"gX c #CACACA",
"hX c #CECECE",
"jX c #D5D0CC",
"kX c #C0C0D1",
"lX c #C6C6D6",
"zX c #C9C9D2",
"xX c #CCCCD0",
"cX c #C1C1D8",
"vX c #D5D5D3",
"bX c #D3D3D4",
"nX c #D5D5D5",
"mX c #D1D1DF",
"MX c #DBDBDF",
"NX c #E2E1DF",
"BX c #E4E3E2",
"VX c #E5E7E7",
/* pixels */
"` ` ] L.w.f 7 7 7 7 7 7 7 7 7 7 7 7 7 7 7 7 7 7 i [ L. .` ` ",
"_ t.{ k n D z.G z.z.z.z.z.z.z.z.z.z.z.z.z.z.G z.D m l Z r._ ",
" .F n z.G G G G G G G G G G G G G G S D G G G G G G z.N n e.",
"J.l z.G G G G G G G G G G G G D D z.C.B.G G G G G G G z.n H.",
"A m G G G G G z.G G z.G D S S A.^.$X3X*Xv.G G G G G G G D f ",
"y D G G G G D S G G S S z.A.!.%XgX<X'.U.C.D G G G G G G G 9 ",
"7 G G G G c.T.OX&X&X^.!.!.A.v.^.aX+X^.G G G G G G G G G G 7 ",
"7 G G G S B.$X<X*X<X5Xx.5 & % Q.3XXX>X!.D G G G G G G D G 7 ",
"7 D D S G !.$X.X.X.X+X4   O o (.E 6 >X#XS D D S m S D S D 7 ",
"7 S S S v.T.!.<Xx.A.$X4 $ = ; P : 8 3X$XN S G I.OXB.S S D 7 ",
"7 S S N v.C.N <XE.x.@XJ H I T K z K.3XXXD $X3X<X>X^.G N S 7 ",
"7 N N m c.C.n <XiX{ R./.Q ! ).D.Z.Q.4X1X.X<XiX.XM.G S m N 7 ",
"7 N N m x.Z.n <X7XB I.$X>XpX4XsX<X'.C.s j <X4X%XQ.Z m m N 7 ",
"7 m m n z.B.n <X_.e W.%XOXOX^.>X.X* # X 3 :XY.T.<XB.n m m 7 ",
"7 n n l z.B.n 2X~ q ].>X%X@X^.$XV.@ + . , l.1 j iXZ.l n n 7 ",
"7 l l l G B.x 2X6X- Y n.~.=Xa +XK.> < 6.8.7.2 U.iXN.k l n 7 ",
"7 l l k G B.n <XNXU L V c.dXT.F.|.g.k.j.h.a.z.oX4Xm.j l l 7 ",
"7 k k j G B.n <XVXjX-XD { hXoXD  Xd.f.s.P.T.F.[.0Xn.h k k 7 ",
"7 k k j S I.S >XBXhX5Xz.G zX{.F ^.A.S.`.E.G.X.>.9Xb.f k k 7 ",
"7 j j s j v.T..X*XV.F.D z.cX:.B oXA.K.8X}...+.%.wXM.i j j 7 ",
"7 s s s s s G D s p v.D R lX=.) A.v.B.qX3.@.#.<.kXq.i s s 7 ",
"7 s s a s s y y s s B.D { bXrXO./ ^ W 3X,.@.*.uXnX} y s s 7 ",
"7 a a u a a s s a u v.G z.vXmX4.&.$.( ;.1.5.eXfX;Xv y a a 7 ",
"7 y y y y y y y y y v.D G bXNXMXyXtX2.-.o.~.n.C g y y y y 7 ",
"9 y y y y y y y y 0 S I.v.hXxX,X+XI.v.M d 9 7 8 w y y y y 7 ",
"b 0 0 0 0 0 0 0 0 0 y D T.Z.F f r 9 9 9 0 w y y y 0 0 0 0 t ",
"J.t 0 0 0 0 0 0 0 0 0 0 j 0 7 8 0 0 0 0 0 0 0 0 0 0 0 0 8 9.",
"r.c 7 8 8 8 8 8 8 8 8 7 7 7 8 8 8 8 8 8 8 8 8 8 8 7 8 7 u y.",
"' p.a 7 7 7 7 7 7 7 7 7 7 7 7 7 7 7 7 7 7 7 7 7 7 7 7 y u.] ",
"` ` t.0.0 7 7 7 7 7 7 7 7 7 7 7 7 7 7 7 7 7 7 7 7 7 Z i.| _ "
};
