/* XPM */
static char *FA_PozosPluviales_A[] = {
/* columns rows colors chars-per-pixel */
"30 30 256 2 ",
"   c #1D0F11",
".  c #1A1313",
"X  c #171719",
"o  c #1C2F2F",
"O  c #242323",
"+  c #282B2A",
"@  c #3C3C39",
"#  c #3E3E40",
"$  c #1C4F50",
"%  c #1B5858",
"&  c #265C5D",
"*  c #136F6F",
"=  c #167575",
"-  c #3C7374",
";  c #2A6B6B",
":  c #434647",
">  c #55524D",
",  c #4D5857",
"<  c #586160",
"1  c #5A7B7B",
"2  c #676768",
"3  c #71706F",
"4  c #706F71",
"5  c #717170",
"6  c #7B7C7D",
"7  c #797879",
"8  c #807F7F",
"9  c #80807E",
"0  c #909077",
"q  c #3333A9",
"w  c #2222B5",
"e  c #3D3CBC",
"r  c #265C9E",
"t  c #2C5E9A",
"y  c #295E9D",
"u  c #2D5F9C",
"i  c #295C9C",
"p  c #2E619E",
"a  c #31639F",
"s  c #2A5DA0",
"d  c #2F63A1",
"f  c #2D63A5",
"g  c #2D64A5",
"h  c #2C64AB",
"j  c #3064A3",
"k  c #3165A5",
"l  c #3063A0",
"z  c #3468A5",
"x  c #3A6AA3",
"c  c #3167A8",
"v  c #3765A9",
"b  c #3168AA",
"n  c #3269AD",
"m  c #346BAC",
"M  c #2F6AB1",
"N  c #326BB0",
"B  c #326CB2",
"V  c #346DB2",
"C  c #346FB5",
"Z  c #2F71BF",
"A  c #3671B6",
"S  c #3672B9",
"D  c #3673BC",
"F  c #3976BE",
"G  c #3975BB",
"H  c #3F7ABF",
"J  c #595993",
"K  c #65778A",
"L  c #66788B",
"P  c #677A8C",
"I  c #697B8C",
"U  c #687A8B",
"Y  c #797C81",
"T  c #777782",
"R  c #6C7E91",
"E  c #4444A1",
"W  c #5555BA",
"Q  c #4271AD",
"!  c #4C79A8",
"~  c #557BAB",
"^  c #497DB7",
"/  c #4E7DB6",
"(  c #497AB4",
")  c #477CBA",
"_  c #447ABB",
"`  c #487CBA",
"'  c #487BBA",
"]  c #4671B0",
"[  c #517DB4",
"{  c #587CB8",
"}  c #6D6EA9",
"|  c #2424D8",
" . c #0D0CE1",
".. c #0000FD",
"X. c #1212F3",
"o. c #1B1CE6",
"O. c #2726FA",
"+. c #3D3DF2",
"@. c #3475C3",
"#. c #3977C0",
"$. c #3778C6",
"%. c #3A78C2",
"&. c #3C7AC3",
"*. c #3A7AC6",
"=. c #3C7BC6",
"-. c #3D7CC6",
";. c #3E7DC3",
":. c #3A7BC9",
">. c #3B7CCA",
",. c #3E7CC8",
"<. c #3578C9",
"1. c #5151D8",
"2. c #497FC1",
"3. c #447EC2",
"4. c #5D69DA",
"5. c #6D7FCF",
"6. c #6B69DC",
"7. c #4242EC",
"8. c #4949E0",
"9. c #5655F2",
"0. c #5858EC",
"q. c #6061EF",
"w. c #6769E6",
"e. c #6F6FFF",
"r. c #7976F1",
"t. c #0B9E9E",
"y. c #199594",
"u. c #0EADAD",
"i. c #07BCBC",
"p. c #2AAFAF",
"a. c #36A4A4",
"s. c #6F8194",
"d. c #7F8790",
"f. c #7F8A97",
"g. c #72879D",
"h. c #7F8B99",
"j. c #72869B",
"k. c #619191",
"l. c #4E80BA",
"z. c #5C83B6",
"x. c #5283BC",
"c. c #5D86BA",
"v. c #5E89BB",
"b. c #5884B7",
"n. c #6B88AC",
"m. c #6887AB",
"M. c #778CA3",
"N. c #7A8FA2",
"B. c #638AB7",
"V. c #618BBA",
"C. c #698CBA",
"Z. c #698AB2",
"A. c #788FB2",
"S. c #6B92BD",
"D. c #7293B7",
"F. c #7797BA",
"G. c #67ACAC",
"H. c #78B2B2",
"J. c #7CA6A6",
"K. c #51C0BF",
"L. c #4A83C7",
"P. c #5286C2",
"I. c #5C8BC4",
"U. c #5289CB",
"Y. c #638FC2",
"T. c #6B95C6",
"R. c #7399C4",
"E. c #769BC6",
"W. c #7FA2CB",
"Q. c #07CACB",
"!. c #1FCBCB",
"~. c #23DDDE",
"^. c #37D7D7",
"/. c #3DD3D3",
"(. c #00E7E7",
"). c #05F7F8",
"_. c #68C3C3",
"`. c #45E9E9",
"'. c #828282",
"]. c #848584",
"[. c #878888",
"{. c #8E8E8E",
"}. c #8B8A8B",
"|. c #888783",
" X c #938D8D",
".X c #93938F",
"XX c #9A9A8B",
"oX c #808A97",
"OX c #918F90",
"+X c #8C9192",
"@X c #84989D",
"#X c #949494",
"$X c #9A9A97",
"%X c #939A9B",
"&X c #9D9D9D",
"*X c #9C9596",
"=X c #A49E9F",
"-X c #9EA09F",
";X c #A4A48F",
":X c #A6A79F",
">X c #8996A5",
",X c #8394A9",
"<X c #9898A8",
"1X c #9E9EA5",
"2X c #8299B3",
"3X c #889FB7",
"4X c #819CBF",
"5X c #9E9FB9",
"6X c #8787B9",
"7X c #85ADAE",
"8X c #99A3AA",
"9X c #8FA3BC",
"0X c #9FAAB7",
"qX c #98A5B4",
"wX c #A4A3A3",
"eX c #A4A9A9",
"rX c #ABAAAA",
"tX c #A4A7AA",
"yX c #B8B4AF",
"uX c #ACADB0",
"iX c #AEB3B6",
"pX c #AFB8BC",
"aX c #B5B6B6",
"sX c #B2B3B3",
"dX c #BAB6B5",
"fX c #BABBBC",
"gX c #B8B9B5",
"hX c #C0BBBA",
"jX c #BEC1BF",
"kX c #C5C1BC",
"lX c #8CA3C9",
"zX c #8AA6C7",
"xX c #92ACCA",
"cX c #94AAC3",
"vX c #AAB6C9",
"bX c #BCBEC1",
"nX c #B9BCC6",
"mX c #A7A7D0",
"MX c #A0A5DB",
"NX c #8484ED",
"BX c #9498E3",
"VX c #9A9AF3",
"CX c #AEB1E2",
"ZX c #BCBBE3",
"AX c #BEC3C6",
"SX c #BAC2CA",
"DX c #BAC0D7",
"FX c #C1C3C3",
"GX c #CBCBCC",
"HX c #C8C5C5",
"JX c #CACCD3",
"KX c #C6C7D8",
"LX c #D2D3D4",
"PX c #D7D9DC",
"IX c #D7D8E2",
"UX c #E4E4E2",
/* pixels */
"P L R ,XF.x.) ` ` ` ` ` ` ` ` ` ` ` ` ` ` ` ` ) x.S.2Xs.L P ",
"K g.T.2.&.>.:.:.:.:.:.:.:.:.:.>.>.>.>.>.>.:.:.:.:.=.3.Y.g.K ",
"s.S.%.:.>.:.:.:.:.:.:.:.:.:.:.>.>.:.<.<.:.:.:.:.:.>.:.$.I.s.",
"2X2.:.*.:.:.:.:.:.:.:.:.:.:.:.$.*.,.U.L.*.:.:.:.:.:.*.:.3.F.",
"S.&.*.*.*.*.=.-.*.*.-.=.*.@.@.I.E.zXvXcXL.*.*.*.*.*.*.*.*.x.",
"l.=.*.=.=.*.<.@.-.&.@.@.,.U.T.0XGXdX3XD.U.*.=.=.=.=.=.=.*.` ",
"` *.*.*.*.L.T.W.xXxXE.R.F.N.d.-XFXtXE.;.%.*.*.*.*.*.*.*.*.` ",
"` %.%.&.#.P.0XyXrXdXbX'.> @ + *XdXwXiXR.%.%.%.&.;.&.%.%.%.` ",
"` %.%.#._ R.0X-XwXwXtX: . .   _.G., sXcXF &.%.@.Z @.%.%.#.` ",
"` F F #.x.>X$XsX'.{.rX: o % = Q.y.< fXzXD F _ I.W.P.F #.#.) ",
"` F F D x.f.7 aX%X].eXa.Q.(.).p.1  XfXzX' cXvXvXiX4XH D F ` ",
"` G G D x.h.3 aXFX9 %XH.^./._.@X}.$XfXvX9XaXkXqXv.` F D D ) ",
") S S S x.h.5 aXnX7 #XrXiXAXhXHXaX1X}.2 2 aXfXuXF.G S S S ` ",
"` S A A x.f.5 aXNXJ XXrXwXwX&XsXwX# O . : pX#X#XpXv.C S A ` ",
"` A A C l.f.5 gXe.E ;XsXrXeX&XrX}.O X . & `.; 2 AXV.B A C ` ",
"` V V B [ f.4 gXVX| } |.&XuX2 wX+X$ * t.i.u.- #XSXv.M V V ` ",
"` V V N / h.5 aXIX0.1.T ].HX#XOX7X!.).).~.k.'.:XnXc.N V B ' ",
"' N n n [ oX3 aXUXKXmXY 9 GXwX6 8XJ.K.G.@X#X.X<XvXc.h N n ) ",
"` n n n ( ,X7 sXUXJXbX'.6 JX6X7 &X{. X=X$X.X} 8.BXB.h n n ` ",
"` n n b m z.>X8XxXC.A.6 9 KX7.7 wX{.+XjX5XW o.O.MXB.h n b ` ",
"` b b b c b [ [ c f m.Y 9 KX+.J {.].[.bXw.....0.DXz.h b c ` ",
"` c c k c c g f z k n.Y 6 LXNX .w q 0 fX7...+.ZXLX{ f c k ` ",
"` k k j k k k k k g m.Y 9 LXIXq.O.X.e 6.9.r.CXDXlXQ f k f ` ",
"` j j d j j j j j d n.6 8 LXUXPXZXBXw.4.5.4XB.] v d j j d ` ",
"^ d d d d d d d d p ~ @X|.GXJXvX9XD.B.! x s r y d d d d p ' ",
"V.k p p p p p p p p d ~ ,XZ.~ x s r r y y p l d p p p p p l.",
"2XQ u p p p p p p p p p x p i y p p p p p p p p p p p p z S.",
"s.c.p t u u u u u u u t i u u u u u u u u u u u u u u i / g.",
"U N./ x t t t t t t t t t t t t t t t t t t t t t t a ( M.I ",
"L U g.D.^ ` ` ` ` ` ` ` ` ` ` ` ` ` ` ` ` ` ` ` ` ^ C.M.I L "
};
