/* XPM */
static char *FA_Pozos_SC[] = {
/* columns rows colors chars-per-pixel */
"30 30 256 2 ",
"   c #14150F",
".  c #191717",
"X  c #242223",
"o  c #2B2626",
"O  c #3F3E3E",
"+  c #4D392D",
"@  c #7F5324",
"#  c #634432",
"$  c #7E573E",
"%  c #363540",
"&  c #1C4F4F",
"*  c #285D5B",
"=  c #2D6C6A",
"-  c #3F7472",
";  c #136F6F",
":  c #454645",
">  c #5B5856",
",  c #494859",
"<  c #725C44",
"1  c #786857",
"2  c #686867",
"3  c #6F6E71",
"4  c #706F73",
"5  c #7C7A77",
"6  c #76767B",
"7  c gray50",
"8  c #7B7B7B",
"9  c #776C65",
"0  c #A5613B",
"q  c #936C54",
"w  c #957352",
"e  c #BC7143",
"r  c #A67450",
"t  c #8B7B6B",
"y  c #C67647",
"u  c #FECB00",
"i  c #FFCD00",
"p  c #FFCF05",
"a  c #FBCC04",
"s  c #F6CC0C",
"d  c #FACD0B",
"f  c #FED100",
"g  c #FED500",
"h  c #FBD101",
"j  c #FED900",
"k  c #FEDE00",
"l  c #FADC00",
"z  c #FFD70D",
"x  c #F6CD16",
"c  c #F6CE1A",
"v  c #FDCE11",
"b  c #FBDD1E",
"n  c #F6D917",
"m  c #FEE100",
"M  c #FEE600",
"N  c #FCE102",
"B  c #FEE900",
"V  c #FEED00",
"C  c #F7EE0B",
"Z  c #FEF100",
"A  c #FEF500",
"S  c #F9F204",
"D  c #FEFA01",
"F  c #FEFE02",
"G  c #FFFD06",
"H  c #FBF50A",
"J  c #FEFE0A",
"K  c #FFFF0C",
"L  c #FBFA0F",
"P  c #F7F50C",
"I  c #ECE31C",
"U  c #FEFD13",
"Y  c #FFFE1E",
"T  c #FEFD1B",
"R  c #F9F419",
"E  c #EFC828",
"W  c #F3CD20",
"Q  c #EFD225",
"!  c #F3DE26",
"~  c #F4D329",
"^  c #EBCB36",
"/  c #ECDC3D",
"(  c #EED037",
")  c #F1D237",
"_  c #EFE426",
"`  c #F0E325",
"'  c #F2EB25",
"]  c #FBE327",
"[  c #FEFE21",
"{  c #FEFE2E",
"}  c #FBFB2A",
"|  c #FFF128",
" . c #EAE03A",
".. c #F3E838",
"X. c #FFF436",
"o. c #FEFE31",
"O. c #FFFF3B",
"+. c #FBF538",
"@. c #858277",
"#. c #828177",
"$. c #83827F",
"%. c #959576",
"&. c #9D8678",
"*. c #B98668",
"=. c #B7946F",
"-. c #ADAC6F",
";. c #A5A275",
":. c #A2A176",
">. c #A4A078",
",. c #B3AD7D",
"<. c #B8B379",
"1. c #C9BC6D",
"2. c #CDBE74",
"3. c #DCCA4D",
"4. c #DCC34F",
"5. c #DEDA40",
"6. c #D8C457",
"7. c #D9D65B",
"8. c #E4CB45",
"9. c #E3C949",
"0. c #EADC41",
"q. c #E8D446",
"w. c #F1D645",
"e. c #EFD657",
"r. c #E5CD58",
"t. c #E9E84A",
"y. c #FEFE40",
"u. c #FCFE45",
"i. c #F7F748",
"p. c #FDFB4A",
"a. c #E9E754",
"s. c #FFFF57",
"d. c #FEFC50",
"f. c #FEFF58",
"g. c #D2C462",
"h. c #DEDB64",
"j. c #CBC97A",
"k. c #DDDA7B",
"l. c #CBCA67",
"z. c #E7DA6A",
"x. c #E3D978",
"c. c #E8E763",
"v. c #E0E079",
"b. c #2324B4",
"n. c #3C3CBC",
"m. c #3534A7",
"M. c #595A8F",
"N. c #61768E",
"B. c #66798D",
"V. c #6F7F8D",
"C. c #7E7E81",
"Z. c #617793",
"A. c #627893",
"S. c #5555B9",
"D. c #7070A5",
"F. c #0D0DE0",
"G. c #1D1DE4",
"H. c #0000FA",
"J. c #1313F2",
"K. c #2827F9",
"L. c #3E3EF1",
"P. c #726ED9",
"I. c #4645E6",
"U. c #5959EF",
"Y. c #4A4BFA",
"T. c #6667E6",
"R. c #6E70F8",
"E. c #0C9E9E",
"W. c #0FADAC",
"Q. c #08BCBB",
"!. c #74828E",
"~. c #79858A",
"^. c #619190",
"/. c #51BFBE",
"(. c #69AEAD",
"). c #7CA6A6",
"_. c #1FCBCB",
"`. c #24DEDD",
"'. c #08FAF9",
"]. c #45E9E8",
"[. c #848483",
"{. c #838489",
"}. c #8E8F8E",
"|. c #8B8B8A",
" X c #828C8C",
".X c #968D89",
"XX c #8A9287",
"oX c #93928E",
"OX c #969A86",
"+X c #948F92",
"@X c #8A9594",
"#X c #949595",
"$X c #9A9A97",
"%X c #9F9E9E",
"&X c #9A9A9B",
"*X c #969897",
"=X c #B39583",
"-X c #A59F9E",
";X c #A89588",
":X c #ADAC86",
">X c #A1A48C",
",X c #BBA085",
"<X c #A1A19E",
"1X c #B9B28F",
"2X c #999BA7",
"3X c #8B86B5",
"4X c #9E9FB8",
"5X c #86ADAD",
"6X c #9AA4A4",
"7X c #A3A4A2",
"8X c #A9A7A5",
"9X c #AAAAAA",
"0X c #ACACA2",
"qX c #B0AFAF",
"wX c #B8B5A8",
"eX c #ACACB8",
"rX c #AFBBB9",
"tX c #B2B1B1",
"yX c #B7B6B2",
"uX c #B6B6B4",
"iX c #B5B5B8",
"pX c #B7B9B9",
"aX c #BBBCBB",
"sX c #C0B98C",
"dX c #C7B199",
"fX c #C2BEBA",
"gX c #DCCD89",
"hX c #C3C296",
"jX c #DCD49C",
"kX c #D9D895",
"lX c #C7C68C",
"zX c #EBDE80",
"xX c #E0E081",
"cX c #C9C8A8",
"vX c #C1C1BD",
"bX c #CBCBB6",
"nX c #DBD4B9",
"mX c #9D9BDF",
"MX c #B6B5CA",
"NX c #A6A3D1",
"BX c #B8B6D9",
"VX c #8383EB",
"CX c #B7B8E6",
"ZX c #C4C3C3",
"AX c #CCCBC7",
"SX c #CDCDCC",
"DX c #D2CFCC",
"FX c #DBD9C6",
"GX c #C3C3D6",
"HX c #C9C9D2",
"JX c #D4D4D1",
"KX c #D3D2DE",
"LX c #E0DDCE",
"PX c #E1E1DE",
"IX c #D7D8E2",
"UX c #E3E4E4",
/* pixels */
"B.N.V.>X6.W p p p p p p p p p p p p p p p p p p c 9.:X!.N.B.",
"N. X9.] X.p.f.s.s.s.s.s.s.s.s.s.s.f.f.f.s.s.s.s.d.+.] ) XXN.",
"!.8.| u.y.y.y.y.y.y.y.y.y.y.y.y.y.O.O.O.y.y.y.y.y.y.u.X.~ ~.",
":Xb o.{ { { o.o.o.o.{ o.o.o.o.{ } o.p.u.{ o.{ { { { { o.] 1.",
"8.R Y Y Y Y [ [ Y Y [ [ T T U t.c.xXcXkX+.T Y Y Y Y Y Y T c ",
"d K K J K J F F U L F F U } i.hXAXiXj.7.} G K K K K J J K i ",
"i F F F F R t.c.v.k.a.a.l.-.%.%XZX0Xh.P F F F F F F F F F i ",
"i D D D D R lXeX9XeXvX[., % o *XpX7XwXa.D D D D G D D D F i ",
"i D D D H t.hX<X<X7X8X:   . . =X&.> tXk.S D D D D D D D D i ",
"i A A D ' <.&XyX[.}.9X: o + # r $ > aXx.S S C ..a.' A A D i ",
"i A A A ' :.6 uX$X[.8Xq 0 e y q 9 }.aXz.I k.jXcXwXh.H A A i ",
"i Z Z Z ` ;.3 yXZX7 $X;X*.*.=X.X|.*XaXkXj.iXMX1X5.I S Z A i ",
"i Z Z Z _ ;.4 yXfX5 #X9XtXZXaXZXuX<X|.2 2 uXaXwX7.C Z Z Z i ",
"i V V V _ ;.3 uX,X1 *X9X7X7X%XtX7XO X . : rX#X#XcX .V V Z i ",
"i V V V ` ;.3 pX=.< 2XtX9X8X%X9X|.X .   * ].= 2 bX0.B V V i ",
"i B B B ` ;.3 pXdX@ t {.&XqX2 7X@X& ; E.Q.W.- +XbX/ B B B i ",
"i M M B ! ;.4 uXPXr w 5 [.AX#XoX5X_.'.'.`.^.$.7XbX0.M B B i ",
"i M M M ! >.3 yXUXDXwX8 C.SX7X8 6X)./.(.@X#XoX2XvX0.M M M u ",
"i m m M b <.6 tXUXFXbX$.7 HX3X6 %X|..X-X$XoXD.I.NX .N M M i ",
"i m m m N / ,.sXzXq.g.#.C.GXI.5 8X}.}.vX4XS.G.K.MX0.l m m i ",
"i m k k k k ] ! l k 3.@.C.GXL.M.}.[.|.aXT.H.H.U.AXq.l m m i ",
"i k k k k k k k k k 3.@.C.JXVXF.b.m.%.aXI.H.L.CXLX8.k k k i ",
"u j j j j j j j j j 3.@.C.JXKXT.K.J.n.T.Y.R.BXnXgXQ j j j i ",
"u j j g j j j g g g 3.@.7 JXPXIXCXmXP.3X1Xz.w.Q x g j g j u ",
"a g g g g g g g g g ) ,.{.DXFXjXx.e.w.b z h g g j g g g g u ",
"^ f g f g g g g f g h ( 2.r.( x s a h f f g g g g g f f f s ",
"<.d f f f f f f f f f f z f f f f f f f f f f f f f f f f 4.",
"!.E i i i f f f f f f f i f f f f f f f f f f f f i i i v XX",
"Z.OXx a i i i i i i i i i i i i i i i i i i i i i i u d OXA.",
"B.Z. X6.a u u i i i i i i i i i i i i i i i i u u u 8.XXZ.B."
};
