/* XPM */
static char *FA_Pozos_A_R[] = {
/* columns rows colors chars-per-pixel */
"30 30 256 2 ",
"   c #1A1312",
".  c #13181C",
"X  c #181819",
"o  c #242322",
"O  c #2B2625",
"+  c #3D3C3A",
"@  c #4D382E",
"#  c #7E5225",
"$  c #624433",
"%  c #7E553F",
"&  c #1C4F4F",
"*  c #265C5D",
"=  c #3D7374",
"-  c #2B6B6C",
";  c #136F6F",
":  c #444546",
">  c #504E4A",
",  c #5B5755",
"<  c #725C45",
"1  c #776758",
"2  c #676768",
"3  c #706F6F",
"4  c #766B65",
"5  c #70706F",
"6  c #737272",
"7  c #7B7A77",
"8  c #7C7C7D",
"9  c #A5613C",
"0  c #8F6C57",
"q  c #957352",
"w  c #976A52",
"e  c #BB7045",
"r  c #A37D59",
"t  c #A76947",
"y  c #807F7F",
"u  c #8B7B6C",
"i  c #C77548",
"p  c #80807F",
"a  c #909177",
"s  c #9D8679",
"d  c #B98669",
"f  c #B79470",
"g  c #2222B5",
"h  c #3C3CBC",
"j  c #3333A9",
"k  c #2F619B",
"l  c #30619B",
"z  c #31629D",
"x  c #34649E",
"c  c #33649E",
"v  c #3667A1",
"b  c #3566A2",
"n  c #3867A3",
"m  c #3868A1",
"M  c #3D6BA4",
"N  c #3E6CA5",
"B  c #3B6BA4",
"V  c #3B6AA7",
"C  c #595990",
"Z  c #64778A",
"A  c #65788B",
"S  c #677A8C",
"D  c #697B8C",
"F  c #7D7E80",
"G  c #6B7E92",
"H  c #5555BA",
"J  c #416FA7",
"K  c #416FA8",
"L  c #4573AB",
"P  c #4574AC",
"I  c #4976AE",
"U  c #4A74A9",
"Y  c #4571A7",
"T  c #517BAF",
"R  c #4E7BB1",
"E  c #4B7BB5",
"W  c #497DB9",
"Q  c #4C7FBB",
"!  c #4B7EBB",
"~  c #517EB4",
"^  c #557EB7",
"/  c #6E6EA7",
"(  c #0C0CE1",
")  c #0000FD",
"_  c #1212F3",
"`  c #1B1CE6",
"'  c #2626FA",
"]  c #3D3DF2",
"[  c #666BDC",
"{  c #4242EC",
"}  c #4949E0",
"|  c #5655F2",
" . c #6164EC",
".. c #6D6DE5",
"X. c #7875F0",
"o. c #0B9E9E",
"O. c #0EADAD",
"+. c #07BCBC",
"@. c #6D8095",
"#. c #72879D",
"$. c #72869B",
"%. c #619191",
"&. c #5B83AE",
"*. c #4D80BC",
"=. c #4C80BB",
"-. c #5582B7",
";. c #5082BD",
":. c #5582B9",
">. c #5A86BA",
",. c #5E8ABE",
"<. c #5B88BF",
"1. c #6283AF",
"2. c #768CA3",
"3. c #798EA4",
"4. c #7790AF",
"5. c #6A8EBC",
"6. c #6589B8",
"7. c #6C91BD",
"8. c #7992B2",
"9. c #7394BC",
"0. c #7D9BBD",
"q. c #7790B0",
"w. c #51BFBF",
"e. c #69AEAE",
"r. c #7CA6A6",
"t. c #628CC1",
"y. c #648EC3",
"u. c #6690C4",
"i. c #6C95C7",
"p. c #6E97CB",
"a. c #6A95C9",
"s. c #6F98CB",
"d. c #7599C2",
"f. c #7E9EC7",
"g. c #7A9BC4",
"h. c #729BCE",
"j. c #749CCD",
"k. c #7196C0",
"l. c #7484D1",
"z. c #769FD1",
"x. c #7EA2CC",
"c. c #7FA0C7",
"v. c #7EA6D6",
"b. c #7BA2D3",
"n. c #7BA3D5",
"m. c #1FCBCB",
"M. c #23DEDE",
"N. c #07FAFA",
"B. c #45E9E9",
"V. c #838383",
"C. c #8E8E8E",
"Z. c #8B8B8B",
"A. c #868788",
"S. c #968D8A",
"D. c #92928F",
"F. c #898E97",
"G. c #88909A",
"H. c #8C939C",
"J. c #899595",
"K. c #959696",
"L. c #939393",
"P. c #9C9C9C",
"I. c #989898",
"U. c #B39583",
"Y. c #BA9F87",
"T. c #A49F9F",
"R. c #A89589",
"E. c #A3A39F",
"W. c #8997A8",
"Q. c #919AA6",
"!. c #9D9FA2",
"~. c #9897A8",
"^. c #829AB3",
"/. c #819BBA",
"(. c #8A9BB1",
"). c #9E9FB9",
"_. c #8787B9",
"`. c #86ADAD",
"'. c #99A3A9",
"]. c #9EAAB8",
"[. c #A2A2A2",
"{. c #A4A5A4",
"}. c #A9A7A6",
"|. c #A9AAAA",
" X c #ADABAB",
".X c #B0AFAF",
"XX c #B7B1A9",
"oX c #A5ADB7",
"OX c #ABB5BD",
"+X c #B2B2B1",
"@X c #B6B6B6",
"#X c #B3B4B3",
"$X c #B1B5BB",
"%X c #B6B9BC",
"&X c #BABBBC",
"*X c #C7B19B",
"=X c #C2BEBB",
"-X c #BEC2BF",
";X c #84A3CA",
":X c #89A5C8",
">X c #98ABC7",
",X c #9FB3CA",
"<X c #81A7D4",
"1X c #82A8D6",
"2X c #85ABDA",
"3X c #84ABDB",
"4X c #89AFDC",
"5X c #8CADD3",
"6X c #89B0DE",
"7X c #8EB0DA",
"8X c #93B3D7",
"9X c #92B4DD",
"0X c #9AB7DB",
"qX c #9FBAD9",
"wX c #A6B6CB",
"eX c #ABBBCE",
"rX c #B7BBC5",
"tX c #A1B7D1",
"yX c #A5BCDA",
"uX c #A3A8DC",
"iX c #8383ED",
"pX c #9799E3",
"aX c #8DB3E1",
"sX c #92B6E2",
"dX c #95B7E0",
"fX c #96B9E3",
"gX c #9ABBE3",
"hX c #9FBDE2",
"jX c #9CBCE3",
"kX c #A1BFE3",
"lX c #A2BFE4",
"zX c #AFB1E2",
"xX c #BCBAE3",
"cX c #BDC1C4",
"vX c #BCC4CD",
"bX c #B6C0CB",
"nX c #AAC0DB",
"mX c #ADC0D7",
"MX c #B7C2D5",
"NX c #A4C1E4",
"BX c #A9C3E3",
"VX c #ABC4E3",
"CX c #ABC4E3",
"ZX c #B6CBE5",
"AX c #B5CCE5",
"SX c #B0C7E5",
"DX c #C4C3C3",
"FX c #CCCDCD",
"GX c #C4C7C8",
"HX c #D5D0CB",
"JX c #C6C7D6",
"KX c #CED0D4",
"LX c #D5D5D7",
"PX c #E2E1DF",
"IX c #D1D2E0",
"UX c #E4E5E5",
/* pixels */
"S A G ^.0.,.*.;.;.;.;.;.;.;.;.;.;.;.;.;.;.;.;.*.<.d.^.G A S ",
"Z #.g.j.8XBXZXZXZXZXZXZXZXZXZXZXZXAXAXAXZXZXZXZXCX0Xx.d.#.Z ",
"G d.4XSXCXVXBXBXBXBXBXBXBXBXBXBXBXBXNXBXBXBXBXBXVXCXSX0Xi.@.",
"^.j.BXhXkXkXlXkXNXkXlXNXkXNXNXhXhXkXCXBXkXNXkXlXlXkXhXNX<X/.",
"k.2XgXgXgXgXjXjXgXjXjXgXgXfXdXyXmXMXvXbXqXgXgXgXgXgXgXgXdX,.",
":.aXsXsXsXsXsXaXdX9XaXaXfXhXBX$XFX@XOX,XjXsXsXsXsXsXsXsXfX*.",
"! aXaXaXaX9XtXmXMXMXnXtX].Q.F.P.DX|.eX7X6XaXaXaXaXaXaXaXsX*.",
"*.4X4X6X4X9XOX.X X+XcXV.> + O I.%X[.@XtX4X6X6X6X6X6X4X4X6X*.",
"=.2X2X3X2XqXOX!.[.{.}.:   . . U.s , +XeX1X3X2X3Xv.3X3X2X3X=.",
"Q 1X<Xv.5X'.I.@XV.C.|.: O @ $ t % , &XeXb.v.<X8XyX5Xv.v.1XQ ",
"=.b.b.n.5XH.7 @XI.V.}.0 9 e i w 4 C.&XwXc.eXvXrX$X,X<Xb.v.*.",
"Q b.z.z.;XH.5 @XDXF K.R.d d U.S.Z.K.&XvXoX@X=XoX:Xx.b.z.b.=.",
"! j.h.h.;XH.6 @X=X7 L.|.+XDX&XGX@XE.Z.2 2 @X&X.X>Xj.h.h.j.! ",
"Q s.p.p.f.G.6 @XY.1 K. X{.[.P.+X[.+ o   : OXK.K.%X;Xp.p.h.! ",
"Q i.i.a.g.G.3 %Xf < !.+X X}.P.|.Z.o X   * B.- 2 GX;Xu.a.a.Q ",
"! u.u.y.d.G.3 %X*X# u A.P..X2 {.J.& ; o.+.O.= L.vXf.t.u.u.! ",
"W t.t.t.9.G.6 @XPXr q 7 V.GXK.D.`.m.N.N.M.%.V.E.cXf.,.t.y.! ",
"! ,.,.,.9.G.3 #XUXHXXX8 F FX{.8 '.r.w.e.J.K.D.~.eXg.>.,.6.! ",
"W >.>.:.5.W.7 +XUXKXcXV.8 JX_.8 P.C.S.T.I.D./ } pX0.:.>.>.! ",
"W :.:.-.:.9.Q.].wX/.(.8 p JX{ 7 {.C.C.-X).H ` ' uX0.E :.-.W ",
"W ~ ~ ~ ~ ~ 7.5.T R 8.F y JX] C C.A.A.rX..) ) | MX9.E ~ ~ W ",
"W R R R R R I R R R 8.F 8 KXiX( g j a &X{ ) ] xXLX5.I R R W ",
"W I I I I I I I I I 4.F y LXIX .' _ h [ | X.zXMX>X^ P I I W ",
"W L L L L L L L L L q.8 8 LXPXLXxXpX .[ l.:X9.^ I L L L L W ",
"W K J J J J J J J N 1.W.V.FXKXwX>X0.5.&.U n n M J K K J J W ",
"6.N B M M M M M M M N 1.(.8.1.Y M b v v m M N N N M M M B ;.",
"^.P m m m m m m m m v m Y m x v v m m m m m m m m m m m N 9.",
"@.>.c c x x x x x x x c l c x x x x x x x x x x x x x z ~ #.",
"D 3.^ B z l l l l l l l l l l l l l l l l l l l k l b E 3.D ",
"A D #.9.E W W W W W W W W W W W W W W W W W W W W W 5.2.D A "
};
