/* XPM */
static char *FA_PozoFecal_NR[] = {
/* columns rows colors chars-per-pixel */
"30 30 256 2 ",
"   c #14191C",
".  c #1C1A1A",
"X  c #161413",
"o  c #201E1E",
"O  c #39281E",
"+  c #2A2725",
"@  c #282625",
"#  c #362E28",
"$  c #3A3634",
"%  c #762F00",
"&  c #7B3500",
"*  c #7B3C02",
"=  c #743906",
"-  c #634230",
";  c #7A4E33",
":  c #695039",
">  c #464A4D",
",  c #5A4E47",
"<  c #4F5050",
"1  c #5F5F5F",
"2  c #50585E",
"3  c #635243",
"4  c #705B45",
"5  c #635D57",
"6  c #6E6154",
"7  c #666463",
"8  c #676565",
"9  c #656362",
"0  c #696765",
"q  c #676868",
"w  c #6A6A6B",
"e  c #6F6A66",
"r  c #706F6F",
"t  c #6E7276",
"y  c #747576",
"u  c #74777B",
"i  c #74787C",
"p  c #73787C",
"a  c #7B7B7B",
"s  c #803E00",
"d  c #84450A",
"f  c #8D521C",
"g  c #8A5625",
"h  c #925C28",
"j  c #8D583A",
"k  c #966534",
"l  c #A4623A",
"z  c #CE6E1E",
"x  c #CE6D1B",
"c  c #D36B14",
"v  c #D16F1D",
"b  c #D26E19",
"n  c #CF701F",
"m  c #D2701F",
"M  c #D5721E",
"N  c #D67019",
"B  c #DA751F",
"V  c #DC751D",
"C  c #D97016",
"Z  c #E37A1F",
"A  c #E0771E",
"S  c #CF762A",
"D  c #D27120",
"F  c #D57320",
"G  c #D67521",
"H  c #D47526",
"J  c #D97621",
"K  c #DB7622",
"L  c #DE7922",
"P  c #DB7925",
"I  c #DD7F2D",
"U  c #D97A2B",
"Y  c #D77C2D",
"T  c #D77D31",
"R  c #E17A21",
"E  c #E37C22",
"W  c #E57D22",
"Q  c #E67F24",
"!  c #E97E21",
"~  c #E27F2C",
"^  c #8A6744",
"/  c #8E6C4B",
"(  c #8A755F",
")  c #997A5B",
"_  c #AB6841",
"`  c #B66E45",
"'  c #A5794E",
"]  c #A47E57",
"[  c #C87648",
"{  c #D47D4B",
"}  c #C87D52",
"|  c #FE891D",
" . c #DF802D",
".. c #CE813B",
"X. c #DA8238",
"o. c #E98125",
"O. c #EE8425",
"+. c #ED8223",
"@. c #E4822D",
"#. c #EA862F",
"$. c #ED882F",
"%. c #F18626",
"&. c #F38522",
"*. c #F68927",
"=. c #FE8A21",
"-. c #FE8E26",
";. c #FB8B24",
":. c #F68A28",
">. c #F88B28",
",. c #FA8D29",
"<. c #FE8F29",
"1. c #FB8F2E",
"2. c #F28728",
"3. c #FE902A",
"4. c #FF902C",
"5. c #FF9125",
"6. c #E68632",
"7. c #EB8B35",
"8. c #F38C30",
"9. c #F38F3E",
"0. c #F58F3E",
"q. c #F88F31",
"w. c #EB903E",
"e. c #F59137",
"r. c #FB9235",
"t. c #F3903E",
"y. c #F5913E",
"u. c #F9943A",
"i. c #B5895E",
"p. c #9B897F",
"a. c #AC8B6A",
"s. c #A3866A",
"d. c #B98F6A",
"f. c #BD916B",
"g. c #AD8B78",
"h. c #B78F78",
"j. c #B19679",
"k. c #D98944",
"l. c #C4815C",
"z. c #D68F53",
"x. c #D99356",
"c. c #DF985F",
"v. c #DB965A",
"b. c #EC8E42",
"n. c #EB9247",
"m. c #EE954B",
"M. c #F29343",
"N. c #F39845",
"B. c #F69C4D",
"V. c #E59A59",
"C. c #F29C53",
"Z. c #EEA35F",
"A. c #F3A056",
"S. c #C2946C",
"D. c #C9976A",
"F. c #C7996E",
"G. c #DC9D6A",
"H. c #C89870",
"J. c #D39D79",
"K. c #D49E73",
"L. c #E09E68",
"P. c #DFA16B",
"I. c #D7A276",
"U. c #F6AE6B",
"Y. c #E4AA74",
"T. c #F3AE70",
"R. c #F0B279",
"E. c #61778D",
"W. c #65798C",
"Q. c #627A90",
"!. c #6F7F90",
"~. c #7C848C",
"^. c #748291",
"/. c #788592",
"(. c #838383",
"). c #8C8C8B",
"_. c #82888C",
"`. c #958F8B",
"'. c #98928F",
"]. c #828A92",
"[. c #8A8E93",
"{. c #929292",
"}. c #939495",
"|. c #959595",
" X c #949393",
".X c #9A9997",
"XX c #9B9C9B",
"oX c #B09D8C",
"OX c #AB9F95",
"+X c #A19D9C",
"@X c #BCA58E",
"#X c #A2A19F",
"$X c #BFAF9D",
"%X c #B7A190",
"&X c #9D9EA0",
"*X c #9DA2A5",
"=X c #9FA6AB",
"-X c #A1A1A1",
";X c #A7A7A6",
":X c #A6A4A3",
">X c #ABAAAA",
",X c #ADADAD",
"<X c #ABACAC",
"1X c #A3A9AD",
"2X c #B3ACA5",
"3X c #BAB1A9",
"4X c #B3B1AF",
"5X c #ACB1B6",
"6X c #B2B2B2",
"7X c #B3B5B6",
"8X c #BDBDBB",
"9X c #B7B7B7",
"0X c #C9A688",
"qX c #D3AB88",
"wX c #C1AE9D",
"eX c #C8AD93",
"rX c #D3B49B",
"tX c #DAB99B",
"yX c #E1B287",
"uX c #F0B887",
"iX c #F2BF90",
"pX c #C6B5A5",
"aX c #DABDA4",
"sX c #D7BDA4",
"dX c #C9BDB1",
"fX c #DDC1A7",
"gX c #DDC5AE",
"hX c #CAC1B7",
"jX c #C1C1BF",
"kX c #DBCBBD",
"lX c #E3C4A9",
"zX c #E1C8B1",
"xX c #AFB9C1",
"cX c #BFC7CE",
"vX c #C1C3C3",
"bX c #C5CBCD",
"nX c #CCCCCB",
"mX c #D2CBC3",
"MX c #DFD6CE",
"NX c #CACDD1",
"BX c #CED6DF",
"VX c #D6D5D4",
"CX c #DAD7D4",
"ZX c #DDDDDD",
"AX c #E1DDDA",
"SX c #E0DAD4",
"DX c #E7D6C8",
"FX c #DFE0DF",
"GX c #E1E1DF",
"HX c #DCDFE1",
"JX c #DDE1E3",
"KX c #DFE6EB",
"LX c #E3E3E3",
"PX c #E9EBEC",
"IX c #E8E8E8",
"UX c #E2EAF0",
/* pixels */
"W.E.!.+XI.m.y.y.y.y.y.y.y.y.y.y.y.y.y.y.y.y.y.y.m.G.OX^.E.W.",
"E.].P.u.<.-.-.-.-.-.-.-.-.-.-.-.-.-.-.-.-.-.-.-.<.<.e.V.).E.",
"^.L.-.-.-.-.-.-.-.-.-.-.-.-.-.-.-.-.-.<.<.3.-.=.=.-.-.-.C./.",
"OXy.-.<.<.<.<.<.<.<.<.<.<.<.<.<.<.<.<.-.=.| =.u.r.-.-.<.r.0X",
"G.1.<.<.<.<.<.<.<.<.<.<.<.<.<.<.<.<.<.r.B.U.R.zXgXB.-.<.<.m.",
"M.<.<.<.<.<.<.<.4.4.-.-.4.4.<.-.=.| e.qXkXBXcX9X7XY.4.<.<.t.",
"y.<.<.<.<.<.-.=.=.;.N.e.=.| >.r.B.T.qX=XVX-XoXx...w.3.<.-.y.",
"y.,.,.,.,.-.N.Y.uXiXzXzXT.Z.yXtXwX).).+XCX,X2XR.5.=.,.,.;.y.",
"y.>.>.>.>.;.V.:X<X8X*X5XCX3Xu 2 > @ $ -XnX,X6X4XY.1.>.>.>.y.",
"y.:.:.:.*.*.A.eXXX.X.X).VXy o X X . # 6X8X0  X5XpXN.&.:.*.y.",
"y.*.*.*.*.V.wX3X,X>X6X|.VX9 . @ @   # J.h.O < vXsX7.&.:.*.y.",
"t.%.%.&.q.F.~.-X,X>X1 y ZX8     + - - ` l $ a NXfX6.&.2.%.t.",
"y.%.%.&.8.S.t a ;XnXw y ZX8 ; _ ` [ [ j , a .XbXfX6.&.%.%.y.",
"y.O.O.+.8.S.u 8 >XLX-Xr 7Xg.} { { } l.p.). X XbXaX6.&.O.+.y.",
"y.+.o.! 8.S.i 8 ,XLX:Xq XX+X Xg.g.`. X X|.}. XbXaX@.+.o.+.t.",
"t.o.o.! $.S.p 7 <XGX#Xq XXXX{.{.{.|.{.{.}.{.^ $XgX@.! o.! 0.",
"0.Q Q W #.S.u 9 ,XSX) 5 &XXX).a ;X8X&X}.`.^ s $XgX .! Q W t.",
"t.W W Z #.f.p 7 ,XAXh 3 *X:X(.(.6XvX8X( g * d pXgXI Z Q W 9.",
"t.E E Z #.f.i 7 ,XAXh : _.*X}.y ,XjXa.& d & k VXaXI Z E R t.",
"t.R R A @.f.u 7 >XIX] * 4 6 6 q ;X8X] * & d @XKXrXI A R R t.",
"t.L L V @.f.i 8 >XPXhXh % * * e xXjXk % g @XUXKXsXI V L V t.",
"t.L L V ~ f.i 8 <XLXJXpX] f f = / s.k j.mXMXaXtXv.P K L B t.",
"t.J J B  .d.y 0 >XIXVXLXFXdXhXa.' i.0XlXI.x.Y G C B J J B t.",
"t.G G M J D.[.5 ,XIXJXHXHXMXtXqXI.z.k.m c N B G G G G G M t.",
"M.F M F M T 0Xa 1XDXrXI.z.k.D m b c b M G F F F F M F M m 9.",
"c.K m m m b T H.D.X.S v c c m M m D D D m m m m m m m m M n.",
"%XX.v m m m x H G c v m D D m m m m m m m m m m m m m z P K.",
"/.V.v z z z z x x n z z z z z z z z z z z z z z z z z x b.].",
"Q.{.n.U z z z z z z z z z z z z z z z z z z z z z z H b.'.Q.",
"W.Q.].J.b.9.9.9.9.9.9.9.9.9.9.9.9.9.9.9.9.9.9.9.9.9.G.[.Q.W."
};
