/* XPM */
static char *FA_PozosPluviales_SC_R[] = {
/* columns rows colors chars-per-pixel */
"30 30 256 2 ",
"   c #1D1211",
".  c #191817",
"X  c #20110F",
"o  c #1D302F",
"O  c #242526",
"+  c #34373B",
"@  c #3E3E40",
"#  c #1C4F50",
"$  c #1B5958",
"%  c #285D5C",
"&  c #136F6F",
"*  c #177575",
"=  c #2D6C6B",
"-  c #3F7473",
";  c #444746",
":  c #484950",
">  c #4D5858",
",  c #586161",
"<  c #5C7C7B",
"1  c #686868",
"2  c #6F6E71",
"3  c #706F71",
"4  c #77777D",
"5  c #7C7C7E",
"6  c #797877",
"7  c #FECB01",
"8  c #FFCC01",
"9  c #FFCD06",
"0  c #FCCB07",
"q  c #FECE09",
"w  c #FFCF0C",
"e  c #FCCB08",
"r  c #FFD00D",
"t  c #FFD00B",
"y  c #F7CB14",
"u  c #FACE15",
"i  c #F8CE1A",
"p  c #FED212",
"a  c #FED214",
"s  c #FDD216",
"d  c #FED319",
"f  c #FFD41A",
"g  c #FDD41D",
"h  c #FFD81D",
"j  c #EFC829",
"k  c #F6CD22",
"l  c #F4CE2A",
"z  c #FED621",
"x  c #FDD726",
"c  c #FFD827",
"v  c #FEDA2E",
"b  c #FEDA2B",
"n  c #FEDE35",
"m  c #FEDD31",
"M  c #FEDF3A",
"N  c #FCDD3B",
"B  c #F6D539",
"V  c #E8C635",
"C  c #FEE03B",
"Z  c #83817B",
"A  c #939276",
"S  c #BAB37C",
"D  c #CBBD78",
"F  c #DAC254",
"G  c #E7CA49",
"H  c #EFD14B",
"J  c #F0D14A",
"K  c #F8D641",
"L  c #E3C952",
"P  c #E4CC58",
"I  c #F5DB57",
"U  c #FEE243",
"Y  c #FEE54B",
"T  c #FDE553",
"R  c #FFE855",
"E  c #FEE95A",
"W  c #FDEA5D",
"Q  c #F8E05B",
"!  c #DCC96B",
"~  c #D9C566",
"^  c #E5CE69",
"/  c #ECD46B",
"(  c #EEDB6C",
")  c #F1DB66",
"_  c #EADB7D",
"`  c #E7D678",
"'  c #FEED64",
"]  c #F1E06F",
"[  c #FEEE69",
"{  c #FDE361",
"}  c #FEF06E",
"|  c #EFE47D",
" . c #F6E873",
".. c #FEF275",
"X. c #FEF47B",
"o. c #3C3CBC",
"O. c #2C2CAE",
"+. c #595A8F",
"@. c #595895",
"#. c #61768E",
"$. c #66798D",
"%. c #6F7F8B",
"&. c #7D7D81",
"*. c #777782",
"=. c #617793",
"-. c #627893",
";. c #4545A0",
":. c #5555BA",
">. c #7070A6",
",. c #6C6CAA",
"<. c #2525D8",
"1. c #0D0DE0",
"2. c #1D1DE5",
"3. c #0000FB",
"4. c #1313F2",
"5. c #2827F9",
"6. c #3E3EF1",
"7. c #5252D8",
"8. c #6466DE",
"9. c #726EDC",
"0. c #4645E6",
"q. c #5959ED",
"w. c #4A4BF9",
"e. c #6868E9",
"r. c #6E70F6",
"t. c #7070FE",
"y. c #0C9E9E",
"u. c #1A9595",
"i. c #0FADAD",
"p. c #08BCBC",
"a. c #2BAFAF",
"s. c #38A4A4",
"d. c #74828C",
"f. c #798588",
"g. c #619191",
"h. c #51BFBF",
"j. c #67ACAC",
"k. c #79B2B2",
"l. c #7CA6A6",
"z. c #08CACB",
"x. c #1FCBCB",
"c. c #24DEDD",
"v. c #3BD5D5",
"b. c #05F8F7",
"n. c #01E8E7",
"m. c #69C3C3",
"M. c #45E9E9",
"N. c #838281",
"B. c #858584",
"V. c #8E8E8E",
"C. c #8B8A8A",
"Z. c #838989",
"A. c #8A9287",
"S. c #96978A",
"D. c #938F91",
"F. c #889697",
"G. c #949595",
"H. c #9C9C9C",
"J. c #979998",
"K. c #968C8B",
"L. c #A59F9F",
"P. c #A5A186",
"I. c #A4A38C",
"U. c #ADAC86",
"Y. c #B3AD88",
"T. c #B3B192",
"R. c #9E9FA3",
"E. c #9797A9",
"W. c #8B86BA",
"Q. c #9E9FB9",
"!. c #85ADAE",
"~. c #9AA4A5",
"^. c #A4A3A2",
"/. c #A4A9A9",
"(. c #ABAAAA",
"). c #B7B6A6",
"_. c #AEAEB2",
"`. c #AFB8B8",
"'. c #B6B6B5",
"]. c #B3B3B3",
"[. c #BBBAB3",
"{. c #BBBCBB",
"}. c #B6B7B9",
"|. c #B7A9A1",
" X c #C0B99A",
".X c #C0BABA",
"XX c #D0C384",
"oX c #DEDA8B",
"OX c #DCCD9B",
"+X c #DDD997",
"@X c #E7D986",
"#X c #E9DD9E",
"$X c #EBE382",
"%X c #F2EA88",
"&X c #FDF481",
"*X c #FEF987",
"=X c #FFFA82",
"-X c #FCF38A",
";X c #FFF989",
":X c #FEFA8F",
">X c #FEFC8E",
",X c #F6F285",
"<X c #F3EF93",
"1X c #FEFB90",
"2X c #FEFD97",
"3X c #F6F599",
"4X c #FFFF9A",
"5X c #FFFF9E",
"6X c #FCFB9D",
"7X c #FFF59A",
"8X c #C8C8A8",
"9X c #DDDBAC",
"0X c #D9D5A2",
"qX c #C6C5B8",
"wX c #D9D9BA",
"eX c #DDE0AE",
"rX c #DFE0B6",
"tX c #E3E3A6",
"yX c #EEEDAC",
"uX c #E7E4A5",
"iX c #FEFEA6",
"pX c #FEFEA3",
"aX c #FEFEA8",
"sX c #FEFDAE",
"dX c #FAFBA9",
"fX c #F7F7AC",
"gX c #E5E5B6",
"hX c #FEFEB0",
"jX c #FEFEB7",
"kX c #FDFBB5",
"lX c #FEFEB9",
"zX c #F7F7B3",
"xX c #BABAC3",
"cX c #A5A4D4",
"vX c #B5B3D7",
"bX c #8585EC",
"nX c #9D9BE0",
"mX c #9B9BF1",
"MX c #B7B8E5",
"NX c #BFC5C5",
"BX c #C2C2C2",
"VX c #CDCDC1",
"CX c #CCCBCB",
"ZX c #C8C5C5",
"AX c #D1CFCB",
"SX c #DBD7C8",
"DX c #C3C3D7",
"FX c #C9C9D8",
"GX c #D4D3D5",
"HX c #E0DDD1",
"JX c #FDFFC4",
"KX c #FFFFCB",
"LX c #FEFFCC",
"PX c #E1E2DF",
"IX c #DBDBE1",
"UX c #E5E5E3",
/* pixels */
"$.#.%.I.~ l w w w w w w w w w w w w w w w w w w k L U.d.#.$.",
"#.Z.P T -XkXLXKXKXKXKXKXKXKXKXKXKXLXLXLXKXKXKXLXlX7X{ J A.#.",
"d.L &XJXlXlXjXjXjXjXjXjXjXjXjXjXjXjXjXjXjXjXjXjXlXlXJX7XK f.",
"U.I lXsXsXhXhXhXhXhXhXhXhXhXhXsXsXhXlXkXsXhXhXhXhXhXsXlX .D ",
"L &XiXiXaXaXaXaXaXaXaXaXiXiXpXyXgXgXVXwXfXiXaXaXaXaXiXiX6Xl ",
"u 2X5X5X5X5X5X4X6X6X4X4XpXdXzXqXCX'.8X0XdX5X5X5X5X5X5X5XpXw ",
"9 4X2X2X2X3XuXgXrXwXyXtX8XT.S.R.BX(.eX3X2X2X2X2X2X2X2X2X5Xq ",
"q :X1X1X>X3X8X_.(._.BXN.: + O J.[.^.[.tX:X1X1X1X1X1X1X:X2Xq ",
"9 ;X;X;X-XuX8X^.^.^./.; .   X m.j.> ].9X,X;X;X*X=X*X;X*X:X9 ",
"9 &X&X=X%XT.J.'.N.V.(.; o $ * z.u., {.9X,X,X,X<XyX<X&X&X*Xq ",
"9 X.X.X.%XI.6 '.J.B./.s.z.n.b.a.< V.{.9X$X9XwXqX[.0X&XX.&X9 ",
"9 ......%XI.2 '.BXZ J.k.v.v.m.F.C.J.{.wX8X'.xX).oX$XX...X.9 ",
"9 } } } | I.3 '.xX4 G.(.`.NX.XZX}.R.C.1 1 '.{.).+X .} } ..9 ",
"9 [ [ [ | I.2 '.bX@.S.(.^.^.H.].^.@ O . ; `.G.G.qX$X[ [ } 9 ",
"9 ' ' ' ] P.2 [.t.;.I.].(./.H.(.C.O .   % M.= 1 VX@XW ' [ 9 ",
"9 W W E ] P.2 [.mX<.,.B.H._.1 ^.V.# & y.p.i.- D.VX_ E E ' 9 ",
"8 R R R ( P.2 '.IXq.7.*.B.ZXG.D.!.x.b.b.c.g.N.^.qX_ T R E 9 ",
"9 Y Y Y ) P.2 '.UXFXcX*.Z CX^.5 ~.l.h.j.F.G.D.E.BX` Y Y T 9 ",
"8 Y Y U Q Y.4 ].UXSXqXN.5 FXW.4 H.V.K.L.J.S.>.0.cX] U U Y 8 ",
"8 U U U U ( Y. X#X` XXZ &.DX0.6 ^.V.V.qXQ.:.2.5.vX( N U U 8 ",
"8 C M M M M Q I B M ! Z &.DX6.+.V.B.C.xXe.3.3.q.CX/ M C C 8 ",
"8 n n n n n v m n n ! Z &.GXbX1.O.O.A {.0.3.6.MXHX^ m n n 8 ",
"7 v v v v v v v v v ! Z &.GXGXe.5.4.o.8.w.r.vXSXOXH b v v 8 ",
"7 c c x c c c x x x ! Z 5 GXPXIXMXnX9.W.|._ ) J B x c x c 7 ",
"0 z z g z z z z z g J U.B.AXSX0X@X/ I N b g s f h z z g z 7 ",
"V a f d f f f f d f g H D ^ H l k i s a s f g g f f d d d y ",
"S u p a a a a a a a p a z s p r p p a a a a a a a a p a r F ",
"d.j q w w r r r r r r r q t r r r r r r r r r r r w w q u A.",
"=.S.y e 9 9 9 9 9 9 9 9 9 9 9 9 9 9 9 9 9 9 9 9 9 9 9 w S.-.",
"$.=.Z.F 0 7 7 8 8 8 8 8 8 8 8 8 8 8 8 8 8 8 8 7 7 7 G A.=.$."
};
