/* XPM */
static char *FA_PozoPluvial_A[] = {
/* columns rows colors chars-per-pixel */
"30 30 256 2 ",
"   c #1C1E1F",
".  c #141617",
"X  c #210E0F",
"o  c #211313",
"O  c #1D2F30",
"+  c #232526",
"@  c #292F2F",
"#  c #213C3B",
"$  c #373737",
"%  c #0E4343",
"&  c #2A4141",
"*  c #3C5F5F",
"=  c #127676",
"-  c #4D4A48",
";  c #534C4C",
":  c #5D5E5F",
">  c #5D5954",
",  c #53537A",
"<  c #636466",
"1  c #656666",
"2  c #626364",
"3  c #6B6A6A",
"4  c #666A68",
"5  c #6E7071",
"6  c #767574",
"7  c #7A7976",
"8  c #7C7A77",
"9  c #7B7B7B",
"0  c #666677",
"q  c #8C8C78",
"w  c #39389B",
"e  c #255B9C",
"r  c #2C5E9A",
"t  c #2D5F9C",
"y  c #2A5E9C",
"u  c #2E619E",
"i  c #2B609F",
"p  c #31639F",
"a  c #255CA2",
"s  c #2B5EA4",
"d  c #2E63A1",
"f  c #2E64A6",
"g  c #2E63A5",
"h  c #2E66A9",
"j  c #2F67AC",
"k  c #2F68AD",
"l  c #3064A2",
"z  c #3165A5",
"x  c #3365A3",
"c  c #3A6AA4",
"v  c #3266A9",
"b  c #3168AA",
"n  c #3269AD",
"m  c #3469AC",
"M  c #3C6DAE",
"N  c #3568A3",
"B  c #316BB0",
"V  c #326CB2",
"C  c #356DB2",
"Z  c #336EB3",
"A  c #3C6DB1",
"S  c #3B6DB5",
"D  c #3670B6",
"F  c #3270B7",
"G  c #3D72B3",
"H  c #3672B9",
"J  c #3572BD",
"K  c #3371BA",
"L  c #3975BE",
"P  c #3C75B9",
"I  c #424283",
"U  c #545486",
"Y  c #454599",
"T  c #65778A",
"R  c #66788B",
"E  c #677A8C",
"W  c #697B8C",
"Q  c #687A8B",
"!  c #6C7E91",
"~  c #5F5FB6",
"^  c #406FA8",
"/  c #4573A9",
"(  c #4E78AE",
")  c #497DB7",
"_  c #4D7DB6",
"`  c #4177B8",
"'  c #477CBA",
"]  c #447ABB",
"[  c #487CBA",
"{  c #487CBB",
"}  c #4074B7",
"|  c #0C0DD2",
" . c #0302EF",
".. c #0000F3",
"X. c #0000FE",
"o. c #0404FC",
"O. c #0C0CFB",
"+. c #1819FB",
"@. c #2323E5",
"#. c #2728F6",
"$. c #2323FB",
"%. c #2D2DF9",
"&. c #3334F6",
"*. c #3634F9",
"=. c #2F73C5",
"-. c #3374C3",
";. c #3576C6",
":. c #3373C2",
">. c #3977C1",
",. c #3778C6",
"<. c #3A78C2",
"1. c #3A7AC6",
"2. c #3C7BC7",
"3. c #3D7CC7",
"4. c #3D7AC3",
"5. c #3679C9",
"6. c #3A7BC9",
"7. c #3B7CC9",
"8. c #3D7CC9",
"9. c #4445CC",
"0. c #4B4BD0",
"q. c #5B5BD7",
"w. c #467FC2",
"e. c #427DC3",
"r. c #497FC1",
"t. c #5657EE",
"y. c #4E4EF8",
"u. c #5757F2",
"i. c #6068E6",
"p. c #6B6AE5",
"a. c #7978EF",
"s. c #6764FC",
"d. c #0B9494",
"f. c #0BAAAA",
"g. c #6F8194",
"h. c #72879D",
"j. c #72869B",
"k. c #7F9E9E",
"l. c #5983AC",
"z. c #4E80BB",
"x. c #5283BC",
"c. c #5D86B5",
"v. c #7289A6",
"b. c #778CA3",
"n. c #738DAC",
"m. c #758BA3",
"M. c #7690AF",
"N. c #648BBC",
"B. c #668ABA",
"V. c #6B92BD",
"C. c #7C99BB",
"Z. c #7696BB",
"A. c #55BEBE",
"S. c #6DA6A6",
"D. c #4782C9",
"F. c #4B84CA",
"G. c #5387C5",
"H. c #5A8DC9",
"J. c #5B8AC2",
"K. c #638FC2",
"L. c #6994C6",
"P. c #7E9EC4",
"I. c #7B9FCB",
"U. c #79A1D2",
"Y. c #00C9C9",
"T. c #05D6D7",
"R. c #03E1E1",
"E. c #19EAEA",
"W. c #00FDFD",
"Q. c #05F5F5",
"!. c #5FC0C0",
"~. c #54CDCD",
"^. c #44F5F5",
"/. c #808080",
"(. c #8B8C8D",
"). c #888684",
"_. c #928F8E",
"`. c #97978C",
"'. c #8C8C97",
"]. c #929292",
"[. c #919494",
"{. c #959495",
"}. c #939292",
"|. c #979899",
" X c #9C9B9C",
".X c #A5A594",
"XX c #A1A19A",
"oX c #8998AA",
"OX c #9C9FA1",
"+X c #8299B3",
"@X c #9EA1A3",
"#X c #8CA0B8",
"$X c #94A7BC",
"%X c #A6A6A7",
"&X c #A2A2A2",
"*X c gray67",
"=X c #ADADAB",
"-X c #AEAEAE",
";X c #AAAAAC",
":X c #A8A7A6",
">X c #B3B1AD",
",X c #A3AAB3",
"<X c #A5AEB6",
"1X c #ADB1B4",
"2X c #A6B2BF",
"3X c #B2B2B2",
"4X c #B7B3B1",
"5X c #BEBDBC",
"6X c #B6B7B7",
"7X c #C2C29C",
"8X c #839FC0",
"9X c #8F99D9",
"0X c #84A1C3",
"qX c #8EAACA",
"wX c #99AAC5",
"eX c #9CB0C6",
"rX c #87A9D2",
"tX c #9FAED0",
"yX c #98B5D8",
"uX c #A2B3CD",
"iX c #AABBC8",
"pX c #BABBC4",
"aX c #A8B6D2",
"sX c #AABBD1",
"dX c #A7B7D2",
"fX c #B7B7DE",
"gX c #8D8DE9",
"hX c #8E90E5",
"jX c #9C9AEA",
"kX c #A6A5E5",
"lX c #B3B3E3",
"zX c #BFC0C0",
"xX c #B3C2CD",
"cX c #B4C2D3",
"vX c #B4C4D8",
"bX c #C3C3C2",
"nX c #CDCAC6",
"mX c #CBCCCB",
"MX c #D0CFCC",
"NX c #C0C9D3",
"BX c #CCD3DD",
"VX c #D5D6D6",
"CX c #D3D5D8",
"ZX c #DCDBD9",
"AX c #E1DEDF",
"SX c #E3E3DB",
"DX c #ECEBDC",
"FX c #C2C1E5",
"GX c #D2CFE2",
"HX c #DADAE7",
"JX c #D4D4EB",
"KX c #E0DEE0",
"LX c #DFE0E2",
"PX c #E3E3E3",
"IX c #ECEBE5",
"UX c #E7E7E8",
/* pixels */
"E R ! oXZ.x.' { { { { { { { { { { { { { { { { ' x.V.+Xg.R E ",
"T h.L.r.4.7.6.6.6.6.6.6.6.6.6.6.6.6.6.6.6.7.7.6.8.1.w.K.h.T ",
"g.V.<.6.7.6.6.6.6.6.6.6.6.6.6.6.6.6.6.8.8.8.7.5.5.7.6.,.J.g.",
"+Xr.6.1.6.6.6.6.6.6.6.6.6.6.6.6.6.6.6.,.;.=.;.F.D.1.1.6.e.C.",
"V.4.1.1.2.1.2.2.2.2.2.2.2.2.2.2.3.1.2.D.H.U.rXcXcXH.,.1.1.x.",
"z.2.1.1.2.2.2.2.3.8.,.1.3.3.2.1.;.-.w.$XNXZXnX6X6XP.8.1.1.[ ",
"[ 1.1.1.1.1.1.;.:.:.G.w.:.-.>.e.H.U.0X:XVX&XoXc./ z.3.1.1.{ ",
"{ <.<.<.<.<.G.0XrXyXcXvXI.L.qXuX<X(.(.OXCX-X,XrX6.-.<.<.<.{ ",
"{ <.<.<.<.>.N.&X=X5X&X4XCX1X7 > - + $ @XmX-X3X1XP.e.>.<.>.{ ",
"{ >.>.L L L L.$X X|.|.(.VX6   . . . @ 3X5X4 ].>X2XG.J >.>.' ",
"[ L L L L N.,X1X-X*X3X{.VX2   + + X # ^.~.% ; bXiX{ J L L [ ",
"{ L L K e.M.).&X-X*X: 6 ZX1 o o O = = R.Y.& 9 MXsX` J L J ' ",
"' H H F e.n.6 9 %XmX3 6 ZX1 d.T.T.Q.Q.f.* 7 |.nXsX` K H H [ ",
"[ H H Z ] n.7 1 *XPX&X5 4X!.E.W.W.Q.E.S.(.}.[.nXdX} F H D [ ",
"[ D D V ` n.8 1 -XPX&X3  X@X[.A.A.k.[.{.{.}.[.mXsXG Z D Z [ ",
"[ C C B P n.7 < =XLX@X3  X X}._.}.{.].].`.].9.jXxXS V C C [ ",
"[ C C B P v.7 2 =XJXq., XX X(.9 %X5XXX}.'.9.X.jXxXS B C V { ",
"' B B k G v.7 < =XHX$.I .X%X)./.3XbXpX~ @.o.O.kXxXS k B n ' ",
"[ n n j G v.7 < =XHX%.w q .X`.6 -XpXp.X.o.X.&.GXaXA k n n [ ",
"[ n n h G v.7 < ;XIXt. .Y U U 4 %XpXu.o.X.O.hXDXtXA h m b [ ",
"[ b b h G v.7 1 ;XIXfX$.X.....0 7XzX&.X.#.gXDXIXaXA h b h [ ",
"[ v v f M v.8 1 =XUXSXkXu.$.+.| 0.p.*.a.FXBXaXuXB.m z v f [ ",
"[ z z g M v.6 1 *XUXCXSXSXlXlXs.y.i.9XiX8XB.M v a g z z g [ ",
"[ l l d z n._.: ;XUXSXKXAXCXeXwXC.l.( s a s d l z l l l d [ ",
") d d d i ^ #X9 :XBXeXC.c.( s s a e e d l l l l d d d d u ' ",
"N.z u u u y c M.n./ N i e e u u u d d u u u u u u u u u u z.",
"+X/ t u u u y N x e y u p u u u u u u u u u u u u u u u N V.",
"g.c.u r t t t y y u t t t t t t t t t t t t t t t t t y _ h.",
"Q b._ c r r r r r r r r r r r r r r r r r r r r r r p ) b.W ",
"R Q h.Z.) [ [ [ [ [ [ [ [ [ [ [ [ [ [ [ [ [ [ [ [ ) V.m.W R "
};
