/* XPM */
static char *FA_PozosFecales_FS_R[] = {
/* columns rows colors chars-per-pixel */
"30 30 256 2 ",
"   c #141619",
".  c #191818",
"X  c #272524",
"o  c #3B3D3D",
"O  c #763000",
"+  c #7B3801",
"@  c #4A372D",
"#  c #78430D",
"$  c #5F402F",
"%  c #534036",
"&  c #6D4722",
"*  c #7F5224",
"=  c #624638",
"-  c #6E5033",
";  c #7D593D",
":  c #464544",
">  c #4B5251",
",  c #5A5856",
"<  c #6A584D",
"1  c #725C44",
"2  c #766759",
"3  c #686767",
"4  c #6F7070",
"5  c #707271",
"6  c #7C7A77",
"7  c #797A7A",
"8  c #7F7D7D",
"9  c #767878",
"0  c #766B65",
"q  c #9F2F2C",
"w  c #9E302D",
"e  c #A0322F",
"r  c #A03330",
"t  c #A33532",
"y  c #A33734",
"u  c #A53632",
"i  c #A53936",
"p  c #A33A36",
"a  c #A63B38",
"s  c #A83B38",
"d  c #A93D3A",
"f  c #AB3F3C",
"g  c #824A16",
"h  c #8F5822",
"j  c #915D2A",
"k  c #825337",
"l  c #955D3D",
"z  c #AB413E",
"x  c #AC413E",
"c  c #B0433F",
"v  c #986A3D",
"b  c #A5613B",
"n  c #AE4340",
"m  c #AF4441",
"M  c #AE4745",
"N  c #A94743",
"B  c #B24744",
"V  c #B14642",
"C  c #B24946",
"Z  c #B44A46",
"A  c #BB4946",
"S  c #BC4946",
"D  c #B74D4B",
"F  c #B74F4C",
"G  c #BE4B48",
"H  c #BE4D4A",
"J  c #BC4E4B",
"K  c #B9514E",
"L  c #BC524F",
"P  c #AF5E5B",
"I  c #B25653",
"U  c #BD5551",
"Y  c #BF5754",
"T  c #B95351",
"R  c #BE5D5C",
"E  c #B75E5E",
"W  c #976D44",
"Q  c #936C55",
"!  c #887055",
"~  c #957351",
"^  c #BC7044",
"/  c #AE605D",
"(  c #BC635F",
")  c #A47E58",
"_  c #A57853",
"`  c #BC7E5B",
"'  c #A76946",
"]  c #8A7A6E",
"[  c #807A7A",
"{  c #B66D6D",
"}  c #BC6D6A",
"|  c #BA6764",
" . c #AB7A60",
".. c #BB716F",
"X. c #B17574",
"o. c #BC7474",
"O. c #BC7B7A",
"+. c #B57679",
"@. c #C04F4C",
"#. c #C25A57",
"$. c #C55E5B",
"%. c #C85F5C",
"&. c #CA794A",
"*. c #C7615E",
"=. c #C9625F",
"-. c #CD7E51",
";. c #CA6562",
":. c #CD6663",
">. c #CC6966",
",. c #C36D6A",
"<. c #CE6C69",
"1. c #D06966",
"2. c #D66966",
"3. c #D26D6A",
"4. c #D46D6A",
"5. c #C4716E",
"6. c #CF716E",
"7. c #D6716E",
"8. c #D1706D",
"9. c #D8726F",
"0. c #C47472",
"q. c #C27A76",
"w. c #C47D7A",
"e. c #CD7B79",
"r. c #C97775",
"t. c #D47471",
"y. c #D97572",
"u. c #DB7673",
"i. c #DA7975",
"p. c #DD7976",
"a. c #D97D7A",
"s. c #DE7D7A",
"d. c #DE7F7C",
"f. c #D27F7C",
"g. c #9D8679",
"h. c #A98361",
"j. c #A48A6C",
"k. c #B98669",
"l. c #B7946F",
"z. c #A68978",
"x. c #B58172",
"c. c #B29978",
"v. c #DE827F",
"b. c #D6817F",
"n. c #CB9476",
"m. c #E0807D",
"M. c #62798C",
"N. c #657A8D",
"B. c #6D7D8E",
"V. c #7F7F80",
"C. c #727D8E",
"Z. c #657D91",
"A. c #6F7E90",
"S. c #817E8C",
"D. c #7F8080",
"F. c #7A8292",
"G. c #828282",
"H. c #838585",
"J. c #8E8E8E",
"K. c #8B8B8B",
"L. c #868788",
"P. c #9A8685",
"I. c #948F8B",
"U. c #9C8888",
"Y. c #938686",
"T. c #9E9089",
"R. c #8B8692",
"E. c #838691",
"W. c #998D98",
"Q. c #8E9192",
"!. c #939393",
"~. c #989897",
"^. c #959799",
"/. c #9E9E9E",
"(. c #9B9B9A",
"). c #999897",
"_. c #A48B8A",
"`. c #AE888A",
"'. c #B38283",
"]. c #A49488",
"[. c #B39583",
"{. c #BA9E84",
"}. c #A38D94",
"|. c #A89893",
" X c #B29E9C",
".X c #BF9E9C",
"XX c #BE9695",
"oX c #A2A09E",
"OX c #ACA59E",
"+X c #BFAA97",
"@X c #9A9FA4",
"#X c #A1A2A2",
"$X c #A5A5A5",
"%X c #A3A3A4",
"&X c #A9A7A6",
"*X c #AAAAAA",
"=X c #ABACAD",
"-X c #B1ADAD",
";X c #BDA9A8",
":X c #BBB1A7",
">X c #ADB4B4",
",X c #B2B2B2",
"<X c #B6B2B2",
"1X c #B6B6B6",
"2X c #B1B6B7",
"3X c #BBB3B2",
"4X c #B7B8BA",
"5X c #BCBBBB",
"6X c #C38C8A",
"7X c #DF8380",
"8X c #DF8582",
"9X c #DE8683",
"0X c #DD8A88",
"qX c #DA8785",
"wX c #D6908E",
"eX c #C39592",
"rX c #C79897",
"tX c #CE9C9A",
"yX c #CE9593",
"uX c #D19392",
"iX c #DF9997",
"pX c #D59E9C",
"aX c #D99B99",
"sX c #E08986",
"dX c #E28D8A",
"fX c #E28F8C",
"gX c #E28B89",
"hX c #E08380",
"jX c #E2918F",
"kX c #E29492",
"lX c #E59897",
"zX c #E59998",
"xX c #C7A49A",
"cX c #D6A09E",
"vX c #C7B19A",
"bX c #CAA8A6",
"nX c #D2AAA9",
"mX c #D0A3A1",
"MX c #C7B5A8",
"NX c #C4B6B3",
"BX c #C3BDBC",
"VX c #CABDBC",
"CX c #CEB6B5",
"ZX c #D2B9B6",
"AX c #CCC4BD",
"SX c #D1C1BD",
"DX c #BBC2C3",
"FX c #C3C3C3",
"GX c #CCCBCB",
"HX c #CDC8C3",
"JX c #D5CBCB",
"KX c #D4D1CC",
"LX c #D4D2D2",
"PX c #DAD7D5",
"IX c #E1DFDE",
"UX c #E3E4E4",
/* pixels */
"N.M.B.W.'.R H H @.@.@.@.@.@.@.@.@.@.@.@.@.@.H H R +.}.C.M.N.",
"M.F.O.<.a.fXzXlXlXlXlXlXlXlXlXlXlXlXlXlXlXlXlXlXjX7X6.0.S.M.",
"A.o.i.kXjXfXfXfXfXfXfXfXfXfXfXfXfXfXgXdXfXfXfXfXfXjXkX7X,.C.",
"W.>.dX9XsXsXsXsXsXsXsXsXsXsXsX9X9X0XkXjX9XsXsXsXsXsX9XdXt.`.",
"o.t.v.v.7X7X8X8X7XhX8X8Xv.d.s.wXpXnXVXMX0Xv.7X7X7X7Xv.v.s.R ",
"U p.s.s.s.s.p.p.s.a.u.p.m.gXiX;XGX1X.XeX0Xp.s.s.s.s.s.s.d.H ",
"G p.p.i.u.a.uXcXnXnXaXuXXX_.Y./.FX&XtXi.u.p.i.p.p.p.p.u.p.H ",
"H y.y.y.9.b.;X>X=X2XFXG.> o X ~.4X%X<XyXt.y.y.y.y.y.y.y.y.H ",
"H 7.7.4.t.uX;X#X#X%X$X:       [.g., ,XmX8.7.7.4.2.4.7.7.7.H ",
"H 3.3.3.e.|.(.1XG.J.*X: X @ = ' ; , 5XmX<.3.6.qXpXf.3.3.4.H ",
"G 1.1.1.e.U.9 1X~.H.&XQ b ^ &.Q 0 Q.5XtX5.bXCXNX<XrX3.1.3.H ",
"H :.:.:.r.U.4 1XFXV.).].k.k.[.I.K.~.5XCX.X1XDX Xw.0.>.:.>.G ",
"G ;.;.=.r.U.5 1XBX6 !.*X,XFX5XFX1XoXK.3 3 1X5X-X6X;.=.;.;.H ",
"H *.*.%.0.P.5 1X{.2 ^.=X%X%X/.,X#Xo X   : <X).!.3Xw.$.=.=.G ",
"G $.$.$.5.P.4 4Xl.1 @X,X*X&X/.*XK.X .   % n.= 3 AXw.#.$.$.H ",
"S #.#.#.,.P.4 4XvX* ] L.(.-X3 $XI.@ $ k l l < !.VXq.Y #.#.G ",
"G Y Y U } P.5 1XIX) ~ 6 H.GX!.!.|._ -.-.` ] G.%XBX0.L Y Y S ",
"S U U L } P.4 <XUXKX:X8 V.GX$X7 oXT.z.z.I.!.!.(.NX0.K U U G ",
"S K K F ( _.7 ,XUXJXBXG.8 GX].7 /.J.Q.#X(.!.] W xXq.Z K K S ",
"G D D D F .._. XxXO.'.[ D.HXW 7 $XJ.I.BXOX! g j MXo.C D D G ",
"S Z Z Z Z Z | | C B X.[ D.HXv 2 J.H.L.5Xj.+ + ) SX} V Z Z S ",
"S B B V C C x V C B X.[ 8 LX{.# & - E.5XW O v AXPX| c B B S ",
"S m m n m m m m m n X.[ D.LXPXh.h g ; j.) c.MXZXeXI x m n S ",
"S x x z x x x x z f X.8 D.LXUXPXAX+Xh. .x.6X} I M z z x z A ",
"G d d d d d d d d a P _.H.GXJXbXeXO.{ I M u u i s d d d d S ",
"| s i i i i i i i i a / `.X.P N p t r t u i a a i i i i i K ",
"}.M t t t t t t t t t u z y e r t t t y y t t t t t t t s +.",
"F.E r w r r r r r r r e q e r r r r r r r r r r r r r w K E.",
"N.R.T a w w w w w w w w w w w w w w w w w w w w q w t D R.Z.",
"N.N.F.+.D A A S S S S S S S S S S S S S S S S A A A { E.Z.N."
};
