/* XPM */
static char *FA_PozoFecal_SC[] = {
/* columns rows colors chars-per-pixel */
"30 30 256 2 ",
"   c #14191C",
".  c #1C1C1A",
"X  c #161612",
"o  c #1F201D",
"O  c #39281E",
"+  c #282827",
"@  c #292725",
"#  c #362E28",
"$  c #3A3634",
"%  c #763300",
"&  c #7B3500",
"*  c #793D01",
"=  c #7D3C02",
"-  c #73410B",
";  c #634230",
":  c #7A4E33",
">  c #695139",
",  c #46464E",
"<  c #5A4E47",
"1  c #4F534F",
"2  c #5F5F5F",
"3  c #635243",
"4  c #715B45",
"5  c #665D53",
"6  c #6F6254",
"7  c #62605B",
"8  c #505060",
"9  c #666664",
"0  c #686662",
"q  c #696764",
"w  c #6D6966",
"e  c #676868",
"r  c #6A6B6A",
"t  c #706F6F",
"y  c #6E6E77",
"u  c #747476",
"i  c #73737D",
"p  c #74747D",
"a  c #74747D",
"s  c #7B7B7A",
"d  c #77787D",
"f  c #824203",
"g  c #86490C",
"h  c #8D541B",
"j  c #8A5725",
"k  c #925D28",
"l  c #8D593A",
"z  c #976632",
"x  c #936238",
"c  c #A4613A",
"v  c #8B6946",
"b  c #8A755E",
"n  c #997A5B",
"m  c #AB6841",
"M  c #B66E45",
"N  c #A57A4D",
"B  c #A47E57",
"V  c #807F7A",
"C  c #C87748",
"Z  c #D47D4B",
"A  c #C87D52",
"S  c #FECB00",
"D  c #FFCD00",
"F  c #FFCF05",
"G  c #FBCC04",
"H  c #FACD0B",
"J  c #F7CC08",
"K  c #FED100",
"L  c #FED500",
"P  c #FBD403",
"I  c #FFD900",
"U  c #FEDE00",
"Y  c #FEDB05",
"T  c #FCD30B",
"R  c #F5DD0D",
"E  c #F6CE1A",
"W  c #FACD13",
"Q  c #F7DA10",
"!  c #FED814",
"~  c #F8DA18",
"^  c #FEE200",
"/  c #FEE600",
"(  c #FFE900",
")  c #FEED00",
"_  c #FFE60C",
"`  c #FFE20C",
"'  c #FFED0C",
"]  c #FFE90C",
"[  c #F3E50E",
"{  c #FEF100",
"}  c #FEF600",
"|  c #FEFA00",
" . c #FEFE01",
".. c #FCFB03",
"X. c #FFF30C",
"o. c #FEFE09",
"O. c #FFFF0D",
"+. c #FDF90C",
"@. c #ECEC1E",
"#. c #F4E913",
"$. c #FEFE1E",
"%. c #FFFD1A",
"&. c #F8F318",
"*. c #CFCE24",
"=. c #D9D73E",
"-. c #EFC828",
";. c #F3CD20",
":. c #F9D726",
">. c #F2D43D",
",. c #E8C633",
"<. c #FCE427",
"1. c #F7F621",
"2. c #FEFE20",
"3. c #F4F32A",
"4. c #FFF128",
"5. c #FFFF29",
"6. c #FFFE2E",
"7. c #FAF421",
"8. c #E9E23D",
"9. c #FCE032",
"0. c #FCF436",
"q. c #FEFF31",
"w. c #FDFD3C",
"e. c #FFF33D",
"r. c #BB9858",
"t. c #9B897E",
"y. c #A8866B",
"u. c #AC8A76",
"i. c #AF8F7D",
"p. c #B78E78",
"a. c #B0937A",
"s. c #BAB37C",
"d. c #C4815C",
"f. c #CABE5B",
"g. c #C7B95C",
"h. c #D69B7A",
"j. c #C9BC6D",
"k. c #DCC34F",
"l. c #CBC35C",
"z. c #DFCA5A",
"x. c #D6C25A",
"c. c #E3C944",
"v. c #E3C949",
"b. c #F2D843",
"n. c #EED95F",
"m. c #EBE942",
"M. c #F6F645",
"N. c #FEFE41",
"B. c #FCFD45",
"V. c #FEFA4C",
"C. c #E8E65C",
"Z. c #FFFF57",
"A. c #FEFC51",
"S. c #F3F25C",
"D. c #FFFF58",
"F. c #DEC861",
"G. c #DCCC7A",
"H. c #D5D572",
"J. c #ECD563",
"K. c #F2DE69",
"L. c #E3E365",
"P. c #E3E176",
"I. c #F2F17C",
"U. c #F1F073",
"Y. c #F6F665",
"T. c #61768E",
"R. c #66798D",
"E. c #6F7F8D",
"W. c #7B7C8F",
"Q. c #617793",
"!. c #627893",
"~. c #74828E",
"^. c #79858A",
"/. c #838382",
"(. c #8C8C8B",
"). c #828A8C",
"_. c #958F8B",
"`. c #8A9287",
"'. c #949788",
"]. c #929291",
"[. c #939495",
"{. c #959594",
"}. c #949492",
"|. c #9A9A96",
" X c #9C9C9C",
".X c #878994",
"XX c #A19F9E",
"oX c #ADAC86",
"OX c #A1A48C",
"+X c #BDA58D",
"@X c #B0B086",
"#X c #A3A39D",
"$X c #BEA99C",
"%X c #9F9FAA",
"&X c #9C9EA0",
"*X c #9DA1A3",
"=X c #A7A7A5",
"-X c #A3A3A2",
";X c #ABAAAA",
":X c #ADADAD",
">X c #ACABAD",
",X c #A1A3AE",
"<X c #B7ADA5",
"1X c #BBBAA6",
"2X c #B6B6AA",
"3X c #ACACB7",
"4X c #B2B2B1",
"5X c #B2B3B5",
"6X c #BDBCBC",
"7X c #B3B3BB",
"8X c #D1BC86",
"9X c #C0AEA5",
"0X c #C7BBB5",
"qX c #C6B9AA",
"wX c #D1D181",
"eX c #C2C196",
"rX c #CBCA9C",
"tX c #DDD192",
"yX c #DFDA9C",
"uX c #DAD896",
"iX c #CBC889",
"pX c #E5D686",
"aX c #E0D59B",
"sX c #E1DB9C",
"dX c #E7DA93",
"fX c #F0E797",
"gX c #DEDEAE",
"hX c #C1C1BF",
"jX c #CBC0B7",
"kX c #DBDBB8",
"lX c #E3DFA5",
"zX c #E1E1AC",
"xX c #E6E3A5",
"cX c #AFB9C1",
"vX c #BFBFCE",
"bX c #C1C1C3",
"nX c #C5C6CF",
"mX c #CCCCCB",
"MX c #D1C8C4",
"NX c #C9CAD5",
"BX c #D4CFD3",
"VX c #D5D5D5",
"CX c #DDDDDD",
"ZX c #D9D8D2",
"AX c #E1DEC9",
"SX c #E1DDDA",
"DX c #E0DAD4",
"FX c #E9E4C7",
"GX c #E0E2DF",
"HX c #D9DBE3",
"JX c #DBDEF1",
"KX c #DFE2E7",
"LX c #E2E3E2",
"PX c #E9EBEC",
"IX c #E8E8E8",
"UX c #E0E5F1",
/* pixels */
"R.T.E.OXx.;.F F F F F F F F F F F F F F F F F F E v.oX~.T.R.",
"T.).v.<.0.V.D.Z.Z.Z.Z.Z.Z.Z.Z.Z.Z.Z.Z.Z.Z.Z.Z.D.A.e.<.>.`.T.",
"~.c.4.B.N.N.N.N.N.N.N.N.N.N.N.N.N.N.N.N.N.N.N.w.w.N.B.0.:.^.",
"oX~ q.6.6.6.6.6.6.6.6.6.6.6.6.6.6.q.q.5.5.2.5.B.w.6.6.q.<.j.",
"c.&.$.$.$.$.$.$.$.$.2.2.$.$.$.2.2.$.$.6.M.Y.I.zXgXM.%.$.%.E ",
"H O.O.o.O.O.O.O.O.O. .o.O.O.O.o. . .&.wXkXNXvX2X7XL.O.o.O.D ",
"D  . . . . . . .| | 1.&. . ...+.3.S.H.%XVX-X@X=.*.@... . .D ",
"D | | | |  .3.L.U.I.zXxXS.m.P.uXeX].(.#XZX>X<XS. . .| |  .D ",
"D | | | | | m.#X>X6X%X3XZX1Xp 8 , + $ -XmX:X5X4XC.+.| | | D ",
"D } } } } } 0.iX X|.|.(.VXu o X X . # 4X6Xq }.3XrX7.} } | D ",
"D } } } } 8.eX1X:X;X4X{.VX9 . @ @   # h.p.O 1 bXuX#.} } } D ",
"D { { { +.l.W.*X:X;X2 u CXe     @ ; ; M c $ s NXsX#.} { } D ",
"D { { { X.l.y V =XmXr u CX9 : m M C C l < s |.nXyX[ { { { D ",
"D ) ) ) X.l.i q ;XLX-Xt 5Xi.A Z Z A d.t.(.].}.nXyX[ { ) { D ",
"D ) ) ) X.l.p 9 :XLX-Xe  XXX}.u.u._.].{.{.[.}.nXsX[ ) ) ) D ",
"D ( ( ( ' l.i 0 >XLX#Xe  X X].].].{.].].[.].v $XlXR ) ( ( D ",
"D ( / / ' l.a 0 :XDXn 5 &X X(.s =X6X X[._.v f <XxXR ( / ( D ",
"D / / / ] f.i 0 :XSXk 3 *X=X/./.4XbX6Xb j = g 9XlXR / / / S ",
"D / ^ ^ ] f.p 0 :XSXk > ).*X[.u :XhXy.& f & z BXaXR / ^ / D ",
"D ^ ^ ^ _ f.i 0 ;XIXB * 4 6 6 e =X6XB = & g +XKXtXQ ^ ^ ^ D ",
"D ^ U U _ f.i q ;XPXjXk % * * w cXhXz % k +XUXJXaXQ ^ U ^ D ",
"D U U U ` f.p q >XIXKXqXB h h - v y.x a.MXAXaXdXb.Y U U U D ",
"S I I I ` g.u w ;XIXZXLXGX0X0Xy.N r.8XfXK.b.Q P I I I I I D ",
"S I L L Y z..X7 :XIXHXHXHXFXpXpXn.9.:.P L L I I Y I I L I S ",
"G L L L L ! G.d ,XFXtXJ.>.:.G G K L L L L L L L L L L L L S ",
",.K L K L K ! F.z.:.T K K L L L L L L L L L L L L L K K K W ",
"s.H K K K K K T L K K K K K K K K K K K K K K K K K K K K k.",
"~.-.D D D K K D D K K K K K K K K K K K K K K K K D D D W `.",
"Q.'.W G D D D D D D D D D D D D D D D D D D D D D D S H '.!.",
"R.Q.).x.G S S D D D D D D D D D D D D D D D D S S S c.`.Q.R."
};
