/* XPM */
static char *FA_PozoPluvial_A_R[] = {
/* columns rows colors chars-per-pixel */
"30 30 256 2 ",
"   c #161A1A",
".  c #1C1F1F",
"X  c #121314",
"o  c #210F0F",
"O  c #211313",
"+  c #1D3030",
"@  c #252828",
"#  c #213B3B",
"$  c #373737",
"%  c #0E4343",
"&  c #2A4141",
"*  c #3C5F5F",
"=  c #127676",
"-  c #544C4D",
";  c #5E5E5F",
":  c #585552",
">  c #4A4847",
",  c #53537A",
"<  c #656567",
"1  c #636366",
"2  c #6A6A6A",
"3  c #666A68",
"4  c #6E7071",
"5  c #757474",
"6  c #787775",
"7  c #7A7875",
"8  c #7B7B7B",
"9  c #666677",
"0  c #89877C",
"q  c #38389B",
"w  c #2F619B",
"e  c #30619B",
"r  c #31639D",
"t  c #34649E",
"y  c #33649E",
"u  c #3465A0",
"i  c #3868A1",
"p  c #3A69A5",
"a  c #3D6BA4",
"s  c #3D6CA5",
"d  c #3C6CA3",
"f  c #3D6BAA",
"g  c #3868A1",
"h  c #424383",
"j  c #545486",
"k  c #454599",
"l  c #64778A",
"z  c #65788B",
"x  c #677A8C",
"c  c #697B8C",
"v  c #687A8B",
"b  c #6B7E92",
"n  c #5F5FB6",
"m  c #416FA7",
"M  c #416EAA",
"N  c #4371A9",
"B  c #4573AB",
"V  c #4775AC",
"C  c #4976AD",
"Z  c #4975AA",
"A  c #527BAE",
"S  c #4E7BB1",
"D  c #4B7CB5",
"F  c #497DB9",
"G  c #4C7FBB",
"H  c #4C7EBC",
"J  c #4A7EBB",
"K  c #4B75B2",
"L  c #517EB5",
"P  c #527DB4",
"I  c #567FB5",
"U  c #0202EF",
"Y  c #0000F3",
"T  c #0001FE",
"R  c #0404FC",
"E  c #090BFA",
"W  c #0F10FB",
"Q  c #1819FB",
"!  c #2323E5",
"~  c #2324FB",
"^  c #2A2BF8",
"/  c #3434F7",
"(  c #0C0DD2",
")  c #4545CC",
"_  c #4B4BD0",
"`  c #5B5BD7",
"'  c #5757EE",
"]  c #4F4FF8",
"[  c #5758F2",
"{  c #696BE6",
"}  c #7977EE",
"|  c #6663FB",
" . c #0B9494",
".. c #0BAAAA",
"X. c #6D8095",
"o. c #72879D",
"O. c #72869B",
"+. c #7F9E9E",
"@. c #4D80BC",
"#. c #4C80BB",
"$. c #5481B6",
"%. c #5082BD",
"&. c #5583B9",
"*. c #5A86BB",
"=. c #5C84BB",
"-. c #5E8ABE",
";. c #5B88BF",
":. c #768CA3",
">. c #7A8FA5",
",. c #7F92A9",
"<. c #628BBD",
"1. c #668BB7",
"2. c #6A90B1",
"3. c #7D94B1",
"4. c #7293BC",
"5. c #7E9BBD",
"6. c #55BEBE",
"7. c #6DA6A6",
"8. c #638DC1",
"9. c #658CC3",
"0. c #6187C1",
"q. c #6791C5",
"w. c #6690C3",
"e. c #6B93C6",
"r. c #6C95C9",
"t. c #6F98CC",
"y. c #7599C2",
"u. c #719ACE",
"i. c #749CCD",
"p. c #7699C5",
"a. c #769FD1",
"s. c #789FD2",
"d. c #7DA2CE",
"f. c #77A0D2",
"g. c #7DA5D6",
"h. c #7AA2D4",
"j. c #7FA7D8",
"k. c #00C9C9",
"l. c #05D7D7",
"z. c #03E1E1",
"x. c #19EAEA",
"c. c #00FDFD",
"v. c #05F5F5",
"b. c #60C0C0",
"n. c #44F5F5",
"m. c #54CDCD",
"M. c #8C8D8D",
"N. c #838384",
"B. c #928F8D",
"V. c #97978C",
"C. c #8C8C97",
"Z. c #959495",
"A. c #939393",
"S. c #999A9A",
"D. c #9E9E9F",
"F. c #A5A594",
"G. c #A1A19A",
"H. c #8295AC",
"J. c #8699AF",
"K. c #839AB2",
"L. c #8B9EB3",
"P. c #839DBD",
"I. c #9EA1A2",
"U. c #9DA5AC",
"Y. c #8BA1BB",
"T. c #93A3BA",
"R. c #A1A1A1",
"E. c #A5A4A5",
"W. c #ABABAB",
"Q. c #ADADAB",
"!. c #AEAEAE",
"~. c #AAAAAC",
"^. c #A8A7A8",
"/. c #B0AEAC",
"(. c #B2B1AE",
"). c #ABAFB2",
"_. c #ADB3B9",
"`. c #B2B2B2",
"'. c #B7B6B6",
"]. c #B3B6B9",
"[. c #BDBCBC",
"{. c #B8B2B2",
"}. c #C2C29C",
"|. c #949DDB",
" X c #93AAC8",
".X c #97B0CF",
"XX c #81A7D3",
"oX c #80A8D7",
"OX c #83AADA",
"+X c #84ABDB",
"@X c #87AEDD",
"#X c #87ADDA",
"$X c #88AFDE",
"%X c #8CAED9",
"&X c #8FAFD5",
"*X c #8CB2DD",
"=X c #93B3DA",
"-X c #99B7DC",
";X c #96B6DB",
":X c #A8B6C7",
">X c #BBBBC4",
",X c #B3BBC3",
"<X c #ACBBD5",
"1X c #A5BAD6",
"2X c #B4BAD9",
"3X c #8D8CE9",
"4X c #8F91E6",
"5X c #9B99EA",
"6X c #A29FE7",
"7X c #86AFE0",
"8X c #8DB3E1",
"9X c #8CB3E2",
"0X c #92B6E2",
"qX c #93B7E3",
"wX c #94B8E3",
"eX c #95B9E5",
"rX c #9ABBE3",
"tX c #9EBDE3",
"yX c #A1BFE3",
"uX c #A2BFE4",
"iX c #B3B2E3",
"pX c #AAAAE3",
"aX c #B6C3CC",
"sX c #A6C1DF",
"dX c #B4C2D6",
"fX c #BAC5D4",
"gX c #BFCAD0",
"hX c #A7C1E2",
"jX c #A5C1E5",
"kX c #A9C3E3",
"lX c #ABC4E3",
"zX c #ACC5E2",
"xX c #B6CBE5",
"cX c #B5CBE4",
"vX c #BCCEE3",
"bX c #B0C7E5",
"nX c #C3C3C1",
"mX c #CCCAC6",
"MX c #CCCCCB",
"NX c #C9D1DB",
"BX c #CCD1D7",
"VX c #D6D5D4",
"CX c #D3D5DA",
"ZX c #D4D8D8",
"AX c #DDDDDD",
"SX c #E3E3DB",
"DX c #EBEBDC",
"FX c #C3C1E6",
"GX c #D0CEE1",
"HX c #CDD5E0",
"JX c #DADAE7",
"KX c #D4D4EB",
"LX c #E0DEE0",
"PX c #E2E3E3",
"IX c #ECECE7",
"UX c #E7E6E6",
/* pixels */
"x z b H.5.-.@.%.%.%.%.%.%.%.%.%.%.%.%.%.%.%.%.@.;.y.K.b z x ",
"l o.p.i.=XkXxXcXxXxXxXxXxXxXxXxXxXxXxXxXxXxXcXxXzX-Xd.p.o.l ",
"b y.%XbXlXlXkXkXkXkXkXkXkXkXkXkXkXkXkXkXkXlXkXhXkXlXbX-Xr.X.",
"K.i.jXtXyXyXuXuXuXuXuXuXuXuXuXuXuXjXyXyXtXrXtXhXhXyXtXjXXXP.",
"y.#XrXrXrXrXrXrXrXrXrXrXrXrXrXrXrXrXrXtXsXcXvXNXNXhXrXrX0X-.",
"&.8XqX0XqXqXqXwXwXwX0XqXwXwXqX0X8X9X=X:XBXVXnX].'.<XeX0XwX@.",
"H 8X8X8X8X8X9X9X$X@X-X=X$X7X$X0X-XzX:XE.VXR.U. X5.&X8X8X0X@.",
"@.$X$X$X$X@X=X<XcXvXNXNX<X1XdXfX_.M.M.I.ZXQ.).zX9X7X$X@X*X@.",
"#.+X+X+X+X+X.XE.W.[.R.(.ZX`.6 : > @ $ R.MX!.`.`.1X#XOXOX@X#.",
"H oXoXoXg.g.-X:XS.S.S.M.VX5 . X     @ `.[.3 Z./.,X*Xg.oXOXG ",
"#.g.g.h.g. X_.].!.~.`.Z.VX1 . @ @ o # n.m.% - nXaXXXh.h.g.@.",
"G f.f.a.j.T.0 R.!.W.; 6 AX< O O + = = z.k.& 8 MXfXs.a.a.h.#.",
"H i.i.u.h.Y.5 8 E.mX2 5 AX<  .l.l.v.v...* 7 S.mXfXi.u.i.i.H ",
"G t.t.r.s.L.6 < W.PXR.4 {.b.x.c.c.v.x.7.M.A.Z.mXdXt.t.t.u.H ",
"G e.e.q.u.L.7 < !.PXE.2 S.I.A.6.6.+.A.Z.Z.A.A.mXdXe.e.e.r.G ",
"J q.q.8.r.K.7 < Q.PXR.3 S.D.A.B.A.Z.A.A.V.A.) 5XgX9.9.w.q.J ",
"J 8.8.<.e.J.6 1 Q.KX` , G.D.M.8 ^.[.G.A.C.) T 5XgX9.8.8.8.J ",
"J -.-.;.q.J.6 1 Q.JX~ h F.^.N.N.`.nX>Xn ! R E 6XgX0.-.-.-.J ",
"J *.*.&.8.H.7 1 Q.JX^ q 0 F.V.5 !.>X{ T R T / GX<X=.&.*.*.J ",
"F &.&.$.-.H.6 1 ~.IX' U k j j 3 ^.>X[ R T W 4XDX1X=.$.&.$.F ",
"J L L S *.H.7 < ~.IX2X~ T Y Y 9 }.nX/ T ^ 3XDXUX<X&.S L L J ",
"F S S C &.,.7 < Q.UXSXpX[ ~ Q ( _ { / } FXCX<X<Xy.P S S S F ",
"F C C V I >.5 < W.UXCXSXSXiXiX| ] { |.aX X4.P K N C C C C F ",
"F B B N V 3.B.; ~.UXSXLXLXZX:X XY.2.1.M p f N B V B B B B F ",
"J m m m s A T.8 ^.HX:XP.1.I f f p p p m N N m m m m m m m F ",
"<.f d a a g C 3.3.A N p u u d d a s s s a a a a a a a a d %.",
"K.V g i i i t m s r u i i i i i i i i i i i i i i i i i s 4.",
"X.*.y y t t t r r t t t t t t t t t t t t t t t t t t r L o.",
"v >.L p e e e e e e e e e e e e e e e e e e e e w e u D >.c ",
"z v o.4.D F F F F F F F F F F F F F F F F F F F F F 1.:.c z "
};
