/* XPM */
static char *FA_PozosPluviales_NR[] = {
/* columns rows colors chars-per-pixel */
"30 30 256 2 ",
"   c #15110F",
".  c #1B1312",
"X  c #1E1E1F",
"o  c #200F0E",
"O  c #1D2F2F",
"+  c #242526",
"@  c #393D40",
"#  c #1C4F50",
"$  c #1B5858",
"%  c #285C5B",
"&  c #136F70",
"*  c #177574",
"=  c #3F7373",
"-  c #2D6B6A",
";  c #444646",
":  c #4A5558",
">  c #586161",
",  c #5C7B7B",
"<  c #686767",
"1  c #6E6F72",
"2  c #6F7072",
"3  c #76777C",
"4  c #7B7B7D",
"5  c #797A7A",
"6  c #CE6E1E",
"7  c #CE6C1B",
"8  c #D16E1C",
"9  c #D36C16",
"0  c #D2701F",
"q  c #D5731E",
"w  c #DA751E",
"e  c #DD761E",
"r  c #DC741B",
"t  c #D67017",
"y  c #E37A1E",
"u  c #CB6E26",
"i  c #D27121",
"p  c #D57320",
"a  c #D77420",
"s  c #D37424",
"d  c #D97621",
"f  c #DB7622",
"g  c #DE7921",
"h  c #D97929",
"j  c #D3772E",
"k  c #CD7632",
"l  c #E17A21",
"z  c #E57D22",
"x  c #E47D23",
"c  c #E97E21",
"v  c #827D79",
"b  c #CF7E43",
"n  c #D17E40",
"m  c #FF891E",
"M  c #FB861C",
"N  c #DD863B",
"B  c #DE8236",
"V  c #EA8124",
"C  c #EE8324",
"Z  c #EB872C",
"A  c #F18625",
"S  c #F48624",
"D  c #F58827",
"F  c #FE8B21",
"G  c #FE8E26",
"H  c #FB8A24",
"J  c #F48A2B",
"K  c #F88B28",
"L  c #FA8D29",
"P  c #FE8E29",
"I  c #FB8E2C",
"U  c #FC8E2D",
"Y  c #F08629",
"T  c #FE912C",
"R  c #E68C3A",
"E  c #F38F3E",
"W  c #F58F3E",
"Q  c #F48F31",
"!  c #F3903E",
"~  c #F5913E",
"^  c #F7943A",
"/  c #FA943B",
"(  c #F89135",
")  c #81807F",
"_  c #929176",
"`  c #98897D",
"'  c #A18E7C",
"]  c #A18D7B",
"[  c #B8987E",
"{  c #AB927A",
"}  c #CF874E",
"|  c #DD8B44",
" . c #D08648",
".. c #CD885C",
"X. c #CA905E",
"o. c #DA9355",
"O. c #D6935A",
"+. c #DA9459",
"@. c #DF985A",
"#. c #D28C59",
"$. c #EC8E42",
"%. c #E28E44",
"&. c #E69145",
"*. c #EB9346",
"=. c #EE954B",
"-. c #EE9A4D",
";. c #F29342",
":. c #FA9A43",
">. c #EA9B57",
",. c #F29C53",
"<. c #F7A65C",
"1. c #C88F60",
"2. c #C89163",
"3. c #CD9569",
"4. c #DC9D6A",
"5. c #D39969",
"6. c #C69B77",
"7. c #D39F76",
"8. c #E09E68",
"9. c #DFA16B",
"0. c #D3A279",
"q. c #D9A575",
"w. c #E6A265",
"e. c #E3A46A",
"r. c #EEA869",
"t. c #EAAC75",
"y. c #2422B4",
"u. c #3C3CBD",
"i. c #3433A8",
"p. c #5A598F",
"a. c #585895",
"s. c #61778D",
"d. c #65798C",
"f. c #7D7E82",
"g. c #777782",
"h. c #627A90",
"j. c #6F7F90",
"k. c #4544A0",
"l. c #5555BA",
"z. c #706FA5",
"x. c #6C6CAA",
"c. c #2524D7",
"v. c #0D0CE0",
"b. c #0000FB",
"n. c #1312F2",
"m. c #1C1CE4",
"M. c #3D3BEF",
"N. c #2726F9",
"B. c #3F3EF2",
"V. c #5251D8",
"C. c #6A68DD",
"Z. c #4545E6",
"A. c #5A59ED",
"S. c #4B50F8",
"D. c #6867E9",
"F. c #706FFE",
"G. c #7175F6",
"H. c #807F80",
"J. c #846DBB",
"K. c #0C9E9E",
"L. c #1A9594",
"P. c #0FADAD",
"I. c #08BCBB",
"U. c #2BAFAE",
"Y. c #38A4A3",
"T. c #7F8080",
"R. c #748291",
"E. c #788592",
"W. c #619190",
"Q. c #52BFBF",
"!. c #68ACAB",
"~. c #78B2B1",
"^. c #7CA6A6",
"/. c #08CBCA",
"(. c #1FCBCB",
"). c #24DEDD",
"_. c #3BD5D4",
"`. c #05F8F7",
"'. c #01E7E6",
"]. c #69C3C3",
"[. c #45E9E8",
"{. c #838383",
"}. c #8A8A8A",
"|. c #8E8E8E",
" X c #8E8A8A",
".X c #888884",
"XX c #93938F",
"oX c #9A968D",
"OX c #828A92",
"+X c #8B8D92",
"@X c #918F90",
"#X c #879697",
"$X c #939494",
"%X c #9A9A97",
"&X c #9E9F9F",
"*X c #9A9B9B",
"=X c #969998",
"-X c #968C8B",
";X c #AD9785",
":X c #A9859F",
">X c #AB9F95",
",X c #A19D9C",
"<X c #B39B85",
"1X c #A4A48F",
"2X c #A3A29F",
"3X c #B8A392",
"4X c #9A9BA7",
"5X c #9E9FB8",
"6X c #8787B8",
"7X c #85ADAE",
"8X c #9AA4A5",
"9X c #A4A3A2",
"0X c #A4A9A9",
"qX c #ABAAAA",
"wX c #ACA8A3",
"eX c #BAB3AD",
"rX c #ACAEB0",
"tX c #AEB6B9",
"yX c #B6B5B3",
"uX c #B4B4B4",
"iX c #B5B7B9",
"pX c #BBBBBA",
"aX c #BCB9B3",
"sX c #B3ADA6",
"dX c #C6A485",
"fX c #C8A78A",
"gX c #D8AF8A",
"hX c #D7AB85",
"jX c #DDB28A",
"kX c #C6AC99",
"lX c #D9B393",
"zX c #E0B084",
"xX c #C8BAAC",
"cX c #D5BBA6",
"vX c #C3BBBB",
"bX c #BFC2BD",
"nX c #C8C2BB",
"mX c #D4C4BF",
"MX c #A39AD3",
"NX c #B0A6CE",
"BX c #BBBBC3",
"VX c #AEACD6",
"CX c #8584EC",
"ZX c #9B98E0",
"AX c #9B9AF1",
"SX c #B8BAE5",
"DX c #BCC3C6",
"FX c #CBCBCB",
"GX c #C6C3C5",
"HX c #D3CECB",
"JX c #DACFC9",
"KX c #C3C3D6",
"LX c #C9CAD8",
"PX c #D5D4D4",
"IX c #DBDCE1",
"UX c #E4E4E2",
/* pixels */
"d.s.j.,X0.=.~ ~ ~ ~ ~ ~ ~ ~ ~ ~ ~ ~ ~ ~ ~ ~ ~ ~ =.4.>XR.s.d.",
"s.OX9.^ P G G G G G G G G G G G G G G G G G G G G P ( >.}.s.",
"R.8.G G G G G G G G G G G G G G G G F F G G G G G G G G ,.E.",
">X~ G P P P P P P P P P P P P G H T :./ G P P P P P P P ( dX",
"4.U P P P P P P P P T P G F F -.e.zXxXlX^ G P P P P P P P =.",
";.P P P P P F m I I m F T :.<.kXFXiXdX5.:.G P P P P P P P ! ",
"~ P P P G ^ w.t.jXjXr.e.6.{ ` &XGXwXq.Q P P P P P P P P P ~ ",
"~ L L L H ;.kXtXrXtXnX{.: @ + %XaX9XeXe.L L L I I L L L H ~ ",
"~ K K K J w.kX,X2X9X0X;   . o ].!.: uXgXJ L K H M H L K K ~ ",
"~ D D D *.<X*XyX{.|.qX; O $ * /.L.> pXjXY J Q ,.t.*.D D D ~ ",
"~ D D S *.' 3 yX%X{.0XY./.'.`.U., |.pXhXR gXcXxXeXq.J S D ~ ",
"! A A S &.' 2 yXGX) =X~._._.].#X X=XpXcXfXiXDX3XO.R J S A ! ",
"~ A A A &.' 2 yXBX3 $XqXtXDXvXGXiX4X}.< < uXpXsXq.Z A A A ~ ",
"~ C C C %.] 2 yXCXa.oXqX9X9X&XuX9X@ + . ; tX$X$XxXo.C C C ~ ",
"~ V V V %.] 1 aXF.k.1XuXqX0X&XqX}.+ X . % [.- < nX@.c C V ! ",
"! V V c | ' 1 aXAXc.x..X*XrX< 9X+X# & K.I.P.= $XnX+.z V c W ",
"W x x z | ' 2 yXIXA.V.g.{.FX$X@X7X(.`.`.).W.{.9XvXO.y c z ! ",
"! x x z | ' 1 yXUXLXNXg.) FX9X4 8X^.Q.!.#X=XXX4XvX+.y x z E ",
"! x x l N [ 3 uXUXJXnX) 4 LX6X3 &X|.-X,X%XXXz.Z.MX@.e x l ! ",
"! l l l x o.;X3XlX3.6.v T.KXZ.5 9X|.+XbX5Xl.m.N.NX+.e l l ! ",
"! g g g g g | | d e X.v f.KXB.p.|.{.}.BXD.b.b.A.GX#.e g e ! ",
"! g g f g g r r g f 2.v f.PXCXv.y.i._ pXZ.b.M.SXPX..w g w ! ",
"! d d d d d f d d d 1.v f.PXPXD.N.n.u.C.S.G.VXmXkXn w d w ! ",
"! a a q a a a a a q 2.v H.PXUXIXSXZXC.J.:X0.O.b j p a a q ! ",
";.p q q p p p p p 0  .;X{.HXJXcXgX5.O.N h 7 9 t q q p q 0 E ",
"@.f 0 0 0 0 0 0 0 0 i } [ 3.} k u 7 7 8 8 0 i i i 0 0 0 q *.",
"3XB 8 0 0 0 0 0 0 0 8 0 j i 7 8 8 0 0 i i 0 0 0 0 0 0 6 h 7.",
"E.>.8 6 6 6 6 6 6 6 6 6 7 6 6 6 6 6 6 6 6 6 6 6 6 6 6 7 $.OX",
"h.$X*.h 6 6 6 6 6 6 6 6 6 6 6 6 6 6 6 6 6 6 6 6 6 6 s $.oXh.",
"d.h.OX7.$.E E E E E E E E E E E E E E E E E E E E E 4.+Xh.d."
};
