/* XPM */
static char *FA_PozoFecal_N[] = {
/* columns rows colors chars-per-pixel */
"30 30 215 2 ",
"   c gray7",
".  c #161616",
"X  c #11181B",
"o  c #161A1C",
"O  c #1A1818",
"+  c #1E1D1D",
"@  c #39281E",
"#  c #232222",
"$  c #252423",
"%  c #272727",
"&  c #2C2623",
"*  c #2E2D2C",
"=  c #362E28",
"-  c #373737",
";  c #3D3531",
":  c #742F00",
">  c #753200",
",  c #7B3500",
"<  c #7A3A00",
"1  c #7A3D01",
"2  c #7E3F01",
"3  c #7C3C06",
"4  c #703E0D",
"5  c #604130",
"6  c #664430",
"7  c #7A4E33",
"8  c #695038",
"9  c gray29",
"0  c #594E47",
"q  c #4D5051",
"w  c #565656",
"e  c #5A5957",
"r  c #5A5A5A",
"t  c #5C5B5B",
"y  c #5D5C5A",
"u  c #5B5B5C",
"i  c #5D5D5D",
"p  c #635242",
"a  c #705B45",
"s  c #665D53",
"d  c #615F5C",
"f  c #6E6053",
"g  c #6D6255",
"h  c #62605E",
"j  c #5F6061",
"k  c #616162",
"l  c #646363",
"z  c #636463",
"x  c #626364",
"c  c #636464",
"v  c #656565",
"b  c #6A6766",
"n  c #6F6A66",
"m  c #666769",
"M  c #676868",
"N  c #6A6A6A",
"B  c #6E6C69",
"V  c #6B6C6C",
"C  c #6D6E6E",
"Z  c #706F6D",
"A  c #73706E",
"S  c #74716F",
"D  c #6B6E70",
"F  c #6F7274",
"G  c #727272",
"H  c #757472",
"J  c #767575",
"K  c #787674",
"L  c #76797B",
"P  c #777B7E",
"I  c #797979",
"U  c #787B7E",
"Y  c #7E7E7E",
"T  c #824305",
"R  c #824509",
"E  c #85480F",
"W  c #895019",
"Q  c #855423",
"!  c #8D5520",
"~  c #8D5828",
"^  c #915B25",
"/  c #935F2D",
"(  c #8C583A",
")  c #956433",
"_  c #966534",
"`  c #986634",
"'  c #A4623A",
"]  c #896745",
"[  c #8E6C4B",
"{  c #8A755F",
"}  c #997A5B",
"|  c #AB6841",
" . c #B46D44",
".. c #B86F46",
"X. c #A3784F",
"o. c #A37D57",
"O. c #A57F57",
"+. c #C57447",
"@. c #CB7849",
"#. c #D37D4B",
"$. c #D57D4B",
"%. c #C37C53",
"&. c #CD7E51",
"*. c #9B897F",
"=. c #A38669",
"-. c #A68768",
";. c #AD8C6D",
":. c #B28B64",
">. c #AB8975",
",. c #AC8A76",
"<. c #AF8F7D",
"1. c #B78F78",
"2. c #B59778",
"3. c #C4815C",
"4. c #D69B7A",
"5. c #65788B",
"6. c #66798D",
"7. c #687B8F",
"8. c #6A7D8F",
"9. c #797C80",
"0. c #7C7F82",
"q. c #697D90",
"w. c #6E7F91",
"e. c #7B8084",
"r. c #7C8187",
"t. c #7F8489",
"y. c #6E8090",
"u. c #728291",
"i. c #748393",
"p. c #768593",
"a. c #7A8693",
"s. c #788694",
"d. c #7B8896",
"f. c #808080",
"g. c #868686",
"h. c #898784",
"j. c #82888C",
"k. c #8A8A8A",
"l. c #8C8A88",
"z. c #8E8E8E",
"x. c #928F8C",
"c. c #998E89",
"v. c #858C92",
"b. c #868F99",
"n. c #86909B",
"m. c #929292",
"M. c #959391",
"N. c #909397",
"B. c #939495",
"V. c #959595",
"C. c #999796",
"Z. c #999999",
"A. c #9E9F9E",
"S. c #A19F9E",
"D. c #BCA48D",
"F. c #BAA590",
"G. c #B3A699",
"H. c #9D9EA1",
"J. c #9BA0A5",
"K. c #9EA2A5",
"L. c #A2A2A1",
"P. c #A3A4A5",
"I. c #A7A6A6",
"U. c #A8A7A6",
"Y. c #ABAAAA",
"T. c #ABADAD",
"R. c #ADADAD",
"E. c #B0AFAD",
"W. c #B7B2AE",
"Q. c #B2B1B1",
"!. c #B6B4B2",
"~. c #B3B5B7",
"^. c gray71",
"/. c #BBB9B6",
"(. c #BCB8B4",
"). c #B5B9BE",
"_. c #B9B9B9",
"`. c #BEBBB8",
"'. c #BEBDBA",
"]. c #BDBDBD",
"[. c #C4AE98",
"{. c #C4B09C",
"}. c #C6B3A0",
"|. c #C6B9AA",
" X c #CABEB1",
".X c #CBC1B7",
"XX c #CFC1B4",
"oX c #C0C0BF",
"OX c #AFB9C2",
"+X c #BEBFC2",
"@X c #BFC0C2",
"#X c #C1C1C1",
"$X c #C6C6C5",
"%X c #C9C9CA",
"&X c #CACCCC",
"*X c #CFCFCE",
"=X c #D5CCC1",
"-X c #DAD4CF",
";X c #D3D3D3",
":X c #D5D4D3",
">X c #D6D6D6",
",X c #D8D8D8",
"<X c #DDDDDD",
"1X c #E0DAD4",
"2X c #E1DDDA",
"3X c #E1DFDF",
"4X c #E1E0DE",
"5X c #DDE0E2",
"6X c #DFE2E5",
"7X c #E1E1E1",
"8X c #E7E6E6",
"9X c #E3E5E8",
"0X c #E6EAEE",
"qX c #E8E9E9",
"wX c #EAECEE",
/* pixels */
"6.6.8.n.t.m r u u u u u u u u u u u u u u u u r x 9.n.w.6.6.",
"5.i.0.V G Y f.Y f.f.f.f.f.f.f.f.f.f.f.f.f.f.Y f.Y H C L u.5.",
"w.U G f.Y Y Y Y Y Y Y Y Y Y Y Y Y Y Y Y Y Y Y I Y Y f.J G y.",
"b.C f.Y Y Y Y Y Y Y Y Y Y Y Y Y Y Y Y Y I J I k.g.Y Y f.G v.",
"P H Y Y Y Y Y Y Y Y Y Y Y Y Y Y f.Y Y g.z.P.Y.#X#Xm.Y Y I m ",
"k Y Y Y Y Y Y Y f.f.Y Y f.f.Y Y I J f.I.%X,X%X^._.L.f.Y Y u ",
"r Y Y Y Y Y Y I I I k.f.I I I f.z.P.P.I.>XL.Z.k.J g.f.Y Y u ",
"u Y Y Y Y Y k.P.Q._.$X$XL.Z.Y.^.T.z.k.A.>XR.Y.U.f.I Y Y Y u ",
"r I I I I I m.P.Y.].P.Q.>XR.I r 9 % - L.*XR.Q.Q.A.Y I I Y r ",
"r I I I I I V.Y.Z.Z.Z.k.>XJ +   . O * Q.].b m.Q.Q.k.J I I u ",
"r I I I I z.Y.Q.R.Y.Q.V.>Xz + $ # X = 4.1.@ q $X_.Y J I I r ",
"r J J G Y m.g.L.R.Y.i J <Xv o o & 5 6 ..' ; I *X].I H J J r ",
"r J J G Y z.G Y I.%XC J <Xv 7 |  .@.+.( 0 I Z.%X'.I G J J r ",
"r G G G Y z.I v Y.7XL.Z ~.<.%.$.#.&.3.*.z.m.m.&X_.J G G H r ",
"r G G C I z.I v R.7XP.N Z.S.M.,.>.c.m.V.V.B.m.&X`.H C G G r ",
"r C C V J z.I c T.7XL.N Z.A.m.m.m.V.m.m.B.m.] [.+XS C C G r ",
"r C C V J k.I l T.1X} s H.A.z.Y I.].H.B.x.] 2 {.@XS V C C r ",
"r V V N H k.I v T.2X^ p J.I.g.f.Q.#X`.{ Q 2 R }.@XA N V V r ",
"r V V N G k.I v R.2X/ 8 j.K.N.J R.oX;., T , ) -X/.A N V V r ",
"r N N v G k.I c Y.qXo.1 a g f M I.'.O.3 < E F.9XW.Z v N N r ",
"r v v c G k.I v Y.wX.X^ > 1 < n OX#X_ : ~ D.0XqX(.Z c v v r ",
"r v v z C k.I v T.8X6X|.O.! W 4 [ -.` 2.=X;X/.!.l.b v v v r ",
"r c c k C g.H v Y.8X:X6X5X XXX:.X.=.G.).A.h.B v i z c z c r ",
"r k k k c z.z.i T.qX7X3X4X>XR.U.V.0.I h e i k x c z k k k r ",
"u k k k i C L.I Y.;XE.C.f.K h d y r t k x k k k k k k k k r ",
"F i i i i u V z.z.G v i w r i i i k k h i i i i i i i i i j ",
"b.j i i i i u v k r u i i i i i i i i i i i i i i i i i u e.",
"u.D r u u u u r r i u u u u u u u u u u u u u u u u u r z p.",
"7.d.c u r r r u u r r u u u u u u u u u u u u u u r r k a.8.",
"6.6.i.r.u r r r r r r r r r r r r r r r r r r r r r L s.q.5."
};
