/* XPM */
static char *FA_PozoPluvial_NR[] = {
/* columns rows colors chars-per-pixel */
"30 30 256 2 ",
"   c #1A1C1C",
".  c #161414",
"X  c #220E0E",
"o  c #211313",
"O  c #201E1E",
"+  c #1D2F2F",
"@  c #262828",
"#  c #213C3B",
"$  c #373737",
"%  c #0F4343",
"&  c #2B4141",
"*  c #3D5F5F",
"=  c #127676",
"-  c #585C5F",
";  c #4E4B4C",
":  c #605D5B",
">  c #535379",
",  c #676565",
"<  c #656363",
"1  c #6B6A6B",
"2  c #666867",
"3  c #6E7174",
"4  c #747576",
"5  c #74777B",
"6  c #74787C",
"7  c #73787C",
"8  c #7C7A7A",
"9  c #666677",
"0  c #CE6E1E",
"q  c #CE6D1B",
"w  c #D26B15",
"e  c #D26E1B",
"r  c #CF701F",
"t  c #D2701F",
"y  c #D5721E",
"u  c #D6701A",
"i  c #DA751E",
"p  c #DB751D",
"a  c #D97017",
"s  c #E4791D",
"d  c #E47B1E",
"f  c #CC6E2A",
"g  c #CE762C",
"h  c #D57320",
"j  c #D67421",
"k  c #D37222",
"l  c #D97621",
"z  c #D97624",
"x  c #DE7922",
"c  c #D97829",
"v  c #D3752B",
"b  c #D77D33",
"n  c #DA7D37",
"m  c #D47B38",
"M  c #D97D38",
"N  c #E17A21",
"B  c #E57D22",
"V  c #E67F24",
"C  c #E27C22",
"Z  c #E97E21",
"A  c #E27F2C",
"S  c #EB801E",
"D  c #FE891E",
"F  c #DF802D",
"G  c #CE813B",
"H  c #DF8236",
"J  c #D8843D",
"K  c #E98125",
"L  c #ED8324",
"P  c #E5822D",
"I  c #EA862F",
"U  c #ED882F",
"Y  c #F18626",
"T  c #F48522",
"R  c #F68927",
"E  c #FE8A22",
"W  c #FE8E26",
"Q  c #FB8B24",
"!  c #F68A28",
"~  c #F88B28",
"^  c #FA8D29",
"/  c #FE8F29",
"(  c #FB8E2E",
")  c #F28728",
"_  c #FF902C",
"`  c #FE902A",
"'  c #FF9025",
"]  c #E78835",
"[  c #F38C30",
"{  c #F38F3E",
"}  c #F58F3E",
"|  c #F88F31",
" . c #EC913E",
".. c #F59136",
"X. c #FB9235",
"o. c #F3903E",
"O. c #F5913E",
"+. c #F9943A",
"@. c #8C8C78",
"#. c #B98F6A",
"$. c #BD916B",
"%. c #D9945C",
"&. c #D3894F",
"*. c #EC8E42",
"=. c #EB9247",
"-. c #EE954B",
";. c #E29140",
":. c #F29343",
">. c #F39845",
",. c #F59C4D",
"<. c #E59A59",
"1. c #F29C53",
"2. c #EEA35F",
"3. c #F3A056",
"4. c #C2946C",
"5. c #C9976B",
"6. c #DB9B69",
"7. c #D39F76",
"8. c #C89870",
"9. c #E09E68",
"0. c #DFA16B",
"q. c #D7A277",
"w. c #E5AA74",
"e. c #F3AE70",
"r. c #F1B27A",
"t. c #F6AE6B",
"y. c #38389B",
"u. c #434283",
"i. c #555486",
"p. c #454599",
"a. c #61778D",
"s. c #65798C",
"d. c #627A90",
"f. c #6F7F90",
"g. c #605FB6",
"h. c #0302EF",
"j. c #0100F2",
"k. c #0000FE",
"l. c #0404FB",
"z. c #0C0AF7",
"x. c #100FFA",
"c. c #1B19F8",
"v. c #2423FB",
"b. c #2B2BF7",
"n. c #3434F7",
"m. c #2423E4",
"M. c #0F0DD0",
"N. c #4847CC",
"B. c #5C5BD5",
"V. c #7C6CD0",
"C. c #514FF6",
"Z. c #5857F1",
"A. c #5857ED",
"S. c #5C63FF",
"D. c #696AE7",
"F. c #7477F3",
"G. c #0CAAA9",
"H. c #0B9493",
"J. c #748291",
"K. c #788592",
"L. c #7F9E9E",
"P. c #7C848C",
"I. c #55BEBE",
"U. c #6EA6A5",
"Y. c #60C0BF",
"T. c #00C9C9",
"R. c #05D7D5",
"E. c #03E1E1",
"W. c #00FDFD",
"Q. c #06F5F5",
"!. c #14EAE9",
"~. c #20E9E9",
"^. c #45F5F5",
"/. c #54CDCC",
"(. c #8C8B8B",
"). c #838384",
"_. c #918F8E",
"`. c #98948C",
"'. c #828A92",
"]. c #8B8D94",
"[. c #969591",
"{. c #959495",
"}. c #939292",
"|. c #9A9997",
" X c #9B9B9B",
".X c #AF9E8D",
"XX c #A79D96",
"oX c #A4A495",
"OX c #A0A09C",
"+X c #B7A190",
"@X c #9EA4A6",
"#X c #A1A1A2",
"$X c #A6A6A4",
"%X c gray67",
"&X c #ADADAB",
"*X c #AEAEAD",
"=X c #A9ABAD",
"-X c #A4A7AC",
";X c #BAB1A9",
":X c #ABAFB3",
">X c #B2B2B2",
",X c #B9B4B1",
"<X c #BDBCBD",
"1X c #B3B8BD",
"2X c #B0AFAE",
"3X c #C9A486",
"4X c #D3AA85",
"5X c #C1AE9D",
"6X c #C8AD93",
"7X c #D1AB93",
"8X c #CFB29F",
"9X c #D9B89A",
"0X c #E1B287",
"qX c #F2BF90",
"wX c #F0B887",
"eX c #CBB3A8",
"rX c #D6BCAC",
"tX c #D7BBA5",
"yX c #D1B9B3",
"uX c #C2C29B",
"iX c #EBC592",
"pX c #DCC2AC",
"aX c #C1C0BF",
"sX c #DBCBBD",
"dX c #E1C6AA",
"fX c #E3C8AB",
"gX c #E1C8B1",
"hX c #AF9DC0",
"jX c #BBBBC4",
"kX c #B7B7DE",
"lX c #9797E6",
"zX c #9092EE",
"xX c #9CA0ED",
"cX c #ADB3ED",
"vX c #B1B1E2",
"bX c #AAAAE2",
"nX c #BEC1E9",
"mX c #C0C7CC",
"MX c #C6CACD",
"NX c #CBCCCC",
"BX c #DDD4CD",
"VX c #C8CFD2",
"CX c #CED6DF",
"ZX c #D5D5D5",
"AX c #D9D7D4",
"SX c #DDDDDD",
"DX c #E4D7CA",
"FX c #E6E5D9",
"GX c #E5E5DA",
"HX c #CACFE7",
"JX c #DADCE7",
"KX c #D4D4EB",
"LX c #DDE3E8",
"PX c #E1E1E1",
"IX c #EBECE5",
"UX c #E6E6E7",
/* pixels */
"s.a.f.XXq.-.O.O.O.O.O.O.O.O.O.O.O.O.O.O.O.O.O.O.-.6.XXJ.a.s.",
"a.'.0.+./ W W W W W W W W W W W W W W W W W W W / / ..<.(.a.",
"J.9.W W W W W W W W W W W W W W W W W / / ` W E E W W W 1.K.",
"XXO.W / / / / / / / / / / / / / / / / W E D E +.X.W W / X.3X",
"6.( / / / / / / / / / / / / / / / / / X.,.t.r.gXpX,.W / / -.",
":./ / / / / / / _ _ W W _ _ / W E D ..4XsXCXmX,X1Xw._ / / o.",
"O./ / / / / W E E Q >...E D ~ X.,.e.4X@XZX#X.X%.G  .` / W O.",
"O.^ ^ ^ ^ W >.w.wXqXgXfXe.2.0X9X5X_.(.OXAX=X&Xr.' D ^ ^ Q O.",
"O.~ ~ ~ ~ Q <.$X=X<X@X:XAX;X5 - ; @ $ #XNX*X>X>Xw.( ~ ~ ~ O.",
"O.! ! ! R R 3.6X X|.|.(.ZX4 O . .   @ >X<X2 [.:XeX>.T ! R O.",
"O.R R R R <.5X;X*X&X>X{.ZX<   @ @ X # ^./.% ; mXtX .T ! R O.",
"o.Y Y T | 8.P.#X*X%X- 4 SX, o o + = = E.T.& 8 VXpX] T ) Y o.",
"O.Y Y T [ 4.3 8 $XNX1 4 SX, H.R.R.W.Q.G.* 8 |.MXpX] T Y Y O.",
"O.L L L [ 4.5 , %XPX#X3 ,XY.!.W.W.Q.~.U.(.}.[.MXrX] T L L O.",
"O.L K Z [ 4.6 , *XPX$X2  X@X}.I.I.L.}.{.{.[.}.MXrXH L K K o.",
"o.K K Z U 4.7 , &XPX#X2  X X}._.}.{.}.}.[.}.N.zXdXn S K Z } ",
"} V V B I 4.5 < &XKXB.> oX X(.8 $X<XOX[.].N.k.lXdXM d V B o.",
"o.B B d I $.7 < &XJXv.u.oX-X).).>XaXjXg.m.l.z.xXdXM d V B { ",
"o.C C s P $.6 , &XJXb.y.@.oX`.4 *XjXD.k.l.k.n.HXrXM d C N o.",
"o.N N s P $.5 < =XIXA.h.p.i.i.2 $XjXZ.l.k.x.lXGXeXM s N N o.",
"o.x x p P $.6 , =XIXkXv.k.j.j.9 uXaXn.k.b.zXIXLXyXm s x p o.",
"o.x x p A $.6 , &XUXGXbXZ.v.c.M.N.D.n.F.nXBXyXtX6.c p x i o.",
"o.l l i F #.4 , %XUXZXFXFXvXcXS.C.V.hXiXq.%.m v a i l l i o.",
"o.j j y l 5.].: &XUXLXJXJXDX9X7Xq.;.J f w u a i j j j j y o.",
":.h y h y b 3X8 -XDX8Xq.&.&.f f 0 w e y j j j h h y h y t { ",
"%.z t t t e b 8.5.J g e w w y y y k k k t t t t t t t t y =.",
"+XH e t t t q c j w e t k k t t t t t t t t t t t t t 0 c 7.",
"K.<.e 0 0 0 0 q q r 0 0 0 0 0 0 0 0 0 0 0 0 0 0 0 0 0 q *.'.",
"d.}.=.c 0 0 0 0 0 0 0 0 0 0 0 0 0 0 0 0 0 0 0 0 0 0 k *.`.d.",
"s.d.'.7.*.{ { { { { { { { { { { { { { { { { { { { { 6.].d.s."
};
