/* XPM */
static char *FA_PozosFecales_NR[] = {
/* columns rows colors chars-per-pixel */
"30 30 256 2 ",
"   c #14110F",
".  c #141719",
"X  c #1A1B1A",
"o  c #232323",
"O  c #292829",
"+  c #2C2421",
"@  c #3A3C3E",
"#  c #773200",
"$  c #7B3901",
"%  c #4A372D",
"&  c #78430D",
"*  c #5F402F",
"=  c #534036",
"-  c #6D4722",
";  c #7F5224",
":  c #624738",
">  c #6E5033",
",  c #7D583D",
"<  c #464544",
"1  c #495057",
"2  c #5B5755",
"3  c #6A584D",
"4  c #725C44",
"5  c #766759",
"6  c #686767",
"7  c #6F6F71",
"8  c #6F7072",
"9  c #7C7A77",
"0  c #7A7A7A",
"q  c #7F7E7D",
"w  c #747677",
"e  c #766B65",
"r  c #824B16",
"t  c #905822",
"y  c #905D2B",
"u  c #825337",
"i  c #955D3D",
"p  c #986A3C",
"a  c #A5613B",
"s  c #CE6E1E",
"d  c #CE6D1A",
"f  c #D16D1A",
"g  c #D16F1D",
"h  c #D56F19",
"j  c #D36D15",
"k  c #D2701F",
"l  c #D5721F",
"z  c #DD751B",
"x  c #DA751D",
"c  c #DD761E",
"v  c #E47A1E",
"b  c #E1771B",
"n  c #CF6F20",
"m  c #CF772D",
"M  c #D27221",
"N  c #D57320",
"B  c #D77420",
"V  c #D47626",
"C  c #DA7621",
"Z  c #DB7622",
"A  c #DE7921",
"S  c #D67A2D",
"D  c #D9792A",
"F  c #E17A21",
"G  c #E57D22",
"H  c #E67F24",
"J  c #E27C22",
"K  c #E97E21",
"L  c #976D44",
"P  c #936C54",
"I  c #887055",
"U  c #9A7652",
"Y  c #BC7044",
"T  c #A67A56",
"R  c #BC7E5B",
"E  c #A76946",
"W  c #8A7A6E",
"Q  c #8C7D6D",
"!  c #827D78",
"~  c #CA794A",
"^  c #CD7E51",
"/  c #FF891E",
"(  c #FB861C",
")  c #D68037",
"_  c #D6833C",
"`  c #DF873B",
"'  c #DE8236",
"]  c #E98124",
"[  c #EE8425",
"{  c #ED8223",
"}  c #ED872B",
"|  c #F18626",
" . c #F58625",
".. c #F18423",
"X. c #F58927",
"o. c #FE8A22",
"O. c #FF8C22",
"+. c #FE8E26",
"@. c #FA8A25",
"#. c #F2892A",
"$. c #F58C2C",
"%. c #F88B28",
"&. c #FA8D29",
"*. c #FE8E29",
"=. c #FB8E2C",
"-. c #FC8E2D",
";. c #FE902C",
":. c #E58B3C",
">. c #EE8B32",
",. c #F38F3E",
"<. c #F58F3E",
"1. c #F3903E",
"2. c #F5913E",
"3. c #F7933A",
"4. c #FA943B",
"5. c #F89135",
"6. c #AC845E",
"7. c #B68559",
"8. c #9F866B",
"9. c #82817F",
"0. c #9C897C",
"q. c #A98867",
"w. c #B98669",
"e. c #B7946F",
"r. c #A18E7C",
"t. c #A18C7C",
"y. c #AB8772",
"u. c #AD9179",
"i. c #B1967A",
"p. c #BE9B7F",
"a. c #DD8B43",
"s. c #DF8C43",
"d. c #D08749",
"f. c #D48C4D",
"g. c #CA905F",
"h. c #DC9454",
"j. c #D6945B",
"k. c #DA9459",
"l. c #DF985F",
"z. c #EC8E42",
"x. c #E38E43",
"c. c #E69145",
"v. c #EB9346",
"b. c #EE954B",
"n. c #EE994C",
"m. c #F29342",
"M. c #FB9A42",
"N. c #E29554",
"B. c #ED9E58",
"V. c #F29C53",
"C. c #F7A65C",
"Z. c #C89161",
"A. c #CF9667",
"S. c #C59367",
"D. c #D59C6A",
"F. c #DB9E6B",
"G. c #C99975",
"H. c #D19F78",
"J. c #D49E73",
"K. c #E09E68",
"L. c #DFA16B",
"P. c #DCA676",
"I. c #D0A079",
"U. c #D8A678",
"Y. c #DEA97B",
"T. c #E6A265",
"R. c #E3A46A",
"E. c #EEA869",
"W. c #EAAC75",
"Q. c #61778D",
"!. c #65798C",
"~. c #7E7F80",
"^. c #627A90",
"/. c #6F7F90",
"(. c #807F80",
"). c #7F8081",
"_. c #748291",
"`. c #788592",
"'. c #838384",
"]. c #888887",
"[. c #868788",
"{. c #8E8E8E",
"}. c #8B8B8B",
"|. c #948F8C",
" X c #9B918C",
".X c #838A91",
"XX c #8D8E91",
"oX c #8D9193",
"OX c #919192",
"+X c #949495",
"@X c #999897",
"#X c #959799",
"$X c #9A9A9B",
"%X c #9F9E9E",
"&X c #9F9C98",
"*X c #999896",
"=X c #A89586",
"-X c #B39583",
";X c #BA9F84",
":X c #B39B85",
">X c #AB9F95",
",X c #A09C9B",
"<X c #A69A91",
"1X c #A2A19E",
"2X c #ACA59E",
"3X c #B7A190",
"4X c #BAA492",
"5X c #9A9FA4",
"6X c #A1A2A2",
"7X c #A5A5A5",
"8X c #A2A3A4",
"9X c #A9A7A5",
"0X c #AAAAAA",
"qX c #ADACAB",
"wX c #ACA8A3",
"eX c #B0AFAF",
"rX c #B3ADA6",
"tX c #B9B3AD",
"yX c #BAB1A7",
"uX c #A9ADB0",
"iX c #AEB4BA",
"pX c #B2B2B1",
"aX c #B6B6B5",
"sX c #B6B4B3",
"dX c #B7B9BA",
"fX c #BEBCBB",
"gX c #BBBBBA",
"hX c #B6B5B5",
"jX c #C8A585",
"kX c #D9AF89",
"lX c #D5AC88",
"zX c #DFB086",
"xX c #DFB38D",
"cX c #C4AC94",
"vX c #C2AE9C",
"bX c #C8B29C",
"nX c #D5B499",
"mX c #E0B186",
"MX c #CBBBAC",
"NX c #C3B8AD",
"BX c #D9BCA4",
"VX c #C6BFB9",
"CX c #C1C0BF",
"ZX c #CCC3BA",
"AX c #D7C6B7",
"SX c #B9C0C6",
"DX c #C4C3C3",
"FX c #CCCBCA",
"GX c #CDC8C3",
"HX c #D5CEC8",
"JX c #D5D0CB",
"KX c #D4D3D2",
"LX c #DBD6D1",
"PX c #DADBDD",
"IX c #E1E0DD",
"UX c #E3E4E4",
/* pixels */
"!.Q./.,XI.b.2.2.2.2.2.2.2.2.2.2.2.2.2.2.2.2.2.2.b.F.>X_.Q.!.",
"Q..XL.3.*.+.+.+.+.+.+.+.+.+.+.+.+.+.+.+.+.+.+.+.+.*.5.B.}.Q.",
"_.K.+.+.+.+.+.+.+.+.+.+.+.+.+.+.+.+.o.O.+.+.+.+.+.+.+.+.V.`.",
">X2.+.*.*.*.*.*.*.*.*.*.*.*.*.O.+.;.M.4.+.*.*.*.*.*.*.*.5.jX",
"F.-.*.*.*.*.*.*.*.*.;.*.+.o.o.n.R.mXMXnX3.+.*.*.*.*.*.*.*.b.",
"m.*.*.*.*.+.O./ -.=./ o.;.M.C.vXFXdXjXD.M.+.*.*.*.*.*.*.*.1.",
"2.*.*.*.+.3.T.W.mXxXE.R.G.u.0.%XDXwXP.$.&.*.*.*.*.*.*.*.*.2.",
"2.&.&.&.o.m.cXiXuXiXCX'.1 @ O #XdX8XtXR.&.&.&.=.=.&.&.&.@.2.",
"2.%.%.@.$.T.vX,X1X8X7X<   . . -X0.2 pXkX#.&.%.@.( @.%.%.@.2.",
"2.X.X.@.v.:X$XsX'.{.0X< + % : E , 2 gXzX| #.>.V.W.v.X.X.X.2.",
"2.X.X. .v.r.w aX@X'.9XP a Y ~ P e XXgXY.:.kXBXMXtXU.$. . .2.",
"1.| |  .c.r.8 aXDX~.*X=Xw.w.-X|.}.*XfXBXjXaXSX4Xh.:.#.| | 1.",
"2.| | ..c.r.8 aXVX9 OX0XpXDXfXDXaX1X}.6 6 aXfXrXF.} ..| ..2.",
"2.[ [ { x.t.8 aX;X5 #XqX8X8X%XpX6X@ o . < sX+X+XNXN.{ [ [ 2.",
"2.] ] { x.t.8 dXe.4 5XpX0X9X%X0X}.o X . = G.: 6 ZXh.K { { 1.",
"1.] ] K s.t.7 dXbX; Q [.$XeX6 7X|.% * u i i 3 OXZXh.v ] K <.",
"<.H H G a.r.8 aXIXT U 9 '.FX+XOX<XT ^ ^ R W '.8XVXh.v H G 1.",
"1.G G G a.0.7 sXUXJXyXq ~.FX7X0 1X Xy.t.|.+XOX&XMXh.v H G ,.",
"1.J J v ` i.0 pXUXJXZX9.q FX=X0 %X{.oX6X$X+XQ L cXk.b J F 1.",
"1.F F F J h.:X4XxXj.G.! ).GXL 0 7X{.|.CX2XI r y bXh.z F F 1.",
"1.A A A A A s.a.C c g.! ~.GXp 5 {.'.].fXy.$ $ T AXf.z A c 1.",
"1.A A Z A A z x A Z Z.! ~.KX;X& - > .XgXL # p ZXLXf.x A c 1.",
"1.C C C C C Z C C C Z.! ).KXLXq.t r , 8.U i.MXAXlX) x C x 1.",
"1.B B l B B B B B l Z.! (.KXUXPXZXcX6.7.S.U.k.) V l B B l 1.",
"m.N l l N N N N N k d.=X'.FXHXnXlXD.j._ S j j h l N N N k ,.",
"l.Z k k k k k k k k M d.p.A.d.m n f f f g M M M M k k k l v.",
"3X' g k k k k k k k g k S M f f g k k k k k k k k k k s D J.",
"`.N.g s s s s s s s s s d s s s s s s s s s s s s s s d z..X",
"^.OXv.D s s s s s s s s s s s s s s s s s s s s s s V z. X^.",
"!.^..XH.z.,.,.,.,.,.,.,.,.,.,.,.,.,.,.,.,.,.,.,.,.,.F.XX^.!."
};
