/* XPM */
static char *FA_PozosFecales_A_R[] = {
/* columns rows colors chars-per-pixel */
"30 30 256 2 ",
"   c #141416",
".  c #13181C",
"X  c #181B1C",
"o  c #272424",
"O  c #3D3C3A",
"+  c #783600",
"@  c #4A372D",
"#  c #78430E",
"$  c #7F4C1C",
"%  c #5F402E",
"&  c #59453B",
"*  c #6C4723",
"=  c #7F5225",
"-  c #624432",
";  c #6E5033",
":  c #7D583E",
">  c #464545",
",  c #504E4A",
"<  c #5B5755",
"1  c #69584E",
"2  c #725C45",
"3  c #766759",
"4  c #686768",
"5  c #706F6F",
"6  c #766B65",
"7  c #70706F",
"8  c #717070",
"9  c #777676",
"0  c #7C7A77",
"q  c #7A7A7A",
"w  c #7F7F7F",
"e  c #7C7D7D",
"r  c #834A13",
"t  c #8E5823",
"y  c #925D2A",
"u  c #825337",
"i  c #955D3F",
"p  c #986A3E",
"a  c #A5613C",
"s  c #976D44",
"d  c #956F48",
"f  c #8F6C57",
"g  c #976B52",
"h  c #887055",
"j  c #957351",
"k  c #BB7045",
"l  c #A37E59",
"z  c #AB7352",
"x  c #BC7E5B",
"c  c #A7714A",
"v  c #8A7A6E",
"b  c #857E78",
"n  c #CA794A",
"m  c #CD7E51",
"M  c #80807F",
"N  c #98867A",
"B  c #A58768",
"V  c #B98669",
"C  c #A68978",
"Z  c #B89571",
"A  c #CB9476",
"S  c #2F619B",
"D  c #30619B",
"F  c #31629D",
"G  c #33649E",
"H  c #34649E",
"J  c #3C699F",
"K  c #3567A1",
"L  c #3867A1",
"P  c #3968A1",
"I  c #3D6BA4",
"U  c #3E6CA5",
"Y  c #3B6BA5",
"T  c #3E6EA9",
"R  c #64778A",
"E  c #65788B",
"W  c #677A8C",
"Q  c #697B8C",
"!  c #687A8B",
"~  c #7D7E80",
"^  c #6B7E92",
"/  c #416FA7",
"(  c #416FA8",
")  c #4573AA",
"_  c #4775AD",
"`  c #4976AE",
"'  c #4A78AF",
"]  c #4973A6",
"[  c #517BAF",
"{  c #4E7BB1",
"}  c #4B7CB5",
"|  c #497DB9",
" . c #4C7FBB",
".. c #4C7EBC",
"X. c #4A7EBB",
"o. c #517EB3",
"O. c #517EB5",
"+. c #517FB8",
"@. c #6D8095",
"#. c #72879D",
"$. c #72869B",
"%. c #5D81AC",
"&. c #4D80BC",
"*. c #4C80BB",
"=. c #5582B7",
"-. c #5082BD",
";. c #5583B9",
":. c #5A86BA",
">. c #5C86B9",
",. c #5E8ABE",
"<. c #5B88BF",
"1. c #5882B3",
"2. c #6283AD",
"3. c #768CA3",
"4. c #768EAA",
"5. c #7790AF",
"6. c #628BBC",
"7. c #6A8FBB",
"8. c #6F8FB5",
"9. c #6C91BD",
"0. c #7492B6",
"q. c #7A93B2",
"w. c #7495BC",
"e. c #7D9ABD",
"r. c #628CC0",
"t. c #648EC3",
"y. c #6690C4",
"u. c #6C95C7",
"i. c #6C95CA",
"p. c #6F98CC",
"a. c #7599C2",
"s. c #7C9DC4",
"d. c #719BCE",
"f. c #749CCD",
"g. c #7196C0",
"h. c #769FD1",
"j. c #7DA2CE",
"k. c #7EA5D6",
"l. c #7BA2D3",
"z. c #7BA3D5",
"x. c #818181",
"c. c #848584",
"v. c #8E8E8E",
"b. c #8B8B8B",
"n. c #868788",
"m. c #948F8B",
"M. c #9E9089",
"N. c #878D95",
"B. c #88909A",
"V. c #8C939C",
"C. c #8D9193",
"Z. c #919192",
"A. c #959494",
"S. c #999795",
"D. c #92949A",
"F. c #9A9A9A",
"G. c #9F9E9E",
"H. c #979A9B",
"J. c #A49488",
"K. c #B39583",
"L. c #B99F85",
"P. c #A39B94",
"I. c #A2A09E",
"U. c #ACA59E",
"Y. c #BDAB9B",
"T. c #8897A9",
"R. c #919AA6",
"E. c #9D9FA2",
"W. c #829AB3",
"Q. c #819CBC",
"!. c #8A9BB1",
"~. c #98A1AC",
"^. c #8CA3BF",
"/. c #9EACBE",
"(. c #9DA6B1",
"). c #A1A2A2",
"_. c #A5A5A5",
"`. c #A3A4A4",
"'. c #A9A7A6",
"]. c #A9AAAA",
"[. c #ADACAB",
"{. c #B4ADA8",
"}. c #B9B2AA",
"|. c #A5ADB6",
" X c #AAB3BD",
".X c #B2B2B1",
"XX c #B5B6B6",
"oX c #B3B4B5",
"OX c #B6B9BC",
"+X c #BDBCBD",
"@X c #BABBBB",
"#X c #B4B5B8",
"$X c #C7B19B",
"%X c #C2BEBB",
"&X c #C7BCB4",
"*X c #CFC5BA",
"=X c #D2C5B8",
"-X c #829FC4",
";X c #82A3CB",
":X c #89A4C7",
">X c #9BAEC5",
",X c #97AAC1",
"<X c #9FB3C9",
"1X c #81A6D4",
"2X c #82A8D6",
"3X c #82A9DA",
"4X c #85ABDA",
"5X c #86ADDC",
"6X c #88AFDE",
"7X c #8AAEDA",
"8X c #8DADD3",
"9X c #89B0DE",
"0X c #8EB0DA",
"qX c #93B3D7",
"wX c #92B4DD",
"eX c #9AB7DB",
"rX c #9FBAD9",
"tX c #A5B7CC",
"yX c #ABBBCE",
"uX c #AAB6C5",
"iX c #B7BDC4",
"pX c #A1B7D1",
"aX c #A4BCDA",
"sX c #8DB3E1",
"dX c #92B6E2",
"fX c #95B7E0",
"gX c #96B9E3",
"hX c #9ABBE3",
"jX c #9FBDE2",
"kX c #9CBCE3",
"lX c #A1BFE3",
"zX c #A2BFE4",
"xX c #BEC1C3",
"cX c #BBC3CD",
"vX c #B6C0CB",
"bX c #AAC0DB",
"nX c #ADC0D7",
"mX c #B3C2D4",
"MX c #A4C1E4",
"NX c #A9C3E3",
"BX c #ABC4E3",
"VX c #ABC4E3",
"CX c #B6CBE5",
"ZX c #B6CCE5",
"AX c #B0C9E6",
"SX c #B0C7E5",
"DX c #C4C3C3",
"FX c #C2C5C9",
"GX c #CCCBCB",
"HX c #CDC9C3",
"JX c #D5D0CA",
"KX c #CACFD5",
"LX c #CED0D4",
"PX c #D5D6D5",
"IX c #E1E0DE",
"UX c #E3E4E4",
/* pixels */
"W E ^ W.e.,.&.-.-.-.-.-.-.-.-.-.-.-.-.-.-.-.-.&.<.a.W.^ E W ",
"R #.s.f.qXNXZXCXCXCXCXCXCXCXCXCXCXZXZXZXCXCXCXZXVXeXj.a.#.R ",
"^ a.7XAXVXBXNXNXNXNXNXNXNXNXNXNXNXNXMXNXNXNXNXNXBXVXSXeXu.@.",
"W.f.NXjXlXlXzXlXMXlXzXMXlXMXMXjXjXlXVXNXlXMXlXzXzXlXjXMX1XQ.",
"g.4XhXhXhXhXkXkXhXkXkXhXhXgXfXaXnXmXcXvXrXhXhXhXhXhXhXhXfX,.",
";.sXdXdXdXdXdXsXfXwXsXsXgXjXNX XGXXX X>XkXdXdXdXdXdXdXdXgX&.",
"..sXsXsXsXwXpXnXmXmXbXpX/.R.N.G.DX].yX0X9XsXsXsXsXsXsXsXdX&.",
"&.6X6X9X5XwX X.X[..XxXx., O o H.@X).#XpX7X9X9X9X9X9X6X6X9X&.",
"*.4X4X4X4XrX XE.).`._.>   . . K.N < .XyX2X5X4X3Xk.3X4X3X5X*.",
"..2X2Xk.8X~.F.oXx.v.].> o @ - c : < @XyXl.k.1XqXaX8Xk.k.3X .",
"*.l.l.z.8XV.9 XXF.c.'.f a k n g 6 v.@XtX-XyXcXiX#X<X1Xl.k.&.",
" .l.h.h.;XV.7 XXDX~ S.J.V V K.m.b.S.+XcX|.XX%X|.:X;Xl.h.l.*.",
"..f.d.d.;XV.8 XX%X0 Z.]..XDX+XFXXXI.b.4 4 XX+X|.>Xf.d.d.f...",
" .p.p.p.s.B.8 XXL.3 D.[.`.).G..X).O o   > XXA.A.OX:Xi.p.d...",
" .u.u.u.s.B.5 OXZ 2 E..X[.'.G.].b.o X . & A & 4 FX:Xy.u.u. .",
"X.y.y.t.a.B.5 OX$X= v n.F..X4 `.m.@ % u i i 1 Z.FX-Xr.y.y.X.",
"X.r.r.r.w.B.8 XXIXl j 0 c.GXA.Z.P.z m m x v x.`.xXQ.,.r.t.X.",
"X.,.,.,.w.B.5 oXUXJX}.e ~ GX_.q I.M.C C m.A.Z.P.+Xe.:.,.6.X.",
"X.:.:.;.7.T.q .XUXLXxXx.w GXJ.q G.v.C.).F.A.v d {.s.=.:.:.X.",
"| =.=.=.;.w.R.(.tXQ.!.e x.HXs q _.v.m.xXU.h $ y }.e.o.=.=.| ",
"X.O.O.O.o.o.9.7.[ { q.~ b HXp 3 v.c.n.+XB + + l FX0.{ O.o.X.",
"| { { { { { ` ' { { q.~ w LXL.# * ; N.@Xs + p =XPX5.' { { | ",
"| ` ` ` ` ` ` ` ` ` 5.~ M PXPXB t r : B c Z &XFX/.%._ ` ` | ",
"| ) ) ) ) ) ) ) ) ) 5.e w PXUXPX*XY.B N D.^.0.%.] ) ) ) ) | ",
"X.( / / / / / / ( U 2.T.c.GXKXuX,Xe.8.1.` P P Y T / / / / | ",
"6.T Y I I I I I I I U 2.!.q.2.] J J L L P U U U I I I I Y -.",
"W._ L P P P P P P P L P ( P H K K P P P P P P P P P P P U w.",
"@.>.G G H H H H H H H G D G H H H H H H H H H H H H H F O.#.",
"! 3.+.Y F D D D D D D D D D D D D D D D D D D D S D K } 4.Q ",
"E ! #.w.} | | | | | | | | | | | | | | | | | | | | | 7.3.Q E "
};
