/* XPM */
static char *FA_PozosPluviales_FS_R[] = {
/* columns rows colors chars-per-pixel */
"30 30 256 2 ",
"   c #1B1312",
".  c #191718",
"X  c #200F0F",
"o  c #1D2F2F",
"O  c #242526",
"+  c #353C3D",
"@  c #3E3E40",
"#  c #1C4F50",
"$  c #1B5858",
"%  c #285C5C",
"&  c #136F6F",
"*  c #167575",
"=  c #2D6B6B",
"-  c #3E7373",
";  c #444646",
":  c #4C5556",
">  c #576161",
",  c #5B7B7B",
"<  c #676768",
"1  c #6F7071",
"2  c #707172",
"3  c #7C7B7C",
"4  c #78787A",
"5  c #9F2F2C",
"6  c #9E302D",
"7  c #9F3336",
"8  c #A0322F",
"9  c #A03330",
"0  c #A33532",
"q  c #A33635",
"w  c #A43532",
"e  c #A53936",
"r  c #A73833",
"t  c #A63B38",
"y  c #A0393D",
"u  c #A93D3A",
"i  c #A93C3A",
"p  c #A93C37",
"a  c #AA413E",
"s  c #AD413E",
"d  c #AE4340",
"f  c #AF4441",
"g  c #AF4645",
"h  c #AB4747",
"j  c #B14645",
"k  c #B04542",
"l  c #B24945",
"z  c #B44A47",
"x  c #BB4946",
"c  c #BC4946",
"v  c #B74D4B",
"b  c #B54C4B",
"n  c #BE4B48",
"m  c #BE4D4A",
"M  c #BC4E4B",
"N  c #BA514E",
"B  c #AE5E5E",
"V  c #AD545C",
"C  c #BD5552",
"Z  c #BF5754",
"A  c #BB5351",
"S  c #BE5D5C",
"D  c #B65B57",
"F  c #AE605E",
"G  c #807A7B",
"H  c #BB6463",
"J  c #B66D6E",
"K  c #BD6B69",
"L  c #B66666",
"P  c #AF6774",
"I  c #B76E72",
"U  c #B17574",
"Y  c #BC7474",
"T  c #BC7679",
"R  c #BC7A7C",
"E  c #B3777A",
"W  c #C04F4C",
"Q  c #C25A57",
"!  c #C55D5B",
"~  c #C85F5C",
"^  c #C7615E",
"/  c #CA625F",
"(  c #CB6562",
")  c #CC6966",
"_  c #C36D6A",
"`  c #CD6C6A",
"'  c #D16966",
"]  c #D46D6A",
"[  c #CF716F",
"{  c #C3706F",
"}  c #D6716E",
"|  c #D0706E",
" . c #D8726F",
".. c #C57372",
"X. c #C77B79",
"o. c #D57471",
"O. c #D97572",
"+. c #DB7673",
"@. c #DD7976",
"#. c #DA7875",
"$. c #DE7D7A",
"%. c #DA7E7B",
"&. c #D47B78",
"*. c #80807F",
"=. c #929076",
"-. c #BE817F",
";. c #D3817E",
":. c #DE817E",
">. c #2322B4",
",. c #3C3CBC",
"<. c #3333A8",
"1. c #595993",
"2. c #62798C",
"3. c #657A8D",
"4. c #6D7D8E",
"5. c #7C7D82",
"6. c #727D8E",
"7. c #777782",
"8. c #657D91",
"9. c #6F7E90",
"0. c #4544A0",
"q. c #5555BA",
"w. c #706EA6",
"e. c #6C6CAA",
"r. c #2524D8",
"t. c #0E0DE1",
"y. c #0000FB",
"u. c #1312F2",
"i. c #1C1BE5",
"p. c #2726F9",
"a. c #3E3DF1",
"s. c #5151D8",
"d. c #7A61C1",
"f. c #6966DE",
"g. c #4544E6",
"h. c #5958ED",
"j. c #4D53F7",
"k. c #6767E9",
"l. c #706FFE",
"z. c #7378F5",
"x. c #817E8C",
"c. c #9873AA",
"v. c #0C9E9E",
"b. c #1A9595",
"n. c #0FADAD",
"m. c #08BCBC",
"M. c #2BAFAF",
"N. c #38A4A4",
"B. c #7F8080",
"V. c #7A8292",
"C. c #609191",
"Z. c #67ACAC",
"A. c #78B2B2",
"S. c #7CA6A6",
"D. c #51C0BF",
"F. c #08CACA",
"G. c #1FCBCB",
"H. c #24DDDD",
"J. c #3BD5D5",
"K. c #01E7E7",
"L. c #05F7F7",
"P. c #69C3C3",
"I. c #45E9E9",
"U. c #828181",
"Y. c #848585",
"T. c #8E8E8E",
"R. c #8B8A8A",
"E. c #888884",
"W. c #9A8686",
"Q. c #9C8888",
"!. c #948989",
"~. c #93938E",
"^. c #9B998A",
"/. c #8B8692",
"(. c #838592",
"). c #968E95",
"_. c #879697",
"`. c #939595",
"'. c #939A9B",
"]. c #9D9D9D",
"[. c #9A9896",
"{. c #A48C8B",
"}. c #AE888A",
"|. c #B28286",
" X c #A38D94",
".X c #A89A9A",
"XX c #B99B9A",
"oX c #A4A48F",
"OX c #B6A09F",
"+X c #9B9BA7",
"@X c #9E9FB9",
"#X c #8787B8",
"$X c #BC93A2",
"%X c #85ADAE",
"&X c #9BA3A3",
"*X c #A1A1A1",
"=X c #A5A4A3",
"-X c #A4A9A9",
";X c #AAAAAB",
":X c #AAA7A7",
">X c #BAA9A9",
",X c #AFAFB0",
"<X c #AEB6B6",
"1X c #B6B6B6",
"2X c #B4B3B3",
"3X c #BEB4B4",
"4X c #BBBBBB",
"5X c #B9B9B4",
"6X c #C0888A",
"7X c #DE8380",
"8X c #DF8582",
"9X c #DE8683",
"0X c #DD8B88",
"qX c #DA8785",
"wX c #C1918F",
"eX c #D6908E",
"rX c #CE9694",
"tX c #C69898",
"yX c #DC9B99",
"uX c #D39694",
"iX c #E08380",
"pX c #E08986",
"aX c #E18D8A",
"sX c #E28F8C",
"dX c #E28B89",
"fX c #E2918F",
"gX c #E29592",
"hX c #E59897",
"jX c #E59998",
"kX c #D4A09E",
"lX c #CBA3A3",
"zX c #C7AAAC",
"xX c #D2ABA9",
"cX c #C7B9B9",
"vX c #BFC1BF",
"bX c #C1C0BF",
"nX c #A096D8",
"mX c #BCB8C4",
"MX c #A9A4D2",
"NX c #B4AFDC",
"BX c #8584EC",
"VX c #9B9AF1",
"CX c #9A97E1",
"ZX c #B9BCE5",
"AX c #CBBCC9",
"SX c #BEC3C3",
"DX c #C4C2C2",
"FX c #CCCBCB",
"GX c #C8C5C5",
"HX c #D4CBCD",
"JX c #C3C3D7",
"KX c #CACBD8",
"LX c #D4D2D5",
"PX c #E2E2DF",
"IX c #DCDDE1",
"UX c #E5E4E3",
/* pixels */
"3.2.4.).|.S m m W W W W W W W W W W W W W W m m S T  X6.2.3.",
"2.V.R ` %.sXjXhXhXhXhXhXhXhXhXhXhXhXhXhXhXhXhXhXfX7X[ ..x.2.",
"9.T #.gXfXsXsXsXsXsXsXsXsXsXsXsXsXsXdXaXsXsXsXsXsXfXgX7X_ 6.",
").) dX9XpXpXpXpXpXpXpXpXpXpXpX9X9X0XgXfX9XpXpXpXpXpX9XaXo.}.",
"Y o.:.:.7X7X8X8XiXiX8X8X:.$.$.eXkXxXcXzX0X:.7X7X7X7X:.:.$.S ",
"C @.$.$.$.$.@.@.%.%.+.@.:.aXyX>XFX1XOXwX0X@.$.$.$.$.$.$.$.m ",
"n @.@.#.+.%.uXkXxXxXyXrXXX{.!.&XDX:XtX&.+.@.#.@.@.@.@.+.@.m ",
"m O.o.O. .;.>X<X;X1XbXU.: + O [.3X*X2XrXo.O.O.O.O.O.O.O.O.m ",
"m } } ] o.uX>X*X*X=X-X;     X P.Z.: 2XlX| } } ] ' ] } } } m ",
"m ] ] ] &..X[.2XU.T.;X; o $ * F.b.> 4XlX` ` [ qXyX;.] ] ] m ",
"n ' ' ' X.Q.4 1X[.Y.-XN.F.K.L.M., T.4XtX..lXcXcX2XtX] ' ' m ",
"m ( ( ( X.Q.1 1XDX*.'.A.J.J.P._.R.[.4XcXXX1XSXOX-...) ( ) n ",
"n ( ( / ..Q.2 1XmX4 `.:X<XSXcXGX1X+XR.< < 1X4X;XwX( / ( ( m ",
"m ^ ^ ~ ..W.2 1XBX1.^.;X=X*X].2X*X@ O . ; <X`.`.3XX.! / / n ",
"n ! ! ! { W.1 5Xl.0.oX2X;X-X].;XR.O .   % I.= < DXX.Q ! ! m ",
"c Q Q Q _ W.1 5XVXr.e.E.].,X< =XT.# & v.m.n.- `.DXR Z Q Q n ",
"n Z Z C K W.2 1XIXh.s.7.Y.GX`.T.%XG.L.L.H.C.U.=XcXT A Z Z c ",
"c C C N K W.1 2XUXKXMX5.*.FX=X3 &XS.D.Z._.`.~.+XmXT M C C n ",
"c N N v H {.4 2XUXHXcXU.3 KX#X4 ].T.!..X[.~.w.g.nXX.b N N c ",
"n v v v v Y {.XXlXR |.3 U.JXg.4 =XT.T.vX@Xq.i.p.MXY j v v n ",
"c z z z z z H H g j U G B.JXa.1.T.Y.R.mXk.y.y.h.AXI j z z c ",
"c j j j l l s k l j U G 5.LXBXt.>.<.=.4Xg.y.a.ZXLXP d j j c ",
"c f f d f f f f f d U G B.LXLXk.p.u.,.f.j.z.NXAX$XV s f d c ",
"c s s a s s s s a u U 3 B.LXPXIXZXCXf.d.c.6XI V h a s s a x ",
"n u u u u u u u u t B {.Y.FXHXzXtXR J D f q w r p u u u u c ",
"L p e e e e e e e e t F }.E B h y 7 9 w w e t t e e e e e N ",
" Xg 0 0 0 0 0 0 0 0 0 q a q 9 9 w w 0 q q 0 0 0 0 0 0 0 i E ",
"V.D 9 6 9 9 9 9 9 9 9 8 5 8 9 9 9 9 9 9 9 9 9 9 9 9 9 6 N (.",
"3./.A t 6 6 6 6 6 6 6 6 6 6 6 6 6 6 6 6 6 6 6 6 5 6 0 v /.8.",
"3.3.V.E v x x c c c c c c c c c c c c c c c c x x x J (.8.3."
};
