/* XPM */
static char *FA_PozosFecales_A[] = {
/* columns rows colors chars-per-pixel */
"30 30 256 2 ",
"   c #0F1113",
".  c gray9",
"X  c #12161B",
"o  c #1F1F1E",
"O  c #232323",
"+  c #2C2725",
"@  c #3F3D3B",
"#  c #783600",
"$  c #783601",
"%  c #4A372D",
"&  c #78430D",
"*  c #7F4C1C",
"=  c #5F402F",
"-  c #5F493F",
";  c #524037",
":  c #6B4723",
">  c #7E5225",
",  c #634333",
"<  c #6E5033",
"1  c #7D593E",
"2  c #464545",
"3  c #56514C",
"4  c #5B5755",
"5  c #69584D",
"6  c #725C45",
"7  c #766759",
"8  c #676767",
"9  c #71706F",
"0  c #727170",
"q  c #787777",
"w  c #7C7A77",
"e  c #7A7A7A",
"r  c #7C7C7C",
"t  c #756B65",
"y  c #834A13",
"u  c #8E5823",
"i  c #925D2A",
"p  c #825337",
"a  c #955D3D",
"s  c #986A3D",
"d  c #A4613B",
"f  c #966D43",
"g  c #966F48",
"h  c #8F6C57",
"j  c #976B52",
"k  c #887055",
"l  c #957351",
"z  c #A77A4E",
"x  c #BB7045",
"c  c #A37E59",
"v  c #AB7352",
"b  c #BB7E5B",
"n  c #A76947",
"m  c #8A7B6E",
"M  c #807F7F",
"N  c #CA794A",
"B  c #CC7E51",
"V  c #9E8369",
"C  c #81807F",
"Z  c #8E8278",
"A  c #9C8679",
"S  c #A68664",
"D  c #A88B6D",
"F  c #B88669",
"G  c #A58978",
"H  c #B89672",
"J  c #CB9476",
"K  c #2A5C9A",
"L  c #2C5E9A",
"P  c #2D5F9C",
"I  c #2A5E9D",
"U  c #255B9C",
"Y  c #2E619E",
"T  c #2B609E",
"R  c #31629D",
"E  c #3D6A9F",
"W  c #285FA0",
"Q  c #2F63A1",
"!  c #2E63A5",
"~  c #2D64A7",
"^  c #2B62A5",
"/  c #2E66AB",
"(  c #2F69AE",
")  c #3064A3",
"_  c #3165A5",
"`  c #3063A1",
"'  c #3969A2",
"]  c #3167A8",
"[  c #3168AA",
"{  c #3269AD",
"}  c #346BAC",
"|  c #376AA5",
" . c #326BB0",
".. c #326CB2",
"X. c #346DB2",
"o. c #346FB5",
"O. c #2F71BF",
"+. c #3671B6",
"@. c #3370B7",
"#. c #3672B9",
"$. c #3673BD",
"%. c #3675BF",
"&. c #3874BA",
"*. c #3976BE",
"=. c #3C77BD",
"-. c #3C74B7",
";. c #65778A",
":. c #66788B",
">. c #677A8C",
",. c #697B8C",
"<. c #687A8B",
"1. c #7C7D80",
"2. c #6C7E91",
"3. c #4A73A5",
"4. c #4575AD",
"5. c #567BA9",
"6. c #497DB7",
"7. c #4E7EB7",
"8. c #4979B4",
"9. c #477CBA",
"0. c #407BBF",
"q. c #457ABA",
"w. c #487CBA",
"e. c #487BBA",
"r. c #517EB5",
"t. c #517DB2",
"y. c #3576C5",
"u. c #3475C2",
"i. c #3977C1",
"p. c #3778C6",
"a. c #3A78C2",
"s. c #3D7AC3",
"d. c #3A7AC6",
"f. c #3C7BC6",
"g. c #3D7CC7",
"h. c #3A7BC9",
"j. c #3B7CCA",
"k. c #3F7EC8",
"l. c #3578C9",
"z. c #437CC1",
"x. c #497FC1",
"c. c #6F8194",
"v. c #7F8690",
"b. c #7F8A97",
"n. c #72879D",
"m. c #7F8B98",
"M. c #7E8C9F",
"N. c #72869B",
"B. c #4E80BA",
"V. c #5283BC",
"C. c #5D85B5",
"Z. c #6283AB",
"A. c #6B88AB",
"S. c #6986AA",
"D. c #778CA3",
"F. c #758FAA",
"G. c #7B91AC",
"H. c #6286B3",
"J. c #6288B6",
"K. c #6588B3",
"L. c #628AB9",
"P. c #6A8EB6",
"I. c #6B92BD",
"U. c #7492B7",
"Y. c #7897B9",
"T. c #4A83C7",
"R. c #5286C2",
"E. c #5C8BC4",
"W. c #5289CA",
"Q. c #638FC2",
"!. c #6C95C6",
"~. c #7497C2",
"^. c #7499C5",
"/. c #7A9DC6",
"(. c #7FA2CB",
"). c #818182",
"_. c #848485",
"`. c #868788",
"'. c #8E8E8E",
"]. c #8B8B8B",
"[. c #888583",
"{. c #948F8B",
"}. c #90908F",
"|. c #9F9288",
" X c #828B94",
".X c #898D96",
"XX c #8B9299",
"oX c #919292",
"OX c #959594",
"+X c #999795",
"@X c #979897",
"#X c #9A9A9A",
"$X c #9F9E9E",
"%X c #94989B",
"&X c #B39583",
"*X c #B99F86",
"=X c #A39B94",
"-X c #A89589",
";X c #9FA09F",
":X c #A2A09E",
">X c #ABA59E",
",X c #B8AA9D",
"<X c #8996A5",
"1X c #8396AC",
"2X c #8191A3",
"3X c #9A9FA4",
"4X c #8299B3",
"5X c #819CBE",
"6X c #8B9FB5",
"7X c #97A1AF",
"8X c #8EA0B8",
"9X c #99A7B8",
"0X c #A1A2A2",
"qX c #A5A5A5",
"wX c #A3A4A4",
"eX c #A8A7A6",
"rX c #AAAAAA",
"tX c #AEADAB",
"yX c #A4A7AB",
"uX c #B0AFAF",
"iX c #B8B3AD",
"pX c #BCB1A6",
"aX c #A3ABB3",
"sX c #AEB2B6",
"dX c #AFB6BC",
"fX c #B2B2B2",
"gX c #B5B6B6",
"hX c #B3B3B3",
"jX c #B9B6B3",
"kX c #B5B9BB",
"lX c #B9BABA",
"zX c #BBBCBC",
"xX c #C5B19B",
"cX c #C3BDB7",
"vX c #CAC3BB",
"bX c #D2C6B8",
"nX c #8BA5C5",
"mX c #91A6C1",
"MX c #93AAC4",
"NX c #92ABC9",
"BX c #9AADC3",
"VX c #AEB7C0",
"CX c #AAB7C6",
"ZX c #BFBFC0",
"AX c #B9BDC3",
"SX c #BCC1C6",
"DX c #BDC2CB",
"FX c #C3C4C4",
"GX c #CCCBCB",
"HX c #CCC8C3",
"JX c #D5D0CA",
"KX c #CBCED3",
"LX c #D3D3D3",
"PX c #D8D9D9",
"IX c #E0E0DE",
"UX c #E3E4E4",
/* pixels */
">.:.2.1XY.V.9.w.w.w.w.w.w.w.w.w.w.w.w.w.w.w.w.9.V.I.4Xc.:.>.",
";.n.!.x.s.j.h.h.h.h.h.h.h.h.h.j.j.j.j.j.h.h.h.h.h.f.z.Q.n.;.",
"c.I.a.h.j.h.h.h.h.h.h.h.h.h.h.j.j.h.l.l.h.h.h.h.h.j.h.p.E.c.",
"4Xx.h.d.h.h.h.h.h.h.h.h.h.h.h.p.d.k.W.T.d.h.h.h.h.h.d.h.z.Y.",
"I.s.d.d.d.d.f.g.d.h.g.f.d.y.y.E.^.nXCXBXT.d.d.d.d.d.d.d.d.V.",
"B.f.d.f.f.d.y.y.f.s.y.y.k.W.!.aXGXjX6XU.W.d.f.f.f.f.f.f.d.w.",
"w.d.d.d.d.T.!.(.NXNX/.~.Y.M.v.$XFXyX/.z.d.d.d.d.d.d.d.d.d.w.",
"w.a.a.s.i.R.9XiXtXjXZX).3 @ + %XkXwXsX~.a.a.a.s.s.s.a.a.a.w.",
"w.a.a.i.0.^.9X;X0X0XqX2   X X &XA 3 hXmX=.a.a.u.O.u.a.a.i.w.",
"w.*.*.%.V.<X#XhX_.'.rX2 + % , n 1 4 lXnX&.=.q.E.(.R.*.i.i.9.",
"w.*.*.$.V.b.q gX@X_.eXh d x N j t }.lXnX8.mXCXVXsX5X0.$.*.w.",
"w.&.&.#.V.m.9 gXFX1.+X-XF F &X{.].+XzXCX8XgXvX7XJ.7.=.$.$.9.",
"9.#.#.#.V.m.0 gXcXw oXrXfXFXzXFXgX:X].8 8 gXzXaXY.-.#.#.#.w.",
"w.+.+.@.V.b.0 gX*X7 %XtXwXwX$XfX0X@ O . 2 jXOXOXdXL.o.#.+.w.",
"w.+.+.o.r.b.9 kXH 6 3XfXrXeX$XrX].O o X ; J - 8 SXL...+.o.w.",
"w.X.X...r.b.9 kXxX> m `.#XuX8 wX{.% = p a a 5 oXSXJ. .X.X.w.",
"w.X.X. .r.m.0 gXIXc l w _.GXOXoX=Xv B B b m ).wXAXJ.( X...e.",
"e. .{ { t. X9 hXUXJXpXr 1.GXqXe :X|.D G {.OXoX=XlXH./  .{ 9.",
"w.{ { { 8.2Xw fXUXKXSX).r GX|.e $X'.oX0X#XOXm g ,XL./ { { w.",
"w.{ { [ } C.<X7XMXP.G.e ).HXf e qX'.{.ZX>Xk * i iXJ.~ { [ w.",
"w.[ [ [ ] [ r.t._ ~ S.r M HXs 7 '._.`.zXD # # c FXZ.~ [ ] w.",
"w.] ] _ ] ] ^ ^ [ _ A.1.C LX*X& : <  XlXf $ s bXLXZ.! ] _ w.",
"w._ _ ) _ _ _ _ _ ) S.1.C LXLXS u y 1 S z H cXDX9X3.! _ ! w.",
"w.) ) Q ) ) ) ) ) Q A.1.M LXUXPXbX,XV Z .X5XK.3.' ` ) ) Q w.",
"6.Q Q Q Q Q Q Q Q Y 5.XX[.GXKXCXmXU.H.4.| K U W Q Q Q Q Y e.",
"L._ Y Y Y Y Y Y Y Y R 5.1XF.5.E R L K I I Y ` Y Y Y Y Y Y B.",
"4X4.P Y Y Y Y Y Y Y T Y ' Y K I T Y Y Y Y Y Y Y Y Y Y Y | I.",
"c.C.Y L P P P P P P P L K P P P P P P P P P P P P P P K 7.n.",
"<.D.7.' L L L L L L L L L L L L L L L L L L L L L L R 8.F.,.",
":.<.n.U.6.w.w.w.w.w.w.w.w.w.w.w.w.w.w.w.w.w.w.w.w.6.P.D.,.:."
};
