/* XPM */
static char *FA_PozoPluvial_FS[] = {
/* columns rows colors chars-per-pixel */
"30 30 256 2 ",
"   c #151414",
".  c #1C1D1D",
"X  c #220E0E",
"o  c #211313",
"O  c #1D2F2F",
"+  c #242525",
"@  c #2A2F2F",
"#  c #213B3B",
"$  c #373737",
"%  c #0F4343",
"&  c #2B4141",
"*  c #3D5F5F",
"=  c #127676",
"-  c #474C4D",
";  c #5F5D5D",
":  c #545D5D",
">  c #564B4B",
",  c #535379",
"<  c #666565",
"1  c #656364",
"2  c #6A6B6B",
"3  c #656A69",
"4  c #6E7071",
"5  c #747676",
"6  c #767A7B",
"7  c #767B7C",
"8  c #7C7A7A",
"9  c #666677",
"0  c #9D221F",
"q  c #9E2624",
"w  c #9E2B28",
"e  c #9E2E2B",
"r  c #9F2C2D",
"t  c #9D2F36",
"y  c #9D2E38",
"u  c #A22826",
"i  c #A12E2A",
"p  c #A12F2C",
"a  c #A52F2C",
"s  c #A42D29",
"d  c #AC2F2B",
"f  c #A02624",
"g  c #A2302E",
"h  c #A5312E",
"j  c #A9312E",
"k  c #AD312E",
"l  c #B3312D",
"z  c #BC332F",
"x  c #A63330",
"c  c #A53532",
"v  c #AD3431",
"b  c #A63939",
"n  c #B23431",
"m  c #B63532",
"M  c #B53431",
"N  c #BA3532",
"B  c #BC3633",
"V  c #BE3936",
"C  c #BA3835",
"Z  c #B43D3A",
"A  c #BA3F3C",
"S  c #C8312E",
"D  c #C7332F",
"F  c #C43531",
"G  c #CA3532",
"H  c #CB3734",
"J  c #C23A36",
"K  c #C53936",
"L  c #CA3936",
"P  c #CD3B37",
"I  c #C63B38",
"U  c #C73C39",
"Y  c #C23B38",
"T  c #CB3B39",
"R  c #CA3C39",
"E  c #CC3C38",
"W  c #CB3D3B",
"Q  c #AA413E",
"!  c #BD403D",
"~  c #C3413F",
"^  c #AD3C44",
"/  c #AB3D44",
"(  c #A63B44",
")  c #B23F42",
"_  c #AB4846",
"`  c #AE4240",
"'  c #B94342",
"]  c #BB4946",
"[  c #BD4946",
"{  c #B94C4A",
"}  c #B64745",
"|  c #BB514E",
" . c #B5554B",
".. c #AA4D51",
"X. c #BB5453",
"o. c #B75D5D",
"O. c #B6615F",
"+. c #B25F60",
"@. c #B5646A",
"#. c #B76D6F",
"$. c #BB6868",
"%. c #B76E70",
"&. c #A67270",
"*. c #A97271",
"=. c #AE7573",
"-. c #B07574",
";. c #B7787A",
":. c #C54542",
">. c #CC4644",
",. c #C54846",
"<. c #C14C4A",
"1. c #CC4A47",
"2. c #CA5451",
"3. c #CD5B59",
"4. c #C65A57",
"5. c #C16665",
"6. c #CB6966",
"7. c #CB7D7B",
"8. c #C57D7C",
"9. c #D47978",
"0. c #8C8C78",
"q. c #39399B",
"w. c #434283",
"e. c #555486",
"r. c #464599",
"t. c #62798C",
"y. c #657A8D",
"u. c #657D91",
"i. c #6E7E90",
"p. c #727F90",
"a. c #5F5FB6",
"s. c #0303EF",
"d. c #0100F2",
"f. c #0100FE",
"g. c #0404FB",
"h. c #0B09F7",
"j. c #100FFA",
"k. c #1A18F8",
"l. c #2323E4",
"z. c #2423FB",
"x. c #2B2AF7",
"c. c #3434F7",
"v. c #0E0CD0",
"b. c #4746CC",
"n. c #5B5BD5",
"m. c #7361D3",
"M. c #504EF6",
"N. c #5857F1",
"B. c #5856ED",
"V. c #5F67FF",
"C. c #6A6BE7",
"Z. c #7679F2",
"A. c #817F8C",
"S. c #0B9493",
"D. c #0CA9A9",
"F. c #6F8093",
"G. c #7A8392",
"H. c #7F9E9E",
"J. c #55BEBE",
"K. c #60BFBF",
"L. c #6DA6A6",
"P. c #00C9C9",
"I. c #05D6D5",
"U. c #03E1E1",
"Y. c #1AE9E9",
"T. c #00FDFD",
"R. c #06F5F5",
"E. c #45F5F5",
"W. c #54CCCC",
"Q. c #8C8C8C",
"!. c #828586",
"~. c #928F8F",
"^. c #8B8692",
"/. c #868794",
"(. c #998E98",
"). c #8B9192",
"_. c #949291",
"`. c #959495",
"'. c #939392",
"]. c #999797",
"[. c #9B9B9B",
"{. c #979789",
"}. c #AE838A",
"|. c #A7908F",
" X c #A38C94",
".X c #A09D9D",
"XX c #BD9799",
"oX c #BA8C8B",
"OX c #A5A594",
"+X c #A1A19A",
"@X c #A09FA3",
"#X c #9DA2A2",
"$X c #A1A1A1",
"%X c #A5A5A5",
"&X c gray67",
"*X c #ADADAB",
"=X c #AEAEAE",
"-X c #AAABAC",
";X c #A4A8AA",
":X c #B3A3A3",
">X c #BCA4A3",
",X c #B6ABAB",
"<X c #B1B0AF",
"1X c #BFA0B1",
"2X c #AEB4B4",
"3X c #B2B3B2",
"4X c #B7B2B2",
"5X c gray74",
"6X c #B7B7B7",
"7X c #C68786",
"8X c #D38483",
"9X c #C0908F",
"0X c #D6908F",
"qX c #C79D9C",
"wX c #D99997",
"eX c #D8AB98",
"rX c #C09FA2",
"tX c #CCABAC",
"yX c #CAA2A4",
"uX c #D4B3AC",
"iX c #C9A9B1",
"pX c #C5A8B7",
"aX c #C1BFBE",
"sX c #D5B4B4",
"dX c #D9B4B3",
"fX c #C2C29B",
"gX c #C0C0BF",
"hX c #D4C0BF",
"jX c #A690C3",
"kX c #BBBAC4",
"lX c #B6B7DE",
"zX c #8B8DEB",
"xX c #938EE1",
"cX c #999EEC",
"vX c #959AF0",
"bX c #9DA3EC",
"nX c #B0B3E7",
"mX c #AAAAE3",
"MX c #BFC2E9",
"NX c #C3CBCB",
"BX c #C9CCCC",
"VX c #DCCCCD",
"CX c #DDD1CB",
"ZX c #CAD2D2",
"AX c #D6D4D5",
"SX c #D9DBDB",
"DX c #E6E4D9",
"FX c #E4E4DA",
"GX c #CCD1E6",
"HX c #DADAE7",
"JX c #D4D4EB",
"KX c #E0DFE1",
"LX c #DDE1E4",
"PX c #ECECE7",
"IX c #E4E6E6",
"UX c #EBF0E0",
/* pixels */
"y.t.i.(.;.X.[ [ [ [ [ [ [ [ [ [ [ [ [ [ [ [ [ [ X.%. Xp.t.y.",
"t.G.%.,.T T P P P P P P P P P P P P P P P P P P E T :.5.A.t.",
"F.%.L P E E E E E E E E E E E E E E E E E W E H H E E L 4.p.",
"(.<.P R T T T T T T T T T T T T T E T L G S G 1.1.L T R :.}.",
"#.R T R R R R R R R W W R R R W W R W >.3.9.8XsXsX3.H R T X.",
"| W R R W W W W W W L L W W R L G S ,.9XhXSXNX4X6X7.W T R [ ",
"[ R R T R R L H F F 2.,.G D K >.3.9.7X;XAX$X|.O._ <.W T T [ ",
"[ U I I I K 4.7X0XwXsXdX7.6.0XyX>XQ.Q..XAX=X:X8XP G U U I [ ",
"[ I I I I K 5.$X-X5X%X2XAX,X6 : - + $ $XBX=X3X<X8.~ K I K [ ",
"[ J J Y J J 6.XX[.].].Q.AX5 .     . @ 3X5X3 _.2X>X2.F Y J [ ",
"[ J J J J $.:X,X*X&X3X`.AX1 . + + X # E.W.% > NXtX[ F Y J [ ",
"[ V V B ~ -.!.$X=X&X; 5 SX< o o O = = U.P.& 8 ZXtX' B V V [ ",
"[ V V B :.=.5 8 %XBX2 5 SX< S.I.I.T.R.D.* 8 ].BXtX' B V V [ ",
"[ B B N ~ =.6 < &XIX$X4 4XK.Y.T.T.R.Y.L.Q.'.'.BXiX' z C B [ ",
"[ C C M ~ =.7 < =XIX%X2 [.#X'.J.J.H.'.`.`.'._.BXiX) z C N [ ",
"[ m m l ! *.6 1 *XKX@X2 [.[._.~._.`._._.`.'.b.vXuX^ l m m [ ",
"[ m m l A *.6 1 *XJXn., +X[.Q.8 %X5X+X'.).b.f.cXuX^ l m M [ ",
"[ n n l A *.6 1 *XHXz.w.OX;X!.!.3XgXkXa.l.g.h.bXuX/ l n n ] ",
"[ n n k A *.7 1 *XHXx.q.0.OX{.5 =XkXC.f.g.f.c.GXiX/ l n l [ ",
"[ v v d Z &.6 1 -XPXB.s.r.e.e.< %XkXN.g.f.j.xXFX1X/ d v k [ ",
"[ k k d Z *.7 < -XPXlXz.f.d.d.9 fXaXc.f.x.zXUXIXpX/ d v k ] ",
"[ k k d Z *.7 < *XIXDXmXN.z.k.v.b.C.c.Z.MXVXpXyX@.v j v j [ ",
"] j j s Z &.5 < &XIXAXDXDXnXnXV.M.m.jXeX7X@.( b u j j j a [ ",
"[ h h a x -.).; *XPXLXLXLXCXqXXX;. . .y q s s h x h h h a ] ",
"] h a h i Q oX8 ;XVXrX;.+...t t r f u a h h h h h h h h i ] ",
"@.x i p p u b -.=._ b i 0 q s s p g g p p p p p p p p p i | ",
" X` i p p p w c x q i i g g p p p p p p p p p p p p p i c ;.",
"G.o.i e e e e w w e e e e e e e e e e e e e e e e e e w { /.",
"y./.X.b e e e e e e e e e e e e e e e e e e e e e e x { ^.u.",
"y.y.G.;.{ ] ] [ [ [ [ [ [ [ [ [ [ [ [ [ [ [ [ ] ] ] #./.u.y."
};
