/* XPM */
static char *FA_PozosFecales_SC[] = {
/* columns rows colors chars-per-pixel */
"30 30 256 2 ",
"   c #14150F",
".  c #141719",
"X  c #181A1A",
"o  c #232323",
"O  c #2B2626",
"+  c #3E3E3E",
"@  c #7B3A01",
"#  c #783400",
"$  c #4A372D",
"%  c #5F3F2F",
"&  c #78430C",
"*  c #534136",
"=  c #6E4821",
"-  c #624837",
";  c #78563A",
":  c #363540",
">  c #464644",
",  c #5B5856",
"<  c #494859",
"1  c #6B594C",
"2  c #725C44",
"3  c #776858",
"4  c #686867",
"5  c #6F6E71",
"6  c #706F73",
"7  c #7C7A77",
"8  c #76767B",
"9  c #7F7F7F",
"0  c #7B7A7A",
"q  c #776C65",
"w  c #824D16",
"e  c #805324",
"r  c #915C26",
"t  c #825337",
"y  c #955E3E",
"u  c #9A6C3D",
"i  c #A5613B",
"p  c #966E47",
"a  c #936C54",
"s  c #887054",
"d  c #997454",
"f  c #BC7143",
"g  c #A67B56",
"h  c #BC7E5B",
"j  c #A76A47",
"k  c #8B7B6D",
"l  c #CA794A",
"z  c #CD7E51",
"x  c #FECB00",
"c  c #FFCD00",
"v  c #FFCF05",
"b  c #FBCC04",
"n  c #FACD0B",
"m  c #F7CA0F",
"M  c #FED100",
"N  c #FED500",
"B  c #FDD202",
"V  c #FEDA00",
"C  c #FEDE00",
"Z  c #F9DA00",
"A  c #FCD50C",
"S  c #FDD80F",
"D  c #F7CD13",
"F  c #F6CE1A",
"G  c #FDCE11",
"H  c #F7DF1D",
"J  c #F6D71D",
"K  c #FEE100",
"L  c #FEE600",
"P  c #FEE104",
"I  c #FEE900",
"U  c #FEED00",
"Y  c #FAEC06",
"T  c #F5EE0D",
"R  c #FEF100",
"E  c #FEF500",
"W  c #FAF203",
"Q  c #FEFA01",
"!  c #FEFE02",
"~  c #FFFD06",
"^  c #FBF40A",
"/  c #FEFE0A",
"(  c #FFFF0C",
")  c #FBFA0F",
"_  c #F7F50C",
"`  c #EDE31B",
"'  c #FEFE10",
"]  c #FEFD16",
"[  c #FFFE1E",
"{  c #FEFD1B",
"}  c #F9F419",
"|  c #EFC828",
" . c #F3CD20",
".. c #F3DE26",
"X. c #F7D62A",
"o. c #EED136",
"O. c #EDDC3B",
"+. c #E8D73A",
"@. c #F1D238",
"#. c #E8C633",
"$. c #EFE426",
"%. c #F0E325",
"&. c #F2EB25",
"*. c #FBE22B",
"=. c #FBE424",
"-. c #FEFE21",
";. c #FFF128",
":. c #FEFE2E",
">. c #FBFB2A",
",. c #F4EF33",
"<. c #F7F732",
"1. c #FFF436",
"2. c #FEFE31",
"3. c #FFFF3A",
"4. c #FFFF3E",
"5. c #FFF33D",
"6. c #AF8E5B",
"7. c #BE9D52",
"8. c #9D826D",
"9. c #858277",
"0. c #828176",
"q. c #83827F",
"w. c #9D8678",
"e. c #979877",
"r. c #AA8966",
"t. c #B98668",
"y. c #B7946F",
"u. c #A68978",
"i. c #AE917B",
"p. c #ADAC6F",
"a. c #A5A275",
"s. c #A2A176",
"d. c #A4A078",
"f. c #B3AD7D",
"g. c #B8B379",
"h. c #D3B75B",
"j. c #CB9476",
"k. c #C9BC6D",
"l. c #CDBE75",
"z. c #DCCA4D",
"x. c #DCC34F",
"c. c #D9C457",
"v. c #D4D359",
"b. c #E3C944",
"n. c #E3CA4D",
"m. c #E5C641",
"M. c #F2DB42",
"N. c #F1D643",
"B. c #E7CE55",
"V. c #E0D759",
"C. c #EDD658",
"Z. c #E8D54A",
"A. c #E9E84A",
"S. c #FEFE40",
"D. c #FCFE45",
"F. c #F7F748",
"G. c #FDFB4A",
"H. c #E9E755",
"J. c #FFFF57",
"K. c #FEFC50",
"L. c #FEFF58",
"P. c #D2C462",
"I. c #DEDB64",
"U. c #CBC97A",
"Y. c #DDDA7B",
"T. c #CBCA67",
"R. c #E8DB68",
"E. c #E5D37A",
"W. c #E2DD75",
"Q. c #E8E763",
"!. c #E0E079",
"~. c #61768E",
"^. c #66798D",
"/. c #6F7F8D",
"(. c #7E7F80",
"). c #617793",
"_. c #627893",
"`. c #74828E",
"'. c #79858A",
"]. c #848483",
"[. c #838489",
"{. c #8E8F8E",
"}. c #8B8B8A",
"|. c #828C8C",
" X c #938F8C",
".X c #978D87",
"XX c #8A9287",
"oX c #979589",
"OX c #868B90",
"+X c #8D9192",
"@X c #939494",
"#X c #9F9E9E",
"$X c #9B9A9A",
"%X c #989897",
"&X c #A49487",
"*X c #B39583",
"=X c #B99E82",
"-X c #A39D98",
";X c #ADAC86",
":X c #A1A48C",
">X c #BBA085",
",X c #A2A19E",
"<X c #ACA59E",
"1X c #BCB989",
"2X c #9A9FA4",
"3X c #A1A2A2",
"4X c #A5A5A5",
"5X c #A3A4A3",
"6X c #A9A7A5",
"7X c #AAAAAA",
"8X c #ADACA9",
"9X c #ACACA2",
"0X c #B0AFAF",
"qX c #BAAFA8",
"wX c #BAB9AA",
"eX c #B4B3A4",
"rX c #AEAEBC",
"tX c #A9A9B1",
"yX c #B2B1B1",
"uX c #B6B6B2",
"iX c #B6B6B5",
"pX c #B5B5B8",
"aX c #B7B9B9",
"sX c #BDBCBA",
"dX c #BABBBA",
"fX c #BBB8B3",
"gX c #C3B78D",
"hX c #C2AD95",
"jX c #C9B79A",
"kX c #C2BEBA",
"lX c #C3C296",
"zX c #DFD998",
"xX c #D7D698",
"cX c #C7C68C",
"vX c #EBDE80",
"bX c #E1D394",
"nX c #E0E081",
"mX c #CBC6A9",
"MX c #CCCAB5",
"NX c #C2C1BF",
"BX c #CCC4BE",
"VX c #CDCBB8",
"CX c #D8D1B5",
"ZX c #E0D7AF",
"AX c #B9B9C8",
"SX c #C4C3C3",
"DX c #CCCBCA",
"FX c #CECAC5",
"GX c #D2CFCB",
"HX c #DDD9C4",
"JX c #DFDDCF",
"KX c #D4D4D2",
"LX c #DAD8D7",
"PX c #E1E0DD",
"IX c #DFE0E2",
"UX c #E3E4E4",
/* pixels */
"^.~./.:Xc. .v v v v v v v v v v v v v v v v v v F n.;X`.~.^.",
"~.|.n.*.1.G.L.J.J.J.J.J.J.J.J.J.J.L.L.L.J.J.J.J.K.5.*.@.XX~.",
"`.b.;.D.S.S.S.S.S.S.S.S.S.S.S.S.S.4.3.3.S.S.S.S.S.S.D.1.X.'.",
";XH 2.:.:.:.2.2.2.2.:.2.2.2.2.:.>.2.G.D.:.2.:.:.:.:.:.2.=.k.",
"b.} [ [ [ [ -.-.[ [ -.-.{ ] ] A.Q.nXmXxX<.{ [ [ [ [ [ [ { F ",
"n ( ( / ( / ! ! ' ) ! ! ' >.F.lXDXpXU.v.>.~ ( ( ( ( / / ( c ",
"c ! ! ! ! } A.Q.!.Y.H.H.T.p.e.#XSX9XI._ ! ! ! ! ! ! ! ! ! c ",
"c Q Q Q Q } cXrXtXrXNX].< : O %XaX3XwXH.Q Q Q Q ~ Q Q Q ! c ",
"c Q Q Q ^ A.lX,X,X5X4X>   . . *Xw., yXY.W Q Q Q Q Q Q Q Q c ",
"c E E Q &.g.$XuX].{.7X> O $ - j ; , sXW.W W T ,.H.&.E E Q c ",
"c E E E &.s.8 iX%X].6Xa i f l a q {.dXR.` Y.xXmXwXI.^ E E c ",
"c R R R %.a.5 uXSX9 %X&Xt.t.*X.X}.%XsXzXU.pXAX1X+.` W R E c ",
"c R R R $.a.6 uXkX7 @X7XyXSXsXSXiX-X}.4 4 iXsXeXV.Y R R R c ",
"c U U U $.a.5 iX>X3 %X8X5X5X#XyX3X+ o . > uX@X@XmXO.U U R c ",
"c U U U %.a.5 aXy.2 2XyX7X6X#X7X}.o X . * j.- 4 VXO.I U U c ",
"c I I I %.a.5 aXjXe k [.$X0X4 4X X$ % t y y 1 @XVXO.I I I c ",
"c L L I ..a.6 uXPXg d 7 ].DX@X@X-Xg z z h k ].5XMXO.L I I c ",
"c L L L ..d.5 uXUXGXqX0 (.DX4X0 ,X.Xu.u..X@X X$XmXO.L L L x ",
"c K K L H g.8 yXUXHXMXq.9 DX&X7 #X{.+X3X$X@Xk p gXM.K L L c ",
"c K K K P O.f.gXvXZ.P.0.(.BXp 0 4X{. XNX<Xs w r jXO.C K K c ",
"c K C C C C *...Z C z.9.(.FXu 3 {.].}.sXr.@ @ g CX@.C K K c ",
"c C C C C C C C C C z.9.9 KX=X& = ; OXsXu # u BXJXo.C C C c ",
"x V V V V V V V V V z.9.(.KXLXr.r w ; 8.d i.mXZXE.J V V V c ",
"x V V N V V V N N N z.9.9 KXIXLXBXhX6.7.h.R.N.J A N V N V x ",
"b N N N N N N N N N o.f.[.GXHXbXE.C.N.X.S B N N N N N N N x ",
"#.M N M N N N N M N B o.l.B.o.D b c M M N N N N N N M M M m ",
"g.n M M M M M M M M M M S M M M M M M M M M M M M M M M M x.",
"`.| c c c M M M M M M M c M M M M M M M M M M M M c c c G XX",
").oXD b c c c c c c c c c c c c c c c c c c c c c c x n oX_.",
"^.).|.c.b x x c c c c c c c c c c c c c c c c x x x m.XX).^."
};
