/* XPM */
static char *FA_PozosFecales_N[] = {
/* columns rows colors chars-per-pixel */
"30 30 228 2 ",
"   c #111111",
".  c #12161A",
"X  c #151618",
"o  c #1F1F1E",
"O  c #212122",
"+  c #252424",
"@  c #2B2421",
"#  c #2A2928",
"$  c #3C3B3A",
"%  c #3E3E3E",
"&  c #753100",
"*  c #783600",
"=  c #7B3A01",
"-  c #47352C",
";  c #4D382D",
":  c #78430C",
">  c #7F4C1C",
",  c #5F402F",
"<  c #524036",
"1  c #5F4A3E",
"2  c #6C4722",
"3  c #7F5224",
"4  c #624332",
"5  c #6E5033",
"6  c #7E553D",
"7  c #7C5C3C",
"8  c #454343",
"9  c #464645",
"0  c #515151",
"q  c #565250",
"w  c #5A5A5A",
"e  c #5C5B59",
"r  c #5F5C5A",
"t  c #5B5B5C",
"y  c #5D5D5D",
"u  c #69584D",
"i  c #725C44",
"p  c #605E5D",
"a  c #766759",
"s  c #5F6060",
"d  c #616161",
"f  c #646262",
"g  c #636463",
"h  c #656463",
"j  c #626364",
"k  c #646364",
"l  c #636464",
"z  c #666665",
"x  c #686765",
"c  c #686867",
"v  c #666769",
"b  c #6A6A6A",
"n  c #6D6D6D",
"m  c #766B65",
"M  c #70706F",
"N  c #74716F",
"B  c #6B6E70",
"V  c #6F7274",
"C  c #717171",
"Z  c #757270",
"A  c #737474",
"S  c #757575",
"D  c #787776",
"F  c #7A7977",
"G  c #7D7A77",
"H  c #76797B",
"J  c #777B7E",
"K  c #797979",
"L  c #7C7B7B",
"P  c #7D7C7B",
"I  c #787B7E",
"U  c #7E7E7E",
"Y  c #834A12",
"T  c #8F5822",
"R  c #915D2A",
"E  c #825337",
"W  c #905B3E",
"Q  c #9B5E3C",
"!  c #97693B",
"~  c #996B3E",
"^  c #A5613B",
"/  c #976C41",
"(  c #976D44",
")  c #956F49",
"_  c #8F6C57",
"`  c #976B52",
"'  c #887055",
"]  c #957351",
"[  c #A76946",
"{  c #BB7044",
"}  c #AB7352",
"|  c #A47A51",
" . c #A37E58",
".. c #A57E59",
"X. c #BC7E5B",
"o. c #88786F",
"O. c #8C7B6C",
"+. c #8B7D6F",
"@. c #847F7B",
"#. c #C67547",
"$. c #CE7C4D",
"%. c #CD7E51",
"&. c #9A8168",
"*. c #80807F",
"=. c #84827F",
"-. c #9D8679",
";. c #9B8C7F",
":. c #A28364",
">. c #A88561",
",. c #A48769",
"<. c #A88B6D",
"1. c #BA8567",
"2. c #B7866A",
"3. c #B7946F",
"4. c #AB8772",
"5. c #A18A7E",
"6. c #B69676",
"7. c #CB9476",
"8. c #65788B",
"9. c #66798D",
"0. c #687B8F",
"q. c #6A7D8F",
"w. c #797C80",
"e. c #7E7F81",
"r. c #697D90",
"t. c #6E7F91",
"y. c #7B8084",
"u. c #7C8187",
"i. c #7F8489",
"p. c #6E8090",
"a. c #728291",
"s. c #748393",
"d. c #768593",
"f. c #7A8693",
"g. c #788694",
"h. c #7B8896",
"j. c #818081",
"k. c #838384",
"l. c #838485",
"z. c #868585",
"x. c #898786",
"c. c #898887",
"v. c #868788",
"b. c #898989",
"n. c #8C8B8A",
"m. c #8C8C8B",
"M. c #8B8B8C",
"N. c #8D8D8D",
"B. c #978E8A",
"V. c #918F8D",
"C. c #92918F",
"Z. c #9E9089",
"A. c #848B90",
"S. c #858C92",
"D. c #868F99",
"F. c #8E9192",
"G. c #86909B",
"H. c #919191",
"J. c #949393",
"K. c #929395",
"L. c #959595",
"P. c #999796",
"I. c #989897",
"U. c #93979B",
"Y. c #989798",
"T. c #96999A",
"R. c #9A9A9A",
"E. c #9E9E9E",
"W. c #A09387",
"Q. c #A89589",
"!. c #B39381",
"~. c #B49785",
"^. c #B99E83",
"/. c #BA9F86",
"(. c #A69A91",
"). c #A09C98",
"_. c #A1A09E",
"`. c #ACA59E",
"'. c #BDAA97",
"]. c #BAA999",
"[. c #9A9FA4",
"{. c #A2A2A1",
"}. c #A4A2A1",
"|. c #A3A4A5",
" X c #A5A5A5",
".X c #A8A4A0",
"XX c #A9A7A6",
"oX c #AAA9A7",
"OX c #A9AAAA",
"+X c #ACACAB",
"@X c #ABACAC",
"#X c #ADADAD",
"$X c #B0AFAF",
"%X c #BDB1A6",
"&X c #B2B2B2",
"*X c #B6B6B6",
"=X c #B8B4B2",
"-X c #BAB8B7",
";X c #BEB9B6",
":X c #B6B8BA",
">X c #B9BABA",
",X c #BDBCBB",
"<X c #BEBDBE",
"1X c #C7B19A",
"2X c #C7BBB0",
"3X c #C2BEBB",
"4X c #BFC0BF",
"5X c #CEC5BA",
"6X c #D1C6BB",
"7X c #C2C1C1",
"8X c #C5C3C1",
"9X c #C4C4C3",
"0X c #C6C7C7",
"qX c #C8C4C0",
"wX c #CCC6C1",
"eX c #CECAC6",
"rX c gray79",
"tX c #CECBC9",
"yX c #CECECD",
"uX c #D5D0CB",
"iX c #D3D3D3",
"pX c #D5D5D5",
"aX c #D9D5D1",
"sX c #DDDCDB",
"dX c #E1E0DE",
"fX c #E1E1E2",
"gX c #E4E3E2",
"hX c #E5E7E7",
/* pixels */
"9.9.q.G.i.v w t t t t t t t t t t t t t t t t w j w.G.t.9.9.",
"8.s.e.b C L j.U j.j.j.j.j.j.j.j.j.j.j.j.j.j.U j.L A n H a.8.",
"t.I C j.U U U U U U U U U U U U U U K L U U U U U U j.S C p.",
"D.n j.U U U U U U U U U U U U L L j.m.b.U U U U U U U j.C S.",
"J A U U U U U j.U U j.U L K K N.E.OX>X#Xz.U U U U U U U L v ",
"d L U U U U L K U U K K j.m.R.@XrX*X_.J.m.L U U U U U U U t ",
"w U U U U l.L.|.+X@XE.R.R.N.z.E.9X XE.U U U U U U U U U U t ",
"t U U U K b.OX*X#X*X<Xk.0 $ # T.>X}.&XR.P U U U U U U L U t ",
"w L L K U R.OX{.{.{. X9   X . !.-.q &XoXK L L K A K L K L w ",
"w K K K z.L.R.*Xk.N.OX9 @ ; 4 [ 6 r >XOXD K P H.|.b.K K L t ",
"w K K S z.M.S *XI.k.XX_ ^ { #.` m F.>X}.P OX>X*X&XE.P S K w ",
"w S S A l.m.C *X7Xe.P.Q.1.2.~.B.M.Y.,X-X{.*X7X{.c.U K A S w ",
"w S S A k.M.C *X3XF K.OX&X8X<X0X*X_.m.h b *X,X@XP.S A A S w ",
"w A A C j.b.C *X/.a U.+X|.{.E.&X{.% + X 8 =XL.L.*Xb.C A A w ",
"w C C n j.b.C :X3.i [.&X@XXXE.OXm.O o . < 7.1 b 7Xn.n C C w ",
"w n n n U b.M :X1X3 O.v.R.$Xl |.V.- , E Q W u K.7Xc.b n C w ",
"w n n n U b.C *XdX .] G l.rXL.H.(.} $.%.X.o.j.|.<Xx.b n n w ",
"w n n b U b.C *XhXuX%XP e.yX XL _.Z.4.5.B.L.H.).;Xx.c n n w ",
"w b b b K H.K &XgXyX4Xj.U tXW.K E.N.F.{.R.K.+.) ].b.z b b w ",
"w b b z b z.L.{.#Xn.C.L j.wX( K  XN.V.<X`.' > R %Xc.h b b w ",
"w z z z z z U L h k z.L e.eX~ a N.z.b.,X<.= * ..qX=.f z z w ",
"w z z l z z d d z z b.L *.iX^.: 2 5 A.>X/ & ! 6XpX@.f z z w ",
"w l l g l l z z l g z.U j.pXaX>.T Y 7 ,.| 6.2X8X.XN d h l w ",
"w d d d d d d d d d x.L U iXfXsX5X'.:.&.;.R.z.Z x d d d d w ",
"t d d d d d d d d y K H.z.yXyX&X XH.z.S b e w y s d d d d w ",
"V y y y y y y y y y d L L.n.K x p e w t t d d d d y y y y s ",
"D.s y y y y y y y y y y b y w t t y y y y y y y y y y y t y.",
"a.B w t t t t t t t t t w t t t t t t t t t t t t t t w g d.",
"0.h.l t w t w t t t w t t t t t w t w t t t t t t w w d f.q.",
"9.9.s.u.t w w w w w w w w w w w w w w w w w w w w w H g.r.8."
};
