/* XPM */
static char *FA_Pozos_NR[] = {
/* columns rows colors chars-per-pixel */
"30 30 256 2 ",
"   c #14110F",
".  c #161616",
"X  c #1B1718",
"o  c #242323",
"O  c #2B2625",
"+  c #3B3C3E",
"@  c #4D382D",
"#  c #7E5224",
"$  c #634332",
"%  c #7E553D",
"&  c #1C4F4F",
"*  c #285C5B",
"=  c #3F7373",
"-  c #2D6B6A",
";  c #136F6F",
":  c #454545",
">  c #495057",
",  c #5B5755",
"<  c #725C44",
"1  c #776758",
"2  c #686767",
"3  c #6F6F71",
"4  c #6F7072",
"5  c #7B7A77",
"6  c #7C7C7C",
"7  c #747677",
"8  c #766B65",
"9  c #A5613B",
"0  c #CE6E1E",
"q  c #CE6C1B",
"w  c #D16E1C",
"e  c #D36C16",
"r  c #D2701F",
"t  c #D5731E",
"y  c #DA751E",
"u  c #DD761E",
"i  c #DC741B",
"p  c #D67017",
"a  c #E37A1F",
"s  c #CB6E26",
"d  c #D27121",
"f  c #D57320",
"g  c #D77420",
"h  c #D37424",
"j  c #DA7621",
"k  c #DB7622",
"l  c #DE7921",
"z  c #D97929",
"x  c #D3772E",
"c  c #CD7632",
"v  c #E17A21",
"b  c #E57D22",
"n  c #E47D23",
"m  c #E97E21",
"M  c #936B54",
"N  c #957352",
"B  c #BC7044",
"V  c #A37D58",
"C  c #A76946",
"Z  c #827D78",
"A  c #8B7B6C",
"S  c #CB7A45",
"D  c #D17E40",
"F  c #FF891E",
"G  c #FB861C",
"H  c #DD873A",
"J  c #DE8236",
"K  c #EA8124",
"L  c #EE8324",
"P  c #EB872C",
"I  c #F18626",
"U  c #F48624",
"Y  c #F58827",
"T  c #FE8A22",
"R  c #FE8E26",
"E  c #FB8A24",
"W  c #F48B2B",
"Q  c #F88B28",
"!  c #FA8D29",
"~  c #FE8E29",
"^  c #FC8E2C",
"/  c #FE902C",
"(  c #E38C3C",
")  c #ED8C32",
"_  c #F38F3E",
"`  c #F58F3E",
"'  c #F3903E",
"]  c #F5913E",
"[  c #F7933A",
"{  c #FA943B",
"}  c #F89135",
"|  c #9C897C",
" . c #929176",
".. c #B7946F",
"X. c #A18E7C",
"o. c #A18D7B",
"O. c #AD9179",
"+. c #B8987E",
"@. c #B98669",
"#. c #CF874E",
"$. c #DE8B43",
"%. c #D08648",
"&. c #CD885C",
"*. c #D28C59",
"=. c #CB905F",
"-. c #DA9355",
";. c #D6945C",
":. c #DA9459",
">. c #DF985A",
",. c #EC8E42",
"<. c #E38E43",
"1. c #E69145",
"2. c #EB9346",
"3. c #EE954B",
"4. c #EE994C",
"5. c #F29342",
"6. c #FB9A42",
"7. c #EA9B57",
"8. c #F29C53",
"9. c #F7A65C",
"0. c #C88F60",
"q. c #C89162",
"w. c #CD9569",
"e. c #DC9D6A",
"r. c #D59C6A",
"t. c #C89B74",
"y. c #D39F76",
"u. c #E09E68",
"i. c #DFA16B",
"p. c #D3A279",
"a. c #DBA676",
"s. c #E6A265",
"d. c #E3A46A",
"f. c #EEA869",
"g. c #EAAC75",
"h. c #2422B4",
"j. c #3C3CBD",
"k. c #3433A8",
"l. c #5A598F",
"z. c #61778D",
"x. c #65798C",
"c. c #7E7F81",
"v. c #627A90",
"b. c #6F7F90",
"n. c #5555BA",
"m. c #706FA5",
"M. c #0D0CE0",
"N. c #0000FB",
"B. c #1312F2",
"V. c #1C1CE4",
"C. c #3D3BEF",
"Z. c #2726F9",
"A. c #3F3EF2",
"S. c #6A68DD",
"D. c #4545E6",
"F. c #5A59EF",
"G. c #4B50F8",
"H. c #6867E9",
"J. c #7175F6",
"K. c #807F80",
"L. c #846DBB",
"P. c #0C9E9E",
"I. c #0FADAD",
"U. c #08BCBB",
"Y. c #7F8080",
"T. c #748291",
"R. c #788592",
"E. c #619190",
"W. c #52BFBF",
"Q. c #6AAEAD",
"!. c #7CA6A6",
"~. c #1FCBCB",
"^. c #24DEDD",
"/. c #08FAF9",
"(. c #45E9E8",
"). c #838181",
"_. c #838485",
"`. c #8A898A",
"'. c #8E8E8E",
"]. c #8C8B8B",
"[. c #868788",
"{. c #968D8A",
"}. c #93928F",
"|. c #98928F",
" X c #828A92",
".X c #8D8E91",
"XX c #899595",
"oX c #939494",
"OX c #9A9A97",
"+X c #979999",
"@X c #9F9E9E",
"#X c #9A9B9B",
"$X c #969697",
"%X c #AB9686",
"&X c #B39583",
"*X c #B79D86",
"=X c #A9859F",
"-X c #AB9F95",
";X c #A19D9C",
":X c #A2A19F",
">X c #B8A392",
",X c #989CA6",
"<X c #9E9FB8",
"1X c #8787B8",
"2X c #86ADAC",
"3X c #9AA4A5",
"4X c #A3A4A3",
"5X c #A9A7A5",
"6X c #AAAAAA",
"7X c #ACA8A3",
"8X c #B2AEAB",
"9X c #B9B2AB",
"0X c #A9ADB0",
"qX c #AEB6BA",
"wX c #B2B2B1",
"eX c #B6B6B5",
"rX c #B6B4B3",
"tX c #B7B9BA",
"yX c #BBBCBB",
"uX c #B7B8B8",
"iX c #C7A585",
"pX c #D9AF89",
"aX c #D4AC89",
"sX c #DFB38D",
"dX c #DEB086",
"fX c #C6AC99",
"gX c #C7B19A",
"hX c #D4B294",
"jX c #E0B186",
"kX c #CBBBAB",
"lX c #C3B8AD",
"zX c #D6BBA4",
"xX c #C3BCBB",
"cX c #BFC2BD",
"vX c #CAC3BA",
"bX c #C2C0BE",
"nX c #D4C4BF",
"mX c #A39AD3",
"MX c #B0A6CE",
"NX c #BBBBC0",
"BX c #B6B2DB",
"VX c #8383EB",
"CX c #9B98E0",
"ZX c #B8BAE5",
"AX c #B9C0C6",
"SX c #C4C3C3",
"DX c #CDCDCC",
"FX c #CAC5C9",
"GX c #D5CECA",
"HX c #D5D0CB",
"JX c #C3C3D6",
"KX c #C9C9D2",
"LX c #D5D4D4",
"PX c #E1E0DD",
"IX c #D8DAE0",
"UX c #E3E4E3",
/* pixels */
"x.z.b.;Xp.3.] ] ] ] ] ] ] ] ] ] ] ] ] ] ] ] ] ] 3.e.-XT.z.x.",
"z. Xi.[ ~ R R R R R R R R R R R R R R R R R R R R ~ } 7.`.z.",
"T.u.R R R R R R R R R R R R R R R R T T R R R R R R R R 8.R.",
"-X] R ~ ~ ~ ~ ~ ~ ~ ~ ~ ~ ~ ~ T E / 6.{ R ~ ~ ~ ~ ~ ~ ~ } iX",
"e.^ ~ ~ ~ ~ ~ ~ ~ ~ / ~ R T T 4.d.jXkXhX[ R ~ ~ ~ ~ ~ ~ ~ 3.",
"5.~ ~ ~ ~ R T F ^ ^ F T / 6.9.fXDXuXiXr.6.R ~ ~ ~ ~ ~ ~ ~ ' ",
"] ~ ~ ~ R [ s.g.jXsXf.d.t.O.| @XSX7Xa.W ! ~ ~ ~ ~ ~ ~ ~ ~ ] ",
"] ! ! ! E 5.fXqX0XqXbX).> + O +XtX4X9Xd.! ! ! ^ ^ ! ! ! E ] ",
"] Q Q Q W s.fX;X:X4X5X:   . . &X| , wXpXW ! Q E G E ! Q Q ] ",
"] Y Y E 2.*X#XrX).'.6X: O @ $ C % , yXdXI W ) 8.g.2.Y Y Y ] ",
"] Y Y U 2.X.7 eXOX_.5XM 9 B S M 8 .XuXa.( pXzXkX9Xa.W U Y ] ",
"' I I U 1.X.4 eXSXc.$X%X@.@.&X{.].+XyXzXiXeXAX>X;.( W U I ' ",
"] I I I 1.X.4 eXxX5 oX6XwXSXyXFXeX:X].2 2 eXyX8Xa.P I I I ] ",
"] L L L <.o.4 eX*X1 +X6X4X4X@XwX4X+ o . : qXoXoXlX-.L L L ] ",
"] K K K <.o.4 tX..< ,XwX6X5X@X6X].o X   * (.- 2 vX>.m L K ' ",
"' K K m $.o.3 tXgX# A [.#XwX2 4X.X& ; P.U.I.= oXvX:.b K m ` ",
"` b b b $.X.4 eXPXV N 5 _.FXoX}.2X~././.^.E.).4XxX:.a m b ' ",
"' n n b $.| 3 rXUXHX9X6 c.DX4X6 3X!.W.Q.XX$X}.,XxX:.a n b _ ",
"' n n a H +.6 wXUXHXvX).6 KX1X6 @X'.{.;XOX}.m.D.mX>.u n v ' ",
"' v v v v -.%X>XsX;.t.Z Y.JXD.5 4X'..XcX<Xn.V.Z.MX:.u v v ' ",
"' l l l l l $.$.j u =.Z c.JXA.l.'._.`.NXH.N.N.F.FX*.u l u ' ",
"' l l k l l i i l k q.Z c.LXVXM.h.k. .yXD.N.C.ZXLX&.y l y ' ",
"' j j j j j k j j j 0.Z c.LXLXH.Z.B.j.S.G.J.BXnXfXD y j y ' ",
"' g g t g g g g g t q.Z K.LXUXIXZXCXS.L.=Xp.;.D x f g g t ' ",
"5.f t t f f f f f r %.%X_.DXGXzXaXr.;.H z q e p t t f t r _ ",
">.k r r r r r r r r d #.+.w.#.c s q q w w r d d d r r r t 2.",
">XJ w r r r r r r r w r x d q w w r r d d r r r r r r 0 z y.",
"R.7.w 0 0 0 0 0 0 0 0 0 q 0 0 0 0 0 0 0 0 0 0 0 0 0 0 q ,. X",
"v.oX2.z 0 0 0 0 0 0 0 0 0 0 0 0 0 0 0 0 0 0 0 0 0 0 h ,.|.v.",
"x.v. Xy.,._ _ _ _ _ _ _ _ _ _ _ _ _ _ _ _ _ _ _ _ _ e..Xv.x."
};
