/* XPM */
static char *FA_Pozos_FS_R[] = {
/* columns rows colors chars-per-pixel */
"30 30 256 2 ",
"   c #1A1313",
".  c #141619",
"X  c #191818",
"o  c #242323",
"O  c #2B2725",
"+  c #3B3D3D",
"@  c #4D382D",
"#  c #7E5224",
"$  c #634332",
"%  c #7E553D",
"&  c #1C4F4F",
"*  c #285C5C",
"=  c #3E7373",
"-  c #2D6B6B",
";  c #136F6F",
":  c #454545",
">  c #4B5251",
",  c #5A5856",
"<  c #725C44",
"1  c #776858",
"2  c #686767",
"3  c #6F7070",
"4  c #707271",
"5  c #7B7A77",
"6  c #7C7B7C",
"7  c #767878",
"8  c #766B65",
"9  c #9F2F2C",
"0  c #9E302D",
"q  c #9F3336",
"w  c #A0322F",
"e  c #A03330",
"r  c #A33532",
"t  c #A33635",
"y  c #A43532",
"u  c #A53936",
"i  c #A73833",
"p  c #A63B38",
"a  c #A0393D",
"s  c #A93D3A",
"d  c #A93C3A",
"f  c #A93C37",
"g  c #AA413E",
"h  c #AD413E",
"j  c #A5613B",
"k  c #AE4340",
"l  c #AF4441",
"z  c #AF4645",
"x  c #A94646",
"c  c #B14745",
"v  c #B04542",
"b  c #B24946",
"n  c #B44A47",
"m  c #BB4946",
"M  c #BC4946",
"N  c #B74D4B",
"B  c #B64D4C",
"V  c #BE4B48",
"C  c #BE4D4A",
"Z  c #BC4E4B",
"A  c #BA514E",
"S  c #AE5E5E",
"D  c #AD545C",
"F  c #BD5552",
"G  c #BD5653",
"H  c #BE5D5C",
"J  c #B65B57",
"K  c #936B55",
"L  c #957252",
"P  c #BC7044",
"I  c #AE605E",
"U  c #BC635F",
"Y  c #A57350",
"T  c #807A7B",
"R  c #8B7B6C",
"E  c #BE6B68",
"W  c #B86868",
"Q  c #BB716F",
"!  c #AF6774",
"~  c #B76E72",
"^  c #B17574",
"/  c #BC7575",
"(  c #BC7679",
")  c #BD7A7A",
"_  c #B3777A",
"`  c #C04F4C",
"'  c #C25A57",
"]  c #C55E5B",
"[  c #C85F5C",
"{  c #CA625F",
"}  c #C7615E",
"|  c #C67547",
" . c #CB6562",
".. c #CC6966",
"X. c #C36D6A",
"o. c #CE6C6A",
"O. c #D16966",
"+. c #D36D6A",
"@. c #C3716E",
"#. c #CF716F",
"$. c #D6716E",
"%. c #D1706D",
"&. c #D8726F",
"*. c #C57371",
"=. c #C77B78",
"-. c #D47471",
";. c #D97572",
":. c #DB7673",
">. c #DA7975",
",. c #DD7976",
"<. c #DE7D7A",
"1. c #DB7E7B",
"2. c #929076",
"3. c #9D8679",
"4. c #B7946F",
"5. c #BE817F",
"6. c #B98669",
"7. c #D3817E",
"8. c #DE827F",
"9. c #E0807D",
"0. c #2322B4",
"q. c #3C3CBC",
"w. c #3333A8",
"e. c #5A5A90",
"r. c #647A8D",
"t. c #6D7D8E",
"y. c #7F7F80",
"u. c #727D8E",
"i. c #687D90",
"p. c #5555BA",
"a. c #706EA6",
"s. c #0E0DE1",
"d. c #0000FB",
"f. c #1312F2",
"g. c #1C1BE5",
"h. c #2726F9",
"j. c #3E3DF1",
"k. c #7A61C1",
"l. c #6966DE",
"z. c #4544E6",
"x. c #5958EF",
"c. c #4D53F7",
"v. c #6767E9",
"b. c #7378F5",
"n. c #817E8C",
"m. c #9873AA",
"M. c #0C9E9E",
"N. c #0FADAD",
"B. c #08BCBC",
"V. c #7F8080",
"C. c #7A8292",
"Z. c #609191",
"A. c #69AEAE",
"S. c #7CA6A6",
"D. c #51C0BF",
"F. c #1FCBCB",
"G. c #24DDDD",
"H. c #08F9F9",
"J. c #45E9E9",
"K. c #828181",
"L. c #848586",
"P. c #8C8C8C",
"I. c #868788",
"U. c #9A8685",
"Y. c #9C8888",
"T. c #958A89",
"R. c #93928E",
"E. c #8B8692",
"W. c #838592",
"Q. c #998D98",
"!. c #8D9191",
"~. c #839B9C",
"^. c #939595",
"/. c #9A9A97",
"(. c #979999",
"). c #9D9D9D",
"_. c #969698",
"`. c #A48B8A",
"'. c #AE888A",
"]. c #B38283",
"[. c #B59884",
"{. c #A38D94",
"}. c #A89A9A",
"|. c #BF9F9C",
" X c #B89998",
".X c #A89589",
"XX c #A0A09E",
"oX c #B0A09F",
"OX c #999CA7",
"+X c #9E9FB9",
"@X c #8787B8",
"#X c #BC93A2",
"$X c #90A9A9",
"%X c #A1A1A1",
"&X c #A5A5A3",
"*X c #A9A7A6",
"=X c #AAABAB",
"-X c #B1ADAD",
";X c #BDA9A8",
":X c #AEB7B7",
">X c #B2B2B2",
",X c #B6B6B6",
"<X c #B4B3B3",
"1X c #B7B8BA",
"2X c #BBBBBB",
"3X c #BFB3B3",
"4X c #BBB1A7",
"5X c #C0888A",
"6X c #DF8380",
"7X c #DF8582",
"8X c #DE8683",
"9X c #DD8A88",
"0X c #DA8785",
"qX c #C1918F",
"wX c #D6908E",
"eX c #C99895",
"rX c #D19392",
"tX c #D69E9C",
"yX c #DC9A98",
"uX c #E08986",
"iX c #E28F8C",
"pX c #E28C89",
"aX c #E08380",
"sX c #E2918F",
"dX c #E59897",
"fX c #E39693",
"gX c #CDA19F",
"hX c #D6A09E",
"jX c #C7B19A",
"kX c #CAA7A7",
"lX c #D2AAA9",
"zX c #D0A3A1",
"xX c #C6BAB9",
"cX c #D1B5B3",
"vX c #BFC1BF",
"bX c #A096D8",
"nX c #BCB6C2",
"mX c #ACA2D2",
"MX c #B4AFDC",
"NX c #8383EC",
"BX c #9A97E1",
"VX c #B9BCE5",
"CX c #CBBCC9",
"ZX c #BCC2C2",
"AX c #C4C2C2",
"SX c #CDCCCC",
"DX c #C8C8C7",
"FX c #D5CBCC",
"GX c #D4D1CC",
"HX c #C3C3D7",
"JX c #C9C9D2",
"KX c #D4D2D5",
"LX c #E1DFDD",
"PX c #E2E2DF",
"IX c #D9DCE0",
"UX c #E5E4E4",
/* pixels */
"r.r.t.Q.].H C C ` ` ` ` ` ` ` ` ` ` ` ` ` ` C C H ( {.u.r.r.",
"r.C.) o.1.iXdXdXdXdXdXdXdXdXdXdXdXdXdXdXdXdXdXdXsX6X#.*.n.r.",
"t./ >.fXsXiXiXiXiXiXiXiXiXiXiXiXiXiXpXpXiXiXiXiXiXsXsX6XX.u.",
"Q...pX8XuXuXuXuXuXuXuXuXuXuXuX8X8X9XfXsX8XuXuXuXuXuX8XpX-.'.",
"/ -.8.8.6X6X7X7X6XaX7X7X8.<.<.wXtXlXxXlX9X8.6X6X6X6X8.8.<.H ",
"G ,.<.<.<.<.,.,.1.1.:.,.9.pXyX;XDX,X|.qX9X,.<.<.<.<.<.<.<.C ",
"V ,.,.>.:.1.rXhXlXlXyXrX X`.T.).AX*XtX>.:.,.>.,.,.,.,.:.,.C ",
"C ;.;.;.&.7.;X:X=X,XAXK.> + O (.1X%X<XrX-.;.;.;.;.;.;.;.;.C ",
"C $.$.+.-.rX;X%X%X%X*X:   . . [.3., >XzX%.$.$.+.O.+.$.$.$.C ",
"C +.+.+.=.}./.<XK.P.=X: O @ $ Y % , 2XzXo.o.#.0XtX7.+.+.+.C ",
"V O.O.O.=.Y.7 ,X/.L.*XK j P | K 8 !.2XeX@.zXcXxX<XeX+.O.O.C ",
"C  . . .=.Y.3 ,XAXy./..X6.6.[.T.P.(.2XcX|.,XZXoX5.*... ...V ",
"V  . .{ *.Y.4 ,XxX5 ^.=X>XAX2XDX,XXXP.2 2 ,X2X-XqX .{  . .C ",
"C } } [ *.U.4 ,X[.1 _.=X&X%X).>X%X+ o X : :X^.^.3X=.] { { V ",
"V ] ] ] @.U.3 1X4.< OX>X=X*X).=XP.o X   * J.- 2 AX=.' ] ] C ",
"M ' ' ' X.U.3 1XjX# R I.).-X2 &X!.& ; M.B.N.= ^.AX) G ' ' V ",
"V G G F E U.4 ,XLXY L 5 L.DX^.R.$XF.H.H.G.Z.K.&XxX( F G G M ",
"M F F A E U.3 <XUXGX4X6 y.SX&X6 %XS.D.A.~._.R.OXnX( Z F F V ",
"M A A N U `.6 >XUXFXxXK.6 JX@X7 ).P.T.}./.R.a.z.bX=.B A A M ",
"V N N N N Q `. XgX) ].6 K.HXz.5 &XP.!.vX+Xp.g.h.mX/ c N N V ",
"M n n n n n W W b c ^ T V.HXj.e.P.L.I.nXv.d.d.x.CX~ c n n M ",
"M c c c b b h v b c ^ T y.KXNXs.0.w.2.2Xz.d.j.VXKX! k c c M ",
"M l l k l l l l l k ^ T V.KXKXv.h.f.q.l.c.b.MXCX#XD h l k M ",
"M h h g h h h h g s ^ 6 V.KXPXIXVXBXl.k.m.5X~ D x g h h g m ",
"V s s s s s s s s p S `.L.SXFXkXqX) ~ J l t y i f s s s s M ",
"W f u u u u u u u u p I '.^ S x a q e y y u p p u u u u u A ",
"{.z r r r r r r r r r t g t e e y y r t t r r r r r r r d _ ",
"C.J e 0 e e e e e e e w 9 w e e e e e e e e e e e e e 0 A W.",
"r.E.F p 0 0 0 0 0 0 0 0 0 0 0 0 0 0 0 0 0 0 0 0 9 0 r N E.i.",
"r.r.C._ N m m M M M M M M M M M M M M M M M M m m m ~ W.i.r."
};
