/* XPM */
static char *FA_PozoFecal_A[] = {
/* columns rows colors chars-per-pixel */
"30 30 256 2 ",
"   c #141415",
".  c #14191D",
"X  c #1C1B1C",
"o  c #39281E",
"O  c #252424",
"+  c #2D2A28",
"@  c #362E28",
"#  c #373737",
"$  c #3D3531",
"%  c #742F00",
"&  c #6F3E0E",
"*  c #7B3500",
"=  c #7B3C02",
"-  c #753200",
";  c #634230",
":  c #7A4E33",
">  c #695039",
",  c #4D4A48",
"<  c #594E47",
"1  c #4C5053",
"2  c #5D5E5F",
"3  c #5D5954",
"4  c #635243",
"5  c #705B46",
"6  c #665D53",
"7  c #6E6155",
"8  c #656566",
"9  c #636364",
"0  c #676868",
"q  c #6B6A6A",
"w  c #6D6966",
"e  c #706F6F",
"r  c #767574",
"t  c #7B7976",
"y  c #7C7A77",
"u  c #7A7B7B",
"i  c #824408",
"p  c #844810",
"a  c #88501A",
"s  c #8D5828",
"d  c #895522",
"f  c #915B26",
"g  c #935F2E",
"h  c #8C583A",
"j  c #966534",
"k  c #A4623A",
"l  c #886745",
"z  c #8D6C4C",
"x  c #8A755F",
"c  c #987A5B",
"v  c #AB6841",
"b  c #B86F46",
"n  c #B36D44",
"m  c #A37B54",
"M  c #A47E58",
"N  c #C87648",
"B  c #D37D4B",
"V  c #C77D52",
"C  c #B58B5F",
"Z  c #9B8879",
"A  c #A78766",
"S  c #AD8C6D",
"D  c #AC8A76",
"F  c #AE8F7D",
"G  c #B68F78",
"H  c #B79676",
"J  c #C4815C",
"K  c #D59B7A",
"L  c #255A9B",
"P  c #2B5D9B",
"I  c #2C5E9A",
"U  c #295E9D",
"Y  c #2D5F9C",
"T  c #2E619E",
"R  c #2B609F",
"E  c #30639F",
"W  c #33619A",
"Q  c #295FA1",
"!  c #2E62A1",
"~  c #2F65A6",
"^  c #2E63A5",
"/  c #2E66A9",
"(  c #2E67AD",
")  c #2F68AE",
"_  c #3064A3",
"`  c #3165A5",
"'  c #3465A2",
"]  c #3668A5",
"[  c #3A6AA3",
"{  c #3167A8",
"}  c #3168AA",
"|  c #3269AD",
" . c #346AAE",
".. c #3D6FAE",
"X. c #2E68B0",
"o. c #316BB1",
"O. c #326DB2",
"+. c #356DB2",
"@. c #336EB4",
"#. c #3670B6",
"$. c #3D72B3",
"%. c #3270B9",
"&. c #3672B9",
"*. c #3572BD",
"=. c #3273BD",
"-. c #3975BE",
";. c #3C75B9",
":. c #65778A",
">. c #66788B",
",. c #677A8C",
"<. c #697B8C",
"1. c #687A8B",
"2. c #6C7E91",
"3. c #416EA4",
"4. c #406FA9",
"5. c #4171AA",
"6. c #4173AF",
"7. c #4E79AC",
"8. c #4874A8",
"9. c #4276B5",
"0. c #497DB7",
"q. c #4D7DB6",
"w. c #477CBA",
"e. c #447ABB",
"r. c #487CBA",
"t. c #487CBB",
"y. c #2F73C5",
"u. c #3274C3",
"i. c #3576C6",
"p. c #3373C2",
"a. c #3977C1",
"s. c #3778C6",
"d. c #3A78C2",
"f. c #3A7AC6",
"g. c #3C7BC7",
"h. c #3D7CC7",
"j. c #3D7AC3",
"k. c #3678C9",
"l. c #3A7BC9",
"z. c #3B7CC9",
"x. c #3D7CC9",
"c. c #467FC2",
"v. c #427DC2",
"b. c #497FC1",
"n. c #6F8194",
"m. c #72879D",
"M. c #72869B",
"N. c #5F83AF",
"B. c #4E80BB",
"V. c #5283BB",
"C. c #5B86B8",
"Z. c #7289A6",
"A. c #778CA3",
"S. c #738DAC",
"D. c #758BA3",
"F. c #7690AF",
"G. c #6487B3",
"H. c #638CBC",
"J. c #6A8DB6",
"K. c #6B92BD",
"L. c #7C98BA",
"P. c #7396BB",
"I. c #4782C9",
"U. c #4B84CA",
"Y. c #5487C5",
"T. c #5B8DC9",
"R. c #5B8AC2",
"E. c #638FC2",
"W. c #6994C6",
"Q. c #7E9EC3",
"!. c #7B9FCB",
"~. c #79A1D2",
"^. c #838383",
"/. c #8C8C8C",
"(. c #868786",
"). c #928F8C",
"_. c #998E89",
"`. c #929292",
"'. c #929395",
"]. c #939495",
"[. c #959595",
"{. c #959391",
"}. c #979899",
"|. c #9B9B9B",
" X c #A19F9E",
".X c #BDA48C",
"XX c #B8A593",
"oX c #8396AC",
"OX c #9D9EA0",
"+X c #909BA7",
"@X c #8299B3",
"#X c #9DA1A5",
"$X c #87A1BF",
"%X c #8CA0B8",
"&X c #93A6BE",
"*X c #98A8BB",
"=X c #A1A1A0",
"-X c #A7A6A6",
";X c #A3A4A4",
":X c #A9A7A4",
">X c #ABAAAA",
",X c #ADADAD",
"<X c #ACACAC",
"1X c #ACAAA6",
"2X c #B3B0AD",
"3X c #A3AAB3",
"4X c #A5AEB6",
"5X c #ADB1B4",
"6X c #A8B2BE",
"7X c #B3B2B2",
"8X c #B4B4B3",
"9X c #BEBDBB",
"0X c #B7B6B7",
"qX c #C6AE96",
"wX c #C7B29C",
"eX c #CABEB0",
"rX c #C6B9AA",
"tX c #C0C0BF",
"yX c #CAC1B6",
"uX c #D2C1B0",
"iX c #839FC2",
"pX c #88A5C8",
"aX c #9CAFC6",
"sX c #87A9D2",
"dX c #98B5D8",
"fX c #A1B0C0",
"gX c #AEB9C5",
"hX c #AFB9C2",
"jX c #A3B5C9",
"kX c #ACBACB",
"lX c #A2B9D7",
"zX c #BFC0C1",
"xX c #AFC0D2",
"cX c #B1C1D3",
"vX c #B5C3D4",
"bX c #B4C4D8",
"nX c #C0C0C0",
"mX c #CCCBC9",
"MX c #CBC8C3",
"NX c #D3CEC5",
"BX c #DCD4CD",
"VX c #C0C9D3",
"CX c #CDD4DC",
"ZX c #D5D6D6",
"AX c #D3D4D4",
"SX c #DED9D3",
"DX c #DDDDDD",
"FX c #D4D5D8",
"GX c #E1DEDA",
"HX c #E2DFDC",
"JX c #E1E1DE",
"KX c #DDE1E5",
"LX c #E2E3E3",
"PX c #E5E7E8",
"IX c #E9EAEB",
"UX c #ECE8E3",
/* pixels */
",.>.2.oXP.V.w.t.t.t.t.t.t.t.t.t.t.t.t.t.t.t.t.w.V.K.@Xn.>.,.",
":.m.W.b.j.z.l.l.l.l.l.l.l.l.l.l.l.l.l.l.l.z.z.l.x.f.c.E.m.:.",
"n.K.d.l.z.l.l.l.l.l.l.l.l.l.l.l.l.l.l.x.x.x.z.k.k.z.l.s.R.n.",
"@Xb.l.f.l.l.l.l.l.l.l.l.l.l.l.l.l.l.l.k.i.y.i.U.I.f.f.l.v.L.",
"K.j.f.f.g.f.g.g.g.g.g.g.g.g.g.g.h.f.g.I.T.~.sXvXcXT.s.f.f.V.",
"B.g.f.f.g.g.g.g.h.x.s.f.h.h.g.f.i.u.c.&XVXSXMX8X0XQ.x.f.f.r.",
"r.f.f.f.f.f.f.i.p.p.Y.c.p.u.a.v.T.~.$X:XZX=X+XG.8.B.h.f.f.t.",
"t.d.d.d.d.d.Y.pXsXdXvXbX!.W.pXjX4X/./.OXZX,X3XsXl.u.d.d.d.t.",
"t.d.d.d.d.a.H.;X<X9X;X7XFX5Xt 3 , O # =XmX,X7X5XQ.v.a.d.a.t.",
"t.a.a.-.-.-.W.*X|.}.}./.ZXr X     X + 7X9Xw '.2X6XY.=.a.a.w.",
"r.-.-.-.-.H.3X5X,X<X7X[.ZX9 X O O . @ K G o 1 MXkXt.*.-.-.r.",
"t.-.-.%.v.F.(.=X,X>X2 r DX8 . . + ; ; b k $ u NXkX9.*.-.*.w.",
"w.&.&.%.v.S.r u -XmXq r DX8 : v n N N h < u }.mXkX9.%.&.&.r.",
"r.&.&.@.e.S.t 8 >XLX=Xe 8XF V B B V J Z /.`.'.mXkX9.%.&.#.r.",
"r.#.#.O.e.S.y 8 ,XLX;X0 |. X{.D D _.`.[.[.].'.mXkX6.@.#.@.r.",
"r.+.+.o.;.S.t 8 <XLX=X0 |.|.`.`.`.[.`.`.].`.l qXcX5.O.+.+.r.",
"r.+.+.o.;.Z.t 9 ,XSXc 6 OX|./.u -X9XOX].).l = wXcX5.o.+.O.t.",
"w.o.o.) $.Z.t 8 ,XGXf 4 #X-X(.^.8XnX9Xx d = i wXxX4.X.o.| w.",
"r. . .( $.Z.t 8 ,XGXg > (.#X'.r ,XtXS * i * j BXgX4.(  .| r.",
"r.| | / $.Z.t 9 >XIXM = 5 7 7 0 -X9XM = * p XXPX6X5.( | } r.",
"r.} } / $.Z.t 8 >XIXyXf - = = w hXzXj % s .XIXUXgX4./ } / r.",
"r.{ { ~ ..Z.y 8 <XLXKXrXM d a & z A j H NXCXgXjXJ.] ~ { ~ r.",
"r.` ` ! ..Z.r 8 >XPXAXKXKXeXuXC m Z :XlXiXG.3.' Q ~ ` ` ^ r.",
"r._ _ ! ` S.).2 <XIXJXHXHXCXaX&XL.V.7.W L Q ! ^ ` _ _ _ ! r.",
"0.! ! ! R 4.%Xu 1XCXfXL.N.7.W W P L U ! _ _ _ _ ! ! ! ! T w.",
"H.` T T T U [ F.S.8.[ R L L ! ! T E T T T T T T T T T T T B.",
"@X5.Y T T T U ' _ L U T E T T T T T T T T T T T T T T T ] K.",
"n.C.T I Y Y Y P P T Y Y Y Y Y Y Y Y Y Y Y Y Y Y Y Y Y P q.m.",
"1.A.q.[ I I I I I I I I I I I I I I I I I I I I I I E 0.A.<.",
">.1.m.P.0.r.r.r.r.r.r.r.r.r.r.r.r.r.r.r.r.r.r.r.r.0.J.D.<.>."
};
