/* XPM */
static char *FA_PozoFecal_SC_R[] = {
/* columns rows colors chars-per-pixel */
"30 30 256 2 ",
"   c #14191C",
".  c #1C1C1A",
"X  c #161614",
"o  c #1F201E",
"O  c #39281E",
"+  c #292725",
"@  c #3A3634",
"#  c #362E28",
"$  c #763300",
"%  c #7B3500",
"&  c #7B3D02",
"*  c #73410C",
"=  c #634230",
"-  c #7A4E33",
";  c #695138",
":  c #4F5351",
">  c #58585B",
",  c #504A48",
"<  c #635242",
"1  c #715B45",
"2  c #665D53",
"3  c #6F6254",
"4  c #62605B",
"5  c #676765",
"6  c #656563",
"7  c #686663",
"8  c #696765",
"9  c #6D6966",
"0  c #6A6B6A",
"q  c #676868",
"w  c #706F6F",
"e  c #6E6E73",
"r  c #747476",
"t  c #737379",
"y  c #73747A",
"u  c #7B7B7B",
"i  c #77787C",
"p  c #824203",
"a  c #86490C",
"s  c #8D541C",
"d  c #8A5725",
"f  c #925D28",
"g  c #8D593A",
"h  c #966534",
"j  c #A4613A",
"k  c #8B6947",
"l  c #8A755F",
"z  c #997A5B",
"x  c #AB6841",
"c  c #B66E45",
"v  c #A57A4E",
"b  c #A47E57",
"n  c #807F7C",
"m  c #C87748",
"M  c #D47D4B",
"N  c #C87D52",
"B  c #FECB01",
"V  c #FFCC01",
"C  c #FFCD06",
"Z  c #FCCB07",
"A  c #FECF09",
"S  c #FFCF0C",
"D  c #FCCB08",
"F  c #FFD00C",
"G  c #FFD10B",
"H  c #F7CB14",
"J  c #FACE15",
"K  c #F8CF1F",
"L  c #FED212",
"P  c #FED214",
"I  c #FFD514",
"U  c #FED319",
"Y  c #FED41A",
"T  c #FED51D",
"R  c #EFC829",
"E  c #F7CE21",
"W  c #F3CE29",
"Q  c #FED621",
"!  c #FBD426",
"~  c #FFD926",
"^  c #FFD929",
"/  c #FFDA2E",
"(  c #FBD633",
")  c #FFDE35",
"_  c #FDDC32",
"`  c #FEDF3A",
"'  c #FCDB38",
"]  c #F7D538",
"[  c #E8C635",
"{  c #FFE03A",
"}  c #FFE23F",
"|  c #9B897F",
" . c #A8866A",
".. c #BB9860",
"X. c #AD8B78",
"o. c #B0937A",
"O. c #B78E78",
"+. c #BAB37C",
"@. c #C4815C",
"#. c #D69B7A",
"$. c #CABD74",
"%. c #CABE7B",
"&. c #C7B970",
"*. c #DAC254",
"=. c #E3C748",
"-. c #F7DC4C",
";. c #F6D645",
":. c #E3C952",
">. c #E4CC58",
",. c #F5DE5C",
"<. c #F4DA56",
"1. c #FEE345",
"2. c #FFE343",
"3. c #FEE54A",
"4. c #FEE54C",
"5. c #FDE553",
"6. c #FFE954",
"7. c #FFEA5B",
"8. c #DEC96C",
"9. c #D4C265",
"0. c #EDD775",
"q. c #F1D967",
"w. c #FEED62",
"e. c #FFED65",
"r. c #FEEE69",
"t. c #F7E366",
"y. c #FFF16D",
"u. c #FFF167",
"i. c #F6E874",
"p. c #FDF276",
"a. c #FFF474",
"s. c #FFF57D",
"d. c #FFF67A",
"f. c #FEF87F",
"g. c #61768E",
"h. c #66798D",
"j. c #6F7F8B",
"k. c #617793",
"l. c #627893",
"z. c #7B7C86",
"x. c #74828C",
"c. c #798588",
"v. c #838383",
"b. c #8C8C8C",
"n. c #828A8C",
"m. c #958F8B",
"M. c #8A9287",
"N. c #949788",
"B. c #929292",
"V. c #949494",
"C. c #9A9A99",
"Z. c gray62",
"A. c #878992",
"S. c #A19F9E",
"D. c #ADAC86",
"F. c #A1A48C",
"G. c #BDA58E",
"H. c #A1A19F",
"J. c #BEAA9B",
"K. c #B0B09F",
"L. c #9E9FA2",
"P. c #9DA1A3",
"I. c #A7A6A6",
"U. c #A3A3A2",
"Y. c #ABAAAA",
"T. c #ADADAD",
"R. c #ACACAC",
"E. c #A1A3AD",
"W. c #B0AEAB",
"Q. c #B5B5AE",
"!. c #ACACB1",
"~. c #B2B2B2",
"^. c #B3B4B7",
"/. c #BDBCBB",
"(. c #BCBCB4",
"). c #D1BC8E",
"_. c #C0AEA2",
"`. c #C7BBB4",
"'. c #C6B9AA",
"]. c #CAC184",
"[. c #CCC88A",
"{. c #DCCC86",
"}. c #CDC792",
"|. c #DBD39A",
" X c #E3D38F",
".X c #F2DE81",
"XX c #E8DA99",
"oX c #FEF682",
"OX c #FFF282",
"+X c #FEF987",
"@X c #FEFA8E",
"#X c #FEFA8B",
"$X c #FFF189",
"%X c #E9E696",
"&X c #FDF393",
"*X c #FDFB91",
"=X c #FFFE96",
"-X c #FCFB92",
";X c #F4F39B",
":X c #FBF59C",
">X c #FEFE9A",
",X c #FFFF9E",
"<X c #FDFB9B",
"1X c #F4EC84",
"2X c #C2C1AD",
"3X c #CBC8AB",
"4X c #D9D3A8",
"5X c #C8C4B8",
"6X c #DDDABA",
"7X c #D8D6B6",
"8X c #E0D5AB",
"9X c #E7DAA3",
"0X c #E2DEBB",
"qX c #E1D9B4",
"wX c #E9E7A9",
"eX c #F0E7A9",
"rX c #F7F6A2",
"tX c #FFFFA0",
"yX c #FEFEA6",
"uX c #FEFEA8",
"iX c #FEFEAD",
"pX c #E3E1B5",
"aX c #F4F3B3",
"sX c #FFFFB0",
"dX c #FEFEB7",
"fX c #FBFAB4",
"gX c #F3F3BD",
"hX c #FEFEBA",
"jX c #AFB9C2",
"kX c #BFBFC6",
"lX c #C1C1C2",
"zX c #C5C6CB",
"xX c #CBCBCC",
"cX c #D1C8C3",
"vX c #DDDDCD",
"bX c #CECED4",
"nX c #D4CFD1",
"mX c #D5D5D5",
"MX c #DADAD7",
"NX c #DBDBD9",
"BX c #E1DECE",
"VX c #E0DCD8",
"CX c #E1E1CC",
"ZX c #EBE7C9",
"AX c #F2F1C2",
"SX c #FDFFC4",
"DX c #FFFFCB",
"FX c #FFFFCD",
"GX c #E2E2D8",
"HX c #D9DBE2",
"JX c #DBDEEC",
"KX c #DFE2E6",
"LX c #E2E3E2",
"PX c #E9EBEC",
"IX c #E8E8E7",
"UX c #E0E5F0",
/* pixels */
"h.g.j.F.9.W S S S S S S S S S S S S S S S S S S E :.D.x.g.h.",
"g.n.>.5.$XfXFXDXDXDXDXDXDXDXDXDXDXDXDXDXDXDXDXFXhX&Xt.;.M.g.",
"x.:.OXSXhXhXdXdXdXdXdXdXdXdXdXdXdXdXdXdXdXhXdXdXdXhXSX:X;.c.",
"D.<.hXiXiXsXsXsXsXsXsXsXsXsXsXsXsXsXsXiXiXiXiXfXfXiXiXhXi.$.",
":.OXyXyXuXuXuXuXuXuXuXuXuXuXuXuXuXuXuXiXaXgXAXCXvXaXyXyX<XW ",
"J =X,X,X,X,XtXtXtXtX,X,XtXtXtX,X>X>X;X7XvXbXkX(.^.pXtX,XyXS ",
"C >X=X=X=X=X=X=X-X-XrX;X*X*X-X<XrXaX4XL.mXU.K.|.[.%X>X=X,XA ",
"A @X*X@X@X@X;XwXgXAXCXZXeXeXpX6X2XB.b.H.MXR.Q.aX=X@X*X@X=XA ",
"C #X#X+X+X+X%XI.Y./.L.!.MXQ.r : , + @ U.xXT.~.~.wX#X+X+X@XC ",
"C oXoXoXoXoX:X3XC.C.C.b.mXr o X X . # ~./.8 V.!.3X&Xs.oX+XA ",
"C s.s.s.s.%X2X(.T.R.~.V.mX6 . + +   # #.O.O : lX7X1Xd.s.oXC ",
"C p.p.p.f.}.z.P.T.Y.> r NX5     + = = c j @ u xX0Xi.a.p.s.C ",
"C y.y.y.d.[.e n I.xX0 r NX5 - x c m m g , i C.zX6Xi.y.y.p.C ",
"C r.r.e.a.[.t 8 Y.LXU.w ^.o.N M M N @.| b.B.V.zX6Xt.u.r.y.C ",
"C w.w.w.y.].t 5 T.LXU.q C.S.B.X.X.m.B.V.V.V.V.zXqXt.w.w.r.C ",
"C 7.7.7.e.].t 7 R.LXU.q C.Z.B.B.B.V.B.B.V.B.k J.0X,.7.7.w.C ",
"V 6.6.6.7.].y 7 T.VXz 2 L.Z.b.u I./.L.V.m.k p J.pX,.6.6.7.C ",
"C 4.4.4.6.%.t 7 T.VXf < P.I.v.v.~.lX/.l d & a _.0X<.3.4.5.C ",
"V 3.1.1.6.%.y 5 T.VXf ; n.P.V.r T.lX .% p % h nX8X-.1.1.3.V ",
"V 2.2.} 4.%.t 7 Y.IXb & 1 3 3 q I./.b & & a G.KX4X-.} 2.2.V ",
"V { ` ` 1.$.y 8 Y.PX5Xf $ & & 9 jX5Xh $ f G.UXJX8X;.{ ` } V ",
"V ) ) _ } $.y 8 R.IXKX'.b s s * k  .h o.cXBX8X9Xq.' ) ) ) V ",
"B / / ^ { &.t 9 Y.IXmXLXGX`.`. .v ..).eX.X,.] ( ~ / / / / V ",
"B ~ ^ ~ ^ 8.A.4 W.IXHXHXHXCXXX X0.5.;.! U Q ~ ~ ^ ~ ~ ~ ^ B ",
"Z Q Q Q T ( {.i E.ZX|.0.<.;.E K U I Y Q Q Q Q Q Q Q Q T Q B ",
"[ P Y U Y P / 8.8.( ! U G I Y Y Y T T Y Y Y Y Y Y Y U U U H ",
"+.J P P P P L T Y G L L P P P P P P P P P P P P P P L P F *.",
"x.R A S S F F A A F F F F F F F F F F F F F F F F S S A J M.",
"k.N.H D C C C C C C C C C C C C C C C C C C C C C C C S N.l.",
"h.k.n.*.Z B B V V V V V V V V V V V V V V V V B B B =.M.k.h."
};
