/* XPM */
static char *FA_PozoFecal_NR_R[] = {
/* columns rows colors chars-per-pixel */
"30 30 256 2 ",
"   c #141A1C",
".  c #1C1C1A",
"X  c #161514",
"o  c #201F1E",
"O  c #39281E",
"+  c #2A2725",
"@  c #282725",
"#  c #3A3634",
"$  c #362E28",
"%  c #762F00",
"&  c #7B3500",
"*  c #7B3C02",
"=  c #743906",
"-  c #634230",
";  c #7A4E33",
":  c #695038",
">  c #5A4E47",
",  c #4F5151",
"<  c #585B5D",
"1  c #46484B",
"2  c #635242",
"3  c #705B45",
"4  c #635E57",
"5  c #6E6154",
"6  c #666563",
"7  c #676665",
"8  c #656363",
"9  c #696765",
"0  c #6A6A6A",
"q  c #6B6967",
"w  c #706F6F",
"e  c #6E7174",
"r  c #747575",
"t  c #74777A",
"y  c #73777A",
"u  c #74787A",
"i  c #7B7B7B",
"p  c #803E00",
"a  c #84460A",
"s  c #8B5118",
"d  c #8B5623",
"f  c #925C28",
"g  c #8D583A",
"h  c #966534",
"j  c #A4613A",
"k  c #D26F1D",
"l  c #D0701E",
"z  c #CD6F20",
"x  c #CF7223",
"c  c #CF7224",
"v  c #CF7426",
"b  c #D17526",
"n  c #D37423",
"m  c #D37729",
"M  c #D47729",
"N  c #D3782B",
"B  c #D2792D",
"V  c #D57A2E",
"C  c #D5792B",
"Z  c #D97B2D",
"A  c #CF7C34",
"S  c #D67D31",
"D  c #D77F34",
"F  c #D87E30",
"G  c #8A6744",
"H  c #8E6C4B",
"J  c #8A755F",
"K  c #997A5B",
"L  c #AB6841",
"P  c #B66E45",
"I  c #A5794E",
"U  c #A47E57",
"Y  c #C87648",
"T  c #D47D4B",
"R  c #C87D52",
"E  c #DA8135",
"W  c #DC8335",
"Q  c #D7843D",
"!  c #DE8539",
"~  c #DB853B",
"^  c #D78137",
"/  c #E18A3E",
"(  c #E28A3D",
")  c #F38F3E",
"_  c #F3903F",
"`  c #F4913F",
"'  c #9B897F",
"]  c #A9896A",
"[  c #B58A61",
"{  c #AD8B78",
"}  c #B78E78",
"|  c #BC9675",
" . c #BE9979",
".. c #B19679",
"X. c #DD8D49",
"o. c #D98946",
"O. c #DF914C",
"+. c #C4815C",
"@. c #D99358",
"#. c #E28D42",
"$. c #E58F44",
"%. c #ED8E41",
"&. c #E59046",
"*. c #E99146",
"=. c #E69349",
"-. c #E7944C",
";. c #E8964C",
":. c #EA9349",
">. c #EC994D",
",. c #F59241",
"<. c #F59444",
"1. c #F1964B",
"2. c #E29554",
"3. c #EB9A51",
"4. c #EE9D54",
"5. c #EE9A52",
"6. c #E69D5C",
"7. c #EB9A54",
"8. c #F19E56",
"9. c #F09C51",
"0. c #F09F58",
"q. c #F3A157",
"w. c #F2A25A",
"e. c #F5A55E",
"r. c #F4A45C",
"t. c #CE996A",
"y. c #DC9A62",
"u. c #DC9E6A",
"i. c #C99A73",
"p. c #C19C7D",
"a. c #D39D79",
"s. c #D49E73",
"d. c #DDA06F",
"f. c #DEA476",
"g. c #D8A77C",
"h. c #ECA76A",
"j. c #E9A060",
"k. c #F6A661",
"l. c #F2A564",
"z. c #F7A862",
"x. c #F9AD66",
"c. c #FAAC64",
"v. c #FAAE68",
"b. c #FBAE6B",
"n. c #F8A967",
"m. c #FEB16A",
"M. c #FEB26D",
"N. c #FEB36C",
"B. c #E4AA76",
"V. c #F4B275",
"C. c #FFB572",
"Z. c #FFB674",
"A. c #FDB372",
"S. c #F3B57B",
"D. c #FEB97A",
"F. c #FEBB7E",
"G. c #FDB679",
"H. c #61778C",
"J. c #66798C",
"K. c #6F7E8E",
"L. c #627A90",
"P. c #717F90",
"I. c #75818E",
"U. c #7C8288",
"Y. c #788592",
"T. c #838383",
"R. c #8C8C8C",
"E. c #82888C",
"W. c #958F8B",
"Q. c #98918F",
"!. c #828A91",
"~. c #8A8E92",
"^. c #929292",
"/. c #949494",
"(. c #9A9A99",
"). c #9E9E9E",
"_. c #9A9897",
"`. c #AB9E95",
"'. c #A19F9F",
"]. c #A09A97",
"[. c #BCA58E",
"{. c #BFAE9B",
"}. c #B3A394",
"|. c #9D9EA1",
" X c #9EA2A5",
".X c #A1A1A1",
"XX c #A7A6A6",
"oX c #A5A5A3",
"OX c #ABAAAA",
"+X c #ADADAD",
"@X c #ABABAB",
"#X c #A3A8AC",
"$X c #B3AEA9",
"%X c #BAB3AE",
"&X c #AAAEB2",
"*X c #ADB1B4",
"=X c #B2B2B2",
"-X c #B3B5B7",
";X c #BDBDBC",
":X c #B7B7B7",
">X c #C5A283",
",X c #C9A78A",
"<X c #D7A983",
"1X c #C9AC90",
"2X c #D3B79D",
"3X c #D7B599",
"4X c #E9B586",
"5X c #F4B981",
"6X c #FFBD82",
"7X c #FDBF86",
"8X c #F8BF8A",
"9X c #E4BC97",
"0X c #C1B2A4",
"qX c #C6B7A9",
"wX c #D3B9A3",
"eX c #DDBEA4",
"rX c #C9BEB3",
"tX c #FFC086",
"yX c #FEC189",
"uX c #FCC28D",
"iX c #F6C08F",
"pX c #FDC590",
"aX c #FFC996",
"sX c #F6C699",
"dX c #D9C2AC",
"fX c #C6C1BB",
"gX c #DDC5B1",
"hX c #DDC9B6",
"jX c #DDCAB8",
"kX c #D7C3B1",
"lX c #E1C3A7",
"zX c #F3CAA3",
"xX c #F1CCAC",
"cX c #AFB9C2",
"vX c #BFC4C8",
"bX c #C1C1C2",
"nX c #C5CACC",
"mX c #CCCCCC",
"MX c #D8CDC2",
"NX c #DDD3CB",
"BX c #CACCD0",
"VX c #CED3D8",
"CX c #D6D5D4",
"ZX c #DCD8D3",
"AX c #DCDBDA",
"SX c #E2D1C1",
"DX c #E7D8CA",
"FX c #E1DDDA",
"GX c #E0DAD4",
"HX c #DCDFE1",
"JX c #DEE1E4",
"KX c #DEE5EC",
"LX c #E2E2E2",
"PX c #E4E9EC",
"IX c #E9EBEC",
"UX c #E8E7E5",
/* pixels */
"J.H.K.].<X4.,.<.<.<.<.<.<.<.<.<.<.<.<.<.<.<.<.,.5.f.`.I.H.J.",
"H.!.f.n.G.uXaXaXaXaXaXaXaXaXaXaXaXaXaXaXaXaXaXaXpXF.n.h.R.H.",
"P.B.A.pXyXyXyXyXyXyXyXyXyXyXyXyXyXyXyXyXyXyXyXtXyXyXuXF.l.I.",
"`.k.tX6X6X6X6X6X6X6X6X6X6X6X6X6X6X6X6X6XF.D.F.uX8X6X6X7Xb.,X",
"d.b.D.D.D.D.D.D.D.D.D.D.D.D.D.D.D.D.D.6X8XzXxXSXMXiXD.D.Z.4.",
"1.M.C.C.C.C.C.Z.Z.Z.M.C.Z.Z.C.A.M.m.V.wXNXVXvX:X-X9XZ.C.Z.<.",
",.M.M.m.N.M.m.m.x.x.S.V.x.c.v.A.5XsX2X XCX.X}.g.t.B.M.m.M.,.",
",.v.v.v.v.v.S.9XzXxXSXSX9X4XlXdX0XR.R.'.ZX+X$XsXN.c.v.x.m.,.",
",.x.x.x.x.c.4XoXOX;X X*XZX%Xt < 1 @ # .XmX+X=X=X9Xv.c.c.x.,.",
",.z.z.z.k.k.5XqX(.(._.R.CXr o X X . $ =X;X9 /.&XqXV.e.z.z.,.",
",.e.e.e.e.B.0X%X+X@X=X/.CX8 . @ @   $ a.} O , bXkXh.r.e.e.,.",
",.w.w.q.z.>XU..X+X@X< r AX7     + - - P j # i BXhXj.q.w.w.,.",
",.8.8.8.k.>Xe i XXmX0 r AX7 ; L P Y Y g > t (.nXgX6.8.8.0.,.",
",.4.4.5.e.>Xy 7 @XLX.Xw -X{ R T T R +.' R././.nXdX6.9.4.4.,.",
",.3.3.>.w.p.t 7 +XLXoX0 (.'./.{ { W.^././././.nXgX2.>.3.3.,.",
"` ;.;.:.4.p.y 6 @XLX.X9 (.).^.^.^./.^.^./.^.G {.jX2.:.;.;.` ",
",.=.=.&.3.p.u 8 +XGXK 4 |.).R.i XX;X|./.W.G p {.jXO.*.=.=.,.",
"` &.&.$.3. .u 6 +XFXf 2  XXXT.T.=XbX;XJ d * a 0XjXO.$.&.$._ ",
",.#.#./ -. .t 6 +XFXf : E. X/.r +XbX] & a & h CXdXX.( #.#.,.",
"` / / ( =.| y 6 OXIXU * 3 5 5 9 XX;XU * & a [.JXwXX.( / / ` ",
"` ! ! ! $.| u 7 OXIXfXf % * * q cXfXh % d [.PXKXdXo.! ! ! ` ",
"` ! ! E #.| u 7 @XUXJXqXU d s = H ] h ..MXNXdXeXu.~ W ! W ` ",
"_ E E F o.| r 9 @XUXCXLXJXrXrX] I [ 1XlX<Xy.Q ^ Z E E E E _ ",
") S S S E i.~.4 @XPXJXHXHXZX3X3Xg.@.O.B n C Z S D S S S S _ ",
",.V V V N Q ,Xi #XDX2Xg.@.o.B B b n b V S S V V V V V V B ) ",
"y.Z m m m n ^ i.i.o.A m k n m M N N N N m m m m m m m m M :.",
"}.! b b b b x V C l n b m m b b b b b b b b b b b b b v Z s.",
"Y.2.n x x x c x x c c x x x x x x x x x x x x x x x x z *.!.",
"L.^.:.Z x z z z z z z z z z z z z z z z z z z z z x b %.Q.L.",
"J.L.!.a.%.) ) ) ) ) ) ) ) ) ) ) ) ) ) ) ) ) ) ) ) ) u.~.L.J."
};
