/* XPM */
static char *FA_PozoPluvial_N_R[] = {
/* columns rows colors chars-per-pixel */
"30 30 235 2 ",
"   c #131313",
".  c #161717",
"X  c #1F1515",
"o  c #171A1A",
"O  c #1B1E1E",
"+  c #1E1E1E",
"@  c #200E0E",
"#  c #221111",
"$  c #1D2F2F",
"%  c #212323",
"&  c #222626",
"*  c #272727",
"=  c #2A2F2F",
"-  c #213C3C",
";  c #373737",
":  c #0E4343",
">  c #2A4141",
",  c #3C5F5F",
"<  c #137272",
"1  c #117A7A",
"2  c #494949",
"3  c #544C4C",
"4  c #565656",
"5  c #5A5A5A",
"6  c #5C5C5B",
"7  c #5B5B5C",
"8  c #5E5E5E",
"9  c #53537A",
"0  c #626262",
"q  c #656563",
"w  c #636365",
"e  c #636565",
"r  c #656565",
"t  c #696967",
"y  c #626269",
"u  c #64646E",
"i  c #636B6B",
"p  c #696969",
"a  c #6D6D6A",
"s  c #6B6B6C",
"d  c #6B6D6D",
"f  c #6E6E6E",
"g  c #656570",
"h  c #676776",
"j  c #6C6E70",
"k  c #6F6F77",
"l  c #6E7071",
"z  c #6F7275",
"x  c #727272",
"c  c #757572",
"v  c #767676",
"b  c #737378",
"n  c #73737E",
"m  c #75787B",
"M  c #797979",
"N  c #7D7B7B",
"B  c #7B7B7C",
"V  c #7D7D7D",
"C  c #82827F",
"Z  c #8C8C78",
"A  c #8B8B7F",
"S  c #38389B",
"D  c #424283",
"F  c #555583",
"G  c #535389",
"H  c #454599",
"J  c #64788B",
"K  c #667A8D",
"L  c #687B8F",
"P  c #6A7C8F",
"I  c #6C7D8F",
"U  c #7A7A82",
"Y  c #7B7E82",
"T  c #7F7F80",
"R  c #7D7D86",
"E  c #7E7E8A",
"W  c #697D90",
"Q  c #5F5FB6",
"!  c #0D0DD1",
"~  c #0202EF",
"^  c #0000F3",
"/  c #0000FA",
"(  c #0606F9",
")  c #0101FE",
"_  c #0505FF",
"`  c #0A0AFA",
"'  c #0F0FFB",
"]  c #1919FA",
"[  c #2323E5",
"{  c #2828F5",
"}  c #2020FA",
"|  c #2525FB",
" . c #2525FC",
".. c #2D2DF9",
"X. c #3434F5",
"o. c #3434FB",
"O. c #4444CB",
"+. c #4545CC",
"@. c #4B4BCF",
"#. c #5B5BD7",
"$. c #6B6BDD",
"%. c #5757EE",
"&. c #4E4EF7",
"*. c #5757F2",
"=. c #6868E1",
"-. c #6D6DEB",
";. c #6464FF",
":. c #7777F1",
">. c #0C9494",
",. c #0BAAAA",
"<. c #7B8085",
"1. c #7D8185",
"2. c #728191",
"3. c #758593",
"4. c #778694",
"5. c #7A8693",
"6. c #7B8896",
"7. c #7F9E9E",
"8. c #55BEBE",
"9. c #6DA6A6",
"0. c #00C9C9",
"q. c #05D1D1",
"w. c #05DCDC",
"e. c #04E1E1",
"r. c #13EAEA",
"t. c #1FE9E9",
"y. c #00F2F2",
"u. c #00F8F8",
"i. c cyan",
"p. c #0AF9F9",
"a. c #54CDCD",
"s. c #60C0C0",
"d. c #45F5F5",
"f. c #818281",
"g. c #858583",
"h. c #818284",
"j. c #858585",
"k. c #828589",
"l. c #868689",
"z. c #82828D",
"x. c #84888E",
"c. c #898A89",
"v. c #88898F",
"b. c #8E8E8E",
"n. c #928F8F",
"m. c #979789",
"M. c #90908F",
"N. c #97978F",
"B. c #878E94",
"V. c #8D8D91",
"C. c #8C8C96",
"Z. c #868F99",
"A. c #87909B",
"S. c #84909C",
"D. c #929292",
"F. c #949292",
"G. c #939493",
"H. c #959591",
"J. c #909094",
"K. c #929494",
"L. c #969596",
"P. c #91919A",
"I. c #99999A",
"U. c #9A9A9E",
"Y. c #9E9E9E",
"T. c #A5A592",
"R. c #A5A597",
"E. c #A1A19A",
"W. c #9EA1A1",
"Q. c #A1A1A1",
"!. c #A5A5A2",
"~. c #A0A0A4",
"^. c #A5A5A5",
"/. c #A4A4AA",
"(. c #AAAAAA",
"). c #ADADAA",
"_. c #A9A9AC",
"`. c #ADADAD",
"'. c #A9A9B0",
"]. c #B1B1B1",
"[. c #B3B3B4",
"{. c #B5B5B5",
"}. c #B8B2B2",
"|. c #B7B7BE",
" X c #B7B8B8",
".X c #BABABA",
"XX c #BFBBBB",
"oX c #BEBFBF",
"OX c #C2C29B",
"+X c #C2C2B1",
"@X c #C0C0BF",
"#X c #C7C7BF",
"$X c #9B9BCF",
"%X c #B2B2C4",
"&X c #B7B7C7",
"*X c #BFBFC1",
"=X c #B9B9C6",
"-X c #BFBFC7",
";X c #B7B7DE",
":X c #8C8CE9",
">X c #9191E4",
",X c #9E9EEA",
"<X c #9898EE",
"1X c #AAAAE3",
"2X c #B1B1E2",
"3X c #B3B3EA",
"4X c #BFC0C0",
"5X c #C1C1C1",
"6X c #C7C7C2",
"7X c #C2C2C6",
"8X c #C3C5C6",
"9X c #C5C5C5",
"0X c #CAC9C9",
"qX c #CDCECE",
"wX c #D3D3D5",
"eX c #D5D5D6",
"rX c #D8D8D2",
"tX c #D3D3D8",
"yX c #D7D8D8",
"uX c #DDDDDD",
"iX c #E2E2D9",
"pX c #E5E5D9",
"aX c #E8E8DD",
"sX c #EDEDDF",
"dX c #C1C1E7",
"fX c #CECEE4",
"gX c #DFDFE3",
"hX c #DADAE7",
"jX c #D4D4EB",
"kX c #E1E1E1",
"lX c #E7E7E6",
"zX c #EAEAE6",
"xX c #EEEEE7",
"cX c #E4E4E8",
"vX c #E9E9E9",
/* pixels */
"K J P S.x.d 6 8 8 8 8 8 8 8 8 8 8 8 8 8 8 8 8 6 p 1.A.I J K ",
"J 3.k.f.Y.[.5XoXoXoXoXoXoXoXoXoXoXoXoXoXoXoXoX5X{.!.c.h.2.J ",
"I 1.I.XX{.{.{.{.{.{.{.{.{.{.{.{.{.{.{.{.{.{.{.[.[.{..X^.B I ",
"Z.f.{.`.].].].].].].].].].].].].].].].].].).`.{.[.].`.{.D.B.",
"Y I.`.).`.`.`.`.`.`.`.`.`.`.`.`.`.`.`.].{.5X9XqXqX{.).).^.d ",
"e !.(.(.(.(.(.(.(.(.^.(.(.(.(.(.^.!.(.[.qXwX9X{. X{.(.^.(.8 ",
"6 ^.^.!.^.^.!.!.Q.Y.(.^.Q.Q.Q.^.`.XX[.!.eXQ.Q.Q.D.!.^.!.(.8 ",
"6 Q.Q.Q.Q.Q.(.{.9X0XqXqX{.]..X4X].b.c.W.yX`.`.oX^.Y.Q.Q.!.8 ",
"7 Y.Y.Y.Y.Y.^.!.(..XQ.].eX].v 4 2 * ; Q.qX`.].].].Q.Y.Y.Q.6 ",
"6 I.I.I.I.I.`.].I.I.I.c.eXc +   . o = ].XXi G.`..X^.L.I.Y.8 ",
"6 L.L.L.I.!.].[.`.(.].G.eXw O & % @ - d.a.: 3 8X5XI.L.L.I.6 ",
"7 G.G.D.I.Y.g.Q.`.(.8 v uXr X # $ < 1 e.0.> N qX8XG.G.G.L.7 ",
"6 D.D.b.I.Y.x V ^.0Xf v uXr >.q.w.u.y.,., M I.0X7XD.M.D.G.6 ",
"7 b.b.c.L.I.v r (.kXQ.l }.s.r.i.i.p.t.9.b.G.G.0X-XV.b.b.D.6 ",
"5 c.c.c.D.I.M r `.kX!.p I.W.K.8.8.7.K.G.L.H.G.0X-Xv.c.c.b.7 ",
"7 j.j.h.b.L.M e ).kX~.p I.Y.F.n.F.L.D.D.N.J.+.<X#Xz.g.j.c.5 ",
"5 h.h.f.c.G.v w ).jX#.9 E.Y.b.B ^.oXE.H.C.O.) ,X6Xz.f.h.g.7 ",
"7 f.f.V j.D.M e ).hX .D T./.l.f.[.5X=XQ [ ) ` ,X6XE V T f.5 ",
"5 V V M j.D.M e `.hX..S Z R.m.v `.*X-.) _ ) X.fX=XR M V V 7 ",
"5 M M v f.D.M w _.zX%.~ H F G t ^.=X*.( ) ' >XaX%XR v M B 5 ",
"5 v v x V b.M r _.xX;X| / ^ ^ h OX@XX.) { :XsXlX&XU c v v 5 ",
"5 x x x B b.M r ).cXpX1X*.} ] ! @.=.o.:.dXwX=X|.P.b x x c 5 ",
"5 x x f M b.c r (.lXtXpXiX2X3X;.&.$.$X+X^.C.n k p f x f x 5 ",
"5 f f s f D.b.8 ).vXkXgXgXrX[.'.Y.A C h y p a a f f f s f 5 ",
"7 p p p r v Q.M (.wX].U.l.U g u y w w t s p p p p p p p p 5 ",
"z 0 r q r 0 x D.M.v s w 8 8 q q r r r r r r r r r r q r q 0 ",
"Z.0 0 0 0 0 8 p r 6 0 0 q w 0 0 0 0 0 0 0 0 0 0 0 0 0 0 8 <.",
"2.j 6 8 8 8 8 8 8 0 8 8 8 8 8 8 8 8 8 8 8 8 8 8 8 8 8 8 q 3.",
"L 6.e 8 7 6 7 6 6 6 6 6 6 6 6 6 6 6 6 6 6 6 6 6 7 6 5 0 5.P ",
"K K 3.1.7 5 5 5 5 5 5 5 5 5 5 5 5 5 5 5 5 5 5 5 5 5 m 4.W J "
};
