/* XPM */
static char *FA_PozosPluviales_NR_R[] = {
/* columns rows colors chars-per-pixel */
"30 30 256 2 ",
"   c #1B1312",
".  c #1A1818",
"X  c #20100F",
"o  c #1D2F2F",
"O  c #242526",
"+  c #343A3D",
"@  c #3E3E40",
"#  c #1C4F50",
"$  c #1B5858",
"%  c #285C5B",
"&  c #136F6F",
"*  c #177575",
"=  c #3F7373",
"-  c #2D6B6B",
";  c #444646",
":  c #484F53",
">  c #4D5858",
",  c #586161",
"<  c #5C7B7B",
"1  c #686768",
"2  c #6E6F71",
"3  c #6F7072",
"4  c #76777B",
"5  c #7B7B7D",
"6  c #797A79",
"7  c #CE701F",
"8  c #CD6F20",
"9  c #CF7223",
"0  c #CF7325",
"q  c #CE722A",
"w  c #D17526",
"e  c #D27323",
"r  c #D37729",
"t  c #D47729",
"y  c #D57B2E",
"u  c #D3792B",
"i  c #D97B2D",
"p  c #D67826",
"a  c #CC7836",
"s  c #D67E32",
"d  c #D57F39",
"f  c #827D7A",
"g  c #DA8135",
"h  c #DC8234",
"j  c #DE853A",
"k  c #DC843B",
"l  c #DF883F",
"z  c #E18A3F",
"x  c #F38F3E",
"c  c #F3903F",
"v  c #F4913F",
"b  c #80807F",
"n  c #929176",
"m  c #CF8B56",
"M  c #CF8552",
"N  c #D18A52",
"B  c #DE995D",
"V  c #DE9658",
"C  c #DA8D44",
"Z  c #E28D42",
"A  c #E48F45",
"S  c #ED8E41",
"D  c #E59146",
"F  c #E69349",
"G  c #E8964C",
"H  c #EA9349",
"J  c #EB944A",
"K  c #F59241",
"L  c #F59444",
"P  c #F1964B",
"I  c #ED9B52",
"U  c #E99B59",
"Y  c #F09E56",
"T  c #F09F58",
"R  c #F2A159",
"E  c #F4A45D",
"W  c #FAA85E",
"Q  c #CA946D",
"!  c #CA986E",
"~  c #DE9B61",
"^  c #D79968",
"/  c #D49E75",
"(  c #DCA16D",
")  c #DCA475",
"_  c #D6A376",
"`  c #E4A36A",
"'  c #E8A569",
"]  c #F3A562",
"[  c #F6A862",
"{  c #F2A866",
"}  c #F9AC65",
"|  c #FAAB63",
" . c #F6AB69",
".. c #FAAF69",
"X. c #FBAF6C",
"o. c #F8A765",
"O. c #FEB16B",
"+. c #FEB26D",
"@. c #FCB16B",
"#. c #EBAC73",
"$. c #E0A371",
"%. c #EFB37D",
"&. c #F4B274",
"*. c #FFB572",
"=. c #FEB675",
"-. c #FDB372",
";. c #FDB779",
":. c #FEB97A",
">. c #FEBA7D",
",. c #3130B3",
"<. c #5A598F",
"1. c #585895",
"2. c #61778C",
"3. c #66798C",
"4. c #6F7E8E",
"5. c #7D7E82",
"6. c #777782",
"7. c #627A90",
"8. c #717F90",
"9. c #4544A0",
"0. c #5555BA",
"q. c #706EA6",
"w. c #6C6CAA",
"e. c #2525D8",
"r. c #0D0CE0",
"t. c #0000FB",
"y. c #1312F2",
"u. c #1C1CE5",
"i. c #2727F9",
"p. c #3E3DF1",
"a. c #5251D8",
"s. c #6A68DE",
"d. c #4545E6",
"f. c #5A59ED",
"g. c #4B4FF8",
"h. c #6867E9",
"j. c #706FFE",
"k. c #7174F5",
"l. c #846FBE",
"z. c #0C9E9E",
"x. c #1A9495",
"c. c #0FADAD",
"v. c #08BCBC",
"b. c #2BAFAF",
"n. c #38A4A4",
"m. c #75818E",
"M. c #7F8080",
"N. c #619191",
"B. c #788592",
"V. c #52BFBF",
"C. c #68ACAC",
"Z. c #7AACAC",
"A. c #08CBCA",
"S. c #1FCBCB",
"D. c #24DEDD",
"F. c #3BD5D5",
"G. c #05F8F7",
"H. c #01E7E7",
"J. c #69C3C3",
"K. c #45E9E8",
"L. c #828181",
"P. c #848585",
"I. c #8E8E8E",
"U. c #8B8A8A",
"Y. c #888884",
"T. c #978D88",
"R. c #96948D",
"E. c #828A91",
"W. c #8B8D92",
"Q. c #918F90",
"!. c #879697",
"~. c #939495",
"^. c #9C9C9D",
"/. c #989A98",
"(. c #A19285",
"). c #A19284",
"_. c #AC9989",
"`. c #B89C83",
"'. c #A29F9F",
"]. c #A79D95",
"[. c #A4A48F",
"{. c #B5A191",
"}. c #B9AA9B",
"|. c #9E9FA3",
" X c #9697A9",
".X c #9E9FB9",
"XX c #8787B8",
"oX c #A988A5",
"OX c #85ADAE",
"+X c #9AA4A5",
"@X c #A4A3A2",
"#X c #A4A9A9",
"$X c #AAAAAB",
"%X c #ACAAA7",
"&X c #B3AFA9",
"*X c #AFAFB0",
"=X c #AEB3B5",
"-X c #AFBABA",
";X c #B6B6B5",
":X c #B3B3B3",
">X c #BBB5B2",
",X c #BBBBBB",
"<X c #B9BAB4",
"1X c #C29D83",
"2X c #D5AF8C",
"3X c #D3A682",
"4X c #D2B08D",
"5X c #CCAC98",
"6X c #C7B19C",
"7X c #DBBA9C",
"8X c #D9B497",
"9X c #C5A488",
"0X c #E4B78C",
"qX c #E9B98D",
"wX c #FEBD82",
"eX c #FBBC83",
"rX c #F7BB84",
"tX c #EDBF94",
"yX c #E6BF9A",
"uX c #C3B5A7",
"iX c #D7BCA5",
"pX c #C4BBB5",
"aX c #BFC2BF",
"sX c #FFC086",
"dX c #FEC189",
"fX c #FDC38D",
"gX c #FDC490",
"hX c #FFC996",
"jX c #FBC594",
"kX c #E8C09A",
"lX c #DEC2A6",
"zX c #CAC3BB",
"xX c #C2C0BF",
"cX c #D7C4B4",
"vX c #E0C3A7",
"bX c #A39BD7",
"nX c #BABCC3",
"mX c #B0A7D1",
"MX c #AEACD7",
"NX c #8585EC",
"BX c #9B99E0",
"VX c #9B9BF1",
"CX c #B8BAE5",
"ZX c #C0B8C2",
"AX c #BFC5C5",
"SX c #CAC6C3",
"DX c #CBCACB",
"FX c #C5C3C6",
"GX c #D5CBC8",
"HX c #D7D1CE",
"JX c #C3C3D7",
"KX c #C9CAD8",
"LX c #D5D4D5",
"PX c #E2E2DF",
"IX c #DBDCE1",
"UX c #E5E5E3",
/* pixels */
"3.2.4.].3XT K L L L L L L L L L L L L L L L L K I ) ].m.2.3.",
"2.E.) o.;.fXhXhXhXhXhXhXhXhXhXhXhXhXhXhXhXhXhXhXfX>. .' U.2.",
"8.$.-.gXdXdXdXdXdXdXdXdXdXdXdXdXdXdXsXsXdXdXdXdXdXdXfX>.] m.",
"].] sXwXwXwXwXwXwXwXwXwXwXwXwXwXeXeXgXfXwXwXwXwXwXwXwXeXX.9X",
"( X.:.:.:.:.:.>.:.:.>.:.;.=.=.qXyXvXzXiXrX:.:.:.:.:.:.:.=.I ",
"P +.*.*.*.*.+.O.-.-.O.+.=.eXgXuXDX;X6X4XrX*.*.*.*.*.*.*.=.L ",
"K +.+.+.O.&.0XkXlXlXtX0X5X_.T.|.FX%X7X&.@.+.+.+.+.+.+.@.+.K ",
"K ......} &.uX=X$X=XxXL.: + O /.>X@X>X0X........@.....} @.K ",
"K } } |  .0XuX'.@X@X#X;     X J.C.> :XiX{ } } | W | } | } K ",
"K [ [ W #.{./.;XL.I.%X; o $ * A.x., ,XiX] ] { %.tX#.[ [ [ K ",
"K E E E #.(.4 ;X/.P.#Xn.A.H.G.b.< I.,X7X` 7XcXpX>X8X[ E E K ",
"K R R R ' ).3 ;XFXb /.Z.F.F.J.!.U./.,XcX6X;XnX}._ ` E R R K ",
"K Y Y Y ` (.3 ;XnX4 ~.%X=XAXpXSX;X|.U.1 1 ;X,X&X2XU Y Y T K ",
"K I I I ` (.3 ;XNX1.R.$X@X@X^.:X@X@ O . ; -X~.~.pX) I I I K ",
"K I I I ` (.2 <Xj.9.[.:X$X#X^.$XU.O .   % K.- 1 zX) G I I K ",
"v G G J ~ ).2 <XVXe.w.Y.^.*X1 @XW.# & z.v.c.= ~.SX) F G G v ",
"K F F F ~ ).3 ;XIXf.a.6.P.DX~.Q.OXS.G.G.D.N.L.@XzX_ A F F K ",
"v D D A B (.2 ;XUXKXmX6.b DX@X5 +XZ.V.C.!.~.Q. XZX/ Z D A c ",
"K Z Z z V `.4 :XUXHXzXL.5 KXXX4 ^.I.T.'./.R.q.d.bX( l Z Z K ",
"v z z z Z ^ _.}.7X/ 1Xf M.JXd.6 @XI.W.aX.X0.u.i.mX( k z z v ",
"v j j j j j B V k j ! f 5.JXp.<.I.P.Y.nXh.t.t.f.DX^ k j j v ",
"v j j h j k h h j k ! f 5.LXNXr.,.,.n ,Xd.t.p.CXLXQ g j g v ",
"c g g g g g g g g g Q f 5.LXLXh.i.y.,.s.g.k.MXGX5XN s g g c ",
"x s s s s s s s s s Q f L.LXPXIXCXBXs.l.oX3X^ M d s s s s c ",
"K y y y y y y y y u N _.P.DXHXiX2X_ ^ C g q w p i y y y u x ",
"~ i r r r r r r r r u m `.! m a a q 0 e w u u u r r r r t H ",
"{.j e w w w w w w w w w s r 9 e e w w w w w w w w w w 0 i / ",
"B.U e 9 9 9 9 9 9 9 9 9 7 9 9 0 0 9 9 9 9 9 9 9 9 9 9 8 H E.",
"7.~.H i 9 8 8 8 8 8 8 8 8 8 8 8 8 8 8 8 8 8 8 8 8 9 w S R.7.",
"3.7.E./ S x x x x x x x x x x x x x x x x x x x x x ^ W.7.3."
};
