/* XPM */
static char *FA_PozosFecales_SC_R[] = {
/* columns rows colors chars-per-pixel */
"30 30 256 2 ",
"   c #141718",
".  c #151819",
"X  c #1A1A18",
"o  c #2B2624",
"O  c #232323",
"+  c #3A3A3C",
"@  c #7B3A01",
"#  c #783400",
"$  c #4A372D",
"%  c #5F3F2F",
"&  c #78430D",
"*  c #534136",
"=  c #6E4822",
"-  c #624838",
";  c #785639",
":  c #474647",
">  c #5B5855",
",  c #6B594D",
"<  c #725C44",
"1  c #776859",
"2  c #686867",
"3  c #6F6E70",
"4  c #706F72",
"5  c #7C7A77",
"6  c #7C7C7C",
"7  c #76767A",
"8  c #776C65",
"9  c #824D16",
"0  c #805324",
"q  c #915C27",
"w  c #825337",
"e  c #955E3D",
"r  c #996B3D",
"t  c #A5613B",
"y  c #976E44",
"u  c #936C55",
"i  c #887055",
"p  c #997452",
"a  c #BC7144",
"s  c #A47F59",
"d  c #AB7352",
"f  c #BC7E5B",
"g  c #A76A46",
"h  c #8B7B6E",
"j  c #CA794A",
"k  c #CD7E51",
"l  c #FECB01",
"z  c #FFCC01",
"x  c #FFCD06",
"c  c #FCCB07",
"v  c #FECE09",
"b  c #FFCF0C",
"n  c #FCCB08",
"m  c #FED00D",
"M  c #FFD00B",
"N  c #F7CB14",
"B  c #FBCE15",
"V  c #F8CE1C",
"C  c #FED212",
"Z  c #FED214",
"A  c #FFD416",
"S  c #FED319",
"D  c #FED41A",
"F  c #FED51E",
"G  c #FDD21A",
"H  c #EFC829",
"J  c #F4CE29",
"K  c #F7CD21",
"L  c #FED621",
"P  c #FED726",
"I  c #FFD827",
"U  c #FEDA2E",
"Y  c #FED92A",
"T  c #F9D42D",
"R  c #FEDC30",
"E  c #FEDE35",
"W  c #FDDF3B",
"Q  c #FADA3C",
"!  c #F5D33E",
"~  c #E8C635",
"^  c #FEE03C",
"/  c #BE9D5A",
"(  c #9D826B",
")  c #858279",
"_  c #82817A",
"`  c #9D8679",
"'  c #AB8A64",
"]  c #B98669",
"[  c #B7946F",
"{  c #A68978",
"}  c #AE9179",
"|  c #BAB37C",
" . c #CB9476",
".. c #CBBD78",
"X. c #D3B768",
"o. c #DAC254",
"O. c #E3C748",
"+. c #EFD049",
"@. c #F2D344",
"#. c #F1D24A",
"$. c #F8D641",
"%. c #E3C952",
"&. c #E4CC58",
"*. c #ECD25B",
"=. c #F6DC5B",
"-. c #F4DA56",
";. c #FEE243",
":. c #FEE54B",
">. c #FDE553",
",. c #FEE855",
"<. c #FFEA5A",
"1. c #FEEA5D",
"2. c #F9E059",
"3. c #DDC967",
"4. c #D9C86A",
"5. c #D2C47D",
"6. c #E7CE63",
"7. c #EFDB6A",
"8. c #EED666",
"9. c #F2DE68",
"0. c #EEDC72",
"q. c #EDDC7A",
"w. c #E8D571",
"e. c #F0DE73",
"r. c #FFEC62",
"t. c #FEEE67",
"y. c #FEEB60",
"u. c #FEEE69",
"i. c #F7E268",
"p. c #FEF06E",
"a. c #EEE37D",
"s. c #FAEB71",
"d. c #F0E274",
"f. c #FEF275",
"g. c #FDF37C",
"h. c #61768E",
"j. c #66798D",
"k. c #6F7F8B",
"l. c #7E7F80",
"z. c #617793",
"x. c #627893",
"c. c #74828C",
"v. c #798588",
"b. c #848383",
"n. c #838488",
"m. c #8E8F8E",
"M. c #8B8B8B",
"N. c #828C8C",
"B. c #948F8B",
"V. c #8A9287",
"C. c #94988A",
"Z. c #9C9685",
"A. c #8A8D90",
"S. c #8D9193",
"D. c #939393",
"F. c #96979A",
"G. c #9F9E9E",
"H. c #9B9A9A",
"J. c #999897",
"K. c #A49488",
"L. c #B39583",
"P. c #B99E83",
"I. c #A39D98",
"U. c #A5A186",
"Y. c #ADAC86",
"T. c #A4A28B",
"R. c #B6A887",
"E. c #BAB287",
"W. c #A9A69A",
"Q. c #B5B399",
"!. c #9A9FA4",
"~. c #A1A1A1",
"^. c #A5A5A5",
"/. c #A3A4A4",
"(. c #A9A7A6",
"). c #AAAAAA",
"_. c #ABABAB",
"`. c #B0AFAF",
"'. c #BAAFA7",
"]. c #B8B6A6",
"[. c #AEAEB3",
"{. c #B2B1B2",
"}. c #B6B6B6",
"|. c #B7B6B3",
" X c #BAB9B2",
".X c #B7B9BA",
"XX c #BDBCBA",
"oX c #BBBCBC",
"OX c #B8B4B2",
"+X c #C2AD96",
"@X c #C5B598",
"#X c #CBBDA1",
"$X c #C2BEBB",
"%X c #ECDF81",
"&X c #E3D589",
"*X c #E4D89A",
"=X c #F2EB8D",
"-X c #F3EB85",
";X c #FDF681",
":X c #FCF283",
">X c #FEF987",
",X c #FFFA82",
"<X c #FCF38A",
"1X c #FEF989",
"2X c #FEFA8E",
"3X c #FEFC8E",
"4X c #F4EF96",
"5X c #FEFB90",
"6X c #FEFD97",
"7X c #F7F499",
"8X c #FFFF9A",
"9X c #FEFE9E",
"0X c #FDFB9D",
"qX c #FCF598",
"wX c #CDCAA2",
"eX c #C5C4AD",
"rX c #CBC4AB",
"tX c #DDDAAC",
"yX c #D8D5A2",
"uX c #CCCABC",
"iX c #C8C3B8",
"pX c #DFDCB7",
"aX c #D9D4BB",
"sX c #D4D4BA",
"dX c #E2DDA8",
"fX c #E0D7B6",
"gX c #E5E3A5",
"hX c #EEEDAB",
"jX c #E7E4A5",
"kX c #FEFEA6",
"lX c #FEFEA2",
"zX c #FEFEA8",
"xX c #FEFDAE",
"cX c #FAFAA9",
"vX c #F7F7AC",
"bX c #E3E3B5",
"nX c #E4E4B7",
"mX c #FEFEB0",
"MX c #FEFEB7",
"NX c #FDFBB5",
"BX c #FEFEB9",
"VX c #F7F7B2",
"CX c #B9B9C1",
"ZX c #C4C3C3",
"AX c #CECCC2",
"SX c #CCCBCA",
"DX c #CCC7C1",
"FX c #D2CFCB",
"GX c #DDD9C9",
"HX c #D8D7D3",
"JX c #FDFFC4",
"KX c #FFFFCB",
"LX c #FEFFCC",
"PX c #E1E0DE",
"IX c #DFE0E2",
"UX c #E3E4E4",
/* pixels */
"j.h.k.T.4.J b b b b b b b b b b b b b b b b b b K %.Y.c.h.j.",
"h.N.&.>.<XNXLXKXKXKXKXKXKXKXKXKXKXLXLXLXKXKXKXLXBXqXy.#.V.h.",
"c.%.:XJXBXBXMXMXMXMXMXMXMXMXMXMXMXMXMXMXMXMXMXMXBXBXJX0X$.v.",
"Y.-.BXxXxXmXmXmXmXmXmXmXmXmXmXxXxXmXBXNXxXmXmXmXmXmXxXBXs...",
"%.;XkXkXzXzXzXzXzXzXzXzXkXkXlXhXnXnXAXsXvXkXzXzXzXzXkXkX0XJ ",
"B 6X9X9X9X9X9X8X0X0X8X8XlXcXVXeXSX}.rXyXcX9X9X9X9X9X9X9XkXb ",
"x 8X6X6X6X7XjXnXbXpXhXgXwXW.C.G.ZX_.tX7X6X6X6X6X6X6X6X6X9Xv ",
"v 2X5X5X3X7XeX[.).[.ZXb.: + o J..X~. XgX2X5X5X5X5X5X5X2X6Xv ",
"x 1X1X>X<XjXeX~././.^.:   . . L.` > {.tX:X1X1X>X,X>X1X>X2Xx ",
"x ;X;X,X=XQ.H.}.b.m.).: o $ - g ; > oXdXg.:X-X4XhX=X;X;X>Xv ",
"x g.g.g.=XT.7 }.J.b.(.u t a j u 8 m..XdXa.tXaXiX XyX;Xg.;Xx ",
"x f.f.f.-XT.3 }.ZXl.J.K.] ] L.B.M.F.XXpXwX}.CX].&Xa.g.f.g.x ",
"x p.p.p.a.T.4 }.$X5 D.).{.ZXoXZX}.I.M.2 2 }.oX`.*Xs.p.p.f.x ",
"x u.u.t.a.U.3 }.R.1 F._././.G.{.~.+ O   : OXJ.D.iX%Xt.u.p.x ",
"x r.r.r.d.U.3 .X[ < !.{._.(.G.).M.O X   *  .- 2 AX%X1.r.t.x ",
"x 1.1.<.d.U.3 .X@X0 h n.H.`.2 /.B.$ % w e e , D.uXq.,.<.y.x ",
"z ,.,.,.9.U.4 }.PXs p 5 b.SXD.D.I.d k k f h b./.uX0.>.,.<.x ",
"x :.:.:.9.U.3 |.UXFX'.6 l.SX^.6 W.Z.{ { B.D.D.H.iX0.:.:.>.x ",
"z :.:.;.=.E.7 {.UXGXuXb.6 SXK.5 G.m.S.~.H.D.h y @Xe.;.:.:.z ",
"z ;.;.;.;.7.E.@X*Xw.5._ l.DXy 5 ^.m.B.iXW.i 9 q #X7.W ;.;.z ",
"z ^ W W W W 2.=.Q E 4.) l.AXr 1 m.b.M.XX' @ @ s aX8.E ^ ^ z ",
"z E E E E E R R E E 4.) 6 HXP.& = ; A.XXy # r iXHX*.R E E z ",
"l U U U U U U U U U 3.) l.HXHX' q 9 ; ( p } rXfX&X@.Y U U z ",
"l I I P I I I P P P 3.) l.HXIXHXuX+X' / X.q.=.! T P I P I l ",
"c L L F L L L L L F #.Y.n.FXGX*X&X7.-.Q U G A D F L L F L l ",
"~ Z D S D D D D S D F +...6.@.J V B C Z A D F F D D S S S N ",
"| B C Z Z Z Z Z Z Z C Z L Z m C C Z Z Z Z Z Z Z Z Z C Z m o.",
"c.H v b b m m m m m m m v M m m m m m m m m m m m b b v B V.",
"z.C.N n x x x x x x x x x x x x x x x x x x x x x x x b Z.x.",
"j.z.N.o.c l l z z z z z z z z z z z z z z z z l l l O.V.z.j."
};
