/* XPM */
static char *FA_PozoFecal_A_R[] = {
/* columns rows colors chars-per-pixel */
"30 30 256 2 ",
"   c #141A1D",
".  c #1C1D1C",
"X  c #141516",
"o  c #39281E",
"O  c #282726",
"+  c #362E29",
"@  c #3A3634",
"#  c #742F00",
"$  c #6F3F0F",
"%  c #7B3500",
"&  c #7B3C02",
"*  c #753200",
"=  c #634230",
"-  c #7A4E34",
";  c #695039",
":  c #594E47",
">  c #4D5053",
",  c #5E5E5F",
"<  c #585552",
"1  c #4A4847",
"2  c #635243",
"3  c #705B46",
"4  c #665D53",
"5  c #6E6155",
"6  c #656566",
"7  c #636464",
"8  c #6A6A6A",
"9  c #6B6866",
"0  c #706F6F",
"q  c #757474",
"w  c #787775",
"e  c #7A7875",
"r  c #7B7B7B",
"t  c #824409",
"y  c #844810",
"u  c #89501A",
"i  c #8A5624",
"p  c #925C28",
"a  c #8C583B",
"s  c #966534",
"d  c #A4623A",
"f  c #896746",
"g  c #8D6C4C",
"h  c #8A755F",
"j  c #997A5B",
"k  c #AB6841",
"l  c #B66E46",
"z  c #A37C54",
"x  c #A47E58",
"c  c #C87649",
"v  c #D47D4C",
"b  c #C87D52",
"n  c #B48A5F",
"m  c #86827F",
"M  c #9D897A",
"N  c #AA896A",
"B  c #AD8B78",
"V  c #B78F78",
"C  c #B69776",
"Z  c #C4815C",
"A  c #D69B7B",
"S  c #2F619B",
"D  c #30619B",
"F  c #31639D",
"G  c #34649E",
"H  c #33649E",
"J  c #3365A1",
"K  c #3968A1",
"L  c #3A6AA4",
"P  c #3D6BA4",
"I  c #3E6CA5",
"U  c #3C6BA2",
"Y  c #3A69A4",
"T  c #64778A",
"R  c #65788B",
"E  c #677A8C",
"W  c #697B8C",
"Q  c #687A8B",
"!  c #6B7E92",
"~  c #416FA7",
"^  c #446DA0",
"/  c #416FA8",
"(  c #486FA1",
")  c #4270A9",
"_  c #4573AB",
"`  c #4574AC",
"'  c #4976AE",
"]  c #4E77AB",
"[  c #4975AA",
"{  c #537BAC",
"}  c #4E7BB1",
"|  c #4A7CB6",
" . c #497DB9",
".. c #4C7FBB",
"X. c #4C7EBC",
"o. c #4A7EBB",
"O. c #517EB5",
"+. c #537EB3",
"@. c #517FB8",
"#. c #6D8095",
"$. c #72879D",
"%. c #72869B",
"&. c #5E81AC",
"*. c #4D80BC",
"=. c #4C80BB",
"-. c #5581B6",
";. c #5E84B3",
":. c #5082BD",
">. c #5482B9",
",. c #5B86BA",
"<. c #5E8ABE",
"1. c #5B88BF",
"2. c #768CA3",
"3. c #7A8FA5",
"4. c #7F92A9",
"5. c #6689B5",
"6. c #628CBD",
"7. c #6A8EB9",
"8. c #6789B3",
"9. c #7D94B1",
"0. c #7C9ABC",
"q. c #7494B9",
"w. c #638DC1",
"e. c #648EC3",
"r. c #6791C5",
"t. c #6690C3",
"y. c #6B94C6",
"u. c #6E97CA",
"i. c #6A95C9",
"p. c #6F98CC",
"a. c #7295C1",
"s. c #7599C2",
"d. c #719ACD",
"f. c #749CCD",
"g. c #7A9DC7",
"h. c #759ED1",
"j. c #789FD2",
"k. c #7DA2CE",
"l. c #77A0D2",
"z. c #7AA3D5",
"x. c #7DA5D6",
"c. c #7AA2D3",
"v. c #7FA7D8",
"b. c #838383",
"n. c #8C8C8D",
"m. c #82888C",
"M. c #928F8C",
"N. c #998E89",
"B. c #929292",
"V. c #939495",
"C. c #959595",
"Z. c #939394",
"A. c #99999A",
"S. c #9E9E9E",
"D. c #A19F9E",
"F. c #BDA48B",
"G. c #B9A593",
"H. c #8295AC",
"J. c #8699AF",
"K. c #9D9EA1",
"L. c #839AB2",
"P. c #8B9EB3",
"I. c #829CBA",
"U. c #A09FA0",
"Y. c #9DA1A5",
"T. c #9EA3AB",
"R. c #8FA0B6",
"E. c #93A3BA",
"W. c #A2A1A0",
"Q. c #A7A6A6",
"!. c #A4A4A4",
"~. c #ADA9A7",
"^. c #ABABAA",
"/. c #ABACAD",
"(. c #ADADAE",
"). c #ABABAC",
"_. c #B0AEAC",
"`. c #B2B1AE",
"'. c #ACAEB1",
"]. c #ADB3B9",
"[. c #B2B2B2",
"{. c #B3B5B7",
"}. c #BEBDBB",
"|. c #B5B6B7",
" X c #C5AE98",
".X c #C7B29E",
"XX c #C9BDB0",
"oX c #C6B9AA",
"OX c #C5C1BB",
"+X c #D3C5B8",
"@X c #8BA3C3",
"#X c #95ABC6",
"$X c #97B0CF",
"%X c #81A6D3",
"&X c #80A8D7",
"*X c #83AADA",
"=X c #84ABDB",
"-X c #86AEDD",
";X c #86ACD9",
":X c #88AFDE",
">X c #8AAEDA",
",X c #8FAFD4",
"<X c #8AB2DF",
"1X c #92B3DA",
"2X c #99B7DC",
"3X c #96B6DB",
"4X c #AEBAC4",
"5X c #ACBACB",
"6X c #A7B4C4",
"7X c #B4BCC4",
"8X c #B7BFCA",
"9X c #A6BCD6",
"0X c #87AFE0",
"qX c #8DB3E1",
"wX c #8CB3E2",
"eX c #92B6E2",
"rX c #93B7E3",
"tX c #94B8E3",
"yX c #95B9E5",
"uX c #9ABBE3",
"iX c #9EBDE3",
"pX c #A1BFE3",
"aX c #A2BFE4",
"sX c #BBC3CF",
"dX c #BFC1C1",
"fX c #ADC2DD",
"gX c #A6C1DF",
"hX c #BBC5D2",
"jX c #BBC9D6",
"kX c #B0C1D5",
"lX c #A7C1E2",
"zX c #A5C1E5",
"xX c #A9C3E3",
"cX c #ABC4E3",
"vX c #ACC4E2",
"bX c #B6CBE5",
"nX c #B5CBE4",
"mX c #BCCEE3",
"MX c #B0C7E5",
"NX c #C4C3C1",
"BX c #CBCAC7",
"VX c #CDCBCA",
"CX c #DBD3CC",
"ZX c #CAD2DB",
"AX c #CCD1D7",
"SX c #D5D5D4",
"DX c #D3D6DA",
"FX c #DDDDDD",
"GX c #D7D8D8",
"HX c #E2DEDB",
"JX c #E0DAD4",
"KX c #E1E0DE",
"LX c #DEE1E5",
"PX c #E2E3E2",
"IX c #E9EAEA",
"UX c #E7E7E7",
/* pixels */
"E R ! H.0.<.*.:.:.:.:.:.:.:.:.:.:.:.:.:.:.:.:.*.1.s.L.! R E ",
"T $.g.f.1XxXbXnXbXbXbXbXbXbXbXbXbXbXbXbXbXbXnXbXvX2Xk.s.$.T ",
"! s.>XMXcXcXxXxXxXxXxXxXxXxXxXxXxXxXxXxXxXcXxXlXxXcXMX2Xu.#.",
"L.f.zXiXpXpXaXaXaXaXaXaXaXaXaXaXaXzXaXpXiXuXiXlXlXpXiXzX%XI.",
"a.;XuXuXuXuXuXuXuXuXuXuXuXuXuXuXuXuXuXiXgXnXmXZXZXlXuXuXeX<.",
">.qXrXeXrXrXrXtXtXtXeXrXtXtXrXeXqXwX3X4XAXSXNX|.|.9XyXeXtX*.",
"X.qXqXqXqXqXwXwX:X-X2X1X:X0X:XeX2XvX5X!.SXW.T.#XI.,XwXqXeX*.",
"*.:X:X:X:X-X1X9XnXmXZXZX9X9XkXhX].n.n.U.GX(.'.fXwX-X:X-X<X*.",
"=.=X=X=X=X=X$X!.^.}.W.`.GX[.w < 1 O @ W.VX(.[.[.9X>X*X*X-X=.",
"X.&X&X&Xx.x.2X6XA.A.A.n.SXq . X X . + [.}.9 V._.7X1Xx.&X*X..",
"=.x.x.z.x.#X].{.(.).[.C.SX7 . O O   + A V o > NXsX%Xz.z.x.*.",
"..l.l.h.v.E.m W.(.)., w FX6     O = = l d @ r VXhXg.h.j.c.=.",
"X.f.f.d.z.R.q r Q.BX8 q FX6 - k l c c a : w A.BXhXg.h.d.f.X.",
"..p.p.u.j.P.w 6 ).PXW.0 {.B b v v b Z M n.Z.V.BXsXs.p.u.d.X.",
"..i.i.r.d.P.e 6 (.PX!.8 A.D.B.B B N.B.C.C.Z.Z.BXsXa.i.y.i...",
"o.r.r.e.u.L.e 6 ).PXW.9 A.S.Z.B.Z.C.B.B.V.B.f  XjX7.e.t.r.o.",
"o.w.w.6.y.J.w 7 /.JXj 4 K.S.n.r Q.}.K.V.M.f &  XjX7.w.w.w.o.",
"o.<.<.<.r.J.w 6 (.HXp 2 Y.Q.b.b.[.NX}.h i & t .XjX5.1.<.<.o.",
"o.,.,.>.w.H.e 6 (.HXp ; m.Y.V.q (.OXN % t % s CX8X5.>.,.,.o.",
" .>.>.-.<.H.w 7 ^.IXx & 3 5 5 6 Q.}.x & % y G.PX7X5.-.>.-. .",
"o.O.O.} ,.H.e 6 ^.IXOXp * & & 9 4XdXs # i F.IXUX7X;.| O.+.o.",
" .} } ' -.4.e 6 ).UXLXoXx i u $ g N s C +XDX7X5X0.+.} } }  .",
" .' ' ` +.3.q 6 ).UXSXLXLXXX+Xn z M ~.fX@Xq.{ ] ) ' ' ' '  .",
" ._ _ ) ` 9.M., /.UXKXHXHXDX6X#X@X6.;.( U ~ ) _ ` _ _ _ _  .",
"o./ ~ ~ I { E.r ~.ZX6XI.7.&.^ ^ U L L / ) ) ) / ~ ~ ~ ~ ~  .",
"6.I U P P K ] 9.9.{ ( U J J L L P I I P P P P P P P P P L :.",
"L.` K K K K G ~ I F J K K K K K K K K K K K K K K K K K I q.",
"#.,.H H G G G F F G G G G G G G G G G G G G G G G G G F O.$.",
"Q 3.@.L D D D D D D D D D D D D D D D D D D D D S D J | 3.W ",
"R Q $.q.|  . . . . . . . . . . . . . . . . . . . . .7.2.W R "
};
