/* XPM */
static char *FA_PozoFecal_FS_R[] = {
/* columns rows colors chars-per-pixel */
"30 30 256 2 ",
"   c #14191C",
".  c #1D1B1B",
"X  c #161414",
"o  c #39281E",
"O  c #252424",
"+  c #2D2A27",
"@  c #362E28",
"#  c #373737",
"$  c #3D3531",
"%  c #752F00",
"&  c #7B3500",
"*  c #7B3C01",
"=  c #733806",
"-  c #634230",
";  c #7A4E33",
":  c #695038",
">  c #594E47",
",  c #4E4F51",
"<  c #5F5E5E",
"1  c #535959",
"2  c #474A4B",
"3  c #635242",
"4  c #705B45",
"5  c #665D53",
"6  c #6E6154",
"7  c #666565",
"8  c #656463",
"9  c #676868",
"0  c #6A6A6A",
"q  c #6C6966",
"w  c #706F6F",
"e  c #6F7373",
"r  c #757575",
"t  c #767A7A",
"y  c #7B7B7B",
"u  c #9E2F2C",
"i  c #9E302D",
"p  c #A12F2B",
"a  c #A2312E",
"s  c #A03330",
"d  c #A33633",
"f  c #A33734",
"g  c #A63632",
"h  c #A53936",
"j  c #A43935",
"k  c #A63B38",
"l  c #A73E39",
"z  c #A93B38",
"x  c #A93D3A",
"c  c #AA3E3B",
"v  c #83450A",
"b  c #8A5018",
"n  c #8E5624",
"m  c #855423",
"M  c #915C25",
"N  c #935F2D",
"B  c #8C583A",
"V  c #AC413E",
"C  c #AA403C",
"Z  c #966534",
"A  c #A4623A",
"S  c #AE4340",
"D  c #AF4541",
"F  c #AF4645",
"G  c #AB4845",
"H  c #B24744",
"J  c #B14542",
"K  c #B34A47",
"L  c #BB4946",
"P  c #BC4946",
"I  c #B74E4B",
"U  c #B44D49",
"Y  c #BE4B48",
"T  c #BE4D4A",
"R  c #BF4F4C",
"E  c #B94D4A",
"W  c #AE514F",
"Q  c #B6534F",
"!  c #BA514E",
"~  c #BD514E",
"^  c #BD5451",
"/  c #BF5754",
"(  c #BA5451",
")  c #BA5B55",
"_  c #B65E5D",
"`  c #BE5D5B",
"'  c #B45854",
"]  c #896745",
"[  c #8E6C4B",
"{  c #8A755F",
"}  c #997A5B",
"|  c #AB6841",
" . c #B66E45",
".. c #A4784E",
"X. c #A47E57",
"o. c #B66868",
"O. c #BA716E",
"+. c #A77A78",
"@. c #AB7D7C",
"#. c #BC7574",
"$. c #B27A7B",
"%. c #B77779",
"&. c #C04F4C",
"*. c #C15755",
"=. c #C15A57",
"-. c #C55E5B",
";. c #C45C59",
":. c #C85E5C",
">. c #C87648",
",. c #D47D4B",
"<. c #C4615E",
"1. c #C9615E",
"2. c #C87D52",
"3. c #CB6461",
"4. c #CE6764",
"5. c #CB6562",
"6. c #CC6966",
"7. c #CB6C6A",
"8. c #C56966",
"9. c #D16A67",
"0. c #D26D6A",
"q. c #D46E6A",
"w. c #D16764",
"e. c #CF716E",
"r. c #D6716E",
"t. c #DA716E",
"y. c #C97472",
"u. c #D77572",
"i. c #D17470",
"p. c #D97472",
"a. c #DC7572",
"s. c #DD7976",
"d. c #D87976",
"f. c #D57E7B",
"g. c #DE7D7A",
"h. c #DD7D7A",
"j. c #E27B77",
"k. c #9B897F",
"l. c #AB8968",
"z. c #AC8A76",
"x. c #AF8F7D",
"c. c #AD807E",
"v. c #B78F78",
"b. c #B39878",
"n. c #C4815C",
"m. c #DE827F",
"M. c #D7817E",
"N. c #D69B7A",
"B. c #62798C",
"V. c #647C8F",
"C. c #66798C",
"Z. c #6D7D8E",
"A. c #727D8E",
"S. c #657D91",
"D. c #6F7E90",
"F. c #817E8C",
"G. c #7F8787",
"H. c #7A8292",
"J. c #838383",
"K. c #8D8C8C",
"L. c #82888C",
"P. c #958F8B",
"I. c #8B8692",
"U. c #838592",
"Y. c #998D98",
"T. c #8B9190",
"R. c #929292",
"E. c #959392",
"W. c #939495",
"Q. c #959595",
"!. c #909397",
"~. c #9A9999",
"^. c #9E9E9E",
"/. c #AE8386",
"(. c #B28383",
"). c #B98786",
"_. c #A38D94",
"`. c #A19F9F",
"'. c #AB9A99",
"]. c #BA9290",
"[. c #BCA58E",
"{. c #9D9EA1",
"}. c #9DA1A5",
"|. c #A1A1A0",
" X c #A1A5A5",
".X c #A7A6A6",
"XX c #A6A2A2",
"oX c #ABAAAA",
"OX c #ADADAD",
"+X c #ABABAC",
"@X c #A6ABAC",
"#X c #B3ACAC",
"$X c #BBAAA9",
"%X c #ADB2B2",
"&X c #B2B2B2",
"*X c #B3B5B7",
"=X c #B9B3B2",
"-X c #BDBDBC",
";X c #B4B9B8",
":X c #C68785",
">X c #DF8380",
",X c #DF8481",
"<X c #DF8784",
"1X c #DB8482",
"2X c #DB8D8B",
"3X c #D88784",
"4X c #DF918E",
"5X c #C99A98",
"6X c #DD9492",
"7X c #D39E9D",
"8X c #D79491",
"9X c #E08683",
"0X c #E08986",
"qX c #E28C8A",
"wX c #E28F8C",
"eX c #E2908E",
"rX c #E29391",
"tX c #E59897",
"yX c #E59998",
"uX c #C8A09F",
"iX c #C1A896",
"pX c #DEA09F",
"aX c #C1B09D",
"sX c #C3A5A4",
"dX c #C9A9A8",
"fX c #DFADAB",
"gX c #D6A7A8",
"hX c #CEB1AD",
"jX c #C4B6A5",
"kX c #CCBAB3",
"lX c #D2B4B3",
"zX c #D3BBBB",
"xX c #D4B9B8",
"cX c #E2A6A4",
"vX c #E2B3B3",
"bX c #CBC1B6",
"nX c #C0C0BF",
"mX c #AFB9C2",
"MX c #C1C2C2",
"NX c #C6CBCB",
"BX c #CCCCCC",
"VX c #DBC4C3",
"CX c #D7C9C8",
"ZX c #D8CAC6",
"AX c #DAD0CF",
"SX c #D5D5D4",
"DX c #D9D4D5",
"FX c #DDDDDD",
"GX c #E1DDDA",
"HX c #E0DAD4",
"JX c #DFDEE0",
"KX c #DEE2E2",
"LX c #E3E3E3",
"PX c #E3EBED",
"IX c #E9EAEB",
"UX c #E1E5E8",
/* pixels */
"C.B.Z.Y.(.` T R &.&.&.&.&.&.&.&.&.&.&.&.&.&.R T ` %._.A.B.C.",
"B.H.%.7.h.wXyXtXtXtXtXtXtXtXtXtXtXtXtXtXtXtXtXtXrX1Xe.y.F.B.",
"D.#.d.rXeXwXwXwXwXwXwXwXwXwXwXwXwXwXwXwXwXeXwXqXqXeXrX1X8.A.",
"Y.7.qX<X0X0X0X0X0X0X0X0X0X0X0X0X0X0X0X9X9Xm.,X4X2X<X<XqXi./.",
"#.u.m.m.>X>X>X>X>X>X,X,X>X>X>X,X,X>X,X0X6XcXfXVXVX6Xm.m.g.` ",
"^ s.g.h.g.g.g.g.g.g.s.g.g.g.g.h.s.a.M.sXCXSXNX=X;X7Xj.h.g.R ",
"Y s.s.a.s.a.a.a.t.r.1Xf.t.t.p.h.2XpXuX XSX|.'.:XO.f.s.a.s.T ",
"T p.p.p.p.p.3X7XfXvXVXVX7X8XgXlX$XK.K.`.DXOX#XgXj.t.u.p.p.T ",
"T r.r.r.r.q.:XXX+X-X X%XDX#Xt 1 2 O # |.BXOX&X&X5Xu.q.r.r.T ",
"T 0.0.0.0.0.2XsX~.~.~.K.SXr . X X . + &X-X7 E.%XdXf.9.0.q.T ",
"Y 9.9.9.9.:X$X=XOX+X&XQ.SX8 . O O   @ N.v.o , MXlXe.w.9.9.T ",
"T 4.4.5.r.).G.|.OX+X< r FX7     + - -  .A $ y BXxX7.5.4.4.Y ",
"Y 3.3.1.0.).e y .XNX0 r FX7 ; |  .>.>.B > t ~.NXxX8.1.3.5.T ",
"T 1.1.-.6.(.t 7 +XLX|.w *Xx.2.,.,.2.n.k.K.E.E.NXlX8.:.1.1.Y ",
"Y -.-.;.4.(.t 7 OXLX X9 ~.`.E.z.z.P.E.Q.Q.W.E.NXlX<.;.-.-.T ",
"P =.=.*.3.(.t 8 +XLX|.9 ~.^.R.R.R.Q.R.R.W.R.] aXzX` *.=.=.Y ",
"Y / / ^ <.(.t 8 OXHX} 5 {.^.K.y .X-X{.W.P.] * aXzX) ^ / / P ",
"P ^ ^ ! ;.c.t 8 OXGXM 3 }..XJ.J.&XMX-X{ m * v jXzX) ~ ^ ^ Y ",
"P ! ! I =.@.t 7 OXGXN : L.}.!.r OXnXl.& v & Z SXhX) E ! ! P ",
"Y I I K / @.t 8 oXIXX.* 4 6 6 9 .X-XX.* & v [.UXdX' K I I Y ",
"P K K H ( @.t 7 oXIXbXM % * * q mXMXZ % n [.PXPXhXQ H K K P ",
"P H H J Q @.t 7 +XLXKXjXX.n b = [ l.Z b.ZXAXhXdX#.K J H J P ",
"P D D V I +.r 7 +XLXSXLXJXkXbXl...l.iXhX:XO.U D z S D D S P ",
"P V V c S $.T.< +XIXKXKXKXDXsX5X:Xo._ C g z c V S V V V V L ",
"Y x z x h U ].y @XAXsX).o.' l k j g g z c x x x x x x x z P ",
"o.z j h h d G $.$.W S f p a j j h k k h h h h h h h h h h ! ",
"_.F d d d f s x k p s d j j f f d d d d d d d d d d d d z %.",
"H._ s i s s s i i s s s s s s s s s s s s s s s s s s i ! U.",
"V.I.( k i i i i i i i i i i i i i i i i i i i i u i d I I.S.",
"C.V.H.$.E L L P P P P P P P P P P P P P P P P L L L O.U.S.C."
};
