/* XPM */
static char *FA_Pozos_NR_R[] = {
/* columns rows colors chars-per-pixel */
"30 30 256 2 ",
"   c #151819",
".  c #1A1615",
"X  c #272424",
"o  c #3B3C3D",
"O  c #4D382D",
"+  c #7E5224",
"@  c #634432",
"#  c #7E553D",
"$  c #1C4F4F",
"%  c #285C5B",
"&  c #3F7373",
"*  c #2D6B6B",
"=  c #136F6F",
"-  c #454545",
";  c #494E52",
":  c #5B5755",
">  c #725C44",
",  c #776758",
"<  c #686767",
"1  c #6F6F70",
"2  c #6F7071",
"3  c #7B7A77",
"4  c #7C7C7C",
"5  c #747577",
"6  c #766B65",
"7  c #A5613B",
"8  c #CE701F",
"9  c #CD6F20",
"0  c #CF7223",
"q  c #CF7325",
"w  c #CE722A",
"e  c #D17526",
"r  c #D27323",
"t  c #D37729",
"y  c #D47729",
"u  c #D57B2E",
"i  c #D3792B",
"p  c #D97B2D",
"a  c #D67826",
"s  c #CC7836",
"d  c #D67E32",
"f  c #D57F39",
"g  c #936B55",
"h  c #957352",
"j  c #BC7044",
"k  c #A57350",
"l  c #827D7A",
"z  c #8B7B6C",
"x  c #C67547",
"c  c #DA8135",
"v  c #DC8234",
"b  c #DD853A",
"n  c #DC843A",
"m  c #DF883F",
"M  c #E18A3F",
"N  c #F38F3E",
"B  c #F3903F",
"V  c #F4913F",
"C  c #929176",
"Z  c #9D8679",
"A  c #B7946F",
"S  c #B98669",
"D  c #CF8B56",
"F  c #CF8552",
"G  c #D18A52",
"H  c #DE995D",
"J  c #DE9657",
"K  c #DA8D44",
"L  c #E28D42",
"P  c #E48F45",
"I  c #ED8E41",
"U  c #E59146",
"Y  c #E69349",
"T  c #E8964C",
"R  c #EA9348",
"E  c #EB944A",
"W  c #F59241",
"Q  c #F59444",
"!  c #F1964B",
"~  c #ED9B52",
"^  c #EC9E5A",
"/  c #E39556",
"(  c #F09E56",
")  c #F09F58",
"_  c #F2A159",
"`  c #F4A45D",
"'  c #FAA85E",
"]  c #CA946D",
"[  c #CB986E",
"{  c #DD9B62",
"}  c #D69868",
"|  c #C59E7D",
" . c #D59F72",
".. c #D59F75",
"X. c #DCA16D",
"o. c #DCA475",
"O. c #D6A376",
"+. c #E5A46A",
"@. c #E7A368",
"#. c #F3A662",
"$. c #F6A862",
"%. c #F3A864",
"&. c #F9AC66",
"*. c #FAAB63",
"=. c #F6AC6A",
"-. c #FAAF69",
";. c #FBAF6C",
":. c #F8A765",
">. c #FEB16B",
",. c #FEB26D",
"<. c #FCB16B",
"1. c #EBAC73",
"2. c #E0A371",
"3. c #EFB37D",
"4. c #FFB572",
"5. c #FEB675",
"6. c #FDB371",
"7. c #FDB779",
"8. c #FEB97A",
"9. c #FEBA7D",
"0. c #F4B376",
"q. c #2422B4",
"w. c #3C3CBC",
"e. c #3433A8",
"r. c #5A598F",
"t. c #61778C",
"y. c #66798C",
"u. c #6F7E8E",
"i. c #7E7F81",
"p. c #627A90",
"a. c #717F90",
"s. c #5555BA",
"d. c #706EA6",
"f. c #0D0CE0",
"g. c #0000FB",
"h. c #1312F2",
"j. c #1C1CE5",
"k. c #2727F9",
"l. c #3E3DF1",
"z. c #6A68DE",
"x. c #4545E6",
"c. c #5A59EF",
"v. c #4B4FF8",
"b. c #6867E9",
"n. c #7174F5",
"m. c #846FBE",
"M. c #0C9E9E",
"N. c #0FADAD",
"B. c #08BCBC",
"V. c #75818E",
"C. c #7F8080",
"Z. c #619191",
"A. c #788592",
"S. c #52BFBF",
"D. c #6AAEAE",
"F. c #7CA6A6",
"G. c #1FCBCB",
"H. c #24DEDD",
"J. c #08FAF9",
"K. c #45E9E8",
"L. c #828181",
"P. c #838486",
"I. c #8C8C8C",
"U. c #868788",
"Y. c #968D88",
"T. c #93928E",
"R. c #9C918A",
"E. c #828A91",
"W. c #8D8E91",
"Q. c #899595",
"!. c #939494",
"~. c #9A9A97",
"^. c #94979A",
"/. c #9F9E9E",
"(. c #9A9A9B",
"). c #999897",
"_. c #A19284",
"`. c #AB9889",
"'. c #BD9F84",
"]. c #B29684",
"[. c #A29F9F",
"{. c #A79D95",
"}. c #A0A09E",
"|. c #B5A191",
" X c #B9AA9B",
".X c #989BA7",
"XX c #9E9FB9",
"oX c #8787B8",
"OX c #A988A5",
"+X c #90A9A9",
"@X c #A3A4A2",
"#X c #A9A7A6",
"$X c #AAABAB",
"%X c #ACAAA7",
"&X c #B2AFAC",
"*X c #AEB2B6",
"=X c #AFBABA",
"-X c #B2B2B2",
";X c #B6B6B6",
":X c #B6B4B3",
">X c #B9B5B1",
",X c #B7B9BA",
"<X c #BBBBBB",
"1X c #BAB1A7",
"2X c #D5AF8C",
"3X c #D3A682",
"4X c #CCAC98",
"5X c #C9B099",
"6X c #C7B19A",
"7X c #DBB594",
"8X c #DBBB9E",
"9X c #DFB996",
"0X c #C5A488",
"qX c #E3B78C",
"wX c #E4B88D",
"eX c #EEB98A",
"rX c #FEBD82",
"tX c #FCBC83",
"yX c #F7BB83",
"uX c #EDBF94",
"iX c #E6BE9A",
"pX c #C3B5A7",
"aX c #C4BCB5",
"sX c #D2B7A7",
"dX c #BFC2BF",
"fX c #FFC086",
"gX c #FEC189",
"hX c #FDC38D",
"jX c #E9C09B",
"kX c #FDC490",
"lX c #FFC996",
"zX c #FBC594",
"xX c #DAC2AB",
"cX c #CAC3BB",
"vX c #C2C0BF",
"bX c #D6C3B3",
"nX c #E0C2A6",
"mX c #A39BD7",
"MX c #BABDC2",
"NX c #B0A7D1",
"BX c #B6B2DC",
"VX c #8383EC",
"CX c #9B99E0",
"ZX c #B8BAE5",
"AX c #C0B8C2",
"SX c #C4C3C3",
"DX c #CDCCCC",
"FX c #CAC6C6",
"GX c #D5CBC8",
"HX c #D5D1CD",
"JX c #C3C3D7",
"KX c #C9C9D2",
"LX c #D5D4D5",
"PX c #E2E1DE",
"IX c #D8DAE0",
"UX c #E4E4E4",
/* pixels */
"y.t.u.{.3X^ W Q Q Q Q Q Q Q Q Q Q Q Q Q Q Q Q W ~ o.{.V.t.y.",
"t.E.o.:.7.hXlXlXlXlXlXlXlXlXlXlXlXlXlXlXlXlXlXlXhX9.=.+.I.t.",
"a.2.6.kXgXgXgXgXgXgXgXgXgXgXgXgXgXgXfXfXgXgXgXgXgXgXhX9.#.V.",
"{.#.fXrXrXrXrXrXrXrXrXrXrXrXrXrXtXtXkXhXrXrXrXrXrXrXrXtX;.0X",
"X.;.8.8.8.8.8.9.8.8.9.8.7.5.4.eXiXnXcXxXyX8.8.8.8.8.8.8.5.~ ",
"! ,.4.4.4.4.,.,.5.6.>.,.5.tXkXpXDX;X5X2XyX6.4.4.4.4.4.6.5.Q ",
"W ,.,.,.>.0.wXjXnXxXuXwX4X`.Y./.SX%X9X=.<.,.<.,.,.,.,.>.,.W ",
"W -.-.-.&.0.pX*X$X*XvXL.; o X (.,X@X>XqX-.-.-.-.<.-.-.&.<.W ",
"W &.&.*.=.wXpX[.@X@X#X- .     ].Z : -X8X%.&.&.*.' *.&.*.&.W ",
"W $.$.' 1.|.(.:XL.I.$X- X O @ k # : <X8X` #.@.3.uX1.$.$.$.W ",
"W ` ` ` 1._.5 ;X).P.#Xg 7 j x g 6 W.,X9X@.8XbXaX>X7X%.` ` W ",
"W _ _ _ +._.2 ;XSXi.).`.S S ].Y.I.^.<XxX5X;XMX XO.+.` _ _ W ",
"W ( ( ( +._.2 ;XaX3 !.$X-XSX<XFX;X}.I.< < ;X<X&X2X^ ( ( ) W ",
"W ~ ~ ~ +._.2 ;X'., ^.$X@X@X/.-X@Xo X . - =X^.!.aXo.~ ~ ~ W ",
"W ~ ~ ~ @._.1 ,XA > .X-X$X#X/.$XI.X   . % K.* < cXo.T ~ ~ W ",
"V T T E { _.1 ,X6X+ z U.(.&X< @XW.$ = M.B.N.& !.FXo.Y T T V ",
"W Y Y U { _.2 ;XPXk h 3 P.FX!.T.+XG.J.J.H.Z.L.@XcXO.P Y Y W ",
"V U P P H R.1 :XUXHX1X4 i.DX@X4 .XF.S.D.Q.^.T..XAX .L U P B ",
"W L L M J ].3 -XUXHXcXL.4 KXoX4 /.I.Y.[.~.T.d.x.mXX.m L L W ",
"V M M M L } `. X9X .| l C.JXx.3 @XI.W.dXXXs.j.k.NXX.b M M V ",
"V b b b b b H J n n [ l i.JXl.r.I.P.U.MXb.g.g.c.FX} n b b V ",
"V n n n n n v v n n [ l i.LXVXf.q.e.C <Xx.g.l.ZXLX] v n v V ",
"B c c c c c c c c c ] l i.LXLXb.k.h.w.z.v.n.BXGX4XG d c c B ",
"N d d d d d d d d d ] l L.LXPXIXZXCXz.m.OX3X} F f d d d d B ",
"W u u u u u u u u i G `.P.DXHXsX2XO.} K c w e a p u u u i N ",
"{ p t t t t t t t t i D '.[ D s s w q r e i i i t t t t y R ",
"|.b r e e e e e e e e e d t 0 r r e e e e e e e e e e q p  .",
"A./ r 0 0 0 0 0 0 0 0 0 8 0 0 q q 0 0 0 0 0 0 0 0 0 0 9 R E.",
"p.!.R p 0 9 9 9 9 9 9 9 9 9 9 9 9 9 9 9 9 9 9 9 9 0 e I T.p.",
"y.p.E...I N N N N N N N N N N N N N N N N N N N N N } W.p.y."
};
