/* XPM */
static char *FB_PozoFecal_A[] = {
/* columns rows colors chars-per-pixel */
"30 30 256 2 ",
"   c #141415",
".  c #14191D",
"X  c #1C1B1C",
"o  c #39281E",
"O  c #252424",
"+  c #2D2A28",
"@  c #362E28",
"#  c #373737",
"$  c #3D3531",
"%  c #742F00",
"&  c #6F3E0E",
"*  c #7B3500",
"=  c #7B3C02",
"-  c #753200",
";  c #634230",
":  c #7A4E33",
">  c #695039",
",  c #4D4A48",
"<  c #594E47",
"1  c #4C5053",
"2  c #5D5E5F",
"3  c #5D5954",
"4  c #635243",
"5  c #705B46",
"6  c #665D53",
"7  c #6E6155",
"8  c #656566",
"9  c #636364",
"0  c #676868",
"q  c #6B6A6A",
"w  c #6D6966",
"e  c #706F6F",
"r  c #767574",
"t  c #7B7976",
"y  c #7C7A77",
"u  c #7A7B7B",
"i  c #824408",
"p  c #844810",
"a  c #88501A",
"s  c #8D5828",
"d  c #895522",
"f  c #915B26",
"g  c #935F2E",
"h  c #8C583A",
"j  c #966534",
"k  c #A4623A",
"l  c #886745",
"z  c #8D6C4C",
"x  c #8A755F",
"c  c #987A5B",
"v  c #AB6841",
"b  c #B86F46",
"n  c #B36D44",
"m  c #A37B54",
"M  c #A47E58",
"N  c #C87648",
"B  c #D37D4B",
"V  c #C77D52",
"C  c #B58B5F",
"Z  c #9B8879",
"A  c #A78766",
"S  c #AD8C6D",
"D  c #AC8A76",
"F  c #AE8F7D",
"G  c #B68F78",
"H  c #B79676",
"J  c #C4815C",
"K  c #D59B7A",
"L  c #255A9B",
"P  c #2B5D9B",
"I  c #2C5E9A",
"U  c #295E9D",
"Y  c #2D5F9C",
"T  c #2E619E",
"R  c #2B609F",
"E  c #32629C",
"W  c #295FA1",
"Q  c #2E62A1",
"!  c #2F65A6",
"~  c #2F64A3",
"^  c #2E66A9",
"/  c #2E67AD",
"(  c #2F68AE",
")  c #3164A2",
"_  c #3165A5",
"`  c #3465A2",
"'  c #3669A6",
"]  c #3B6BA4",
"[  c #3167A8",
"{  c #3168AA",
"}  c #3269AD",
"|  c #346AAE",
" . c #3D6FAE",
".. c #2E68B0",
"X. c #316BB1",
"o. c #326DB2",
"O. c #356DB2",
"+. c #336EB4",
"@. c #3670B6",
"#. c #3D72B3",
"$. c #3270B9",
"%. c #3672B9",
"&. c #3572BD",
"*. c #3273BD",
"=. c #3975BE",
"-. c #3C75B9",
";. c #416EA4",
":. c #406FA9",
">. c #4170AA",
",. c #4475AF",
"<. c #4E79AC",
"1. c #4874A8",
"2. c #4276B5",
"3. c #477BBA",
"4. c #477DBA",
"5. c #417ABD",
"6. c #487CBA",
"7. c #487CBB",
"8. c #4C7DB6",
"9. c #507FB8",
"0. c #2F73C5",
"q. c #3274C3",
"w. c #3576C6",
"e. c #3474C2",
"r. c #3977C1",
"t. c #3778C6",
"y. c #3A78C2",
"u. c #3A7AC6",
"i. c #3C7BC7",
"p. c #3D7CC7",
"a. c #3C7AC3",
"s. c #3678C9",
"d. c #3A7BC9",
"f. c #3B7CC9",
"g. c #3D7CC9",
"h. c #447EC3",
"j. c #5F83AF",
"k. c #4E80BD",
"l. c #5484BC",
"z. c #7289A6",
"x. c #738DAC",
"c. c #7287A2",
"v. c #7690AF",
"b. c #6487B3",
"n. c #658DBD",
"m. c #6A8BB3",
"M. c #7C98BA",
"N. c #4C83C3",
"B. c #4782C9",
"V. c #4982C6",
"C. c #5487C5",
"Z. c #5C8BC4",
"A. c #5B8DC9",
"S. c #618EC7",
"D. c #6893C7",
"F. c #7E9EC3",
"G. c #749CCB",
"H. c #7B9FCB",
"J. c #79A1D2",
"K. c #838383",
"L. c #8C8C8C",
"P. c #868786",
"I. c #928F8C",
"U. c #998E89",
"Y. c #929292",
"T. c #929395",
"R. c #939495",
"E. c #959595",
"W. c #959391",
"Q. c #979899",
"!. c #9B9B9B",
"~. c #A19F9E",
"^. c #BDA48C",
"/. c #B8A593",
"(. c #9D9EA0",
"). c #909BA7",
"_. c #9DA1A5",
"`. c #87A1BF",
"'. c #8CA0B8",
"]. c #93A6BE",
"[. c #98A8BB",
"{. c #A1A1A0",
"}. c #A7A6A6",
"|. c #A3A4A4",
" X c #A9A7A4",
".X c #ABAAAA",
"XX c #ADADAD",
"oX c #ACACAC",
"OX c #ACAAA6",
"+X c #B3B0AD",
"@X c #A3AAB3",
"#X c #A5AEB6",
"$X c #ADB1B4",
"%X c #A8B2BE",
"&X c #B3B2B2",
"*X c #B4B4B3",
"=X c #BEBDBB",
"-X c #B7B6B7",
";X c #C6AE96",
":X c #C7B29C",
">X c #CABEB0",
",X c #C6B9AA",
"<X c #C0C0BF",
"1X c #CAC1B6",
"2X c #D2C1B0",
"3X c #839FC2",
"4X c #86A6CA",
"5X c #9CAFC6",
"6X c #81A6D1",
"7X c #85A9D3",
"8X c #8CADD4",
"9X c #99B6D7",
"0X c #98B5D8",
"qX c #A1B0C0",
"wX c #AEB9C5",
"eX c #AFB9C2",
"rX c #A3B5C9",
"tX c #ACBACB",
"yX c #A2B9D7",
"uX c #BFC0C1",
"iX c #AFC0D2",
"pX c #B1C1D3",
"aX c #B5C3D4",
"sX c #B4C4D8",
"dX c #B1C8E2",
"fX c #C0C0C0",
"gX c #CCCBC9",
"hX c #CBC8C3",
"jX c #D3CEC5",
"kX c #DCD4CD",
"lX c #C0C9D3",
"zX c #CDD4DC",
"xX c #D5D6D6",
"cX c #D3D4D4",
"vX c #DED9D3",
"bX c #DDDDDD",
"nX c #D4D5D8",
"mX c #E1DEDA",
"MX c #E2DFDC",
"NX c #E1E1DE",
"BX c #D1DDED",
"VX c #C5D5E7",
"CX c #DDE1E5",
"ZX c #D5E1EF",
"AX c #DEE7F2",
"SX c #E2E3E3",
"DX c #E5E7E8",
"FX c #E9EAEB",
"GX c #ECE8E3",
"HX c #E3EBF5",
"JX c #EEF2F8",
"KX c #E9F0F6",
"LX c #F3F6FA",
"PX c #FEFEFE",
"IX c #FAFBFC",
"UX c #F7FAFD",
/* pixels */
"PXPXIXAX9XZ.3.7.7.7.7.7.7.7.7.7.7.7.7.7.7.7.7.3.Z.8XBXIXPXPX",
"PXJX7XN.y.f.d.d.d.d.d.d.d.d.d.d.d.d.d.d.d.f.f.d.g.y.V.G.HXPX",
"IX6Xe.f.f.d.d.d.d.d.d.d.d.d.d.d.d.d.d.g.g.g.f.s.s.f.f.t.S.LX",
"ZXN.d.i.d.d.d.d.d.d.d.d.d.d.d.d.d.d.d.s.w.0.w.B.B.u.u.d.h.dX",
"7Xa.u.u.i.u.i.i.i.i.i.i.i.i.i.i.i.u.i.B.A.J.7XaXpXA.t.i.u.Z.",
"l.i.u.u.i.i.i.i.p.g.t.u.p.p.i.u.w.q.h.].lXvXhX*X-XF.g.u.u.6.",
"6.u.u.u.u.u.u.w.e.e.C.h.e.q.r.h.A.J.`. XxX{.).b.1.k.p.u.u.7.",
"7.y.y.y.y.y.C.4X8X0XaXsXH.D.4XrX#XL.L.(.xXXX@X6Xd.q.y.y.y.7.",
"7.y.y.y.y.r.n.|.oX=X|.&XnX$Xt 3 , O # {.gXXX&X$XF.h.r.y.r.7.",
"7.r.r.=.=.=.S.[.!.Q.Q.L.xXr X     X + &X=Xw T.+X%XC.*.r.r.4.",
"6.=.=.=.=.n.@X$XXXoX&XE.xX9 X O O . @ K G o 1 hXtX7.&.=.=.6.",
"7.=.=.$.h.v.P.{.XX.X2 r bX8 . . + ; ; b k $ u jXtX2.&.=.&.4.",
"4.%.%.$.h.x.r u }.gXq r bX8 : v n N N h < u Q.gXtX2.$.%.%.6.",
"6.%.%.+.5.x.t 8 .XSX{.e *XF V B B V J Z L.Y.T.gXtX2.$.%.@.6.",
"6.@.@.o.5.x.y 8 XXSX|.0 !.~.W.D D U.Y.E.E.R.T.gXtX,.+.@.+.6.",
"6.O.O.X.-.x.t 8 oXSX{.0 !.!.Y.Y.Y.E.Y.Y.R.Y.l ;XpX>.o.O.O.6.",
"6.O.O.X.-.z.t 9 XXvXc 6 (.!.L.u }.=X(.R.I.l = :XpX>.X.O.o.7.",
"3.X.X.( #.z.t 8 XXmXf 4 _.}.P.K.*XfX=Xx d = i :XiX:...X.} 3.",
"6.| | / #.z.t 8 XXmXg > P._.T.r XX<XS * i * j kXwX:./ | } 6.",
"6.} } ^ #.z.t 9 .XFXM = 5 7 7 0 }.=XM = * p /.DX%X>./ } { 6.",
"6.{ { ^ #.z.t 8 .XFX1Xf - = = w eXuXj % s ^.FXGXwX:.^ { ^ 6.",
"6.[ [ !  .z.y 8 oXSXCX,XM d a & z A j H jXzXwXrXm.' ! [ ! 6.",
"6._ _ Q  .c.r 8 .XDXcXCXCX>X2XC m Z  XyX3Xb.;.` W ! _ _ ~ 6.",
"6.) ) Q _ x.I.2 oXFXNXMXMXzX5X].M.l.<.E L W Q ~ _ ) ) ) Q 6.",
"6.~ Q Q R :.'.u OXzXqXM.j.<.E E P L U Q ) ) ) ) Q Q Q Q T 3.",
"G._ T T T U ] v.x.1.] R L L Q Q T E T T T T T T T T T T T l.",
"VX,.Y T T T U ` ) L U T E T T T T T T T T T T T T T T T ' 0X",
"UXD.Y I Y Y Y P P T Y Y Y Y Y Y Y Y Y Y Y Y Y Y Y Y Y P 9.JX",
"PXHXl.] I I I I I I I I I I I I I I I I I I I I I I ) 8.AXPX",
"PXPXLX9Xk.6.6.6.6.6.6.6.6.6.6.6.6.6.6.6.6.6.6.6.6.6.6XKXPXPX"
};
