/* XPM */
static char *FB_PozosPluviales_NR[] = {
/* columns rows colors chars-per-pixel */
"30 30 256 2 ",
"   c #15110F",
".  c #1B1312",
"X  c #1E1E1F",
"o  c #200F0E",
"O  c #1D2F2F",
"+  c #242526",
"@  c #393D40",
"#  c #1C4F50",
"$  c #1B5858",
"%  c #285C5B",
"&  c #136F70",
"*  c #177574",
"=  c #3F7373",
"-  c #2D6B6A",
";  c #444646",
":  c #4A5558",
">  c #586161",
",  c #5C7B7B",
"<  c #686767",
"1  c #6E6F72",
"2  c #6F7072",
"3  c #76777C",
"4  c #7B7B7D",
"5  c #797A7A",
"6  c #CE6E1E",
"7  c #CE6C1B",
"8  c #D16E1C",
"9  c #D36C16",
"0  c #D2701F",
"q  c #D5731E",
"w  c #DA751E",
"e  c #DD761E",
"r  c #DC741B",
"t  c #D67017",
"y  c #E37A1E",
"u  c #CB6E26",
"i  c #D27121",
"p  c #D57320",
"a  c #D77420",
"s  c #D57525",
"d  c #D97621",
"f  c #DB7622",
"g  c #DE7921",
"h  c #D97B2A",
"j  c #D3772E",
"k  c #CD7632",
"l  c #E17A21",
"z  c #E57D22",
"x  c #E47D23",
"c  c #E97E21",
"v  c #827D79",
"b  c #CF7E43",
"n  c #D17E40",
"m  c #FF891E",
"M  c #FB861C",
"N  c #DD863B",
"B  c #EA8124",
"V  c #EE8324",
"C  c #EB872C",
"Z  c #F18625",
"A  c #F48624",
"S  c #F58827",
"D  c #FE8B21",
"F  c #FE8E26",
"G  c #FB8A24",
"H  c #F48A2B",
"J  c #F88B28",
"K  c #FA8D29",
"L  c #FE8E29",
"P  c #FB8E2C",
"I  c #FC8E2D",
"U  c #F08629",
"Y  c #FE912C",
"T  c #E68A3A",
"R  c #F38F3E",
"E  c #F58F3D",
"W  c #F48F31",
"Q  c #F5913E",
"!  c #F5923C",
"~  c #FA9439",
"^  c #81807F",
"/  c #929176",
"(  c #98897D",
")  c #A18E7C",
"_  c #A18D7B",
"`  c #B8987E",
"'  c #AB927A",
"]  c #CF874E",
"[  c #DD8B44",
"{  c #D08648",
"}  c #CD885C",
"|  c #CA905E",
" . c #DA9355",
".. c #D6935A",
"X. c #DA9459",
"o. c #DE9855",
"O. c #D28C59",
"+. c #E68E43",
"@. c #E69145",
"#. c #EB9345",
"$. c #EF984D",
"%. c #F39242",
"&. c #FA9A43",
"*. c #F79A4C",
"=. c #F69746",
"-. c #EF9D52",
";. c #F79E56",
":. c #F8A359",
">. c #C88F60",
",. c #C89163",
"<. c #CD9569",
"1. c #D39969",
"2. c #C69B77",
"3. c #D9A576",
"4. c #E6A265",
"5. c #E3A46A",
"6. c #EEA869",
"7. c #F5A565",
"8. c #EAAC75",
"9. c #F4AC70",
"0. c #F9B57D",
"q. c #F5B37D",
"w. c #2422B4",
"e. c #3C3CBD",
"r. c #3433A8",
"t. c #5A598F",
"y. c #585895",
"u. c #7D7E82",
"i. c #777782",
"p. c #4544A0",
"a. c #5555BA",
"s. c #706FA5",
"d. c #6C6CAA",
"f. c #2524D7",
"g. c #0D0CE0",
"h. c #0000FB",
"j. c #1312F2",
"k. c #1C1CE4",
"l. c #3D3BEF",
"z. c #2726F9",
"x. c #3F3EF2",
"c. c #5251D8",
"v. c #6A68DD",
"b. c #4545E6",
"n. c #5A59ED",
"m. c #4B50F8",
"M. c #6867E9",
"N. c #706FFE",
"B. c #7175F6",
"V. c #807F80",
"C. c #846DBB",
"Z. c #0C9E9E",
"A. c #1A9594",
"S. c #0FADAD",
"D. c #08BCBB",
"F. c #2BAFAE",
"G. c #38A4A3",
"H. c #7F8080",
"J. c #619190",
"K. c #52BFBF",
"L. c #68ACAB",
"P. c #78B2B1",
"I. c #7CA6A6",
"U. c #08CBCA",
"Y. c #1FCBCB",
"T. c #24DEDD",
"R. c #3BD5D4",
"E. c #05F8F7",
"W. c #01E7E6",
"Q. c #69C3C3",
"!. c #45E9E8",
"~. c #838383",
"^. c #8A8A8A",
"/. c #8E8E8E",
"(. c #8E8A8A",
"). c #888884",
"_. c #93938F",
"`. c #9B9A8B",
"'. c #918F90",
"]. c #879697",
"[. c #939494",
"{. c #9A9A97",
"}. c #9E9F9F",
"|. c #9A9B9B",
" X c #969998",
".X c #968C8B",
"XX c #AD9785",
"oX c #A9859F",
"OX c #A29F9F",
"+X c #B39B85",
"@X c #A4A48F",
"#X c #A3A29F",
"$X c #B9A593",
"%X c #9A9BA7",
"&X c #9E9FB8",
"*X c #8787B8",
"=X c #85ADAE",
"-X c #9AA4A5",
";X c #A4A3A2",
":X c #A4A9A9",
">X c #ABAAAA",
",X c #ACA8A3",
"<X c #B3ADA6",
"1X c #BAB3AD",
"2X c #ACAEB0",
"3X c #AEB6B9",
"4X c #B6B5B3",
"5X c #B6B6B5",
"6X c #B2B2B3",
"7X c #B5B7B9",
"8X c #BBBBBA",
"9X c #BCB9B3",
"0X c #D8AF8A",
"qX c #D7AB85",
"wX c #DDB28A",
"eX c #C6AC99",
"rX c #D9B393",
"tX c #C7A788",
"yX c #E0B084",
"uX c #F8BA87",
"iX c #C8BAAC",
"pX c #D5BBA6",
"aX c #C3BBBB",
"sX c #BFC2BD",
"dX c #F9C395",
"fX c #C8C2BB",
"gX c #D4C4BF",
"hX c #FAD0AD",
"jX c #A39AD3",
"kX c #B0A6CE",
"lX c #BBBBC3",
"zX c #AEACD6",
"xX c #8584EC",
"cX c #9B98E0",
"vX c #9B9AF1",
"bX c #B8BAE5",
"nX c #BCC3C6",
"mX c #CBCBCB",
"MX c #C6C3C5",
"NX c #D3CECB",
"BX c #DACFC9",
"VX c #C3C3D6",
"CX c #C9CAD8",
"ZX c #D5D4D4",
"AX c #FBDBC2",
"SX c #FCE3CE",
"DX c #FCE9DA",
"FX c #DBDCE1",
"GX c #E4E4E2",
"HX c #FDEEE1",
"JX c #FEF4EB",
"KX c #FDF0E4",
"LX c #FEFAF5",
"PX c #FEFEFE",
"IX c #FDFBFA",
"UX c #FEF7F1",
/* pixels */
"PXPXIXDXdX;.E Q Q Q Q Q Q Q Q Q Q Q Q Q Q Q Q E *.uXSXIXPXPX",
"PXJX0.~ K F F F F F F F F F F F F F F F F F F F F K ~ 7.HXPX",
"PX0.G F F F F F F F F F F F F F F F D D F F F F F F F G :.UX",
"SX&.F L L L L L L L L L L L L F G Y &.~ F L L L L L L L ~ hX",
"0.I L L L L L L L L Y L F D D $.5.yXiXrX! F L L L L L L L ;.",
"*.L L L L L D m P P m D Y &.:.eXmX7XtX1.&.F L L L L L L L %.",
"! L L L F ! 4.8.wXwX6.5.2.' ( }.MX,X3.W L L L L L L L L L Q ",
"Q K K K G %.eX3X2X3XfX~.: @ + {.9X;X1X5.K K K P P K K K G Q ",
"Q J J J H 4.eXOX#X;X:X;   . o Q.L.: 6X0XH K J G M G K J J Q ",
"Q S S S #.+X|.4X~./.>X; O $ * U.A.> 8XwXU H W -.8.#.S S S Q ",
"Q S S A @.) 3 5X{.~.:XG.U.W.E.F., /.8XqXT 0XpXiX1X3.H A S Q ",
"Q Z Z A @.) 2 4XMX^  XP.R.R.Q.].(. X8XpXtX5XnX$X..T H A Z Q ",
"Q Z Z Z @.) 2 5XlX3 [.>X3XnXaXMX7X%X^.< < 5X8X<X3.C Z Z Z Q ",
"Q V V V +._ 2 4XxXy.`.>X;X;X}.6X;X@ + . ; 3X[.[.iXo.V V V Q ",
"Q B B B +._ 1 9XN.p.@X6X>X:X}.>X^.+ X . % !.- < fXX.c V B Q ",
"Q B B c [ ) 1 9XvXf.d.).|.2X< ;X/.# & Z.D.S.= [.fXX.z B c E ",
"E x x z [ ) 2 4XFXn.c.i.~.mX[.'.=XY.E.E.T.J.~.;XaX..y c z Q ",
"Q x x z [ ) 1 4XGXCXkXi.^ mX;X4 -XI.K.L.].[._.%XaXX.y x z R ",
"Q x x l N ` 3 6XGXBXfX^ 4 CX*X3 }./..XOX{._.s.b.jXo.e x l Q ",
"Q l l l x  .XX$XrX<.2.v H.VXb.5 ;X/.'.sX&Xa.k.z.kXX.e l l Q ",
"Q g g g g g [ [ f e | v u.VXx.t./.~.^.lXM.h.h.n.MXO.e g e Q ",
"Q g g f g g r r g f ,.v u.ZXxXg.w.r./ 8Xb.h.l.bXZX} w g w Q ",
"Q d d d d d f d d d >.v u.ZXZXM.z.j.e.v.m.B.zXgXeXn w d w Q ",
"Q a a q a a a a a q ,.v V.ZXGXFXbXcXv.C.oX3...b j p a a q Q ",
"%.p q q p p p p p 0 { XX~.NXBXpX0X1...N h 7 9 t q q p q 0 R ",
"9.s 0 0 0 0 0 0 0 0 i ] ` <.] k u 7 7 8 8 0 i i i 0 0 0 q *.",
"AXT 6 0 0 0 0 0 0 0 8 0 j i 7 8 8 0 0 i i 0 0 0 0 0 0 8 h uX",
"LX7.8 6 6 6 6 6 6 6 6 6 7 6 6 6 6 6 6 6 6 6 6 6 6 6 6 7 #.JX",
"PXKX$.h 6 6 6 6 6 6 6 6 6 6 6 6 6 6 6 6 6 6 6 6 6 6 s #.DXPX",
"PXPXUXdX%.R R R R R R R R R R R R R R R R R R R R %.q.JXPXPX"
};
