/* XPM */
static char *FB_Pozos_NR_R[] = {
/* columns rows colors chars-per-pixel */
"30 30 256 2 ",
"   c #151819",
".  c #1A1615",
"X  c #272424",
"o  c #3B3C3D",
"O  c #4D382D",
"+  c #7E5224",
"@  c #634432",
"#  c #7E553D",
"$  c #1C4F4F",
"%  c #285C5B",
"&  c #3F7373",
"*  c #2D6B6B",
"=  c #136F6F",
"-  c #454545",
";  c #494E52",
":  c #5B5755",
">  c #725C44",
",  c #776758",
"<  c #686767",
"1  c #6F6F70",
"2  c #6F7071",
"3  c #7B7A77",
"4  c #7C7C7C",
"5  c #747577",
"6  c #766B65",
"7  c #A5613B",
"8  c #CE701F",
"9  c #CD6F20",
"0  c #CF7223",
"q  c #CF7225",
"w  c #CE722A",
"e  c #D17526",
"r  c #D27424",
"t  c #D37729",
"y  c #D47629",
"u  c #D57B2E",
"i  c #D3792B",
"p  c #D97B2D",
"a  c #D67826",
"s  c #CC7836",
"d  c #D67E32",
"f  c #D57F39",
"g  c #936B55",
"h  c #957352",
"j  c #BC7044",
"k  c #A57350",
"l  c #827D7A",
"z  c #8B7B6C",
"x  c #C67547",
"c  c #DA8135",
"v  c #DC8234",
"b  c #DD853A",
"n  c #DC843A",
"m  c #DF883F",
"M  c #E18A3F",
"N  c #E4893C",
"B  c #F38F3E",
"V  c #F4913F",
"C  c #F3903F",
"Z  c #929176",
"A  c #9D8679",
"S  c #B7946F",
"D  c #B98669",
"F  c #CF8B56",
"G  c #CF8552",
"H  c #D18A52",
"J  c #DE995D",
"K  c #DE9657",
"L  c #DA8D44",
"P  c #E28D42",
"I  c #E48F45",
"U  c #ED8F42",
"Y  c #E59146",
"T  c #E69349",
"R  c #E8964C",
"E  c #EC954B",
"W  c #EC964A",
"Q  c #F59241",
"!  c #F69545",
"~  c #F39142",
"^  c #F59A4E",
"/  c #ED9B52",
"(  c #EB9F5C",
")  c #F09E56",
"_  c #F09F58",
"`  c #F2A159",
"'  c #F5A55E",
"]  c #F4A25C",
"[  c #FAA85E",
"{  c #CA946D",
"}  c #CB986E",
"|  c #DC9C63",
" . c #D49768",
".. c #C59E7D",
"X. c #D79F71",
"o. c #DCA26C",
"O. c #DBA474",
"+. c #D6A376",
"@. c #E5A46A",
"#. c #E6A266",
"$. c #F3A561",
"%. c #F6A862",
"&. c #F3A864",
"*. c #F9AC66",
"=. c #FAAA64",
"-. c #F5AD6B",
";. c #FAAF69",
":. c #FBAE6C",
">. c #FEB16B",
",. c #FEB26D",
"<. c #FCB16C",
"1. c #EBAC73",
"2. c #F4AC71",
"3. c #EFB37D",
"4. c #FFB572",
"5. c #FEB675",
"6. c #FCB372",
"7. c #FBB578",
"8. c #FEB97A",
"9. c #FDB97D",
"0. c #F5B378",
"q. c #2422B4",
"w. c #3838B2",
"e. c #5A598F",
"r. c #7E7F81",
"t. c #5555BA",
"y. c #706EA6",
"u. c #0D0CE0",
"i. c #0000FB",
"p. c #1312F2",
"a. c #1C1CE5",
"s. c #2727F9",
"d. c #3E3DF1",
"f. c #6A68DE",
"g. c #4545E6",
"h. c #5A59EF",
"j. c #4B4FF8",
"k. c #6867E9",
"l. c #7174F5",
"z. c #846FBE",
"x. c #0C9E9E",
"c. c #0FADAD",
"v. c #08BCBC",
"b. c #7F8080",
"n. c #619191",
"m. c #52BFBF",
"M. c #6AAEAE",
"N. c #7CA6A6",
"B. c #1FCBCB",
"V. c #24DEDD",
"C. c #08FAF9",
"Z. c #45E9E8",
"A. c #828181",
"S. c #838486",
"D. c #8C8C8C",
"F. c #868788",
"G. c #968D88",
"H. c #93928E",
"J. c #9F9184",
"K. c #8E8F90",
"L. c #899595",
"P. c #939495",
"I. c #9A9A97",
"U. c #94979A",
"Y. c #9D9D9D",
"T. c #999897",
"R. c #A19284",
"E. c #AB9889",
"W. c #BD9F84",
"Q. c #B29684",
"!. c #A29F9F",
"~. c #A0A09E",
"^. c #B9AA9B",
"/. c #B3A192",
"(. c #989BA7",
"). c #9E9FB9",
"_. c #8787B8",
"`. c #A988A5",
"'. c #90A9A9",
"]. c #A3A4A2",
"[. c #A9A7A6",
"{. c #AAABAB",
"}. c #ACAAA7",
"|. c #B2AFAC",
" X c #AEB2B6",
".X c #AFBABA",
"XX c #B2B2B2",
"oX c #B6B6B6",
"OX c #B6B4B3",
"+X c #B9B5B1",
"@X c #B7B9BA",
"#X c #BBBBBB",
"$X c #BAB1A7",
"%X c #D5AF8C",
"&X c #D7A884",
"*X c #CCAC98",
"=X c #C9B099",
"-X c #C7B19A",
";X c #DBB594",
":X c #DBBB9E",
">X c #DFB996",
",X c #E3B78C",
"<X c #E4B88D",
"1X c #EEB98A",
"2X c #FEBD82",
"3X c #FBBB83",
"4X c #F8BC89",
"5X c #EDBF94",
"6X c #E6BE9A",
"7X c #C3B5A7",
"8X c #C4BCB5",
"9X c #D2B7A7",
"0X c #BFC2BF",
"qX c #FFC086",
"wX c #FEC189",
"eX c #FDC28D",
"rX c #E9C09B",
"tX c #F7C192",
"yX c #FEC490",
"uX c #FFC996",
"iX c #FDC99C",
"pX c #DAC2AB",
"aX c #CAC3BB",
"sX c #C2C0BF",
"dX c #D6C3B3",
"fX c #E0C2A6",
"gX c #FAD3B0",
"hX c #A39BD7",
"jX c #BABDC2",
"kX c #B0A7D1",
"lX c #B6B2DC",
"zX c #8383EC",
"xX c #9B99E0",
"cX c #B8BAE5",
"vX c #C0B8C2",
"bX c #C4C3C3",
"nX c #CDCCCC",
"mX c #CAC6C6",
"MX c #D5CBC8",
"NX c #D5D1CD",
"BX c #C3C3D7",
"VX c #C9C9D2",
"CX c #D5D4D5",
"ZX c #FBDCC2",
"AX c #FCE3CF",
"SX c #E2E1DE",
"DX c #FCE9D9",
"FX c #D8DAE0",
"GX c #E4E4E4",
"HX c #FDEEE0",
"JX c #FEF4EB",
"KX c #FDF0E4",
"LX c #FEF7F1",
"PX c #FEFAF7",
"IX c #FFFFFF",
"UX c #FDFCFA",
/* pixels */
"IXIXUXDXiX' Q ! ! ! ! ! ! ! ! ! ! ! ! ! ! ! ! Q ` 4XAXPXIXIX",
"IXJX4X=.7.eXuXuXuXuXuXuXuXuXuXuXuXuXuXuXuXuXuXuXeX9.:.7.HXIX",
"UX3X6.yXeXwXwXwXwXwXwXwXwXwXwXwXwXwXqXqXwXwXwXwXwXwXyX9.=.LX",
"AX=.qX2X2X2X2X2X2X2X2X2X2X2X2X2X3X2XyXeX2X2X2X2X2X2X2X2X<.gX",
"3X:.8.8.8.8.8.9.8.8.9.8.8.5.4.1X6XfXaXpX3X8.8.8.8.8.8.8.5.] ",
"^ ,.4.4.4.4.,.,.6.6.>.,.5.3XtX7XnXoX=X%X3X4.4.4.4.4.4.4.5.! ",
"Q ,.,.,.>.0.<XrXfXpX5X<X*XE.G.Y.bX}.>X-.<.,.<.,.,.,.,.>.,.Q ",
"Q ;.;.;.*.0.7X X{. XsXA.; o X T.@X].+X,X;.;.;.;.<.;.;.*.<.Q ",
"Q *.*.=.-.<X7X!.].].[.- .     Q.A : XX:X&.*.*.=.[ =.*.=.*.Q ",
"Q %.%.[ 1./.T.OXA.D.{.- X O @ k # : #X:X' $.&.3.5X1.%.%.%.Q ",
"Q ' ' ] 1.R.5 oXT.S.[.g 7 j x g 6 K.@X>X#.:XdX8X+X;X&.] ' Q ",
"Q ` ` ` @.R.2 oXbXr.T.E.D D Q.G.D.U.#XpX=XoXjX^.+.@.] ` ` Q ",
"Q ) ) ) @.R.2 oX8X3 P.{.XXbX#XmXoX~.D.< < oX#X|.%X( ) ) _ Q ",
"Q / / / #.R.2 oXW., U.{.].].Y.XX].o X . - .XU.P.8XO./ / / Q ",
"Q / / / #.R.1 @XS > (.XX{.[.Y.{.D.X   . % Z.* < aXO.R / / Q ",
"V R R R | R.1 @X-X+ z F.Y.|.< ].K.$ = x.v.c.& P.mXO.T R R V ",
"Q T T Y | R.2 oXSXk h 3 S.mXP.H.'.B.C.C.V.n.A.].aX+.I T T Q ",
"V Y I I J J.1 OXGXNX$X4 r.nX].4 (.N.m.M.L.P.H.(.vXX.P Y I C ",
"~ P P M K Q.3 XXGXNXaXA.4 VX_.4 Y.D.G.!.I.H.y.g.hXo.m P P Q ",
"V M M M P  .E.^.>XX...l b.BXg.3 ].D.K.0X).t.a.s.kXo.b M M V ",
"V b b b b b J K n n } l r.BXd.e.D.S.F.jXk.i.i.h.mX .n b b V ",
"V n n n n n v v n n } l r.CXzXu.q.w.Z #Xg.i.d.cXCX{ v n v V ",
"V c c c c c c c c c { l r.CXCXk.s.p.w.f.j.l.lXMX*XH d c c C ",
"V d d d d d d d d d { l A.CXSXFXcXxXf.z.`.&X .G f d d d d V ",
"~ u u u u u u u u i H E.S.nXNX9X%X+. .L c w r a p u u u i B ",
"2.p t t t t t t t t i F W.} F s s w q r e i i i t t t t y ^ ",
"ZXN q e e e e e e e e e d t 0 r r e e e e e e e e e e e p 4X",
"PX$.r 0 0 0 0 0 0 0 0 0 8 0 0 q q 0 0 0 0 0 0 0 0 0 0 0 W JX",
"IXKXE p 0 9 9 9 9 9 9 9 9 9 9 9 9 9 9 9 9 9 9 9 9 0 y U DXIX",
"IXIXLXtX~ B B B B B B B B B B B B B B B B B B B B ~ 0.JXIXIX"
};
