/* XPM */
static char *FB_Pozos_N_R[] = {
/* columns rows colors chars-per-pixel */
"30 30 230 2 ",
"   c gray7",
".  c #1C1010",
"X  c #181616",
"o  c #12171B",
"O  c #151719",
"+  c #1F1E1E",
"@  c #232020",
"#  c #252525",
"$  c #2B2421",
"%  c #2A2928",
"&  c #3A3A39",
"*  c #3F3E3E",
"=  c #4C382D",
"-  c #7E5224",
";  c #624331",
":  c #7E553D",
">  c #1C4F4F",
",  c #265C5C",
"<  c #136F6F",
"1  c #2B6B6B",
"2  c #3D7373",
"3  c #414545",
"4  c #464645",
"5  c #504F4F",
"6  c #565250",
"7  c #5A5A5A",
"8  c #5F5C5A",
"9  c #5E5E5E",
"0  c #725C44",
"q  c #776758",
"w  c #5F5F62",
"e  c #5F5F65",
"r  c #626262",
"t  c #616167",
"y  c #656565",
"u  c #686866",
"i  c #636369",
"p  c #696969",
"a  c #6B6B6C",
"s  c #6D6D6D",
"d  c #766B65",
"f  c #706F6F",
"g  c #71716F",
"h  c #6E6E71",
"j  c #6F6F75",
"k  c #717171",
"l  c #747472",
"z  c #727274",
"x  c #767676",
"c  c #7B7A77",
"v  c #7D7A77",
"b  c #76787B",
"n  c #7A7A7A",
"m  c #7E7D79",
"M  c #78787D",
"N  c #7D7D7D",
"B  c #A5613B",
"V  c #8F6C57",
"C  c #976A52",
"Z  c #957352",
"A  c #A76946",
"S  c #BC7044",
"D  c #A37D59",
"F  c #8B7B6C",
"G  c #C77547",
"H  c #80807F",
"J  c #9D8679",
"K  c #919176",
"L  c #BA8567",
"P  c #B8866B",
"I  c #B7946F",
"U  c #3333A9",
"Y  c #2222B5",
"T  c #3C3CBD",
"R  c #595990",
"E  c #777782",
"W  c #797982",
"Q  c #7F7F80",
"!  c #5555BA",
"~  c #6F6EA7",
"^  c #0C0CE1",
"/  c #1C1CE6",
"(  c #0101FB",
")  c #0000FC",
"_  c #1212F2",
"`  c #2222FB",
"'  c #2A2AF8",
"]  c #3B3BF0",
"[  c #3E3EF3",
"{  c #6B6BCD",
"}  c #6969DD",
"|  c #4444E7",
" . c #4949E1",
".. c #4141ED",
"X. c #5959EF",
"o. c #5050F5",
"O. c #6565E3",
"+. c #6D6DE4",
"@. c #6161EE",
"#. c #7575F3",
"$. c #0B9E9E",
"%. c #0EADAD",
"&. c #07BCBC",
"*. c #619191",
"=. c #51BFBF",
"-. c #69AEAE",
";. c #7CA6A6",
":. c #1FCBCB",
">. c #23DEDE",
",. c #04FBFB",
"<. c #0AF8F8",
"1. c #45E9E9",
"2. c #828181",
"3. c #838384",
"4. c #838485",
"5. c #858585",
"6. c #888887",
"7. c #868788",
"8. c #898989",
"9. c #8C8B8A",
"0. c #8B8C8B",
"q. c #8A8A8C",
"w. c #8B8C8C",
"e. c #8E8E8D",
"r. c #968D8A",
"t. c #91918F",
"y. c #95958E",
"u. c #848595",
"i. c #8E8E92",
"p. c #8A8B94",
"a. c #8D9292",
"s. c #839B9C",
"d. c #919191",
"f. c #959091",
"g. c #939595",
"h. c #969696",
"j. c #9A9694",
"k. c #999996",
"l. c #93959A",
"z. c #93959C",
"x. c #969999",
"c. c #9A9A9A",
"v. c #9B9D9E",
"b. c #9E9E9E",
"n. c #A89589",
"m. c #B39381",
"M. c #B29786",
"N. c #BA9F87",
"B. c #A59F9F",
"V. c #A0A09F",
"C. c #9F9FA2",
"Z. c #9A9FA4",
"A. c #9897A8",
"S. c #8282BA",
"D. c #8787B8",
"F. c #9E9FB9",
"G. c #86ADAD",
"H. c #9AA4A5",
"J. c #A2A2A2",
"K. c #A4A3A2",
"L. c #A5A6A2",
"P. c #A3A4A4",
"I. c #A6A5A5",
"U. c #A9A7A6",
"Y. c #A5A8A8",
"T. c #A9A9A9",
"R. c #ACABAB",
"E. c #ACACAB",
"W. c #ADADAD",
"Q. c #B0AFAF",
"!. c #BBB1A6",
"~. c #B1B1AF",
"^. c #A4A4B4",
"/. c #AFAFB0",
"(. c #AEBABA",
"). c #B2B2B2",
"_. c #B4B3B2",
"`. c #B5B5B5",
"'. c #B8B8B7",
"]. c #B3B3B8",
"[. c #B6B9BB",
"{. c #BABABA",
"}. c #BCBCBB",
"|. c #BBBDBE",
" X c #BEBEBE",
".X c #C7B19A",
"XX c #C2BEBB",
"oX c #BFC2BF",
"OX c #9A9ADC",
"+X c #BBBBC0",
"@X c #B7B7C8",
"#X c #A6A6D7",
"$X c #B1B1DF",
"%X c #8383EC",
"&X c #9898E2",
"*X c #BABAE2",
"=X c #BBBBE5",
"-X c #BEC0C0",
";X c #C1C1C0",
":X c #C4C2C1",
">X c #C2C4C5",
",X c #C6C6C6",
"<X c #C8C8C7",
"1X c #C2C2CD",
"2X c #CACACA",
"3X c #CECECD",
"4X c #D5D0CB",
"5X c #C2C2D3",
"6X c #C6C6D6",
"7X c #C9C9D2",
"8X c #CDCDD0",
"9X c #C1C1D8",
"0X c #D0D0D0",
"qX c #D5D5D3",
"wX c #D3D3D4",
"eX c #D6D6D5",
"rX c gray85",
"tX c #DBDBDF",
"yX c #DFDFDF",
"uX c #E2E1DF",
"iX c #D2D2E0",
"pX c #E1E1E1",
"aX c #E4E3E2",
"sX c #E5E6E6",
"dX c #EAEAEA",
"fX c #EFEFEF",
"gX c gray95",
"hX c #F6F6F6",
"jX c #F9F9F9",
"kX c #FFFFFF",
/* pixels */
"kXkXjXpXW.x 7 r 9 9 9 9 9 9 9 9 9 9 9 9 9 9 r 9 k b.eXhXkXkX",
"kXfXc.3.c._.;X X X X X X X X X X X X X X X X X;X`.K.8.e.aXkX",
"jXh.c. X`.`._.`.`.`.`.`.`.`.`.`.`._._._.`.`.`.`.`.`.}.I.2.gX",
"rX5.`.W.).).).).).).).).).).).).W.).{.`.).).).).).).W.`.d.}.",
"h.c.W.E.W.W.W.W.W.W.W.W.R.R.T.).'. X;X}.~.W.W.W.W.W.E.E.I.x ",
"p P.T.T.T.T.I.I.T.I.P.I.T._.{._.2X`.W.T./.I.T.T.T.T.T.T.R.9 ",
"7 I.I.I.P.I.W.{.}.}.`.W.T.h.w.b.,XT._.K.P.I.I.I.I.I.I.P.T.9 ",
"9 J.J.J.C.I.).).E._.;X2.5 & % x.{.K._.W.J.J.J.J.K.J.J.J.P.9 ",
"7 b.b.b.b.W.).J.J.K.I.4   O o m.J 6 _.`.c.b.b.c.c.v.b.b.J.9 ",
"9 c.c.c.V.b.c.`.2.e.T.4 $ = ; A : 8 }.`.h.c.c.T.`.P.c.c.b.9 ",
"9 h.h.h.b.d.x `.k.3.U.V B S G C d e.{.~.h.`.;X}._.W.c.h.c.9 ",
"7 g.d.d.v.d.k `.;XQ j.n.L P M.r.w.x.|.;XE.`. XY.v.x.h.d.h.7 ",
"9 d.d.d.c.d.k `.XXc d.T.).:X|.,X`.V.0.y p `.}.W.Y.d.d.d.d.9 ",
"7 e.e.w.h.e.k `.N.q l.R.P.P.b.).J.* # X 3 (.g.g.{.v.w.e.d.9 ",
"7 8.8.8.g.e.g [.I 0 Z._.R.U.b.T.9.@ + . , 1.1 p >Xv.5.8.w.7 ",
"7 5.5.4.d.e.f [..X- F 7.c.Q.y I.a.> < $.&.%.2 f.>Xx.3.5.8.7 ",
"7 3.3.2.e.e.k `.uXD Z v 4.<Xh.t.G.:.,.<.>.*.2.L.-Xz.Q 3.4.7 ",
"7 2.2.N e.e.s `.sX4X!.m Q 3XL.n H.;.=.-.s.h.t.A.@Xl.N H 2.7 ",
"7 N N n 6.h.n ).aX0X;X2.N 7XD.M b.e.r.B.k.y.~  .OXk.b N N 7 ",
"7 n n n n d.c.I._.h.k.N H 9X| c L.e.a.oXF.! / ' #Xg.x n n 7 ",
"7 x x x x x 8.8.l z e.N Q 6X[ R e.5.8.+X+.( ) X.5Xp.z x x 7 ",
"7 z z k z z s k x z e.N Q wX%X^ Y U K {...( ] =XeXu.h l l 7 ",
"7 k k s k k k k k s w.N 2.qXiX@.` _ T } o.#.$X1X^.W s s k 7 ",
"7 s s a s s s s s a e.N N wXuXtX*X&XO.{ S.C.i.E j a s a s 7 ",
"9 p p p p p p p p y Q d.5.3X8X].I.h.q.m g t r y u p p p p 7 ",
"5.r y y y y y y y y y Q h.i.Q h i e w r r y y y y y y y r y ",
"2Xy r r r r r r r r r r a r 9 r r r r r r r r r r r r r r b.",
"jXn 7 9 9 9 9 9 9 9 9 9 9 9 9 9 9 9 9 9 9 9 9 9 9 9 9 9 y fX",
"kXsXp 9 7 9 7 9 9 9 9 9 9 9 9 9 9 9 9 9 9 9 9 9 7 9 7 r yXkX",
"kXkXgXK.r 7 7 7 7 7 7 7 7 7 7 7 7 7 7 7 7 7 7 7 7 7 e.dXkXkX"
};
