/* XPM */
static char *FB_PozosFecales_FS[] = {
/* columns rows colors chars-per-pixel */
"30 30 256 2 ",
"   c #141214",
".  c #141719",
"X  c #1F1F1E",
"o  c #232323",
"O  c #2A2725",
"+  c #3C3E3E",
"@  c #763000",
"#  c #7B3801",
"$  c #4A372D",
"%  c #78430D",
"&  c #5F402F",
"*  c #59453A",
"=  c #6C4722",
"-  c #7F5124",
";  c #634332",
":  c #6E5033",
">  c #7D593D",
",  c #464544",
"<  c #4D5555",
"1  c #5A5855",
"2  c #6A574D",
"3  c #725C44",
"4  c #766859",
"5  c #686767",
"6  c #6F7170",
"7  c #707171",
"8  c #7C7A77",
"9  c #777878",
"0  c #7A7A7A",
"q  c #7E7C7C",
"w  c #766B65",
"e  c #9F2A26",
"r  c #9E2E2B",
"t  c #9F2B28",
"y  c #A12926",
"u  c #A12D2B",
"i  c #A12F2C",
"p  c #A62F2C",
"a  c #A22C2A",
"s  c #AA2D2A",
"d  c #AD2D29",
"f  c #A02622",
"g  c #B02F2C",
"h  c #A2302D",
"j  c #A5302D",
"k  c #A9312E",
"l  c #AD322F",
"z  c #B5322F",
"x  c #B1312E",
"c  c #A43431",
"v  c #AE3330",
"b  c #AA3431",
"n  c #A63B39",
"m  c #A83A37",
"M  c #B13431",
"N  c #B53532",
"B  c #B33330",
"V  c #BA3532",
"C  c #BE3532",
"Z  c #BA3734",
"A  c #BE3734",
"S  c #BE3835",
"D  c #BE3D39",
"F  c #C5312E",
"G  c #C13734",
"H  c #C53734",
"J  c #C93532",
"K  c #CA3532",
"L  c #C23A37",
"P  c #C63A36",
"I  c #C93936",
"U  c #CD3B37",
"Y  c #CC3C37",
"T  c #C63B38",
"R  c #C73C39",
"E  c #C13D3A",
"W  c #CB3B38",
"Q  c #CC3B38",
"!  c #CA3C39",
"~  c #CC3C38",
"^  c #C93F3C",
"/  c #824B16",
"(  c #8F5822",
")  c #915E2B",
"_  c #825337",
"`  c #955D3D",
"'  c #986A3D",
"]  c #A5613B",
"[  c #C4413D",
"{  c #CC403E",
"}  c #AD4946",
"|  c #BE4643",
" . c #BA4946",
".. c #BD4946",
"X. c #BB4C49",
"o. c #B34846",
"O. c #B6514F",
"+. c #BB514F",
"@. c #AC5653",
"#. c #B75250",
"$. c #BE5552",
"%. c #B65E5A",
"&. c #B45C57",
"*. c #966D44",
"=. c #936B54",
"-. c #887055",
";. c #957351",
":. c #BC6F44",
">. c #BA615E",
",. c #BD615E",
"<. c #A47E59",
"1. c #A87E5F",
"2. c #A77756",
"3. c #BC7E5B",
"4. c #A76946",
"5. c #8A7A6E",
"6. c #807979",
"7. c #957F7E",
"8. c #997F7E",
"9. c #AD6967",
"0. c #AE6B69",
"q. c #B56561",
"w. c #BB6361",
"e. c #B76A67",
"r. c #B3766D",
"t. c #A07E7D",
"y. c #BB7573",
"u. c #B07977",
"i. c #B77E7D",
"p. c #C64A46",
"a. c #C84846",
"s. c #CA4C49",
"d. c #C4514F",
"f. c #CF524F",
"g. c #C25552",
"h. c #CE5351",
"j. c #C65E5C",
"k. c #C65C5B",
"l. c #CA794A",
"z. c #C8625F",
"x. c #CD7E51",
"c. c #C66C6A",
"v. c #D16A68",
"b. c #CF716F",
"n. c #C57372",
"m. c #CC7673",
"M. c #CD7F7D",
"N. c #C97B7A",
"B. c #9D8579",
"V. c #A68868",
"C. c #B98669",
"Z. c #B7946F",
"A. c #A5867A",
"S. c #BF807F",
"D. c #B39A79",
"F. c #CB9476",
"G. c #7F7F80",
"H. c #7F8080",
"J. c #828282",
"K. c #848484",
"L. c #888887",
"P. c #868788",
"I. c #8E8E8E",
"U. c #8C8B8B",
"Y. c #838887",
"T. c #978180",
"R. c #948F8C",
"E. c #9E9089",
"W. c #858A90",
"Q. c #8E9192",
"!. c #919191",
"~. c #949495",
"^. c #999795",
"/. c #9F9D97",
"(. c #959799",
"). c #9A9A9B",
"_. c #9F9E9E",
"`. c #97999A",
"'. c #A08787",
"]. c #A88988",
"[. c #A98685",
"{. c #BF8280",
"}. c #B88C8B",
"|. c #A49488",
" X c #B39583",
".X c #BA9E84",
"XX c #A09F9F",
"oX c #A69A91",
"OX c #B19696",
"+X c #B99D9D",
"@X c #A2A09E",
"#X c #ACA59E",
"$X c #9A9FA4",
"%X c #A2A1A1",
"&X c #A2A4A4",
"*X c #A5A5A5",
"=X c #A9A5A5",
"-X c #AAAAAA",
";X c #ABADAD",
":X c #B0A7A8",
">X c #B4AFAE",
",X c #BDAEAF",
"<X c #BBB2A7",
"1X c #AFB8B9",
"2X c #B2B2B2",
"3X c #B6B5B5",
"4X c #B5B3B3",
"5X c #B7B7BA",
"6X c #B3B9B9",
"7X c #BDBBBA",
"8X c #BABBBB",
"9X c #B8B4B1",
"0X c #C68F8F",
"qX c #CA8E8C",
"wX c #C68682",
"eX c #D48483",
"rX c #D58987",
"tX c #C2918E",
"yX c #CB9392",
"uX c #C59998",
"iX c #DB9C9B",
"pX c #D79392",
"aX c #C5AE9D",
"sX c #C0A694",
"dX c #C3AEAD",
"fX c #CAA7A6",
"gX c #CAB9AD",
"hX c #C0BFBF",
"jX c #C4BCBB",
"kX c #C6B8B6",
"lX c #D1BCB9",
"zX c #E3B2B1",
"xX c #CEC6BC",
"cX c #BCC4C5",
"vX c #C4C3C3",
"bX c #CCCBCA",
"nX c #CDC8C3",
"mX c #D6C7C7",
"MX c #D4CBCB",
"NX c #D4D1CC",
"BX c #D4D2D2",
"VX c #D9D2D1",
"CX c #DBDDDC",
"ZX c #EFD3D3",
"AX c #E1DEDE",
"SX c #F3DDDD",
"DX c #EAC5C5",
"FX c #F3E0DE",
"GX c #E3E4E4",
"HX c #F5E4E3",
"JX c #F7E9E8",
"KX c #F9EEEE",
"LX c #FBF3F3",
"PX c #FDF8F7",
"IX c #FEFEFE",
"UX c #FCFAFA",
/* pixels */
"IXIXUXFXiXj.| ................................| k.rXZXUXIXIX",
"IXKXrXp.P W U U U U U U U U U U U U ~ ~ U U U U Y P p.b.HXIX",
"UXeXP Q ~ ~ ~ ~ ~ ~ ~ ~ ~ ~ ~ ~ ~ U K K ~ ~ ~ ~ ~ ~ ~ I z.LX",
"ZXd.Q ! W W ! ! ! ! W ~ ! ! ~ I I { f.s.W Q W W W Q ! ~ a.zX",
"eX^ W ! ! ! ! ! W Q ! ! I J J k.m.qXdXuXs.I ! ! ! ! ! ! W j.",
"g.! ! ! ! W J K ^ ^ F J { h.v.+XbX6X}.y.h.I ! ! ! ! ! ! ! ..",
"..! ! ! I a.c.M.yXyXm.n.i.t.7._.vX=XN.[ I ! ! ! ! ! ! ! W ..",
"..R T ! P d.+X1X;X6XhXJ.< + O `.5X&X>Xn.T R R ! ^ R T T T ..",
"..T T P [ n.+XXX%X%X*X,   . .  XB.1 4X0XE R T H F H T T P ..",
"..L L H d.].).4XJ.I.-X, O $ ; 4.> 1 7XqXS E | j.M.g.L L L ..",
"..L L G g.8.9 3X^.K.=X=.] :.l.=.w Q.8XwX .tXfXdX>X{.[ G L ..",
"..S S A $.8.6 3XvXG.^.|.C.C. XR.U.(.7XfX}.3XcXOX>.X.D A S ..",
"..S S C $.8.7 3XjX8 !.-X2XvX7XvX3X@XU.5 5 3X7X:Xy.D C S A ..",
"..Z Z C +.8.7 3X.X4 (.-X&X&X_.2X%X+ o . , 9X~.~.,X,.V S Z ..",
"..Z Z V +.8.6 5XZ.3 $X2X-X=X_.-XU.o X . * F.* 5 jXw.z Z V ..",
"..N N N O.8.7 5XaX- 5.P.).>X5 *XR.$ & _ ` ` 2 ~.jX,.z N N ..",
"..N N z O.8.7 3XAX<.;.8 K.bX~.!.oX2.x.x.3.5.J.&XkX>.x N B ..",
"..B M x O.T.6 4XGXNX<Xq G.bX*X0 @XE.A.A.R.~.!./.dX>.g B B ..",
"..M M x o.A.0 2XGXMXjXJ.q bX|.0 _.I.Q.%X).~.5.*.sXw.d M M ..",
"..v v l M %.].OXyXe.u.8 H.nX*.0 *XI.R.hX#X-./ ) aXw.d v l ..",
"..l l l l l #.O.k s 9.6.H.nX' 4 I.K.L.7XV.# # <.lX%.s l l  .",
"..l l k v v s s v l 0.6.q BX.X% = : W.8X*.@ ' xXVX&.s l k ..",
" .k k k k k b b k k 9.6.H.BXVXV.( / > V.<.D.gXlXtX} p k k ..",
"..j j j j j j j j p 0.8 H.BXGXCXxXsX1.2.r.S.q.} m j j j p ..",
"X.j i j j j j j j u @.'.Y.bXmXfXtXy.q.} n y f y a j j j u  .",
"m.c u i i i i i i u h @.[.r.@.n h e e y a i h h h i i i u g.",
"DXo.r i i i i i i i u i n h e t u i i i i i i i i i i u b pX",
"PXc.u r r r r r r r r r e r r r r r r r r r r r r r r r +.KX",
"IXHX$.m r r r r r r r r r r r r r r r r r r r r r r c X.SXIX",
"IXIXLXiX+.........................................X.eXJXIXIX"
};
