/* XPM */
static char *FB_PozosFecales_SC_R[] = {
/* columns rows colors chars-per-pixel */
"30 30 256 2 ",
"   c #141718",
".  c #151819",
"X  c #1A1A18",
"o  c #232323",
"O  c #2B2624",
"+  c #3A3A3C",
"@  c #7B3A01",
"#  c #783400",
"$  c #4A372D",
"%  c #5F3F2F",
"&  c #78430D",
"*  c #534136",
"=  c #6E4822",
"-  c #624838",
";  c #785639",
":  c #49484F",
">  c #464644",
",  c #5B5855",
"<  c #6B594D",
"1  c #725C44",
"2  c #776859",
"3  c #686867",
"4  c #6F6E70",
"5  c #706F72",
"6  c #7C7A77",
"7  c #7C7C7C",
"8  c #76767A",
"9  c #776C65",
"0  c #824D16",
"q  c #805324",
"w  c #915C27",
"e  c #825337",
"r  c #955E3D",
"t  c #996B3D",
"y  c #A5613B",
"u  c #976E44",
"i  c #936C55",
"p  c #887055",
"a  c #997452",
"s  c #BC7144",
"d  c #A47F59",
"f  c #AB7352",
"g  c #BC7E5B",
"h  c #A76A46",
"j  c #8B7B6E",
"k  c #CA794A",
"l  c #CD7E51",
"z  c #FFCB00",
"x  c #FFCC01",
"c  c #FFCE06",
"v  c #FFCE09",
"b  c #FFCF0C",
"n  c #FED00C",
"m  c #FFD00B",
"M  c #FACF18",
"N  c #FED212",
"B  c #FED214",
"V  c #FFD416",
"C  c #FED21A",
"Z  c #FED41A",
"A  c #FED51E",
"S  c #FDD21A",
"D  c #F6CF29",
"F  c #FFD621",
"G  c #FED626",
"H  c #FFD827",
"J  c #FCD52E",
"K  c #FEDA2E",
"L  c #FED92A",
"P  c #FFD633",
"I  c #FEDC30",
"U  c #FEDE35",
"Y  c #FDDF3B",
"T  c #FADA3C",
"R  c #F5D33E",
"E  c #FEE03C",
"W  c #BE9D5A",
"Q  c #9D826B",
"!  c #858279",
"~  c #82817A",
"^  c #9D8679",
"/  c #AF8E60",
"(  c #AA8967",
")  c #B98669",
"_  c #B7946F",
"`  c #A68978",
"'  c #AE9179",
"]  c #CB9476",
"[  c #CDBE7D",
"{  c #D3B768",
"}  c #EFD049",
"|  c #F2D344",
" . c #FFDB45",
".. c #F1D148",
"X. c #ECD25B",
"o. c #F7DF5A",
"O. c #F3D85D",
"+. c #FEDF58",
"@. c #F8D957",
"#. c #FEE141",
"$. c #FFE345",
"%. c #FEE54B",
"&. c #FEE554",
"*. c #FEE855",
"=. c #FFEA5A",
"-. c #FEEA5D",
";. c #F9E059",
":. c #DDC967",
">. c #DCCB6D",
",. c #D2C47D",
"<. c #E7CE63",
"1. c #EFDB6A",
"2. c #EED666",
"3. c #F2DE68",
"4. c #EEDC72",
"5. c #EDDC7A",
"6. c #E8D571",
"7. c #F0DE73",
"8. c #FFE263",
"9. c #FFEC62",
"0. c #FEEE67",
"q. c #FEEB60",
"w. c #FFE26B",
"e. c #FEEE69",
"r. c #F0E06F",
"t. c #FEF06E",
"y. c #EEE37D",
"u. c #FDEC72",
"i. c #F7E273",
"p. c #FEF275",
"a. c #FDF37C",
"s. c #7E7F80",
"d. c #848383",
"f. c #838488",
"g. c #8E8F8E",
"h. c #8B8B8B",
"j. c #948F8B",
"k. c #9B948A",
"l. c #8A8D90",
"z. c #8D9193",
"x. c #939393",
"c. c #96979A",
"v. c #9F9E9E",
"b. c #9B9A9A",
"n. c #999897",
"m. c #A49488",
"M. c #B39583",
"N. c #B99E83",
"B. c #A39D98",
"V. c #A5A186",
"C. c #A4A28A",
"Z. c #B6A887",
"A. c #BAB287",
"S. c #A9A69A",
"D. c #B5B399",
"F. c #9A9FA4",
"G. c #A1A1A1",
"H. c #A5A5A5",
"J. c #A3A4A4",
"K. c #A9A7A6",
"L. c #AAAAAA",
"P. c #ABABAB",
"I. c #B0AFAF",
"U. c #BAAFA7",
"Y. c #B8B6A6",
"T. c #AEAEB3",
"R. c #B2B1B2",
"E. c #B6B6B6",
"W. c #B7B6B3",
"Q. c #BAB9B2",
"!. c #B7B9BA",
"~. c #BDBCBA",
"^. c #BDBDBD",
"/. c #B9BABA",
"(. c #B8B4B2",
"). c #C2AD96",
"_. c #C5B598",
"`. c #CBBDA1",
"'. c #C2BEBB",
"]. c #ECDF81",
"[. c #E3D589",
"{. c #E4D89A",
"}. c #FFEF83",
"|. c #F2EB8D",
" X c #F7E984",
".X c #FDF681",
"XX c #FBF283",
"oX c #FEF987",
"OX c #FFFA82",
"+X c #FEF989",
"@X c #FEFA8E",
"#X c #FEFC8E",
"$X c #F9F48A",
"%X c #FAED98",
"&X c #FEFB90",
"*X c #FEFD97",
"=X c #F7F499",
"-X c #FFFF9A",
";X c #FFFE9E",
":X c #FDFA9D",
">X c #FCF497",
",X c #CDCAA2",
"<X c #C5C4AD",
"1X c #C8C8A8",
"2X c #CEC1AE",
"3X c #DDDAAC",
"4X c #D8D5A2",
"5X c #C4C3B3",
"6X c #CCCABC",
"7X c #C9C3BA",
"8X c #DFDCB7",
"9X c #D9D4BB",
"0X c #D4D4BA",
"qX c #E2DDA8",
"wX c #E0D7B6",
"eX c #E5E3A5",
"rX c #EEEDAB",
"tX c #E7E4A5",
"yX c #FEEEAF",
"uX c #FEFEA6",
"iX c #FEFEA2",
"pX c #F7F7AC",
"aX c #FEFEA8",
"sX c #FEFDAE",
"dX c #FAFAA9",
"fX c #E3E3B5",
"gX c #E4E4B7",
"hX c #F7F7B2",
"jX c #FEFEB0",
"kX c #FEFEB7",
"lX c #FDFBB5",
"zX c #FEFEB9",
"xX c #FEFFBC",
"cX c #B9B9C1",
"vX c #C4C3C3",
"bX c #CECCC2",
"nX c #CCCBCA",
"mX c #CCC7C1",
"MX c #D2CFCB",
"NX c #DDD9C9",
"BX c #D4D4D2",
"VX c #DBD9D5",
"CX c #FFF2C2",
"ZX c #FEFFC6",
"AX c #FFFFCB",
"SX c #FEFFCC",
"DX c #FFF5CE",
"FX c #E1E0DE",
"GX c #FFF6D4",
"HX c #FFF7DB",
"JX c #DFE0E2",
"KX c #E3E4E4",
"LX c #FFF9E3",
"PX c #FFFAEA",
"IX c #FFFCF4",
"UX c #FFFFFF",
/* pixels */
"UXUXIXGX XP b b b b b b b b b b b b b b b b b b G w.CXIXUXUX",
"UXPXw.&.}.lXSXAXAXAXAXAXAXAXAXAXAXSXSXSXAXAXAXSXzX>X8.+.GXUX",
"IX8.}.ZXxXzXkXkXkXkXkXkXkXkXkXkXkXkXkXkXkXkXkXkXzXzXZX:X .PX",
"CX&.xXsXsXjXjXjXjXjXjXjXjXjXjXsXsXjXzXlXsXjXjXjXjXjXsXzXu.%X",
"8..XuXuXaXaXaXaXaXaXaXaXuXuXiXrXgXgXbX0XpXuXaXaXaXaXuXuX:XJ ",
"C *X;X;X;X;X;X-X:X:X-X-XiXdXhX5XnXE.1X4XdX;X;X;X;X;X;X;XuXb ",
"c -X*X*X*X=XtXgXfX8XrXeX,XS.k.v.vXP.3X=X*X*X*X*X*X*X*X*X;Xv ",
"v @X&X&X#X=X<XT.L.T.vXd.: + O n./.G.Q.eX@X&X&X&X&X&X&X@X*Xv ",
"c +X+XoX$XtX<XG.J.J.H.>   . . M.^ , R.3XXX+X+XoXOXoX+XoX@Xc ",
"c .X.XOX|.D.b.E.d.g.L.> O $ - h ; , ~.qXa.XX X%XrX|..X.XoXv ",
"c a.a.a.|.C.8 E.n.d.K.i y s k i 9 g./.qXy.3X9X7XQ.4X.Xa..Xc ",
"c p.p.p. XC.4 E.vXs.n.m.) ) M.j.h.c.^.8X,XE.cXY.[.y.a.p.a.c ",
"c t.t.t.y.C.5 E.'.6 x.L.R.vX^.vXE.B.h.3 3 E.^.I.{.u.t.t.p.c ",
"c e.e.0.y.V.4 E.Z.2 c.P.J.J.v.R.G.+ o   > (.n.x.5X].0.e.t.c ",
"c 9.9.9.r.V.4 !._ 1 F.R.P.K.v.L.h.o X   * ] - 3 bX].-.9.0.c ",
"c -.-.=.r.V.4 !._.q j f.b.I.3 J.j.$ % e r r < x.6X5.*.=.q.c ",
"x *.*.*.3.V.5 E.FXd a 6 d.nXx.x.B.f l l g j d.J.6X4.&.*.=.c ",
"c %.%.%.3.V.4 W.KXMXU.7 s.nXH.7 S.k.` ` j.x.x.b.2X4.%.%.&.c ",
"x $.$.$.o.A.8 R.KXNX6Xd.7 nXm.6 v.g.z.G.b.x.j u _.7.#.$.%.x ",
"x #.#.#.$.1.A._.{.6.,.~ s.mXu 6 H.g.j.7XS.p 0 w `.1.Y #.$.x ",
"x E Y Y Y Y ;.o.T U >.! s.bXt 2 g.d.h.~.( @ @ d 9X2.U E E x ",
"x U U U U U I I U U >.! 7 BXN.& = ; l.~.u # t 7XVXX.I U U x ",
"x K K K K K K K K K :.! s.BXVX( w 0 ; Q a ' 2XwX[.| L K K x ",
"x H H G H H H G G G :.! s.BXJXVX7X)./ W { 5.O.R J G H G H x ",
"v F F A F F F F F A ..Z.f.MXNX{.[.1.O.T K S V Z A F F A F z ",
" .B Z C Z Z Z Z S Z A } [ <...D M M N B V Z A A Z Z C Z C B ",
"yXB N B B B B B B B N B F B n N N B B B B B B B B B N B N w.",
"IXP c n b n n n n n n n v m n n n n n n n n n n n b n v B LX",
"UXHXC v c c c c c c c c c c c c c c c c c c c c c c c b DXUX",
"UXUXPXi.v z z z z z z z z z z z z z z z z z z z z c +.LXUXUX"
};
