/* XPM */
static char *FB_Pozos_FS[] = {
/* columns rows colors chars-per-pixel */
"30 30 256 2 ",
"   c #141214",
".  c #1A1313",
"X  c #191A1C",
"o  c #242323",
"O  c #2A2725",
"+  c #3C3E3E",
"@  c #4D382D",
"#  c #7E5124",
"$  c #634332",
"%  c #7E553D",
"&  c #1C4F4F",
"*  c #275B5B",
"=  c #3E7373",
"-  c #2C6A6A",
";  c #136F6F",
":  c #454545",
">  c #5A5855",
",  c #4D5555",
"<  c #725C44",
"1  c #776858",
"2  c #676767",
"3  c #6F7170",
"4  c #707171",
"5  c #7B7A77",
"6  c #7D7B7B",
"7  c #777878",
"8  c #766B65",
"9  c #9E2A27",
"0  c #9E2E2A",
"q  c #9D2929",
"w  c #9E2627",
"e  c #9D2F33",
"r  c #A12E2B",
"t  c #A12F2C",
"y  c #A52F2C",
"u  c #A12C29",
"i  c #AA2D2D",
"p  c #AC2E2C",
"a  c #A32A25",
"s  c #A5302D",
"d  c #A2302E",
"f  c #A9312E",
"g  c #AD322F",
"h  c #B2312E",
"j  c #A43431",
"k  c #AE3330",
"l  c #AA3431",
"z  c #A43B3B",
"x  c #A73A38",
"c  c #B13431",
"v  c #B53532",
"b  c #B43330",
"n  c #BA3532",
"m  c #B93734",
"M  c #BE3633",
"N  c #BE3835",
"B  c #BD3E3A",
"V  c #C5312E",
"C  c #C13734",
"Z  c #C53734",
"A  c #C93532",
"S  c #CA3532",
"D  c #C23A37",
"F  c #C63A36",
"G  c #C93936",
"H  c #CD3B37",
"J  c #CC3C37",
"K  c #C63B38",
"L  c #C73C39",
"P  c #C13D3A",
"I  c #CB3B38",
"U  c #CC3B38",
"Y  c #CA3C39",
"T  c #CC3C38",
"R  c #C93F3C",
"E  c #A5613B",
"W  c #C4413D",
"Q  c #CC403E",
"!  c #A8464E",
"~  c #BE4643",
"^  c #B24B46",
"/  c #BA4946",
"(  c #BD4946",
")  c #BB4C49",
"_  c #B34644",
"`  c #B6514F",
"'  c #BB514F",
"]  c #AB5556",
"[  c #BE5552",
"{  c #B75856",
"}  c #936B54",
"|  c #957252",
" . c #BC6F44",
".. c #BB635F",
"X. c #A37D58",
"o. c #A76946",
"O. c #AD5A65",
"+. c #B65F64",
"@. c #817A7A",
"#. c #957F7E",
"$. c #997F7E",
"%. c #8B7B6C",
"&. c #AC6B69",
"*. c #AD6867",
"=. c #B46264",
"-. c #B96363",
";. c #B76A68",
":. c #B16F71",
">. c #A07E7D",
",. c #B87876",
"<. c #C64A46",
"1. c #C94B48",
"2. c #C4514F",
"3. c #CF524F",
"4. c #C25652",
"5. c #CE5351",
"6. c #C65E5C",
"7. c #C65C5B",
"8. c #C8625F",
"9. c #C67547",
"0. c #C66C6A",
"q. c #CF716F",
"w. c #C57372",
"e. c #CD7F7D",
"r. c #CA7876",
"t. c #D16A68",
"y. c #919076",
"u. c #9D8579",
"i. c #B7946F",
"p. c #A4817F",
"a. c #B98669",
"s. c #2322B4",
"d. c #3C3DBC",
"f. c #3333A8",
"g. c #5A5A8F",
"h. c #7F7F80",
"j. c #5555BA",
"k. c #785DBE",
"l. c #6F6EA5",
"z. c #0E0DE0",
"x. c #0000FB",
"c. c #1312F2",
"v. c #1C1BE4",
"b. c #2727F9",
"n. c #3D3DF1",
"m. c #6966DE",
"M. c #4544E6",
"N. c #5959EF",
"B. c #4E53F8",
"V. c #6767E9",
"C. c #7379F6",
"Z. c #976CA5",
"A. c #0C9F9F",
"S. c #0FADAD",
"D. c #08BBBB",
"F. c #7F8081",
"G. c #609191",
"H. c #51BFBF",
"J. c #69ADAD",
"K. c #7CA6A6",
"L. c #1FCBCB",
"P. c #24DDDD",
"I. c #08F9F9",
"U. c #44E8E8",
"Y. c #828181",
"T. c #848485",
"R. c #8E8E8E",
"E. c #8B8B8B",
"W. c #868788",
"Q. c #968D8A",
"!. c #9B8483",
"~. c #93928F",
"^. c #8D9191",
"/. c #839B9C",
"(. c #939494",
"). c #999795",
"_. c #979999",
"`. c #9F9E9E",
"'. c #9A9B9B",
"]. c #969999",
"[. c #A88786",
"{. c #BE8281",
"}. c #B88C8B",
"|. c #B39583",
" X c #BA9F86",
".X c #BB8C9B",
"XX c #A39F9F",
"oX c #AE9796",
"OX c #B99D9D",
"+X c #B19696",
"@X c #A89589",
"#X c #A0A09E",
"$X c #999CA6",
"%X c #9E9FB8",
"&X c #8787B8",
"*X c #86ADAC",
"=X c #9AA4A5",
"-X c #A2A1A1",
";X c #A4A5A3",
":X c #A9A5A5",
">X c #AAABAB",
",X c #B4AFAE",
"<X c #B7ABAB",
"1X c #AFB9BA",
"2X c #B2B2B2",
"3X c #B6B5B5",
"4X c #B5B3B3",
"5X c #B7B7BA",
"6X c #B3B9B9",
"7X c #BBBBBB",
"8X c #BCB0BF",
"9X c #BBB2A7",
"0X c #C88C8A",
"qX c #D48483",
"wX c #D58987",
"eX c #C2918F",
"rX c #CB9392",
"tX c #C59998",
"yX c #DB9C9B",
"uX c #D79392",
"iX c #C7AF9A",
"pX c #C3AEAD",
"aX c #C8A7A8",
"sX c #C3BCBC",
"dX c #E3B2B1",
"fX c #BFC0BD",
"gX c #9F93D5",
"hX c #BBBAC0",
"jX c #ABA0D0",
"kX c #B3AEDB",
"lX c #8483EB",
"zX c #9A96E1",
"xX c #B9BCE5",
"cX c #CAB9C7",
"vX c #BCC4C4",
"bX c #C4C3C3",
"nX c #CDCCCC",
"mX c #C8C8C7",
"MX c #D4C9CB",
"NX c #D4D1CD",
"BX c #C3C3D7",
"VX c #C9C9D2",
"CX c #D5D2D5",
"ZX c #EFD3D3",
"AX c #E1DEDD",
"SX c #F3DDDD",
"DX c #EAC5C5",
"FX c #F3E0DE",
"GX c #D9DCE0",
"HX c #E4E4E3",
"JX c #F5E4E3",
"KX c #F9EEEE",
"LX c #F7E9E8",
"PX c #FEFEFE",
"IX c #FCFAFA",
"UX c #FBF5F4",
/* pixels */
"PXPXIXFXyX6.~ ( ( ( ( ( ( ( ( ( ( ( ( ( ( ( ( ~ 7.wXZXIXPXPX",
"PXKXwX<.F I H H H H H H H H H H H H T T H H H H J F <.q.JXPX",
"IXqXF U T T T T T T T T T T T T T H S S T T T T T T T G 8.UX",
"ZX2.U Y I I Y Y Y Y I T Y Y T G G Q 3.1.I U I I I U Y T <.dX",
"qXR I Y Y Y Y Y I U Y Y G A A 7.r.0XpXtX1.G Y Y Y Y Y Y I 6.",
"4.Y Y Y Y I A S R R V A Q 5.t.OXmX6X}.,.5.G Y Y Y Y Y Y Y ( ",
"( Y Y Y G <.0.e.rXrXq.w.,.>.#.`.bX:Xe.W G Y Y Y Y Y Y Y I ( ",
"( L K Y F 2.OX1X>X6XsXY., + O _.5X;X,Xw.K L L Y R L K K K ( ",
"( K K F W w.OXXX-X-X;X:       |.u.> 4XeXP L K Z V Z K K F ( ",
"( D D Z 2.[.'.4XY.R.>X: O @ $ o.% > 7X0XN B ~ 6.e.4.D D D ( ",
"( D D C 4.$.7 3X).T.:X} E  .9.} 8 ^.7X0X/ eXaXpX,X{.W C D ( ",
"( N N M [ $.3 3XbXh.).@Xa.a.|.Q.E.].7XaX}.3XvXoX=.) P M N ( ",
"( N N M [ $.4 3XsX5 (.>X2XbX7XmX3X#XE.2 2 3X7X<X,.B M N M ( ",
"( m m n ' $.4 3X X1 ].>X;X-X`.2X-X+ o . : 1X(.(.<X..n N n ( ",
"( m m n ' $.3 5Xi.< $X2X>X:X`.>XE.o X . * U.- 2 sX-.b m m ( ",
"( v v b ` $.4 5XiX# %.W.'.,X2 ;X^.& ; A.D.S.= (.sX-.h v v ( ",
"( v v h ` $.4 3XAXX.| 5 T.mX(.~.*XL.I.I.P.G.Y.;XsX+.h v b ( ",
"( c c h ` !.3 4XHXNX9X6 h.nX;X6 =XK.H.J./.(.~.$X8X=.p c c ( ",
"( c c h ^ p.6 2XHXMXsXY.6 VX&X7 `.R.Q.XX'.~.l.M.gX..p c c ( ",
"( k k g c { [.+XrX;.,.6 F.BXM.5 ;XR.^.fX%Xj.v.b.jX-.i k g ( ",
"( g g g g g ` ` f p *.6 F.BXn.g.R.T.W.hXV.x.x.N.cXO.i g g / ",
"( g g f k k p p l l &.@.h.CXlXz.s.f.y.7XM.x.n.xXCXO.i g f ( ",
"/ f f f f f l l f s &.@.F.CXCXV.b.c.d.m.B.C.kXcX.X! y f f ( ",
"( s s s s s s s s y &.6 F.CXHXGXxXzXm.k.Z.{.=.! z s s s y ( ",
") s t s s s s s s r ] !.W.nXMXaXeX,.=.^ x q w a r s s s r / ",
"r.j r t t t t t t r d ] [.:.] z e q q 9 u t d d t t t t r 4.",
"DX_ 0 t t t t t t t r t x t 9 u u t t t t t t t t t t r l uX",
"IX0.u 0 0 0 0 0 0 0 0 0 9 0 0 0 0 0 0 0 0 0 0 0 0 0 0 0 ' KX",
"PXJX[ x 0 0 0 0 0 0 0 0 0 0 0 0 0 0 0 0 0 0 0 0 0 0 j ) SXPX",
"PXPXUXyX' ( ( ( ( ( ( ( ( ( ( ( ( ( ( ( ( ( ( ( ( ) qXLXPXPX"
};
