/* XPM */
static char *FB_PozoPluvial_N[] = {
/* columns rows colors chars-per-pixel */
"30 30 217 2 ",
"   c gray7",
".  c #161717",
"X  c #171A1A",
"o  c #1B1E1E",
"O  c #1E1E1E",
"+  c #210E0E",
"@  c #221111",
"#  c #201515",
"$  c #1D2F2F",
"%  c #212323",
"&  c #222626",
"*  c #272727",
"=  c #2A2F2F",
"-  c #213C3C",
";  c #373737",
":  c #0E4343",
">  c #2A4141",
",  c #3C5F5F",
"<  c #137272",
"1  c #117A7A",
"2  c gray29",
"3  c #544C4C",
"4  c #565656",
"5  c #57575E",
"6  c #5A5A5A",
"7  c #5B5B5C",
"8  c #5D5D5D",
"9  c #61615F",
"0  c #5A5A61",
"q  c #5F5F60",
"w  c #5C5C67",
"e  c #5D5D69",
"r  c #53537A",
"t  c #626261",
"y  c #656563",
"u  c #636364",
"i  c #656565",
"p  c #696967",
"a  c #66666A",
"s  c #64646C",
"d  c #636B6B",
"f  c #6A6A6A",
"g  c #6C6C6A",
"h  c #6E6E6E",
"j  c #666677",
"k  c #696974",
"l  c #6D6D76",
"z  c #6E6E79",
"x  c #6E7071",
"c  c #727272",
"v  c #767676",
"b  c #797976",
"n  c #727378",
"m  c #75757A",
"M  c #79797A",
"N  c #7D7A7A",
"B  c #7E7E7E",
"V  c #828276",
"C  c #8C8C78",
"Z  c #38389A",
"A  c #424283",
"S  c #555583",
"D  c #535389",
"F  c #454599",
"G  c #5F5FB6",
"H  c #0D0DD1",
"J  c #0202EE",
"K  c #0000F3",
"L  c #0101FB",
"P  c #0606F9",
"I  c #0000FE",
"U  c #0505FF",
"Y  c #0909F8",
"T  c #0F0FFB",
"R  c #1919F9",
"E  c #2323E5",
"W  c #2828F5",
"Q  c #2020F9",
"!  c #2525FB",
"~  c #2525FC",
"^  c #2D2DF9",
"/  c #3333F4",
"(  c #3434F6",
")  c #3434FC",
"_  c #4444CB",
"`  c #4545CC",
"'  c #4B4BCF",
"]  c #5B5BD7",
"[  c #6969DB",
"{  c #5757EE",
"}  c #4F4FF7",
"|  c #5757F2",
" . c #6868E1",
".. c #6D6DEB",
"X. c #6464FF",
"o. c #7878F1",
"O. c #0B9494",
"+. c #0BAAAA",
"@. c #7F8080",
"#. c #7F9E9E",
"$. c #55BEBE",
"%. c #6DA6A6",
"&. c #00C9C9",
"*. c #05D1D1",
"=. c #04DBDB",
"-. c #03E1E1",
";. c #13EAEA",
":. c #1FE9E9",
">. c #00F2F2",
",. c #00F8F8",
"<. c cyan",
"1. c #0AF8F8",
"2. c #54CDCD",
"3. c #60C0C0",
"4. c #44F5F5",
"5. c #808081",
"6. c #858585",
"7. c #858588",
"8. c #84848D",
"9. c #8A8A8A",
"0. c #8E8E8E",
"q. c #928F8F",
"w. c #979789",
"e. c #888891",
"r. c #8C8C98",
"t. c #929192",
"y. c #949292",
"u. c #939493",
"i. c #959591",
"p. c #929294",
"a. c #919595",
"s. c #959595",
"d. c #969699",
"f. c #999999",
"g. c #9E9E9F",
"h. c #A5A592",
"j. c #A5A597",
"k. c #A1A19A",
"l. c #9DA2A2",
"z. c #A2A2A2",
"x. c #A5A5A2",
"c. c #A0A0A4",
"v. c #A6A6A7",
"b. c #A4A4AA",
"n. c #A5A5AC",
"m. c #A6A8A8",
"M. c #AAAAAA",
"N. c #ACABAB",
"B. c #ADADAA",
"V. c #A9A9AC",
"C. c #ABACAC",
"Z. c #ADADAD",
"A. c #BEBEAC",
"S. c #AEAEB1",
"D. c #B1B2B2",
"F. c #B4B5B5",
"G. c #B8B2B2",
"H. c #B2B2BA",
"J. c #B6B6BF",
"K. c #B9B9B9",
"L. c #BFBBBB",
"P. c #BABBBF",
"I. c #BBBDBD",
"U. c #BDBEBE",
"Y. c #C2C29B",
"T. c #C2C2BA",
"R. c #C1C1BD",
"E. c #9999CD",
"W. c #AEAEC0",
"Q. c #B5B5C3",
"!. c #B4B4C4",
"~. c #B7B8C0",
"^. c #B8B8C1",
"/. c #BFBFC1",
"(. c #B9B9C6",
"). c #B7B7DE",
"_. c #8D8DEA",
"`. c #9090E4",
"'. c #9C9CEA",
"]. c #9898EE",
"[. c #AAAAE3",
"{. c #A0A0EA",
"}. c #B1B1E1",
"|. c #B4B4EA",
" X c #C2C2C2",
".X c #C5C5C5",
"XX c #C9C9C9",
"oX c #CCCCCA",
"OX c #CBCBCC",
"+X c #CDCFCF",
"@X c #D6D6D1",
"#X c #D3D3D4",
"$X c #D6D6D6",
"%X c #D3D3D8",
"&X c #D9D9D9",
"*X c #DDDEDE",
"=X c #E2E2D9",
"-X c #E5E5D9",
";X c #E8E8DE",
":X c #EEEEDF",
">X c #C1C1E7",
",X c #CFCFE4",
"<X c #DFDFE3",
"1X c #DADAE7",
"2X c #D4D4EB",
"3X c #DADAE8",
"4X c #E1E1E1",
"5X c #E6E6E6",
"6X c #E9E9E7",
"7X c #EEEEE7",
"8X c #E4E4E8",
"9X c #EAEAEA",
"0X c #EFEFEF",
"qX c #F1F1F1",
"wX c #F6F6F6",
"eX c gray98",
"rX c #FFFFFF",
/* pixels */
"rXrXeX4XM.c 6 7 7 7 7 7 7 7 7 7 7 7 7 7 7 7 7 6 g s.$XwXrXrX",
"rX0Xs.g h N 5.B 5.5.5.5.5.5.5.5.5.5.5.5.5.5.B 5.B c h 6.5XrX",
"eXt.h 5.B B B B B B B B B B B B B B B B B B B N N B 5.v v wX",
"&Xc 5.B B B B B B B B B B B B B B B B N N v N 9.6.B B 5.c K.",
"u.v B B B B B B B B B B B B B B @.B B 6.0.z.N. X Xt.N B N c ",
"i N B B B B B B 5.5.N B 5.5.B N M v 5.v.XX&XXXF.K.z.5.B 5.7 ",
"6 B B B B B N N M M 9.5.M M N 5.0.z.z.v.$Xz.f.9.v 6.5.B B 7 ",
"7 B B B N N 9.z.D.K..X.Xz.f.N.F.C.0.9.g.$XZ.M.m.@.M B N B 7 ",
"6 N N N N M t.z.N.I.z.D.$XZ.M 6 2 * ; z.+XZ.D.D.g.B M N N 6 ",
"6 M M M M M u.M.f.f.f.9.$Xv O   . X = D.L.d u.D.D.9.v M N 7 ",
"6 M M M M 0.M.D.Z.N.D.u.$Xu o & % + - 4.2.: 3 .XK.B v M M 6 ",
"6 v v c B t.6.z.Z.N.8 v *Xi # @ $ < 1 -.&.> N +XI.M v v v 6 ",
"6 v v c B 0.c N v.XXh v *Xi O.*.=.,.>.+., M f.XXP.M c v v 6 ",
"6 c c c N 0.M i N.4Xz.x G.3.;.<.<.1.:.%.0.u.u.oX~.m c c v 6 ",
"6 c c h M 0.M i Z.4Xx.f f.l.a.$.$.#.a.u.s.u.u.OX^.n h c c 6 ",
"6 h h g v 0.M u N.4Xc.f f.g.y.q.y.s.t.t.i.p.` ].T.z h h c 6 ",
"6 h h g v 9.M u B.2X] r k.g.0.N v.U.k.i.r._ I '.R.z g h h 6 ",
"6 g g f v 9.M u B.1X~ A h.b.7.5.D. X(.G E L Y {.R.z f g g 6 ",
"6 g g f c 9.M i Z.3X^ Z C j.w.v Z./...I U I / ,XJ.l p g g 6 ",
"6 f f i c 9.M u V.6X{ J F S D p v.(.| P I T `.;XW.l i f f 6 ",
"6 i i u c 9.M i V.7X).! L K K j Y.R.( I W _.:X6X!.l y i i 6 ",
"6 i i u h 9.M i C.8X-X[.| Q R H '  .) o.>X#XQ.H.e.a y i i 6 ",
"6 u u t h 6.v i N.5X%X-X=X}.|.X.} [ E.A.g.8.k s 8 u u u u 6 ",
"6 t t t u 0.0.8 C.9X4X<X<X@XS.n.s.V b e 5 8 9 t u t t t t 6 ",
"8 t t t 8 h z.N M.#XS.d.5.m e w 0 6 7 9 u t t t t t t t t 6 ",
"6.8 8 8 8 7 g 0.0.c i 8 4 6 8 8 8 t t q 8 8 8 8 8 8 8 8 8 i ",
"XXi 8 8 8 8 7 i t 6 7 8 8 8 8 8 8 8 8 8 8 8 8 8 8 8 8 8 7 g.",
"eXM 6 7 7 7 7 6 6 8 7 7 7 7 7 7 7 7 7 7 7 7 7 7 7 7 7 6 i 0X",
"rX5Xf 8 6 6 6 7 7 6 6 7 7 7 7 7 7 7 7 7 7 7 7 7 7 6 6 t *XrX",
"rXrXqXz.t 6 6 6 6 6 6 6 6 6 6 6 6 6 6 6 6 6 6 6 6 7 0.9XrXrX"
};
