/* XPM */
static char *FB_PozosPluviales_FS_R[] = {
/* columns rows colors chars-per-pixel */
"30 30 256 2 ",
"   c #1B1312",
".  c #191718",
"X  c #200F0F",
"o  c #1D2F2F",
"O  c #242526",
"+  c #353C3D",
"@  c #3E3E40",
"#  c #1C4F50",
"$  c #1B5858",
"%  c #285C5C",
"&  c #136F6F",
"*  c #167575",
"=  c #2D6B6B",
"-  c #3E7373",
";  c #444646",
":  c #4C5556",
">  c #576161",
",  c #5B7B7B",
"<  c #676768",
"1  c #6F7071",
"2  c #707172",
"3  c #7C7B7C",
"4  c #78787A",
"5  c #9F2F2C",
"6  c #9E302D",
"7  c #9F3336",
"8  c #A0322F",
"9  c #A03330",
"0  c #A33633",
"q  c #A33635",
"w  c #A43532",
"e  c #A53936",
"r  c #A73833",
"t  c #A63B38",
"y  c #A0393D",
"u  c #A93D3A",
"i  c #A93D3A",
"p  c #A93C37",
"a  c #AA413E",
"s  c #AD413E",
"d  c #AE4340",
"f  c #AF4441",
"g  c #AB4747",
"h  c #B14645",
"j  c #B04542",
"k  c #B24945",
"l  c #B44A47",
"z  c #BC4946",
"x  c #BB4946",
"c  c #B74E4B",
"v  c #B44C4A",
"b  c #BE4B48",
"n  c #BE4C4A",
"m  c #BA4F4C",
"M  c #BA514E",
"N  c #AE5E5E",
"B  c #AD545C",
"V  c #BD5552",
"C  c #BE5754",
"Z  c #BC5250",
"A  c #B45850",
"S  c #AE605E",
"D  c #807A7B",
"F  c #BB6463",
"G  c #BD6B69",
"H  c #B66C6C",
"J  c #AF6774",
"K  c #B76E72",
"L  c #B17574",
"P  c #BC7372",
"I  c #BD777A",
"U  c #BC7A7C",
"Y  c #C04F4C",
"T  c #C0504D",
"R  c #C25956",
"E  c #C55D5B",
"W  c #C85F5C",
"Q  c #C7615E",
"!  c #CA625F",
"~  c #CB6563",
"^  c #CC6966",
"/  c #C36D6A",
"(  c #CE6D6B",
")  c #D16966",
"_  c #D46D6A",
"`  c #CD716F",
"'  c #C3706F",
"]  c #D6716E",
"[  c #D0706E",
"{  c #D8726F",
"}  c #C57372",
"|  c #CB7977",
" . c #C77C7A",
".. c #D67571",
"X. c #D37472",
"o. c #D97572",
"O. c #DB7673",
"+. c #DD7976",
"@. c #DB7875",
"#. c #D57C7A",
"$. c #DE7D7A",
"%. c #DB7E7B",
"&. c #80807F",
"*. c #929076",
"=. c #BE817F",
"-. c #D3817E",
";. c #DE817E",
":. c #2322B4",
">. c #3C3CBC",
",. c #3333A8",
"<. c #595993",
"1. c #7C7D82",
"2. c #777782",
"3. c #4544A0",
"4. c #5555BA",
"5. c #706EA6",
"6. c #6C6CAA",
"7. c #2524D8",
"8. c #0E0DE1",
"9. c #0000FB",
"0. c #1312F2",
"q. c #1C1BE5",
"w. c #2726F9",
"e. c #3E3DF1",
"r. c #5151D8",
"t. c #7A61C1",
"y. c #6966DE",
"u. c #4544E6",
"i. c #5958ED",
"p. c #4D53F7",
"a. c #6767E9",
"s. c #706FFE",
"d. c #7378F5",
"f. c #9873AA",
"g. c #0C9E9E",
"h. c #1A9595",
"j. c #0FADAD",
"k. c #08BCBC",
"l. c #2BAFAF",
"z. c #38A4A4",
"x. c #7F8080",
"c. c #609191",
"v. c #67ACAC",
"b. c #78B2B2",
"n. c #7CA6A6",
"m. c #51C0BF",
"M. c #08CACA",
"N. c #1FCBCB",
"B. c #24DDDD",
"V. c #3BD5D5",
"C. c #05F7F7",
"Z. c #01E7E7",
"A. c #69C3C3",
"S. c #45E9E9",
"D. c #828181",
"F. c #848585",
"G. c #8E8E8E",
"H. c #8B8A8A",
"J. c #888884",
"K. c #9A8686",
"L. c #9C8888",
"P. c #948989",
"I. c #93938E",
"U. c #9B998A",
"Y. c #918F90",
"T. c #879697",
"R. c #939595",
"E. c #939A9B",
"W. c #9D9D9D",
"Q. c #9A9896",
"!. c #A48C8B",
"~. c #AE8987",
"^. c #B08389",
"/. c #A89A9A",
"(. c #B99B9A",
"). c #A4A48F",
"_. c #B6A09F",
"`. c #9B9BA7",
"'. c #9E9FB9",
"]. c #8787B8",
"[. c #BC93A2",
"{. c #85ADAE",
"}. c #9BA3A3",
"|. c #A4A3A2",
" X c #A4A9A9",
".X c #AAAAAB",
"XX c #AAA7A7",
"oX c #BAA9A9",
"OX c #AFAFB0",
"+X c #AEB6B6",
"@X c #B6B6B6",
"#X c #B4B3B3",
"$X c #BEB4B4",
"%X c #BBBBBB",
"&X c #B9B9B4",
"*X c #C0888A",
"=X c #DE8380",
"-X c #DF8582",
";X c #DD8583",
":X c #D68C89",
">X c #DD8B88",
",X c #D68684",
"<X c #C1918F",
"1X c #D7918E",
"2X c #CE9694",
"3X c #C69898",
"4X c #D39391",
"5X c #DB9A98",
"6X c #D89795",
"7X c #E08380",
"8X c #E08986",
"9X c #E28D8A",
"0X c #E28F8C",
"qX c #E28B89",
"wX c #E1918F",
"eX c #E49694",
"rX c #E59897",
"tX c #E59A98",
"yX c #D4A09E",
"uX c #CBA3A3",
"iX c #C7AAAC",
"pX c #D2ABA9",
"aX c #DDA5A3",
"sX c #C7B9B9",
"dX c #E4B5B5",
"fX c #BFC1BF",
"gX c #C1C0BF",
"hX c #A096D8",
"jX c #BCB8C4",
"kX c #A9A4D2",
"lX c #B4AFDC",
"zX c #8584EC",
"xX c #9B9AF1",
"cX c #9A97E1",
"vX c #B9BCE5",
"bX c #CBBCC9",
"nX c #BEC3C3",
"mX c #C4C2C2",
"MX c #CCCBCB",
"NX c #C8C5C5",
"BX c #D4CBCD",
"VX c #C3C3D7",
"CX c #CACBD8",
"ZX c #D4D2D5",
"AX c #EFD3D3",
"SX c #F3DEDE",
"DX c #E9C6C5",
"FX c #E2E2DF",
"GX c #DCDDE1",
"HX c #E5E4E3",
"JX c #F5E4E3",
"KX c #F9EEEE",
"LX c #F6E9E8",
"PX c #FBF4F4",
"IX c #FFFFFF",
"UX c #FDFAFA",
/* pixels */
"IXIXUXSXaX^ n T Y Y Y Y Y Y Y Y Y Y Y Y Y Y T n Q 1XAXPXIXIX",
"IXKX1X( #.wXtXrXrXrXrXrXrXrXrXrXrXrXrXrXrXrXrXrXwX=XX.#.JXIX",
"UX:X..eXwX0X0X0X0X0X0X0X0X0X0X0X0X0XqX9X0X0X0X0X0XwXeX=X` PX",
"AX( 9X;X8X8X8X8X8X8X8X8X8X8X8X-X;X>XeXwX;X8X8X8X8X8X;XqXX.dX",
":X..;.;.=X=X-X-X7X7X-X-X;.$.$.1XyXpXsXiX>X;.=X=X=X=X;.;.$.~ ",
"R +.$.$.$.$.+.+.%.%.O.+.;.9X5XoXMX@X_.<X>X+.$.$.$.$.$.$.$.Y ",
"b +.+.@.O.%.4XyXpXpX5X2X(.!.P.}.mXXX3X#.O.+.@.+.+.+.+.@.+.n ",
"n o...o.{ -.oX+X.X@XgXD.: + O Q.$X|.#X2X..o.o.o.o.o.o...o.n ",
"n ] ] _ X.4XoX|.|.|. X;     X A.v.: #XuX[ ] ] _ ) _ ] ] ] n ",
"n _ _ _ | /.Q.#XD.G..X; o $ * M.h.> %XuX( ( ` ,X5X-._ _ _ n ",
"b ) ) ) | L.4 @XQ.F. Xz.M.Z.C.l., G.%X3X} uXsXsX#X3X_ ) ) n ",
"n ^ ^ ~ | L.1 @XmX&.E.b.V.V.A.T.H.Q.%XsX(.@XnX_.=.} ^ ~ ^ b ",
"n ~ ~ ! } L.2 @XjX4 R.XX+XnXsXNX@X`.H.< < @X%X.X<X~ ! ~ ~ n ",
"n Q Q W } K.2 @XzX<.U..X|.|.W.#X|.@ O . ; +XR.R.$X .E ! ! b ",
"b E E E ' K.1 &Xs.3.).#X.X XW..XH.O .   % S.= < mX .R E E n ",
"z R R R / K.1 &XxX7.6.J.W.OX< |.G.# & g.k.j.- R.mXU C R R b ",
"b C C V G K.2 @XGXi.r.2.F.NXR.Y.{.N.C.C.B.c.D.|.sXI Z C C z ",
"z V V M G K.1 #XHXCXkX1.&.MX|.3 }.n.m.v.T.R.I.`.jXI m V V b ",
"z M M m F !.4 #XHXBXsXD.3 CX].4 W.G.P./.Q.I.5.u.hX .v M M z ",
"b c c v c P !.(.uXU ^.3 D.VXu.4 |.G.G.fX'.4.q.w.kXP h c c b ",
"z l l l l l F F k h L D x.VXe.<.G.F.H.jXa.9.9.i.bXK h l l z ",
"z h h h k k s j k h L D 1.ZXzX8.:.,.*.%Xu.9.e.vXZXJ d h h z ",
"z f f d f f f f f d L D x.ZXZXa.w.0.>.y.p.d.lXbX[.B s f d z ",
"z s s a s s s s a i L 3 x.ZXFXGXvXcXy.t.f.*XK B g a s s a z ",
"n u u u i i i i i t N !.F.MXBXiX3XU H A f q w r p u u u u x ",
"| p e e e e e e e e t S ~.L N g y 7 9 w w e t t e e e e e R ",
"DXl 0 0 0 0 0 0 0 0 0 q a q 9 9 w w 0 q q 0 0 0 0 0 0 q i 4X",
"UX/ 8 6 9 9 9 9 9 9 9 8 5 8 9 9 9 9 9 9 9 9 9 9 9 9 9 6 M KX",
"IXJXC i 6 6 6 6 6 6 6 6 6 6 6 6 6 6 6 6 6 6 6 6 5 6 0 m SXIX",
"IXIXPX5Xm z z z z z z z z z z z z z z z z z z z z b ,XLXIXIX"
};
