/* XPM */
static char *FB_PozoPluvial_NR_R[] = {
/* columns rows colors chars-per-pixel */
"30 30 256 2 ",
"   c #1A1D1C",
".  c #161614",
"X  c #220F0E",
"o  c #211313",
"O  c #201F1E",
"+  c #1D302F",
"@  c #262828",
"#  c #213B3B",
"$  c #373737",
"%  c #0F4343",
"&  c #2B4141",
"*  c #3D5F5F",
"=  c #127676",
"-  c #585A5D",
";  c #4E4A4B",
":  c #605E5B",
">  c #53537A",
",  c #676565",
"<  c #656364",
"1  c #6B6A6A",
"2  c #666867",
"3  c #6E7172",
"4  c #747576",
"5  c #74777A",
"6  c #74787A",
"7  c #7C7B7B",
"8  c #666677",
"9  c #D26F1D",
"0  c #D0701E",
"q  c #CD6F20",
"w  c #CF7222",
"e  c #CF7324",
"r  c #CF742E",
"t  c #D17526",
"y  c #D37424",
"u  c #D27729",
"i  c #D3752A",
"p  c #D57A2E",
"a  c #D4792C",
"s  c #D97C2D",
"d  c #CC773A",
"f  c #CD7836",
"g  c #D67D31",
"h  c #D67D32",
"j  c #D87E30",
"k  c #D37F3E",
"l  c #DA8135",
"z  c #DC8335",
"x  c #D7833D",
"c  c #DD853A",
"v  c #DC863D",
"b  c #E28A3D",
"n  c #E18636",
"m  c #F38F3E",
"M  c #F4913F",
"N  c #F3903F",
"B  c #8C8C78",
"V  c #BC9675",
"C  c #BE9979",
"Z  c #D78647",
"A  c #DA904D",
"S  c #D48952",
"D  c #D98D56",
"F  c #DD935B",
"G  c #E28D42",
"H  c #E48E43",
"J  c #ED8F42",
"K  c #E59046",
"L  c #E69349",
"P  c #E7944C",
"I  c #EA954B",
"U  c #EA964A",
"Y  c #F59241",
"T  c #F69545",
"R  c #F39142",
"E  c #F59A4E",
"W  c #EB9A51",
"Q  c #EE9D54",
"!  c #ED9B51",
"~  c #E69957",
"^  c #F09F56",
"/  c #F29D52",
"(  c #F09F58",
")  c #F3A157",
"_  c #F5A55E",
"`  c #F4A25A",
"'  c #D59667",
"]  c #C99A73",
"[  c #C19C7D",
"{  c #D39B6E",
"}  c #E69D60",
"|  c #D6A67E",
" . c #EAA465",
".. c #F5A661",
"X. c #F7A862",
"o. c #F9AD66",
"O. c #FAAB64",
"+. c #FAAE69",
"@. c #FCAF6A",
"#. c #FEB16A",
"$. c #FEB26D",
"%. c #FDB36C",
"&. c #E7AD79",
"*. c #F4AC71",
"=. c #F4B275",
"-. c #FFB572",
";. c #FFB674",
":. c #FBB373",
">. c #F4B47C",
",. c #FEB97A",
"<. c #FDBA7D",
"1. c #F8B378",
"2. c #38389B",
"3. c #434383",
"4. c #555486",
"5. c #454599",
"6. c #605FB6",
"7. c #0302EF",
"8. c #0100F2",
"9. c #0001FE",
"0. c #0404FB",
"q. c #0C0BF9",
"w. c #1614F9",
"e. c #2424FB",
"r. c #2B2BF7",
"t. c #3434F7",
"y. c #2423E4",
"u. c #0F0ED0",
"i. c #4847CC",
"p. c #5C5BD6",
"a. c #7C6DD4",
"s. c #514FF6",
"d. c #5858F1",
"f. c #5857ED",
"g. c #5C62FF",
"h. c #696AE7",
"j. c #7477F2",
"k. c #0B9494",
"l. c #0CAAAA",
"z. c #7F9E9E",
"x. c #7C8288",
"c. c #55BEBE",
"v. c #6EA6A6",
"b. c #00C9C9",
"n. c #05D7D6",
"m. c #03E1E1",
"M. c #00FDFD",
"N. c #06F5F5",
"B. c #14EAE9",
"V. c #20E9E9",
"C. c #60C0C0",
"Z. c #45F5F5",
"A. c #54CDCC",
"S. c #8C8C8C",
"D. c #838384",
"F. c #918F8E",
"G. c #8B8D94",
"H. c #959292",
"J. c #959495",
"K. c #939392",
"L. c #9B9B9B",
"P. c #9A9897",
"I. c #979789",
"U. c #A0A09B",
"Y. c #A8A596",
"T. c #9EA2A4",
"R. c #A3A3A3",
"E. c gray67",
"W. c #ADADAB",
"Q. c #AEAEAD",
"!. c #AAABAC",
"~. c #A4A6AB",
"^. c #B3AEA9",
"/. c #BAB3AE",
"(. c #ABAEB1",
"). c #ADB1B4",
"_. c #B2B2B2",
"`. c #BDBCBD",
"'. c #B7B6B5",
"]. c #C5A283",
"[. c #CCA98C",
"{. c #DEAE84",
"}. c #D1AF9A",
"|. c #D7B89D",
" X c #E9B586",
".X c #F4B981",
"XX c #FFBD82",
"oX c #FBBB85",
"OX c #F6BE8D",
"+X c #FABD8A",
"@X c #E4BC97",
"#X c #CCB5A2",
"$X c #C3B6AA",
"%X c #D4BAA7",
"&X c #D2BDB7",
"*X c #CCB6B4",
"=X c #C2C29B",
"-X c #FFC087",
";X c #FEC189",
":X c #FCC18C",
">X c #F6C08F",
",X c #FEC590",
"<X c #FFC996",
"1X c #FDC99C",
"2X c #F4C398",
"3X c #EBC99A",
"4X c #D9C4AF",
"5X c #C1C0BE",
"6X c #D7C3B5",
"7X c #D9C6B7",
"8X c #E1C1A3",
"9X c #F3CAA3",
"0X c #F1CCAC",
"qX c #E1CBB2",
"wX c #FAD3B0",
"eX c #AF9EC3",
"rX c #BBBBC4",
"tX c #B7B7DE",
"yX c #9696E9",
"uX c #8B8CEA",
"iX c #9CA0EC",
"pX c #ADB2EC",
"aX c #B1B1E1",
"sX c #AAAAE3",
"dX c #BEC1E9",
"fX c #C0C3C3",
"gX c #C6C9CB",
"hX c #CBCCCC",
"jX c #C0C4C8",
"kX c #DECFC1",
"lX c #C8CED0",
"zX c #D5D5D6",
"xX c #DCD6D3",
"cX c #DBDBDB",
"vX c #D4D3D0",
"bX c #E2D1C1",
"nX c #E4D8CC",
"mX c #FBDCC2",
"MX c #FCE3CF",
"NX c #E6E6DA",
"BX c #E4E2D6",
"VX c #FCE9D9",
"CX c #DADCE6",
"ZX c #D4D4EB",
"AX c #CACEE6",
"SX c #DDE3E6",
"DX c #E1E1E2",
"FX c #EBECE4",
"GX c #E6E6E7",
"HX c #FDEEE0",
"JX c #FEF4EB",
"KX c #FDF0E4",
"LX c #FEF7F1",
"PX c #FEFAF7",
"IX c #FFFFFF",
"UX c #FDFCFA",
/* pixels */
"IXIXUXVX1X_ Y T T T T T T T T T T T T T T T T Y ) +XMXPXIXIX",
"IXJX+XO.1.:X<X<X<X<X<X<X<X<X<X<X<X<X<X<X<X<X<X<X,X<.+.1.HXIX",
"UXoX:.,X:X;X;X;X;X;X;X;X;X;X;X;X;X;X;X;X;X;X;X-X;X;X,X<.O.LX",
"MXO.-XXXXXXXXXXXXXXXXXXXXXXXXXXXXXXXXXXX<.,.<.:X+XXXXXXX%.wX",
"oX@.,.,.,.,.,.,.,.,.,.,.,.,.,.,.,.,.,.XXOX9X0XbXkX>X,.,.;.` ",
"E $.-.-.-.-.-.;.;.;.$.-.;.;.-.-.$.#.=.%XkXzXjX'.'.@X;.-.;.T ",
"Y $.$.#.%.$.#.#.o.o.>.=.o.o.+.:..X2X|.T.zXR.Y.| { &.$.#.$.Y ",
"Y +.+.+.+.@.>.@X9X0XbXbX@X X8X4X$XF.S.U.zXE.^.2X#.O.+.o.#.Y ",
"Y o.o.o.O.O. XR.!.`.T.).xX/.5 - ; @ $ R.hXQ._._.@X+.O.O.o.Y ",
"Y X.X.X.X....X#XL.P.P.S.zX4 O . .   @ _.`.2 H.(.*X=._ X.X.Y ",
"Y _ _ _ _ &.$X/.Q.E._.J.zX<   @ @ X # Z.A.% ; jX6X .` _ _ Y ",
"Y ` ` ) X.].x.R.Q.E.- 4 cX, o o + = = m.b.& 7 lX7X .) ` ` Y ",
"Y ^ ^ ^ ..].3 7 R.gX1 4 cX, k.n.n.M.N.l.* 7 L.gX7X} / ^ ( Y ",
"Y Q Q ! _ ].5 , E.DXR.3 '.C.B.M.M.N.V.v.S.K.J.gX6X~ / Q Q Y ",
"Y ! W I ` [ 5 , Q.DXR.2 L.T.K.c.c.z.K.J.J.K.K.gX6XF ! W W Y ",
"M I I L Q [ 5 , W.DXR.2 L.L.H.F.H.J.H.K.J.K.i.yXqXF U I I M ",
"Y L L K W [ 6 < W.ZXp.> U.L.S.7 ~.`.U.K.G.i.9.yXqXD K L L Y ",
"M K K H W C 6 < W.CXe.3.Y.~.D.D._.fXrX6.y.0.q.iXqXD H K H N ",
"R G G b P C 5 , W.CXr.2.B Y.I.4 Q.rXh.9.0.9.t.AX&XD b G G Y ",
"M b b b L V 5 , !.FXf.7.5.4.4.2 ~.rXd.0.9.q.yXNX*XS b G b M ",
"M c c c H V 6 , !.FXtXe.9.8.8.8 =X5Xt.9.r.uXFXSX&XS n v c M ",
"M c c l G V 6 , W.GXNXsXd.e.w.u.i.h.t.j.dXxX&X%X{ v z c z M ",
"M l l j Z V 4 , E.GXzXNXBXaXpXg.s.a.eX3X{.{ Z k s z l l l N ",
"M g g g l ] G.: W.GXSXCXCXnX|.}.| P A d i p s j h g g g h M ",
"R p p p a x [.7 ~.nX#X| ' S d f r t t p g p h p p p p p a m ",
"*.s u u u y x ] ] Z f i 9 y u u u a a u u u u u u u u u u E ",
"mXb e t t t w p a 0 y t u u t t t t t t t t t t t t t t s OX",
"PX..y w w w e w w e e w w w w w w w w w w w w w w w w w U JX",
"IXKXI s w q q q q q q q q q q q q q q q q q q q q w u J VXIX",
"IXIXLX>XR m m m m m m m m m m m m m m m m m m m m R >.JXIXIX"
};
