/* XPM */
static char *FB_PozoFecal_SC_R[] = {
/* columns rows colors chars-per-pixel */
"30 30 256 2 ",
"   c #14191C",
".  c #1C1C1A",
"X  c #161614",
"o  c #1F201E",
"O  c #39281E",
"+  c #282827",
"@  c #292725",
"#  c #362E28",
"$  c #3A3634",
"%  c #763300",
"&  c #7B3500",
"*  c #7B3D02",
"=  c #73410C",
"-  c #634230",
";  c #7A4E33",
":  c #695138",
">  c #5A4E47",
",  c #4F5351",
"<  c #58585B",
"1  c #464649",
"2  c #635242",
"3  c #715B45",
"4  c #665D53",
"5  c #6F6254",
"6  c #62605B",
"7  c #676765",
"8  c #656563",
"9  c #686663",
"0  c #696765",
"q  c #6D6966",
"w  c #6A6B6A",
"e  c #676868",
"r  c #706F6F",
"t  c #6E6E73",
"y  c #747476",
"u  c #737379",
"i  c #74747A",
"p  c #73747A",
"a  c #7B7B7B",
"s  c #77787C",
"d  c #824203",
"f  c #86490C",
"g  c #8D541C",
"h  c #8A5725",
"j  c #925D28",
"k  c #8D593A",
"l  c #966534",
"z  c #A4613A",
"x  c #8B6947",
"c  c #8A755F",
"v  c #997A5B",
"b  c #AB6841",
"n  c #B66E45",
"m  c #A57A4E",
"M  c #A47E57",
"N  c #807F7C",
"B  c #C87748",
"V  c #D47D4B",
"C  c #C87D52",
"Z  c #FFCB00",
"A  c #FFCC01",
"S  c #FFCE06",
"D  c #FFCE09",
"F  c #FFCF0C",
"G  c #FFD00C",
"H  c #FFD10B",
"J  c #F8CF1F",
"K  c #FED112",
"L  c #FED214",
"P  c #FFD514",
"I  c #FED219",
"U  c #FED41A",
"Y  c #FED51D",
"T  c #F7CE21",
"R  c #FED621",
"E  c #FED626",
"W  c #F8D126",
"Q  c #FFD926",
"!  c #FFD929",
"~  c #FFDA2E",
"^  c #FFD62F",
"/  c #FDD633",
"(  c #FFDE35",
")  c #FDDC32",
"_  c #FEDF3A",
"`  c #FCDB38",
"'  c #F7D538",
"]  c #FFE03A",
"[  c #FFE23F",
"{  c #9B897F",
"}  c #A8866A",
"|  c #BB9860",
" . c #AD8B78",
".. c #B78E78",
"X. c #B0937A",
"o. c #C4815C",
"O. c #D69B7A",
"+. c #CABE7B",
"@. c #CABC73",
"#. c #FDDA45",
"$. c #F7DC4C",
"%. c #F7D742",
"&. c #F5DE5C",
"*. c #F8DA57",
"=. c #FEE345",
"-. c #FFE343",
";. c #FEE54A",
":. c #FEE54C",
">. c #FEE454",
",. c #FFE954",
"<. c #FFEA5B",
"1. c #DEC96C",
"2. c #F1D967",
"3. c #EDD775",
"4. c #FFE263",
"5. c #FEED62",
"6. c #FFEE66",
"7. c #FFEB60",
"8. c #FFE26B",
"9. c #FEEE69",
"0. c #F3E369",
"q. c #FFF16D",
"w. c #FFF167",
"e. c #F9E774",
"r. c #FDF276",
"t. c #FFF474",
"y. c #FFF57D",
"u. c #FFF67A",
"i. c #FEF87F",
"p. c #7B7C86",
"a. c #838383",
"s. c #8C8C8C",
"d. c #82878C",
"f. c #958F8B",
"g. c #90908E",
"h. c #929292",
"j. c #939495",
"k. c #959595",
"l. c #949493",
"z. c #9A9A99",
"x. c gray62",
"c. c #878992",
"v. c #A19F9E",
"b. c #BDA58E",
"n. c #A1A19F",
"m. c #BEAA9B",
"M. c #B0B09F",
"N. c #9E9FA2",
"B. c #9DA1A3",
"V. c #A2A1A1",
"C. c #A7A6A6",
"Z. c #A5A6A4",
"A. c #ABAAAA",
"S. c #ADADAD",
"D. c #ACACAC",
"F. c #A1A3AD",
"G. c #B0AEAB",
"H. c #B5B5AE",
"J. c #ACACB1",
"K. c #B2B2B2",
"L. c #B3B4B7",
"P. c #BDBCBB",
"I. c #BCBCB4",
"U. c #D1BC8E",
"Y. c #C0AEA2",
"T. c #C7BBB4",
"R. c #C6B9AA",
"E. c #CAC184",
"W. c #CCC88A",
"Q. c #DCCC86",
"!. c #CDC792",
"~. c #DBD39A",
"^. c #E3D38F",
"/. c #F2DE81",
"(. c #E8DA99",
"). c #FFEF83",
"_. c #FAE984",
"`. c #FEF682",
"'. c #FFF280",
"]. c #FEF987",
"[. c #FEFA8E",
"{. c #FEFA8B",
"}. c #E9E696",
"|. c #FFEB9A",
" X c #FCF393",
".X c #FDFB91",
"XX c #FFFE96",
"oX c #FCFB92",
"OX c #F4F39B",
"+X c #FBF49B",
"@X c #FEFE9A",
"#X c #FFFF9E",
"$X c #FDFB9B",
"%X c #C2C1AD",
"&X c #CBC8AB",
"*X c #D9D3A8",
"=X c #C8C4B8",
"-X c #DDDABA",
";X c #D8D6B6",
":X c #E0D5AB",
">X c #E7DAA3",
",X c #E2DEBB",
"<X c #E1D9B4",
"1X c #E9E7A9",
"2X c #F7EBAC",
"3X c #F7F6A2",
"4X c #FFFFA0",
"5X c #FEFEA6",
"6X c #FEFEA8",
"7X c #FEFEAD",
"8X c #E3E1B5",
"9X c #F4F3B3",
"0X c #FFFFB0",
"qX c #FEFEB7",
"wX c #FCFAB4",
"eX c #F3F3BD",
"rX c #FEFEBA",
"tX c #FEFFBC",
"yX c #AFB9C2",
"uX c #BFBFC6",
"iX c #C1C1C2",
"pX c #C5C6CB",
"aX c #CBCBCC",
"sX c #D1C8C3",
"dX c #DDDDCD",
"fX c #CECED4",
"gX c #D4CFD1",
"hX c #D5D5D5",
"jX c #DADAD7",
"kX c #DDDDDD",
"lX c #D8D6D1",
"zX c #E1DECE",
"xX c #E1DDDA",
"cX c #E0DAD4",
"vX c #E1E1CC",
"bX c #EBE7C9",
"nX c #F2F1C2",
"mX c #FFF2C2",
"MX c #FEFFC6",
"NX c #FFFFCB",
"BX c #FFFFCD",
"VX c #FFF5CE",
"CX c #E2E2D8",
"ZX c #FFF6D4",
"AX c #FFF7DB",
"SX c #D9DBE2",
"DX c #DBDEEC",
"FX c #DFE2E6",
"GX c #E2E3E2",
"HX c #E9EBEC",
"JX c #E8E8E7",
"KX c #FFF9E3",
"LX c #FFFAEA",
"PX c #E0E5F0",
"IX c #FFFCF4",
"UX c #FFFFFF",
/* pixels */
"UXUXIXZX_./ F F F F F F F F F F F F F F F F F F E 8.mXIXUXUX",
"UXLX8.>.).wXBXNXNXNXNXNXNXNXNXNXNXNXNXNXNXNXNXBXrX X4.*.ZXUX",
"IX4.).MXtXrXqXqXqXqXqXqXqXqXqXqXqXqXqXqXqXrXqXqXqXtXMX+X#.LX",
"mX>.tX7X7X0X0X0X0X0X0X0X0X0X0X0X0X0X0X7X7X7X7XwXwX7X7XrXe.|.",
"4.'.5X5X6X6X6X6X6X6X6X6X6X6X6X6X6X6X6X7X9XeXnXvXdX9X5X5X$X^ ",
"I XX#X#X#X#X4X4X4X4X#X#X4X4X4X#X@X@XOX;XdXfXuXI.L.8X4X#X5XF ",
"S @XXXXXXXXXXXXXoXoX3XOX.X.XoX$X3X9X*XN.hXV.M.~.W.}.@XXX#XD ",
"D [..X[.[.[.OX1XeXnXvXbX1X1X8X-X%Xg.s.n.jXD.H.9XXX[..X[.XXD ",
"S {.{.].].].}.Z.A.P.N.J.jXH.y , 1 + $ V.aXS.K.K.1X{.].].[.S ",
"S `.`.`.`.`.+X&Xz.z.z.s.hXy o X X . # K.P.0 l.J.&X Xy.`.].D ",
"S y.y.y.y.}.%XI.S.D.K.l.hX8 . @ @   # O...O , iX;X_.u.y.`.S ",
"S r.r.r.i.!.p.B.S.A.< y kX7     @ - - n z $ a aX,Xe.t.r.y.S ",
"S q.q.q.u.W.t N C.aXw y kX7 ; b n B B k > s z.pX-Xe.q.q.r.S ",
"S 9.9.6.t.W.u 0 A.GXV.r L.X.C V V C o.{ s.l.l.pX-X0.w.9.q.S ",
"S 5.5.7.q.E.u 7 S.GXZ.e z.v.l. . .f.h.l.k.l.l.pX<X0.5.5.6.S ",
"S <.<.<.6.E.u 9 D.GXV.e z.x.h.h.h.k.h.h.j.h.x m.,X&.<.<.7.S ",
"A ,.,.,.<.E.i 9 S.cXv 4 N.x.s.a C.P.N.j.g.x d m.8X&.,.,.<.S ",
"S :.:.:.,.+.u 9 S.xXj 2 B.Z.a.a.K.iXP.c h * f Y.,X*.;.:.>.S ",
"A ;.=.=.,.+.i 7 S.xXj : d.B.j.y S.iX} & d & l gX:X$.=.=.;.A ",
"A -.-.[ :.+.u 9 A.JXM * 3 5 5 e C.P.M * * f b.FX*X$.[ -.-.A ",
"A ] _ _ =.@.p 0 A.HX=Xj % * * q yX=Xl % j b.PXDX:X%.] _ [ A ",
"A ( ( ) [ @.i 0 D.JXFXR.M g g = x } l X.sXzX:X>X2.` ( ( ( A ",
"A ~ ~ ! ] @.u q A.JXlXGXCXT.T.} m | U.1X/.&.' / Q ~ ~ ~ ~ A ",
"A Q E E ! 1.c.6 G.JXSXSXSXvX(.^.3.>.#.W U R Q Q ! Q Q E ! A ",
"D R R R Y / Q.s F.bX~.3.*.%.T J I P U R R R R R R R R Y R Z ",
"#.L U I U L ~ 1.1./ W I H P U U U Y Y U U U U U U U I U I L ",
"2XL K L L L K Y U H K K L L L L L L L L L L L L L L L L K 8.",
"IX/ S G F G G D D G G G G G G G G G G G G G G G G F G D L KX",
"UXAXI D S S S S S S S S S S S S S S S S S S S S S S S F VXUX",
"UXUXLXe.D Z Z Z Z Z Z Z Z Z Z Z Z Z Z Z Z Z Z Z Z S *.KXUXUX"
};
