/* XPM */
static char *FB_PozosFecales_A_R[] = {
/* columns rows colors chars-per-pixel */
"30 30 256 2 ",
"   c #141416",
".  c #13181C",
"X  c #181B1C",
"o  c #272424",
"O  c #3D3C3A",
"+  c #783600",
"@  c #4A372D",
"#  c #78430E",
"$  c #7F4C1C",
"%  c #5F402E",
"&  c #59453B",
"*  c #6C4723",
"=  c #7F5225",
"-  c #624432",
";  c #6E5033",
":  c #7D583E",
">  c #464545",
",  c #504E4A",
"<  c #5B5755",
"1  c #69584E",
"2  c #725C45",
"3  c #766759",
"4  c #686768",
"5  c #706F6F",
"6  c #766B65",
"7  c #70706F",
"8  c #717070",
"9  c #777676",
"0  c #7C7A77",
"q  c #7A7A7A",
"w  c #7F7F7F",
"e  c #7C7D7D",
"r  c #834A13",
"t  c #8E5823",
"y  c #925D2A",
"u  c #825337",
"i  c #955D3F",
"p  c #986A3E",
"a  c #A5613C",
"s  c #976D44",
"d  c #956F48",
"f  c #8F6C57",
"g  c #976B52",
"h  c #887055",
"j  c #957351",
"k  c #BB7045",
"l  c #A37E59",
"z  c #AB7352",
"x  c #BC7E5B",
"c  c #A7714A",
"v  c #8A7A6E",
"b  c #857E78",
"n  c #CA794A",
"m  c #CD7E51",
"M  c #80807F",
"N  c #98867A",
"B  c #A58768",
"V  c #B98669",
"C  c #A68978",
"Z  c #B89571",
"A  c #CB9476",
"S  c #2F619B",
"D  c #30619B",
"F  c #32629D",
"G  c #34649E",
"H  c #33649E",
"J  c #3C699F",
"K  c #3667A1",
"L  c #3867A1",
"P  c #3868A1",
"I  c #3D6BA4",
"U  c #3E6CA5",
"Y  c #3B6BA4",
"T  c #3E6EA8",
"R  c #7D7E80",
"E  c #416FA7",
"W  c #416FA8",
"Q  c #4573AA",
"!  c #4774AC",
"~  c #4976AE",
"^  c #4A78AF",
"/  c #4973A6",
"(  c #517BAF",
")  c #4E7BB1",
"_  c #4D7CB3",
"`  c #497DB9",
"'  c #4C7FBB",
"]  c #4C7EBC",
"[  c #4A7EBB",
"{  c #517EB3",
"}  c #517EB4",
"|  c #527FB9",
" . c #5D81AC",
".. c #4D80BB",
"X. c #4D80BC",
"o. c #4B80BC",
"O. c #5582B7",
"+. c #5082BD",
"@. c #5683BA",
"#. c #5A86BA",
"$. c #5F89BD",
"%. c #5882B3",
"&. c #6283AD",
"*. c #738EAF",
"=. c #7790AF",
"-. c #6B8FBB",
";. c #688DBA",
":. c #6C91BD",
">. c #7492B6",
",. c #7A93B2",
"<. c #7595BD",
"1. c #7D9ABD",
"2. c #5A8AC2",
"3. c #628CC0",
"4. c #638EC3",
"5. c #6791C5",
"6. c #6690C3",
"7. c #6A94C6",
"8. c #6C95CA",
"9. c #6F98CC",
"0. c #7D9DC5",
"q. c #719BCE",
"w. c #759DCD",
"e. c #789FCD",
"r. c #7798C2",
"t. c #769FD1",
"y. c #7EA5D6",
"u. c #7BA2D3",
"i. c #7BA3D5",
"p. c #818181",
"a. c #848584",
"s. c #8E8E8E",
"d. c #8B8B8B",
"f. c #868788",
"g. c #948F8B",
"h. c #9E9089",
"j. c #878D95",
"k. c #88909A",
"l. c #8C939C",
"z. c #8D9193",
"x. c #919192",
"c. c #959494",
"v. c #999795",
"b. c #92949A",
"n. c #9A9A9A",
"m. c #9F9E9E",
"M. c #979A9B",
"N. c #A49488",
"B. c #B39583",
"V. c #B99F85",
"C. c #A39B94",
"Z. c #A2A09E",
"A. c #ACA59E",
"S. c #BDAB9B",
"D. c #8B97A7",
"F. c #919AA6",
"G. c #9D9FA2",
"H. c #829CBC",
"J. c #8A9BB1",
"K. c #98A1AC",
"L. c #8CA3BF",
"P. c #9EACBE",
"I. c #9DA6B1",
"U. c #A1A2A2",
"Y. c #A5A5A5",
"T. c #A3A4A4",
"R. c #A9A7A6",
"E. c #A9AAAA",
"W. c #ADACAB",
"Q. c #B4ADA8",
"!. c #B9B2AA",
"~. c #A5ADB6",
"^. c #AAB3BD",
"/. c #B2B2B1",
"(. c #B5B6B6",
"). c #B3B4B5",
"_. c #B6B9BC",
"`. c #BDBCBD",
"'. c #BABBBB",
"]. c #B4B5B8",
"[. c #C7B19B",
"{. c #C2BEBB",
"}. c #C7BCB4",
"|. c #CFC5BA",
" X c #D2C5B8",
".X c #829FC4",
"XX c #83A3CC",
"oX c #89A4C7",
"OX c #9BAEC5",
"+X c #97AAC1",
"@X c #9FB3C9",
"#X c #81A6D3",
"$X c #82A9D6",
"%X c #8CADD4",
"&X c #82A9DA",
"*X c #85ABDA",
"=X c #86ADDC",
"-X c #88AFDE",
";X c #88AEDB",
":X c #89B0DE",
">X c #8EB0DA",
",X c #8FB0D6",
"<X c #93B2D6",
"1X c #9CB7D5",
"2X c #92B4DD",
"3X c #99B7DA",
"4X c #9FBCDF",
"5X c #A5B7CC",
"6X c #ABBBCE",
"7X c #AAB6C5",
"8X c #B7BDC4",
"9X c #A1B7D1",
"0X c #A5BDDA",
"qX c #8DB3E1",
"wX c #8EB4E0",
"eX c #92B6E2",
"rX c #95B7E0",
"tX c #96B9E3",
"yX c #9ABBE3",
"uX c #9FBEE2",
"iX c #9CBCE3",
"pX c #A1BFE3",
"aX c #A2BFE4",
"sX c #BEC1C3",
"dX c #BBC3CD",
"fX c #B6C0CB",
"gX c #AAC0DB",
"hX c #ADC0D7",
"jX c #B3C2D4",
"kX c #A7C3E5",
"lX c #A3C0E4",
"zX c #A9C3E3",
"xX c #ABC4E3",
"cX c #B6CBE5",
"vX c #B5CBE5",
"bX c #C4C3C3",
"nX c #C2C5C9",
"mX c #CCCBCB",
"MX c #CDC9C3",
"NX c #D5D0CA",
"BX c #CACFD5",
"VX c #CED0D4",
"CX c #D5D6D5",
"ZX c #E1E0DE",
"AX c #D2DEEE",
"SX c #C5D6E8",
"DX c #D5E1EE",
"FX c #DEE7F3",
"GX c #E3E4E4",
"HX c #E4EBF4",
"JX c #E9EFF6",
"KX c #EEF2F8",
"LX c #F7F9FC",
"PX c #FFFFFF",
"IX c #F9FBFD",
"UX c #F2F6FA",
/* pixels */
"PXPXIXFX0X7...+.+.+.+.+.+.+.+.+.+.+.+.+.+.+.+...4.<XAXLXPXPX",
"PXKX<Xe.,XzXcXvXcXcXcXcXcXcXcXcXcXcXcXcXcXcXvXcXxX3X#X#XHXPX",
"IX%X%XvXxXxXzXzXzXzXzXzXzXzXzXzXzXzXkXkXzXzXzXzXxXxXvX3Xw.UX",
"DXe.kXuXpXpXaXpXlXpXaXlXpXlXlXuXuXpXxXzXpXlXpXaXaXpXuXkX$XcX",
"%X*XyXyXyXyXiXiXyXiXiXyXyXtXrX0XhXjXdXfX4XyXyXyXyXyXyXyX2X5.",
"2.wXeXeXeXeXeXqXrX2XqXwXtXuXzX^.mX(.^.OXiXeXeXeXeXeXeXeXtX+.",
"] qXqXqXqX2X9XhXjXjXgX9XP.F.j.m.bXE.6X>X:XqXqXqXqXqXqXqXeXX.",
"X.-X-X:X=X2X^./.W./.sXp., O o M.'.U.].9X;X:X:X:X:X:X-X-X:XX.",
"..*X*X*X*X1X^.G.U.T.Y.>   . . B.N < /.6X$X=X*X&Xy.&X*X&X=Xo.",
"] $X$Xy.%XK.n.).p.s.E.> o @ - c : < '.6Xu.y.#X<X0X%Xy.y.&X' ",
"o.u.u.i.%Xl.9 (.n.a.R.f a k n g 6 s.'.5X.X6XdX8X].@X$Xu.y.X.",
"' u.t.t.XXl.7 (.bXR v.N.V V B.g.d.v.`.dX~.(.{.~.oXXXu.t.u...",
"] q.q.q.XXl.8 (.{.0 x.E./.bX`.nX(.Z.d.4 4 (.`.~.OXw.q.q.w.] ",
"' 9.9.9.0.k.8 (.V.3 b.W.T.U.m./.U.O o   > (.c.c._.oX8.9.q.] ",
"' 7.7.7.0.k.5 _.Z 2 G./.W.R.m.E.d.o X . & A & 4 nXoX5.7.8.' ",
"[ 6.6.4.r.k.5 _.[.= v f.n./.4 T.g.@ % u i i 1 x.nX.X3.6.5.[ ",
"[ 3.3.3.<.k.8 (.ZXl j 0 a.mXc.x.C.z m m x v p.T.sXH.$.3.3.[ ",
"[ $.$.$.<.k.5 ).GXNX!.e R mXY.q Z.h.C C g.c.x.C.`.1.#.$.;.[ ",
"[ #.#.@.-.D.q /.GXVXsXp.w mXN.q m.s.z.U.n.c.v d Q.0.O.#.#.[ ",
"` O.O.O.@.<.F.I.5XH.J.e p.MXs q Y.s.g.sXA.h $ y !.1.{ O.O.` ",
"[ } } } { { :.-.( ) ,.R b MXp 3 s.a.f.`.B + + l nX>.) } { [ ",
"` ) ) ) ) ) ~ ^ ) ) ,.R w VXV.# * ; j.'.s + p  XCX*.^ ) ) ` ",
"` ~ ~ ~ ~ ~ ~ ~ ~ ~ =.R M CXCXB t r : B c Z }.nXP. .! ~ ~ ` ",
"` Q Q Q Q Q Q Q Q Q =.e w CXGXCX|.S.B N b.L.>. ./ Q Q Q Q ` ",
"' W E E E E E E W U &.D.a.mXBX7X+X1.>.%.~ P P Y T E E E E ` ",
"e.T I I I I I I I Y U &.J.,.&./ J J L L P U U U I I I I Y @.",
"SX_ K P P P P P P P K P W P G K K P P P P P P P P P P P T <X",
"LX7.H H G G G G G G G H D H G G G G G G G G G G G G G F | KX",
"PXHX@.U D D D D D D D D D D D D D D D D D D D D S F K _ FXPX",
"PXPXUX3X..` ` ` ` ` ` ` ` ` ` ` ` ` ` ` ` ` ` ` ` ` XXJXPXPX"
};
