/* XPM */
static char *FB_PozosPluviales_SC[] = {
/* columns rows colors chars-per-pixel */
"30 30 256 2 ",
"   c #15140E",
".  c #1D1210",
"X  c #1A1A1B",
"o  c #20110E",
"O  c #1D302F",
"+  c #242527",
"@  c #393B41",
"#  c #1C4F50",
"$  c #1B5958",
"%  c #285D5B",
"&  c #136F70",
"*  c #177574",
"=  c #2D6C6A",
"-  c #3F7472",
";  c #444746",
":  c #4A5159",
">  c #586161",
",  c #5C7C7B",
"<  c #686867",
"1  c #6F6E72",
"2  c #706F73",
"3  c #76767C",
"4  c #7F7F7F",
"5  c #7A7A7C",
"6  c #7C7B77",
"7  c #FFCB00",
"8  c #FFCD00",
"9  c #FFCF05",
"0  c #F8CE00",
"q  c #FFCE0C",
"w  c #F5CD09",
"e  c #FED100",
"r  c #FED500",
"t  c #FBD101",
"y  c #FED900",
"u  c #FEDE00",
"i  c #FBDE00",
"p  c #FFD30F",
"a  c #FBD907",
"s  c #F4CE16",
"d  c #FFD112",
"f  c #FFD21C",
"g  c #FAD617",
"h  c #FEE100",
"j  c #FEE600",
"k  c #FCE102",
"l  c #FEE900",
"z  c #FEED00",
"x  c #F7EE0B",
"c  c #F6F203",
"v  c #FEF100",
"b  c #FEF500",
"n  c #FBF205",
"m  c #FEFA01",
"M  c #FEFE02",
"N  c #FFFD06",
"B  c #FBF50A",
"V  c #FFFE0A",
"C  c #FFFF0C",
"Z  c #FAFB0F",
"A  c #F4F70E",
"S  c #ECE41E",
"D  c #F6E01E",
"F  c #FDFE13",
"G  c #FFFE1E",
"H  c #FEFC1A",
"J  c #F9F419",
"K  c #EFD225",
"L  c #F3DD28",
"P  c #F9D728",
"I  c #EECF38",
"U  c #EBDC3D",
"Y  c #EED037",
"T  c #F8D332",
"R  c #EFE427",
"E  c #F0E326",
"W  c #FFE224",
"Q  c #F1EB25",
"!  c #FFED25",
"~  c #FCE22B",
"^  c #FEFE21",
"/  c #FEFE2E",
"(  c #FBFC2B",
")  c #EAE03A",
"_  c #F7EA37",
"`  c #FEFE31",
"'  c #FFFF3B",
"]  c #FCF536",
"[  c #858277",
"{  c #828177",
"}  c #81817F",
"|  c #959476",
" . c #A5A275",
".. c #A2A176",
"X. c #A8A774",
"o. c #B3AD7D",
"O. c #B7B378",
"+. c #CDBE74",
"@. c #DCC94D",
"#. c #DEDA40",
"$. c #DDC950",
"%. c #D8D75C",
"&. c #E4CE46",
"*. c #EADC41",
"=. c #E8D342",
"-. c #F1D645",
";. c #FFDD45",
":. c #EAD454",
">. c #FFDB54",
",. c #E5CD58",
"<. c #E9E84A",
"1. c #FEFE40",
"2. c #FDFE45",
"3. c #F7F748",
"4. c #FEFB4C",
"5. c #E9E855",
"6. c #FFE158",
"7. c #FFFF57",
"8. c #FEFF58",
"9. c #D0C368",
"0. c #CACA7C",
"q. c #DDDB7A",
"w. c #DEDC70",
"e. c #D3D268",
"r. c #E9D673",
"t. c #DDE064",
"y. c #DFE07A",
"u. c #E7E863",
"i. c #FFE362",
"p. c #FEE169",
"a. c #FFE479",
"s. c #2324B4",
"d. c #3C3CBC",
"f. c #3534A7",
"g. c #595A8F",
"h. c #595894",
"j. c #7D7D82",
"k. c #777782",
"l. c #4545A0",
"z. c #5555B9",
"x. c #7070A5",
"c. c #6C6CA9",
"v. c #2525D7",
"b. c #0D0DE0",
"n. c #1D1DE4",
"m. c #0000FA",
"M. c #1313F2",
"N. c #2827F9",
"B. c #3E3EF1",
"V. c #5252D8",
"C. c #726ED9",
"Z. c #4645E6",
"A. c #5959ED",
"S. c #4A4BFA",
"D. c #6667E6",
"F. c #6E70F8",
"G. c #7070FE",
"H. c #0C9E9E",
"J. c #1A9593",
"K. c #0FADAC",
"L. c #08BCBB",
"P. c #2BAFAE",
"I. c #38A4A3",
"U. c #619190",
"Y. c #51BFBE",
"T. c #67ACAB",
"R. c #79B2B1",
"E. c #7CA6A6",
"W. c #08CACA",
"Q. c #1FCBCB",
"!. c #24DEDD",
"~. c #3BD5D4",
"^. c #01E8E6",
"/. c #05F8F7",
"(. c #69C3C3",
"). c #45E9E8",
"_. c #848483",
"`. c #8E8F8E",
"'. c #8C8A8A",
"]. c #848587",
"[. c #96968C",
"{. c #938F91",
"}. c #889696",
"|. c #949594",
" X c #9E9F9E",
".X c #9A9A9A",
"XX c #979997",
"oX c #968C8A",
"OX c #A59F9E",
"+X c #A4A48F",
"@X c #A2A29E",
"#X c #B9B28F",
"$X c #9B9BA7",
"%X c #8B86B5",
"&X c #9E9FB8",
"*X c #85ADAE",
"=X c #9AA4A4",
"-X c #A4A3A2",
";X c #A4A9A9",
":X c #AAAAAA",
">X c #ACACA4",
",X c #B8B7A9",
"<X c #ACACB1",
"1X c #AEAEBC",
"2X c #AFB8B7",
"3X c #B6B6B2",
"4X c #B6B6B5",
"5X c #B2B2B3",
"6X c #BCBAB2",
"7X c #B5B6B9",
"8X c #BBBCBB",
"9X c #C0B98C",
"0X c #C0BABA",
"qX c #DCCD89",
"wX c #C3C296",
"eX c #DCD49C",
"rX c #D7D798",
"tX c #C7C68C",
"yX c #E9DD83",
"uX c #E0E081",
"iX c #FFEB95",
"pX c #C9C8A8",
"aX c #C1C2BE",
"sX c #CDCDB9",
"dX c #CAC9B3",
"fX c #DBD4B9",
"gX c #FEEEAF",
"hX c #9D9BDF",
"jX c #B8B7C9",
"kX c #A5A4D2",
"lX c #B8B6D9",
"zX c #8585EB",
"xX c #9B9BF1",
"cX c #B7B8E6",
"vX c #BFC5C5",
"bX c #CBCBCB",
"nX c #C8C7C6",
"mX c #D1CFC9",
"MX c #DBD8C7",
"NX c #C3C3D6",
"BX c #C9C9D9",
"VX c #D4D4D1",
"CX c #D3D2DE",
"ZX c #E0DDCE",
"AX c #FFF2C2",
"SX c #FFF5CE",
"DX c #E1E2DF",
"FX c #FFF6D4",
"GX c #FFF7DB",
"HX c #DBDBE2",
"JX c #E5E5E3",
"KX c #FFF9E3",
"LX c #FFFAEB",
"PX c #FFFCF5",
"IX c #FFFFFE",
"UX c #FFFDF9",
/* pixels */
"IXIXUXFXa.P 9 9 9 9 9 9 9 9 9 9 9 9 9 9 9 9 9 9 f i.AXPXIXIX",
"IXLXi.W ] 4.8.7.7.7.7.7.7.7.7.7.7.8.8.8.7.7.7.7.4.] ~ ;.FXIX",
"UX6.! 2.1.1.1.1.1.1.1.1.1.1.1.1.1.' ' ' 1.1.1.1.1.1.2.] P LX",
"AXW ` / / / ` ` ` ` / ` ` ` ` / ( ` 2.2./ ` / / / / / ` ! iX",
"6.J G G G G ^ ^ G G ^ ^ H H F <.u.uXpXrX] H G G G G G G H P ",
"d C C V C V M M F Z M M F ( 3.wXbX7X0.%.( N C C C C V V C 9 ",
"8 M M M M J <.u.y.q.<.5.9.X.|  XnX>Xt.A M M M M M M M M M 8 ",
"8 m m m m J tX1X<X1XaX_.: @ + XX6X-X,X5.m m m m N m m m M 8 ",
"8 m m m B <.wX@X@X-X-X;   . o (.T.: 5Xq.c m m m m m m m m 8 ",
"8 b b m Q O..X3X_.`.>X; O $ * W.J.> 8Xq.c n x _ 5.Q b b m 8 ",
"8 b b b Q ..3 4X.X_.;XI.W.^./.P., `.8Xw.S q.eXpX,Xt.B b b 8 ",
"8 v v v E  .1 3XaX} XXR.~.~.(.}.'.XX8XeX0.4XjX#X#.S n v b 8 ",
"8 v v v R  .2 4XjX3 |.:X2XvX0XnX7X$X'.< < 4X8X,X%.x v v v 8 ",
"8 z z z R  .1 3XzXh.[.:X-X-X X5X-X@ + X ; 2X|.|.pX) z z v 8 ",
"7 z z z E  .1 6XG.l.+X5X:X;X X:X'.+ X . % ).= < sX*.l z z 8 ",
"8 l l l E  .1 6XxXv.c.]..X<X< -X`.# & H.L.K.- {.sXU l l l 7 ",
"8 j j l L  .1 3XHXA.V.k._.nX|.{.*XQ././.!.U.} -XdX*.j l l 8 ",
"8 j j j L  .1 3XJXBXkXj.} bX-X5 =XE.Y.T.}.|.`.$XaX*.j j j 7 ",
"8 h h j D O.3 5XJXMXdX} 4 BX%X5  X'.oXOX.X[.x.Z.kX) k j j 8 ",
"7 h h h k U o.9XyX:.9.{ 4 NXZ.6 -X`.`.aX&Xz.n.N.jX*.i h h 8 ",
"8 h u u u u ~ L a u @.[ j.NXB.g.`.].'.8XD.m.m.A.mX=.i h h 7 ",
"7 u u u u u u u u u @.[ j.VXzXb.s.f.| 8XZ.m.B.cXZX&.u u u 8 ",
"7 y y y y y y y y y @.[ j.VXCXD.N.M.d.D.S.F.lXfXqXK y y y 7 ",
"7 y y r y y y r r r $.[ 4 VXDXHXcXhXC.%X#Xr.-.K s r y r y 7 ",
"9 r r r r r r r r r Y o.].mXMXeXr.:.-.g a t r r y r r r r 7 ",
";.e r e r r r r e r t Y +.,.I s w 0 t e e r r r r r e r e d ",
"gXp e e e e e e e e e e p e e e e e e e e e e e e e e e e p.",
"PXT 8 e 8 e e e e e e e 8 e e e e e e e e e e e e 8 e 8 d KX",
"IXGXf 9 8 8 8 8 8 8 8 8 8 8 8 8 8 8 8 8 8 8 8 8 8 8 8 q SXIX",
"IXIXLXa.q 7 7 7 7 7 7 7 7 7 7 7 7 7 7 7 7 7 7 7 7 9 >.KXIXIX"
};
