/* XPM */
static char *FB_PozosFecales_N_R[] = {
/* columns rows colors chars-per-pixel */
"30 30 208 2 ",
"   c gray7",
".  c #12171A",
"X  c #161618",
"o  c #1F1F1E",
"O  c #212122",
"+  c #252424",
"@  c #2B2421",
"#  c #2A2928",
"$  c #3A3A39",
"%  c #3E3E3E",
"&  c #753100",
"*  c #793600",
"=  c #7B3B01",
"-  c #47352C",
";  c #4C382D",
":  c #78430C",
">  c #7F4C1C",
",  c #5F402F",
"<  c #524036",
"1  c #5F4A3E",
"2  c #6C4722",
"3  c #7F5224",
"4  c #624331",
"5  c #6E5033",
"6  c #7E553D",
"7  c #7C5B3C",
"8  c #444343",
"9  c #464645",
"0  c #504F4F",
"q  c #565250",
"w  c #5A5A5A",
"e  c #5F5C5A",
"r  c #5E5E5E",
"t  c #69584D",
"y  c #725C44",
"u  c #62615F",
"i  c #766759",
"p  c #626262",
"a  c #646261",
"s  c #666463",
"d  c #656565",
"f  c #696969",
"g  c #6D6D6D",
"h  c #766B65",
"j  c #706F6F",
"k  c #71706F",
"l  c #717171",
"z  c #747472",
"x  c #767676",
"c  c #7A7977",
"v  c #7D7B77",
"b  c #7A7A7A",
"n  c #7E7B79",
"m  c #7F7D7A",
"M  c #7A7C7D",
"N  c #7E7E7E",
"B  c #834A12",
"V  c #8F5822",
"C  c #915D2A",
"Z  c #825337",
"A  c #905B3E",
"S  c #9B5E3C",
"D  c #97693B",
"F  c #996B3E",
"G  c #A5613B",
"H  c #976D44",
"J  c #986C41",
"K  c #956F49",
"L  c #8F6C57",
"P  c #976B52",
"I  c #887055",
"U  c #957351",
"Y  c #A76946",
"T  c #BC7045",
"R  c #AB7352",
"E  c #A37A50",
"W  c #A37E59",
"Q  c #A47E59",
"!  c #BC7E5B",
"~  c #88786F",
"^  c #8C7B6C",
"/  c #8B7D6F",
"(  c #807F7F",
")  c #C67547",
"_  c #CE7C4D",
"`  c #CD7E51",
"'  c #9C846B",
"]  c #9D8679",
"[  c #A38465",
"{  c #A88561",
"}  c #A38669",
"|  c #A88B6D",
" . c #BA8567",
".. c #B8866A",
"X. c #B7946F",
"o. c #AB8772",
"O. c #A18A7E",
"+. c #B59775",
"@. c #CB9476",
"#. c #7F7F80",
"$. c #818181",
"%. c #838384",
"&. c #838485",
"*. c #858585",
"=. c #888887",
"-. c #8D8884",
";. c #868788",
":. c #898A89",
">. c #8C8B8B",
",. c #8D8C8B",
"<. c #8B8B8C",
"1. c #8E8E8E",
"2. c #978E8A",
"3. c #918F8D",
"4. c #9E9082",
"5. c #9E9089",
"6. c #848B91",
"7. c #8D9193",
"8. c #919191",
"9. c #949393",
"0. c #979593",
"q. c #929395",
"w. c #969696",
"e. c #999695",
"r. c #999897",
"t. c #93979B",
"y. c #969798",
"u. c #979A9A",
"i. c #9A9A9A",
"p. c #9D9B9B",
"a. c #9D9C9B",
"s. c #9E9E9E",
"d. c #A09387",
"f. c #A89589",
"g. c #B39381",
"h. c #B49785",
"j. c #B99E83",
"k. c #BA9F87",
"l. c #A69A91",
"z. c #A09C98",
"x. c #A1A09F",
"c. c #ACA59E",
"v. c #BBAB9A",
"b. c #BEAB98",
"n. c #9F9FA0",
"m. c #9A9FA4",
"M. c #A2A2A2",
"N. c #A4A3A3",
"B. c #A3A4A4",
"V. c #A5A5A5",
"C. c #A8A7A6",
"Z. c #ACA8A4",
"A. c #A9A9A9",
"S. c #ABACAB",
"D. c #ACACAB",
"F. c #ADADAD",
"G. c #B0AFAF",
"H. c #BBB1A6",
"J. c #BFB3A6",
"K. c #B1B1AF",
"L. c #AFAFB0",
"P. c #B2B2B2",
"I. c #B4B3B2",
"U. c #B6B4B3",
"Y. c #B5B5B5",
"T. c #B8B4B2",
"R. c #B8B8B7",
"E. c #B6B9BB",
"W. c #BABABA",
"Q. c #BDBCBB",
"!. c #BEBEBE",
"~. c #C7B19A",
"^. c #C0BBB6",
"/. c #C8BCB1",
"(. c #C2BEBB",
"). c #C0BFBF",
"_. c #C2C0BF",
"`. c #CEC4BA",
"'. c #D0C5BB",
"]. c #C0C0C0",
"[. c #C4C3C2",
"{. c #C6C4C3",
"}. c #C6C6C6",
"|. c #CAC6C2",
" X c #CCC6C1",
".X c #CECAC6",
"XX c #C9C9C9",
"oX c #CECBC9",
"OX c #CECECD",
"+X c #D5D0CB",
"@X c #D0D0CF",
"#X c #D3D2D2",
"$X c #D3D4D3",
"%X c #D5D5D6",
"&X c #D9D5D2",
"*X c gray85",
"=X c #DDDCDB",
"-X c #DFDFDF",
";X c #E1E0DE",
":X c #E1E1E2",
">X c #E4E3E2",
",X c #E5E6E6",
"<X c #EAEAEA",
"1X c #EFEFEF",
"2X c gray95",
"3X c #F6F6F6",
"4X c #F9F9F9",
"5X c #FFFFFF",
/* pixels */
"5X5X4X:XF.x w p r r r r r r r r r r r r r r p r l s.%X3X5X5X",
"5X1Xp.%.p.I.].!.!.!.!.!.!.!.!.!.!.!.!.!.!.!.!.].Y.N.:.1.>X5X",
"4Xw.i.!.Y.Y.U.Y.Y.Y.Y.Y.Y.Y.Y.Y.Y.U.I.I.Y.Y.Y.Y.Y.Y.Q.V.$.2X",
"*X*.Y.F.P.P.P.P.P.P.P.P.P.P.P.P.F.P.W.Y.P.P.P.P.P.P.F.Y.9.Q.",
"w.i.F.D.F.F.F.F.F.F.F.F.S.S.A.P.R.!.].Q.K.F.F.F.F.F.D.D.V.x ",
"f B.A.A.A.A.V.V.A.V.B.V.A.I.W.I.XXY.F.A.L.V.A.A.A.A.A.A.S.r ",
"w V.V.V.B.V.F.W.Q.Q.Y.F.A.w.<.s.{.A.I.N.B.V.V.V.V.V.V.B.A.r ",
"r M.M.M.n.V.P.P.D.U.].$.0 $ # u.W.N.U.F.M.M.M.M.N.M.M.M.B.r ",
"w s.s.s.s.F.P.M.M.N.V.9   X . g.] q I.U.i.s.s.p.i.a.s.s.M.r ",
"r i.i.i.x.s.i.Y.$.1.S.9 @ ; 4 Y 6 e Q.Y.w.i.p.A.Y.N.i.i.s.r ",
"r w.w.w.s.8.x Y.r.%.C.L G T ) P h 1.W.K.w.Y.].Q.I.F.i.w.i.r ",
"w 9.9.9.a.8.l Y.].#.e.f. ...h.2.<.w.Q._.S.Y.!.C.p.e.w.9.w.w ",
"r 8.8.8.i.8.l Y.(.c 8.A.P.[.!.}.Y.x.>.d f Y.Q.F.C.8.8.8.9.r ",
"w 1.1.,.w.1.l Y.k.i t.D.B.B.s.P.M.% + X 8 T.0.9.W.a.>.1.8.r ",
"w :.:.:.9.1.k E.X.y m.I.S.C.s.A.>.O o . < @.1 f {.p.*.:.<.w ",
"w *.*.&.8.1.j E.~.3 ^ ;.p.G.s B.3.- , Z S A t 8.[.r.$.*.:.w ",
"w %.%.$.1.1.l Y.;XW U v &.XXw.8.l.R _ ` ! ~ $.B.).e.( %.&.w ",
"w $.$.N ,.1.g U.,X+XH.m #.OXB.b x.5.o.O.2.w.8.z.^.0.M $.$.w ",
"w N N b =.w.b P.>X@X].$.N oXd.b s.1.7.M.i.q./ K v.y.c N N w ",
"w b b b b 8.i.V.I.0.r.M $. XH b V.1.3.].c.I > C J.9.z b b w ",
"w x x x x x :.:.z z 1.N N .XF i 1.*.:.Q.| = * Q |.,.l x x w ",
"w z z l z z g l x z 1.N ( #Xj.: 2 5 6.W.J & D '.%X-.j z z w ",
"w l l g l l l l l g <.N $.%X&X{ V B 7 } E +./.{.Z.n g g l w ",
"w g g g g g g g g f 1.N N $X:X=X`.b.[ ' 4.x.1.v k g g g g w ",
"r f f f f f f f f d N 9.*.OXOXU.V.w.:.M l a p d f f f f f w ",
"*.p d s d d d d d d d ( w.3.( g s u u p p d d d d d s d p d ",
"XXd p p p p p p p p p p g p r p p p p p a p p p p p p p p s.",
"4Xb w r r r r r r r r r r r r r r r r r r r r r r r r r d 1X",
"5X,Xf r w r w r r r r r r r r r r r r r r r r r w r w p -X5X",
"5X5X2XN.p w w w w w w w w w w w w w w w w w w w w w 1.<X5X5X"
};
