/* XPM */
static char *FB_PozoFecal_FS[] = {
/* columns rows colors chars-per-pixel */
"30 30 256 2 ",
"   c #14191C",
".  c #1D1B1B",
"X  c #161313",
"o  c #39281E",
"O  c #252424",
"+  c #2D2927",
"@  c #362E28",
"#  c #373737",
"$  c #3D3531",
"%  c #752F00",
"&  c #7B3500",
"*  c #7A3A00",
"=  c #7C3D02",
"-  c #733806",
";  c #634230",
":  c #7A4E33",
">  c #695039",
",  c #474C4D",
"<  c #594E47",
"1  c #4E5051",
"2  c #5F5D5D",
"3  c #545D5D",
"4  c #635242",
"5  c #705B45",
"6  c #665D53",
"7  c #6E6154",
"8  c #666363",
"9  c #666565",
"0  c #636262",
"q  c #676868",
"w  c #6A6B6B",
"e  c #6C6966",
"r  c #70706F",
"t  c #747676",
"y  c #767A7B",
"u  c #767B7C",
"i  c #777C7C",
"p  c #797A7A",
"a  c #7D7C7C",
"s  c #9D221F",
"d  c #9E2723",
"f  c #9E2D2A",
"g  c #9E2C29",
"h  c #A12722",
"j  c #A22926",
"k  c #A12D2B",
"l  c #A12F2C",
"z  c #A52F2C",
"x  c #A42C2A",
"c  c #AD2F2C",
"v  c #AA2E2B",
"b  c #A2302D",
"n  c #A5312E",
"m  c #A3312B",
"M  c #AA312E",
"N  c #AD312E",
"B  c #B1312D",
"V  c #B5322F",
"C  c #A63330",
"Z  c #A43533",
"A  c #AE3330",
"S  c #AD3531",
"D  c #A93531",
"F  c #AA3D3A",
"G  c #A33936",
"H  c #B23431",
"J  c #B63532",
"K  c #B53431",
"L  c #BA3532",
"P  c #BD3734",
"I  c #BC3532",
"U  c #BE3936",
"Y  c #B93835",
"T  c #B23E3A",
"R  c #B63E3B",
"E  c #BA3F3C",
"W  c #C8312E",
"Q  c #C7332F",
"!  c #C63531",
"~  c #C13531",
"^  c #CB3633",
"/  c #C23A36",
"(  c #C63A36",
")  c #CA3936",
"_  c #CD3B37",
"`  c #C63B38",
"'  c #C73C39",
"]  c #C23B38",
"[  c #CB3B39",
"{  c #CB3D3A",
"}  c #CC3C39",
"|  c #CC3D3A",
" . c #83450A",
".. c #8A4F18",
"X. c #8E5624",
"o. c #855423",
"O. c #915B25",
"+. c #935F2D",
"@. c #8C583A",
"#. c #AD403C",
"$. c #B5413B",
"%. c #BA413E",
"&. c #966433",
"*. c #966836",
"=. c #A4623A",
"-. c #C3413F",
";. c #AB4846",
":. c #AD4F4B",
">. c #BC4643",
",. c #BB4946",
"<. c #BD4946",
"1. c #BC4C49",
"2. c #B24B49",
"3. c #BC514E",
"4. c #B75A58",
"5. c #896644",
"6. c #8E6C4B",
"7. c #8A745F",
"8. c #99795B",
"9. c #AB6841",
"0. c #B86F46",
"q. c #B46D44",
"w. c #A4784E",
"e. c #B8615E",
"r. c #A47E57",
"t. c #BC6461",
"y. c #BA6864",
"u. c #AE7D60",
"i. c #A67270",
"p. c #A97271",
"a. c #AE7573",
"s. c #B07574",
"d. c #BD7C7A",
"f. c #C54542",
"g. c #CB4644",
"h. c #C64945",
"j. c #C44F4C",
"k. c #CC4A47",
"l. c #C35653",
"z. c #CA5451",
"x. c #C65F5D",
"c. c #CD5B59",
"v. c #C45957",
"b. c #C87648",
"n. c #D47D4B",
"m. c #C8625F",
"M. c #C87D52",
"N. c #C76966",
"B. c #CF716F",
"V. c #CB7D7B",
"C. c #C97A79",
"Z. c #D47978",
"A. c #9B897F",
"S. c #AE8F67",
"D. c #A98A6C",
"F. c #AC8A76",
"G. c #AF8F7D",
"H. c #B78F78",
"J. c #B3987A",
"K. c #C4815C",
"L. c #D3807E",
"P. c #D69A7A",
"I. c #838383",
"U. c #82898B",
"Y. c #8C8B8C",
"T. c #958F8B",
"R. c #8B9192",
"E. c #929292",
"W. c #959392",
"Q. c #959595",
"!. c #929496",
"~. c #999797",
"^. c #9A9897",
"/. c #9B9C9C",
"(. c #BA8C8B",
"). c #A7908F",
"_. c #A19E9E",
"`. c #BB9998",
"'. c #BCA48E",
"]. c #A2A09F",
"[. c #9D9EA1",
"{. c #9DA1A5",
"}. c #A1A1A1",
"|. c #A7A6A6",
" X c #A3A3A4",
".X c #A4ABAB",
"XX c #ABAAAA",
"oX c #ADABAB",
"OX c #ADADAD",
"+X c #A9AEAE",
"@X c #B3A3A3",
"#X c #BCA4A3",
"$X c #B6ABAB",
"%X c #B2AFB0",
"&X c #AEB4B5",
"*X c #B2B2B2",
"=X c #B3B4B6",
"-X c #BDBDBB",
";X c #B7B7B6",
":X c #C18888",
">X c #C88785",
",X c #D48583",
"<X c #D58987",
"1X c #C0908F",
"2X c #C09C8F",
"3X c #D6908F",
"4X c #C59997",
"5X c #DB9C9B",
"6X c #D89694",
"7X c #C6A29F",
"8X c #C1B19C",
"9X c #CBA3A1",
"0X c #CDAAA7",
"qX c #CDABA9",
"wX c #D0A9AA",
"eX c #C4B7A6",
"rX c #C0BFBF",
"tX c #C9BDB1",
"yX c #D1B2B3",
"uX c #D5B5B4",
"iX c #D9B4B3",
"pX c #E3B2B1",
"aX c #CBC2B7",
"sX c #C0C0BF",
"dX c #D4C0BF",
"fX c #AFB9C2",
"gX c #C2C3C3",
"hX c #C6CDCD",
"jX c #CBCCCB",
"kX c #DCCDCC",
"lX c #D3CDC3",
"zX c #CCD1D0",
"xX c #D6D5D4",
"cX c #D9D3D3",
"vX c #DDDDDD",
"bX c #D2DDDD",
"nX c #EFD3D3",
"mX c #E1DDDA",
"MX c #E0D9D4",
"NX c #F3DDDD",
"BX c #EAC5C5",
"VX c #E1E0DF",
"CX c #F3E0DE",
"ZX c #DFDEE0",
"AX c #DEE2E2",
"SX c #E3E3E3",
"DX c #E9EAEB",
"FX c #E2E9EB",
"GX c #F5E4E3",
"HX c #F7E9E8",
"JX c #F9EEEE",
"KX c #E4EBF0",
"LX c #FBF3F3",
"PX c #FDF8F7",
"IX c #FEFEFE",
"UX c #FCFAFA",
/* pixels */
"IXIXUXCX5Xx.>.<.<.<.<.<.<.<.<.<.<.<.<.<.<.<.<.>.v.<XnXUXIXIX",
"IXJX<Xh.( [ _ _ _ _ _ _ _ _ _ _ _ _ _ _ _ _ _ _ } ( h.B.GXIX",
"UX,X( _ } } } } } } } } } } } } } } } } } | } ^ ^ } } ) m.LX",
"nXj._ { [ [ [ [ [ [ [ [ [ [ [ [ [ } [ ) ^ W ^ k.g.) [ } g.pX",
",X{ [ { { { { { { { { { { { { { { { { g.c.Z.,XuXyXc.^ { [ x.",
"l.{ { { { { { | | | ) ) | | { ) ^ W h.1XdXbXhX*X;XV.| [ { 1.",
"<.{ { [ { { ) ^ ! ! z.h.! Q ( g.c.Z.:X.XxX X).e.;.j.| [ [ <.",
"<.' ` ` ` ( l.>X3X6XuXiXV.N.3X9X#XY.Y._.cXOX@XL._ ! ' ' ` <.",
"<.` ` ` ` ( N.}.+X-X X&XcX$Xy 3 , O # }.jXOX*X%XC.-.( ` ( <.",
"<./ / ] / / N.`./.^.~.Y.xXt . X X . + *X-X9 W.&X#Xz.~ ] / <.",
"<./ / / / t.@X$XoXoX*XQ.xX0 . O O   @ P.H.o 1 gX0X<.~ ] / <.",
"<.U U I -.s.U.}.OXXX2 t vX9     + ; ; 0.=.$ p zXwX>.I U U <.",
"<.U U I f.a.t a |.jXw t vX9 : 9.q.b.b.@.< p ^.hXqX%.I U P <.",
"<.P P L -.a.y 9 XXSX}.r =XG.M.n.n.M.K.A.Y.E.W.hX0X%.I U L <.",
"<.Y Y K -.a.u 9 OXSX Xq /._.W.F.F.T.E.Q.Q.Q.W.hXqX$.I Y L <.",
"<.J J V %.p.y 8 oXVX].q /./.E.E.E.Q.E.E.!.E.5.8XyX$.V Y J <.",
"<.J J B E p.y 8 OXMX8.6 [./.Y.a |.-X[.!.T.5.= 8XyXT V J K <.",
"<.H H B E p.y 8 OXmXO.4 {.|.I.I.*XgX-X7.o.=  .eXyXT B H H ,.",
"<.H H N R p.u 8 OXmX+.> U.{.!.t OXsXD.&  .& &.xX0XT B H B <.",
"<.A A c R i.y 8 XXDXr.= 5 7 7 q |.-Xr.= *  .'.FX7X#.c A N <.",
"<.N N v T p.u 9 XXDXaXO.% * * e fXrX&.% X.'.KXKX0X#.c S N ,.",
"<.N N v T p.i 9 oXSXAXeXr.X...- 6.D.*.J.lXkXqX9Xy.S M A M <.",
",.M M x T i.t 9 XXSXcXSXZXtXaXS.w.u.2XwX>Xt.F D j M M M v <.",
"<.n n z C s.R.2 oXDXAXAXAXcX4X1Xd.4.:.m h j x n C n n n z <.",
"1.n l n x #.(.p .XkX7Xd.4.:.m m j h j z n n n n n n n n k ,.",
"C.C k l l j F s.a.;.G k s d k k l b b l l l l l l l l l k l.",
"BX2.g l l l g Z C d j k b b l l l l l l l l l l l l l k D 6X",
"PXN.k f f f f g g f f f f f f f f f f f f f f f f f g g 3.JX",
"IXGX4.F f f f f f f f f f f f f f f f f f f f f f f Z 1.NXIX",
"IXIXLX5X3.<.<.<.<.<.<.<.<.<.<.<.<.<.<.<.<.<.<.<.<.1.,XHXIXIX"
};
