/* XPM */
static char *FB_PozoPluvial_SC[] = {
/* columns rows colors chars-per-pixel */
"30 30 256 2 ",
"   c #1A1D1C",
".  c #161612",
"X  c #220F0E",
"o  c #211313",
"O  c #1F201D",
"+  c #1D302F",
"@  c #282827",
"#  c #252828",
"$  c #213B3B",
"%  c #373737",
"&  c #0F4443",
"*  c #2B4141",
"=  c #3D605F",
"-  c #127676",
";  c #46464E",
":  c #574E4A",
">  c #5F5F5F",
",  c #62605B",
"<  c #505060",
"1  c #535379",
"2  c #666663",
"3  c #676665",
"4  c #686763",
"5  c #686764",
"6  c #6A6866",
"7  c #6B6B6A",
"8  c #636B6B",
"9  c #6A6A77",
"0  c #6E7070",
"q  c #747476",
"w  c #73737D",
"e  c #74747D",
"r  c #74747D",
"t  c #7C7B79",
"y  c #77787D",
"u  c #807F7A",
"i  c #FFCB00",
"p  c #FFCD00",
"a  c #FFCF05",
"s  c #F2CD0B",
"d  c #FFCE0C",
"f  c #FED100",
"g  c #FED500",
"h  c #FBD301",
"j  c #FFD900",
"k  c #FEDE00",
"l  c #FFDA04",
"z  c #FFD30C",
"x  c #F8D70B",
"c  c #EFDA18",
"v  c #EEDC17",
"b  c #F7D010",
"n  c #FFD112",
"m  c #FED814",
"M  c #F3D41A",
"N  c #FFD21C",
"B  c #F2D918",
"V  c #FEE200",
"C  c #FEE600",
"Z  c #FFE900",
"A  c #FEED00",
"S  c #FFE30C",
"D  c #FFED0C",
"F  c #FFE90C",
"G  c #FEF100",
"H  c #FEF600",
"J  c #FEFA00",
"K  c #FEFE01",
"L  c #FCFB03",
"P  c #FFF30C",
"I  c #FEFE09",
"U  c #FFFF0D",
"Y  c #FDF90C",
"T  c #ECEC1F",
"R  c #F1E313",
"E  c #F3EB13",
"W  c #FEFE1E",
"Q  c #FEFD1A",
"!  c #F8F318",
"~  c #CECF26",
"^  c #D7D73F",
"/  c #FED622",
"(  c #FFD628",
")  c #F9D82B",
"_  c #F9D539",
"`  c #FFE225",
"'  c #FFED25",
"]  c #FFE42D",
"[  c #FEFE20",
"{  c #F4F32A",
"}  c #FFFF29",
"|  c #FFFE2E",
" . c #F9F521",
".. c #E9E23D",
"X. c #FFEF35",
"o. c #FBF435",
"O. c #FEFF32",
"+. c #FDFD3C",
"@. c #FEF23C",
"#. c #8C8C78",
"$. c #CABE5B",
"%. c #C7B95C",
"&. c #CBC35C",
"*. c #DFCA5A",
"=. c #EED74B",
"-. c #FFDD45",
";. c #EFDA5E",
":. c #FFDB54",
">. c #EBE942",
",. c #F6F645",
"<. c #FEFE41",
"1. c #FCFD45",
"2. c #FFFA4C",
"3. c #E8E65C",
"4. c #FFE158",
"5. c #FFFF57",
"6. c #FEFC50",
"7. c #FFFF58",
"8. c #F3F358",
"9. c #DEC861",
"0. c #DCCC7A",
"q. c #D5D572",
"w. c #F3DF68",
"e. c #E9D466",
"r. c #E3E365",
"t. c #FFE362",
"y. c #FEE169",
"u. c #F4F362",
"i. c #E3E176",
"p. c #FFE479",
"a. c #F2F17C",
"s. c #F1F073",
"d. c #38389B",
"f. c #434383",
"g. c #565586",
"h. c #464599",
"j. c #7B7C8F",
"k. c #6060B5",
"l. c #0303EF",
"z. c #0101F2",
"x. c #0000FD",
"c. c #0404FB",
"v. c #0D0CF7",
"b. c #1616F9",
"n. c #2424FB",
"m. c #2E2FFC",
"M. c #2928F4",
"N. c #3636F4",
"B. c #2424E5",
"V. c #100FCF",
"C. c #4848CC",
"Z. c #5C5CD5",
"A. c #5858ED",
"S. c #5858F1",
"D. c #5657FA",
"F. c #6969E8",
"G. c #7374F4",
"H. c #817CCB",
"J. c #0B9493",
"K. c #0CAAA9",
"L. c #7F9E9E",
"P. c #55BEBE",
"I. c #6EA6A5",
"U. c #60C0BF",
"Y. c #00C9C9",
"T. c #05D7D5",
"R. c #03E1E1",
"E. c #00FDFD",
"W. c #06F5F5",
"Q. c #14EAE9",
"!. c #20E9E9",
"~. c #45F5F4",
"^. c #54CDCC",
"/. c #838383",
"(. c #8C8D8B",
"). c #918F8E",
"_. c #96968D",
"`. c #8A8B96",
"'. c #959591",
"]. c #949495",
"[. c #929292",
"{. c #9A9A96",
"}. c #9C9B9B",
"|. c #AFB087",
" X c #A4A495",
".X c #A2A39C",
"XX c #9F9FAA",
"oX c #9EA1A2",
"OX c #A3A4A3",
"+X c #A3A4AC",
"@X c #ABABAB",
"#X c #ADADAA",
"$X c #AEAEAD",
"%X c #A9AAAE",
"&X c #B0AEAA",
"*X c #BBBAA6",
"=X c #B5B6AB",
"-X c #ACACB8",
";X c #B6AFBA",
":X c #B2B3B2",
">X c #B0B0B4",
",X c #BDBCBD",
"<X c #B5B3B7",
"1X c #D1D181",
"2X c #C1C196",
"3X c #C7C69B",
"4X c #DBCF95",
"5X c #DBDA99",
"6X c #CBC889",
"7X c #E3D68A",
"8X c #E3D999",
"9X c #E6E19E",
"0X c #FFEB95",
"qX c #F9EA86",
"wX c #DCD9A2",
"eX c #D9D2AA",
"rX c #DDDAA9",
"tX c #C1C1BF",
"yX c #D8D3AF",
"uX c #E1E1AC",
"iX c #E7E3A3",
"pX c #FEEEAF",
"aX c #9595DF",
"sX c #BBBBC3",
"dX c #B7B7DE",
"fX c #8A8BEC",
"gX c #999AEE",
"hX c #9394F2",
"jX c #ABACE9",
"kX c #B7B7E6",
"lX c #C0BFCE",
"zX c #C4C5CC",
"xX c #CBCCCC",
"cX c #C9CAD6",
"vX c #D6D5D5",
"bX c #DBDBD8",
"nX c #E0DDCA",
"mX c #E9E4C5",
"MX c #FFF2C2",
"NX c #FFF5CE",
"BX c #E4E5DC",
"VX c #E7E6D7",
"CX c #FFF6D4",
"ZX c #FFF7DB",
"AX c #D9DAE7",
"SX c #DBDCE3",
"DX c #D7D9EB",
"FX c #C9CAE9",
"GX c #E1E1E2",
"HX c #EAEAE5",
"JX c #E6E6E9",
"KX c #FFF9E3",
"LX c #FFFAEB",
"PX c #FFFCF5",
"IX c #FFFFFE",
"UX c #FFFDF9",
/* pixels */
"IXIXUXCXp.( a a a a a a a a a a a a a a a a a a N t.MXPXIXIX",
"IXLXt.` X.2.7.5.5.5.5.5.5.5.5.5.5.5.5.5.5.5.5.7.6.@.] -.CXIX",
"UX4.' 1.<.<.<.<.<.<.<.<.<.<.<.<.<.<.<.<.<.<.<.+.+.<.1.o.) LX",
"MX` O.| | | | | | | | | | | | | | O.O.} } [ } 1.+.| | O.' 0X",
"4.! W W W W W W W W [ [ W W W [ [ W W | ,.u.a.uXrX,.Q W Q / ",
"n U U I U U U U U U I I U U U I K K ! 1XyXcXlX=X<Xr.U I U a ",
"p K K K K K K K J J  .! K K L Y { 8.q.XXvXOX|.^ ~ T L K K p ",
"p J J J J K { r.s.a.uXiX3.>.i.5X2X).(..XvX%X=Xu.K K J J K p ",
"p J J J J J >..X%X,XXX-XbX*Xe < ; @ % OXxX$X>X:X3.Y J J J p ",
"p H H H H H o.6X}.{.{.(.vXq O . .   @ :X,X8 '.-X3X .H H J p ",
"p H H H H ..2X*X#X#X:X].vX2   # # X $ ~.^.& : zX5XE H H H p ",
"p G G G Y &.j.oX$X@X> q bX3 o o + - - R.Y.* t cX5XE H G H p ",
"p G G G P &.9 u OXxX7 q bX3 J.T.T.E.W.K.= t {.zXwXR G G G p ",
"p A A A P &.w 4 @XGXOX0 :XU.Q.E.E.W.!.I.(.[.'.zXwXR G A G p ",
"i A A A P &.e 2 $XGXOX6 }.oX].P.P.L.].].].'.'.zXwXR A A A p ",
"p Z Z Z D &.w 2 #XGXOX6 }.}.[.).[.'.[.[._.[.C.hX9Xv A Z Z i ",
"p Z C C D &.r 2 #XDXZ.1  X}.(.t OX,X.X_.`.C.x.gX9Xc Z C Z p ",
"p C C C F $.w 2 #XAXn.f. X+X/./.:XtXsXk.B.c.v.gXiXc Z C C i ",
"p C V V F $.e 3 $XAXm.d.#. X_.q $XsXF.x.c.x.N.FXwXB C V C p ",
"i V V V S $.w 4 @XHXA.l.h.g.g.6 OXsXS.c.x.v.aXBXeXB C V V p ",
"p V k k S $.w 4 %XHXdXn.x.z.z.9 2XtXN.x.M.fXHXDXeXB V k V i ",
"i k k k S $.e 5 #XJXVXjXS.n.b.V.C.F.m.G.kXnXeX8X=.x k k k p ",
"i j j j S %.q 6 @XHXvXVXVXjXjXD.D.H.;XqXw.=.M x j k j j j i ",
"i j g g l *.`., &XJXSXAXDXmX7X7X;.` / s h g j j l j j g j i ",
"a g g g g m 0.y +XmX4Xe._ ) s s h g g j g g g g g g g g g i ",
"-.f g f g f m 9.*./ b h f g g g g g g g g g g g g g f g f n ",
"pXz f f f f f z g f f f f f f f f f f f f f f f f f f f f y.",
"PX_ p f p f f p p f f f f f f f f f f f f f f f f p f p n KX",
"IXZXN a p p p p p p p p p p p p p p p p p p p p p p p d NXIX",
"IXIXLXp.d i i i i i i i i i i i i i i i i i i i i a :.KXIXIX"
};
