/* XPM */
static char *FB_PozoFecal_N[] = {
/* columns rows colors chars-per-pixel */
"30 30 189 2 ",
"   c gray7",
".  c #161616",
"X  c #11181B",
"o  c #161A1C",
"O  c #1A1818",
"+  c #1E1D1D",
"@  c #39281E",
"#  c #232222",
"$  c #252423",
"%  c #272727",
"&  c #2C2623",
"*  c #2E2D2C",
"=  c #362E28",
"-  c #373737",
";  c #3D3531",
":  c #742F00",
">  c #753200",
",  c #7B3500",
"<  c #7A3A00",
"1  c #7A3D01",
"2  c #7E3F01",
"3  c #7C3C06",
"4  c #703E0D",
"5  c #604130",
"6  c #664430",
"7  c #7A4E33",
"8  c #695038",
"9  c gray29",
"0  c #594E47",
"q  c #4D5051",
"w  c #565656",
"e  c #5A5957",
"r  c #5A5A5A",
"t  c #5C5B5B",
"y  c #5D5C5A",
"u  c #5D5D5D",
"i  c #635242",
"p  c #705B45",
"a  c #665D53",
"s  c #615F5C",
"d  c #6E6053",
"f  c #6D6255",
"g  c #62605E",
"h  c #616161",
"j  c #646363",
"k  c #656565",
"l  c #6A6766",
"z  c #6F6A66",
"x  c #676868",
"c  c #696A6A",
"v  c #6E6C69",
"b  c #6B6C6C",
"n  c #6E6E6E",
"m  c #706F6D",
"M  c #73706E",
"N  c #74716F",
"B  c #727272",
"V  c #757472",
"C  c #767675",
"Z  c #787674",
"A  c #797979",
"S  c #7E7E7E",
"D  c #824305",
"F  c #824509",
"G  c #85480F",
"H  c #895019",
"J  c #855423",
"K  c #8D5520",
"L  c #8D5828",
"P  c #915B25",
"I  c #935F2D",
"U  c #8C583A",
"Y  c #956433",
"T  c #966534",
"R  c #986634",
"E  c #A4623A",
"W  c #896745",
"Q  c #8E6C4B",
"!  c #8A755F",
"~  c #997A5B",
"^  c #AB6841",
"/  c #B46D44",
"(  c #B86F46",
")  c #A3784F",
"_  c #A37D57",
"`  c #A57F57",
"'  c #C57447",
"]  c #CB7849",
"[  c #D37D4B",
"{  c #D57D4B",
"}  c #C37C53",
"|  c #CD7E51",
" . c #9B897F",
".. c #A38669",
"X. c #A68768",
"o. c #AD8C6D",
"O. c #B28B64",
"+. c #AB8975",
"@. c #AC8A76",
"#. c #AF8F7D",
"$. c #B78F78",
"%. c #B59778",
"&. c #C4815C",
"*. c #D69B7A",
"=. c #7C7F82",
"-. c #818080",
";. c #868685",
":. c #898784",
">. c #82888C",
",. c #8A8A8A",
"<. c #8C8A88",
"1. c #8E8E8E",
"2. c #928F8C",
"3. c #998E89",
"4. c #929292",
"5. c #959391",
"6. c #909397",
"7. c #939495",
"8. c #959595",
"9. c #999796",
"0. c #999999",
"q. c #9E9F9F",
"w. c #A19F9E",
"e. c #BCA48D",
"r. c #BAA590",
"t. c #B3A699",
"y. c #9D9EA1",
"u. c #9BA0A5",
"i. c #9EA2A5",
"p. c #A2A2A2",
"a. c #A3A4A5",
"s. c #A7A6A6",
"d. c #A8A7A6",
"f. c #AAAAAA",
"g. c #ABADAD",
"h. c #ADADAD",
"j. c #B0AFAD",
"k. c #B7B2AE",
"l. c #B2B1B1",
"z. c #B6B4B2",
"x. c #B3B5B7",
"c. c gray71",
"v. c #BBB9B6",
"b. c #BCB8B4",
"n. c #B5B9BE",
"m. c #B9B9B9",
"M. c #BEBBB8",
"N. c #BEBDBA",
"B. c #BDBDBD",
"V. c #C4AE98",
"C. c #C4B09C",
"Z. c #C6B3A0",
"A. c #C6B9AA",
"S. c #CABEB1",
"D. c #CBC1B7",
"F. c #CFC1B4",
"G. c #C0C0BF",
"H. c #AFB9C2",
"J. c #BEBFC2",
"K. c #BFC0C2",
"L. c #C1C1C1",
"P. c #C6C6C5",
"I. c #CACACA",
"U. c #CACCCC",
"Y. c #CFCFCE",
"T. c #D5CCC1",
"R. c #DAD4CF",
"E. c #D3D3D3",
"W. c #D5D4D3",
"Q. c #D5D6D6",
"!. c #D9D9D9",
"~. c #DEDEDE",
"^. c #E0DAD4",
"/. c #E1DDDA",
"(. c #E1DFDF",
"). c #E1E0DE",
"_. c #DDE0E2",
"`. c #DFE2E5",
"'. c #E1E1E1",
"]. c #E6E6E6",
"[. c #E3E5E8",
"{. c #E6EAEE",
"}. c #E9E9E9",
"|. c #EAECEE",
" X c #EFEFEF",
".X c #F1F1F1",
"XX c #F6F6F6",
"oX c gray98",
"OX c #FFFFFF",
/* pixels */
"OXOXoX'.f.B r t t t t t t t t t t t t t t t t r b 8.Q.XXOXOX",
"OX X8.b n A -.S -.-.-.-.-.-.-.-.-.-.-.-.-.-.S -.S B n ;.].OX",
"oX4.n -.S S S S S S S S S S S S S S S S S S S A S S -.C C XX",
"!.B -.S S S S S S S S S S S S S S S S S A C A ,.;.S S -.B m.",
"7.V S S S S S S S S S S S S S S -.S S ;.1.p.f.L.L.4.S S A B ",
"k S S S S S S S -.-.S S -.-.S S A C -.s.I.!.I.c.m.p.-.S -.t ",
"r S S S S S S A A A ,.;.A A A -.1.p.p.s.Q.p.0.,.C ;.-.S S t ",
"t S S S S S ,.p.l.m.P.P.p.0.f.c.g.1.,.q.Q.h.f.d.-.A S S S t ",
"r A A A A A 4.p.f.B.p.l.Q.h.A r 9 % - p.Y.h.l.l.q.S A A S r ",
"r A A A A A 7.f.0.0.0.,.Q.C +   . O * l.B.l 4.l.l.,.C A A t ",
"r A A A A 1.f.l.h.f.l.7.Q.j + $ # X = *.$.@ q P.m.S C A A r ",
"r C C B S 4.;.p.h.f.u C ~.k o o & 5 6 ( E ; A Y.B.A V C C r ",
"r C C B S 1.B S s.I.n C ~.k 7 ^ / ] ' U 0 A 0.I.N.A B C C r ",
"r B B B S 1.A k f.'.p.m x.#.} { [ | &. .1.4.4.U.m.C B B V r ",
"r B B n A 1.A k h.'.a.c 0.w.5.@.+.3.4.7.8.7.4.U.M.V n B B r ",
"r n n b C 1.A j g.'.p.c 0.q.4.4.4.8.4.4.7.4.W V.J.N n n B r ",
"r n n b C ,.A j g.^.~ a y.q.1.S s.B.y.7.2.W 2 C.K.N b n n r ",
"r b b c V ,.A k g./.P i u.s.;.-.l.L.M.! J 2 F Z.K.M c b b r ",
"r b b c B ,.A k h./.I 8 >.i.6.C h.G.o., D , Y R.v.M c b b r ",
"r c c k B ,.A j f.}._ 1 p f d x s.N.` 3 < G r.[.k.m k c c r ",
"r k k j B ,.A k f.|.D.P > 1 < z H.L.T : L e.{.}.b.m k k k r ",
"r k k j n ,.A k g.].`.A.` K H 4 Q X.R %.T.E.v.z.<.l k k k r ",
"r j j h n ;.V k f.].W.`._.S.F.O.) ..t.n.q.:.v k u j j j j r ",
"r h h h j 1.1.u g.}.'.(.).Q.h.d.8.=.A g e u h h j j h h h r ",
"u h h h u n p.A f.E.j.9.-.Z g s y r t h j h h h h h h h h r ",
";.u u u u t b 1.1.B k u w r u u u h h g u u u u u u u u u k ",
"I.k u u u u t k h r t u u u u u u u u u u u u u u u u u t q.",
"oXA r t t t t r r u t t t t t t t t t t t t t t t t t r k  X",
"OX].c u r r r t t r r t t t t t t t t t t t t t t r r h ~.OX",
"OXOX.Xp.h r r r r r r r r r r r r r r r r r r r r t 1.}.OXOX"
};
