/* XPM */
static char *FB_PozoPluvial_N_R[] = {
/* columns rows colors chars-per-pixel */
"30 30 212 2 ",
"   c #131313",
".  c #161717",
"X  c #1F1515",
"o  c #171A1A",
"O  c #1B1E1E",
"+  c #1E1E1E",
"@  c #200E0E",
"#  c #221111",
"$  c #1D2F2F",
"%  c #212323",
"&  c #222626",
"*  c #272727",
"=  c #2A2F2F",
"-  c #213C3C",
";  c #373737",
":  c #0E4343",
">  c #2A4141",
",  c #3C5F5F",
"<  c #137272",
"1  c #117A7A",
"2  c #494949",
"3  c #544C4C",
"4  c #565656",
"5  c #5A5A5A",
"6  c #5E5E5E",
"7  c #53537A",
"8  c #626262",
"9  c #656563",
"0  c #636365",
"q  c #656565",
"w  c #696967",
"e  c #626269",
"r  c #64646E",
"t  c #636B6B",
"y  c #696969",
"u  c #6D6D6A",
"i  c #6B6B6C",
"p  c #6E6E6E",
"a  c #656570",
"s  c #676776",
"d  c #6F6F77",
"f  c #6E7071",
"g  c #717171",
"h  c #757572",
"j  c #767676",
"k  c #737378",
"l  c #73737E",
"z  c #797979",
"x  c #7D7B7B",
"c  c #7D7D7D",
"v  c #82827F",
"b  c #8C8C78",
"n  c #8B8B7F",
"m  c #38389B",
"M  c #424283",
"N  c #555583",
"B  c #535389",
"V  c #454599",
"C  c #7A7A82",
"Z  c #7F7F80",
"A  c #7D7D86",
"S  c #7E7E8A",
"D  c #5F5FB6",
"F  c #0D0DD1",
"G  c #0202EF",
"H  c #0000F3",
"J  c #0000FA",
"K  c #0606F9",
"L  c #0101FE",
"P  c #0505FF",
"I  c #0A0AFA",
"U  c #0F0FFB",
"Y  c #1919FA",
"T  c #2323E5",
"R  c #2828F5",
"E  c #2020FA",
"W  c #2525FB",
"Q  c #2525FC",
"!  c #2D2DF9",
"~  c #3434F5",
"^  c #3434FB",
"/  c #4444CB",
"(  c #4545CC",
")  c #4B4BCF",
"_  c #5B5BD7",
"`  c #6B6BDD",
"'  c #5757EE",
"]  c #4E4EF7",
"[  c #5757F2",
"{  c #6868E1",
"}  c #6D6DEB",
"|  c #6464FF",
" . c #7777F1",
".. c #0C9494",
"X. c #0BAAAA",
"o. c #7F9E9E",
"O. c #55BEBE",
"+. c #6DA6A6",
"@. c #00C9C9",
"#. c #05D1D1",
"$. c #05DCDC",
"%. c #04E1E1",
"&. c #13EAEA",
"*. c #1FE9E9",
"=. c #00F2F2",
"-. c #00F8F8",
";. c cyan",
":. c #0AF9F9",
">. c #54CDCD",
",. c #60C0C0",
"<. c #45F5F5",
"1. c #818181",
"2. c #858583",
"3. c #858585",
"4. c #868689",
"5. c #82828D",
"6. c #8A8A8A",
"7. c #88898F",
"8. c #8E8E8E",
"9. c #928F8F",
"0. c #979789",
"q. c #90908F",
"w. c #97978F",
"e. c #8D8D91",
"r. c #8C8C96",
"t. c #929292",
"y. c #949292",
"u. c #939493",
"i. c #959591",
"p. c #909094",
"a. c #929494",
"s. c #969696",
"d. c #91919A",
"f. c #999A9A",
"g. c #9A9A9E",
"h. c #9E9E9E",
"j. c #A5A592",
"k. c #A5A597",
"l. c #A1A19A",
"z. c #9EA1A1",
"x. c #A1A1A1",
"c. c #A5A5A2",
"v. c #A0A0A4",
"b. c #A6A6A6",
"n. c #A4A4AA",
"m. c #AAAAAA",
"M. c #ADADAA",
"N. c #A9A9AC",
"B. c #ADADAD",
"V. c #A9A9B0",
"C. c #B1B1B1",
"Z. c #B3B3B4",
"A. c #B5B5B5",
"S. c #B8B2B2",
"D. c #B7B7BE",
"F. c #B7B8B8",
"G. c #BABABA",
"H. c #BFBBBB",
"J. c #BEBEBE",
"K. c #C2C29B",
"L. c #C2C2B1",
"P. c #C0C0BF",
"I. c #C7C7BF",
"U. c #9B9BCF",
"Y. c #B2B2C4",
"T. c #B7B7C7",
"R. c #BFBFC1",
"E. c #B9B9C6",
"W. c #BFBFC7",
"Q. c #B7B7DE",
"!. c #8C8CE9",
"~. c #9191E4",
"^. c #9E9EEA",
"/. c #9898EE",
"(. c #AAAAE3",
"). c #B1B1E2",
"_. c #B3B3EA",
"`. c #BFC0C0",
"'. c #C1C1C1",
"]. c #C7C7C2",
"[. c #C2C2C6",
"{. c #C3C5C6",
"}. c #C5C5C5",
"|. c #CACAC9",
" X c #CDCECE",
".X c #D3D3D5",
"XX c #D5D5D6",
"oX c #D8D8D2",
"OX c #D3D3D8",
"+X c #D7D8D8",
"@X c gray85",
"#X c #DDDEDE",
"$X c #E2E2D9",
"%X c #E5E5D9",
"&X c #E8E8DD",
"*X c #EDEDDF",
"=X c #C1C1E7",
"-X c #CECEE4",
";X c #DFDFE3",
":X c #DADAE7",
">X c #D4D4EB",
",X c #E1E1E1",
"<X c #E6E6E6",
"1X c #EAEAE6",
"2X c #EEEEE7",
"3X c #E4E4E8",
"4X c #EAEAEA",
"5X c #EFEFEF",
"6X c gray95",
"7X c #F6F6F6",
"8X c #F9F9F9",
"9X c #FFFFFF",
/* pixels */
"9X9X8X,XB.j 5 8 6 6 6 6 6 6 6 6 6 6 6 6 6 6 8 6 g h.XX7X9X9X",
"9X5Xf.1.f.Z.'.J.J.J.J.J.J.J.J.J.J.J.J.J.J.J.J.'.A.x.6.8.<X9X",
"8Xs.f.J.A.A.Z.A.A.A.A.A.A.A.A.A.A.A.A.A.A.A.A.Z.A.A.G.b.1.6X",
"@X3.A.B.C.C.C.C.C.C.C.C.C.C.C.C.C.C.C.C.C.M.B.A.Z.C.B.A.u.G.",
"s.f.B.M.B.B.B.B.B.B.B.B.B.B.B.B.B.B.B.C.A.'.}. X XA.M.M.b.j ",
"y c.m.m.m.m.m.m.m.m.b.m.m.m.m.m.b.c.m.Z. X.X}.A.F.A.m.b.m.6 ",
"5 b.b.c.b.b.c.x.x.h.m.b.x.x.x.b.B.G.Z.c.XXx.x.x.t.x.b.c.m.6 ",
"6 x.x.x.x.x.m.A.}.|. X XA.C.G.`.C.8.6.z.+XB.B.J.b.h.x.x.c.6 ",
"5 h.h.h.h.h.b.x.m.G.x.C.XXC.j 4 2 * ; x. XB.C.C.C.x.h.h.x.6 ",
"6 f.f.f.f.f.B.C.f.f.f.6.XXh +   . o = C.H.t u.B.G.b.s.f.h.6 ",
"6 s.s.s.f.x.C.Z.B.m.C.u.XX0 O & % @ - <.>.: 3 {.'.f.s.s.f.6 ",
"5 u.u.t.f.h.2.x.B.m.6 j #Xq X # $ < 1 %.@.> x  X{.u.u.u.s.5 ",
"6 t.t.8.f.h.g c b.|.p j #Xq ..#.$.-.=.X., z f.|.[.t.q.t.u.6 ",
"5 8.8.6.s.f.j q m.,Xx.f S.,.&.;.;.:.*.+.8.u.u.|.W.e.8.8.t.6 ",
"5 6.6.6.t.f.z q B.,Xc.y f.z.a.O.O.o.a.u.s.i.u.|.W.7.6.6.8.5 ",
"5 3.3.1.8.s.z 0 M.,Xv.y f.h.y.9.y.s.t.t.w.p.( /.I.5.2.3.6.5 ",
"5 1.1.1.6.u.j 0 M.>X_ 7 l.h.8.x b.J.l.i.r./ L ^.].5.1.1.2.5 ",
"5 1.1.c 3.t.z q M.:XQ M j.n.4.1.Z.'.E.D T L I ^.].S c Z 1.5 ",
"5 c c z 3.t.z q B.:X! m b k.0.j B.R.} L P L ~ -XE.A z c c 5 ",
"5 z z j 1.t.z 0 N.1X' G V N B w b.E.[ K L U ~.&XY.A j z x 5 ",
"5 j j g c 8.z q N.2XQ.W J H H s K.P.~ L R !.*X<XT.C h j j 5 ",
"5 g g g x 8.z q M.3X%X(.[ E Y F ) { ^  .=X.XE.D.d.k g g h 5 ",
"5 g g p z 8.h q m.<XOX%X$X)._.| ] ` U.L.b.r.l d y p g p g 5 ",
"5 p p i p t.8.6 M.4X,X;X;XoXZ.V.h.n v s e y u u p p p i p 5 ",
"6 y y y q j x.z m..XC.g.4.C a r e 0 0 w i y y y y y y y y 5 ",
"3.8 q 9 q 8 g t.q.j i 0 6 6 9 9 q q q q q q q q q q 9 q 0 q ",
"|.q 8 8 8 8 6 y q 6 8 8 9 0 8 8 8 8 8 8 8 8 8 8 8 8 8 8 8 h.",
"8Xz 5 6 6 6 6 6 6 8 6 6 6 6 6 6 6 6 6 6 6 6 6 6 6 6 6 6 q 5X",
"9X<Xy 6 5 6 5 6 6 6 6 6 6 6 6 6 6 6 6 6 6 6 6 6 5 6 5 8 #X9X",
"9X9X6Xx.8 5 5 5 5 5 5 5 5 5 5 5 5 5 5 5 5 5 5 5 5 5 8.4X9X9X"
};
