/* XPM */
static char *FB_PozosPluviales_SC_R[] = {
/* columns rows colors chars-per-pixel */
"30 30 256 2 ",
"   c #1D1211",
".  c #191817",
"X  c #20110F",
"o  c #1D302F",
"O  c #242526",
"+  c #34373B",
"@  c #3E3E40",
"#  c #1C4F50",
"$  c #1B5958",
"%  c #285D5C",
"&  c #136F6F",
"*  c #177575",
"=  c #2D6C6B",
"-  c #3F7473",
";  c #444746",
":  c #484950",
">  c #4D5858",
",  c #586161",
"<  c #5C7C7B",
"1  c #686868",
"2  c #6F6E71",
"3  c #706F71",
"4  c #77777D",
"5  c #7C7C7E",
"6  c #797877",
"7  c #FFCB00",
"8  c #FFCC01",
"9  c #FFCE06",
"0  c #FFCE09",
"q  c #FFCF0C",
"w  c #FFD00C",
"e  c #FFD00B",
"r  c #F8CE1A",
"t  c #FED212",
"y  c #FED215",
"u  c #FDD216",
"i  c #FED21A",
"p  c #FED41A",
"a  c #FDD41D",
"s  c #FFD81D",
"d  c #F5CE28",
"f  c #FFD621",
"g  c #FDD626",
"h  c #FFD827",
"j  c #FEDA2E",
"k  c #FEDA2B",
"l  c #FFD62F",
"z  c #FFD633",
"x  c #FEDE35",
"c  c #FEDD31",
"v  c #FEDF3A",
"b  c #FCDD3B",
"n  c #F6D539",
"m  c #FEE03B",
"M  c #858279",
"N  c #81807D",
"B  c #939276",
"V  c #CDBE7D",
"C  c #EECF4B",
"Z  c #EFD14B",
"A  c #FFDB45",
"S  c #F0D149",
"D  c #F9DB58",
"F  c #FEE243",
"G  c #FEE54B",
"H  c #FEE554",
"J  c #FFE855",
"K  c #FEE95A",
"L  c #FDEA5D",
"P  c #F8E05B",
"I  c #DCC96B",
"U  c #DDC967",
"Y  c #E5CE69",
"T  c #ECD46B",
"R  c #EEDB6C",
"E  c #F1DB66",
"W  c #EADB7D",
"Q  c #E7D678",
"!  c #FFE263",
"~  c #FFEC62",
"^  c #FEED65",
"/  c #F1E06F",
"(  c #FFE26B",
")  c #FEEE69",
"_  c #FEF06E",
"`  c #EFE47D",
"'  c #FCEC73",
"]  c #F8E273",
"[  c #FEF275",
"{  c #FEF47B",
"}  c #3C3CBC",
"|  c #2C2CAE",
" . c #595A8F",
".. c #595895",
"X. c #7D7D81",
"o. c #777782",
"O. c #4545A0",
"+. c #5555BA",
"@. c #7070A6",
"#. c #6C6CAA",
"$. c #2525D8",
"%. c #0D0DE0",
"&. c #1D1DE5",
"*. c #0000FB",
"=. c #1313F2",
"-. c #2827F9",
";. c #3E3EF1",
":. c #5252D8",
">. c #6466DE",
",. c #726EDC",
"<. c #4645E6",
"1. c #5959ED",
"2. c #4A4BF9",
"3. c #6868E9",
"4. c #6E70F6",
"5. c #7070FE",
"6. c #0C9E9E",
"7. c #1A9595",
"8. c #0FADAD",
"9. c #08BCBC",
"0. c #2BAFAF",
"q. c #38A4A4",
"w. c #619191",
"e. c #51BFBF",
"r. c #67ACAC",
"t. c #79B2B2",
"y. c #7CA6A6",
"u. c #08CACB",
"i. c #1FCBCB",
"p. c #24DEDD",
"a. c #3BD5D5",
"s. c #01E8E7",
"d. c #05F8F7",
"f. c #69C3C3",
"g. c #45E9E9",
"h. c #838281",
"j. c #858584",
"k. c #8E8E8E",
"l. c #8B8A8A",
"z. c #848586",
"x. c #93938E",
"c. c #9A998B",
"v. c #938F91",
"b. c #889697",
"n. c #949595",
"m. c #9C9C9C",
"M. c #979998",
"N. c #968C8B",
"B. c #A59F9F",
"V. c #A5A186",
"C. c #A4A28B",
"Z. c #B3AD88",
"A. c #ABAD95",
"S. c #B7B390",
"D. c #9E9FA3",
"F. c #9797A9",
"G. c #8B86BA",
"H. c #9E9FB9",
"J. c #85ADAE",
"K. c #9AA4A5",
"L. c #A4A3A2",
"P. c #A4A9A9",
"I. c #ABAAAA",
"U. c #B7B6A6",
"Y. c #AEAEB2",
"T. c #AFB8B8",
"R. c #B6B6B5",
"E. c #B3B3B3",
"W. c #BBBAB3",
"Q. c #BBBCBB",
"!. c #B6B7B9",
"~. c #B7A9A1",
"^. c #C0B99A",
"/. c #C0BABA",
"(. c #D0C384",
"). c #DEDA8B",
"_. c #DCCD9B",
"`. c #DDD997",
"'. c #E7D986",
"]. c #E9DD9E",
"[. c #EBE382",
"{. c #FFEF83",
"}. c #F4E987",
"|. c #FDF581",
" X c #FEF987",
".X c #FFFA82",
"XX c #FFF989",
"oX c #FEFA8F",
"OX c #FEFC8E",
"+X c #F7F287",
"@X c #F3EF93",
"#X c #FFEB9A",
"$X c #FEFB90",
"%X c #FEFD97",
"&X c #F6F599",
"*X c #FFFF9A",
"=X c #FFFF9E",
"-X c #FCFB9D",
";X c #FEF499",
":X c #C8C8A8",
">X c #DDDBAC",
",X c #D9D5A2",
"<X c #C6C5B8",
"1X c #D9D9BA",
"2X c #DDE0AE",
"3X c #DFE0B6",
"4X c #E3E3A6",
"5X c #EEEDAC",
"6X c #E7E4A5",
"7X c #FEEEAF",
"8X c #FEFEA6",
"9X c #FEFEA3",
"0X c #FEFEA8",
"qX c #FEFDAE",
"wX c #FAFBA9",
"eX c #F7F7AC",
"rX c #E5E5B6",
"tX c #FEFEB0",
"yX c #FEFEB7",
"uX c #FDFBB5",
"iX c #FEFEB9",
"pX c #FEFFBC",
"aX c #F7F7B3",
"sX c #BABAC1",
"dX c #BBBBC8",
"fX c #A5A4D4",
"gX c #B5B3D7",
"hX c #8585EC",
"jX c #9D9BE0",
"kX c #9B9BF1",
"lX c #B7B8E5",
"zX c #BFC5C5",
"xX c #C2C2C2",
"cX c #CDCDC1",
"vX c #CCCBCB",
"bX c #C8C5C5",
"nX c #D1CFCB",
"mX c #DBD7C8",
"MX c #C3C3D7",
"NX c #C9C9D8",
"BX c #D4D3D5",
"VX c #E0DDD1",
"CX c #FFF2C2",
"ZX c #FEFFC6",
"AX c #FFFFCB",
"SX c #FEFFCC",
"DX c #FFF5CE",
"FX c #E1E2DF",
"GX c #FFF6D4",
"HX c #FFF7DB",
"JX c #DBDBE1",
"KX c #E5E5E3",
"LX c #FFF9E3",
"PX c #FFFAEA",
"IX c #FFFCF4",
"UX c #FFFFFF",
/* pixels */
"UXUXIXGX{.z q q q q q q q q q q q q q q q q q q g ( CXIXUXUX",
"UXPX( H {.uXSXAXAXAXAXAXAXAXAXAXAXSXSXSXAXAXAXSXiX;X! D GXUX",
"IX! {.ZXpXiXyXyXyXyXyXyXyXyXyXyXyXyXyXyXyXyXyXyXiXiXZX;XA PX",
"CXH pXqXqXtXtXtXtXtXtXtXtXtXtXqXqXtXiXuXqXtXtXtXtXtXqXiX' #X",
"! |.8X8X0X0X0X0X0X0X0X0X8X8X9X5XrXrXcX1XeX8X0X0X0X0X8X8X-Xl ",
"i %X=X=X=X=X=X*X-X-X*X*X9XwXaX<XvXR.:X,XwX=X=X=X=X=X=X=X9Xq ",
"9 *X%X%X%X&X6XrX3X1X5X4X:XA.c.D.xXI.2X&X%X%X%X%X%X%X%X%X=X0 ",
"0 oX$X$XOX&X:XY.I.Y.xXh.: + O M.W.L.W.4XoX$X$X$X$X$X$XoX%X0 ",
"9 XXXXXX+X6X:XL.L.L.P.; .   X f.r.> E.>X+XXXXX X.X XXX XoX9 ",
"9 |.|..X}.S.M.R.h.k.I.; o $ * u.7., Q.>X+X|.+X@X5X@X|.|. X0 ",
"9 { { { }.C.6 R.M.j.P.q.u.s.d.0.< k.Q.>X[.>X1X<XW.,X|.{ |.9 ",
"9 [ [ [ }.C.2 R.xXN M.t.a.a.f.b.l.M.Q.1X:XR.sXU.).[.{ [ { 9 ",
"9 _ _ _ ` C.3 R.dX4 n.I.T.zX/.bX!.D.l.1 1 R.Q.U.`.' _ _ [ 9 ",
"9 ) ) ) ` C.2 R.hX..c.I.L.L.m.E.L.@ O . ; T.n.n.<X[.^ ) _ 9 ",
"9 ~ ~ ~ / V.2 W.5.O.C.E.I.P.m.I.l.O .   % g.= 1 cX'.L ~ ) 9 ",
"9 L L K / V.2 W.kX$.#.j.m.Y.1 L.k.# & 6.9.8.- v.cXW K K ~ 9 ",
"8 J J J R V.2 R.JX1.:.o.j.bXn.v.J.i.d.d.p.w.h.L.<XW H J K 9 ",
"9 G G G E V.2 R.KXNXfXo.N vXL.5 K.y.e.r.b.n.x.F.xXQ G G H 9 ",
"8 G G F P Z.4 E.KXmX<Xh.5 NXG.4 m.k.N.B.M.x.@.<.fX/ F F G 8 ",
"8 F F F F R Z.^.].Q (.N X.MX<.6 L.k.k.<XH.+.&.-.gXR b F F 8 ",
"8 m v v v v P D n v I M X.MX;. .k.z.l.sX3.*.*.1.vXT v m m 8 ",
"8 x x x x x j c x x I M X.BXhX%.| | B Q.<.*.;.lXVXY c x x 8 ",
"8 j j j j j j j j j U M X.BXBX3.-.=.} >.2.4.gXmX_.Z k j j 8 ",
"8 h h g h h h g g g U M 5 BXFXJXlXjX,.G.~.W E S n g h g h 8 ",
"0 f f a f f f f f a S Z.z.nXmX,X'.T D b k a u p s f f a f 7 ",
"A y p i p p p p i p a Z V Y C d d r u y u p a a p p i p i y ",
"7Xu t y y y y y y y t y f u t w t t y y y y y y y y t y t ( ",
"IXz 9 w q w w w w w w w 0 e w w w w w w w w w w w q w 0 y LX",
"UXHXi 0 9 9 9 9 9 9 9 9 9 9 9 9 9 9 9 9 9 9 9 9 9 9 9 q DXUX",
"UXUXPX] 0 7 7 7 7 7 7 7 7 7 7 7 7 7 7 7 7 7 7 7 7 9 D LXUXUX"
};
