/* XPM */
static char *FB_PozoFecal_A_R[] = {
/* columns rows colors chars-per-pixel */
"30 30 256 2 ",
"   c #141A1D",
".  c #1C1D1C",
"X  c #141516",
"o  c #39281E",
"O  c #282726",
"+  c #362E29",
"@  c #3A3634",
"#  c #742F00",
"$  c #6F3F0F",
"%  c #7B3500",
"&  c #7B3C02",
"*  c #753200",
"=  c #634230",
"-  c #7A4E34",
";  c #695039",
":  c #594E47",
">  c #4D5053",
",  c #5E5E5F",
"<  c #585552",
"1  c #4A4847",
"2  c #635243",
"3  c #705B46",
"4  c #665D53",
"5  c #6E6155",
"6  c #656566",
"7  c #636464",
"8  c #6A6A6A",
"9  c #6B6866",
"0  c #706F6F",
"q  c #757474",
"w  c #787775",
"e  c #7A7875",
"r  c #7B7B7B",
"t  c #824409",
"y  c #844810",
"u  c #89501A",
"i  c #8A5624",
"p  c #925C28",
"a  c #8C583B",
"s  c #966534",
"d  c #A4623A",
"f  c #896746",
"g  c #8D6C4C",
"h  c #8A755F",
"j  c #997A5B",
"k  c #AB6841",
"l  c #B66E46",
"z  c #A37C54",
"x  c #A47E58",
"c  c #C87649",
"v  c #D47D4C",
"b  c #C87D52",
"n  c #B48A5F",
"m  c #86827F",
"M  c #9D897A",
"N  c #AA896A",
"B  c #AD8B78",
"V  c #B78F78",
"C  c #B69776",
"Z  c #C4815C",
"A  c #D69B7B",
"S  c #2F619B",
"D  c #30619B",
"F  c #31629D",
"G  c #34649E",
"H  c #32649E",
"J  c #3566A1",
"K  c #3162A0",
"L  c #3968A1",
"P  c #3D6BA4",
"I  c #3E6CA5",
"U  c #3B6AA3",
"Y  c #3E6EA8",
"T  c #3768A2",
"R  c #416FA7",
"E  c #446DA0",
"W  c #416FA8",
"Q  c #486FA1",
"!  c #4270A9",
"~  c #4573AB",
"^  c #4573AC",
"/  c #4976AE",
"(  c #4E77AB",
")  c #4975AA",
"_  c #537BAC",
"`  c #4E7BB1",
"'  c #4C7CB4",
"]  c #497DB9",
"[  c #4C7FBB",
"{  c #4C7EBC",
"}  c #4A7EBB",
"|  c #527EB3",
" . c #527FB9",
".. c #5E81AC",
"X. c #4D80BB",
"o. c #4D80BC",
"O. c #4B80BC",
"+. c #5581B6",
"@. c #5E84B3",
"#. c #5082BD",
"$. c #5683BA",
"%. c #5A86BA",
"&. c #5E89BE",
"*. c #7B8FA6",
"=. c #7F92A9",
"-. c #6689B5",
";. c #628CBE",
":. c #6B8EB9",
">. c #6789B3",
",. c #7D94B1",
"<. c #7A95B9",
"1. c #5A8AC2",
"2. c #638DC1",
"3. c #638EC3",
"4. c #6791C5",
"5. c #6690C3",
"6. c #6A93C6",
"7. c #6E97CA",
"8. c #6A95C9",
"9. c #6F98CC",
"0. c #7295C2",
"q. c #719ACD",
"w. c #759CCD",
"e. c #799ECC",
"r. c #759ED1",
"t. c #789FD2",
"y. c #77A0D2",
"u. c #7AA3D5",
"i. c #7DA5D6",
"p. c #7AA2D3",
"a. c #7FA7D8",
"s. c #838383",
"d. c #8C8C8D",
"f. c #82888C",
"g. c #928F8C",
"h. c #998E89",
"j. c #929292",
"k. c #939495",
"l. c #959595",
"z. c #939394",
"x. c #99999A",
"c. c #9E9E9E",
"v. c #A19F9E",
"b. c #BDA48B",
"n. c #B9A593",
"m. c #8295AC",
"M. c #8699AF",
"N. c #9D9EA1",
"B. c #8B9EB3",
"V. c #839DBA",
"C. c #879AB0",
"Z. c #A09FA0",
"A. c #9DA1A5",
"S. c #9EA3AB",
"D. c #8FA0B6",
"F. c #93A3BA",
"G. c #A2A1A0",
"H. c #A7A6A6",
"J. c #A4A4A4",
"K. c #ADA9A7",
"L. c #ABABAA",
"P. c #ABACAD",
"I. c #ADADAE",
"U. c #ABABAC",
"Y. c #B0AEAC",
"T. c #B2B1AE",
"R. c #ACAEB1",
"E. c #ADB3B9",
"W. c #B2B2B2",
"Q. c #B3B5B7",
"!. c #BEBDBB",
"~. c #B5B6B7",
"^. c #C5AE98",
"/. c #C7B29E",
"(. c #C9BDB0",
"). c #C6B9AA",
"_. c #C5C1BB",
"`. c #D3C5B8",
"'. c #88A4C7",
"]. c #95ABC6",
"[. c #97B0CF",
"{. c #81A5D2",
"}. c #81A9D7",
"|. c #8DAED5",
" X c #83AADA",
".X c #84ABDB",
"XX c #86AEDD",
"oX c #86ACD9",
"OX c #88AFDE",
"+X c #88ADDB",
"@X c #8DB1DB",
"#X c #93B1D6",
"$X c #92B3DB",
"%X c #99B7DB",
"&X c #9AB8DB",
"*X c #AEBAC4",
"=X c #ACBACB",
"-X c #A7B4C4",
";X c #B4BCC4",
":X c #B7BFCA",
">X c #A3BDDB",
",X c #A8BCD4",
"<X c #87AFE0",
"1X c #8DB3E1",
"2X c #8FB4E1",
"3X c #8BB2E3",
"4X c #92B6E2",
"5X c #93B7E3",
"6X c #94B8E3",
"7X c #95B9E5",
"8X c #9ABBE3",
"9X c #9EBDE3",
"0X c #A1BFE3",
"qX c #A2BFE4",
"wX c #BBC3CF",
"eX c #BFC1C1",
"rX c #ADC2DD",
"tX c #A6C1DF",
"yX c #BBC5D2",
"uX c #BBC9D6",
"iX c #B0C1D5",
"pX c #A7C1E2",
"aX c #A5C2E5",
"sX c #A9C3E3",
"dX c #ABC4E3",
"fX c #B6CBE5",
"gX c #B5CAE4",
"hX c #BCCEE3",
"jX c #C4C3C1",
"kX c #CBCAC7",
"lX c #CDCBCA",
"zX c #DBD3CC",
"xX c #CAD2DB",
"cX c #CCD1D7",
"vX c #D5D5D4",
"bX c #D3D6DA",
"nX c #DDDDDD",
"mX c #D7D8D8",
"MX c #E2DEDB",
"NX c #E0DAD4",
"BX c #E1E0DE",
"VX c #D2DEEE",
"CX c #C5D6E8",
"ZX c #DEE1E5",
"AX c #D5E1EE",
"SX c #DEE7F3",
"DX c #E2E3E2",
"FX c #E9EAEA",
"GX c #E7E7E7",
"HX c #E4EBF4",
"JX c #E9EFF6",
"KX c #EEF2F8",
"LX c #F2F6FA",
"PX c #F7F9FC",
"IX c #FFFFFF",
"UX c #F9FBFD",
/* pixels */
"IXIXUXSX>X6.X.#.#.#.#.#.#.#.#.#.#.#.#.#.#.#.#.X.3.#XVXPXIXIX",
"IXKX#Xe.|.sXfXgXfXfXfXfXfXfXfXfXfXfXfXfXfXfXgXfXdX%X{.{.HXIX",
"UX|.|.gXdXdXsXsXsXsXsXsXsXsXsXsXsXsXsXsXsXdXsXpXsXdXgX&Xw.LX",
"AXe.aX9X0X0XqXqXqXqXqXqXqXqXqXqXqXaXqX0X9X8X9XpXpX0X9XaX}.gX",
"|.oX8X8X8X8X8X8X8X8X8X8X8X8X8X8X8X8X8X9XtXfXhXxXxXpX8X8X$X4.",
"1.2X5X4X5X5X5X6X6X6X4X5X6X6X5X4X2X1X$X*XcXvXjX~.~.,X7X4X6X#.",
"{ 1X1X1X1X1X3X3XOXXX%X$XOX<XOX4X&XdX=XJ.vXG.S.].V.|.2X3X4Xo.",
"o.OXOXOXOXXX$X,XgXhXxXxX>X>XiXyXE.d.d.Z.mXI.R.rX3XXXOXXXOXo.",
"X..X.X.X.X.X[.J.L.!.G.T.mXW.w < 1 O @ G.lXI.W.W.,X+X X XXXO.",
"{ }.}.}.i.i.%X-Xx.x.x.d.vXq . X X . + W.!.9 k.Y.;X$Xi.}. X[ ",
"O.i.i.u.i.].E.Q.I.U.W.l.vX7 . O O   + A V o > jXwX{.u.u.i.o.",
"[ y.y.r.a.F.m G.I.U., w nX6     O = = l d @ r lXyXe.r.t.p.X.",
"{ w.w.q.u.D.q r H.kX8 q nX6 - k l c c a : w x.kXyXw.r.q.w.{ ",
"[ 9.9.7.t.B.w 6 U.DXG.0 Q.B b v v b Z M d.z.k.kXwX0.9.7.q.{ ",
"[ 8.8.4.q.B.e 6 I.DXJ.8 x.v.j.B B h.j.l.l.z.z.kXwX0.8.6.8.[ ",
"} 5.5.3.7.C.e 6 U.DXG.9 x.c.z.j.z.l.j.j.k.j.f ^.uX:.3.5.4.} ",
"} 2.2.;.6.M.w 7 P.NXj 4 N.c.d.r H.!.N.k.g.f & ^.uX:.2.2.2.} ",
"} &.&.&.4.M.w 6 I.MXp 2 A.H.s.s.W.jX!.h i & t /.uX-.&.&.&.} ",
"} %.%.$.2.m.e 6 I.MXp ; f.A.k.q I._.N % t % s zX:X-.$.%.%.} ",
"] +.+.+.&.m.w 7 L.FXx & 3 5 5 6 H.!.x & % y n.DX;X-.+.+.+.] ",
"} | | ` %.m.e 6 L.FX_.p * & & 9 *XeXs # i b.FXGX;X@.' | | } ",
"] ` ` / +.=.e 6 U.GXZX).x i u $ g N s C `.bX;X=X<.| ` ` ` ] ",
"] / / ^ | *.q 6 U.GXvXZXZX(.`.n z M K.rX].<._ ( ! / / / / ] ",
"] ~ ~ ! / ,.g., P.GXBXMXMXbX-X].'.;.@.Q U R ! ~ ^ ~ ~ ~ ~ ] ",
"[ W R R I _ F.r K.xX-XV.:...E E U U U W ! ! ! W R R R R R ] ",
"e.Y U P P T ( ,.,._ Q U K J U U P I I P P P P P P P P P U %.",
"CX` J L L L G R I H J L L L L L L L L L L L L L L L L L Y #X",
"PX6.H F G G G F F G G G G G G G G G G G G G G G G G G F  .KX",
"IXHX$.I D D D D D D D D D D D D D D D D D D D D S F J ' SXIX",
"IXIXLX%XX.] ] ] ] ] ] ] ] ] ] ] ] ] ] ] ] ] ] ] ] ] {.JXIXIX"
};
