/* XPM */
static char *FB_PozosPluviales_N[] = {
/* columns rows colors chars-per-pixel */
"30 30 242 2 ",
"   c #1E0F0F",
".  c #111010",
"X  c #1A1212",
"o  c #1C1010",
"O  c #181615",
"+  c #1E1E1F",
"@  c #1C2F2F",
"#  c #232021",
"$  c #252525",
"%  c #262B2B",
"&  c #393C3C",
"*  c #3E3E40",
"=  c #1C4F50",
"-  c #1A5858",
";  c #265C5C",
":  c #136F6F",
">  c #167575",
",  c #2B6B6B",
"<  c #3D7373",
"1  c #414545",
"2  c gray27",
"3  c #444848",
"4  c #4D5858",
"5  c #505252",
"6  c #5A5A5A",
"7  c #5D5D5B",
"8  c #5A5A5D",
"9  c #5D5D5D",
"0  c #60605F",
"q  c #5D5D63",
"w  c #586161",
"e  c #5A7B7B",
"r  c #616161",
"t  c #636365",
"y  c #656566",
"u  c #6A6A66",
"i  c #66666A",
"p  c #64646C",
"a  c #676869",
"s  c #6A6A6A",
"d  c #6A6B6C",
"f  c #6E6E6E",
"g  c #6F6F71",
"h  c #6F6F79",
"j  c #717171",
"k  c #747373",
"l  c #777771",
"z  c #757575",
"x  c #7B7B77",
"c  c #70707A",
"v  c #757779",
"b  c #77777E",
"n  c #757878",
"m  c #797A7A",
"M  c #7A7A7D",
"N  c #7A7C7F",
"B  c #7E7E7E",
"V  c #80807F",
"C  c #909076",
"Z  c #3333A9",
"A  c #2222B4",
"S  c #3C3CBC",
"D  c #595990",
"F  c #585895",
"G  c #777782",
"H  c #7F7F80",
"J  c #7A7A84",
"K  c #7B7C8C",
"L  c #4444A1",
"P  c #5555BA",
"I  c #6F6FA6",
"U  c #6C6CAA",
"Y  c #7F7FB7",
"T  c #2424D8",
"R  c #0C0CE1",
"E  c #1C1CE5",
"W  c #0101FB",
"Q  c #0000FC",
"!  c #1212F2",
"~  c #2A2AF7",
"^  c #2222F9",
"/  c #3B3BF0",
"(  c #3E3EF2",
")  c #5151D8",
"_  c #6868CA",
"`  c #6969DD",
"'  c #4444E7",
"]  c #4949E0",
"[  c #4141ED",
"{  c #5858EB",
"}  c #5959EF",
"|  c #5151F5",
" . c #6464E1",
".. c #6D6DE5",
"X. c #6161EE",
"o. c #6F6FFF",
"O. c #7676F3",
"+. c #0B9E9E",
"@. c #199595",
"#. c #0EADAD",
"$. c #07BCBC",
"%. c #2AAFAF",
"&. c #37A4A4",
"*. c #7D8180",
"=. c #7E808A",
"-. c #619191",
";. c #64A9A9",
":. c #69AEAE",
">. c #7CA6A6",
",. c #78B2B2",
"<. c #51C0BF",
"1. c #00CBCB",
"2. c #0ECACA",
"3. c #1FCBCB",
"4. c #23DDDD",
"5. c #37D7D7",
"6. c #3DD3D3",
"7. c #00E7E7",
"8. c #00F4F4",
"9. c #0AF7F7",
"0. c #04FBFB",
"q. c #64C4C4",
"w. c #6BC3C3",
"e. c #45E9E9",
"r. c #818181",
"t. c #858582",
"y. c #858586",
"u. c #888884",
"i. c #8B8C87",
"p. c #86868B",
"a. c #85878E",
"s. c #878A8A",
"d. c #87898C",
"f. c #89898A",
"g. c #8C8A8A",
"h. c #8A8B8D",
"j. c #8D8D8D",
"k. c #968B8B",
"l. c #908F8F",
"z. c #90918F",
"x. c #95958E",
"c. c #9B9A8B",
"v. c #898991",
"b. c #8F8F95",
"n. c #918F90",
"m. c #8B9192",
"M. c #8D9092",
"N. c #839B9C",
"B. c #819C9C",
"V. c #919191",
"C. c #959091",
"Z. c #939696",
"A. c #959696",
"S. c #9D9595",
"D. c #9A9A97",
"F. c #979999",
"G. c #909C9C",
"H. c #999999",
"J. c #9A9B9C",
"K. c #9E9E9E",
"L. c #A49E9F",
"P. c #A4A48F",
"I. c #9E9EA5",
"U. c #9898A9",
"Y. c #8787B8",
"T. c #9E9FB9",
"R. c #85ADAE",
"E. c #9DA0A0",
"W. c #9AA4A4",
"Q. c #A1A2A2",
"!. c #A5A2A2",
"~. c #A5A6A2",
"^. c #A5A5A5",
"/. c #A0A2A8",
"(. c #A1AAAA",
"). c #A7A9AA",
"_. c #A9A9A9",
"`. c #ACAAAA",
"'. c #ACABAE",
"]. c #ABACAC",
"[. c #ADADAE",
"{. c #A0A0B0",
"}. c #AFAFB0",
"|. c #AEB5B5",
" X c #AEBABA",
".X c #B2B2B2",
"XX c #B1B1B6",
"oX c #B6B6B6",
"OX c #BCB6B6",
"+X c #BABAB3",
"@X c #B6B7B9",
"#X c #B6B8BD",
"$X c #B9BABA",
"%X c #BBBDBE",
"&X c #BEBEBE",
"*X c #C0BABA",
"=X c #BEC1BF",
"-X c #9998DB",
";X c #B6B5C6",
":X c #BBBBC0",
">X c #BBBBC8",
",X c #A7A7D1",
"<X c #A5A6D4",
"1X c #B0B0DE",
"2X c #8383EC",
"3X c #8686EC",
"4X c #9797E2",
"5X c #9A9AF2",
"6X c #BABAE3",
"7X c #BBBBE6",
"8X c #BFC5C5",
"9X c #C1C2C2",
"0X c #C3C5C5",
"qX c #C8C5C5",
"wX c #C0C0CB",
"eX c #CAC9C9",
"rX c #CDCDCE",
"tX c #C0C0D1",
"yX c #C6C6D6",
"uX c #C9C9D2",
"iX c #CDCDD0",
"pX c #C1C1D8",
"aX c #CBCBDD",
"sX c #D5D5D3",
"dX c #D3D3D4",
"fX c #D5D5D5",
"gX c #D1D1DF",
"hX c gray85",
"jX c #DBDBDF",
"kX c #DFDFDF",
"lX c #E2E2DF",
"zX c #DEDEE3",
"xX c #E1E1E1",
"cX c #E7E7E3",
"vX c #E2E2E4",
"bX c #E6E6E6",
"nX c #EAEAEA",
"mX c #EFEFEF",
"MX c #F1F1F1",
"NX c #F6F6F6",
"BX c gray98",
"VX c #FFFFFF",
/* pixels */
"VXVXBXxX_.j 6 7 6 6 6 6 6 6 6 6 6 6 6 6 6 6 6 6 d A.fXNXVXVX",
"VXmXA.d f m r.B r.r.r.r.r.r.r.r.r.r.r.r.r.r.B r.B k f y.bXVX",
"BXV.f r.B B B B B B B B B B B B B B m m B B B B B B r.z z NX",
"hXj r.B B B B B B B B B B B B B B r.j.f.B B B B B B B r.k $X",
"Z.k B B B B B r.B B r.B B m m j.K._.$X[.y.B B B B B B B m j ",
"y B B B B B m m B B m m r.j.H.].eXoXE.Z.j.B B B B B B B r.7 ",
"6 B B B B y.A.^.].[.K.H.H.j.y.E.0X^.E.*.B B B B B B B B B 6 ",
"6 B B B m f._.oX[.oX&Xt.5 & % S.OXQ..XJ.B B B B B B B B B 6 ",
"6 m m m B H._.Q.Q.Q.^.2 . X   q.;.4 .X_.m B B m k m B m B 6 ",
"6 m m m y.A.H.oXr.j.`.3 @ - > 2.@.w $X).v m B V.Q.f.m m m 6 ",
"6 m m z y.g.z oXF.y.(.&.1.7.8.%.e l.$X/.N _.$XoX.XK.B z m 6 ",
"6 z z k y.g.j oX9XV G.,.5.6.w.B.g.D.%X#XQ.oX9XQ.s.B m k z 6 ",
"6 z z k t.j.j oX>Xb V._.|.8X*XqX@XI.h.y s oX%X`.F.n k k z 6 ",
"6 k k j r.f.j oX3XF c.'.!.!.K..XQ.* $ O 1  XZ.A.oXf.j k k 6 ",
"6 j j f r.f.j +Xo.L P.XX].).K._.g.# + o ; e., s 9Xh.f j j 6 ",
"6 f f f B f.g +X5XT U u.J.}.t ^.m.= : +.$.#.< C.9Xd.d f j 6 ",
"6 f f d B f.j oXzX{ ) G t.eXA.n.R.3.0.9.4.-.r.~.%Xa.s f f 6 ",
"6 d d s B f.j oXcXaX,XJ V rX~.m W.>.<.:.N.A.z.U.;Xp.a d d 6 ",
"6 d d s m V.m .XvXiX&Xr.B uXY.M K.j.k.L.D.x.I ] -Xi.i d d 6 ",
"6 s s y s y.A.Q.'.v.b.M V pX' x ~.j.M.=XT.P E ~ <Xs.t s s 6 ",
"6 y y y y y B M t t y.B r.yX( D j.y.f.:X..W Q } tX=.t y y 6 ",
"6 y y t y y r r y y f.B H dX2XR A Z C $X[ W / 7XfXK r y y 6 ",
"6 t t t t t y y t t y.B r.sXgXX.^ ! S ` | O.1XwX{.h r t t 6 ",
"6 r r r r r r r r r y.B B dXlXjX6X4X ._ Y J.p.c p r r r r 6 ",
"9 r r r r r r r r 9 m V.y.rXiXXX^.V.y.l u 8 6 7 0 r r r r 6 ",
"y.9 9 9 9 9 9 9 9 9 r B A.h.M i q 8 8 7 9 0 r r r 9 9 9 9 y ",
"eXy 9 9 9 9 9 9 9 9 9 9 s 9 6 7 7 9 9 9 9 9 9 9 9 9 9 9 7 K.",
"BXm 6 7 7 7 7 7 7 7 7 6 6 6 7 7 7 7 7 7 7 7 7 7 7 6 7 6 y mX",
"VXbXs 9 6 6 6 6 6 6 6 6 6 6 6 6 6 6 6 6 6 6 6 6 6 6 6 r kXVX",
"VXVXMXQ.r 6 6 6 6 6 6 6 6 6 6 6 6 6 6 6 6 6 6 6 6 6 j.nXVXVX"
};
