/* XPM */
static char *FB_PozoPluvial_A[] = {
/* columns rows colors chars-per-pixel */
"30 30 256 2 ",
"   c #1C1E1F",
".  c #141617",
"X  c #210E0F",
"o  c #211313",
"O  c #1D2F30",
"+  c #232526",
"@  c #292F2F",
"#  c #213C3B",
"$  c #373737",
"%  c #0E4343",
"&  c #2A4141",
"*  c #3C5F5F",
"=  c #127676",
"-  c #4D4A48",
";  c #534C4C",
":  c #5D5E5F",
">  c #5D5954",
",  c #53537A",
"<  c #636466",
"1  c #656666",
"2  c #626364",
"3  c #6B6A6A",
"4  c #666A68",
"5  c #6E7071",
"6  c #767574",
"7  c #7A7976",
"8  c #7C7A77",
"9  c #7B7B7B",
"0  c #666677",
"q  c #8C8C78",
"w  c #39389B",
"e  c #255B9C",
"r  c #2C5E9A",
"t  c #2D5F9C",
"y  c #2A5E9C",
"u  c #2E619E",
"i  c #2B609F",
"p  c #30629E",
"a  c #255CA2",
"s  c #2B5EA4",
"d  c #2E63A1",
"f  c #2E64A6",
"g  c #2F64A3",
"h  c #2E66A9",
"j  c #2F67AC",
"k  c #2F68AD",
"l  c #3164A2",
"z  c #3165A5",
"x  c #3365A3",
"c  c #3B6BA5",
"v  c #3266A9",
"b  c #3168AA",
"n  c #3269AD",
"m  c #3469AC",
"M  c #3C6DAE",
"N  c #3669A4",
"B  c #316BB0",
"V  c #326CB2",
"C  c #356DB2",
"Z  c #336EB3",
"A  c #3C6DB1",
"S  c #3B6DB5",
"D  c #3670B6",
"F  c #3270B7",
"G  c #3D72B3",
"H  c #3672B9",
"J  c #3572BD",
"K  c #3371BA",
"L  c #3975BE",
"P  c #3C75B9",
"I  c #424283",
"U  c #545486",
"Y  c #454599",
"T  c #5F5FB6",
"R  c #406FA8",
"E  c #4774AB",
"W  c #4E78AE",
"Q  c #4177B8",
"!  c #477BBA",
"~  c #477DBA",
"^  c #417ABD",
"/  c #487CBA",
"(  c #487CBB",
")  c #4679B7",
"_  c #507FB8",
"`  c #0C0DD2",
"'  c #0302EF",
"]  c #0000F3",
"[  c #0000FE",
"{  c #0404FC",
"}  c #0C0CFB",
"|  c #1819FB",
" . c #2323E5",
".. c #2728F6",
"X. c #2323FB",
"o. c #2D2DF9",
"O. c #3334F6",
"+. c #3634F9",
"@. c #2F73C5",
"#. c #3374C3",
"$. c #3576C6",
"%. c #3474C2",
"&. c #3977C1",
"*. c #3778C6",
"=. c #3A78C2",
"-. c #3A7AC6",
";. c #3C7BC7",
":. c #3D7CC7",
">. c #3C7AC3",
",. c #3679C9",
"<. c #3A7BC9",
"1. c #3B7CC9",
"2. c #3D7CC9",
"3. c #4445CC",
"4. c #4B4BD0",
"5. c #5B5BD7",
"6. c #447EC3",
"7. c #5657EE",
"8. c #4E4EF8",
"9. c #5757F2",
"0. c #6068E6",
"q. c #6B6AE5",
"w. c #7978EF",
"e. c #6764FC",
"r. c #0B9494",
"t. c #0BAAAA",
"y. c #7F9E9E",
"u. c #5983AC",
"i. c #4E80BD",
"p. c #5585BD",
"a. c #5F85B3",
"s. c #7289A6",
"d. c #738DAC",
"f. c #7287A2",
"g. c #7690AF",
"h. c #658CBD",
"j. c #6285BA",
"k. c #7B98BC",
"l. c #55BEBE",
"z. c #6DA6A6",
"x. c #4C83C3",
"c. c #4782C9",
"v. c #4982C6",
"b. c #5387C5",
"n. c #5C8BC4",
"m. c #5A8DC9",
"M. c #618EC7",
"N. c #6893C7",
"B. c #7E9EC4",
"V. c #749CCB",
"C. c #7B9FCB",
"Z. c #79A1D2",
"A. c #00C9C9",
"S. c #05D6D7",
"D. c #03E1E1",
"F. c #19EAEA",
"G. c #00FDFD",
"H. c #05F5F5",
"J. c #5FC0C0",
"K. c #54CDCD",
"L. c #44F5F5",
"P. c #808080",
"I. c #8B8C8D",
"U. c #888684",
"Y. c #928F8E",
"T. c #97978C",
"R. c #8C8C97",
"E. c #929292",
"W. c #919494",
"Q. c #959495",
"!. c #939292",
"~. c #979899",
"^. c #9C9B9C",
"/. c #A5A594",
"(. c #A1A19A",
"). c #8F9AA7",
"_. c #9C9FA1",
"`. c #9EA1A3",
"'. c #8CA0B8",
"]. c #94A7BC",
"[. c #A1A1A1",
"{. c #A6A6A7",
"}. c #A3A4A3",
"|. c gray67",
" X c #ADADAB",
".X c #AEAEAE",
"XX c #AAAAAC",
"oX c #A8A7A6",
"OX c #B3B1AD",
"+X c #A3AAB3",
"@X c #A5AEB6",
"#X c #ADB1B4",
"$X c #A6B2BF",
"%X c #B2B2B2",
"&X c #B7B3B1",
"*X c #BEBDBC",
"=X c #B6B7B7",
"-X c #C2C29C",
";X c #839FC0",
":X c #8F99D9",
">X c #84A1C3",
",X c #89A8CC",
"<X c #99AAC5",
"1X c #9CB0C6",
"2X c #81A6D1",
"3X c #85A9D3",
"4X c #8CADD4",
"5X c #9FAED0",
"6X c #98B6D8",
"7X c #A2B3CD",
"8X c #AABBC8",
"9X c #BABBC4",
"0X c #A8B6D2",
"qX c #AABBD1",
"wX c #A7B7D2",
"eX c #B7B7DE",
"rX c #8D8DE9",
"tX c #8E90E5",
"yX c #9C9AEA",
"uX c #A6A5E5",
"iX c #B3B3E3",
"pX c #BFC0C0",
"aX c #B3C2CD",
"sX c #B4C2D3",
"dX c #B4C4D8",
"fX c #B1C8E2",
"gX c #C3C3C2",
"hX c #CDCAC6",
"jX c #CBCCCB",
"kX c #D0CFCC",
"lX c #C0C9D3",
"zX c #CCD3DD",
"xX c #D5D6D6",
"cX c #D3D5D8",
"vX c #DCDBD9",
"bX c #E1DEDF",
"nX c #E3E3DB",
"mX c #ECEBDC",
"MX c #C2C1E5",
"NX c #D2CFE2",
"BX c #DADAE7",
"VX c #D3D9EC",
"CX c #C5D5E7",
"ZX c #E0DEE0",
"AX c #DAE1E9",
"SX c #DEE7F2",
"DX c #E3E3E3",
"FX c #ECEBE5",
"GX c #E7E7E8",
"HX c #E3EBF5",
"JX c #EEF2F8",
"KX c #E9F0F6",
"LX c #F3F6FA",
"PX c #FEFEFE",
"IX c #FAFBFC",
"UX c #F7FAFD",
/* pixels */
"PXPXIXSX6Xn.! ( ( ( ( ( ( ( ( ( ( ( ( ( ( ( ( ! n.4XVXIXPXPX",
"PXJX3Xx.=.1.<.<.<.<.<.<.<.<.<.<.<.<.<.<.<.1.1.<.2.=.v.V.HXPX",
"IX2X%.1.1.<.<.<.<.<.<.<.<.<.<.<.<.<.<.2.2.2.1.,.,.1.1.*.M.LX",
"AXx.<.;.<.<.<.<.<.<.<.<.<.<.<.<.<.<.<.*.$.@.$.c.c.-.-.<.6.fX",
"3X>.-.-.;.-.;.;.;.;.;.;.;.;.;.;.;.-.;.c.m.Z.3XsXsXm.*.;.-.n.",
"p.;.-.-.;.;.;.;.:.2.*.-.:.:.;.-.$.#.6.].lXvXhX=X=XB.2.-.-./ ",
"/ -.-.-.-.-.-.$.%.%.b.6.%.#.&.6.m.Z.>XoXxX[.).a.E i.:.-.-.( ",
"( =.=.=.=.=.b.>X4X6XsXdXC.N.,X7X@XI.I._.cX.X+X2X<.#.=.=.=.( ",
"( =.=.=.=.&.h.}. X*X}.&XcX#X7 > - + $ `.jX.X%X#XB.6.&.=.&.( ",
"( &.&.L L L M.].^.~.~.I.xX6   . . . @ %X*X4 E.OX$Xb.J &.&.~ ",
"/ L L L L h.+X#X.X|.%XQ.xX2   + + X # L.K.% ; gX8X( J L L / ",
"( L L K 6.g.U.[..X|.: 6 vX1 o o O = = D.A.& 9 kXqXQ J L J ~ ",
"~ H H F 6.d.6 9 {.jX3 6 vX1 r.S.S.H.H.t.* 7 ~.hXqXQ K H H / ",
"/ H H Z ^ d.7 1 |.DX[.5 &XJ.F.G.G.H.F.z.I.!.W.hXwXQ F H D / ",
"/ D D V ^ d.8 1 .XDX}.3 ^.`.W.l.l.y.W.Q.Q.!.W.jXqXG Z D Z / ",
"/ C C B P d.7 <  XAX`.3 ^.^.!.Y.!.Q.E.E.T.E.3.yXaXS V C C / ",
"/ C C B P s.7 2  XVX5., (.^.I.9 {.*X(.!.R.3.[ yXaXS B C V ( ",
"! B B k G s.7 <  XBXX.I /.{.U.P.%XgX9XT  .{ } uXaXS k B n ! ",
"/ n n j G s.7 <  XBXo.w q /.T.6 .X9Xq.[ { [ O.NX0XA k n n / ",
"/ n n h G s.7 < XXFX7.' Y U U 4 {.9X9.{ [ } tXmX5XA h m b / ",
"/ b b h G s.7 1 XXFXeXX.[ ] ] 0 -XpXO.[ ..rXmXFX0XA h b h / ",
"/ v v f M s.8 1  XGXnXuX9.X.| ` 4.q.+.w.MXzX0X7Xh.m z v f / ",
"/ z z g M f.6 1 |.GXcXnXnXiXiXe.8.0.:X8X;Xj.M v a g z z f / ",
"/ l l d z d.Y.: XXGXnXZXbXcX1X<Xk.u.W s a s d l z z l l d / ",
"/ g d d i R '.9 oXzX1Xk.a.W s s a e e d l l l l d d d d u ! ",
"V.z u u u y c g.d.E N i e e u u u d d u u u u u u u u u u p.",
"CXE t u u u y N x e y u p u u u u u u u u u u u u u u u N 6X",
"UXN.t r t t t y y u t t t t t t t t t t t t t t t t t r _ JX",
"PXHXp.c r r r r r r r r r r r r r r r r r r r r r r l _ SXPX",
"PXPXLX6Xi./ / / / / / / / / / / / / / / / / / / / / 2XKXPXPX"
};
