/* XPM */
static char *FB_PozosFecales_SC[] = {
/* columns rows colors chars-per-pixel */
"30 30 256 2 ",
"   c #14150F",
".  c #141719",
"X  c #181A1A",
"o  c #232323",
"O  c #2B2626",
"+  c #3E3E3E",
"@  c #7B3A01",
"#  c #783400",
"$  c #4A372D",
"%  c #5F3F2F",
"&  c #78430C",
"*  c #534136",
"=  c #6E4821",
"-  c #624837",
";  c #78563A",
":  c #363540",
">  c #464644",
",  c #5B5856",
"<  c #494859",
"1  c #6B594C",
"2  c #725C44",
"3  c #776858",
"4  c #686867",
"5  c #6F6E71",
"6  c #706F73",
"7  c #7C7A77",
"8  c #76767B",
"9  c #7F7F7F",
"0  c #7B7A7A",
"q  c #776C65",
"w  c #824D16",
"e  c #805324",
"r  c #915C26",
"t  c #825337",
"y  c #955E3E",
"u  c #9A6C3D",
"i  c #A5613B",
"p  c #966E47",
"a  c #936C54",
"s  c #887054",
"d  c #997454",
"f  c #BC7143",
"g  c #A67B56",
"h  c #BC7E5B",
"j  c #A76A47",
"k  c #8B7B6D",
"l  c #CA794A",
"z  c #CD7E51",
"x  c #FFCB00",
"c  c #FFCD00",
"v  c #FFCF05",
"b  c #FACF02",
"n  c #FFCE0C",
"m  c #FED100",
"M  c #FED500",
"N  c #FDD202",
"B  c #FEDA00",
"V  c #FEDE00",
"C  c #F9DA00",
"Z  c #FDD30D",
"A  c #FDD80F",
"S  c #F6CF11",
"D  c #FFD112",
"F  c #FFD21C",
"G  c #F7DF1D",
"H  c #F5D41C",
"J  c #FEE100",
"K  c #FEE600",
"L  c #FEE104",
"P  c #FEE900",
"I  c #FEED00",
"U  c #FAEC06",
"Y  c #F5EE0D",
"T  c #FEF100",
"R  c #FEF500",
"E  c #FAF203",
"W  c #FEFA01",
"Q  c #FEFE02",
"!  c #FFFD06",
"~  c #FBF40A",
"^  c #FFFE0A",
"/  c #FFFF0C",
"(  c #FBFA0F",
")  c #F7F50C",
"_  c #EDE31B",
"`  c #FEFE10",
"'  c #FEFD16",
"]  c #FFFE1E",
"[  c #FEFC1A",
"{  c #F9F419",
"}  c #F3DE26",
"|  c #FFD628",
" . c #FAD729",
".. c #EED136",
"X. c #EDDC3B",
"o. c #E8D73A",
"O. c #F8D333",
"+. c #EFE426",
"@. c #F0E325",
"#. c #FFE224",
"$. c #F2EB25",
"%. c #FFED25",
"&. c #FCE22B",
"*. c #FEFE21",
"=. c #FEFE2E",
"-. c #FBFB2A",
";. c #FFEF35",
":. c #F4EF33",
">. c #F7F732",
",. c #FEFE31",
"<. c #FFFF3A",
"1. c #FFFF3E",
"2. c #FEF438",
"3. c #AF8E5B",
"4. c #BE9D52",
"5. c #9D826D",
"6. c #858277",
"7. c #828176",
"8. c #83827F",
"9. c #9D8678",
"0. c #979877",
"q. c #AA8966",
"w. c #B98668",
"e. c #B7946F",
"r. c #A68978",
"t. c #AE917B",
"y. c #ADAC6F",
"u. c #A5A275",
"i. c #A2A176",
"p. c #A4A078",
"a. c #B3AD7D",
"s. c #B8B378",
"d. c #D3B75B",
"f. c #CB9476",
"g. c #CDBE75",
"h. c #DCCA4D",
"j. c #DEC950",
"k. c #D4D359",
"l. c #F2DB42",
"z. c #FFDD45",
"x. c #F1D643",
"c. c #E7CE55",
"v. c #E0D759",
"b. c #EDD658",
"n. c #FFDB54",
"m. c #E8D54A",
"M. c #E9E84A",
"N. c #FEFE40",
"B. c #FDFE45",
"V. c #F7F748",
"C. c #FEFB4C",
"Z. c #EEEE50",
"A. c #E8E556",
"S. c #FFE158",
"D. c #FEE057",
"F. c #FFFF57",
"G. c #FEFF58",
"H. c #D2C462",
"J. c #DEDB64",
"K. c #CBC97A",
"L. c #DDDA7B",
"P. c #CBCA67",
"I. c #E8DB68",
"U. c #E5D37A",
"Y. c #E2DD75",
"T. c #E8E763",
"R. c #FFE362",
"E. c #FEE169",
"W. c #E0E079",
"Q. c #FFE479",
"!. c #7E7F80",
"~. c #848483",
"^. c #838489",
"/. c #8E8F8E",
"(. c #8B8B8A",
"). c #938F8C",
"_. c #978D87",
"`. c #9E9088",
"'. c #92918F",
"]. c #868B90",
"[. c #8D9192",
"{. c #939494",
"}. c #9F9E9E",
"|. c #9B9A9A",
" X c #989897",
".X c #A49487",
"XX c #B39583",
"oX c #B99E82",
"OX c #A39D98",
"+X c #BBA085",
"@X c #A2A19E",
"#X c #ACA59E",
"$X c #BCB989",
"%X c #9A9FA4",
"&X c #A1A2A2",
"*X c #A5A5A5",
"=X c #A3A4A3",
"-X c #A9A7A5",
";X c #AAAAAA",
":X c #ADACA9",
">X c #ACACA2",
",X c #B0AFAF",
"<X c #BAAFA8",
"1X c #BAB9AA",
"2X c #B4B3A4",
"3X c #AEAEBC",
"4X c #A9A9B1",
"5X c #B2B1B1",
"6X c #B6B6B2",
"7X c #B6B6B5",
"8X c #B5B5B8",
"9X c #B7B9B9",
"0X c #BDBCBA",
"qX c #BABBBA",
"wX c #BBB8B3",
"eX c #C3B78D",
"rX c #C2AD95",
"tX c #C9B79A",
"yX c #C2BEBA",
"uX c #C3C296",
"iX c #DFD998",
"pX c #D7D698",
"aX c #C7C68C",
"sX c #EBDE80",
"dX c #E1D394",
"fX c #E0E081",
"gX c #FFEB95",
"hX c #CBC6A9",
"jX c #CCCAB5",
"kX c #C2C1BF",
"lX c #CCC4BE",
"zX c #CDCBB8",
"xX c #D8D1B5",
"cX c #E0D7AF",
"vX c #FEEEAF",
"bX c #B9B9C8",
"nX c #C4C3C3",
"mX c #CCCBCA",
"MX c #CECAC5",
"NX c #D2CFCB",
"BX c #DDD9C4",
"VX c #DFDDCF",
"CX c #D4D4D2",
"ZX c #DAD8D7",
"AX c #FFF2C2",
"SX c #FFF5CE",
"DX c #E1E0DD",
"FX c #FFF6D4",
"GX c #FFF7DB",
"HX c #DFE0E2",
"JX c #E3E4E4",
"KX c #FFF9E3",
"LX c #FFFAEB",
"PX c #FFFCF5",
"IX c #FFFFFE",
"UX c #FFFDF9",
/* pixels */
"IXIXUXFXQ.| v v v v v v v v v v v v v v v v v v F R.AXPXIXIX",
"IXLXR.#.;.C.G.F.F.F.F.F.F.F.F.F.F.G.G.G.F.F.F.F.C.2.&.z.FXIX",
"UXD.%.B.N.N.N.N.N.N.N.N.N.N.N.N.N.1.<.<.N.N.N.N.N.N.B.2. .LX",
"AX#.,.=.=.=.,.,.,.,.=.,.,.,.,.=.-.,.B.B.=.,.=.=.=.=.=.,.%.gX",
"S.{ ] ] ] ] *.*.] ] *.*.[ ' ' M.T.fXhXpX>.[ ] ] ] ] ] ] [ | ",
"D / / ^ / ^ Q Q ` ( Q Q ` -.V.uXmX8XK.k.-.! / / / / ^ ^ / v ",
"c Q Q Q Q { M.T.W.L.Z.A.P.y.0.}.nX>XJ.) Q Q Q Q Q Q Q Q Q c ",
"c W W W W { aX3X4X3XkX~.< : O  X9X&X1XA.W W W W ! W W W Q c ",
"c W W W ~ M.uX@X@X=X*X>   . . XX9., 5XL.E W W W W W W W W c ",
"c R R W $.s.|.6X~./.;X> O $ - j ; , 0XY.E E Y :.A.$.R R W c ",
"c R R R $.i.8 7X X~.-Xa i f l a q /.qXI._ L.pXhX1XJ.~ R R c ",
"c T T T @.u.5 6XnX9  X.Xw.w.XX_.(. X0XiXK.8XbX$Xo._ E T R c ",
"c T T T +.u.6 6XyX7 {.;X5XnX0XnX7XOX(.4 4 7X0X2Xv.U T T T c ",
"c I I I +.u.5 7X+X3  X:X=X=X}.5X&X+ o . > 6X{.{.hXX.I I T c ",
"x I I I @.u.5 9Xe.2 %X5X;X-X}.;X(.o X . * f.- 4 zXX.P I I c ",
"c P P P @.u.5 9XtXe k ^.|.,X4 *X).$ % t y y 1 {.zXX.P P P x ",
"c K K P } u.6 6XDXg d 7 ~.mX{.{.OXg z z h k ~.=XjXX.K P P c ",
"c K K K } p.5 6XJXNX<X0 !.mX*X0 @X`.r.r._.{.'.|.hXX.K K K x ",
"c J J K G s.8 5XJXBXjX8.9 mX.X7 }./.[.&X|.{.k p eXl.J K K c ",
"x J J J L X.a.eXsXm.H.7.!.lXp 0 *X/.).kX#Xs w r tXX.V J J c ",
"c J V V V V &.} C V h.6.!.MXu 3 /.~.(.0Xq.@ @ g xX..V J J x ",
"x V V V V V V V V V h.6.9 CXoX& = ; ].0Xu # u lXVX..V V V c ",
"x B B B B B B B B B h.6.!.CXZXq.r w ; 5.d t.hXcXU.H B B B x ",
"x B B M B B B M M M j.6.9 CXHXZXlXrX3.4.d.I.x.H Z M B M B x ",
"v M M M M M M M M M O.a.^.NXBXdXU.b.x. .A N M M M M M M M x ",
"z.m M m M M M M m M N ..g.c...S b b m m M M M M M M m M m D ",
"vXZ m m m m m m m m m m Z m m m m m m m m m m m m m m m N E.",
"PXO.c m c m m m m m m m c m m m m m m m m m m m m c m c D KX",
"IXGXF v c c c c c c c c c c c c c c c c c c c c c c c n SXIX",
"IXIXLXQ.n x x x x x x x x x x x x x x x x x x x x v n.KXIXIX"
};
