/* XPM */
static char *FB_PozoPluvial_FS[] = {
/* columns rows colors chars-per-pixel */
"30 30 256 2 ",
"   c #151414",
".  c #1C1D1D",
"X  c #220E0E",
"o  c #211313",
"O  c #1D2F2F",
"+  c #242525",
"@  c #2A2F2F",
"#  c #213B3B",
"$  c #373737",
"%  c #0F4343",
"&  c #2B4141",
"*  c #3D5F5F",
"=  c #127676",
"-  c #474C4D",
";  c #5F5D5D",
":  c #545D5D",
">  c #564B4B",
",  c #535379",
"<  c #666565",
"1  c #656364",
"2  c #6A6B6B",
"3  c #656A69",
"4  c #6E7071",
"5  c #747676",
"6  c #767A7B",
"7  c #767B7C",
"8  c #777C7C",
"9  c #7C7A7A",
"0  c #666677",
"q  c #9D221F",
"w  c #9E2624",
"e  c #9E2D2A",
"r  c #9E2C2A",
"t  c #9D2F36",
"y  c #9D2E38",
"u  c #A22826",
"i  c #A12E2A",
"p  c #A22F2C",
"a  c #A52D2A",
"s  c #AC2F2B",
"d  c #A02624",
"f  c #A2302E",
"g  c #A5312E",
"h  c #A9312E",
"j  c #AD312E",
"k  c #B3312D",
"l  c #BC332F",
"z  c #A63330",
"x  c #A43533",
"c  c #AC3431",
"v  c #A6393A",
"b  c #B23431",
"n  c #B63532",
"m  c #B53431",
"M  c #BA3532",
"N  c #BC3633",
"B  c #BE3936",
"V  c #BA3835",
"C  c #B43D3A",
"Z  c #BA3F3C",
"A  c #C8312E",
"S  c #C7332F",
"D  c #C43531",
"F  c #CA3532",
"G  c #CB3734",
"H  c #C23A36",
"J  c #C63A36",
"K  c #CA3936",
"L  c #CD3B37",
"P  c #C63B38",
"I  c #C73C39",
"U  c #C23B38",
"Y  c #CB3B39",
"T  c #CB3D3A",
"R  c #CC3C39",
"E  c #CC3D3A",
"W  c #AA413E",
"Q  c #BD403D",
"!  c #C3413F",
"~  c #AD3C44",
"^  c #AB3D44",
"/  c #A63B44",
"(  c #B23F42",
")  c #AB4846",
"_  c #B44442",
"`  c #BB4543",
"'  c #BD4946",
"]  c #BB4946",
"[  c #BC4C49",
"{  c #BC514E",
"}  c #B5554B",
"|  c #AA4D51",
" . c #BE5754",
".. c #B6615F",
"X. c #B25F60",
"o. c #B5646A",
"O. c #BF6462",
"+. c #A67270",
"@. c #A97271",
"#. c #AE7573",
"$. c #B07574",
"%. c #BB7C7C",
"&. c #C54542",
"*. c #CB4644",
"=. c #C64945",
"-. c #C44F4C",
";. c #CC4A47",
":. c #C35653",
">. c #CA5451",
",. c #C65F5D",
"<. c #CD5B59",
"1. c #C45957",
"2. c #C8625F",
"3. c #C76966",
"4. c #CF716F",
"5. c #CB7D7B",
"6. c #C97A7A",
"7. c #D47978",
"8. c #8C8C78",
"9. c #39399B",
"0. c #434283",
"q. c #555486",
"w. c #464599",
"e. c #5F5FB6",
"r. c #0303EF",
"t. c #0100F2",
"y. c #0100FE",
"u. c #0404FB",
"i. c #0B09F7",
"p. c #100FFA",
"a. c #1A18F8",
"s. c #2323E4",
"d. c #2423FB",
"f. c #2B2AF7",
"g. c #3434F7",
"h. c #0E0CD0",
"j. c #4746CC",
"k. c #5B5BD5",
"l. c #7361D3",
"z. c #504EF6",
"x. c #5857F1",
"c. c #5856ED",
"v. c #5F67FF",
"b. c #6A6BE7",
"n. c #7679F2",
"m. c #0B9493",
"M. c #0CA9A9",
"N. c #7F9E9E",
"B. c #55BEBE",
"V. c #60BFBF",
"C. c #6DA6A6",
"Z. c #00C9C9",
"A. c #05D6D5",
"S. c #03E1E1",
"D. c #1AE9E9",
"F. c #00FDFD",
"G. c #06F5F5",
"H. c #45F5F5",
"J. c #54CCCC",
"K. c #8C8C8C",
"L. c #828586",
"P. c #928F8F",
"I. c #8C8C98",
"U. c #8B9192",
"Y. c #949291",
"T. c #959495",
"R. c #939392",
"E. c #999797",
"W. c #9B9B9B",
"Q. c #979789",
"!. c #A7908F",
"~. c #A09D9D",
"^. c #BD9799",
"/. c #BA8C8B",
"(. c #A5A594",
"). c #A1A19A",
"_. c #A09FA3",
"`. c #9DA2A2",
"'. c #A1A1A1",
"]. c #A5A5A5",
"[. c gray67",
"{. c #ADADAB",
"}. c #AEAEAE",
"|. c #AAABAC",
" X c #A4A8AA",
".X c #B3A3A3",
"XX c #BCA4A3",
"oX c #B6ABAB",
"OX c #B1B0AF",
"+X c #BFA0B1",
"@X c #AEB4B4",
"#X c #B2B3B2",
"$X c #B7B2B2",
"%X c gray74",
"&X c #B7B7B7",
"*X c #C68786",
"=X c #D48483",
"-X c #D58987",
";X c #C0908F",
":X c #D6908F",
">X c #C79D9C",
",X c #DB9C9B",
"<X c #D89694",
"1X c #D8AB98",
"2X c #C09FA2",
"3X c #CCABAC",
"4X c #CAA2A4",
"5X c #D4B3AC",
"6X c #C9A9B1",
"7X c #C5A8B7",
"8X c #C1BFBE",
"9X c #D5B4B4",
"0X c #D9B4B3",
"qX c #E3B2B1",
"wX c #C2C29B",
"eX c #C0C0BF",
"rX c #D4C0BF",
"tX c #A690C3",
"yX c #BBBAC4",
"uX c #B6B7DE",
"iX c #8B8DEB",
"pX c #938EE1",
"aX c #999EEC",
"sX c #959AF0",
"dX c #9DA3EC",
"fX c #B0B3E7",
"gX c #AAAAE3",
"hX c #BFC2E9",
"jX c #C3CBCB",
"kX c #C9CCCC",
"lX c #DCCCCD",
"zX c #DDD1CB",
"xX c #CAD2D2",
"cX c #D6D5D5",
"vX c #D4D1D6",
"bX c #D9DBDB",
"nX c #EFD3D3",
"mX c #F3DDDD",
"MX c #EAC5C5",
"NX c #E6E4D9",
"BX c #E4E4DA",
"VX c #F3E0DE",
"CX c #CCD1E6",
"ZX c #DADAE7",
"AX c #D4D4EB",
"SX c #E0DFE1",
"DX c #DDE1E4",
"FX c #ECECE7",
"GX c #E4E6E6",
"HX c #F5E4E3",
"JX c #F9EEEE",
"KX c #F7E9E8",
"LX c #EBF0E0",
"PX c #FEFEFE",
"IX c #FCFAFA",
"UX c #FBF5F4",
/* pixels */
"PXPXIXVX,X,.' ' ' ' ' ' ' ' ' ' ' ' ' ' ' ' ' ' 1.-XnXIXPXPX",
"PXJX-X=.J Y L L L L L L L L L L L L L L L L L L R J =.4.HXPX",
"IX=XJ L R R R R R R R R R R R R R R R R R E R G G R R K 2.UX",
"nX-.L T Y Y Y Y Y Y Y Y Y Y Y Y Y R Y K F A F ;.*.K Y R *.qX",
"=XT Y T T T T T T T T T T T T T E T T *.<.7.=X9X9X<.G T Y ,.",
":.T T T T T T E E E K K E E T K F A =.;XrXbXjX$X&X5.E Y T [ ",
"' T T Y T T K G D D >.=.F S J *.<.7.*X XcX'.!...) -.E Y Y ' ",
"' I P P P J :.*X:X<X9X0X5.3.:X4XXXK.K.~.cX}..X=XL F I I P ' ",
"' P P P P J 3.'.|.%X].@XcXoX6 : - + $ '.kX}.#XOX6.! J P J ' ",
"' H H U H H 3.^.W.E.E.K.cX5 .     . @ #X%X3 Y.@XXX>.D U H ' ",
"' H H H H O..XoX{.[.#XT.cX1 . + + X # H.J.% > jX3X' D U H ' ",
"' B B N ! $.L.'.}.[.; 5 bX< o o O = = S.Z.& 9 xX3X` N B B ' ",
"' B B N &.#.5 9 ].kX2 5 bX< m.A.A.F.G.M.* 9 E.kX3X` N B B ' ",
"' N N M ! #.6 < [.GX'.4 $XV.D.F.F.G.D.C.K.R.R.kX6X_ l V N ' ",
"' V V m ! #.7 < }.GX].2 W.`.R.B.B.N.R.T.T.R.Y.kX6X( l V M ' ",
"' n n k Q @.6 1 {.SX_.2 W.W.Y.P.Y.T.Y.Y.T.R.j.sX5X~ k n n ' ",
"' n n k Z @.6 1 {.AXk., ).W.K.9 ].%X).R.I.j.y.aX5X~ k n m ' ",
"' b b k Z @.6 1 {.ZXd.0.(. XL.L.#XeXyXe.s.u.i.dX5X^ k b b ] ",
"' b b j Z @.7 1 {.ZXf.9.8.(.Q.5 }.yXb.y.u.y.g.CX6X^ k b k ' ",
"' c c s C +.6 1 |.FXc.r.w.q.q.< ].yXx.u.y.p.pXBX+X^ s c j ' ",
"' j j s C @.7 < |.FXuXd.y.t.t.0 wX8Xg.y.f.iXLXGX7X^ s c j ] ",
"' j j s C @.8 < {.GXNXgXx.d.a.h.j.b.g.n.hXlX7X4Xo.c h c h ' ",
"] h h a C +.5 < [.GXvXNXNXfXfXv.z.l.tX1X*Xo./ v u h h h s ' ",
"' g g a z $.U.; {.FXDXDXDXzX>X^.%.} } y w a a g z g g g a ' ",
"[ g p g i W /.8  XlX2X%.X.| t t r d u a g g g g g g g g i ] ",
"6.z i p p u v $.#.) v i q w a a p f f p p p p p p p p p i :.",
"MX_ e p p p r x z w i i f f p p p p p p p p p p p p p i c <X",
"IX3.i e e e e r r e e e e e e e e e e e e e e e e e e r { JX",
"PXHX .v e e e e e e e e e e e e e e e e e e e e e e x [ mXPX",
"PXPXUX,X{ ' ' ' ' ' ' ' ' ' ' ' ' ' ' ' ' ' ' ' ' [ =XKXPXPX"
};
