/* XPM */
static char *FB_PozosPluviales_A_R[] = {
/* columns rows colors chars-per-pixel */
"30 30 256 2 ",
"   c #1B1213",
".  c #181819",
"X  c #1C2F2F",
"o  c #242323",
"O  c #262B2A",
"+  c #393A37",
"@  c #3E3E40",
"#  c #1C4F50",
"$  c #1A5858",
"%  c #265C5D",
"&  c #136F6F",
"*  c #167575",
"=  c #2B6B6C",
"-  c #3D7374",
";  c #464848",
":  c #4D5858",
">  c #586160",
",  c #5A7B7B",
"<  c #676768",
"1  c #706F6F",
"2  c #70706F",
"3  c #6F6F70",
"4  c #706F70",
"5  c #727272",
"6  c #7F7F7F",
"7  c #7A7A7C",
"8  c #79797B",
"9  c #807F7F",
"0  c #80807E",
"q  c #909177",
"w  c #3333A9",
"e  c #2222B5",
"r  c #3C3CBC",
"t  c #2F619B",
"y  c #30619B",
"u  c #32629D",
"i  c #34649E",
"p  c #33649E",
"a  c #3667A1",
"s  c #3665A4",
"d  c #3868A1",
"f  c #3D6BA4",
"g  c #3E6CA5",
"h  c #3C6BA3",
"j  c #3E6EA8",
"k  c #3868A6",
"l  c #595993",
"z  c #7B7D80",
"x  c #7A7A84",
"c  c #777782",
"v  c #4444A1",
"b  c #5555BA",
"n  c #416FA7",
"m  c #416FA8",
"M  c #4573AB",
"N  c #4572AC",
"B  c #4976AE",
"V  c #4A74A9",
"C  c #4571A7",
"Z  c #4E7BB1",
"A  c #4D7BB3",
"S  c #497DB9",
"D  c #4C7FBB",
"F  c #4C7EBC",
"G  c #4A7EBB",
"H  c #527EB4",
"J  c #557EB7",
"K  c #6D6DA9",
"L  c #2425D8",
"P  c #0C0CE1",
"I  c #0000FD",
"U  c #1212F3",
"Y  c #1B1CE6",
"T  c #2626FA",
"R  c #3D3DF2",
"E  c #5151D8",
"W  c #666BDC",
"Q  c #4242EC",
"!  c #4949E0",
"~  c #5655F2",
"^  c #5859EC",
"/  c #6164EC",
"(  c #6D6DE5",
")  c #6F6FFF",
"_  c #7875F0",
"`  c #0B9E9E",
"'  c #199494",
"]  c #0EADAD",
"[  c #07BCBC",
"{  c #2AAFAF",
"}  c #37A4A4",
"|  c #619191",
" . c #5B83AE",
".. c #4D80BB",
"X. c #4D80BC",
"o. c #4B80BC",
"O. c #5582B7",
"+. c #5082BD",
"@. c #5683BA",
"#. c #5A86BB",
"$. c #5E89BE",
"%. c #6283AF",
"&. c #7790AF",
"*. c #6B8DBD",
"=. c #6589B7",
"-. c #6C91BD",
";. c #7992B2",
":. c #7393BD",
">. c #7D9BBD",
",. c #7790B0",
"<. c #51BFBF",
"1. c #67ACAC",
"2. c #78B2B2",
"3. c #7CA6A6",
"4. c #5A8AC2",
"5. c #628CC1",
"6. c #638EC3",
"7. c #6791C5",
"8. c #6690C3",
"9. c #6A94C6",
"0. c #6B95CA",
"q. c #6F98CB",
"w. c #7C9CC5",
"e. c #729BCE",
"r. c #749DCD",
"t. c #7A9ECB",
"y. c #7697C2",
"u. c #7484D1",
"i. c #769FD1",
"p. c #7EA1CB",
"a. c #7EA6D6",
"s. c #7BA3D3",
"d. c #7BA3D5",
"f. c #07CBCB",
"g. c #1FCBCB",
"h. c #23DEDE",
"j. c #3AD5D5",
"k. c #00E7E7",
"l. c #05F8F8",
"z. c #68C3C3",
"x. c #45E9E9",
"c. c #838383",
"v. c #8E8E8E",
"b. c #8B8A8A",
"n. c #888884",
"m. c #938E8D",
"M. c #93938F",
"N. c #9B9A8B",
"B. c #898E97",
"V. c #918F90",
"C. c #88909A",
"Z. c #8C939C",
"A. c #879697",
"S. c #949494",
"D. c #9A9A97",
"F. c #939A9B",
"G. c #9E9F9F",
"H. c #9B9A9B",
"J. c #9D9696",
"K. c #A49F9F",
"L. c #A4A48F",
"P. c #A6A69F",
"I. c #8B97A6",
"U. c #909AA6",
"Y. c #9F9FA3",
"T. c #9897A8",
"R. c #9E9FB9",
"E. c #8791B8",
"W. c #85ADAE",
"Q. c #9AA3A8",
"!. c #9DA6B2",
"~. c #A4A3A3",
"^. c #A4A9A9",
"/. c #A9AAAA",
"(. c #ACAAAB",
"). c #B2B0AE",
"_. c #AEAFB1",
"`. c #A1ADBA",
"'. c #ADB5BD",
"]. c #AEB8B8",
"[. c #B6B6B6",
"{. c #B3B3B2",
"}. c #B3B6B9",
"|. c #BABBBC",
" X c #B9BAB7",
".X c #C1BCBB",
"XX c #BEC2BF",
"oX c #84A4CB",
"OX c #89A4C4",
"+X c #98ABC5",
"@X c #9EB2C8",
"#X c #81A6D3",
"$X c #81A9D6",
"%X c #8BACD4",
"&X c #82A9DA",
"*X c #85ABDA",
"=X c #87AEDD",
"-X c #86ACDA",
";X c #88AFDE",
":X c #89B1DE",
">X c #8FB0D6",
",X c #93B2D6",
"<X c #9CB6D5",
"1X c #92B4DD",
"2X c #99B7DA",
"3X c #A5B6CD",
"4X c #A8B8C9",
"5X c #B8BBC6",
"6X c #A5A7D6",
"7X c #A1B7D2",
"8X c #A5BDDA",
"9X c #A5BBD2",
"0X c #8485ED",
"qX c #9799E3",
"wX c #9A9BF3",
"eX c #8DB3E1",
"rX c #8EB4E1",
"tX c #92B6E2",
"yX c #95B9E3",
"uX c #9ABBE3",
"iX c #9FBDE2",
"pX c #9CBCE3",
"aX c #A1BFE3",
"sX c #A2BFE4",
"dX c #AFB1E2",
"fX c #BCBAE3",
"gX c #BEC2C4",
"hX c #BDC4CC",
"jX c #B6C0CB",
"kX c #AAC0D9",
"lX c #B4C3D4",
"zX c #BCC3D8",
"xX c #A7C3E5",
"cX c #A3C0E3",
"vX c #A9C3E3",
"bX c #ABC4E3",
"nX c #B6CBE5",
"mX c #B5CBE5",
"MX c #CBCBCC",
"NX c #C3C4C5",
"BX c #C7C8D7",
"VX c #CED0D6",
"CX c #D5D5D7",
"ZX c #E2E2DF",
"AX c #D6DAE6",
"SX c #C5D6E8",
"DX c #D5E1EE",
"FX c #DEE7F3",
"GX c #E4E5E3",
"HX c #E4EBF4",
"JX c #E9EFF6",
"KX c #EEF2F8",
"LX c #F7F9FC",
"PX c #FFFFFF",
"IX c #F9FBFD",
"UX c #F2F6FA",
/* pixels */
"PXPXIXFX8X9...+.+.+.+.+.+.+.+.+.+.+.+.+.+.+.+...6.,XAXLXPXPX",
"PXKX,Xr.>XvXnXmXnXnXnXnXnXnXnXnXnXnXnXnXnXnXmXnXbX2X#X#XHXPX",
"IX%X%XmXbXbXvXvXvXvXvXvXvXvXvXvXvXvXxXxXvXvXvXvXbXbXmX2Xr.UX",
"DXt.xXiXaXaXsXaXcXcXsXsXaXcXcXiXiXaXbXvXaXcXaXsXsXaXiXxX$XnX",
"%X-XuXuXuXuXuXpXuXuXpXuXuXyXyX8XkXlXhXjXiXuXuXuXuXuXuXuX1X7.",
"4.rXtXtXtXtXtXeXtX1XeXrXyXpXvX'.MX[.4X@XiXtXtXtXtXtXtXtXyX+.",
"F eXeXeXeX1X7XkXlXlXkX7X@XU.B.G.NX/.9X:X:XeXeXeXeXeXeXeXtXX.",
"X.;X;X:X=X1X'.).(.{.gXc.; + O J. X~.}.7X=X:X:X:X:X:X;X=X:XX.",
"..*X*X&X*X<X'.Y.~.~.^.;       z.1.: {.9X$X-X-X&Xa.&X*X&X=Xo.",
"F $X$Xa.%XQ.H.[.c.v.(.; X $ * f.' > |.9Xs.a.#X,X8X%Xa.a.&XD ",
"o.s.s.d.%XZ.8 [.D.c.^.} f.k.l.{ , m.|.7Xp.4XhX5X}.@X$Xs.a.X.",
"D s.i.i.oXZ.2 [.NX0 F.2.j.j.z.A.b.D.|.lX`.[..X`.OXp.s.i.s...",
"F r.e.e.oXZ.5 [.5X8 S./.].gX.XNX}.Y.b.< < [.|._.+Xr.e.e.r.F ",
"D q.q.q.w.C.5 [.0Xl N.(.~.~.G.{.~.@ o . ; ].S.S.|.oX0.q.e.F ",
"D 9.9.9.w.C.4  X) v L.{./.^.G./.b.o .   % x.= < NXoX7.9.0.D ",
"G 8.8.6.y.C.3  XwXL K n.H._.< ~.v.# & ` [ ] - S.hXw.5.8.8.G ",
"G 5.5.5.y.C.5 [.AX^ E c c.MXS.V.W.g.l.l.h.| c.P.gXw.$.5.5.G ",
"G $.$.$.:.C.1 [.GXBX6Xx 0 MX~.7 Q.3.<.1.A.S.M.T.5Xw.#.$.=.G ",
"G #.#.@.*.I.8 {.GXVXgXc.6 BXE.8 G.v.m.K.D.M.K ! qX>.@.#.#.G ",
"S O.O.O.@.:.U.!.3Xw.E.z 0 BXQ 8 ~.v.V.XXR.b Y T 6X>.A O.O.S ",
"G H H H H H -.*.Z Z ;.z 9 BXR l v.c.b.5X( I I ^ zX:.A H H G ",
"S Z Z Z Z Z B Z Z Z ;.z 6 VX0XP e w q |.Q I R fXCX*.B Z Z S ",
"S B B B B B B B B B &.z 9 CXAX/ T U r W ~ _ dXzX+XJ B B B S ",
"S M M M M M M M M M ,.7 6 CXZXCXfXqX/ W u.OX:.J B M M M M S ",
"D m n n n n n n n g %.I.n.MXVX3X+X>.-. .V k k f n m m n n S ",
"t.j h f f f f f f h g %.I.;.%.C f s a a d f g g g f f f h #.",
"SXA a d d d d d d d a d C d i a a d d d d d d d d d d d j ,X",
"LX9.p p i i i i i i i p y p i i i i i i i i i i i i i u J KX",
"PXHX@.g y y y y y y y y y y y y y y y y y y y y t u a A FXPX",
"PXPXUX2X..S S S S S S S S S S S S S S S S S S S S S oXJXPXPX"
};
