/* XPM */
static char *FB_Pozos_A_R[] = {
/* columns rows colors chars-per-pixel */
"30 30 256 2 ",
"   c #1A1312",
".  c #13181C",
"X  c #181819",
"o  c #242322",
"O  c #2B2625",
"+  c #3D3C3A",
"@  c #4D382E",
"#  c #7E5225",
"$  c #624433",
"%  c #7E553F",
"&  c #1C4F4F",
"*  c #265C5D",
"=  c #3D7374",
"-  c #2B6B6C",
";  c #136F6F",
":  c #444546",
">  c #504E4A",
",  c #5B5755",
"<  c #725C45",
"1  c #776758",
"2  c #676768",
"3  c #706F6F",
"4  c #766B65",
"5  c #70706F",
"6  c #737272",
"7  c #7B7A77",
"8  c #7C7C7D",
"9  c #A5613C",
"0  c #8F6C57",
"q  c #957352",
"w  c #976A52",
"e  c #BB7045",
"r  c #A37D59",
"t  c #A76947",
"y  c #807F7F",
"u  c #8B7B6C",
"i  c #C77548",
"p  c #80807F",
"a  c #909177",
"s  c #9D8679",
"d  c #B98669",
"f  c #B79470",
"g  c #3333A9",
"h  c #2222B5",
"j  c #3C3CBC",
"k  c #2F619B",
"l  c #30619B",
"z  c #32629D",
"x  c #34649E",
"c  c #33649E",
"v  c #3667A1",
"b  c #3665A4",
"n  c #3868A1",
"m  c #3D6BA4",
"M  c #3E6CA5",
"N  c #3C6BA3",
"B  c #3E6EA8",
"V  c #3868A6",
"C  c #595990",
"Z  c #7D7E80",
"A  c #5555BA",
"S  c #416FA7",
"D  c #416FA8",
"F  c #4573AB",
"G  c #4572AC",
"H  c #4976AE",
"J  c #4A74A9",
"K  c #4571A7",
"L  c #517BAF",
"P  c #4E7BB1",
"I  c #4D7BB3",
"U  c #497DB9",
"Y  c #4C7FBB",
"T  c #4B7EBB",
"R  c #527EB4",
"E  c #557EB7",
"W  c #6E6EA7",
"Q  c #0C0CE1",
"!  c #0000FD",
"~  c #1212F3",
"^  c #1B1CE6",
"/  c #2626FA",
"(  c #3D3DF2",
")  c #666BDC",
"_  c #4242EC",
"`  c #4949E0",
"'  c #5655F2",
"]  c #6164EC",
"[  c #6D6DE5",
"{  c #7875F0",
"}  c #0B9E9E",
"|  c #0EADAD",
" . c #07BCBC",
".. c #619191",
"X. c #5B83AE",
"o. c #4D80BB",
"O. c #4D80BC",
"+. c #4B80BC",
"@. c #5582B7",
"#. c #5082BD",
"$. c #5683BA",
"%. c #5A86BB",
"&. c #5E89BE",
"*. c #6283AF",
"=. c #7790AF",
"-. c #6B8DBD",
";. c #6589B7",
":. c #6C91BD",
">. c #7992B2",
",. c #7393BD",
"<. c #7D9BBD",
"1. c #7790B0",
"2. c #51BFBF",
"3. c #69AEAE",
"4. c #7CA6A6",
"5. c #5A8AC2",
"6. c #628CC1",
"7. c #638EC3",
"8. c #6791C5",
"9. c #6690C3",
"0. c #6A94C6",
"q. c #6E97CB",
"w. c #6A95C9",
"e. c #6F98CB",
"r. c #7E9EC7",
"t. c #7B9BC4",
"y. c #729BCE",
"u. c #749DCD",
"i. c #789FCD",
"p. c #7798C2",
"a. c #7484D1",
"s. c #769FD1",
"d. c #7FA1C9",
"f. c #7EA6D6",
"g. c #7BA2D3",
"h. c #7BA3D5",
"j. c #1FCBCB",
"k. c #23DEDE",
"l. c #07FAFA",
"z. c #45E9E9",
"x. c #838383",
"c. c #8E8E8E",
"v. c #8B8B8B",
"b. c #868788",
"n. c #968D8A",
"m. c #92928F",
"M. c #898E97",
"N. c #88909A",
"B. c #8C939C",
"V. c #899595",
"C. c #959696",
"Z. c #939393",
"A. c #9C9C9C",
"S. c #989898",
"D. c #B39583",
"F. c #BA9F87",
"G. c #A49F9F",
"H. c #A89589",
"J. c #A3A39F",
"K. c #8B97A7",
"L. c #919AA6",
"P. c #9D9FA2",
"I. c #9897A8",
"U. c #859BB5",
"Y. c #9E9FB9",
"T. c #8787B9",
"R. c #86ADAD",
"E. c #99A3A9",
"W. c #9EAAB8",
"Q. c #A2A2A2",
"!. c #A4A5A4",
"~. c #A9A7A6",
"^. c #A9AAAA",
"/. c #ADABAB",
"(. c #B0AFAF",
"). c #B7B1A9",
"_. c #A5ADB7",
"`. c #ABB5BD",
"'. c #B2B2B1",
"]. c #B6B6B6",
"[. c #B3B4B3",
"{. c #B1B5BB",
"}. c #B6B9BC",
"|. c #BABBBC",
" X c #C7B19B",
".X c #C2BEBB",
"XX c #BEC2BF",
"oX c #84A4CB",
"OX c #89A5C8",
"+X c #98ABC7",
"@X c #9FB3CA",
"#X c #81A6D3",
"$X c #82A9D6",
"%X c #8CADD4",
"&X c #85ABDA",
"*X c #84ABDB",
"=X c #88AFDE",
"-X c #88AEDB",
";X c #89B0DE",
":X c #8EB0DA",
">X c #8FB0D6",
",X c #93B2D6",
"<X c #9CB7D5",
"1X c #92B4DD",
"2X c #99B7DA",
"3X c #9FBCDF",
"4X c #A6B6CB",
"5X c #ABBBCE",
"6X c #B7BBC5",
"7X c #A1B7D1",
"8X c #A5BDDA",
"9X c #A3A8DC",
"0X c #8383ED",
"qX c #9799E3",
"wX c #8DB3E1",
"eX c #8EB4E0",
"rX c #92B6E2",
"tX c #95B7E0",
"yX c #96B9E3",
"uX c #9ABBE3",
"iX c #9FBEE2",
"pX c #9CBCE3",
"aX c #A1BFE3",
"sX c #A2BFE4",
"dX c #AFB1E2",
"fX c #BCBAE3",
"gX c #BDC1C4",
"hX c #BCC4CD",
"jX c #B6C0CB",
"kX c #AAC0DB",
"lX c #ADC0D7",
"zX c #B7C2D5",
"xX c #A4C1E4",
"cX c #A9C3E3",
"vX c #ABC4E3",
"bX c #B6CBE5",
"nX c #B5CBE5",
"mX c #C4C3C3",
"MX c #CCCDCD",
"NX c #C4C7C8",
"BX c #D5D0CB",
"VX c #C6C7D6",
"CX c #CED0D4",
"ZX c #D5D5D7",
"AX c #E2E1DF",
"SX c #D2D8E7",
"DX c #C5D6E8",
"FX c #D5E1EE",
"GX c #DEE7F3",
"HX c #E4E5E5",
"JX c #E6ECF5",
"KX c #EEF2F8",
"LX c #F7F9FC",
"PX c #FFFFFF",
"IX c #F9FBFD",
"UX c #F2F6FA",
/* pixels */
"PXPXIXGX8X0.o.#.#.#.#.#.#.#.#.#.#.#.#.#.#.#.#.o.7.,XSXLXPXPX",
"PXKX,Xi.>XcXbXnXbXbXbXbXbXbXbXbXbXbXbXbXbXbXnXbXvX2X#X#XJXPX",
"IX%X%XnXvXvXcXcXcXcXcXcXcXcXcXcXcXcXxXcXcXcXcXcXvXvXnX2Xu.UX",
"FXi.cXiXaXaXsXaXxXaXsXxXaXxXxXiXiXaXvXcXaXxXaXsXsXaXiXxX$XbX",
"%X&XuXuXuXuXpXpXuXpXpXuXuXyXtX8XlXzXhXjX3XuXuXuXuXuXuXuX1X8.",
"5.eXrXrXrXrXrXwXtX1XwXeXyXiXcX{.MX].`.@XpXrXrXrXrXrXrXrXyX#.",
"T wXwXwXwX1X7XlXzXzXkX7XW.L.M.A.mX^.5X:X;XwXwXwXwXwXwXwXrXO.",
"O.=X=X;X=X1X`.(./.'.gXx.> + O S.}.Q.].7X-X;X;X;X;X;X=X=X;XO.",
"o.&X&X*X&X<X`.P.Q.!.~.:   . . D.s , '.5X$X*X&X*Xf.*X*X&X*X+.",
"Y $X$Xf.%XE.S.].x.c.^.: O @ $ t % , |.5Xg.f.#X,X8X%Xf.f.$XY ",
"+.g.g.h.OXB.7 ].S.x.~.0 9 e i w 4 c.|.4Xd.5XhX6X{.@X$Xg.f.O.",
"Y g.s.s.oXB.5 ].mXZ C.H.d d D.n.v.C.|.hX_.]..X_.OXd.g.s.g.o.",
"T u.y.y.oXB.6 ]..X7 Z.^.'.mX|.NX].J.v.2 2 ].|.(.+Xu.y.y.u.T ",
"Y e.q.q.r.N.6 ].F.1 C./.!.Q.A.'.Q.+ o   : `.C.C.}.oXq.q.y.T ",
"Y 0.0.0.t.N.3 }.f < P.'./.~.A.^.v.o X   * z.- 2 NXoX8.w.w.Y ",
"T 9.9.7.p.N.3 }. X# u b.A.(.2 !.V.& ; }  .| = Z.hXr.6.9.9.T ",
"U 6.6.6.,.N.6 ].AXr q 7 x.NXC.m.R.j.l.l.k...x.J.gXr.&.6.6.T ",
"T &.&.&.,.N.3 [.HXBX).8 Z MX!.8 E.4.2.3.V.C.m.I.5Xt.%.&.;.T ",
"U %.%.$.-.K.7 '.HXCXgXx.8 VXT.8 A.c.n.G.S.m.W ` qX<.$.%.%.T ",
"U @.@.@.$.,.L.W.4XU.U.8 p VX_ 7 !.c.c.XXY.A ^ / 9X<.I @.@.U ",
"U R R R R R :.-.L P >.Z y VX( C c.b.b.6X[ ! ! ' zX,.I R R U ",
"U P P P P P H P P P >.Z 8 CX0XQ h g a |._ ! ( fXZX-.H P P U ",
"U H H H H H H H H H =.Z y ZXSX] / ~ j ) ' { dXzX+XE H H H U ",
"U F F F F F F F F F 1.8 8 ZXAXZXfXqX] ) a.OX,.E H F F F F U ",
"Y D S S S S S S S M *.K.x.MXCX4X+X<.-.X.J V V m S D D S S U ",
"i.B N m m m m m m N M *.K.>.*.K m b v v n m M M M m m m N %.",
"DXI v n n n n n n n v n K n x v v n n n n n n n n n n n B ,X",
"LX0.c c x x x x x x x c l c x x x x x x x x x x x x x z E KX",
"PXJX$.M l l l l l l l l l l l l l l l l l l l l k z v I GXPX",
"PXPXUX2Xo.U U U U U U U U U U U U U U U U U U U U U oXJXPXPX"
};
