/* XPM */
static char *FB_PozoPluvial_NR[] = {
/* columns rows colors chars-per-pixel */
"30 30 256 2 ",
"   c #1A1C1C",
".  c #161414",
"X  c #220E0E",
"o  c #211313",
"O  c #201E1E",
"+  c #1D2F2F",
"@  c #262828",
"#  c #213C3B",
"$  c #373737",
"%  c #0F4343",
"&  c #2B4141",
"*  c #3D5F5F",
"=  c #127676",
"-  c #585C5F",
";  c #4E4B4C",
":  c #605D5B",
">  c #535379",
",  c #676565",
"<  c #656363",
"1  c #6B6A6B",
"2  c #666867",
"3  c #6E7174",
"4  c #747576",
"5  c #74777B",
"6  c #74787C",
"7  c #73787C",
"8  c #7C7A7A",
"9  c #666677",
"0  c #CE6E1E",
"q  c #CE6D1B",
"w  c #D26B15",
"e  c #D16E1B",
"r  c #CF701F",
"t  c #D2701F",
"y  c #D5721E",
"u  c #D6701A",
"i  c #DA751E",
"p  c #DB751D",
"a  c #D97017",
"s  c #E4791D",
"d  c #E47B1E",
"f  c #CC6E2A",
"g  c #CE762C",
"h  c #D57320",
"j  c #D67421",
"k  c #D37322",
"l  c #D97621",
"z  c #D87624",
"x  c #DE7922",
"c  c #D97A2A",
"v  c #D3752B",
"b  c #D77D33",
"n  c #DA7D37",
"m  c #D47B38",
"M  c #D97D38",
"N  c #E17A21",
"B  c #E57D22",
"V  c #E67F24",
"C  c #E27C22",
"Z  c #E97E21",
"A  c #E27F2C",
"S  c #EB801E",
"D  c #FE891E",
"F  c #DF802D",
"G  c #CE813B",
"H  c #DA833A",
"J  c #E98125",
"K  c #ED8324",
"L  c #E5822D",
"P  c #EA862F",
"I  c #ED882F",
"U  c #F18626",
"Y  c #F48522",
"T  c #F68927",
"R  c #FE8A22",
"E  c #FE8E26",
"W  c #FB8B24",
"Q  c #F68A28",
"!  c #F88B28",
"~  c #FA8D28",
"^  c #FE8F29",
"/  c #FB8E2E",
"(  c #F28728",
")  c #FF902C",
"_  c #FE902A",
"`  c #FF9025",
"'  c #E78836",
"]  c #F38C30",
"[  c #F38F3E",
"{  c #F58F3D",
"}  c #F88F31",
"|  c #EC913E",
" . c #F49137",
".. c #FB9336",
"X. c #F5913E",
"o. c #F3903E",
"O. c #FA943B",
"+. c #8C8C78",
"@. c #B98F6A",
"#. c #BD916B",
"$. c #D6935B",
"%. c #D3894F",
"&. c #ED8F41",
"*. c #EA9246",
"=. c #F39242",
"-. c #F39845",
";. c #F69B4C",
":. c #F69746",
">. c #E39B59",
",. c #F79E56",
"<. c #EEA35F",
"1. c #F5A056",
"2. c #C2946C",
"3. c #CA976A",
"4. c #C7996E",
"5. c #D0956A",
"6. c #D9A376",
"7. c #F5A867",
"8. c #E5AA74",
"9. c #F3AD70",
"0. c #F9B57D",
"q. c #F2B27B",
"w. c #38389B",
"e. c #434283",
"r. c #555486",
"t. c #454599",
"y. c #605FB6",
"u. c #0302EF",
"i. c #0100F2",
"p. c #0000FE",
"a. c #0404FB",
"s. c #0C0AF7",
"d. c #100FFA",
"f. c #1B19F8",
"g. c #2423FB",
"h. c #2B2BF7",
"j. c #3434F7",
"k. c #2423E4",
"l. c #0F0DD0",
"z. c #4847CC",
"x. c #5C5BD5",
"c. c #7C6CD0",
"v. c #514FF6",
"b. c #5857F1",
"n. c #5857ED",
"m. c #5C63FF",
"M. c #696AE7",
"N. c #7477F3",
"B. c #0B9493",
"V. c #0CAAA9",
"C. c #7F9E9E",
"Z. c #7C848C",
"A. c #55BEBE",
"S. c #6EA6A5",
"D. c #60C0BF",
"F. c #00C9C9",
"G. c #05D7D5",
"H. c #03E1E1",
"J. c #00FDFD",
"K. c #06F5F5",
"L. c #14EAE9",
"P. c #20E9E9",
"I. c #45F5F5",
"U. c #54CDCC",
"Y. c #8C8C8B",
"T. c #838384",
"R. c #918F8E",
"E. c #8B8D95",
"W. c #969591",
"Q. c #959495",
"!. c #939292",
"~. c #9A9997",
"^. c #9B9B9B",
"/. c #979789",
"(. c #AF9E8D",
"). c #A4A495",
"_. c #A0A09C",
"`. c #9EA4A6",
"'. c #A1A1A2",
"]. c #A6A6A4",
"[. c gray67",
"{. c #ADADAB",
"}. c #AEAEAD",
"|. c #A9ABAD",
" X c #A4A7AC",
".X c #BAB1A9",
"XX c #ABAFB3",
"oX c #ADB2B7",
"OX c #B2B2B2",
"+X c #B9B4B1",
"@X c #BDBCBD",
"#X c #B3B8BD",
"$X c #B3ACA4",
"%X c #D3AA85",
"&X c #C1AE9D",
"*X c #C8AD93",
"=X c #D1AB93",
"-X c #CFB29F",
";X c #D9B89A",
":X c #CCA786",
">X c #E1B287",
",X c #F5B987",
"<X c #F2BF90",
"1X c #CBB3A8",
"2X c #D6BCAC",
"3X c #D7BBA5",
"4X c #D1B9B3",
"5X c #C2C29B",
"6X c #F9C395",
"7X c #EBC592",
"8X c #DCC2AC",
"9X c #C1C0BF",
"0X c #DBCBBD",
"qX c #E1C6AA",
"wX c #E3C8AB",
"eX c #FAD0AD",
"rX c #E1C8B1",
"tX c #AF9DC0",
"yX c #BBBBC4",
"uX c #B7B7DE",
"iX c #9797E6",
"pX c #9092EE",
"aX c #9CA0ED",
"sX c #ADB3ED",
"dX c #B1B1E2",
"fX c #AAAAE2",
"gX c #BEC1E9",
"hX c #C0C7CC",
"jX c #C6CACD",
"kX c #CBCCCC",
"lX c #DDD4CD",
"zX c #C8CFD2",
"xX c #CED6DF",
"cX c #D5D5D5",
"vX c #D9D7D4",
"bX c #DDDDDD",
"nX c #E4D7CA",
"mX c #FBDBC2",
"MX c #FCE3CE",
"NX c #E6E5D9",
"BX c #E5E5DA",
"VX c #FCE9DA",
"CX c #CACFE7",
"ZX c #DADCE7",
"AX c #D4D4EB",
"SX c #DDE3E8",
"DX c #E1E1E1",
"FX c #EBECE5",
"GX c #E6E6E7",
"HX c #FDEEE1",
"JX c #FEF4EB",
"KX c #FDF0E4",
"LX c #FEFAF5",
"PX c #FEFEFE",
"IX c #FDFBFA",
"UX c #FEF7F1",
/* pixels */
"PXPXIXVX6X,.{ X.X.X.X.X.X.X.X.X.X.X.X.X.X.X.X.{ ;.,XMXIXPXPX",
"PXJX0.O.~ E E E E E E E E E E E E E E E E E E E E ~ ..7.HXPX",
"PX0.W E E E E E E E E E E E E E E E E ^ ^ _ E R R E E W 1.UX",
"MX:.E ^ ^ ^ ^ ^ ^ ^ ^ ^ ^ ^ ^ ^ ^ ^ ^ E R D R O...E E ^ ..eX",
"0./ ^ ^ ^ ^ ^ ^ ^ ^ ^ ^ ^ ^ ^ ^ ^ ^ ^ ..;.9.q.rX8X;.E ^ ^ ,.",
":.^ ^ ^ ^ ^ ^ ^ ) ) E E ) ) ^ E R D  .%X0XxXhX+X#X8.) ^ ^ =.",
"X.^ ^ ^ ^ ^ E R R W :. .R D ! ..;.9.%X`.cX'.(.$.G | _ ^ E X.",
"X.~ ~ ~ ~ E -.8.,X<XrXwX9.<.>X;X&XR.Y._.vX|.$Xq.` D ~ ~ W X.",
"X.! ! ! ! W >.].|.@X`.oXvX.X5 - ; @ $ '.kX}.OXOX8./ ! ! ! X.",
"X.Q Q Q T T 1.*X^.~.~.Y.cX4 O . .   @ OX@X2 W.XX1X-.Y Q T X.",
"X.T T T T >.&X.X}.{.OXQ.cX<   @ @ X # I.U.% ; hX3X| Y Q T X.",
"o.U U Y } 4.Z.'.}.[.- 4 bX, o o + = = H.F.& 8 zX8X' Y ( U o.",
"X.U U Y ] 2.3 8 ].kX1 4 bX, B.G.G.J.K.V.* 8 ~.jX8X' Y U U X.",
"X.K K K ] 2.5 , [.DX'.3 +XD.L.J.J.K.P.S.Y.!.W.jX2X' Y K K X.",
"X.K J Z ] 2.6 , }.DX].2 ^.`.!.A.A.C.!.Q.Q.W.!.jX2XH K J J o.",
"o.J J Z I 2.7 , {.DX'.2 ^.^.!.R.!.Q.!.!.W.!.z.pXqXn S J Z { ",
"{ V V B P 2.5 < {.AXx.> ).^.Y.8 ].@X_.W.E.z.p.iXqXM d V B o.",
"o.B B d P #.7 < {.ZXg.e.). XT.T.OX9XyXy.k.a.s.aXqXM d V B [ ",
"o.C C s L #.6 , {.ZXh.w.+.)./.4 }.yXM.p.a.p.j.CX2XM d C N o.",
"o.N N s L #.5 < |.FXn.u.t.r.r.2 ].yXb.a.p.d.iXBX1XM s N N o.",
"o.x x p L #.6 , |.FXuXg.p.i.i.9 5X9Xj.p.h.pXFXSX4Xm s x p o.",
"o.x x p A #.6 , {.GXBXfXb.g.f.l.z.M.j.N.gXlX4X3X$.c p x i o.",
"o.l l i F @.4 , [.GXcXNXNXdXsXm.v.c.tX7X6.$.m v a i l l i o.",
"o.j j y l 3.E.: {.GXSXZXZXnX;X=X6.*.H f w u a i j j j j y o.",
"=.h y h y b :X8  XnX-X6.$.%.f f 0 w e y j j j h h y h y t [ ",
"9.z t t t e b 4.3.H g e w w y y y k k k t t t t t t t t y ;.",
"mX' 0 t t t q z j w e t k k t t t t t t t t t t t t t e c ,X",
"LX7.e 0 0 0 0 q q r 0 0 0 0 0 0 0 0 0 0 0 0 0 0 0 0 0 q *.JX",
"PXKX*.c 0 0 0 0 0 0 0 0 0 0 0 0 0 0 0 0 0 0 0 0 0 0 z &.VXPX",
"PXPXUX6X=.[ [ [ [ [ [ [ [ [ [ [ [ [ [ [ [ [ [ [ [ =.q.JXPXPX"
};
