/* XPM */
static char *FB_Pozos_NR[] = {
/* columns rows colors chars-per-pixel */
"30 30 256 2 ",
"   c #14110F",
".  c #161616",
"X  c #1B1718",
"o  c #242323",
"O  c #2B2625",
"+  c #3B3C3E",
"@  c #4D382D",
"#  c #7E5224",
"$  c #634332",
"%  c #7E553D",
"&  c #1C4F4F",
"*  c #285C5B",
"=  c #2D6B6A",
"-  c #3F7373",
";  c #136F6F",
":  c #454545",
">  c #495057",
",  c #5B5755",
"<  c #725C44",
"1  c #776758",
"2  c #686767",
"3  c #6F6F71",
"4  c #6F7072",
"5  c #7B7A77",
"6  c #7C7C7C",
"7  c #747677",
"8  c #766B65",
"9  c #A5613B",
"0  c #CE6E1E",
"q  c #CE6C1B",
"w  c #D16E1C",
"e  c #D36C16",
"r  c #D2701F",
"t  c #D5731E",
"y  c #DA751E",
"u  c #DD761E",
"i  c #DC741B",
"p  c #D67017",
"a  c #E37A1F",
"s  c #CB6E26",
"d  c #D27121",
"f  c #D57320",
"g  c #D77420",
"h  c #D57525",
"j  c #DA7621",
"k  c #DB7622",
"l  c #DE7921",
"z  c #D97B2A",
"x  c #D3772E",
"c  c #CD7632",
"v  c #E17A21",
"b  c #E57D22",
"n  c #E67F24",
"m  c #E27C22",
"M  c #E97E21",
"N  c #936B54",
"B  c #957352",
"V  c #BC7044",
"C  c #A37D58",
"Z  c #A76946",
"A  c #8B7B6C",
"S  c #827D78",
"D  c #CB7A45",
"F  c #D17E40",
"G  c #FF891E",
"H  c #FB861C",
"J  c #DD873A",
"K  c #EA8124",
"L  c #EE8324",
"P  c #EB872C",
"I  c #F18626",
"U  c #F48624",
"Y  c #F58827",
"T  c #FE8A22",
"R  c #FE8E26",
"E  c #FB8A24",
"W  c #F48B2B",
"Q  c #F88B28",
"!  c #FA8D29",
"~  c #FE8E29",
"^  c #FC8E2C",
"/  c #FE902C",
"(  c #E38C3C",
")  c #E98936",
"_  c #F38F3E",
"`  c #F58F3D",
"'  c #F5913E",
"]  c #F5923C",
"[  c #FA9439",
"{  c #9C897C",
"}  c #929176",
"|  c #B98669",
" . c #B7946F",
".. c #A18E7C",
"X. c #A18D7B",
"o. c #AD9179",
"O. c #B8987E",
"+. c #CF874E",
"@. c #DE8B43",
"#. c #D08648",
"$. c #CD885C",
"%. c #D28C59",
"&. c #CB905F",
"*. c #DA9355",
"=. c #D6945C",
"-. c #DA9459",
";. c #DE9855",
":. c #E68E42",
">. c #E69145",
",. c #EB9345",
"<. c #EF974D",
"1. c #F39242",
"2. c #FB9A42",
"3. c #F79A4C",
"4. c #F69746",
"5. c #EF9D52",
"6. c #F79E56",
"7. c #F8A359",
"8. c #C88F60",
"9. c #C89162",
"0. c #CD9569",
"q. c #D59C6A",
"w. c #C89B74",
"e. c #DAA677",
"r. c #E6A265",
"t. c #E3A46A",
"y. c #EEA869",
"u. c #F5A565",
"i. c #EAAC75",
"p. c #F4AC70",
"a. c #F9B57D",
"s. c #F5B37D",
"d. c #2422B4",
"f. c #3C3CBD",
"g. c #3433A8",
"h. c #5A598F",
"j. c #7E7F81",
"k. c #5555BA",
"l. c #706FA5",
"z. c #0D0CE0",
"x. c #1C1CE4",
"c. c #0000FB",
"v. c #1312F2",
"b. c #3D3BEF",
"n. c #2726F9",
"m. c #3F3EF2",
"M. c #6A68DD",
"N. c #4545E6",
"B. c #5A59EF",
"V. c #4B50F8",
"C. c #6867E9",
"Z. c #7175F6",
"A. c #807F80",
"S. c #846DBB",
"D. c #0C9E9E",
"F. c #0FADAD",
"G. c #08BCBB",
"H. c #7F8080",
"J. c #619190",
"K. c #52BFBF",
"L. c #6AAEAD",
"P. c #7CA6A6",
"I. c #1FCBCB",
"U. c #24DEDD",
"Y. c #08FAF9",
"T. c #45E9E8",
"R. c #838181",
"E. c #838485",
"W. c #8E8E8E",
"Q. c #8B8A8A",
"!. c #868788",
"~. c #968D8A",
"^. c #93928F",
"/. c #8E8F90",
"(. c #899595",
"). c #939495",
"_. c #9A9A97",
"`. c #979999",
"'. c #9F9E9E",
"]. c #9A9B9B",
"[. c #969697",
"{. c #AB9686",
"}. c #B39583",
"|. c #B79D86",
" X c #A9859F",
".X c #A29F9F",
"XX c #A2A19F",
"oX c #B9A593",
"OX c #989CA6",
"+X c #9E9FB8",
"@X c #8787B8",
"#X c #86ADAC",
"$X c #9AA4A5",
"%X c #A3A4A3",
"&X c #A9A7A5",
"*X c #AAAAAA",
"=X c #ACA8A3",
"-X c #B2AEAB",
";X c #B9B2AB",
":X c #A9ADB0",
">X c #AEB6BA",
",X c #B2B2B1",
"<X c #B6B6B5",
"1X c #B6B4B3",
"2X c #B7B9BA",
"3X c #BBBCBB",
"4X c #B7B8B8",
"5X c #C9A785",
"6X c #D9AF89",
"7X c #D4AC89",
"8X c #DFB38D",
"9X c #DEB086",
"0X c #C6AC99",
"qX c #C7B19A",
"wX c #D4B294",
"eX c #E0B186",
"rX c #F8BA87",
"tX c #CBBBAB",
"yX c #C3B8AD",
"uX c #D6BBA4",
"iX c #C3BCBB",
"pX c #BFC2BD",
"aX c #F9C395",
"sX c #CAC3BA",
"dX c #C2C0BE",
"fX c #D4C4BF",
"gX c #FAD0AD",
"hX c #A39AD3",
"jX c #B0A6CE",
"kX c #BBBBC0",
"lX c #B6B2DB",
"zX c #8383EB",
"xX c #9B98E0",
"cX c #B8BAE5",
"vX c #B9C0C6",
"bX c #C4C3C3",
"nX c #CDCDCC",
"mX c #CAC5C9",
"MX c #D5CECA",
"NX c #D5D0CB",
"BX c #C3C3D6",
"VX c #C9C9D2",
"CX c #D5D4D4",
"ZX c #FBDBC2",
"AX c #FCE3CE",
"SX c #E1E0DD",
"DX c #FCE9DA",
"FX c #D8DAE0",
"GX c #E3E4E3",
"HX c #FDEEE1",
"JX c #FEF4EB",
"KX c #FDF0E4",
"LX c #FEFAF5",
"PX c #FEFEFE",
"IX c #FDFBFA",
"UX c #FEF7F1",
/* pixels */
"PXPXIXDXaX6.` ' ' ' ' ' ' ' ' ' ' ' ' ' ' ' ' ` 3.rXAXIXPXPX",
"PXJXa.[ ! R R R R R R R R R R R R R R R R R R R R ! [ u.HXPX",
"PXa.E R R R R R R R R R R R R R R R T T R R R R R R R E 7.UX",
"AX2.R ~ ~ ~ ~ ~ ~ ~ ~ ~ ~ ~ ~ T E / 2.[ R ~ ~ ~ ~ ~ ~ ~ [ gX",
"a.^ ~ ~ ~ ~ ~ ~ ~ ~ / ~ R T T <.t.eXtXwX] R ~ ~ ~ ~ ~ ~ ~ 6.",
"3.~ ~ ~ ~ R T G ^ ^ G T / 2.7.0XnX4X5Xq.2.R ~ ~ ~ ~ ~ ~ ~ 1.",
"] ~ ~ ~ R ] r.i.eX8Xy.t.w.o.{ '.bX=Xe.W ! ~ ~ ~ ~ ~ ~ ~ ~ ' ",
"' ! ! ! E 1.0X>X:X>XdXR.> + O `.2X%X;Xt.! ! ! ^ ^ ! ! ! E ' ",
"' Q Q Q W r.0X.XXX%X&X:   . . }.{ , ,X6XW ! Q E H E ! Q Q ' ",
"' Y Y E ,.|.].1XR.W.*X: O @ $ Z % , 3X9XI W ) 5.i.,.Y Y Y ' ",
"' Y Y U ,...7 <X_.E.&XN 9 V D N 8 /.4Xe.( 6XuXtX;Xe.W U Y ' ",
"' I I U >...4 <XbXj.[.{.| | }.~.Q.`.3XuX5X<XvXoX=.( W U I ' ",
"' I I I >...4 <XiX5 ).*X,XbX3XmX<XXXQ.2 2 <X3X-Xe.P I I I ' ",
"' L L L :.X.4 <X|.1 `.*X%X%X'.,X%X+ o . : >X).).yX;.L L L ' ",
"' K K K :.X.4 2X .< OX,X*X&X'.*XQ.o X   * T.= 2 sX-.M L K ' ",
"' K K M @.X.3 2XqX# A !.].,X2 %X/.& ; D.G.F.- ).sX-.b K M ` ",
"` n n b @...4 <XSXC B 5 E.mX).^.#XI.Y.Y.U.J.R.%XiX-.a n b ' ",
"' b b b @.{ 3 1XGXNX;X6 j.nX%X6 $XP.K.L.(.[.^.OXiX-.a b b _ ",
"' m m a J O.6 ,XGXNXsXR.6 VX@X6 '.W.~..X_.^.l.N.hX;.u m v ' ",
"' v v v m *.{.oX8X=.w.S H.BXN.5 %XW./.pX+Xk.x.n.jX-.u v v ' ",
"' l l l l l @.@.j u &.S j.BXm.h.W.E.!.kXC.c.c.B.mX%.u l u ' ",
"' l l k l l i i l k 9.S j.CXzXz.d.g.} 3XN.c.b.cXCX$.y l y ' ",
"' j j j j j k j j j 8.S j.CXCXC.n.v.f.M.V.Z.lXfX0XF y j y ' ",
"' g g t g g g g g t 9.S A.CXGXFXcXxXM.S. Xe.=.F x f g g t ' ",
"1.f t t f f f f f r #.{.E.nXMXuX7Xq.=.J z q e p t t f t r _ ",
"p.h r r r r r r r r d +.O.0.+.c s q q w w r d d d r r r t <.",
"ZX( 0 r r r r r r r w r x d q w w r r d d r r r r r r w z rX",
"LXu.w 0 0 0 0 0 0 0 0 0 q 0 0 0 0 0 0 0 0 0 0 0 0 0 0 q ,.JX",
"PXKX<.z 0 0 0 0 0 0 0 0 0 0 0 0 0 0 0 0 0 0 0 0 0 0 h ,.DXPX",
"PXPXUXaX1._ _ _ _ _ _ _ _ _ _ _ _ _ _ _ _ _ _ _ _ 1.s.JXPXPX"
};
