/* XPM */
static char *FB_PozosFecales_A[] = {
/* columns rows colors chars-per-pixel */
"30 30 256 2 ",
"   c #0F1113",
".  c #12161B",
"X  c #1B1B1A",
"o  c #232323",
"O  c #2C2725",
"+  c #3F3D3B",
"@  c #783600",
"#  c #783601",
"$  c #4A372D",
"%  c #78430D",
"&  c #7F4C1C",
"*  c #5F402F",
"=  c #59453B",
"-  c #6B4723",
";  c #7E5225",
":  c #634333",
">  c #6E5033",
",  c #7D593E",
"<  c #464545",
"1  c #56514C",
"2  c #5B5755",
"3  c #69584D",
"4  c #725C45",
"5  c #766759",
"6  c #676767",
"7  c #71706F",
"8  c #727170",
"9  c #787777",
"0  c #7C7A77",
"q  c #7A7A7A",
"w  c #7C7C7C",
"e  c #756B65",
"r  c #834A13",
"t  c #8E5823",
"y  c #925D2A",
"u  c #825337",
"i  c #955D3D",
"p  c #986A3D",
"a  c #A4613B",
"s  c #966F48",
"d  c #966D43",
"f  c #8F6C57",
"g  c #976B52",
"h  c #887055",
"j  c #957351",
"k  c #A77A4E",
"l  c #BB7045",
"z  c #A37E59",
"x  c #AB7352",
"c  c #BB7E5B",
"v  c #A76947",
"b  c #8A7B6E",
"n  c #807F7F",
"m  c #CA794A",
"M  c #CC7E51",
"N  c #9E8369",
"B  c #81807F",
"V  c #8E8278",
"C  c #9C8679",
"Z  c #A68664",
"A  c #A88B6D",
"S  c #B88669",
"D  c #A58978",
"F  c #B89672",
"G  c #CB9476",
"H  c #2A5C9A",
"J  c #2C5E9A",
"K  c #2D5F9C",
"L  c #2A5E9D",
"P  c #255B9C",
"I  c #2E619E",
"U  c #2B609E",
"Y  c #31629D",
"T  c #3D6A9F",
"R  c #285FA0",
"E  c #2F63A1",
"W  c #2E63A5",
"Q  c #2D64A7",
"!  c #2D63A3",
"~  c #2E66AB",
"^  c #2F69AE",
"/  c #3064A3",
"(  c #3165A5",
")  c #3063A1",
"_  c #3A6AA3",
"`  c #3167A8",
"'  c #3168AA",
"]  c #3269AD",
"[  c #346BAC",
"{  c #386AA6",
"}  c #326BB0",
"|  c #326CB2",
" . c #346DB2",
".. c #346FB5",
"X. c #2F71BF",
"o. c #3671B6",
"O. c #3370B7",
"+. c #3672B9",
"@. c #3673BD",
"#. c #3675BF",
"$. c #3874BA",
"%. c #3976BE",
"&. c #3C77BD",
"*. c #3C74B7",
"=. c #7C7D80",
"-. c #4975AA",
";. c #567BA9",
":. c #4A7BB5",
">. c #477BBA",
",. c #477DBA",
"<. c #417ABE",
"1. c #487CBA",
"2. c #487BBA",
"3. c #517EB5",
"4. c #517DB2",
"5. c #507FB8",
"6. c #3576C5",
"7. c #3575C2",
"8. c #3977C1",
"9. c #3778C6",
"0. c #3A78C2",
"q. c #3C7AC3",
"w. c #3A7AC6",
"e. c #3C7BC6",
"r. c #3D7CC7",
"t. c #3A7BC9",
"y. c #3B7CC9",
"u. c #3F7EC8",
"i. c #3578C9",
"p. c #437DC3",
"a. c #7F8690",
"s. c #7F8A97",
"d. c #7F8B98",
"f. c #7E8C9F",
"g. c #4F80BB",
"h. c #5484BE",
"j. c #5283BB",
"k. c #5E84B3",
"l. c #6283AB",
"z. c #6B88AB",
"x. c #6986AA",
"c. c #718EAF",
"v. c #7B91AC",
"b. c #6286B3",
"n. c #6288B6",
"m. c #6588B3",
"M. c #6289B9",
"N. c #6C8CB2",
"B. c #7492B7",
"V. c #7C97B8",
"C. c #4780C3",
"Z. c #4C83C4",
"A. c #4C85CA",
"S. c #5286C2",
"D. c #5C8CC4",
"F. c #5289CA",
"G. c #618EC7",
"H. c #6B94C7",
"J. c #7497C2",
"K. c #7499C5",
"L. c #749CCB",
"P. c #7F9DC2",
"I. c #7FA2CB",
"U. c #818182",
"Y. c #848485",
"T. c #868788",
"R. c #8E8E8E",
"E. c #8B8B8B",
"W. c #888583",
"Q. c #948F8B",
"!. c #90908F",
"~. c #9F9288",
"^. c #828B94",
"/. c #898D96",
"(. c #8B9299",
"). c #919292",
"_. c #959594",
"`. c #999795",
"'. c #979897",
"]. c #9A9A9A",
"[. c #9F9E9E",
"{. c #94989B",
"}. c #B39583",
"|. c #B99F86",
" X c #A39B94",
".X c #A89589",
"XX c #9FA09F",
"oX c #A2A09E",
"OX c #ABA59E",
"+X c #B8AA9D",
"@X c #8996A5",
"#X c #8393A7",
"$X c #9A9FA4",
"%X c #819CBE",
"&X c #8B9FB5",
"*X c #97A1AF",
"=X c #8EA0B8",
"-X c #99A7B8",
";X c #A1A2A2",
":X c #A5A5A5",
">X c #A3A4A4",
",X c #A8A7A6",
"<X c #AAAAAA",
"1X c #AEADAB",
"2X c #A4A7AB",
"3X c #B0AFAF",
"4X c #B8B3AD",
"5X c #BCB1A6",
"6X c #A3ABB3",
"7X c #AEB2B6",
"8X c #AFB6BC",
"9X c #B2B2B2",
"0X c #B5B6B6",
"qX c #B3B3B3",
"wX c #B9B6B3",
"eX c #B5B9BB",
"rX c #B9BABA",
"tX c #BBBCBC",
"yX c #C5B19B",
"uX c #C3BDB7",
"iX c #CAC3BB",
"pX c #D2C6B8",
"aX c #89A6C7",
"sX c #91A6C1",
"dX c #93AAC4",
"fX c #92ABC9",
"gX c #9AADC3",
"hX c #85A9D3",
"jX c #98B6D7",
"kX c #AEB7C0",
"lX c #AAB7C6",
"zX c #BFBFC0",
"xX c #B9BDC3",
"cX c #BCC1C6",
"vX c #BDC2CB",
"bX c #B1C8E2",
"nX c #C3C4C4",
"mX c #CCCBCB",
"MX c #CCC8C3",
"NX c #D5D0CA",
"BX c #CBCED3",
"VX c #D3D3D3",
"CX c #D8D9D9",
"ZX c #E0E0DE",
"AX c #D1DDED",
"SX c #C5D5E7",
"DX c #D5E1EF",
"FX c #DEE7F2",
"GX c #E3E4E4",
"HX c #E3EBF5",
"JX c #EEF2F8",
"KX c #E9F0F6",
"LX c #F3F6FA",
"PX c #FEFEFE",
"IX c #FAFBFC",
"UX c #F7FAFD",
/* pixels */
"PXPXIXFXjXD.>.1.1.1.1.1.1.1.1.1.1.1.1.1.1.1.1.>.D.hXAXIXPXPX",
"PXJXhXC.0.y.t.t.t.t.t.t.t.t.t.y.y.y.y.y.t.t.t.t.y.0.C.L.HXPX",
"IXhX7.y.y.t.t.t.t.t.t.t.t.t.t.y.y.t.i.i.t.t.t.t.t.y.y.9.G.LX",
"DXZ.t.w.t.t.t.t.t.t.t.t.t.t.t.9.w.u.F.A.w.t.t.t.t.t.w.t.p.bX",
"hXq.w.w.w.w.e.r.w.t.r.e.w.6.6.D.K.aXlXgXZ.w.w.w.w.w.w.w.w.D.",
"h.e.w.e.e.w.6.6.e.q.6.6.u.F.H.6XmXwX&XB.F.w.e.e.e.e.e.e.w.1.",
"1.w.w.w.w.C.H.I.fXfXL.J.V.f.a.[.nX2XP.p.0.w.w.w.w.w.w.w.w.1.",
"1.0.0.q.8.S.-X4X1XwXzXU.1 + O {.eX>X7XJ.0.0.0.q.q.q.0.0.0.1.",
"1.0.0.8.<.K.-XXX;X;X:X<   . . }.C 1 qXsX&.0.0.7.X.7.0.0.8.1.",
"1.%.%.#.j.@X].qXY.R.<X< O $ : v , 2 rXsX$.&.<.D.I.S.%.8.8.,.",
"1.%.%.@.h.s.9 0X'.Y.,Xf a l m g e !.rXaX:.sXlXkX7X%X<.@.%.1.",
"1.$.$.+.j.d.7 0XnX=.`..XS S }.Q.E.`.tXlX=X0XiX*Xn.:.&.@.@.,.",
",.+.+.+.j.d.8 0XuX0 ).<X9XnXtXnX0XoXE.6 6 0XtX6XV.*.+.+.+.1.",
"1.o.o.O.j.s.8 0X|.5 {.1X>X>X[.9X;X+ o . < wX_._.8XM...+.o.1.",
"1.o.o...3.s.7 eXF 4 $X9X<X,X[.<XE.o X . = G = 6 cXM.| o...1.",
"1. . .| 3.s.7 eXyX; b T.].3X6 >XQ.$ * u i i 3 ).cXn.}  . .1.",
"1. . .} 3.d.8 0XZXz j 0 Y.mX_.). Xx M M c b U.>XxXn.^  .| 2.",
">.} ] ] 4.^.7 qXGXNX5Xw =.mX:Xq oX~.A D Q._.). XrXb.~ } ] >.",
"1.] ] ] :.#X0 9XGXBXcXU.w mX~.q [.R.).;X]._.b s +XM.~ ] ] 1.",
"1.] ] ' [ k.@X*XdXN.v.q U.MXd q :XR.Q.zXOXh & y 4Xn.Q ] ' 1.",
"1.' ' ' ` ' 3.4.( Q x.w n MXp 5 R.Y.T.tXA @ @ z nXl.Q ' ` 1.",
"1.` ` ( ` ` ! W ' ( z.=.B VX|.% - > ^.rXd # p pXVXl.! ` ( 1.",
"1.( ( / ( ( ( ( ( / x.=.B VXVXZ t r , Z k F uXvX-X-.W ( W 1.",
"1./ / E / / / / / E z.=.n VXGXCXpX+XN V /.%Xm.-._ ) / / E 1.",
"1.E E E E E E E E I ;.(.W.mXBXlXsXB.b.-.{ H P R E E E E I >.",
"L.( I I I I I I I I Y ;.#Xc.;.T Y H H L L I ) I I I I I I h.",
"SX-.K I I I I I I I U I _ I H L U I I I I I I I I I I I { jX",
"UXH.K J K K K K K K K J H K K K K K K K K K K K K K K H 5.JX",
"PXHXh._ J J J J J J J J J J J J J J J J J J J J J J ) :.FXPX",
"PXPXLXjXg.1.1.1.1.1.1.1.1.1.1.1.1.1.1.1.1.1.1.1.1.1.hXKXPXPX"
};
