/* XPM */
static char *FB_PozosFecales_NR_R[] = {
/* columns rows colors chars-per-pixel */
"30 30 256 2 ",
"   c #141618",
".  c #151819",
"X  c #1A1918",
"o  c #292828",
"O  c #262322",
"+  c #3A3C3D",
"@  c #793600",
"#  c #4A372D",
"$  c #78430D",
"%  c #5F402F",
"&  c #534036",
"*  c #6D4722",
"=  c #7F5224",
"-  c #624738",
";  c #6E5033",
":  c #7D583D",
">  c #464544",
",  c #494E52",
"<  c #5B5755",
"1  c #6A584D",
"2  c #725C44",
"3  c #766759",
"4  c #686767",
"5  c #6F6F70",
"6  c #6F7071",
"7  c #707071",
"8  c #7C7A77",
"9  c #7C7C7C",
"0  c #76777A",
"q  c #766B65",
"w  c #824C16",
"e  c #905B27",
"r  c #825337",
"t  c #955D3D",
"y  c #986A3D",
"u  c #A5613B",
"i  c #CE701F",
"p  c #CD6F20",
"a  c #CF7223",
"s  c #CF7325",
"d  c #CF752A",
"f  c #D07322",
"g  c #D17526",
"h  c #D57525",
"j  c #D37729",
"k  c #D57729",
"l  c #D3782B",
"z  c #D3782C",
"x  c #D57B2E",
"c  c #D97B2D",
"v  c #CF7D37",
"b  c #D67E32",
"n  c #DA7F32",
"m  c #976D44",
"M  c #936C55",
"N  c #887055",
"B  c #9A7652",
"V  c #BC7044",
"C  c #A47E58",
"Z  c #AB7352",
"A  c #BC7E5B",
"S  c #A76946",
"D  c #8A7B6E",
"F  c #827D7A",
"G  c #CA794A",
"H  c #CD7E51",
"J  c #DA8135",
"K  c #DC8335",
"L  c #D68139",
"P  c #DE863A",
"I  c #DB8339",
"U  c #E18A3F",
"Y  c #E3893B",
"T  c #F38F3E",
"R  c #F4913F",
"E  c #F3903F",
"W  c #B6875D",
"Q  c #9F856B",
"!  c #9D8679",
"~  c #AB8560",
"^  c #A88B6D",
"/  c #B98669",
"(  c #B7946F",
")  c #A68978",
"_  c #B09678",
"`  c #D78B4A",
"'  c #D48847",
"]  c #D08C52",
"[  c #DE995D",
"{  c #DB9559",
"}  c #E28D42",
"|  c #E48F45",
" . c #E58F43",
".. c #ED8F42",
"X. c #E69146",
"o. c #E69349",
"O. c #E9964C",
"+. c #EC954B",
"@. c #EC964A",
"#. c #F39141",
"$. c #F59241",
"%. c #F69545",
"&. c #F29244",
"*. c #F59A4E",
"=. c #EB9A50",
"-. c #EE9D54",
";. c #EE9B51",
":. c #ED9E5A",
">. c #F09E56",
",. c #F09F58",
"<. c #F2A159",
"1. c #F5A55E",
"2. c #F4A25C",
"3. c #F8A75F",
"4. c #FBA85C",
"5. c #C8966C",
"6. c #CB996D",
"7. c #C5966D",
"8. c #D79861",
"9. c #DB9B63",
"0. c #D69F6F",
"q. c #DC9F6B",
"w. c #D59762",
"e. c #C99A7A",
"r. c #DCA26E",
"t. c #DCA675",
"y. c #D5A073",
"u. c #E3A165",
"i. c #E5A46A",
"p. c #EEA666",
"a. c #F2A462",
"s. c #F6A862",
"d. c #F3A964",
"f. c #FAAB62",
"g. c #F9AC66",
"h. c #F9AA65",
"j. c #F5AD6B",
"k. c #FAAF69",
"l. c #FBAE6C",
"z. c #FEB16B",
"x. c #FEB26D",
"c. c #FCB16C",
"v. c #EBAC73",
"b. c #E0A673",
"n. c #F4AC71",
"m. c #EFB37E",
"M. c #F4B376",
"N. c #FFB572",
"B. c #FEB675",
"V. c #FCB372",
"C. c #FBB578",
"Z. c #FEB97A",
"A. c #FDB97D",
"S. c #F5B37D",
"D. c #7F7F80",
"F. c #7F8081",
"G. c #828181",
"H. c #838485",
"J. c #8E8E8E",
"K. c #8B8B8B",
"L. c #868788",
"P. c #948F8B",
"I. c #978D85",
"U. c #9F9187",
"Y. c #8A8D90",
"T. c #8D9193",
"R. c #939393",
"E. c #959799",
"W. c #9A9A9B",
"Q. c #9F9E9E",
"!. c #9F9C98",
"~. c #999897",
"^. c #A19386",
"/. c #A19283",
"(. c #AE9A8A",
"). c #A99688",
"_. c #B39583",
"`. c #BB9E84",
"'. c #B29984",
"]. c #A19F9F",
"[. c #A69A91",
"{. c #A7A39E",
"}. c #BAA99A",
"|. c #B3A192",
" X c #9A9FA4",
".X c #A1A2A2",
"XX c #A5A5A5",
"oX c #A3A3A3",
"OX c #A9A7A6",
"+X c #AAAAAA",
"@X c #ABACAC",
"#X c #ACAAA7",
"$X c #B2AFAD",
"%X c #BAB3AB",
"&X c #AEB2B6",
"*X c #B2B2B2",
"=X c #B6B6B6",
"-X c #B6B4B3",
";X c #B9B5B1",
":X c #B7B9BA",
">X c #BDBDBD",
",X c #BBBBBA",
"<X c #D8AC84",
"1X c #D5AF8D",
"2X c #C6AC94",
"3X c #C9B099",
"4X c #C7B19A",
"5X c #DBB593",
"6X c #DCBB9E",
"7X c #DFB996",
"8X c #E3B78C",
"9X c #E4B88D",
"0X c #EEB98A",
"qX c #FEBD82",
"wX c #FBBB83",
"eX c #F8BC89",
"rX c #EDBF94",
"tX c #E6BE9A",
"yX c #C4B5A6",
"uX c #C8B7A8",
"iX c #D5B9A2",
"pX c #C9BDB2",
"aX c #C3BCB6",
"sX c #FFC086",
"dX c #FEC189",
"fX c #FDC28D",
"gX c #E9C09B",
"hX c #F7C192",
"jX c #FEC490",
"kX c #FFC996",
"lX c #FDC99C",
"zX c #DAC0A9",
"xX c #C1C0BF",
"cX c #CCC3BB",
"vX c #D8C5B6",
"bX c #E0C2A6",
"nX c #FAD3B0",
"mX c #B9BEC3",
"MX c #C4C3C3",
"NX c #CCCBCA",
"BX c #CDC9C3",
"VX c #D0CDCB",
"CX c #D7D0CA",
"ZX c #D7D6D3",
"AX c #FBDCC2",
"SX c #FCE3CF",
"DX c #E1E0DE",
"FX c #FCE9D9",
"GX c #E3E3E4",
"HX c #FDEEE0",
"JX c #FEF4EB",
"KX c #FDF0E4",
"LX c #FEF7F1",
"PX c #FEFAF7",
"IX c #FFFFFF",
"UX c #FDFCFA",
/* pixels */
"IXIXUXFXlX1.$.%.%.%.%.%.%.%.%.%.%.%.%.%.%.%.%.$.<.eXSXPXIXIX",
"IXJXeXh.C.fXkXkXkXkXkXkXkXkXkXkXkXkXkXkXkXkXkXkXfXA.l.C.HXIX",
"UXwXV.jXfXdXdXdXdXdXdXdXdXdXdXdXdXdXsXsXdXdXdXdXdXdXjXA.h.LX",
"SXh.sXqXqXqXqXqXqXqXqXqXqXqXqXqXwXqXjXfXqXqXqXqXqXqXqXqXc.nX",
"wXl.Z.Z.Z.Z.Z.A.Z.Z.A.Z.Z.B.N.0XtXbXcXzXwXZ.Z.Z.Z.Z.Z.Z.B.2.",
"*.x.N.N.N.N.x.x.V.V.z.x.B.wXhXyXNX=X4X1XwXN.N.N.N.N.N.N.B.%.",
"$.x.x.x.z.M.9XgXbXzXrX9X2X(.I.Q.MX#X7Xj.c.x.c.x.x.x.x.z.x.$.",
"$.k.k.k.g.M.yX&X@X&XxXG., + o W.:X.X;X8Xk.k.k.k.c.k.k.g.c.$.",
"$.g.g.f.j.9XyX].oXoXXX>   . . _.! < *X6Xd.g.g.f.4.f.g.h.g.$.",
"$.s.s.3.v.|.W.-XG.J.+X> O # - S : < ,X6X1.a.p.m.rXv.1.s.s.$.",
"$.1.1.2.v.^.0 =X~.H.OXM u V G M q J.,X7Xu.6XvXpX;X5Xs.2.1.$.",
"$.<.<.<.i.^.6 =XMXD.~.)./ / _.I.K.E.>XvX3X=XmX}.t.i.2.<.<.$.",
"$.>.>.>.i.^.6 =XaX8 R.+X*XMX>XMX=X].K.4 4 =X>X$X<X:.>.>.,.$.",
"$.-.-.;.i./.6 =X`.3 E.@XoXoXQ.*X.X+ O   > ;XR.R.aXb.;.-.-.$.",
"$.=.=.=.u./.5 :X( 2  X*X@XOXQ.+XK.O X   & e.- 4 cXt.O.=.=.$.",
"R O.O.O.9./.5 :X4X= D L.W.$X4 XXP.# % r t t 1 R.cXr.X.O.O.R ",
"$.o.o.X.9./.7 =XDXC B 8 H.NXR.R.[.Z H H A D G.oXcXr. .o.o.$.",
"R X.|  .[ U.5 -XGXVX%X9 D.NXXX9 {.U.^ ) P.R.R.!.pXq.} X.| E ",
"#.} } U { '.0 *XGXCXcXG.9 NX^.8 Q.J.T..XW.R.D m 2Xr.Y } } $.",
"R U U U } 9.(.}.7X0.e.F F.BXm 9 XXJ.P.xX{.N w e yXq.P U U R ",
"R P P P P P [ { I I 6.F D.BXy 3 J.H.L.>X^ @ @ C vX8.K P P R ",
"R I I I P I K K P I 5.F 9 ZX`.$ * ; Y.,Xm @ y cXZX{ J I K R ",
"R J J J J J J J J J 5.F D.ZXZX~ e w : Q B _ pXvX1X` n J J E ",
"R b b b b b b b b b 5.F G.ZXGXZXcX2X~ W 7.<X8.' L b b b b R ",
"&.x x x x x x x x z ] ).H.VXCXiX1Xy.w.` L g h k x x x x z T ",
"n.c j j j j j j j j z ] `.6.] v d f f g h l l l l j j j k *.",
"AXY s g g g g g g g g g b g f f g g g g g g g g g g g g c eX",
"PXa.f a a a a a a a a a i a a s a a a a a a a a a a a a @.JX",
"IXKX+.c a p p p p p p p p p p p p p p p p p p p p a k ..FXIX",
"IXIXLXhX&.T T T T T T T T T T T T T T T T T T T T #.S.JXIXIX"
};
