/* XPM */
static char *FB_PozoPluvial_FS_R[] = {
/* columns rows colors chars-per-pixel */
"30 30 256 2 ",
"   c #151414",
".  c #1C1D1D",
"X  c #220E0E",
"o  c #211313",
"O  c #1D2F2F",
"+  c #242525",
"@  c #2A2F2F",
"#  c #213C3C",
"$  c #373737",
"%  c #0F4343",
"&  c #2B4141",
"*  c #3D5F5F",
"=  c #127676",
"-  c #5F5E5E",
";  c #535959",
":  c #4F4B4B",
">  c #53537A",
",  c #666565",
"<  c #656364",
"1  c #6A6A6A",
"2  c #656A69",
"3  c #6F7272",
"4  c #747575",
"5  c #767A7A",
"6  c #7C7B7B",
"7  c #666677",
"8  c #9E2F2C",
"9  c #9E302D",
"0  c #A12F2B",
"q  c #A2322E",
"w  c #A03330",
"e  c #A33633",
"r  c #A33734",
"t  c #A53533",
"y  c #A53936",
"u  c #A43834",
"i  c #A63B38",
"p  c #A93D3A",
"a  c #AA3D3A",
"s  c #A33539",
"d  c #AD413D",
"f  c #AB403D",
"g  c #A23B44",
"h  c #AF4441",
"j  c #AD4340",
"k  c #AB4747",
"l  c #B24744",
"z  c #B14542",
"x  c #B44A46",
"c  c #BC4946",
"v  c #BB4946",
"b  c #B54C4A",
"n  c #BE4B48",
"m  c #BE4C4A",
"M  c #BA4E4B",
"N  c #AE514F",
"B  c #BA514E",
"V  c #BD514C",
"C  c #B7514E",
"Z  c #AE575B",
"A  c #BD5451",
"S  c #BE5754",
"D  c #BA5451",
"F  c #B2545B",
"G  c #B65D58",
"H  c #AB4C54",
"J  c #BE6758",
"K  c #B65961",
"L  c #B85C64",
"P  c #B86567",
"I  c #B86F75",
"U  c #AB7D7C",
"Y  c #A77A78",
"T  c #B47878",
"R  c #C04F4C",
"E  c #C0504D",
"W  c #C05652",
"Q  c #C25A56",
"!  c #C45A55",
"~  c #C45D5A",
"^  c #C95F5B",
"/  c #C6615E",
"(  c #C9615E",
")  c #CB6461",
"_  c #CC6663",
"`  c #CC6966",
"'  c #C66A69",
"]  c #CF6E6C",
"[  c #C06667",
"{  c #D16A67",
"}  c #D26D6A",
"|  c #D46E6A",
" . c #D26764",
".. c #CC706E",
"X. c #D6716E",
"o. c #DA716E",
"O. c #CD7674",
"+. c #D57572",
"@. c #D97472",
"#. c #DC7572",
"$. c #DD7976",
"%. c #D57E7B",
"&. c #DE7D7A",
"*. c #DD7D7A",
"=. c #E27B78",
"-. c #8C8C78",
";. c #AD807E",
":. c #DF827F",
">. c #D7817E",
",. c #39389B",
"<. c #434283",
"1. c #555486",
"2. c #464599",
"3. c #5F5FB6",
"4. c #0302EF",
"5. c #0100F2",
"6. c #0000FE",
"7. c #0403FB",
"8. c #0C09F9",
"9. c #100FFA",
"0. c #1A18F8",
"q. c #2323E5",
"w. c #2423FB",
"e. c #2B2AF7",
"r. c #3434F7",
"t. c #0F0CD0",
"y. c #4747CC",
"u. c #5B5BD6",
"i. c #7464D6",
"p. c #504EF7",
"a. c #5857F2",
"s. c #5857ED",
"d. c #5F66FF",
"f. c #6A6BE6",
"g. c #7579F2",
"h. c #0B9494",
"j. c #0CAAAA",
"k. c #7F8787",
"l. c #7F9E9E",
"z. c #55BEBE",
"x. c #6DA6A6",
"c. c #00C9C9",
"v. c #05D6D6",
"b. c #03E1E1",
"n. c #1AE9E9",
"m. c #00FDFD",
"M. c #06F5F5",
"N. c #60C0C0",
"B. c #45F5F5",
"V. c #54CCCC",
"C. c #8D8C8C",
"Z. c #838384",
"A. c #928F8F",
"S. c #8B9190",
"D. c #959591",
"F. c #959495",
"G. c #939293",
"H. c #9A9999",
"J. c #9E9E9F",
"K. c #929291",
"L. c #AE8180",
"P. c #B18483",
"I. c #B88787",
"U. c #A49D9D",
"Y. c #BA9290",
"T. c #A1A19A",
"R. c #A5A594",
"E. c #9DA2A2",
"W. c #A3A3A4",
"Q. c gray67",
"!. c #ADADAB",
"~. c #AEAEAE",
"^. c #AAAAAC",
"/. c #A5A8AB",
"(. c #B3ACAC",
"). c #BAAAAA",
"_. c #ADB2B2",
"`. c #B2B2B2",
"'. c #B8B2B2",
"]. c #BDBDBD",
"[. c #B4BABA",
"{. c #C68785",
"}. c #DF8380",
"|. c #DF8481",
" X c #DD8683",
".X c #D68C89",
"XX c #DB8C8A",
"oX c #D28382",
"OX c #DC918E",
"+X c #C8999B",
"@X c #D79492",
"#X c #DB9391",
"$X c #D39E9D",
"%X c #D89A98",
"&X c #E08683",
"*X c #E08986",
"=X c #E28F8C",
"-X c #E28D8A",
";X c #E2908E",
":X c #E49593",
">X c #E59897",
",X c #E59A98",
"<X c #C8A09F",
"1X c #DEA09E",
"2X c #DBB19F",
"3X c #C3A5A5",
"4X c #CAA6A9",
"5X c #DFAEAC",
"6X c #DAA5A4",
"7X c #C7AEBB",
"8X c #C2ABB3",
"9X c #CEB4B3",
"0X c #CCB2BA",
"qX c #D7BBB5",
"wX c #D1B8BA",
"eX c #E3B4B4",
"rX c #E2A6A4",
"tX c #C2C29B",
"yX c #C1C0BF",
"uX c #A793C7",
"iX c #BBBBC4",
"pX c #B6B7DE",
"aX c #8B8DEA",
"sX c #938FE1",
"dX c #979BED",
"fX c #9EA1EB",
"gX c #AFB5EB",
"hX c #B0B1E1",
"jX c #AAAAE3",
"kX c #BFC2E8",
"lX c #C1C3C3",
"zX c #C5CACA",
"xX c #CACCCB",
"cX c #DAC6C5",
"vX c #DED2CD",
"bX c #C9D0D0",
"nX c #D5D5D6",
"mX c #D8D4D5",
"MX c #D8DBDB",
"NX c #EFD3D3",
"BX c #F3DEDE",
"VX c #E9C6C5",
"CX c #E5E5DA",
"ZX c #E7E8DB",
"AX c #CCD0E5",
"SX c #DADAE7",
"DX c #D4D4EB",
"FX c #DCE0E3",
"GX c #E1E1E2",
"HX c #ECECE7",
"JX c #E5E7E8",
"KX c #F9EEEE",
"LX c #F5E6E5",
"PX c #FBF4F4",
"IX c #FFFFFF",
"UX c #FDFAFA",
/* pixels */
"IXIXUXBX6X` m E R R R R R R R R R R R R R R E m / @XNXPXIXIX",
"IXKXOX] %.;X,X>X>X>X>X>X>X>X>X>X>X>X>X>X>X>X>X>X:X}.+.%.LXIX",
"UX.X+.:X;X=X=X=X=X=X=X=X=X=X=X=X=X=X=X=X=X;X=X-X-X;X:X}...PX",
"NX] -X X*X*X*X*X*X*X*X*X*X*X*X*X*X*X*X&X&X:.|.OXXX X X-X+.eX",
".X+.:.:.}.}.}.}.}.}.|.|.}.}.}.|.|.}.|.*X#XrX5XcXcX#X:.}.*._ ",
"Q $.&.*.&.&.&.&.&.&.$.*.&.&.&.*.$.#.>.3XcXnXzX'.[.$X=.*.&.R ",
"n $.$.#.$.#.#.#.o.X. X%.o.o.@.*.XX1X<XW.nXW.U.{.I %.$.#.$.m ",
"m @.@.@.@.@.oX$X5XeXcXcX%X@X6X9X).C.C.U.mX~.(.6X=.o.@.@.@.m ",
"m X.X.X.X.| {.W.^.].W._.mX(.5 ; : + $ W.xX~.`.`.+X+.| X.X.m ",
"m } } } } } .X3XH.H.H.C.nX4 .     . @ `.].2 G._.8X%.{ } | m ",
"n { { { { {.).'.~.Q.`.F.nX< . + + X # B.V.% : lX9XO. .{ { m ",
"m _ _ ) X.I.k.W.~.Q.- 4 MX, o o O = = b.c.& 6 bXwX' _ _ ` n ",
"m ) ) ( } I.3 6 W.zX1 4 MX, h.v.v.m.M.j.* 5 H.zXwX' ( ) ) m ",
"m ( ( ~ ` P.5 , Q.GXW.3 '.N.n.m.m.M.n.x.C.G.D.xX0X[ ^ / ( n ",
"n ~ ~ Q _ P.5 , ~.GXW.1 H.E.G.z.z.l.G.F.F.D.G.zX0XP ! ~ ~ m ",
"c Q Q W ) P.5 < !.GXW.2 H.J.G.A.G.F.G.G.D.G.y.dXqXL ! Q Q n ",
"n S S A / L.5 < !.DXu.> T.J.C.6 /.].T.D.S.y.6.dXqXK W S S c ",
"c A A B ~ ;.5 < !.SXw.<.R./.Z.Z.`.lXiX3.q.7.8.fXqXK V A A n ",
"c B B M Q U 5 , !.SXe.,.-.R.D.4 ~.iXf.6.7.6.r.AX0XF M B B c ",
"n b b b S U 5 < ^.HXs.4.2.1.1., /.iXa.7.6.9.sXZX8XF x b b n ",
"c x x l D U 5 , ^.HXpXw.6.5.5.7 tXyXr.6.e.aXZXJX7XF l x x c ",
"c l l z C U 5 , !.JXCXjXa.w.0.t.y.f.r.g.kXmX7X4XI b z l z c ",
"c h h d b Y 4 , Q.JXnXCXCXhXgXd.p.i.uX2X{.I H k a d h h j c ",
"c d d a j T S.- !.JXFXFXFXvX4X+X{.J G g s i a d j d d d f c ",
"m p p p y N Y.6 /.vX3XI.P Z g g s t t a a p p p p p p p p v ",
"O.i u y y e k T T N j r 0 q u u y i i y y y y y y y y y u Q ",
"VXx e e e r w p i 0 q e u u r r r e e e e e e e e e e r a @X",
"UX' q 9 w w w 9 9 w w w w w w w w w w w w w w w w w w 9 B KX",
"IXLXS p 9 9 9 9 9 9 9 9 9 9 9 9 9 9 9 9 9 9 9 9 8 9 e M BXIX",
"IXIXPX%XM c c c c c c c c c c c c c c c c c c c c n oXLXIXIX"
};
