/* XPM */
static char *FB_PozoFecal_SC[] = {
/* columns rows colors chars-per-pixel */
"30 30 256 2 ",
"   c #14191C",
".  c #1C1C1A",
"X  c #161612",
"o  c #1F201D",
"O  c #39281E",
"+  c #282827",
"@  c #292725",
"#  c #362E28",
"$  c #3A3634",
"%  c #763300",
"&  c #7B3500",
"*  c #793D01",
"=  c #7D3C02",
"-  c #73410B",
";  c #634230",
":  c #7A4E33",
">  c #695139",
",  c #46464E",
"<  c #5A4E47",
"1  c #4F534F",
"2  c #5F5F5F",
"3  c #635243",
"4  c #715B45",
"5  c #665D53",
"6  c #6F6254",
"7  c #62605B",
"8  c #505060",
"9  c #666664",
"0  c #686662",
"q  c #696764",
"w  c #6D6966",
"e  c #676868",
"r  c #6A6B6A",
"t  c #706F6F",
"y  c #6E6E77",
"u  c #747476",
"i  c #73737D",
"p  c #74747D",
"a  c #74747D",
"s  c #7B7B7A",
"d  c #77787D",
"f  c #824203",
"g  c #86490C",
"h  c #8D541B",
"j  c #8A5725",
"k  c #925D28",
"l  c #8D593A",
"z  c #976632",
"x  c #936238",
"c  c #A4613A",
"v  c #8B6946",
"b  c #8A755E",
"n  c #997A5B",
"m  c #AB6841",
"M  c #B66E45",
"N  c #A57A4D",
"B  c #A47E57",
"V  c #807F7A",
"C  c #C87748",
"Z  c #D47D4B",
"A  c #C87D52",
"S  c #FFCB00",
"D  c #FFCD00",
"F  c #FFCF05",
"G  c #F8CF00",
"H  c #FFCE0C",
"J  c #F7CE01",
"K  c #FED100",
"L  c #FED500",
"P  c #FBD403",
"I  c #FFD900",
"U  c #FEDE00",
"Y  c #FEDB05",
"T  c #FCD30C",
"R  c #F5DD0D",
"E  c #FFD112",
"W  c #F7DA10",
"Q  c #FED814",
"!  c #FFD21C",
"~  c #F7D511",
"^  c #FEE200",
"/  c #FEE600",
"(  c #FFE900",
")  c #FEED00",
"_  c #FFE30C",
"`  c #FFED0C",
"'  c #FFE90C",
"]  c #F3E50E",
"[  c #FEF100",
"{  c #FEF600",
"}  c #FEFA00",
"|  c #FEFE01",
" . c #FCFB03",
".. c #FFF30C",
"X. c #FEFE09",
"o. c #FFFF0D",
"O. c #FDF90C",
"+. c #ECEC1E",
"@. c #F4E913",
"#. c #FEFE1E",
"$. c #FEFD1A",
"%. c #F8F318",
"&. c #CFCE24",
"*. c #D9D73E",
"=. c #FED721",
"-. c #FFD628",
";. c #FAD82A",
":. c #F9D638",
">. c #FFE224",
",. c #FFED25",
"<. c #FFE42D",
"1. c #FEFE20",
"2. c #F4F32A",
"3. c #FFFF29",
"4. c #FFFE2E",
"5. c #F9F521",
"6. c #E9E23D",
"7. c #FEE834",
"8. c #FBF435",
"9. c #FEFF32",
"0. c #FDFD3C",
"q. c #FEF23C",
"w. c #BB9858",
"e. c #9B897E",
"r. c #A8866B",
"t. c #AC8A76",
"y. c #AF8F7D",
"u. c #B78E78",
"i. c #B0937A",
"p. c #C4815C",
"a. c #CABE5B",
"s. c #C7B95C",
"d. c #D69B7A",
"f. c #CBC35C",
"g. c #DFCA5A",
"h. c #FFDD45",
"j. c #F2D843",
"k. c #EED95F",
"l. c #FFDB54",
"z. c #EBE942",
"x. c #F6F645",
"c. c #FEFE41",
"v. c #FCFD45",
"b. c #FFFA4C",
"n. c #E8E65C",
"m. c #FFE158",
"M. c #FEE057",
"N. c #FFFF57",
"B. c #FEFC50",
"V. c #F3F25C",
"C. c #FFFF58",
"Z. c #DEC861",
"A. c #DCCC7A",
"S. c #D5D572",
"D. c #ECD563",
"F. c #F2DE69",
"G. c #E3E365",
"H. c #FFE362",
"J. c #FEE169",
"K. c #E3E176",
"L. c #FFE479",
"P. c #F2F17C",
"I. c #F1F073",
"U. c #F6F665",
"Y. c #7B7C8F",
"T. c #838382",
"R. c #8C8C8B",
"E. c #82878C",
"W. c #958F8B",
"Q. c #90908D",
"!. c #929291",
"~. c #939495",
"^. c #959594",
"/. c #949492",
"(. c #9A9A96",
"). c #9C9C9C",
"_. c #878994",
"`. c #A19F9E",
"'. c #BDA58D",
"]. c #B0B086",
"[. c #A3A39D",
"{. c #BEA99C",
"}. c #9F9FAA",
"|. c #9C9EA0",
" X c #9DA1A3",
".X c #A7A7A5",
"XX c #A3A3A2",
"oX c #ABAAAA",
"OX c #ADADAD",
"+X c #ACABAD",
"@X c #A1A3AE",
"#X c #B7ADA5",
"$X c #BBBAA6",
"%X c #B6B6AA",
"&X c #ACACB7",
"*X c #B2B2B1",
"=X c #B2B3B5",
"-X c #BDBCBC",
";X c #B3B3BB",
":X c #D1BC86",
">X c #C0AEA5",
",X c #C7BBB5",
"<X c #C6B9AA",
"1X c #D1D181",
"2X c #C2C196",
"3X c #CBCA9C",
"4X c #DDD192",
"5X c #DFDA9C",
"6X c #DAD896",
"7X c #CBC889",
"8X c #E5D686",
"9X c #E0D59B",
"0X c #E1DB9C",
"qX c #E7DA93",
"wX c #F0E797",
"eX c #FFEB95",
"rX c #DEDEAE",
"tX c #C1C1BF",
"yX c #CBC0B7",
"uX c #DBDBB8",
"iX c #E3DFA5",
"pX c #E1E1AC",
"aX c #E6E3A5",
"sX c #FEEEAF",
"dX c #AFB9C1",
"fX c #BFBFCE",
"gX c #C1C1C3",
"hX c #C5C6CF",
"jX c #CCCCCB",
"kX c #D1C8C4",
"lX c #C9CAD5",
"zX c #D4CFD3",
"xX c #D5D5D5",
"cX c #DDDDDD",
"vX c #D9D8D2",
"bX c #E1DEC9",
"nX c #E1DDDA",
"mX c #E0DAD4",
"MX c #E9E4C7",
"NX c #FFF2C2",
"BX c #FFF5CE",
"VX c #E0E2DF",
"CX c #FFF6D4",
"ZX c #FFF7DB",
"AX c #D9DBE3",
"SX c #DBDEF1",
"DX c #DFE2E7",
"FX c #E2E3E2",
"GX c #E9EBEC",
"HX c #E8E8E8",
"JX c #FFF9E3",
"KX c #FFFAEB",
"LX c #E0E5F1",
"PX c #FFFCF5",
"IX c #FFFFFE",
"UX c #FFFDF9",
/* pixels */
"IXIXUXCXL.-.F F F F F F F F F F F F F F F F F F ! H.NXPXIXIX",
"IXKXH.>.8.b.C.N.N.N.N.N.N.N.N.N.N.N.N.N.N.N.N.C.B.q.<.h.CXIX",
"UXM.,.v.c.c.c.c.c.c.c.c.c.c.c.c.c.c.c.c.c.c.c.0.0.c.v.8.;.KX",
"NX>.9.4.4.4.4.4.4.4.4.4.4.4.4.4.4.9.9.3.3.1.3.v.0.4.4.9.,.eX",
"m.%.#.#.#.#.#.#.#.#.1.1.#.#.#.1.1.#.#.4.x.U.P.pXrXx.$.#.$.=.",
"E o.o.X.o.o.o.o.o.o.X.X.o.o.o.X.| | %.1XuXlXfX%X;XG.o.X.o.F ",
"D | | | | | | | } } 5.%.| |  .O.2.V.S.}.xXXX].*.&.+. .| | D ",
"D } } } } | 2.G.I.P.pXaXV.z.K.6X2XQ.R.[.vX+X#XV.| | } } | D ",
"D } } } } } z.[.+X-X}.&XvX$Xp 8 , + $ XXjXOX=X*Xn.O.} } } D ",
"D { { { { { 8.7X).(.(.R.xXu o X X . # *X-Xq /.&X3X5.{ { } D ",
"D { { { { 6.2X$XOXoX*X^.xX9 . @ @   # d.u.O 1 gX6X@.{ { { D ",
"D [ [ [ O.f.Y. XOXoX2 u cXe     @ ; ; M c $ s lX0X@.{ [ { D ",
"D [ [ [ ..f.y V .XjXr u cX9 : m M C C l < s (.hX5X] [ [ [ D ",
"D ) ) ) ..f.i q oXFXXXt =Xy.A Z Z A p.e.R.!./.hX5X] [ ) [ D ",
"S ) ) ) ..f.p 9 OXFXXXe ).`./.t.t.W.!.^.^.~./.hX0X] ) ) ) D ",
"D ( ( ( ` f.i 0 +XFX[.e ).).!.!.!.^.!.!.~.!.v {.iXR ) ( ( S ",
"D ( / / ` f.a 0 OXmXn 5 |.).R.s .X-X).~.Q.v f #XaXR ( / ( D ",
"D / / / ' a.i 0 OXnXk 3  X.XT.T.*XgX-Xb j = g >XiXR / / / S ",
"D / ^ ^ ' a.p 0 OXnXk > E. X~.u OXtXr.& f & z zX9XR / ^ / D ",
"S ^ ^ ^ _ a.i 0 oXHXB * 4 6 6 e .X-XB = & g '.DX4XW ^ ^ ^ D ",
"D ^ U U _ a.i q oXGXyXk % * * w dXtXz % k '.LXSX9XW ^ U ^ S ",
"S U U U _ a.p q +XHXDX<XB h h - v r.x i.kXbX9XqXj.Y U U U D ",
"S I I I _ s.u w oXHXvXFXVX,X,Xr.N w.:XwXF.j.~ P I I I I I S ",
"S I L L Y g._.7 OXHXAXAXAXMX8X8Xk.<.;.P L L I I Y I I L I S ",
"F L L L L Q A.d @XMX4XD.:.;.J G K L L L L L L L L L L L L S ",
"h.K L K L K Q Z.g.=.T K K L L L L L L L L L L L L L K L K E ",
"sXT K K K K K Y L K K K K K K K K K K K K K K K K K K K K J.",
"PX:.D K D K K D D K K K K K K K K K K K K K K K K D K D E JX",
"IXZX! F D D D D D D D D D D D D D D D D D D D D D D D H BXIX",
"IXIXKXL.H S S S S S S S S S S S S S S S S S S S S F l.JXIXIX"
};
