/* XPM */
static char *FB_Pozos_A[] = {
/* columns rows colors chars-per-pixel */
"30 30 256 2 ",
"   c #0F1113",
".  c #1A1313",
"X  c #12161B",
"o  c #1F1E1E",
"O  c #242322",
"+  c #2C2725",
"@  c #3F3D3B",
"#  c #4D382E",
"$  c #7E5225",
"%  c #624333",
"&  c #7E553F",
"*  c #1C4F4F",
"=  c #265C5D",
"-  c #3C7374",
";  c #2A6B6B",
":  c #136F6F",
">  c #454546",
",  c #56514C",
"<  c #5B5755",
"1  c #725C45",
"2  c #776758",
"3  c #676768",
"4  c #71706F",
"5  c #727170",
"6  c #7B7A77",
"7  c #7C7C7D",
"8  c #787777",
"9  c #756B65",
"0  c #A4613B",
"q  c #8F6C57",
"w  c #957252",
"e  c #976A52",
"r  c #BB7045",
"t  c #A27D59",
"y  c #A76947",
"u  c #8B7B6C",
"i  c #807F7F",
"p  c #C67547",
"a  c #80807F",
"s  c #909077",
"d  c #9C8679",
"f  c #B98669",
"g  c #B79470",
"h  c #3333A9",
"j  c #2222B5",
"k  c #3D3CBC",
"l  c #2C5E9A",
"z  c #295E9D",
"x  c #2D5F9C",
"c  c #295C9C",
"v  c #265C9E",
"b  c #2E619E",
"n  c #2A5DA0",
"m  c #2F63A1",
"M  c #2D63A5",
"N  c #2E64A4",
"B  c #2C65AB",
"V  c #3064A3",
"C  c #3165A5",
"Z  c #3063A0",
"A  c #3B6BA4",
"S  c #3167A8",
"D  c #3765A9",
"F  c #3268AA",
"G  c #3269AD",
"H  c #346BAC",
"J  c #3669A4",
"K  c #2F6AB1",
"L  c #326BB0",
"P  c #326CB2",
"I  c #346DB2",
"U  c #346FB5",
"Y  c #2F71BF",
"T  c #3671B6",
"R  c #3370B7",
"E  c #3672B9",
"W  c #3674BE",
"Q  c #3976BE",
"!  c #3A75BB",
"~  c #3F7ABF",
"^  c #5A5990",
"/  c #7B7D80",
"(  c #5555BA",
")  c #4573AF",
"_  c #4C79A8",
"`  c #557BAB",
"'  c #4A7AB4",
"]  c #477BBA",
"[  c #477DBA",
"{  c #417ABE",
"}  c #487CBA",
"|  c #487BBA",
" . c #4671B0",
".. c #517EB5",
"X. c #517DB2",
"o. c #547EB8",
"O. c #6E6FA7",
"+. c #0D0CE1",
"@. c #0000FD",
"#. c #1212F3",
"$. c #1B1CE6",
"%. c #2726FA",
"&. c #3D3DF2",
"*. c #3576C5",
"=. c #3575C2",
"-. c #3977C1",
";. c #3778C6",
":. c #3A78C2",
">. c #3C7AC3",
",. c #3A7AC6",
"<. c #3C7BC6",
"1. c #3D7CC7",
"2. c #3A7BC9",
"3. c #3B7CC9",
"4. c #3F7EC8",
"5. c #3578C9",
"6. c #437DC3",
"7. c #5D69DA",
"8. c #6D7FCF",
"9. c #6B69DC",
"0. c #4242EC",
"q. c #4949E0",
"w. c #5655F2",
"e. c #6466E9",
"r. c #7976F1",
"t. c #0B9E9E",
"y. c #0EADAD",
"u. c #07BCBC",
"i. c #7F8A97",
"p. c #7F8B98",
"a. c #7E8C9F",
"s. c #7F8690",
"d. c #619191",
"f. c #4F80BB",
"g. c #5C83B5",
"h. c #5383BC",
"j. c #5E89BB",
"k. c #5E87BA",
"l. c #6B88AC",
"z. c #6887AC",
"x. c #7A90AC",
"c. c #638AB7",
"v. c #678BB4",
"b. c #7492B7",
"n. c #7A98B9",
"m. c #69AEAE",
"M. c #7CA6A6",
"N. c #51C0BF",
"B. c #4780C3",
"V. c #4C83C4",
"C. c #4C85CA",
"Z. c #5286C2",
"A. c #5C8CC4",
"S. c #5289CA",
"D. c #618EC7",
"F. c #6B94C7",
"G. c #7497C2",
"H. c #7499C5",
"J. c #749CCB",
"K. c #7F9DC2",
"L. c #7FA2CB",
"P. c #1FCBCB",
"I. c #23DDDE",
"U. c #07F9FA",
"Y. c #45E9E9",
"T. c #828282",
"R. c #848485",
"E. c #8E8E8E",
"W. c #8B8B8B",
"Q. c #878786",
"!. c #968D8A",
"~. c #91908F",
"^. c #95958E",
"/. c #808A97",
"(. c #8D9192",
"). c #85969E",
"_. c #949494",
"`. c #979897",
"'. c #9F9E9E",
"]. c #9B9B9A",
"[. c #979898",
"{. c #B29583",
"}. c #B99F87",
"|. c #A49E9F",
" X c #A89589",
".X c #9FA09F",
"XX c #A3A39F",
"oX c #8996A5",
"OX c #8393A7",
"+X c #999CA6",
"@X c #819CBF",
"#X c #8B9FB5",
"$X c #9E9FB9",
"%X c #8787B9",
"&X c #86ADAD",
"*X c #99A3AA",
"=X c #8FA3BC",
"-X c #9AA7B5",
";X c #A1A2A2",
":X c #A4A5A3",
">X c #A8A7A6",
",X c #ABABAA",
"<X c #A4A7AB",
"1X c #B0AFAF",
"2X c #BAB3AA",
"3X c #A4ABB3",
"4X c #AEB2B6",
"5X c #AFB8BC",
"6X c #B5B6B6",
"7X c #B3B2B2",
"8X c #B9B7B4",
"9X c #B5B9BB",
"0X c #BABBBC",
"qX c #C5B19B",
"wX c #C2BEBB",
"eX c #BEC1BF",
"rX c #C5C1BC",
"tX c #8CA3C9",
"yX c #88A5C7",
"uX c #93AAC4",
"iX c #92ABC9",
"pX c #95AAC3",
"aX c #85A9D3",
"sX c #98B6D7",
"dX c #AAB9CA",
"fX c #ABB5C7",
"gX c #BCBEC1",
"hX c #B7BDC4",
"jX c #A0A5DB",
"kX c #8383EC",
"lX c #9498E3",
"zX c #AEB1E2",
"xX c #BCBBE3",
"cX c #BBC2C9",
"vX c #BAC0D7",
"bX c #B1C8E2",
"nX c #C3C3C3",
"mX c #CCCDCD",
"MX c #C8C8C7",
"NX c #D5D0CB",
"BX c #CBCCD3",
"VX c #C4C6D7",
"CX c #D4D5D7",
"ZX c #E0E0DE",
"AX c #D1D7E7",
"SX c #C5D5E7",
"DX c #D5E1EF",
"FX c #DEE7F2",
"GX c #E3E4E3",
"HX c #E3EBF5",
"JX c #EEF2F8",
"KX c #E9F0F6",
"LX c #F3F6FA",
"PX c #FEFEFE",
"IX c #FAFBFC",
"UX c #F7FAFD",
/* pixels */
"PXPXIXFXsXA.] } } } } } } } } } } } } } } } } ] A.aXAXIXPXPX",
"PXJXaXB.:.3.2.2.2.2.2.2.2.2.2.3.3.3.3.3.2.2.2.2.3.:.B.J.HXPX",
"IXaX=.3.3.2.2.2.2.2.2.2.2.2.2.3.3.2.5.5.2.2.2.2.2.3.3.;.D.LX",
"DXV.2.,.2.2.2.2.2.2.2.2.2.2.2.;.,.4.S.C.,.2.2.2.2.2.,.2.6.bX",
"aX>.,.,.,.,.<.1.,.2.1.<.,.*.*.A.H.tXfXpXV.,.,.,.,.,.,.,.,.A.",
"h.<.,.<.<.,.*.*.<.>.*.*.4.S.F.3XMX8X#Xb.S.,.<.<.<.<.<.<.,.} ",
"} ,.,.,.,.B.F.L.iXiXJ.G.n.a.s.'.nX<XK.6.:.,.,.,.,.,.,.,.,.} ",
"} :.:.>.-.Z.-X2X,X8XgXT., @ + [.9X:X4XG.:.:.:.>.>.>.:.:.:.} ",
"} :.:.-.{ H.-X.X;X;X>X>   X X {.d , 7XuX! >.:.=.Y =.:.:.-.} ",
"} Q Q W h.oX].6XT.E.,X> + # % y & < 0XuX! Q { A.L.Z.W -.-.[ ",
"} Q Q W h.i.8 6X`.R.>Xq 0 r p e 9 ~.0XyX' uXdXfX4X@X~ W Q } ",
"} ! ! E h.p.4 6XnX/ `. Xf f {.!.W.`.0XdX=X6XrX*Xk.} Q E W [ ",
"[ E E E h.p.5 6XwX6 _.,X7XnX0XMX6XXXW.3 3 6X0X3Xn.! E E E } ",
"} T T R h.i.5 6X}.2 [.,X:X;X'.7X;X@ O . > 5X_._.5Xj.U E T } ",
"} T T U ..i.4 9Xg 1 +X7X,X>X'.,XW.O o . = Y.; 3 cXc.P T U } ",
"} I I P ..i.4 9XqX$ u Q.].1X3 :X(.* : t.u.y.- _.cXj.K I I } ",
"} I I L ..p.5 6XZXt w 6 R.MX_.~.&XP.U.U.I.d.T.XXhXk.L I P | ",
"] L G G X./.4 7XGXNX2X7 / mX:X7 *XM.N.m.)._.~.+XdXk.B L G ] ",
"} G G G ' OX6 7XGXBXgXT.7 BX%X7 '.E.!.|.].^.O.q.lXc.B G G } ",
"} G G F H g.oX*XpXv.x.7 a VX0.6 :XE.(.eX$X( $.%.jXc.B G F } ",
"} F F F S F ..X.C N z./ a VX&.^ E.R.Q.gXe.@.@.w.vXg.B F S } ",
"} S S C S S M M F C l./ 7 CXkX+.j h s 0X0.@.&.xXCXo.M S C } ",
"} C C V C C C C C N z./ a CXAXe.%.#.k 9.w.r.zXvXtX) M C N } ",
"} V V m V V V V V m l.7 i CXGXCXxXlXe.7.8.@Xc. .D m V V m } ",
"} m m m m m m m m b ` ).Q.mXBXfX=Xb.c._ A n v z m m m m b ] ",
"J.C b b b b b b b b m ` OXl.` A n v v z z b Z m b b b b b h.",
"SX) x b b b b b b b b b A b c z b b b b b b b b b b b b J sX",
"UXF.x l x x x x x x x l c x x x x x x x x x x x x x x l ..JX",
"PXHXh.A l l l l l l l l l l l l l l l l l l l l l l Z ' FXPX",
"PXPXLXsXf.} } } } } } } } } } } } } } } } } } } } } aXKXPXPX"
};
