/* XPM */
static char *FB_Pozos_SC_R[] = {
/* columns rows colors chars-per-pixel */
"30 30 256 2 ",
"   c #151819",
".  c #1A1616",
"X  c #242223",
"o  c #2B2624",
"O  c #3B3A3C",
"+  c #4D392D",
"@  c #7F5324",
"#  c #634432",
"$  c #7E573D",
"%  c #1C4F4F",
"&  c #285D5C",
"*  c #2D6C6B",
"=  c #3F7473",
"-  c #136F6F",
";  c #464748",
":  c #5B5855",
">  c #725C44",
",  c #786858",
"<  c #686867",
"1  c #6F6E70",
"2  c #706F72",
"3  c #7C7A77",
"4  c #7D7C7D",
"5  c #76767A",
"6  c #776C65",
"7  c #A5613B",
"8  c #936C55",
"9  c #957352",
"0  c #BC7144",
"q  c #A67450",
"w  c #8B7B6C",
"e  c #C67647",
"r  c #FFCB00",
"t  c #FFCC01",
"y  c #FFCE06",
"u  c #FFCE09",
"i  c #FFCF0C",
"p  c #FFD00C",
"a  c #FFD00B",
"s  c #F8CE1A",
"d  c #FED212",
"f  c #FED215",
"g  c #FDD216",
"h  c #FED21A",
"j  c #FED41A",
"k  c #FDD41D",
"l  c #FFD81D",
"z  c #F5CE28",
"x  c #FFD621",
"c  c #FDD626",
"v  c #FFD827",
"b  c #FEDA2E",
"n  c #FFD929",
"m  c #FFD62F",
"M  c #FFD633",
"N  c #FEDE35",
"B  c #FEDC31",
"V  c #FEDF3B",
"C  c #FBDC3B",
"Z  c #F5D236",
"A  c #FEE03B",
"S  c #858279",
"D  c #82817A",
"F  c #939276",
"G  c #9D8679",
"H  c #B7946F",
"J  c #B98669",
"K  c #CDBE7D",
"L  c #EECF4B",
"P  c #EFD14B",
"I  c #FFDB45",
"U  c #F0D149",
"Y  c #F7DF5A",
"T  c #FADA58",
"R  c #FEE243",
"E  c #FEE54B",
"W  c #FEE554",
"Q  c #FFE854",
"!  c #FEE95A",
"~  c #FDEA5D",
"^  c #F9E059",
"/  c #DCCA6B",
"(  c #DDC967",
")  c #D2C47E",
"_  c #E5CE69",
"`  c #ECD46B",
"'  c #EFDB6A",
"]  c #F2DC65",
"[  c #EADB7D",
"{  c #E9D875",
"}  c #FFE263",
"|  c #FFEC62",
" . c #FEED65",
".. c #F1E06F",
"X. c #FFE26B",
"o. c #FEEE69",
"O. c #FEF06E",
"+. c #EFE47C",
"@. c #FCEC73",
"#. c #F7E273",
"$. c #FEF275",
"%. c #FDF37C",
"&. c #3C3CBC",
"*. c #2C2CAE",
"=. c #595A8F",
"-. c #7E7E81",
";. c #5555BA",
":. c #7070A6",
">. c #0D0DE0",
",. c #1D1DE5",
"<. c #0000FB",
"1. c #1313F2",
"2. c #2827F9",
"3. c #3E3EF1",
"4. c #6466DE",
"5. c #726EDC",
"6. c #4645E6",
"7. c #5959EF",
"8. c #4A4BF9",
"9. c #6868E9",
"0. c #6E70F6",
"q. c #0C9E9E",
"w. c #0FADAD",
"e. c #08BCBC",
"r. c #619191",
"t. c #51BFBF",
"y. c #69AEAE",
"u. c #7CA6A6",
"i. c #1FCBCB",
"p. c #24DEDD",
"a. c #08FAF9",
"s. c #45E9E9",
"d. c #848383",
"f. c #838488",
"g. c #8E8E8E",
"h. c #8B8B8A",
"j. c #968D8A",
"k. c #93928E",
"l. c #97988A",
"z. c #8E8F90",
"x. c #948F92",
"c. c #8A9595",
"v. c #939494",
"b. c #9A9A97",
"n. c #94979A",
"m. c #9F9E9E",
"M. c #9A9A9B",
"N. c #979897",
"B. c #B39583",
"V. c #A59F9F",
"C. c #A89589",
"Z. c #A5A186",
"A. c #A4A28A",
"S. c #B6A887",
"D. c #A7A699",
"F. c #B8B390",
"G. c #999BA7",
"H. c #8B86BA",
"J. c #9E9FB9",
"K. c #86ADAC",
"L. c #9AA4A5",
"P. c #A1A1A1",
"I. c #A5A5A3",
"U. c #A4A5A3",
"Y. c #A9A7A6",
"T. c #AAAAAA",
"R. c #B3ACA8",
"E. c #B8B4A7",
"W. c #AEAEB3",
"Q. c #AFBBBA",
"!. c #B2B1B2",
"~. c #B6B6B6",
"^. c #B7B6B3",
"/. c #B7B9BA",
"(. c #BBBCBB",
"). c #BAB9B3",
"_. c #C3B59A",
"`. c #C2BEBB",
"'. c #DEDA8B",
"]. c #DCCD9B",
"[. c #DDD997",
"{. c #E7D986",
"}. c #EBDE9C",
"|. c #EBE281",
" X c #FFEF83",
".X c #F4E987",
"XX c #FCF582",
"oX c #FEF987",
"OX c #FFFA82",
"+X c #FEF989",
"@X c #FEFA8E",
"#X c #FEFC8E",
"$X c #F9F48A",
"%X c #F3EF93",
"&X c #FFEB9A",
"*X c #FEFB90",
"=X c #FEFD97",
"-X c #F7F499",
";X c #FFFF9A",
":X c #FFFE9E",
">X c #FDFA9D",
",X c #FCF497",
"<X c #C9C7A7",
"1X c #DDDAAC",
"2X c #DAD4A2",
"3X c #C6C5B9",
"4X c #DEDDB7",
"5X c #D7D6BA",
"6X c #E2DDA8",
"7X c #EEEDAB",
"8X c #E6E4A5",
"9X c #FEEEAF",
"0X c #FEFEA6",
"qX c #FEFEA2",
"wX c #FEFEA8",
"eX c #FEFDAE",
"rX c #FAFAA9",
"tX c #F7F7AC",
"yX c #E3E3B5",
"uX c #E4E4B7",
"iX c #FEFEB0",
"pX c #FEFEB7",
"aX c #FDFBB5",
"sX c #FEFEB9",
"dX c #FEFFBC",
"fX c #F7F7B2",
"gX c #BABAC1",
"hX c #B5B3D7",
"jX c #A6A3D7",
"kX c #8383EC",
"lX c #9D9BE0",
"zX c #B7B8E5",
"xX c #C3C3C3",
"cX c #CCCCC2",
"vX c #CDCDCC",
"bX c #D2CFCC",
"nX c #DBD9CB",
"mX c #DBD4C1",
"MX c #C3C3D7",
"NX c #C9C9D2",
"BX c #D4D3D5",
"VX c #E0DDD1",
"CX c #FFF2C2",
"ZX c #FEFFC6",
"AX c #FFFFCB",
"SX c #FEFFCC",
"DX c #FFF5CE",
"FX c #E1E1DE",
"GX c #FFF6D4",
"HX c #FFF7DB",
"JX c #D7D8E0",
"KX c #E3E4E4",
"LX c #FFF9E3",
"PX c #FFFAEA",
"IX c #FFFCF4",
"UX c #FFFFFF",
/* pixels */
"UXUXIXGX XM i i i i i i i i i i i i i i i i i i c X.CXIXUXUX",
"UXPXX.W  XaXSXAXAXAXAXAXAXAXAXAXAXSXSXSXAXAXAXSXsX,X} T GXUX",
"IX}  XZXdXsXpXpXpXpXpXpXpXpXpXpXpXpXpXpXpXpXpXpXsXsXZX>XI PX",
"CXW dXeXeXiXiXiXiXiXiXiXiXiXiXeXeXiXsXaXeXiXiXiXiXiXeXsX@.&X",
"} XX0X0XwXwXwXwXwXwXwXwX0X0XqX7XuXuXcX5XtX0XwXwXwXwX0X0X>Xm ",
"h =X:X:X:X:X:X;X>X>X;X;XqXrXfX3XvX~.<X2XrX:X:X:X:X:X:X:X0Xi ",
"y ;X=X=X=X-X8XuXyX4X7X8X<XD.l.m.xXT.1X-X=X=X=X=X=X=X=X=X:Xu ",
"u @X*X*X#X-X<XW.T.W.xXd.; O o M./.P.).8X@X*X*X*X*X*X*X@X=Xu ",
"y +X+XoX$X8X<XP.I.U.Y.; .     B.G : !.1X$X+X+XoXOXoX+XoX@Xy ",
"y XXXXOX.XF.M.~.d.g.T.; o + # q $ : (.6X%.XX.X%X7X%XXXXXoXu ",
"y %.%.%..XA.5 ~.b.d.Y.8 7 0 e 8 6 z.(.6X|.1X5X3X).2XXX%.XXy ",
"y $.$.$..XA.1 ~.xX-.N.C.J J B.j.h.N.(.4X<X~.gXE.'.|.%.$.%.y ",
"y O.O.O.+.A.2 ~.`.3 v.T.!.xX(.xX~.D.h.< < ~.(.E.[.@.O.O.$.y ",
"y o.o.o.+.Z.1 ~.S., n.T.U.U.m.!.P.O X . ; Q.n.v.3X|. .o.O.y ",
"y | | | ..Z.1 /.H > G.!.T.Y.m.T.h.X   . & s.* < cX{.~ | o.y ",
"y ~ ~ ! ..Z.1 /._.@ w f.M.!.< U.z.% - q.e.w.= x.cX[ ! ! | y ",
"t Q Q Q ' Z.2 ~.FXq 9 3 d.cXv.k.K.i.a.a.p.r.d.I.3X[ W Q ! y ",
"y E E E ] Z.1 ^.KXbXE.4 -.vXI.4 L.u.t.y.c.v.k.G.xX{ E E W y ",
"t E E R Y F.5 !.KXnX3Xd.4 NXH.5 m.g.j.V.b.k.:.6.jX..R E E t ",
"t R R R R ' F._.}.{ ) D -.MX6.3 I.g.z.3XJ.;.,.2.hX' C R R t ",
"t A V V V V ^ Y C N / S -.MX3.=.g.f.h.gX9.<.<.7.vX` C A A t ",
"t N N N N N B B N N / S -.BXkX>.*.*.F (.6.<.3.zXVX_ B N N t ",
"t b b b b b b b b b ( S -.BXBX9.2.1.&.4.8.0.hXmX].P b b b t ",
"t v v c v v v c c c ( S 4 BXFXJXzXlX5.H.R.[ ] U Z c v c n t ",
"u x x k x x x x x k U S.f.bXnX2X{.` T C n k g j l x x k x r ",
"I f j h j j j j h j k P K _ L z z s g f g j k k j j h j h f ",
"9Xg d f f f f f f f d f x g d p d d f f f f f f f f d f d X.",
"IXM y p i p p p p p p p u a p p p p p p p p p p p i p u f LX",
"UXHXh u y y y y y y y y y y y y y y y y y y y y y y y i DXUX",
"UXUXPX#.u r r r r r r r r r r r r r r r r r r r r y T LXUXUX"
};
