/* XPM */
static char *FB_PozosFecales_N[] = {
/* columns rows colors chars-per-pixel */
"30 30 207 2 ",
"   c #111111",
".  c #12161A",
"X  c #151618",
"o  c #1F1F1E",
"O  c #212122",
"+  c #252424",
"@  c #2B2421",
"#  c #2A2928",
"$  c #3C3B3A",
"%  c #3E3E3E",
"&  c #753100",
"*  c #783600",
"=  c #7B3A01",
"-  c #47352C",
";  c #4D382D",
":  c #78430C",
">  c #7F4C1C",
",  c #5F402F",
"<  c #524036",
"1  c #5F4A3E",
"2  c #6C4722",
"3  c #7F5224",
"4  c #624332",
"5  c #6E5033",
"6  c #7E553D",
"7  c #7C5C3C",
"8  c #454343",
"9  c #464645",
"0  c #515151",
"q  c #565250",
"w  c #5A5A5A",
"e  c #5C5B59",
"r  c #5F5C5A",
"t  c #5B5B5C",
"y  c #5D5D5D",
"u  c #69584D",
"i  c #725C44",
"p  c #605E5D",
"a  c #766759",
"s  c #5F6060",
"d  c #616161",
"f  c #646262",
"g  c #656463",
"h  c #646364",
"j  c #666665",
"k  c #686765",
"l  c #686867",
"z  c #6A6A6A",
"x  c #6E6E6E",
"c  c #766B65",
"v  c #70706F",
"b  c #74716F",
"n  c #717171",
"m  c #757270",
"M  c #737474",
"N  c #757575",
"B  c #787776",
"V  c #7A7977",
"C  c #7D7A77",
"Z  c #7A7A79",
"A  c #7C7B7B",
"S  c #7D7C7B",
"D  c #7E7E7E",
"F  c #834A12",
"G  c #8F5822",
"H  c #915D2A",
"J  c #825337",
"K  c #905B3E",
"L  c #9B5E3C",
"P  c #97693B",
"I  c #996B3E",
"U  c #A5613B",
"Y  c #976C41",
"T  c #976D44",
"R  c #956F49",
"E  c #8F6C57",
"W  c #976B52",
"Q  c #887055",
"!  c #957351",
"~  c #A76946",
"^  c #BB7044",
"/  c #AB7352",
"(  c #A47A51",
")  c #A37E58",
"_  c #A57E59",
"`  c #BC7E5B",
"'  c #88786F",
"]  c #8C7B6C",
"[  c #8B7D6F",
"{  c #847F7B",
"}  c #C67547",
"|  c #CE7C4D",
" . c #CD7E51",
".. c #9A8168",
"X. c #80807F",
"o. c #84827F",
"O. c #9D8679",
"+. c #9B8C7F",
"@. c #A28364",
"#. c #A88561",
"$. c #A48769",
"%. c #A88B6D",
"&. c #BA8567",
"*. c #B7866A",
"=. c #B7946F",
"-. c #AB8772",
";. c #A18A7E",
":. c #B69676",
">. c #CB9476",
",. c #7F7F80",
"<. c #818181",
"1. c #838384",
"2. c #838485",
"3. c #868585",
"4. c #898786",
"5. c #898887",
"6. c #868788",
"7. c #898989",
"8. c #8C8B8A",
"9. c #8C8C8B",
"0. c #8B8B8C",
"q. c #8D8D8D",
"w. c #978E8A",
"e. c #918F8D",
"r. c #92918F",
"t. c #9E9089",
"y. c #848B90",
"u. c #8E9192",
"i. c #919191",
"p. c #949393",
"a. c #929395",
"s. c #959595",
"d. c #999796",
"f. c #989897",
"g. c #93979B",
"h. c #989798",
"j. c #96999A",
"k. c #9A9A9A",
"l. c #9E9E9E",
"z. c #A09387",
"x. c #A89589",
"c. c #B39381",
"v. c #B49785",
"b. c #B99E83",
"n. c #BA9F86",
"m. c #A69A91",
"M. c #A09C98",
"N. c #A1A09E",
"B. c #ACA59E",
"V. c #BDAA97",
"C. c #BAA999",
"Z. c #9A9FA4",
"A. c #A2A2A1",
"S. c #A4A2A1",
"D. c #A3A4A5",
"F. c #A5A5A5",
"G. c #A8A4A0",
"H. c #A9A7A6",
"J. c #AAA9A7",
"K. c #A9AAAA",
"L. c #ACACAB",
"P. c #ABACAC",
"I. c #ADADAD",
"U. c #B0AFAF",
"Y. c #BDB1A6",
"T. c #B2B2B2",
"R. c #B6B6B6",
"E. c #B8B4B2",
"W. c #BAB8B7",
"Q. c #BEB9B6",
"!. c #B6B8BA",
"~. c #BABABA",
"^. c #BDBCBB",
"/. c #BEBDBE",
"(. c #C7B19A",
"). c #C7BBB0",
"_. c #C2BEBB",
"`. c #BFC0BF",
"'. c #CEC5BA",
"]. c #D1C6BB",
"[. c #C2C1C1",
"{. c #C5C3C1",
"}. c #C4C4C3",
"|. c #C6C7C7",
" X c #C8C4C0",
".X c #CCC6C1",
"XX c #CECAC6",
"oX c #C9C9C9",
"OX c #CECBC9",
"+X c #CECECD",
"@X c #D5D0CB",
"#X c #D3D3D3",
"$X c #D5D5D5",
"%X c #D9D5D1",
"&X c gray85",
"*X c #DDDCDB",
"=X c #DFDFDF",
"-X c #E1E0DE",
";X c #E1E1E2",
":X c #E4E3E2",
">X c #E5E6E6",
",X c #EAEAEA",
"<X c #EFEFEF",
"1X c #F1F1F1",
"2X c #F6F6F6",
"3X c gray98",
"4X c #FFFFFF",
/* pixels */
"4X4X3X;XK.n w t t t t t t t t t t t t t t t t w z s.$X2X4X4X",
"4X<Xs.x x A <.D <.<.<.<.<.<.<.<.<.<.<.<.<.<.D <.D M x 3.:X4X",
"3Xi.x 1.D D D D D D D D D D D D D D Z A D D D D D D <.N N 2X",
"&Xn <.D D D D D D D D D D D D A A <.9.7.D D D D D D D <.M ~.",
"p.M D D D D D <.D D <.D A Z Z q.l.K.~.I.3.D D D D D D D A n ",
"j A D D D D A Z D D Z Z <.9.k.P.oXR.N.p.9.A D D D D D D <.t ",
"w D D D D 2.s.D.L.P.l.k.k.q.3.l.}.F.l.D D D D D D D D D D t ",
"t D D D Z 7.K.R.I.R./.1.0 $ # j.~.S.T.k.S D D D D D D A D t ",
"w A A Z D k.K.A.A.A.F.9   X . c.O.q T.J.Z A A Z M Z A Z A w ",
"w Z Z Z 3.s.k.R.1.q.K.9 @ ; 4 ~ 6 r ~.K.B Z S i.A.7.Z Z A t ",
"w Z Z N 3.0.N R.f.1.H.E U ^ } W c u.~.S.S K.~.R.T.l.S N Z w ",
"w N N M 2.9.n R.[.,.d.x.&.*.v.w.0.h.^.W.A.R.[.A.5.D Z M N w ",
"w N N M 1.0.n R._.V a.K.T.{./.|.R.N.9.g z R.^.P.d.N M M N w ",
"w M M n <.7.n R.n.a g.L.D.A.l.T.A.% + X 8 E.s.s.R.7.n M M w ",
"w n n x <.7.n !.=.i Z.T.P.H.l.K.9.O o . < >.1 z [.8.x n n w ",
"w x x x D 7.v !.(.3 ] 6.k.U.h D.e.- , J L K u a.[.5.z x n w ",
"w x x x D 7.n R.-X) ! C 2.oXs.i.m./ |  .` ' <.D./.4.z x x w ",
"w x x z D 7.n R.>X@XY.S ,.+XF.A N.t.-.;.w.s.i.M.Q.4.l x x w ",
"w z z z Z i.Z T.:X+X`.<.D OXz.Z l.q.u.A.k.a.[ R C.7.j z z w ",
"w z z j z 3.s.A.I.8.r.A <..XT Z F.q.e./.B.Q > H Y.5.g z z w ",
"w j j j j j D A g h 3.A ,.XXI a q.3.7.^.%.= * _  Xo.f j j w ",
"w j j h j j d d j j 7.A X.#Xb.: 2 5 y.~.Y & P ].$X{ f j j w ",
"w h h h h h j j h h 3.D <.$X%X#.G F 7 $.( :.).{.G.b d g h w ",
"w d d d d d d d d d 4.A D #X;X*X'.V.@...+.k.3.m k d d d d w ",
"y d d d d d d d d y Z i.3.+X+XT.F.i.3.N z e w y s d d d d w ",
"3.y y y y y y y y y d A s.8.Z k p e w t t d d d d y y y y j ",
"oXj y y y y y y y y y y z y w t t y y y y y y y y y y y t l.",
"3XZ w t t t t t t t t t w t t t t t t t t t t t t t t w j <X",
"4X>Xz y w t w t t t w t t t t t w t w t t t t t t w w d =X4X",
"4X4X1XA.d w w w w w w w w w w w w w w w w w w w w t q.,X4X4X"
};
