/* XPM */
static char *FB_PozosPluviales_NR_R[] = {
/* columns rows colors chars-per-pixel */
"30 30 256 2 ",
"   c #1B1312",
".  c #1A1818",
"X  c #20100F",
"o  c #1D2F2F",
"O  c #242526",
"+  c #343A3D",
"@  c #3E3E40",
"#  c #1C4F50",
"$  c #1B5858",
"%  c #285C5B",
"&  c #136F6F",
"*  c #177575",
"=  c #3F7373",
"-  c #2D6B6B",
";  c #444646",
":  c #484F53",
">  c #4D5858",
",  c #586161",
"<  c #5C7B7B",
"1  c #686768",
"2  c #6E6F71",
"3  c #6F7072",
"4  c #76777B",
"5  c #7B7B7D",
"6  c #797A79",
"7  c #CE701F",
"8  c #CD6F20",
"9  c #CF7223",
"0  c #CF7225",
"q  c #CE722A",
"w  c #D17526",
"e  c #D27424",
"r  c #D37729",
"t  c #D47629",
"y  c #D57B2E",
"u  c #D3792B",
"i  c #D97B2D",
"p  c #D67826",
"a  c #CC7836",
"s  c #D67E32",
"d  c #D57F39",
"f  c #827D7A",
"g  c #DA8135",
"h  c #DC8234",
"j  c #DD853A",
"k  c #DC843B",
"l  c #DF883F",
"z  c #E18A3F",
"x  c #E4893C",
"c  c #F38F3E",
"v  c #F4913F",
"b  c #F3903F",
"n  c #80807F",
"m  c #929176",
"M  c #CF8B56",
"N  c #CF8552",
"B  c #D18A52",
"V  c #DE995D",
"C  c #DE9658",
"Z  c #DA8D44",
"A  c #E28D42",
"S  c #E48F45",
"D  c #ED8F42",
"F  c #E59146",
"G  c #E69349",
"H  c #E8964C",
"J  c #EC954C",
"K  c #EC964A",
"L  c #F59241",
"P  c #F69545",
"I  c #F39142",
"U  c #F59A4E",
"Y  c #ED9B52",
"T  c #EB9F5C",
"R  c #F09E56",
"E  c #F09F58",
"W  c #F2A159",
"Q  c #F5A55E",
"!  c #F5A25B",
"~  c #FAA85E",
"^  c #CA946D",
"/  c #CA986E",
"(  c #D89966",
")  c #D59E74",
"_  c #DCA26C",
"`  c #DBA474",
"'  c #D6A376",
"]  c #E4A36A",
"[  c #E7A367",
"{  c #F2A561",
"}  c #F6A862",
"|  c #F2A866",
" . c #F9AC65",
".. c #FAAA64",
"X. c #FAAF69",
"o. c #FBAE6C",
"O. c #F4AB68",
"+. c #FEB16B",
"@. c #FEB26D",
"#. c #FCB16C",
"$. c #EBAC73",
"%. c #F4AC71",
"&. c #EFB37D",
"*. c #F4B274",
"=. c #FFB572",
"-. c #FEB675",
";. c #FCB373",
":. c #FBB578",
">. c #FEB97A",
",. c #FDB97D",
"<. c #F5B37D",
"1. c #3130B3",
"2. c #595992",
"3. c #7D7E82",
"4. c #777782",
"5. c #4544A0",
"6. c #5555BA",
"7. c #706EA6",
"8. c #6C6CAA",
"9. c #2525D8",
"0. c #0D0CE0",
"q. c #0000FB",
"w. c #1312F2",
"e. c #1C1CE5",
"r. c #2727F9",
"t. c #3E3DF1",
"y. c #5251D8",
"u. c #6A68DE",
"i. c #4545E6",
"p. c #5A59ED",
"a. c #4B4FF8",
"s. c #6867E9",
"d. c #706FFE",
"f. c #7174F5",
"g. c #846FBE",
"h. c #0C9E9E",
"j. c #1A9495",
"k. c #0FADAD",
"l. c #08BCBC",
"z. c #2BAFAF",
"x. c #38A4A4",
"c. c #7F8080",
"v. c #619191",
"b. c #52BFBF",
"n. c #68ACAC",
"m. c #7AACAC",
"M. c #08CBCA",
"N. c #1FCBCB",
"B. c #24DEDD",
"V. c #3BD5D5",
"C. c #05F8F7",
"Z. c #01E7E7",
"A. c #69C3C3",
"S. c #45E9E8",
"D. c #828181",
"F. c #848585",
"G. c #8E8E8E",
"H. c #8B8A8A",
"J. c #888884",
"K. c #978D88",
"L. c #96968D",
"P. c #918F90",
"I. c #879697",
"U. c #949595",
"Y. c #9C9C9D",
"T. c #989A98",
"R. c #A19285",
"E. c #A19284",
"W. c #AC9989",
"Q. c #B89C83",
"!. c #A29F9F",
"~. c #A4A48F",
"^. c #B7A798",
"/. c #9E9FA3",
"(. c #9697A9",
"). c #9E9FB9",
"_. c #8787B8",
"`. c #A988A5",
"'. c #85ADAE",
"]. c #9AA4A5",
"[. c #A4A3A2",
"{. c #A4A9A9",
"}. c #AAAAAB",
"|. c #ACAAA7",
" X c #B3AFA9",
".X c #AFAFB0",
"XX c #AEB3B5",
"oX c #AFBABA",
"OX c #B6B6B5",
"+X c #B3B3B3",
"@X c #BBB5B2",
"#X c #BBBBBB",
"$X c #B9BAB4",
"%X c #C29D83",
"&X c #D5AF8C",
"*X c #D7A884",
"=X c #D2B08D",
"-X c #CCAC98",
";X c #C7B19C",
":X c #DBBA9C",
">X c #D9B497",
",X c #E4B78C",
"<X c #E9B98D",
"1X c #FEBD82",
"2X c #FBBC83",
"3X c #F8BC8A",
"4X c #EDBF94",
"5X c #E6BF9A",
"6X c #C3B5A7",
"7X c #D7BCA5",
"8X c #C4BBB5",
"9X c #BFC2BF",
"0X c #FFC086",
"qX c #FEC189",
"wX c #FDC28D",
"eX c #F7C192",
"rX c #FEC490",
"tX c #FFC996",
"yX c #FDC99C",
"uX c #E8C09A",
"iX c #DEC2A6",
"pX c #CAC3BB",
"aX c #C2C0BF",
"sX c #D7C4B4",
"dX c #E0C3A7",
"fX c #FAD3B0",
"gX c #A39BD7",
"hX c #BABCC3",
"jX c #B0A7D1",
"kX c #AEACD7",
"lX c #8585EC",
"zX c #9B9AE9",
"xX c #B8BAE5",
"cX c #C0B8C2",
"vX c #BFC5C5",
"bX c #CAC6C3",
"nX c #CBCACB",
"mX c #C5C3C6",
"MX c #D5CBC8",
"NX c #D7D1CE",
"BX c #C3C3D7",
"VX c #C9CAD8",
"CX c #D5D4D5",
"ZX c #FBDCC2",
"AX c #FCE3CF",
"SX c #E2E2DF",
"DX c #FCE9D9",
"FX c #DBDCE1",
"GX c #E5E5E3",
"HX c #FDEEE0",
"JX c #FEF4EB",
"KX c #FDF0E4",
"LX c #FEF7F1",
"PX c #FEFAF7",
"IX c #FFFFFF",
"UX c #FDFCFA",
/* pixels */
"IXIXUXDXyXQ L P P P P P P P P P P P P P P P P L ! 3XAXPXIXIX",
"IXJX3X..:.wXtXtXtXtXtXtXtXtXtXtXtXtXtXtXtXtXtXtXwX,.o.:.HXIX",
"UX2X;.rXwXqXqXqXqXqXqXqXqXqXqXqXqXqX0X0XqXqXqXqXqXqXrX,...LX",
"AX..0X1X1X1X1X1X1X1X1X1X1X1X1X1X2X1XrXwX1X1X1X1X1X1X1X1X#.fX",
"2Xo.>.>.>.>.>.,.>.>.,.,.>.-.-.<X5XdXpX7X2X>.>.>.>.>.>.>.-.! ",
"U @.=.=.=.=.@.+.;.;.+.@.-.2XeX6XnXOX;X=X2X=.=.=.=.=.=.=.-.P ",
"L @.@.@.+.*.,XuXiXiX4X,X-XW.K./.mX|.:X*.+.@.@.@.@.@.@.+.@.L ",
"L X.X.X. .*.6XXX}.XXaXD.: + O T.@X[.@X,XX.X.X.X.#.X.X. .#.L ",
"L  . ...O.,X6X!.[.[.{.;     X A.n.> +X7X|  . ...~ .. ... .L ",
"L } } ~ $.^.T.OXD.G.|.; o $ * M.j., #X7X{ { | &.4X$.} } } L ",
"L Q Q Q $.R.4 OXT.F.{.x.M.Z.C.z.< G.#X:X] :XsX8X@X>X} ! Q L ",
"L W W W ] E.3 OXmXn T.m.V.V.A.I.H.T.#XsX;XOXhX^.' ] Q W W L ",
"L R R R ] R.3 OXhX4 U.|.XXvX8XbXOX/.H.1 1 OX#X X&XT R R E L ",
"L Y Y Y ] R.3 OXlX2.L.}.[.[.Y.+X[.@ O . ; oXU.U.8X` Y Y Y L ",
"L Y Y J ] R.2 $Xd.5.~.+X}.{.Y.}.H.O .   % S.- 1 pX` H Y Y L ",
"v H H H ( E.2 $XzX9.8.J.Y..X1 [.G.# & h.l.k.= U.bX` G H H v ",
"L G G G ( E.3 OXFXp.y.4.F.nXU.P.'.N.C.C.B.v.D.[.pX' S G G L ",
"v F F S V R.2 OXGXVXjX4.n nX[.5 ].m.b.n.I.U.P.(.cX) A F S b ",
"I A A z C Q.4 +XGXNXpXD.5 VX_.4 Y.G.K.!.T.L.7.i.gX_ l A A L ",
"v z z z A ( W.^.:X) %Xf c.BXi.6 [.G.P.9X).6.e.r.jX_ k z z v ",
"v j j j j j V C k j / f 3.BXt.2.G.F.J.hXs.q.q.p.nX/ k j j v ",
"v j j h j k h h j k / f 3.CXlX0.1.1.m #Xi.q.t.xXCX^ g j g v ",
"v g g g g g g g g g ^ f 3.CXCXs.r.w.1.u.a.f.kXMX-XB s g g b ",
"v s s s s s s s s s ^ f D.CXSXFXxXzXu.g.`.*X( N d s s s s v ",
"I y y y y y y y y u B W.F.nXNX7X&X' ( Z g q e p i y y y u c ",
"%.i r r r r r r r r u M Q./ M a a q 0 e w u u u r r r r t U ",
"ZXx 0 w w w w w w w w w s r 9 e e w w w w w w w w w w w i 3X",
"PX{ e 9 9 9 9 9 9 9 9 9 7 9 9 0 0 9 9 9 9 9 9 9 9 9 9 9 K JX",
"IXKXJ i 9 8 8 8 8 8 8 8 8 8 8 8 8 8 8 8 8 8 8 8 8 9 t D DXIX",
"IXIXLXeXI c c c c c c c c c c c c c c c c c c c c I <.JXIXIX"
};
