/* XPM */
static char *FB_PozosPluviales_A[] = {
/* columns rows colors chars-per-pixel */
"30 30 256 2 ",
"   c #1D0F11",
".  c #1A1313",
"X  c #171719",
"o  c #1C2F2F",
"O  c #242323",
"+  c #282B2A",
"@  c #3C3C39",
"#  c #3E3E40",
"$  c #1C4F50",
"%  c #1B5858",
"&  c #265C5D",
"*  c #136F6F",
"=  c #167575",
"-  c #3C7374",
";  c #2A6B6B",
":  c #434647",
">  c #55524D",
",  c #4D5857",
"<  c #586160",
"1  c #5A7B7B",
"2  c #676768",
"3  c #71706F",
"4  c #706F71",
"5  c #717170",
"6  c #7B7C7D",
"7  c #797879",
"8  c #807F7F",
"9  c #80807E",
"0  c #909077",
"q  c #3333A9",
"w  c #2222B5",
"e  c #3D3CBC",
"r  c #265C9E",
"t  c #2C5E9A",
"y  c #295E9D",
"u  c #2D5F9C",
"i  c #295C9C",
"p  c #2E619E",
"a  c #2A5DA0",
"s  c #2F63A1",
"d  c #2D63A5",
"f  c #2E64A4",
"g  c #2C64AB",
"h  c #3064A3",
"j  c #3165A5",
"k  c #3063A0",
"l  c #3569A6",
"z  c #3A6AA5",
"x  c #3B6CA3",
"c  c #3167A8",
"v  c #3765A9",
"b  c #3168AA",
"n  c #3269AD",
"m  c #346BAC",
"M  c #2F6AB1",
"N  c #326BB0",
"B  c #326CB2",
"V  c #346DB2",
"C  c #346FB5",
"Z  c #2F71BF",
"A  c #3671B6",
"S  c #3672B9",
"D  c #3673BC",
"F  c #3976BE",
"G  c #3975BB",
"H  c #3F7ABF",
"J  c #595993",
"K  c #797C81",
"L  c #777782",
"P  c #4444A1",
"I  c #5555BA",
"U  c #4573AF",
"Y  c #4C79A8",
"T  c #557BAB",
"R  c #4C7BB4",
"E  c #477BB9",
"W  c #477DBA",
"Q  c #417ABE",
"!  c #487CBA",
"~  c #487BBA",
"^  c #4671B0",
"/  c #517DB4",
"(  c #507FB8",
")  c #587CB8",
"_  c #6D6EA9",
"`  c #2424D8",
"'  c #0D0CE1",
"]  c #0000FD",
"[  c #1212F3",
"{  c #1B1CE6",
"}  c #2726FA",
"|  c #3D3DF2",
" . c #3675C1",
".. c #3376C5",
"X. c #3977C0",
"o. c #3778C6",
"O. c #3A78C2",
"+. c #3C7AC3",
"@. c #3A7AC6",
"#. c #3C7BC6",
"$. c #3D7CC6",
"%. c #3E7DC3",
"&. c #3A7BC9",
"*. c #3B7CCA",
"=. c #3E7CC8",
"-. c #3578C9",
";. c #5151D8",
":. c #457FC5",
">. c #5D69DA",
",. c #6D7FCF",
"<. c #6B69DC",
"1. c #4242EC",
"2. c #4949E0",
"3. c #5655F2",
"4. c #5858EC",
"5. c #6466E9",
"6. c #6F6FFF",
"7. c #7976F1",
"8. c #0B9E9E",
"9. c #199594",
"0. c #0EADAD",
"q. c #07BCBC",
"w. c #2AAFAF",
"e. c #36A4A4",
"r. c #7F8790",
"t. c #7F8A97",
"y. c #7F8B99",
"u. c #619191",
"i. c #4F80BB",
"p. c #5C83B6",
"a. c #5283BC",
"s. c #5E86BB",
"d. c #5E89BB",
"f. c #5884B7",
"g. c #6B88AC",
"h. c #6887AB",
"j. c #7D8EA0",
"k. c #638AB7",
"l. c #678AB6",
"z. c #788FB2",
"x. c #7293B7",
"c. c #7998B9",
"v. c #67ACAC",
"b. c #78B2B2",
"n. c #7CA6A6",
"m. c #51C0BF",
"M. c #4780C3",
"N. c #4C83C5",
"B. c #4B85CB",
"V. c #5286C2",
"C. c #5C8CC4",
"Z. c #5289CB",
"A. c #618EC7",
"S. c #6A95C7",
"D. c #7399C4",
"F. c #749CCB",
"G. c #779BC3",
"H. c #7FA2CB",
"J. c #07CACB",
"K. c #1FCBCB",
"L. c #23DDDE",
"P. c #37D7D7",
"I. c #3DD3D3",
"U. c #00E7E7",
"Y. c #05F7F8",
"T. c #68C3C3",
"R. c #45E9E9",
"E. c #828282",
"W. c #848584",
"Q. c #878888",
"!. c #8E8E8E",
"~. c #8B8A8B",
"^. c #888783",
"/. c #938D8D",
"(. c #93938F",
"). c #9A9A8B",
"_. c #808A97",
"`. c #918F90",
"'. c #8C9192",
"]. c #84989D",
"[. c #949494",
"{. c #9A9A97",
"}. c #939A9B",
"|. c #9D9D9D",
" X c #9C9596",
".X c #A49E9F",
"XX c #9EA09F",
"oX c #A4A48F",
"OX c #A6A79F",
"+X c #8996A5",
"@X c #8393A7",
"#X c #9B9BA7",
"$X c #889FB7",
"%X c #819CBF",
"&X c #9E9FB9",
"*X c #8787B9",
"=X c #85ADAE",
"-X c #99A3AA",
";X c #8FA3BC",
":X c #9FAAB7",
">X c #98A5B4",
",X c #A4A3A3",
"<X c #A4A9A9",
"1X c #ABAAAA",
"2X c #A4A7AA",
"3X c #B8B4AF",
"4X c #ACADB0",
"5X c #AEB3B6",
"6X c #AFB8BC",
"7X c #B5B6B6",
"8X c #B2B3B3",
"9X c #BAB6B5",
"0X c #BABBBC",
"qX c #B8B9B5",
"wX c #C0BBBA",
"eX c #BEC1BF",
"rX c #C5C1BC",
"tX c #83A3CB",
"yX c #8CA3C9",
"uX c #8EA8C7",
"iX c #92ACCA",
"pX c #94AAC3",
"aX c #85A9D3",
"sX c #98B6D7",
"dX c #AAB6C9",
"fX c #BCBEC1",
"gX c #B9BCC6",
"hX c #A7A7D0",
"jX c #A0A5DB",
"kX c #8484ED",
"lX c #9498E3",
"zX c #9A9AF3",
"xX c #AEB1E2",
"cX c #BCBBE3",
"vX c #BEC3C6",
"bX c #BAC2CA",
"nX c #BAC0D7",
"mX c #B1C8E2",
"MX c #C1C3C3",
"NX c #CBCBCC",
"BX c #C8C5C5",
"VX c #CACCD3",
"CX c #C6C7D8",
"ZX c #D4D5D7",
"AX c #D5D9E5",
"SX c #C5D5E7",
"DX c #D5E1EF",
"FX c #DEE7F2",
"GX c #E4E4E2",
"HX c #E3EBF5",
"JX c #EEF2F8",
"KX c #E9F0F6",
"LX c #F3F6FA",
"PX c #FEFEFE",
"IX c #FAFBFC",
"UX c #F7FAFD",
/* pixels */
"PXPXIXFXsXC.E ! ! ! ! ! ! ! ! ! ! ! ! ! ! ! ! E C.aXAXIXPXPX",
"PXJXaXM.O.*.&.&.&.&.&.&.&.&.&.*.*.*.*.*.*.&.&.&.*.O.M.F.HXPX",
"IXaX .*.*.&.&.&.&.&.&.&.&.&.&.*.*.&.-.-.&.&.&.&.&.*.*.o.A.LX",
"DXN.&.@.&.&.&.&.&.&.&.&.&.&.&.o.@.=.Z.B.@.&.&.&.&.&.@.&.:.mX",
"aX+.@.#.@.@.#.$.@.@.$.#.@.....C.D.uXdXpXN.@.#.@.@.@.#.@.@.C.",
"a.#.@.#.#.@.-...$.+.....=.Z.S.:XNX9X$Xx.Z.@.#.#.#.#.#.#.@.! ",
"! @.@.@.@.M.S.H.iXiXF.D.c.j.r.XXMX2XG.%.O.@.@.@.@.@.@.@.@.! ",
"! +.O.+. .V.:X3X1X9XfXE.> @ +  X9X,X5XD.O.+.O.+.%.+.O.O.O.! ",
"! O.O.X.Q D.:XXX,X,X2X: . .   T.v., 8XuXF +.O. .Z  .O.O.X.! ",
"! F F  .a.+X{.8XE.!.1X: o % = J.9.< 0XuXD F Q C.H.V.F X.X.W ",
"! F F D a.t.7 7X}.W.<Xe.J.U.Y.w.1 /.0XtXE uXdXdX5X%XH D F ! ",
"! G G D a.y.3 7XMX9 }.b.P.I.T.].~.{.0XdX;X7XrX>Xd.! F D D W ",
"W S S S a.y.5 7XgX7 [.1X5XvXwXBX7X#X~.2 2 7X0X4Xc.G S S S ! ",
"! S A A a.t.5 7XkXJ ).1X,X,X|.8X,X# O . : 6X[.[.6Xd.C S A ! ",
"! A A C i.t.5 qX6.P oX8X1X<X|.1X~.O X . & R.; 2 vXk.B A C ! ",
"! V V B / t.4 qXzX` _ ^.|.4X2 ,X'.$ * 8.q.0.- [.bXd.M V V ! ",
"! V V N R y.5 7XAX4.;.L W.BX[.`.=XK.Y.Y.L.u.E.OXgXs.N V B ~ ",
"E N n n / _.3 7XGXCXhXK 9 NX,X6 -Xn.m.v.].[.(.#XdXs.g N n W ",
"! n n n R @X7 8XGXVXfXE.6 VX*X7 |.!./..X{.(._ 2.lXk.g n n ! ",
"! n n b m p.+X-XiXl.z.6 9 CX1.7 ,X!.'.eX&XI { } jXk.g n b ! ",
"! b b b c b / / c d h.K 9 CX| J !.W.Q.fX5.] ] 4.nXp.g b c ! ",
"! c c j c c d d l j g.K 6 ZXkX' w q 0 0X1.] | cXZX) d c j ! ",
"! j j h j j j j j f h.K 9 ZXAX5.} [ e <.3.7.xXnXyXU d j d ! ",
"! h h s h h h h h s g.6 8 ZXGXZXcXlX5.>.,.%Xk.^ v f h h s ! ",
"! s s s s s s s s p T ].^.NXVXdX;Xx.k.Y x a r y s s s s p E ",
"F.j p p p p p p p p s T @Xg.T z a r r y y p k s p p p p p a.",
"SXU u p p p p p p p p p z p i y p p p p p p p p p p p p l sX",
"UXS.u t u u u u u u u t i u u u u u u u u u u u u u u t ( JX",
"PXHXa.z t t t t t t t t t t t t t t t t t t t t t t k R FXPX",
"PXPXLXsXi.! ! ! ! ! ! ! ! ! ! ! ! ! ! ! ! ! ! ! ! ! tXKXPXPX"
};
