/* XPM */
static char *FB_PozoFecal_NR_R[] = {
/* columns rows colors chars-per-pixel */
"30 30 256 2 ",
"   c #141A1C",
".  c #1C1C1A",
"X  c #161514",
"o  c #201F1E",
"O  c #39281E",
"+  c #2A2725",
"@  c #282725",
"#  c #3A3634",
"$  c #362E28",
"%  c #762F00",
"&  c #7B3500",
"*  c #7B3C02",
"=  c #743906",
"-  c #634230",
";  c #7A4E33",
":  c #695038",
">  c #5A4E47",
",  c #4F5151",
"<  c #585B5D",
"1  c #46484B",
"2  c #635242",
"3  c #705B45",
"4  c #635E57",
"5  c #6E6154",
"6  c #666563",
"7  c #676665",
"8  c #656363",
"9  c #696765",
"0  c #6A6A6A",
"q  c #6B6967",
"w  c #706F6F",
"e  c #6E7174",
"r  c #747575",
"t  c #74777A",
"y  c #73777A",
"u  c #74787A",
"i  c #73787A",
"p  c #7B7B7B",
"a  c #803E00",
"s  c #84460A",
"d  c #8B5118",
"f  c #8B5623",
"g  c #925C28",
"h  c #8D583A",
"j  c #966534",
"k  c #A4613A",
"l  c #D26F1D",
"z  c #D0701E",
"x  c #CD6F20",
"c  c #CF7222",
"v  c #CF7324",
"b  c #D17526",
"n  c #D37424",
"m  c #D37729",
"M  c #D47729",
"N  c #D3782B",
"B  c #D2792D",
"V  c #D57A2E",
"C  c #D5792B",
"Z  c #D97C2D",
"A  c #CF7C34",
"S  c #D67D31",
"D  c #D77F34",
"F  c #D87E30",
"G  c #8A6744",
"H  c #8E6C4B",
"J  c #8A755F",
"K  c #997A5B",
"L  c #AB6841",
"P  c #B66E45",
"I  c #A5794E",
"U  c #A47E57",
"Y  c #C87648",
"T  c #D47D4B",
"R  c #C87D52",
"E  c #DA8135",
"W  c #DC8335",
"Q  c #D7843D",
"!  c #DE8639",
"~  c #DB853B",
"^  c #D78137",
"/  c #E18A3E",
"(  c #E3893D",
")  c #F38F3E",
"_  c #F4913F",
"`  c #F3903F",
"'  c #9B897F",
"]  c #A9896A",
"[  c #B58A61",
"{  c #AD8B78",
"}  c #B78E78",
"|  c #BC9675",
" . c #BE9979",
".. c #B19679",
"X. c #DD8D49",
"o. c #D98946",
"O. c #DF914C",
"+. c #C4815C",
"@. c #D99358",
"#. c #E28D42",
"$. c #E58F44",
"%. c #ED8F42",
"&. c #E59046",
"*. c #EA9346",
"=. c #E69349",
"-. c #E7944C",
";. c #E8964C",
":. c #EB954A",
">. c #EC994D",
",. c #F39141",
"<. c #F59241",
"1. c #F69545",
"2. c #F29244",
"3. c #F59A4E",
"4. c #E19652",
"5. c #EB9A51",
"6. c #EE9D54",
"7. c #ED9B51",
"8. c #E69D5C",
"9. c #E99750",
"0. c #F19E56",
"q. c #F09C51",
"w. c #F09F58",
"e. c #F3A157",
"r. c #F2A25A",
"t. c #F5A55E",
"y. c #F6A35B",
"u. c #CE996A",
"i. c #DA9D67",
"p. c #C99A73",
"a. c #C19C7D",
"s. c #D69B7A",
"d. c #D8A77C",
"f. c #EBA364",
"g. c #F5A661",
"h. c #F7A862",
"j. c #F8AA65",
"k. c #F9AD66",
"l. c #FBAC64",
"z. c #FAAE69",
"x. c #FCAF6A",
"c. c #FEB16A",
"v. c #FEB26D",
"b. c #FDB36C",
"n. c #E6AD79",
"m. c #F4AC71",
"M. c #F4B275",
"N. c #FFB572",
"B. c #FFB674",
"V. c #FBB273",
"C. c #F4B47C",
"Z. c #FEB97A",
"A. c #FDBA7D",
"S. c #F8B378",
"D. c #7C8288",
"F. c #838383",
"G. c #8D8D8C",
"H. c #82888C",
"J. c #958F8B",
"K. c #898E91",
"L. c #929292",
"P. c #959595",
"I. c #949494",
"U. c #9A9A99",
"Y. c #9E9E9E",
"T. c #9A9897",
"R. c #A19F9F",
"E. c #BCA58E",
"W. c #BFAE9B",
"Q. c #B0A498",
"!. c #9D9EA1",
"~. c #9EA2A5",
"^. c #A1A1A1",
"/. c #A7A6A6",
"(. c #A5A5A3",
"). c #ABAAAA",
"_. c #ADADAD",
"`. c #ABABAB",
"'. c #A3A8AC",
"]. c #B3AEA9",
"[. c #BAB3AE",
"{. c #AAAEB2",
"}. c #ADB1B4",
"|. c #B2B2B2",
" X c #B3B5B7",
".X c #BDBDBC",
"XX c #B7B7B7",
"oX c #C5A283",
"OX c #CCA98C",
"+X c #DDAD85",
"@X c #C9AC90",
"#X c #D3B79D",
"$X c #D7B599",
"%X c #E9B586",
"&X c #F4B981",
"*X c #FFBD82",
"=X c #FBBB85",
"-X c #F6BE8D",
";X c #FABD8A",
":X c #E4BC97",
">X c #C1B2A4",
",X c #C6B7A9",
"<X c #D3B9A3",
"1X c #DDBEA4",
"2X c #C9BEB3",
"3X c #FFC087",
"4X c #FEC189",
"5X c #FCC18C",
"6X c #F6C08F",
"7X c #FEC590",
"8X c #FFC996",
"9X c #FDC99C",
"0X c #F3C398",
"qX c #D9C2AC",
"wX c #C6C1BB",
"eX c #DDC5B1",
"rX c #DDC9B6",
"tX c #DDCAB8",
"yX c #D7C3B1",
"uX c #E1C3A7",
"iX c #F3CAA3",
"pX c #F1CCAC",
"aX c #FAD3B0",
"sX c #AFB9C2",
"dX c #BFC4C8",
"fX c #C1C1C2",
"gX c #C5CACC",
"hX c #CCCCCC",
"jX c #D8CDC2",
"kX c #DDD3CB",
"lX c #CACCD0",
"zX c #CED3D8",
"xX c #D6D5D4",
"cX c #DCD8D3",
"vX c #DCDBDA",
"bX c #E2D1C1",
"nX c #E7D8CA",
"mX c #FBDCC2",
"MX c #E1DDDA",
"NX c #E0DAD4",
"BX c #FCE3CF",
"VX c #FCE9D9",
"CX c #DCDFE1",
"ZX c #DEE1E4",
"AX c #DEE5EC",
"SX c #E2E2E2",
"DX c #E4E9EC",
"FX c #E9EBEC",
"GX c #E8E7E5",
"HX c #FDEEE0",
"JX c #FEF4EB",
"KX c #FDF0E4",
"LX c #FEF7F1",
"PX c #FEFAF7",
"IX c #FFFFFF",
"UX c #FDFCFA",
/* pixels */
"IXIXUXVX9Xt.<.1.1.1.1.1.1.1.1.1.1.1.1.1.1.1.1.<.y.;XBXPXIXIX",
"IXJX;Xj.S.5X8X8X8X8X8X8X8X8X8X8X8X8X8X8X8X8X8X8X7XA.z.S.HXIX",
"UX=XV.7X5X4X4X4X4X4X4X4X4X4X4X4X4X4X4X4X4X4X4X3X4X4X7XA.j.LX",
"BXj.3X*X*X*X*X*X*X*X*X*X*X*X*X*X*X*X*X*XA.Z.A.5X;X*X*X*Xb.aX",
"=Xx.Z.Z.Z.Z.Z.Z.Z.Z.Z.Z.Z.Z.Z.Z.Z.Z.Z.*X-XiXpXbXjX6XZ.Z.B.y.",
"3.v.N.N.N.N.N.B.B.B.v.N.B.B.N.N.v.c.M.<XkXzXdXXX X:XB.N.B.1.",
"<.v.v.c.b.v.c.c.k.k.C.M.k.l.z.V.&X0X#X~.xX^.Q.d.u.n.v.c.v.<.",
"<.z.z.z.z.x.C.:XiXpXbXbX:X%XuXqX>XG.G.R.cX_.].0Xc.l.z.k.c.<.",
"<.k.k.k.j.l.%X(.)..X~.}.cX[.t < 1 @ # ^.hX_.|.|.:Xz.l.j.k.<.",
"<.h.h.h.h.g.&X,XU.U.T.G.xXr o X X . $ |..X9 I.{.,XM.t.h.h.<.",
"<.t.t.t.t.n.>X[._.`.|.I.xX8 . @ @   $ s.} O , fXyXf.y.t.t.<.",
"<.r.r.e.h.oXD.^._.`.< r vX7     + - - P k # p lXrXf.e.r.r.<.",
"<.0.0.0.g.oXe p /.hX0 r vX7 ; L P Y Y h > u U.gXeX8.0.0.w.<.",
"<.6.6.7.t.oXy 7 `.SX^.w  X{ R T T R +.' G.I.I.gXqX8.q.6.6.<.",
"<.7.5.>.r.a.t 7 _.SX(.0 U.R.I.{ { J.L.I.P.I.I.gXeX4.>.5.5.<.",
"_ ;.;.=.6.a.y 6 `.SX^.9 U.Y.L.L.L.P.L.L.P.L.G W.tX4.:.;.;._ ",
"<.=.=.&.5.a.i 8 _.NXK 4 !.Y.G.p /..X!.I.J.G a W.tXO.*.=.=.<.",
"_ &.&.$.9. .i 6 _.MXg 2 ~./.F.F.|.fX.XJ f * s >XtXO.$.&.$.` ",
",.#.#./ -. .t 6 _.MXg : H.~.I.r _.fX] & s & j xXqXX.( #.#.<.",
"_ / / ( =.| y 6 ).FXU * 3 5 5 9 /..XU * & s E.ZX<XX.( / / _ ",
"_ ! ! ! $.| u 7 ).FXwXg % * * q sXwXj % f E.DXAXqXo.! ! ! _ ",
"_ ! ! E #.| u 7 `.GXZX,XU f d = H ] j ..jXkXqX1Xi.~ W ! W _ ",
"_ E E F o.| r 9 `.GXxXSXZX2X2X] I [ @XuX+Xi.Q ^ Z E E E E ` ",
"_ S S S E p.K.4 `.DXZXCXCXcX$X$Xd.@.O.B n C Z S D S S S S _ ",
"2.V V V N Q OXp '.nX#Xd.@.o.B B b n M V S S V V V V V V B ) ",
"m.Z m m m n ^ p.p.o.A m l n m M N N N N m m m m m m m m M 3.",
"mX( v b b b c V C z n b m m b b b b b b b b b b b b b b Z -X",
"PXg.n c c c v c c v v c c c c c c c c c c c c c c c c c *.JX",
"IXKX>.Z c x x x x x x x x x x x x x x x x x x x x c M %.VXIX",
"IXIXLX6X2.) ) ) ) ) ) ) ) ) ) ) ) ) ) ) ) ) ) ) ) ,.C.JXIXIX"
};
