/* XPM */
static char *FB_Pozos_N[] = {
/* columns rows colors chars-per-pixel */
"30 30 225 2 ",
"   c #111111",
".  c #1C1010",
"X  c #181616",
"o  c #12161A",
"O  c #141618",
"+  c #1F1E1E",
"@  c #232020",
"#  c #252525",
"$  c #2B2421",
"%  c #2A2928",
"&  c #3C3B3A",
"*  c #3F3E3E",
"=  c #4D382D",
"-  c #7E5224",
";  c #624332",
":  c #7E553D",
">  c #1C4F4F",
",  c #265C5C",
"<  c #136F6F",
"1  c #2B6B6B",
"2  c #3D7373",
"3  c #414545",
"4  c #464645",
"5  c #515151",
"6  c #565250",
"7  c #5A5A5A",
"8  c #5D5C5B",
"9  c #5A5A5D",
"0  c #5D5D5D",
"q  c #725C44",
"w  c #60605F",
"e  c #776758",
"r  c #5D5D63",
"t  c #616161",
"y  c #636365",
"u  c #646364",
"i  c #666666",
"p  c #6A6A66",
"a  c #66666A",
"s  c #64646C",
"d  c #676869",
"f  c #6A6A6A",
"g  c #6A6B6C",
"h  c #6E6E6E",
"j  c #766B65",
"k  c #70706F",
"l  c #6F6F79",
"z  c #717171",
"x  c #747373",
"c  c #777771",
"v  c #757575",
"b  c #7B7A77",
"n  c #7D7A77",
"m  c #70707A",
"M  c #757878",
"N  c #7A7A7A",
"B  c #7D7C7B",
"V  c #79797D",
"C  c #7E7E7E",
"Z  c #A5613B",
"A  c #8F6C57",
"S  c #976A52",
"D  c #957252",
"F  c #A76946",
"G  c #BB7044",
"H  c #A37D59",
"J  c #8B7B6C",
"K  c #C77547",
"L  c #80807F",
"P  c #9D8679",
"I  c #909076",
"U  c #BA8567",
"Y  c #B8866A",
"T  c #B7946F",
"R  c #3333A9",
"E  c #2222B4",
"W  c #3C3CBC",
"Q  c #595990",
"!  c #7F7F80",
"~  c #7B7C8C",
"^  c #5555BA",
"/  c #6F6FA6",
"(  c #7F7FB7",
")  c #0C0CE1",
"_  c #1C1CE5",
"`  c #0101FB",
"'  c #0000FC",
"]  c #1212F2",
"[  c #2A2AF7",
"{  c #2222F9",
"}  c #3B3BF0",
"|  c #3E3EF2",
" . c #6868CA",
".. c #6969DD",
"X. c #4444E7",
"o. c #4949E0",
"O. c #4141ED",
"+. c #5959EF",
"@. c #5151F5",
"#. c #6464E1",
"$. c #6D6DE5",
"%. c #6161EE",
"&. c #7676F3",
"*. c #0B9E9E",
"=. c #0EADAD",
"-. c #07BCBC",
";. c #7E808A",
":. c #619191",
">. c #69AEAE",
",. c #7CA6A6",
"<. c #51C0BF",
"1. c #1FCBCB",
"2. c #23DDDD",
"3. c #0AF7F7",
"4. c #04FBFB",
"5. c #45E9E9",
"6. c #818181",
"7. c #838384",
"8. c #838485",
"9. c #858586",
"0. c #8B8C87",
"q. c #86868A",
"w. c #85878E",
"e. c #878A8A",
"r. c #87898C",
"t. c #898989",
"y. c #8C8B8A",
"u. c #8C8C8B",
"i. c #8A8B8D",
"p. c #8D8D8D",
"a. c #968B8B",
"s. c #968E89",
"d. c #91908F",
"f. c #95958E",
"g. c #8D9191",
"h. c #839B9C",
"j. c #919191",
"k. c #959292",
"l. c #929797",
"z. c #959595",
"x. c #9A9694",
"c. c #9A9A97",
"v. c #92969B",
"b. c #969999",
"n. c #9A9999",
"m. c #9A9A9C",
"M. c #9E9E9E",
"N. c #A89589",
"B. c #B39381",
"V. c #B29786",
"C. c #BA9F86",
"Z. c #A49E9F",
"A. c #A1A09F",
"S. c #9A9FA4",
"D. c #9898A9",
"F. c #8787B8",
"G. c #9E9FB9",
"H. c #86ADAD",
"J. c #9AA4A5",
"K. c #A2A2A2",
"L. c #A4A2A1",
"P. c #A5A6A2",
"I. c #A2A4A4",
"U. c #A5A5A5",
"Y. c #A9A7A6",
"T. c #AAA9A7",
"R. c #A9A9A9",
"E. c #ACABAB",
"W. c #ACACAB",
"Q. c #ADADAD",
"!. c #B0AFAF",
"~. c #BCB1A6",
"^. c #A0A0B0",
"/. c #AEBABA",
"(. c #B2B2B2",
"). c #B0B0B6",
"_. c #B6B6B6",
"`. c #B9B9B7",
"'. c #B6B8BA",
"]. c #B9BABA",
"[. c #BBBDBE",
"{. c #BEBEBE",
"}. c #C7B19A",
"|. c #C2BEBB",
" X c #BEC1BF",
".X c #9998DB",
"XX c #B6B5C6",
"oX c #BBBBC0",
"OX c #A5A6D4",
"+X c #B0B0DE",
"@X c #8383EC",
"#X c #9797E2",
"$X c #BABAE3",
"%X c #BBBBE6",
"&X c #C1C2C2",
"*X c #C4C2C1",
"=X c #C4C4C3",
"-X c #C6C7C7",
";X c #C8C8C7",
":X c #C0C0CB",
">X c #CACACA",
",X c #CECECE",
"<X c #D5D0CC",
"1X c #C0C0D1",
"2X c #C6C6D6",
"3X c #C9C9D2",
"4X c #CCCCD0",
"5X c #C1C1D8",
"6X c #D5D5D3",
"7X c #D3D3D4",
"8X c #D5D5D5",
"9X c #D1D1DF",
"0X c gray85",
"qX c #DBDBDF",
"wX c #DFDFDF",
"eX c #E2E1DF",
"rX c #E1E1E1",
"tX c #E4E3E2",
"yX c #E5E6E6",
"uX c #EAEAEA",
"iX c #EFEFEF",
"pX c #F1F1F1",
"aX c #F6F6F6",
"sX c gray98",
"dX c #FFFFFF",
/* pixels */
"dXdXsXrXR.z 7 8 7 7 7 7 7 7 7 7 7 7 7 7 7 7 7 7 g z.8XaXdXdX",
"dXiXz.g h B 6.C 6.6.6.6.6.6.6.6.6.6.6.6.6.6.C 6.C x h 9.tXdX",
"sXj.h 7.C C C C C C C C C C C C C C N B C C C C C C 6.v v aX",
"0Xz 6.C C C C C C C C C C C C B B 6.u.t.C C C C C C C 6.x ].",
"z.x C C C C C 6.C C 6.C B N N p.M.R.].Q.9.C C C C C C C B z ",
"i B C C C C B N C C N N 6.u.n.E.>X_.A.k.u.B C C C C C C 6.8 ",
"7 C C C C 8.z.I.W.W.M.n.n.p.9.M.=XU.M.C C C C C C C C C C 7 ",
"7 C C C N t.R._.Q._.{.7.5 & % b.].L.(.n.B C C C C C C B C 7 ",
"7 B B N C n.R.K.K.K.U.4   O o B.P 6 (.T.N B B N x N B N B 7 ",
"7 N N N 9.z.n._.7.p.R.4 $ = ; F : 8 ].R.v N C j.I.t.N N B 7 ",
"7 N N v 9.u.v _.c.7.Y.A Z G K S j g.].L.B R.]._.(.M.C v N 7 ",
"7 v v x 8.u.z _.&X! x.N.U Y V.s.i.b.[.`.K._.&XK.e.C N x v 7 ",
"7 v v x 7.i.z _.|.b j.R.(.*X[.-X_.A.u.i f _.[.E.b.M x x v 7 ",
"7 x x z 6.t.z _.C.e v.E.I.I.M.(.K.* # X 3 /.l.z._.t.z x x 7 ",
"7 z z h 6.t.z '.T q S.(.E.Y.M.R.y.@ + . , 5.1 f &Xi.h z z 7 ",
"7 h h h C t.k '.}.- J q.m.!.u U.g.> < *.-.=.2 k.&Xr.g h z 7 ",
"7 h h g C t.z _.eXH D n 8.;Xz.d.H.1.4.3.2.:.6.P.[.w.f h h 7 ",
"7 g g f C t.z _.yX<X~.B ! ,XP.B J.,.<.>.h.z.d.D.XXq.d g g 7 ",
"7 g g f N j.N (.tX,X{.6.C 3XF.V M.p.a.Z.c.f./ o..X0.a g g 7 ",
"7 f f i f 9.z.K.Q.y.d.B 6.5XX.b P.p.g. XG.^ _ [ OXe.y f f 7 ",
"7 i i i i i C B i u 9.B L 2X| Q p.9.t.oX$.` ' +.1X;.y i i 7 ",
"7 i i u i i t t i i t.B ! 7X@X) E R I ].O.` } %X8X~ t i i 7 ",
"7 u u u u u i i u u 9.C 6.6X9X%.{ ] W ..@.&.+X:X^.l t u u 7 ",
"7 t t t t t t t t t 9.B C 7XeXqX$X#X#. .( m.q.m s t t t t 7 ",
"0 t t t t t t t t 0 N j.9.,X4X).U.j.9.c p 9 7 8 w t t t t 7 ",
"9.0 0 0 0 0 0 0 0 0 t B z.i.V a r 9 9 9 0 w t t t 0 0 0 0 i ",
">Xi 0 0 0 0 0 0 0 0 0 0 f 0 7 8 0 0 0 0 0 0 0 0 0 0 0 0 8 M.",
"sXN 7 8 8 8 8 8 8 8 8 7 7 7 8 8 8 8 8 8 8 8 8 8 8 7 8 7 i iX",
"dXyXf 0 7 7 7 7 7 7 7 7 7 7 7 7 7 7 7 7 7 7 7 7 7 7 7 t wXdX",
"dXdXpXI.t 7 7 7 7 7 7 7 7 7 7 7 7 7 7 7 7 7 7 7 7 7 p.uXdXdX"
};
