/* XPM */
static char *FB_PozosFecales_FS_R[] = {
/* columns rows colors chars-per-pixel */
"30 30 256 2 ",
"   c #141619",
".  c #191818",
"X  c #232323",
"o  c #2B2725",
"O  c #3B3D3D",
"+  c #763000",
"@  c #7B3801",
"#  c #4A372D",
"$  c #78430D",
"%  c #5F402F",
"&  c #534036",
"*  c #6D4722",
"=  c #7F5224",
"-  c #624638",
";  c #6E5033",
":  c #7D593D",
">  c #464544",
",  c #4B5251",
"<  c #5A5856",
"1  c #6A584D",
"2  c #725C44",
"3  c #766759",
"4  c #686767",
"5  c #6F7070",
"6  c #707271",
"7  c #7C7A77",
"8  c #797A7A",
"9  c #7F7D7D",
"0  c #767878",
"q  c #766B65",
"w  c #9F2F2C",
"e  c #9E302D",
"r  c #A1322F",
"t  c #A03330",
"y  c #A33632",
"u  c #A33734",
"i  c #A53632",
"p  c #A53936",
"a  c #A33A36",
"s  c #A63B38",
"d  c #A93D3A",
"f  c #A93C39",
"g  c #824A16",
"h  c #8F5822",
"j  c #915D2A",
"k  c #825337",
"l  c #955D3D",
"z  c #AB413E",
"x  c #AC413E",
"c  c #B0433F",
"v  c #986A3D",
"b  c #A5613B",
"n  c #AE4340",
"m  c #AF4441",
"M  c #AC4745",
"N  c #A94743",
"B  c #B24744",
"V  c #B14642",
"C  c #B24946",
"Z  c #B44A46",
"A  c #BC4946",
"S  c #BB4946",
"D  c #B74E4B",
"F  c #B64D4A",
"G  c #BE4B48",
"H  c #BE4C4A",
"J  c #BA4E4C",
"K  c #BA514E",
"L  c #BC524F",
"P  c #AF5E5B",
"I  c #B25653",
"U  c #BD5551",
"Y  c #BE5754",
"T  c #976D44",
"R  c #936C55",
"E  c #887055",
"W  c #957351",
"Q  c #BC7044",
"!  c #AE605D",
"~  c #BC635F",
"^  c #A47E58",
"/  c #A57853",
"(  c #BC7E5B",
")  c #A76946",
"_  c #8A7A6E",
"`  c #807A7A",
"'  c #BC6D6A",
"]  c #BA6965",
"[  c #AB7A60",
"{  c #BB716F",
"}  c #B17574",
"|  c #BC7977",
" . c #C04F4C",
".. c #C0504D",
"X. c #C25956",
"o. c #C55E5B",
"O. c #C85F5C",
"+. c #CA794A",
"@. c #C7615E",
"#. c #C9625F",
"$. c #CD7E51",
"%. c #CA6562",
"&. c #CC6663",
"*. c #CC6966",
"=. c #C36D6A",
"-. c #CE6D6A",
";. c #D06966",
":. c #D66966",
">. c #D26D6A",
",. c #D46D6A",
"<. c #C4716E",
"1. c #CD716E",
"2. c #D6716E",
"3. c #D1706D",
"4. c #D8726F",
"5. c #C37571",
"6. c #C27A76",
"7. c #CB7977",
"8. c #C47D7A",
"9. c #CD7B79",
"0. c #C87673",
"q. c #D47572",
"w. c #D97572",
"e. c #DB7673",
"r. c #DA7875",
"t. c #DD7976",
"y. c #D47E7B",
"u. c #DE7D7A",
"i. c #DB7E7B",
"p. c #9D8679",
"a. c #A98361",
"s. c #A48A6C",
"d. c #B98669",
"f. c #B7946F",
"g. c #A68978",
"h. c #B58172",
"j. c #B29978",
"k. c #DE827F",
"l. c #D6817F",
"z. c #CB9476",
"x. c #E0807D",
"c. c #7F7F80",
"v. c #7F8080",
"b. c #828282",
"n. c #838585",
"m. c #8E8E8E",
"M. c #8B8B8B",
"N. c #868788",
"B. c #9A8685",
"V. c #948F8B",
"C. c #9C8888",
"Z. c #938686",
"A. c #9E9089",
"S. c #858A90",
"D. c #8E9192",
"F. c #959595",
"G. c #919293",
"H. c #989897",
"J. c #959799",
"K. c #9E9E9E",
"L. c #9B9B9A",
"P. c #999897",
"I. c #A48B8A",
"U. c #AD8987",
"Y. c #B38482",
"T. c #A49488",
"R. c #B39583",
"E. c #BA9E84",
"W. c #A89893",
"Q. c #B29E9C",
"!. c #BF9E9C",
"~. c #BE9695",
"^. c #A2A09E",
"/. c #ACA59E",
"(. c #BFAA97",
"). c #9A9FA4",
"_. c #A1A2A2",
"`. c #A5A5A5",
"'. c #A3A3A4",
"]. c #A9A7A6",
"[. c #AAAAAA",
"{. c #ABACAD",
"}. c #B1ADAD",
"|. c #BCAAA9",
" X c #BEA7A6",
".X c #BBB1A7",
"XX c #ADB4B4",
"oX c #B2B2B2",
"OX c #B6B2B2",
"+X c #B6B6B6",
"@X c #B1B6B7",
"#X c #BBB3B2",
"$X c #B7B8BA",
"%X c #BCBBBB",
"&X c #C38C8A",
"*X c #D28483",
"=X c #DF8380",
"-X c #DF8582",
";X c #DF8784",
":X c #D98280",
">X c #D68C89",
",X c #DD8A88",
"<X c #DF8885",
"1X c #D7918E",
"2X c #C39592",
"3X c #C79897",
"4X c #CE9C9A",
"5X c #CE9593",
"6X c #D29492",
"7X c #DF9997",
"8X c #D59E9C",
"9X c #D99B99",
"0X c #D89190",
"qX c #E08986",
"wX c #E28D8A",
"eX c #E28F8C",
"rX c #E28B89",
"tX c #E08380",
"yX c #E1918F",
"uX c #E49694",
"iX c #E59897",
"pX c #E59A98",
"aX c #C7A49A",
"sX c #D6A09E",
"dX c #C7B19A",
"fX c #CAA8A6",
"gX c #D2AAA9",
"hX c #D7A4A2",
"jX c #C7B5A8",
"kX c #C4B6B3",
"lX c #C3BDBC",
"zX c #CABDBC",
"xX c #CEB6B5",
"cX c #D2B9B6",
"vX c #E4B5B5",
"bX c #CCC4BD",
"nX c #D1C1BD",
"mX c #BBC2C3",
"MX c #C3C3C3",
"NX c #CCCBCB",
"BX c #CDC8C3",
"VX c #D5CBCB",
"CX c #D4D1CC",
"ZX c #D4D2D2",
"AX c #DAD7D5",
"SX c #EFD3D3",
"DX c #E1DFDE",
"FX c #F3DEDE",
"GX c #E9C6C5",
"HX c #E3E4E4",
"JX c #F5E4E3",
"KX c #F9EEEE",
"LX c #F6E9E8",
"PX c #FBF4F4",
"IX c #FFFFFF",
"UX c #FDFAFA",
/* pixels */
"IXIXUXFXhX*.H .. . . . . . . . . . . . . . ...H @.0XSXPXIXIX",
"IXKX1X-.y.yXpXiXiXiXiXiXiXiXiXiXiXiXiXiXiXiXiXiXyX:Xq.y.JXIX",
"UX>Xq.uXyXeXeXeXeXeXeXeXeXeXeXeXeXeXrXwXeXeXeXeXeXyXuX=X1.PX",
"SX-.wX;XqXqXqXqXqXqXqXqXqXqXqX;X;X,XuXyX<XqXqXqXqXqX;XrXq.vX",
">Xq.k.k.=X=X-X-X=XtX-X-Xk.u.u.1X8XgXzXjX,Xk.=X=X=X=Xk.k.u.%.",
"X.t.u.u.u.u.t.t.i.i.e.t.x.rX7X|.NX+X!.2X,Xt.u.u.u.u.u.u.u. .",
"G t.t.r.e.i.6XsXgXgX9X6X~.I.Z.K.MX].4Xr.e.t.r.t.t.t.t.e.t.H ",
"H w.w.w.4.l. XXX{.@XMXb., O o H.$X'.OX5Xq.w.w.w.w.w.w.w.w.H ",
"H 2.2.,.q.6X|._._.'.`.>       R.p.< oXfX3.2.2.,.:.,.2.2.2.H ",
"H >.>.>.9.W.L.+Xb.m.[.> o # - ) : < %XhX-.>.1.*X8Xy.>.>.,.H ",
"G ;.;.;.9.C.0 +XH.n.].R b Q +.R q D.%X4X<.fXxXkXOX3X>.;.>.H ",
"H &.&.&.7.C.5 +XMXc.P.T.d.d.R.V.M.H.%XxX!.+XmXQ.8.5.*.&.*.G ",
"H %.%.#.0.C.6 +XlX7 G.[.oXMX%XMX+X^.M.4 4 +X%X}.&X%.#.%.%.H ",
"H @.@.O.5.B.6 +XE.3 J.{.'.'.K.oX_.O X   > OXF.F.#X8.o.#.#.G ",
"G o.o.o.<.B.5 $Xf.2 ).oX[.].K.[.M.X .   & z.- 4 bX8.X.o.o.H ",
"A X.X.X.=.B.5 $XdX= _ N.L.}.4 `.V.# % k l l 1 G.zX6.Y X.X.G ",
"G Y Y U ' B.6 +XDX^ W 7 n.NXF.G.W./ $.$.( _ b.'.lX6.L Y Y A ",
"A U U L ' B.5 OXHXCX.X9 c.NX`.8 ^.A.g.g.V.F.G.L.kX5.K U U G ",
"A K K J ~ I.8 oXHXVXlXb.9 NXT.8 K.m.D._.L.G._ T aX6.Z K K A ",
"G D D F D { I.Q.aX| Y.` v.BXT 8 `.m.V.lX/.E g j jX{ C D D G ",
"A Z Z Z Z Z ] ] C B } ` v.BXv 3 m.n.N.%Xs.@ @ ^ nX' V Z Z A ",
"A B B V C C x V C B } ` 9 ZXE.$ * ; S.%XT + v bXAX] c B B A ",
"A m m n m m m m m n } ` v.ZXAXa.h g : s.^ j.jXcX2XI x m n A ",
"A x x z x x x x z d } 9 v.ZXHXAXbX(.a.[ h.&X' I M z z x z A ",
"H d f f d d d d d s P I.n.NXVXfX2X| ' I M i i p s d d d f S ",
"7.s p p p p p p p p s ! U.} P N a y t y i p s s p p p p p X.",
"GXZ y y y y y y y y y i z u r t y y y u u y y y y y y u f 0X",
"UX=.r e t t t t t t t r w r t t t t t t t t t t t t t e L KX",
"IXJXY d e e e e e e e e e e e e e e e e e e e e w e y J FXIX",
"IXIXPX9XJ A A A A A A A A A A A A A A A A A A A A G *XLXIXIX"
};
