/* XPM */
static char *FB_PozoPluvial_SC_R[] = {
/* columns rows colors chars-per-pixel */
"30 30 256 2 ",
"   c #1A1D1C",
".  c #161614",
"X  c #220F0E",
"o  c #211313",
"O  c #1F201E",
"+  c #1D302F",
"@  c #262828",
"#  c #213B3C",
"$  c #373737",
"%  c #0F4443",
"&  c #2B4141",
"*  c #3D605F",
"=  c #127676",
"-  c #574E4C",
";  c #58585B",
":  c #46464A",
">  c #62605B",
",  c #53537A",
"<  c #676665",
"1  c #656563",
"2  c #686765",
"3  c #6A6866",
"4  c #6B6B6A",
"5  c #636B6B",
"6  c #6A6A75",
"7  c #6E7071",
"8  c #747476",
"9  c #737379",
"0  c #73747A",
"q  c #7C7B7A",
"w  c #77787C",
"e  c #807F7C",
"r  c #FFCB00",
"t  c #FFCC01",
"y  c #FFCE06",
"u  c #FFCE09",
"i  c #FFCF0C",
"p  c #FFD00C",
"a  c #FFD10B",
"s  c #FED112",
"d  c #FED215",
"f  c #FFD515",
"g  c #FED219",
"h  c #FED41A",
"j  c #FED51D",
"k  c #FFD81E",
"l  c #F3CD2A",
"z  c #FED621",
"x  c #FED626",
"c  c #F9D120",
"v  c #FFD926",
"b  c #FFDA21",
"n  c #FFD929",
"m  c #FFDA2E",
"M  c #FFDC2B",
"N  c #FBD32C",
"B  c #F1CD32",
"V  c #FED634",
"C  c #FFDE35",
"Z  c #FDDC32",
"A  c #FEDF3A",
"S  c #FADA3B",
"D  c #F6D438",
"F  c #FFE13E",
"G  c #FEE13B",
"H  c #FFE235",
"J  c #8C8C78",
"K  c #CABE7B",
"L  c #CABC73",
"P  c #FDDB45",
"I  c #F3D448",
"U  c #EFDA5E",
"Y  c #F7DA56",
"T  c #FFE345",
"R  c #FFE343",
"E  c #FEE54B",
"W  c #FEE849",
"Q  c #FEE554",
"!  c #FFE954",
"~  c #FFEB5B",
"^  c #DEC96C",
"/  c #EED967",
"(  c #EED972",
")  c #E9D477",
"_  c #F3DF7F",
"`  c #FFE263",
"'  c #FEEC62",
"]  c #FFED65",
"[  c #FFE26B",
"{  c #FEEE69",
"}  c #F0E06C",
"|  c #FFF16D",
" . c #FFF166",
".. c #F2E472",
"X. c #FAE775",
"o. c #FDF276",
"O. c #FFF474",
"+. c #FFF57D",
"@. c #FFF67A",
"#. c #FEF87F",
"$. c #38389B",
"%. c #434383",
"&. c #565586",
"*. c #464599",
"=. c #7B7C86",
"-. c #6060B6",
";. c #0303EF",
":. c #0101F2",
">. c #0000FE",
",. c #0303FB",
"<. c #0D0CF9",
"1. c #1616F9",
"2. c #2424FB",
"3. c #2E2FFB",
"4. c #2928F5",
"5. c #3636F5",
"6. c #2424E5",
"7. c #100FD0",
"8. c #4848CC",
"9. c #5C5CD6",
"0. c #5858F1",
"q. c #5657FB",
"w. c #5858ED",
"e. c #6969E7",
"r. c #7374F3",
"t. c #817CD2",
"y. c #0B9494",
"u. c #0CAAAA",
"i. c #7F9E9E",
"p. c #55BEBE",
"a. c #6EA6A6",
"s. c #00C9C9",
"d. c #05D7D6",
"f. c #03E1E1",
"g. c #00FDFD",
"h. c #06F5F5",
"j. c #14EAE9",
"k. c #20E9E9",
"l. c #60C0C0",
"z. c #45F5F5",
"x. c #54CDCD",
"c. c #8C8D8C",
"v. c #838384",
"b. c #918F8F",
"n. c #8A8B95",
"m. c #959592",
"M. c #959495",
"N. c #929293",
"B. c #9A9A99",
"V. c #9E9E9F",
"C. c #979789",
"Z. c #A5A594",
"A. c #A1A19A",
"S. c #9F9FA4",
"D. c #9EA1A1",
"F. c #A3A4A3",
"G. c #AAAAAB",
"H. c #ADADAB",
"J. c #AEAEAD",
"K. c #AAAAAC",
"L. c #A3A4AC",
"P. c #B0AEAB",
"I. c #AFB0A0",
"U. c #B5B5AE",
"Y. c #ACACB1",
"T. c #B2B2B2",
"R. c #BDBCBC",
"E. c #B9B7B4",
"W. c #CAC184",
"Q. c #CCC88A",
"!. c #DCCC86",
"~. c #C8C496",
"^. c #DBCF9E",
"/. c #D7D799",
"(. c #E3D698",
"). c #FFEF83",
"_. c #FAE983",
"`. c #FEF682",
"'. c #FFF280",
"]. c #FEF987",
"[. c #FEFA8E",
"{. c #FEFA8B",
"}. c #E9E696",
"|. c #FCEB99",
" X c #FDFB91",
".X c #FFFE96",
"XX c #FCFB92",
"oX c #F4F39B",
"OX c #FBF49B",
"+X c #FFFE9A",
"@X c #FFFF9E",
"#X c #FDFB9B",
"$X c #FDF393",
"%X c #C1C1AD",
"&X c #CBC8AB",
"*X c #C6C5B9",
"=X c #DBD3B7",
"-X c #D8D4BA",
";X c #DCDABD",
":X c #D1D1B2",
">X c #D5D1B1",
",X c #E3D9AA",
"<X c #E9E7A9",
"1X c #FEEEAF",
"2X c #F7F6A2",
"3X c #FFFFA0",
"4X c #FEFEA6",
"5X c #FEFEA8",
"6X c #FEFEAD",
"7X c #E5E1B4",
"8X c #F4F4B3",
"9X c #FFFFB0",
"0X c #FEFEB7",
"qX c #FCFAB4",
"wX c #F3F3BD",
"eX c #FEFEBA",
"rX c #FEFFBC",
"tX c #B6AFC3",
"yX c #BBBBC4",
"uX c #B7B7DE",
"iX c #9797EA",
"pX c #8A8BEA",
"aX c #ABACE8",
"sX c #B7B7E5",
"dX c #C0BFC5",
"fX c #C0C2C3",
"gX c #C5C6CB",
"hX c #CACBCD",
"jX c #DDDDCD",
"kX c #CECED4",
"lX c #D6D5D5",
"zX c #D9DAD7",
"xX c #DDDDDD",
"cX c #E0DDD0",
"vX c #E2E1CB",
"bX c #EBE6CA",
"nX c #F2F1C2",
"mX c #FFF2C2",
"MX c #FEFFC6",
"NX c #FFFFCB",
"BX c #FFFFCD",
"VX c #FFF5CE",
"CX c #E4E5DC",
"ZX c #E7E6D7",
"AX c #FFF6D4",
"SX c #FFF7DB",
"DX c #DADBE5",
"FX c #D7D9EA",
"GX c #C9CAE6",
"HX c #E1E1E2",
"JX c #EAEAE4",
"KX c #E6E6E9",
"LX c #FFF9E3",
"PX c #FFFAEA",
"IX c #FFFCF4",
"UX c #FFFFFF",
/* pixels */
"UXUXIXAX_.V i i i i i i i i i i i i i i i i i i x [ mXIXUXUX",
"UXPX[ Q ).qXBXNXNXNXNXNXNXNXNXNXNXNXNXNXNXNXNXBXeX$X` Y AXUX",
"IX` ).MXrXeX0X0X0X0X0X0X0X0X0X0X0X0X0X0X0XeX0X0X0XrXMXOXP PX",
"mXQ rX6X6X9X9X9X9X9X9X9X9X9X9X9X9X9X9X6X6X6X6XqXqX6X6XeXX.|.",
"` '.4X4X5X5X5X5X5X5X5X5X5X5X5X5X5X5X5X6X8XwXnXvXjX8X4X4X#Xm ",
"g .X@X@X@X@X3X3X3X3X@X@X3X3X3X@X+X+XoX:XjXkXdXE.T.7X3X@X4Xi ",
"y +X.X.X.X.X.X.XXXXX2XoX X XXX#X2X8X>XS.lXF.I./.Q.}.+X.X@Xu ",
"u [. X[.[.[.oX7XwXnXvXbX<X<X7X;X%Xb.c.F.zXG.U.8X.X{. X[..Xu ",
"y {.{.].].].}.F.K.R.S.Y.zXU.8 ; : @ $ F.hXJ.T.T.<X{.].].[.y ",
"y `.`.`.`.`.OX&XB.B.B.c.lX8 O . .   @ T.R.5 m.Y.&X$X+.`.].u ",
"y +.+.+.+.}.%XE.J.H.T.M.lX1   @ @ X # z.x.% - fX-X_.@.+.`.y ",
"y o.o.o.#.~.=.D.J.G.; 8 xX< o o + = = f.s.& q hX;X..O.o.+.y ",
"y | | | @.Q.7 e F.hX4 8 xX< y.d.d.g.h.u.* q B.gX;X..| | o.y ",
"y { { ] O.Q.9 2 G.HXF.7 E.l.j.g.g.h.k.a.c.N.m.gX;X.. .{ | y ",
"y ' ' ' | W.9 < J.HXF.3 B.D.N.p.p.i.N.M.M.m.m.gX;X} ~ ' { y ",
"y ~ ~ ~ ] W.9 < H.HXF.3 B.V.N.b.N.M.N.N.m.N.8.iX7X/ ~ ~ ' y ",
"t ! Q Q ~ W.0 1 H.FX9., A.V.c.q F.R.A.m.n.8.>.iX7X/ ! Q ~ y ",
"y E E E ! K 9 < H.DX2.%.Z.L.v.v.T.fXyX-.6.,.<.iX7XU W E ! y ",
"t E T T ! K 0 < H.DX3.$.J Z.C.8 J.yXe.>.,.>.5.GX=XY R T E t ",
"t R R F E K 9 2 K.JXw.;.*.&.&.3 F.yX0.,.>.<.iXCX>XY G R T t ",
"t G A A T L 0 2 K.JXuX2.>.:.:.6 ~.*X5.>.4.pXJXDX-XI H A F t ",
"t C C Z F L 0 2 H.KXZXaX0.2.1.7.8.e.3.r.sXcX=X,X( S Z C C t ",
"t m m n G L 8 3 G.JXlXZXZXaXaXq.q.t.tX|._ / I D v M m m m t ",
"t v x x n ^ n.> P.KXDXDXFXvX(.(.( T P B c z b v n v v x n t ",
"u z z z j V !.w L.bX^.) Y I l l c h h k z z z z z z z j z r ",
"P d h g h d m ^ ^ V l g a s f f h j j h h h h h h h g h g d ",
"1Xd s d d d s j h a p s d d d d d d d d d d d d d d s d s [ ",
"IXV y p i p p u u p p p p p p p p p p p p p p p p i p u d LX",
"UXSXg u y y y y y y y y y y y y y y y y y y y y y y y i VXUX",
"UXUXPXX.u r r r r r r r r r r r r r r r r r r r r y Y LXUXUX"
};
