/* XPM */
static char *FB_PozosPluviales_N_R[] = {
/* columns rows colors chars-per-pixel */
"30 30 245 2 ",
"   c #121111",
".  c #1B1313",
"X  c #1E1010",
"o  c #181615",
"O  c #1E1E1F",
"+  c #1C2F2F",
"@  c #232021",
"#  c #252525",
"$  c #262B2B",
"%  c #383B3B",
"&  c #3E3E40",
"*  c #1C4F50",
"=  c #1B5858",
"-  c #265C5C",
";  c #136F6F",
":  c #177474",
">  c #2B6B6B",
",  c #3D7373",
"<  c #414545",
"1  c gray27",
"2  c #444848",
"3  c #4F5050",
"4  c #4D5858",
"5  c #5A5A5A",
"6  c #5E5E5E",
"7  c #5F5F62",
"8  c #5F5F65",
"9  c #586161",
"0  c #5B7B7B",
"q  c #626262",
"w  c #616167",
"e  c #656565",
"r  c #686866",
"t  c #636369",
"y  c #696969",
"u  c #6B6B6C",
"i  c #6D6D6D",
"p  c #72726E",
"a  c #6E6E71",
"s  c #6F6F75",
"d  c #717171",
"f  c #727275",
"g  c #767676",
"h  c #7B7B77",
"j  c #77777E",
"k  c #76787B",
"l  c #7A7A7A",
"z  c #7D7D78",
"x  c #78787D",
"c  c #7D7D7E",
"v  c #80807F",
"b  c #919176",
"n  c #3333A9",
"m  c #2222B5",
"M  c #3C3CBD",
"N  c #595990",
"B  c #585895",
"V  c #777782",
"C  c #797982",
"Z  c #7F7F80",
"A  c #7A7A84",
"S  c #4444A1",
"D  c #5555BA",
"F  c #6F6EA7",
"G  c #6C6CAA",
"H  c #2424D8",
"J  c #0C0CE1",
"K  c #1C1CE6",
"L  c #0101FB",
"P  c #0000FC",
"I  c #1212F2",
"U  c #2222FB",
"Y  c #2A2AF8",
"T  c #3B3BF0",
"R  c #3E3EF3",
"E  c #5151D8",
"W  c #6B6BCD",
"Q  c #6969DD",
"!  c #4444E7",
"~  c #4949E1",
"^  c #4141ED",
"/  c #5959EE",
"(  c #5050F5",
")  c #6565E3",
"_  c #6D6DE4",
"`  c #6161EE",
"'  c #6F6FFF",
"]  c #7575F3",
"[  c #0B9E9E",
"{  c #199595",
"}  c #0EADAD",
"|  c #07BCBC",
" . c #2AAFAF",
".. c #36A4A4",
"X. c #619191",
"o. c #51BFBF",
"O. c #64A9A9",
"+. c #69AEAE",
"@. c #7CA6A6",
"#. c #78B2B2",
"$. c #00CBCB",
"%. c #0FCACA",
"&. c #1FCBCB",
"*. c #23DEDE",
"=. c #37D7D7",
"-. c #3DD3D3",
";. c #01E7E7",
":. c #00F4F4",
">. c #04FBFB",
",. c #0AF8F8",
"<. c #64C4C4",
"1. c #6CC3C3",
"2. c #45E9E9",
"3. c #828282",
"4. c #858582",
"5. c #858585",
"6. c #888884",
"7. c #878788",
"8. c #898989",
"9. c #8C8A8A",
"0. c #8A8A8C",
"q. c #8B8C8C",
"w. c #8E8E8D",
"e. c #968C8B",
"r. c #908F8F",
"t. c #90928F",
"y. c #95958E",
"u. c #9B9A8B",
"i. c #848595",
"p. c #8E8E92",
"a. c #8A8B94",
"s. c #918F90",
"d. c #8B9192",
"f. c #8D9192",
"g. c #839B9C",
"h. c #819C9C",
"j. c #919191",
"k. c #959091",
"l. c #939595",
"z. c #969696",
"x. c #9D9696",
"c. c #999996",
"v. c #93939B",
"b. c #939499",
"n. c #959698",
"m. c #93959C",
"M. c #97979D",
"N. c #969899",
"B. c #909C9C",
"V. c #999A9A",
"C. c #9B9B9D",
"Z. c #9B9D9E",
"A. c #9E9E9E",
"S. c #A59F9F",
"D. c #A4A48F",
"F. c #A0A09F",
"G. c #9F9FA2",
"H. c #9E9EA5",
"J. c #9897A8",
"K. c #8282BA",
"L. c #8787B8",
"P. c #9E9FB9",
"I. c #85ADAE",
"U. c #9AA4A4",
"Y. c #A2A2A2",
"T. c #A5A2A2",
"R. c #A5A6A2",
"E. c #A2A5A5",
"W. c #A5A5A5",
"Q. c #A1AAAA",
"!. c #A6A8A8",
"~. c #A9A9A9",
"^. c #ACA9A9",
"/. c #ACABAE",
"(. c #AAADAD",
"). c #ADADAD",
"_. c #A4A4B4",
"`. c #AFAFB0",
"'. c #AFB1B1",
"]. c #AEB0B5",
"[. c #AEB5B5",
"{. c #AEBABA",
"}. c #B2B2B2",
"|. c #B4B3B3",
" X c #B2B2B5",
".X c #B0B4B4",
"XX c #B5B5B5",
"oX c #BCB6B6",
"OX c #BBBBB3",
"+X c #B3B3B8",
"@X c #B6B7B9",
"#X c #B6B8B9",
"$X c #BABABA",
"%X c #BBBCBD",
"&X c #BEBEBE",
"*X c #C0BABA",
"=X c #BFC2BF",
"-X c #C0C0BF",
";X c #9A9ADC",
":X c #BBBBC0",
">X c #B7B7C8",
",X c #BBBBC8",
"<X c #A6A6D0",
"1X c #A6A6D7",
"2X c #B1B1DF",
"3X c #8383EC",
"4X c #8787EC",
"5X c #9898E2",
"6X c #9A9AF2",
"7X c #BABAE2",
"8X c #BBBBE5",
"9X c #BEC0C0",
"0X c #BEC1C5",
"qX c #BFC5C5",
"wX c #C0C1C0",
"eX c #C2C4C5",
"rX c #C8C5C5",
"tX c #C2C2CD",
"yX c #C9C9C9",
"uX c #CDCDCE",
"iX c #C2C2D3",
"pX c #C6C6D6",
"aX c #C9C9D2",
"sX c #CECED1",
"dX c #C1C1D8",
"fX c #CBCBDD",
"gX c #D5D5D3",
"hX c #D3D3D4",
"jX c #D6D6D5",
"kX c gray85",
"lX c #DBDBDF",
"zX c #DFDFDF",
"xX c #E2E2DF",
"cX c #D2D2E0",
"vX c #DEDEE3",
"bX c #E1E1E1",
"nX c #E7E7E3",
"mX c #E2E2E4",
"MX c #E6E6E6",
"NX c #EAEAEA",
"BX c #EFEFEF",
"VX c gray95",
"CX c #F6F6F6",
"ZX c #F9F9F9",
"AX c #FFFFFF",
/* pixels */
"AXAXZXbX).g 5 q 6 6 6 6 6 6 6 6 6 6 6 6 6 6 q 6 d A.jXCXAXAX",
"AXBXC.3.C.|.wX&X&X&X&X&X&X&X&X&X&X&X&X&X&X&X&XwXXXE.8.w.MXAX",
"ZXz.V.%XXXXX|.XXXXXXXXXXXXXXXXXXXX|.|.|.XXXXXXXXXXXX%XW.3.VX",
"kX5.XX).}.}.}.}.}.}.}.}.}.}.}.'.).}.$XXX}.}.}.}.}.}.).XXj.$X",
"z.V.).(.).).).).).).).).(.^.~.}.#X&XwX%X'.).).).).).(.(.W.g ",
"y E.~.~.~.~.W.W.~.!.E.W.(.}.$X|.yXXX(.~.}.W.~.~.~.~.~.~.(.6 ",
"5 W.W.W.E.W.).$X%X%XXX).!.z.q.A.eX~..XE.E.W.W.W.W.W.W.E.~.6 ",
"6 Y.Y.Y.F.W.}.}.(.|.wX3.3 % $ x.oXY.|.).Y.Y.Y.Y.E.Y.Y.Y.E.6 ",
"5 A.A.A.A.).}.Y.Y.E.W.1   . X <.O.4 }.XXC.A.A.C.V.C.A.A.Y.6 ",
"6 V.V.V.G.A.V.XX3.w.^.2 + = : %.{ 9 $X#Xn.V.C.~.XXE.V.V.A.6 ",
"6 z.z.z.A.j.g XXN.5.Q...$.;.:. .0 r.$X].n.XXwX$X|.).V.z.V.6 ",
"5 l.j.j.C.j.d XXwXv B.#.=.-.1.h.9.c.%X0X(.XX&X!.Z.N.z.j.z.5 ",
"6 j.j.j.V.j.d XX,Xj j.^.[.qX*XrX@XH.q.e y XX%X).!.j.j.j.j.6 ",
"5 w.w.q.z.w.d XX4XB u./.T.T.A.}.Y.& # o < {.l.l.$XZ.q.w.j.6 ",
"5 8.8.8.l.w.a OX' S D. X(.!.A.~.0.@ O X - 2.> y eXZ.5.8.q.5 ",
"5 5.5.5.j.w.a OX6XH G 6.C.`.e W.d.* ; [ | } , k.eXN.3.5.8.5 ",
"5 3.3.3.w.w.d XXvX/ E V 4.yXz.s.I.&.>.,.*.X.3.R.9Xm.Z 3.5.5 ",
"5 3.v c w.w.i XXnXfX<XA v uXR.l U.@.o.+.g.z.t.J.>Xb.c v 3.5 ",
"5 c c l 7.z.l }.mXsX-X3.c aXL.x A.w.e.S.c.y.F ~ ;Xc.k c c 5 ",
"5 l l l l j.V.W. Xv.M.c v dX! h R.w.f.=XP.D K Y 1Xl.g l l 5 ",
"5 g g g g g 8.8.f f w.c Z pXR N w.5.8.:X_ L P / iXa.f g g 5 ",
"5 f f d f f i d g f w.c Z hX3XJ m n b $X^ L T 8XjXi.a d g 5 ",
"5 d d i d d d d d i q.c 3.gXcX` U I M Q ( ] 2XtX_.C i i d 5 ",
"5 i i u i i i i i u w.c c hXxXlX7X5X) W K.G.p.V s u i u i 5 ",
"6 y y y y y y y y e Z j.5.uXsX+XW.z.0.z p w q e r y y y y 5 ",
"5.q e e e e e e e e e Z z.p.Z a t 8 7 q q e e e e e e e q e ",
"yXe q q q q q q q q q q u q 6 q q q q q q q q q q q q q q A.",
"ZXl 5 6 6 6 6 6 6 6 6 6 6 6 6 6 6 6 6 6 6 6 6 6 6 6 6 6 e BX",
"AXMXy 6 5 6 5 6 6 6 6 6 6 6 6 6 6 6 6 6 6 6 6 6 5 6 5 q zXAX",
"AXAXVXE.q 5 5 5 5 5 5 5 5 5 5 5 5 5 5 5 5 5 5 5 5 5 w.NXAXAX"
};
