/* XPM */
static char *FB_PozoFecal_N_R[] = {
/* columns rows colors chars-per-pixel */
"30 30 192 2 ",
"   c #131313",
".  c #171716",
"X  c #11181B",
"o  c #161A1C",
"O  c #1A1818",
"+  c #1E1D1D",
"@  c #39281E",
"#  c #232222",
"$  c #252423",
"%  c #272727",
"&  c #2C2623",
"*  c #2E2D2C",
"=  c #362E28",
"-  c #373737",
";  c #3D3531",
":  c #742F00",
">  c #753200",
",  c #7B3500",
"<  c #7A3A00",
"1  c #7A3D01",
"2  c #7E3F02",
"3  c #7C3C06",
"4  c #703F0D",
"5  c #604130",
"6  c #664430",
"7  c #7A4E33",
"8  c #695038",
"9  c #494949",
"0  c #594E47",
"q  c #4E5052",
"w  c #565656",
"e  c #5A5A5A",
"r  c #5E5E5E",
"t  c #635242",
"y  c #705B45",
"u  c #665D53",
"i  c #6E6053",
"p  c #6D6255",
"a  c #626262",
"s  c #646363",
"d  c #646463",
"f  c #656565",
"g  c #6A6765",
"h  c #6A6865",
"j  c #6E6A67",
"k  c #676868",
"l  c #696969",
"z  c #6C6B6B",
"x  c #6A6B6C",
"c  c #6D6E6E",
"v  c #706F6F",
"b  c #73716F",
"n  c #717171",
"m  c #767573",
"M  c #767676",
"N  c #797673",
"B  c #767877",
"V  c #797979",
"C  c #7E7C7A",
"Z  c #7B7C7C",
"A  c #7D7D7D",
"S  c #824305",
"D  c #82450A",
"F  c #85480F",
"G  c #895019",
"H  c #855423",
"J  c #8D5520",
"K  c #8D5828",
"L  c #915B25",
"P  c #935F2D",
"I  c #8C583A",
"U  c #966534",
"Y  c #986534",
"T  c #A4623A",
"R  c #896745",
"E  c #8E6C4B",
"W  c #8A755F",
"Q  c #997A5B",
"!  c #AB6841",
"~  c #B46D44",
"^  c #B86F46",
"/  c #A3794E",
"(  c #A37D57",
")  c #A57F57",
"_  c #817E7C",
"`  c #C57447",
"'  c #CB7849",
"]  c #D37D4B",
"[  c #D57D4B",
"{  c #C37C53",
"}  c #CD7E51",
"|  c #81807E",
" . c #84827E",
".. c #9B897F",
"X. c #A68668",
"o. c #A5886B",
"O. c #AD8C6D",
"+. c #B18A64",
"@. c #AB8975",
"#. c #AC8A76",
"$. c #AF8F7D",
"%. c #B78F78",
"&. c #B59777",
"*. c #C4815C",
"=. c #D69B7A",
"-. c #818182",
";. c #868480",
":. c #858685",
">. c #888683",
",. c #85888B",
"<. c #82888C",
"1. c #8A8A8A",
"2. c #8C8A89",
"3. c #8E8E8E",
"4. c #918F8C",
"5. c #998E89",
"6. c #8F9090",
"7. c #929292",
"8. c #959391",
"9. c #949493",
"0. c #909397",
"q. c #939495",
"w. c #969696",
"e. c #9A9A99",
"r. c #9C9B9A",
"t. c #9E9E9E",
"y. c #A19F9E",
"u. c #BCA48C",
"i. c #BBA591",
"p. c #B5A89B",
"a. c #9D9EA1",
"s. c #9BA0A5",
"d. c #9EA2A5",
"f. c #A2A1A1",
"g. c #A3A4A5",
"h. c #A6A5A5",
"j. c #AAAAAA",
"k. c #ACABA9",
"l. c #ABADAD",
"z. c #ADADAD",
"x. c #B1B1B1",
"c. c #B3B5B7",
"v. c #B5B5B5",
"b. c #BBB6B2",
"n. c #BAB9B7",
"m. c #BABABA",
"M. c #BFBBB8",
"N. c #BFBDB9",
"B. c #BEBEBE",
"V. c #C3AD98",
"C. c #C3AF9C",
"Z. c #C5B29F",
"A. c #C6B9AA",
"S. c #C0BBB7",
"D. c #CABDB1",
"F. c #CFC0B3",
"G. c #CBC1B7",
"H. c #C2C1BF",
"J. c #AFB9C2",
"K. c #BABEC2",
"L. c #C1C1C1",
"P. c #C4C3C2",
"I. c #C3C6C7",
"U. c #C5C5C5",
"Y. c #C9CACA",
"T. c #CECECD",
"R. c #D5CBC1",
"E. c #D9D4CE",
"W. c #D4D3D3",
"Q. c #D5D4D3",
"!. c #D5D5D5",
"~. c #D8D7D7",
"^. c #D5D6D8",
"/. c gray85",
"(. c #DEDEDE",
"). c #E0DAD4",
"_. c #E1DDDA",
"`. c #E1DFDF",
"'. c #E0E0DE",
"]. c #DDE0E2",
"[. c #DFE2E5",
"{. c #E1E1E1",
"}. c #E6E6E6",
"|. c #E2E5E8",
" X c #E6EAED",
".X c #E9E9EA",
"XX c #EAECEE",
"oX c #EFEFEF",
"OX c gray95",
"+X c #F6F6F6",
"@X c #F9F9F9",
"#X c #FFFFFF",
/* pixels */
"#X#X@X{.z.M e a r r r r r r r r r r r r r r a r n t.!.+X#X#X",
"#XoXr.-.r.x.L.B.B.B.B.B.B.B.B.B.B.B.B.B.B.B.B.L.v.g.1.3.}.#X",
"@Xw.e.B.v.v.v.v.v.v.v.v.v.v.v.v.v.v.v.v.v.v.v.x.v.v.m.h.-.OX",
"/.:.v.z.x.x.x.x.x.x.x.x.x.x.x.x.x.x.x.x.x.l.z.v.x.x.z.v.9.m.",
"w.e.z.l.z.z.z.z.z.z.z.z.z.z.z.z.z.z.z.x.v.L.U.T.T.v.l.l.h.M ",
"l g.j.j.j.j.j.j.j.j.h.j.j.j.j.j.h.g.j.v.T.Q.U.v.v.v.j.h.k.r ",
"e h.h.g.h.h.g.g.f.t.k.h.f.f.f.h.z.m.x.g.!.f.f.f.7.g.h.g.j.r ",
"r f.f.f.f.f.j.v.P.Y.T.T.v.x.m.L.x.3.1.t.~.l.z.N.h.t.f.f.g.r ",
"e t.t.t.t.t.h.g.k.m.f.x.!.x.M w 9 % - f.T.z.x.x.x.f.t.t.f.r ",
"r e.e.r.e.e.z.x.e.e.e.1.!.m +   . O * x.B.g q.z.m.h.w.e.t.r ",
"r w.w.w.e.g.x.v.z.k.x.9.!.s + $ # X = =.%.@ q U.H.r.w.w.e.r ",
"e 9.9.7.r.t.:.f.z.k.r M (.f o o & 5 6 ^ T ; Z T.U.9.9.9.w.e ",
"r 7.7.3.e.r.n A h.Y.c M (.f 7 ! ~ ' ` I 0 V e.Y.P.7.7.7.9.r ",
"e 3.3.1.w.r.M f k.{.f.v c.$.{ [ ] } *...3.9.9.Y.H.3.3.3.7.r ",
"e 1.1.1.7.e.V f z.{.g.l e.y.8.#.@.5.9.9.w.q.9.Y.H.2.1.1.3.e ",
"e :.:.-.3.w.V d l.{.f.l e.t.7.7.7.w.7.7.q.7.R V.I.>.:.:.1.e ",
"e -.-.-.1.9.M s l.).Q u a.t.3.Z h.B.a.q.4.R 2 C.I.;.-.-.:.e ",
"e -.-.A :.7.V d l._.L t s.h.:.-.x.L.M.W H 2 D Z.U. .A | -.e ",
"e A A V :.7.V f z._.P 8 <.d.0.M z.H.O., S , U E.N.| Z A A e ",
"e V V M -.7.V d j..X( 1 y p i k h.N.) 3 < F i.|.b._ B V Z e ",
"e M M n A 3.V f j.XXG.L > 1 < j J.L.U : K u. X}.S.C M M M e ",
"e n n n Z 3.V f l.}.[.A.) J G 4 E X.Y &.R.W.M.n.8.m n n m e ",
"e n n c V 3.m f k.}.Q.[.].D.F.+./ o.p.K.h.4.N b l c n c n e ",
"e c c z c 7.3.r l..X{.`.'.^.x.k.t.,.-.j d l x c c c c z c e ",
"r l l l f M f.V j.Q.x.r.:.C h g d a d l x l l l l l l l l e ",
":.a f s f a n 7.6.M z d r r f f f f f f f f f f f f s f s f ",
"Y.f a a a a r l f r a a s s a a a a a a a a a a a a a a a t.",
"@XV e r r r r r r a r r r r r r r r r r r r r r r r r r f oX",
"#X}.l r e r e r r r r r r r r r r r r r r r r r e r e a (.#X",
"#X#XOXg.a e e e e e e e e e e e e e e e e e e e e e 3..X#X#X"
};
