/* XPM */
static char *FB_Pozos_SC[] = {
/* columns rows colors chars-per-pixel */
"30 30 256 2 ",
"   c #14150F",
".  c #191717",
"X  c #242223",
"o  c #2B2626",
"O  c #3F3E3E",
"+  c #4D392D",
"@  c #7F5324",
"#  c #634432",
"$  c #7E573E",
"%  c #363540",
"&  c #1C4F4F",
"*  c #285D5B",
"=  c #2D6C6A",
"-  c #3F7472",
";  c #136F6F",
":  c #454645",
">  c #5B5856",
",  c #494859",
"<  c #725C44",
"1  c #786857",
"2  c #686867",
"3  c #6F6E71",
"4  c #706F73",
"5  c #7C7A77",
"6  c #76767B",
"7  c gray50",
"8  c #7B7B7B",
"9  c #776C65",
"0  c #A5613B",
"q  c #936C54",
"w  c #957352",
"e  c #BC7143",
"r  c #A67450",
"t  c #8B7B6B",
"y  c #C67647",
"u  c #FFCB00",
"i  c #FFCD00",
"p  c #FFCF05",
"a  c #F8CE00",
"s  c #FFCE0C",
"d  c #F5CD09",
"f  c #FED100",
"g  c #FED500",
"h  c #FBD101",
"j  c #FED900",
"k  c #FEDE00",
"l  c #FADC00",
"z  c #FFD30F",
"x  c #FFD90B",
"c  c #F4CE16",
"v  c #FFD112",
"b  c #FFD21C",
"n  c #F9D919",
"m  c #FEE100",
"M  c #FEE600",
"N  c #FCE102",
"B  c #FEE900",
"V  c #FEED00",
"C  c #F7EE0B",
"Z  c #FEF100",
"A  c #FEF500",
"S  c #F9F204",
"D  c #FEFA01",
"F  c #FEFE02",
"G  c #FFFD06",
"H  c #FBF50A",
"J  c #FFFE0A",
"K  c #FFFF0C",
"L  c #FBFA0F",
"P  c #F7F50C",
"I  c #ECE31C",
"U  c #FEFD13",
"Y  c #FFFE1E",
"T  c #FEFC1A",
"R  c #F9F419",
"E  c #EFD225",
"W  c #F3DE26",
"Q  c #FBD628",
"!  c #EECF38",
"~  c #ECDC3D",
"^  c #EED037",
"/  c #F8D332",
"(  c #EFE426",
")  c #F0E325",
"_  c #FFE224",
"`  c #F2EB25",
"'  c #FFED25",
"]  c #FCE22B",
"[  c #FEFE21",
"{  c #FEFE2E",
"}  c #FBFB2A",
"|  c #EAE03A",
" . c #F7EA37",
".. c #FEFE31",
"X. c #FFFF3B",
"o. c #FCF536",
"O. c #858277",
"+. c #828177",
"@. c #83827F",
"#. c #959576",
"$. c #9D8678",
"%. c #B98668",
"&. c #B7946F",
"*. c #ADAC6F",
"=. c #A5A275",
"-. c #A2A176",
";. c #A4A078",
":. c #B3AD7D",
">. c #B8B378",
",. c #CDBE74",
"<. c #DCCA4D",
"1. c #DEDA40",
"2. c #DDC950",
"3. c #D9D65B",
"4. c #E4CE46",
"5. c #EADC41",
"6. c #E8D446",
"7. c #F1D645",
"8. c #FFDD45",
"9. c #EFD657",
"0. c #FFDB54",
"q. c #E5CD58",
"w. c #E9E84A",
"e. c #FEFE40",
"r. c #FDFE45",
"t. c #F7F748",
"y. c #FEFB4C",
"u. c #E9E754",
"i. c #FFE158",
"p. c #FFFF57",
"a. c #FEFF58",
"s. c #D2C462",
"d. c #DEDB64",
"f. c #CBC97A",
"g. c #DDDA7B",
"h. c #CBCA67",
"j. c #E7DA6A",
"k. c #E3D978",
"l. c #E8E763",
"z. c #FFE362",
"x. c #FEE169",
"c. c #E0E079",
"v. c #FFE479",
"b. c #2324B4",
"n. c #3C3CBC",
"m. c #3534A7",
"M. c #595A8F",
"N. c #7E7E81",
"B. c #5555B9",
"V. c #7070A5",
"C. c #0D0DE0",
"Z. c #1D1DE4",
"A. c #0000FA",
"S. c #1313F2",
"D. c #2827F9",
"F. c #3E3EF1",
"G. c #726ED9",
"H. c #4645E6",
"J. c #5959EF",
"K. c #4A4BFA",
"L. c #6667E6",
"P. c #6E70F8",
"I. c #0C9E9E",
"U. c #0FADAC",
"Y. c #08BCBB",
"T. c #619190",
"R. c #51BFBE",
"E. c #69AEAD",
"W. c #7CA6A6",
"Q. c #1FCBCB",
"!. c #24DEDD",
"~. c #08FAF9",
"^. c #45E9E8",
"/. c #848483",
"(. c #838489",
"). c #8E8F8E",
"_. c #8B8B8A",
"`. c #968D89",
"'. c #93928E",
"]. c #948F92",
"[. c #8A9594",
"{. c #949595",
"}. c #9A9A97",
"|. c #9F9E9E",
" X c #9A9A9B",
".X c #969897",
"XX c #B39583",
"oX c #A59F9E",
"OX c #A89588",
"+X c #BBA085",
"@X c #A1A19E",
"#X c #B9B28F",
"$X c #999BA7",
"%X c #8B86B5",
"&X c #9E9FB8",
"*X c #86ADAD",
"=X c #9AA4A4",
"-X c #A3A4A2",
";X c #A9A7A5",
":X c #AAAAAA",
">X c #ACACA2",
",X c #B0AFAF",
"<X c #B8B5A8",
"1X c #ACACB8",
"2X c #AFBBB9",
"3X c #B2B1B1",
"4X c #B7B6B2",
"5X c #B6B6B4",
"6X c #B5B5B8",
"7X c #B7B9B9",
"8X c #BBBCBB",
"9X c #C0B98C",
"0X c #C7B199",
"qX c #C2BEBA",
"wX c #DCCD89",
"eX c #C3C296",
"rX c #DCD49C",
"tX c #D9D895",
"yX c #C7C68C",
"uX c #EBDE80",
"iX c #E0E081",
"pX c #FFEB95",
"aX c #C9C8A8",
"sX c #C1C1BD",
"dX c #CDCDB9",
"fX c #CAC9B4",
"gX c #DBD4B9",
"hX c #FEEEAF",
"jX c #9D9BDF",
"kX c #B6B5CA",
"lX c #A6A3D1",
"zX c #B8B6D9",
"xX c #8383EB",
"cX c #B7B8E6",
"vX c #C4C3C3",
"bX c #CCCBC7",
"nX c #CDCDCC",
"mX c #D2CFCC",
"MX c #DBD9C6",
"NX c #C3C3D6",
"BX c #C9C9D2",
"VX c #D4D4D1",
"CX c #D3D2DE",
"ZX c #E0DDCE",
"AX c #FFF2C2",
"SX c #FFF5CE",
"DX c #E1E1DE",
"FX c #FFF6D4",
"GX c #FFF7DB",
"HX c #D7D8E2",
"JX c #E3E4E4",
"KX c #FFF9E3",
"LX c #FFFAEB",
"PX c #FFFCF5",
"IX c #FFFFFE",
"UX c #FFFDF9",
/* pixels */
"IXIXUXFXv.Q p p p p p p p p p p p p p p p p p p b z.AXPXIXIX",
"IXLXz._ o.y.a.p.p.p.p.p.p.p.p.p.p.a.a.a.p.p.p.p.y.o.] 8.FXIX",
"UXi.' r.e.e.e.e.e.e.e.e.e.e.e.e.e.X.X.X.e.e.e.e.e.e.r.o.Q LX",
"AX_ ..{ { { ........{ ........{ } ..r.r.{ ..{ { { { { ..' pX",
"i.R Y Y Y Y [ [ Y Y [ [ T T U w.l.iXaXtXo.T Y Y Y Y Y Y T Q ",
"v K K J K J F F U L F F U } t.eXbX6Xf.3.} G K K K K J J K p ",
"i F F F F R w.l.c.g.u.u.h.*.#.|.vX>Xd.P F F F F F F F F F i ",
"i D D D D R yX1X:X1XsX/., % o .X7X-X<Xu.D D D D G D D D F i ",
"i D D D H w.eX@X@X-X;X:   . . XX$.> 3Xg.S D D D D D D D D i ",
"i A A D ` >. X4X/.).:X: o + # r $ > 8Xk.S S C  .u.` A A D i ",
"i A A A ` -.6 5X}./.;Xq 0 e y q 9 ).8Xj.I g.rXaX<Xd.H A A i ",
"i Z Z Z ) =.3 4XvX7 }.OX%.%.XX`._..X8XtXf.6XkX#X1.I S Z A i ",
"i Z Z Z ( =.4 4XqX5 {.:X3XvX8XvX5X@X_.2 2 5X8X<X3.C Z Z Z i ",
"i V V V ( =.3 5X+X1 .X:X-X-X|.3X-XO X . : 2X{.{.aX| V V Z i ",
"u V V V ) =.3 7X&.< $X3X:X;X|.:X_.X .   * ^.= 2 dX5.B V V i ",
"i B B B ) =.3 7X0X@ t (. X,X2 -X[.& ; I.Y.U.- ].dX~ B B B u ",
"i M M B W =.4 5XDXr w 5 /.bX{.'.*XQ.~.~.!.T.@.-XfX5.M B B i ",
"i M M M W ;.3 4XJXmX<X8 N.nX-X8 =XW.R.E.[.{.'.$XsX5.M M M u ",
"i m m M n >.6 3XJXMXfX@.7 BX%X6 |._.`.oX}.'.V.H.lX| N M M i ",
"u m m m N ~ :.9XuX6.s.+.N.NXH.5 ;X).).sX&XB.Z.D.kX5.l m m i ",
"i m k k k k ] W l k <.O.N.NXF.M.)./._.8XL.A.A.J.bX6.l m m u ",
"u k k k k k k k k k <.O.N.VXxXC.b.m.#.8XH.A.F.cXZX4.k k k i ",
"u j j j j j j j j j <.O.N.VXCXL.D.S.n.L.K.P.zXgXwXE j j j u ",
"u j j g j j j g g g 2.O.7 VXDXHXcXjXG.%X#Xj.7.E c g j g j u ",
"p g g g g g g g g g ^ :.(.mXMXrXk.9.7.n x h g g j g g g g u ",
"8.f g f g g g g f g h ^ ,.q.! c d a h f f g g g g g f g f v ",
"hXz f f f f f f f f f f z f f f f f f f f f f f f f f f f x.",
"PX/ i f i f f f f f f f i f f f f f f f f f f f f i f i v KX",
"IXGXb p i i i i i i i i i i i i i i i i i i i i i i i s SXIX",
"IXIXLXv.s u u u u u u u u u u u u u u u u u u u u p 0.KXIXIX"
};
