/* XPM */
static char *FB_Pozos_FS_R[] = {
/* columns rows colors chars-per-pixel */
"30 30 256 2 ",
"   c #1A1313",
".  c #141619",
"X  c #191818",
"o  c #272524",
"O  c #3B3D3D",
"+  c #4D382D",
"@  c #7E5224",
"#  c #634332",
"$  c #7E553D",
"%  c #1C4F4F",
"&  c #285C5C",
"*  c #3E7373",
"=  c #2D6B6B",
"-  c #136F6F",
";  c #454545",
":  c #4B5251",
">  c #5A5856",
",  c #725C44",
"<  c #776858",
"1  c #686767",
"2  c #6F7070",
"3  c #707271",
"4  c #7B7A77",
"5  c #7C7B7C",
"6  c #767878",
"7  c #766B65",
"8  c #9F2F2C",
"9  c #9E302D",
"0  c #9F3336",
"q  c #A0322F",
"w  c #A03330",
"e  c #A33633",
"r  c #A33635",
"t  c #A43532",
"y  c #A53936",
"u  c #A73833",
"i  c #A53A39",
"p  c #A93D3A",
"a  c #A93D3A",
"s  c #A93C37",
"d  c #AA413E",
"f  c #AD413E",
"g  c #A5613B",
"h  c #AE4340",
"j  c #AF4441",
"k  c #A94646",
"l  c #B14745",
"z  c #B04542",
"x  c #B24946",
"c  c #B44A47",
"v  c #BC4946",
"b  c #BB4946",
"n  c #B74E4B",
"m  c #B54C4A",
"M  c #BE4B48",
"N  c #BE4C4A",
"B  c #BA4F4C",
"V  c #BA514E",
"C  c #AE5E5E",
"Z  c #AD545C",
"A  c #BD5551",
"S  c #BE5754",
"D  c #BC5250",
"F  c #B45850",
"G  c #936B55",
"H  c #957252",
"J  c #BC7044",
"K  c #AE605E",
"L  c #BC635F",
"P  c #A57350",
"I  c #807A7B",
"U  c #8B7B6C",
"Y  c #BE6B68",
"T  c #BA6766",
"R  c #BB716F",
"E  c #AF6774",
"W  c #B76E72",
"Q  c #B17574",
"!  c #BD777A",
"~  c #BD7B79",
"^  c #BD7673",
"/  c #C04F4C",
"(  c #C0504D",
")  c #C25956",
"_  c #C55E5B",
"`  c #C85F5C",
"'  c #C7615E",
"]  c #CA625F",
"[  c #C67547",
"{  c #CB6563",
"}  c #CC6966",
"|  c #C36D6A",
" . c #CF6D6B",
".. c #D16966",
"X. c #D36D6A",
"o. c #C3716E",
"O. c #CD716F",
"+. c #D6716E",
"@. c #D1706D",
"#. c #D8726F",
"$. c #CB7977",
"%. c #C67976",
"&. c #D47572",
"*. c #D97572",
"=. c #DB7673",
"-. c #DD7976",
";. c #DA7875",
":. c #D57D7A",
">. c #DE7D7A",
",. c #DB7E7B",
"<. c #929076",
"1. c #9D8679",
"2. c #B7946F",
"3. c #BE817F",
"4. c #B98669",
"5. c #D3817E",
"6. c #DE827F",
"7. c #E0807D",
"8. c #2322B4",
"9. c #3C3CBC",
"0. c #3333A8",
"q. c #5A5A90",
"w. c #7F7F80",
"e. c #5555BA",
"r. c #706EA6",
"t. c #0E0DE1",
"y. c #0000FB",
"u. c #1312F2",
"i. c #1C1BE5",
"p. c #2726F9",
"a. c #3E3DF1",
"s. c #7A61C1",
"d. c #6966DE",
"f. c #4544E6",
"g. c #5958EF",
"h. c #4D53F7",
"j. c #6767E9",
"k. c #7378F5",
"l. c #9873AA",
"z. c #0C9E9E",
"x. c #0FADAD",
"c. c #08BCBC",
"v. c #7F8080",
"b. c #609191",
"n. c #69AEAE",
"m. c #7CA6A6",
"M. c #51C0BF",
"N. c #1FCBCB",
"B. c #24DDDD",
"V. c #08F9F9",
"C. c #45E9E9",
"Z. c #828181",
"A. c #848586",
"S. c #8C8C8C",
"D. c #868788",
"F. c #9A8685",
"G. c #9C8888",
"H. c #958A89",
"J. c #93928E",
"K. c #8D9191",
"L. c #839B9C",
"P. c #939595",
"I. c #9A9A97",
"U. c #979999",
"Y. c #9D9D9D",
"T. c #969698",
"R. c #A48B8A",
"E. c #AE8987",
"W. c #B28482",
"Q. c #B59884",
"!. c #A89A9A",
"~. c #BF9F9C",
"^. c #B89998",
"/. c #A89589",
"(. c #A0A09E",
"). c #B0A09F",
"_. c #999CA7",
"`. c #9E9FB9",
"'. c #8787B8",
"]. c #BC93A2",
"[. c #90A9A9",
"{. c #A1A1A1",
"}. c #A5A5A3",
"|. c #A9A7A6",
" X c #AAABAB",
".X c #B1ADAD",
"XX c #BDA9A8",
"oX c #AEB7B7",
"OX c #B2B2B2",
"+X c #B6B6B6",
"@X c #B4B3B3",
"#X c #B7B8BA",
"$X c #BBBBBB",
"%X c #BFB3B3",
"&X c #BBB1A7",
"*X c #C0888A",
"=X c #DF8380",
"-X c #DF8582",
";X c #DD8583",
":X c #D68C89",
">X c #DD8A88",
",X c #D68684",
"<X c #C1918F",
"1X c #D7918E",
"2X c #C99895",
"3X c #D29492",
"4X c #D69E9C",
"5X c #D99B99",
"6X c #DC9593",
"7X c #E08986",
"8X c #E28F8C",
"9X c #E28C8A",
"0X c #E08380",
"qX c #E1918F",
"wX c #E49694",
"eX c #E59897",
"rX c #E59A98",
"tX c #CDA19F",
"yX c #D6A09E",
"uX c #C7B19A",
"iX c #CAA7A7",
"pX c #D2AAA9",
"aX c #D7A4A2",
"sX c #C6BAB9",
"dX c #D1B5B3",
"fX c #E4B5B5",
"gX c #BFC1BF",
"hX c #A096D8",
"jX c #BCB6C2",
"kX c #ACA2D2",
"lX c #B4AFDC",
"zX c #8383EC",
"xX c #9A97E1",
"cX c #B9BCE5",
"vX c #CBBCC9",
"bX c #BCC2C2",
"nX c #C4C2C2",
"mX c #CDCCCC",
"MX c #C8C8C7",
"NX c #D5CBCC",
"BX c #D4D1CC",
"VX c #C3C3D7",
"CX c #C9C9D2",
"ZX c #D4D2D5",
"AX c #EFD3D3",
"SX c #E1DFDD",
"DX c #F3DEDE",
"FX c #E9C6C5",
"GX c #E2E2DF",
"HX c #D9DCE0",
"JX c #E5E4E4",
"KX c #F9EEEE",
"LX c #F5E6E5",
"PX c #FBF4F4",
"IX c #FFFFFF",
"UX c #FDFAFA",
/* pixels */
"IXIXUXDXaX} N ( / / / / / / / / / / / / / / ( N ' 1XAXPXIXIX",
"IXKX1X .:.qXrXeXeXeXeXeXeXeXeXeXeXeXeXeXeXeXeXeXqX=X&.:.LXIX",
"UX:X&.wXqX8X8X8X8X8X8X8X8X8X8X8X8X8X9X9X8X8X8X8X8XqXwX=XO.PX",
"AX .9X;X7X7X7X7X7X7X7X7X7X7X7X-X;X>XwXqX;X7X7X7X7X7X;X9X&.fX",
":X&.6.6.=X=X-X-X=X0X-X-X6.>.>.1X4XpXsXpX>X6.=X=X=X=X6.6.>.{ ",
") -.>.>.>.>.-.-.,.,.=.-.7.9X6XXXMX+X~.<X>X-.>.>.>.>.>.>.>./ ",
"M -.-.;.=.,.3XyXpXpX5X3X^.R.H.Y.nX|.4X;.=.-.;.-.-.-.-.=.-.N ",
"N *.*.*.#.5.XXoX X+XnXZ.: O o U.#X{.@X3X&.*.*.*.*.*.*.*.*.N ",
"N +.+.X.&.3XXX{.{.{.|.;   . . Q.1.> OXiX@.+.+.X...X.+.+.+.N ",
"N X.X.X.$.!.I.@XZ.S. X; o + # P $ > $XaX . .O.,X4X5.X.X.X.N ",
"M ......$.G.6 +XI.A.|.G g J [ G 7 K.$X2Xo.iXdXsX@X2XX.....N ",
"N } } { $.G.2 +XnXw.I./.4.4.Q.H.S.U.$XdX~.+XbX).3.o.} { } M ",
"N { { ] %.G.3 +XsX4 P. XOXnX$XMX+X(.S.1 1 +X$X.X<X{ ] { { N ",
"N ' ' ` o.F.3 +XQ.< T. X}.{.Y.OX{.O o X ; oXP.P.%X%._ ] ] M ",
"M _ _ _ o.F.2 #X2., _.OX X|.Y. XS.o X   & C.= 1 nX%.) _ _ N ",
"v ) ) ) | F.2 #XuX@ U D.Y..X1 }.K.% - z.c.x.* P.nX~ S ) ) M ",
"M S S A Y F.3 +XSXP H 4 A.MXP.J.[.N.V.V.B.b.Z.}.sX! D S S v ",
"v A A V Y F.2 @XJXBX&X5 w.mX}.5 {.m.M.n.L.T.J._.jX! B A A M ",
"v V V B L R.5 OXJXNXsXZ.5 CX'.6 Y.S.H.!.I.J.r.f.hX%.m V V v ",
"M n n m n R R.^.tX~ W.5 Z.VXf.4 }.S.K.gX`.e.i.p.kX^ l n n M ",
"v c c c c c T T x l Q I v.VXa.q.S.A.D.jXj.y.y.g.vXW l c c v ",
"v l l l x x f z x l Q I w.ZXzXt.8.0.<.$Xf.y.a.cXZXE h l l v ",
"v j j h j j j j j h Q I v.ZXZXj.p.u.9.d.h.k.lXvX].Z f j h v ",
"v f f d f f f f d a Q 5 v.ZXGXHXcXxXd.s.l.*XW Z k d f f d v ",
"N p p p a a a a a i C R.A.mXNXiX<X~ W F j r t u s p p p p b ",
"$.s y y y y y y y y i K E.Q C k i 0 w t t y i i y y y y y ) ",
"FXc e e e e e e e e e r d r w w t t e r r e e e e e e r a 3X",
"UX| q 9 w w w w w w w q 8 q w w w w w w w w w w w w w 9 V KX",
"IXLXS a 9 9 9 9 9 9 9 9 9 9 9 9 9 9 9 9 9 9 9 9 8 9 e B DXIX",
"IXIXPX5XB v v v v v v v v v v v v v v v v v v v v M ,XLXIXIX"
};
