/* XPM */
static char *FB_PozosPluviales_FS[] = {
/* columns rows colors chars-per-pixel */
"30 30 256 2 ",
"   c #140F0F",
".  c #1B1212",
"X  c #1E1E1F",
"o  c #200E0E",
"O  c #1D2F2F",
"+  c #242323",
"@  c #252C2C",
"#  c #363F3F",
"$  c #3E3E40",
"%  c #1C4F50",
"&  c #1C5858",
"*  c #275B5B",
"=  c #136F6F",
"-  c #167575",
";  c #3E7373",
":  c #2C6A6A",
">  c #444646",
",  c #4D5757",
"<  c #576161",
"1  c #5B7B7B",
"2  c #676768",
"3  c #6F7171",
"4  c #707172",
"5  c #7C7A7B",
"6  c #78797A",
"7  c #9E2A27",
"8  c #9D2929",
"9  c #9E2E2A",
"0  c #9E2627",
"q  c #9D2F33",
"w  c #A12E2B",
"e  c #A12F2C",
"r  c #A52F2C",
"t  c #A12C29",
"y  c #AA2D2D",
"u  c #AC2E2C",
"i  c #A32A25",
"p  c #A5302D",
"a  c #A2302E",
"s  c #A9312E",
"d  c #AD322F",
"f  c #B2312E",
"g  c #A43431",
"h  c #AD3330",
"j  c #AA3431",
"k  c #A43B3B",
"l  c #A73A38",
"z  c #B23431",
"x  c #B53532",
"c  c #B43330",
"v  c #BA3532",
"b  c #BA3734",
"n  c #BD3633",
"m  c #BE3835",
"M  c #BD3C3A",
"N  c #C5322E",
"B  c #C13734",
"V  c #C53734",
"C  c #C93632",
"Z  c #CA3532",
"A  c #C23A37",
"S  c #C63A36",
"D  c #CA3936",
"F  c #CD3B37",
"G  c #CC3C37",
"H  c #C63B38",
"J  c #C63C3A",
"K  c #C03D3A",
"L  c #CA3B38",
"P  c #CC3B38",
"I  c #CA3C39",
"U  c #CC3C38",
"Y  c #C93F3D",
"T  c #C3413E",
"R  c #CC403D",
"E  c #A8464E",
"W  c #BE4643",
"Q  c #B24B46",
"!  c #BD4946",
"~  c #BB4946",
"^  c #BB4C49",
"/  c #B44847",
"(  c #B6514F",
")  c #BB514F",
"_  c #AB5556",
"`  c #BE5452",
"'  c #B65857",
"]  c #BB635F",
"[  c #AD5A65",
"{  c #B65F64",
"}  c #807B7B",
"|  c #977F7E",
" . c #907F7E",
".. c #997F7F",
"X. c #9F7E7E",
"o. c #AC6B69",
"O. c #AE6866",
"+. c #B46264",
"@. c #B96363",
"#. c #B3686E",
"$. c #B16F71",
"%. c #AD787D",
"&. c #B97876",
"*. c #C64A46",
"=. c #C84A47",
"-. c #C3514F",
";. c #CF524F",
":. c #C25653",
">. c #C65E5C",
",. c #CA5856",
"<. c #C8625F",
"1. c #C66C6A",
"2. c #D16B68",
"3. c #CF716F",
"4. c #C47472",
"5. c #CB7674",
"6. c #CD7F7E",
"7. c #CC7877",
"8. c #80807E",
"9. c #919076",
"0. c #C2807D",
"q. c #3333A8",
"w. c #2322B4",
"e. c #3C3DBC",
"r. c #5A5A8F",
"t. c #585895",
"y. c #7D7D83",
"u. c #777782",
"i. c #4544A0",
"p. c #5555BA",
"a. c #785DBE",
"s. c #6E6DA8",
"d. c #2524D7",
"f. c #0E0DE0",
"g. c #0000FB",
"h. c #1312F2",
"j. c #1C1BE4",
"k. c #2727F9",
"l. c #3D3DF1",
"z. c #5151D8",
"x. c #6966DE",
"c. c #4544E6",
"v. c #5959ED",
"b. c #4E53F8",
"n. c #6767E9",
"m. c #706FFE",
"M. c #7379F6",
"N. c #976CA5",
"B. c #0C9F9E",
"V. c #1A9595",
"C. c #0FADAD",
"Z. c #08BBBB",
"A. c #2BAFAF",
"S. c #37A3A3",
"D. c #7F8081",
"F. c #609191",
"G. c #51BFBF",
"H. c #67ABAB",
"J. c #78B2B2",
"K. c #7CA6A6",
"L. c #08C9C9",
"P. c #1FCBCB",
"I. c #24DDDD",
"U. c #3AD4D4",
"Y. c #00E7E6",
"T. c #05F7F7",
"R. c #69C3C3",
"E. c #44E8E8",
"W. c #828282",
"Q. c #858484",
"!. c #8E8E8E",
"~. c #8C8A8B",
"^. c #868886",
"/. c #998786",
"(. c #93938F",
"). c #9B998A",
"_. c #918F90",
"`. c #8D9191",
"'. c #839C9C",
"]. c #949595",
"[. c #939A9A",
"{. c #9D9D9D",
"}. c #9C9896",
"|. c #A78585",
" X c #BE8281",
".X c #B88D8D",
"XX c #BB8C9B",
"oX c #AF9796",
"OX c #A39F9F",
"+X c #B99C9C",
"@X c #9DA09F",
"#X c #A4A48F",
"$X c #B8A09F",
"%X c #9B9BA7",
"&X c #9E9FB8",
"*X c #8787B8",
"=X c #85ADAE",
"-X c #9AA5A5",
";X c #A2A1A1",
":X c #A5A4A2",
">X c #A4A9A9",
",X c #AAABAB",
"<X c #ABA5A4",
"1X c #B6AFAE",
"2X c #B7ABAB",
"3X c #AFAFB0",
"4X c #AFB9B9",
"5X c #AEB5B5",
"6X c #B6B5B5",
"7X c #B3B3B3",
"8X c #B3B9B9",
"9X c #BBBABB",
"0X c #BBB6B6",
"qX c #C68B8C",
"wX c #D48483",
"eX c #D58987",
"rX c #C2918F",
"tX c #C99393",
"yX c #C49594",
"uX c #DB9C9B",
"iX c #D79392",
"pX c #C3AEAD",
"aX c #CAA9AC",
"sX c #C3A2A6",
"dX c #C3BCBC",
"fX c #E3B2B1",
"gX c #BFC0BD",
"hX c #9F93D5",
"jX c #BBBBC3",
"kX c #A8A3D1",
"lX c #B3AEDB",
"zX c #8684EC",
"xX c #9A96E1",
"cX c #9B9AF1",
"vX c #B9BCE5",
"bX c #CAB9C7",
"nX c #BEC5C5",
"mX c #CBCBCB",
"MX c #C4C3C3",
"NX c #D3C9CB",
"BX c #C3C3D7",
"VX c #CACBD9",
"CX c #D4D2D2",
"ZX c #D6D1D8",
"AX c #EFD3D3",
"SX c #F3DDDD",
"DX c #EAC5C5",
"FX c #F3E0DE",
"GX c #DCDDE1",
"HX c #E4E4E2",
"JX c #F5E4E3",
"KX c #F9EEEE",
"LX c #F7E9E8",
"PX c #FEFEFE",
"IX c #FCFAFA",
"UX c #FBF5F4",
/* pixels */
"PXPXIXFXuX>.W ! ! ! ! ! ! ! ! ! ! ! ! ! ! ! ! W ,.eXAXIXPXPX",
"PXKXeX*.S L F F F F F F F F F F F F U U F F F F G S *.3.JXPX",
"IXwXS P U U U U U U U U U U U U U F Z C U U U U U U U D <.UX",
"AX-.P I L L I I I I L U I I U D D R ;.=.L P L L L P I U *.fX",
"wXY L I I I I I L P I I D C C >.5.qXpXyX=.D I I I I I I L >.",
":.I I I I L C Z Y J N C R ;.2.$XmX8X.X&.;.D I I I I I I I ! ",
"! I I I D =.1.6.tXtX5.4.&.X. .@XMX<X0.*.L I I I I I I I L ! ",
"! J H I S -.+X4X,X8XdXW., # @ }.0X;X1X4.J J J I Y J H H H ! ",
"! H H S T 4.+XOX;X;X>X>   . o R.H., 7XrXM J H V N V H H S ! ",
"! A A V -.|.}.7XW.!.,X> O & - L.V.< 9XrXM M W >.6.:.A A A ! ",
"! A A B ` | 6 6X].Q.>XS.L.Y.T.A.1 `.9XqX/ rXaXpX1X XT B A ! ",
"! m m n ` ..3 6XMX} [.J.U.U.R.'.~.[.9XaX.X6XnXoX+.^ K m m ! ",
"! m m n ` ..4 6XjX6 ].,X5XnXdXMX8X%X~.2 2 6X9X<X&.M n m n ! ",
"! b b v ) ..4 6XzXt.).,X:X;X{.7X;X$ + . > 4X].].1X] v m v ! ",
"! b b v ) | 3 0Xm.i.#X7X,X>X{.,X~.+ X . * E.: 2 dX@.c b b ! ",
"! x x c ( | 3 0XcXd.s.^.{.3X2 :X`.% = B.Z.C.; ].dX@.f x x ! ",
"! x x f ( ..4 6XGXv.z.u.Q.mX]._.=XP.T.T.I.F.W.:XdX{ f x c ! ",
"! z z f ( /.3 7XHXVXkXy.8.mX:X5 -XK.G.H.'.].(.%X0X+.u z z ~ ",
"! z z f / |.6 7XHXNXdXW.5 VX*X6 {.!._.OX}.(.s.c.hX] u z z ! ",
"! h h d h ' |.oXtX#.%.5 D.BXc.6 :X!.`.gX&Xp.j.k.kX@.y h d ! ",
"! d d d d h ( ( j y O.5 D.BXl.r.!.Q.^.jXn.g.g.v.bX[ y d d ~ ",
"! d d s h h u u h h o.} y.CXzXf.w.q.9.9Xc.g.l.vXCX[ y d s ! ",
"~ s s s s s j j s p o.} D.CXZXn.k.h.e.x.b.M.lXbXXXE r s s ! ",
"! p p p p p p p p r o.5 D.CXHXGXvXxXx.a.N. X+.E k p p p r ! ",
"^ p e p p p p p p w _ /.^.mXNXsXrX&.+.Q l 8 0 i w p p p w ~ ",
"7.g w e e e e e e w a _ |.$._ k q 8 8 7 t e a a e e e e w :.",
"DX/ 9 e e e e e e e w e l e 8 t t e e e e e e e e e e w j iX",
"IX1.t 9 9 9 9 9 9 9 9 9 7 9 9 9 9 9 9 9 9 9 9 9 9 9 9 9 ) KX",
"PXJX` l 9 9 9 9 9 9 9 9 9 9 9 9 9 9 9 9 9 9 9 9 9 9 g ^ SXPX",
"PXPXUXuX) ! ! ! ! ! ! ! ! ! ! ! ! ! ! ! ! ! ! ! ! ^ wXLXPXPX"
};
