/* XPM */
static char *FB_PozoFecal_FS_R[] = {
/* columns rows colors chars-per-pixel */
"30 30 256 2 ",
"   c #14191C",
".  c #1D1B1B",
"X  c #161414",
"o  c #39281E",
"O  c #252424",
"+  c #2D2A27",
"@  c #362E28",
"#  c #373737",
"$  c #3D3531",
"%  c #752F00",
"&  c #7B3500",
"*  c #7B3C01",
"=  c #733806",
"-  c #634230",
";  c #7A4E33",
":  c #695038",
">  c #594E47",
",  c #4E4F51",
"<  c #5F5E5E",
"1  c #535959",
"2  c #474A4B",
"3  c #635242",
"4  c #705B45",
"5  c #665D53",
"6  c #6E6154",
"7  c #666565",
"8  c #656463",
"9  c #676868",
"0  c #6A6A6A",
"q  c #6C6966",
"w  c #706F6F",
"e  c #6F7373",
"r  c #757575",
"t  c #767A7A",
"y  c #7B7B7B",
"u  c #9E2F2C",
"i  c #9E302D",
"p  c #A12F2B",
"a  c #A2312F",
"s  c #A03330",
"d  c #A33633",
"f  c #A33734",
"g  c #A63632",
"h  c #A53936",
"j  c #A43935",
"k  c #A63B38",
"l  c #A73E39",
"z  c #A93D3A",
"x  c #AA3D3A",
"c  c #83450A",
"v  c #8A5018",
"b  c #8E5624",
"n  c #855423",
"m  c #915C25",
"M  c #935F2D",
"N  c #8C583A",
"B  c #AC413E",
"V  c #AA403C",
"C  c #966534",
"Z  c #A4623A",
"A  c #AE4340",
"S  c #AF4541",
"D  c #AB4845",
"F  c #B24744",
"G  c #B14542",
"H  c #B34A47",
"J  c #BC4946",
"K  c #BB4946",
"L  c #B54A48",
"P  c #B74E4B",
"I  c #B34F4A",
"U  c #BE4B48",
"Y  c #BE4C4A",
"T  c #BA4E4C",
"R  c #AE514F",
"E  c #B6534F",
"W  c #BA514E",
"Q  c #BD514E",
"!  c #BD5451",
"~  c #BF5754",
"^  c #BA5451",
"/  c #BA5B55",
"(  c #B75B57",
")  c #896745",
"_  c #8E6C4B",
"`  c #8A755F",
"'  c #997A5B",
"]  c #AB6841",
"[  c #B86F46",
"{  c #B46D44",
"}  c #A4784E",
"|  c #A47E57",
" . c #B76665",
".. c #B7726F",
"X. c #BC706D",
"o. c #A77A78",
"O. c #AB7D7C",
"+. c #B27C7A",
"@. c #B87875",
"#. c #C04F4C",
"$. c #C0504D",
"%. c #C15755",
"&. c #C25A56",
"*. c #C55E5B",
"=. c #C45C59",
"-. c #C85E5C",
";. c #C87648",
":. c #D47D4B",
">. c #C4615E",
",. c #C9615E",
"<. c #C87D52",
"1. c #CB6461",
"2. c #CE6764",
"3. c #CA6562",
"4. c #CC6966",
"5. c #CC6D6B",
"6. c #C56965",
"7. c #D16A67",
"8. c #D26D6A",
"9. c #D46E6A",
"0. c #D16764",
"q. c #CC706E",
"w. c #D6716E",
"e. c #DA716E",
"r. c #CD7674",
"t. c #D67572",
"y. c #D37572",
"u. c #D97472",
"i. c #DC7572",
"p. c #DD7976",
"a. c #D57E7B",
"s. c #DE7D7A",
"d. c #DD7D7A",
"f. c #E27B77",
"g. c #9B897F",
"h. c #AB8968",
"j. c #AC8A76",
"k. c #AF8F7D",
"l. c #AD807E",
"z. c #B78F78",
"x. c #B39878",
"c. c #C4815C",
"v. c #D7817E",
"b. c #DF827F",
"n. c #D69B7A",
"m. c #7F8787",
"M. c #838383",
"N. c #8D8C8C",
"B. c #82888C",
"V. c #958F8B",
"C. c #8B9190",
"Z. c #929292",
"A. c #959392",
"S. c #939495",
"D. c #959595",
"F. c #909397",
"G. c #9A9999",
"H. c #9E9E9E",
"J. c #AE8180",
"K. c #B18483",
"L. c #B58887",
"P. c #BB8785",
"I. c #A19F9F",
"U. c #AB9A99",
"Y. c #BA9290",
"T. c #BCA58E",
"R. c #9D9EA1",
"E. c #9DA1A5",
"W. c #A1A1A0",
"Q. c #A1A5A5",
"!. c #A7A6A6",
"~. c #A6A2A2",
"^. c #ABAAAA",
"/. c #ADADAD",
"(. c #ABABAC",
"). c #A6ABAC",
"_. c #B3ACAC",
"`. c #BBAAA9",
"'. c #ADB2B2",
"]. c #B2B2B2",
"[. c #B3B5B7",
"{. c #B9B3B2",
"}. c #BDBDBC",
"|. c #B4B9B8",
" X c #C28583",
".X c #CA8887",
"XX c #D28382",
"oX c #DF8380",
"OX c #DF8481",
"+X c #DF8784",
"@X c #DA8382",
"#X c #D68C89",
"$X c #DB8D8B",
"%X c #DB8A87",
"&X c #DC918E",
"*X c #C99A98",
"=X c #D79492",
"-X c #DB9391",
";X c #D39E9D",
":X c #D89A98",
">X c #E08683",
",X c #E08986",
"<X c #E28D8A",
"1X c #E28F8C",
"2X c #E2908E",
"3X c #E49593",
"4X c #E59897",
"5X c #E59A98",
"6X c #C8A09F",
"7X c #C1A896",
"8X c #DEA09F",
"9X c #C1B09D",
"0X c #C3A5A4",
"qX c #C3AFAF",
"wX c #CBA8A5",
"eX c #DDA3A2",
"rX c #DFADAB",
"tX c #D3AAAB",
"yX c #CEB1AD",
"uX c #C4B6A5",
"iX c #CCBAB3",
"pX c #D2B4B3",
"aX c #D3BBBB",
"sX c #D4B9B8",
"dX c #E2A6A4",
"fX c #E3B4B4",
"gX c #CBC1B6",
"hX c #C0C0BF",
"jX c #AFB9C2",
"kX c #C1C2C2",
"lX c #C6CBCB",
"zX c #CCCCCC",
"xX c #DBC4C3",
"cX c #D7C9C8",
"vX c #D8CAC6",
"bX c #DAD0CF",
"nX c #D5D5D4",
"mX c #D9D4D5",
"MX c #DDDDDD",
"NX c #EFD3D3",
"BX c #E1DDDA",
"VX c #E0DAD4",
"CX c #F3DEDE",
"ZX c #E9C6C5",
"AX c #DFDEE0",
"SX c #DEE2E2",
"DX c #E3E3E3",
"FX c #E3EBED",
"GX c #E9EAEB",
"HX c #E1E5E8",
"JX c #F5E4E3",
"KX c #F9EEEE",
"LX c #F6E9E8",
"PX c #FBF4F4",
"IX c #FFFFFF",
"UX c #FDFAFA",
/* pixels */
"IXIXUXCXeX6.Y $.#.#.#.#.#.#.#.#.#.#.#.#.#.#.$.Y >.=XNXPXIXIX",
"IXKX&X5.a.2X5X4X4X4X4X4X4X4X4X4X4X4X4X4X4X4X4X4X3X@Xy.a.JXIX",
"UX#Xt.3X2X1X1X1X1X1X1X1X1X1X1X1X1X1X1X1X1X2X1X<X<X2X3XoXq.PX",
"NX5.<X+X,X,X,X,X,X,X,X,X,X,X,X,X,X,X,X>X>Xb.OX&X$X+X+X<Xy.fX",
"#Xt.b.b.oXoXoXoXoXoXOXOXoXoXoXOXOXoXOX,X-XdXrXxXxX-Xb.oXd.3.",
"&.p.s.d.s.s.s.s.s.s.p.d.s.s.s.d.p.i.v.0XcXnXlX{.|.;Xf.d.s.#.",
"U p.p.i.p.i.i.i.e.w.@Xa.e.e.u.d.%X8X6XQ.nXW.U. X..a.p.i.p.Y ",
"Y u.u.u.u.u.XX;XrXfXxXxX:X=XtXpX`.N.N.I.mX/._.eXf.e.t.u.u.Y ",
"Y w.w.w.w.9..X~.(.}.Q.'.mX_.t 1 2 O # W.zX/.].].*Xt.9.w.w.Y ",
"Y 8.8.8.8.8.#X0XG.G.G.N.nXr . X X . + ].}.7 A.'.qXa.7.8.9.Y ",
"U 7.7.7.7..X`.{./.(.].D.nX8 . O O   @ n.z.o , kXpXq.0.7.7.Y ",
"Y 2.2.1.w.L.m.W./.(.< r MX7     + - - [ Z $ y zXsX5.1.2.2.U ",
"Y 1.1.,.8.L.e y !.lX0 r MX7 ; ] { ;.;.N > t G.lXsX6.,.1.3.Y ",
"Y ,.,.*.4.L.t 7 (.DXW.w [.k.<.:.:.<.c.g.N.A.A.lXpX6.-.,.,.U ",
"U *.*.=.3.K.t 7 /.DXQ.9 G.I.A.j.j.V.A.D.D.S.A.lXpX>.=.*.*.Y ",
"J &.&.%.1.K.t 8 (.DXW.9 G.H.Z.Z.Z.D.Z.Z.S.Z.) 9XaX/ %.&.&.U ",
"U ~ ~ ! >.J.t 8 /.VX' 5 R.H.N.y !.}.R.S.V.) * 9XaX/ ! ~ ~ J ",
"J ! ! W =.l.t 8 /.BXm 3 E.!.M.M.].kX}.` n * c uXaX/ Q ! ! U ",
"J W W P &.O.t 7 /.BXM : B.E.F.r /.hXh.& c & C nXyX/ T W W J ",
"U P P L ~ O.t 8 ^.GX| * 4 6 6 9 !.}.| * & c T.HXwX^ L P P U ",
"J H H F ^ O.t 7 ^.GXgXm % * * q jXkXC % b T.FXFXyXE F H H J ",
"J F F G E O.t 7 (.DXSXuX| b v = _ h.C x.vXbXyXwX@.H G F G J ",
"J S S B P o.r 7 (.DXnXDXAXiXgXh.} h.7XtX.XX.I S x A S S A J ",
"J B B z A +.C.< (.GXSXSXSXmX0X*X X .( V g x x B A B B B B J ",
"Y z z z h I Y.y ).bX0XP. .( l k j g g x z z z z z z z z z K ",
"r.k j h h d D +.+.R A f p a j j h k k h h h h h h h h h j &.",
"ZXL d d d f s z k p s d j j f f d d d d d d d d d d d f x =X",
"UX6.a i s s s i i s s s s s s s s s s s s s s s s s s i W KX",
"IXJX~ z i i i i i i i i i i i i i i i i i i i i u i d T CXIX",
"IXIXPX:XT J J J J J J J J J J J J J J J J J J J J U XXLXIXIX"
};
