/* XPM */
static char *FB_PozosFecales_NR[] = {
/* columns rows colors chars-per-pixel */
"30 30 256 2 ",
"   c #14110F",
".  c #141719",
"X  c #1A1B1A",
"o  c #232323",
"O  c #292829",
"+  c #2C2421",
"@  c #3A3C3E",
"#  c #773200",
"$  c #7B3901",
"%  c #4A372D",
"&  c #78430D",
"*  c #5F402F",
"=  c #534036",
"-  c #6D4722",
";  c #7F5224",
":  c #624738",
">  c #6E5033",
",  c #7D583D",
"<  c #464544",
"1  c #495057",
"2  c #5B5755",
"3  c #6A584D",
"4  c #725C44",
"5  c #766759",
"6  c #686767",
"7  c #6F6F71",
"8  c #6F7072",
"9  c #7C7A77",
"0  c #7A7A7A",
"q  c #7F7E7D",
"w  c #747677",
"e  c #766B65",
"r  c #824B16",
"t  c #905822",
"y  c #905D2B",
"u  c #825337",
"i  c #955D3D",
"p  c #986A3C",
"a  c #A5613B",
"s  c #CE6E1E",
"d  c #CE6D1A",
"f  c #D16D1A",
"g  c #D16F1D",
"h  c #D56F19",
"j  c #D36D15",
"k  c #D2701F",
"l  c #D5721F",
"z  c #DD751B",
"x  c #DA751D",
"c  c #DD761E",
"v  c #E47A1E",
"b  c #E1771B",
"n  c #CF6F20",
"m  c #CF772D",
"M  c #D27221",
"N  c #D57320",
"B  c #D77420",
"V  c #D57626",
"C  c #DA7621",
"Z  c #DB7622",
"A  c #DE7921",
"S  c #D67A2D",
"D  c #DA7A2B",
"F  c #E17A21",
"G  c #E57D22",
"H  c #E67F24",
"J  c #E27C22",
"K  c #E97E21",
"L  c #976D44",
"P  c #936C54",
"I  c #887055",
"U  c #9A7652",
"Y  c #BC7044",
"T  c #A67A56",
"R  c #BC7E5B",
"E  c #A76946",
"W  c #8A7B6D",
"Q  c #827D78",
"!  c #CA794A",
"~  c #CD7E51",
"^  c #FF891E",
"/  c #FB861C",
"(  c #D68037",
")  c #D6833C",
"_  c #DF873B",
"`  c #E98124",
"'  c #EE8425",
"]  c #ED8223",
"[  c #ED872B",
"{  c #F18626",
"}  c #F58625",
"|  c #F18423",
" . c #F58927",
".. c #FE8A22",
"X. c #FF8C22",
"o. c #F98A25",
"O. c #FE8E26",
"+. c #FB8A24",
"@. c #F2892A",
"#. c #F58C2C",
"$. c #F88B28",
"%. c #FA8D29",
"&. c #FE8E29",
"*. c #FB8E2C",
"=. c #FC8E2D",
"-. c #FE902C",
";. c #E58B3C",
":. c #E98936",
">. c #F38F3E",
",. c #F58F3D",
"<. c #FA9337",
"1. c #F5913E",
"2. c #F5923C",
"3. c #FA953B",
"4. c #AC845E",
"5. c #B68559",
"6. c #9F866B",
"7. c #82817F",
"8. c #9C897C",
"9. c #A98867",
"0. c #B98669",
"q. c #B7946F",
"w. c #A18E7C",
"e. c #A18C7C",
"r. c #AB8772",
"t. c #AD9179",
"y. c #B1967A",
"u. c #BE9B7F",
"i. c #DD8B43",
"p. c #DF8C43",
"a. c #D08749",
"s. c #D48C4D",
"d. c #CA905F",
"f. c #DC9454",
"g. c #D6945B",
"h. c #DA9459",
"j. c #E68E42",
"k. c #E69145",
"l. c #EB9345",
"z. c #EF974D",
"x. c #F39242",
"c. c #FB9A42",
"v. c #F79A4C",
"b. c #F69746",
"n. c #E89952",
"m. c #F79E56",
"M. c #F8A359",
"N. c #C89161",
"B. c #CF9667",
"V. c #C59367",
"C. c #D59C6A",
"Z. c #D89F6E",
"A. c #C99975",
"S. c #DCA676",
"D. c #D8A678",
"F. c #DEA97B",
"G. c #E6A265",
"H. c #E3A46A",
"J. c #EEA869",
"K. c #F5A565",
"L. c #EAAC75",
"P. c #F4AC70",
"I. c #F9B57D",
"U. c #F5B37D",
"Y. c #7E7F80",
"T. c #807F80",
"R. c #7F8081",
"E. c #838384",
"W. c #888887",
"Q. c #868788",
"!. c #8E8E8E",
"~. c #8C8B8B",
"^. c #948F8C",
"/. c #9E9089",
"(. c #8E8F90",
"). c #858B90",
"_. c #8D9193",
"`. c #919191",
"'. c #949495",
"]. c #999897",
"[. c #959799",
"{. c #9A9A9B",
"}. c #9F9E9E",
"|. c #9F9C98",
" X c #999896",
".X c #A89586",
"XX c #B39583",
"oX c #BA9F84",
"OX c #B39B85",
"+X c #A39C98",
"@X c #A2A19E",
"#X c #ACA59E",
"$X c #BAA492",
"%X c #9A9FA4",
"&X c #A1A2A2",
"*X c #A5A5A5",
"=X c #A2A3A4",
"-X c #A9A7A5",
";X c #AAAAAA",
":X c #ADACAB",
">X c #ACA8A3",
",X c #B0AFAF",
"<X c #B3ADA6",
"1X c #B9B3AD",
"2X c #BAB1A7",
"3X c #A9ADB0",
"4X c #AEB4BA",
"5X c #B2B2B1",
"6X c #B6B6B5",
"7X c #B6B4B3",
"8X c #B7B9BA",
"9X c #BEBCBB",
"0X c #BBBBBA",
"qX c #B6B5B5",
"wX c #C9A785",
"eX c #D9AF89",
"rX c #D5AC88",
"tX c #DFB086",
"yX c #DFB38D",
"uX c #C4AC94",
"iX c #C2AE9C",
"pX c #C8B29C",
"aX c #D5B499",
"sX c #E0B186",
"dX c #F8BA87",
"fX c #CBBBAC",
"gX c #C3B8AD",
"hX c #D9BCA4",
"jX c #C6BFB9",
"kX c #F9C395",
"lX c #C1C0BF",
"zX c #CCC3BA",
"xX c #D7C6B7",
"cX c #FAD0AD",
"vX c #B9C0C6",
"bX c #C4C3C3",
"nX c #CCCBCA",
"mX c #CDC8C3",
"MX c #D5CEC8",
"NX c #D5D0CB",
"BX c #D4D3D2",
"VX c #DBD6D1",
"CX c #DADBDD",
"ZX c #FBDBC2",
"AX c #FCE3CE",
"SX c #E1E0DD",
"DX c #FDEBDD",
"FX c #FCE5D4",
"GX c #E3E4E4",
"HX c #FDEEE1",
"JX c #FEF4EB",
"KX c #FDF0E4",
"LX c #FEF7F1",
"PX c #FEFAF5",
"IX c #FEFEFE",
"UX c #FDFBFA",
/* pixels */
"IXIXUXDXkXm.,.1.1.1.1.1.1.1.1.1.1.1.1.1.1.1.1.,.v.dXAXUXIXIX",
"IXJXI.3.%.O.O.O.O.O.O.O.O.O.O.O.O.O.O.O.O.O.O.O.O.%.<.K.HXIX",
"IXI.+.O.O.O.O.O.O.O.O.O.O.O.O.O.O.O...X.O.O.O.O.O.O.O.+.M.LX",
"FXc.O.&.&.&.&.&.&.&.&.&.&.&.&.X.+.-.c.3.O.&.&.&.&.&.&.&.<.cX",
"I.=.&.&.&.&.&.&.&.&.-.&.O.....z.H.sXfXaX3.O.&.&.&.&.&.&.&.m.",
"v.&.&.&.&.O.X.^ =.*.^ ..-.c.M.iXnX8XwXC.c.O.&.&.&.&.&.&.&.x.",
"2.&.&.&.O.2.G.L.sXyXJ.H.A.t.8.}.bX>XS.#.%.&.&.&.&.&.&.&.&.1.",
"1.%.%.%.+.x.uX4X3X4XlXE.1 @ O [.8X=X1XH.%.%.%.*.*.%.%.%.%.1.",
"1.$.$.o.#.G.iX+X@X=X*X<   . . XX8.2 5XeX@.%.$.+./ +.$.$.o.1.",
"1. . .o.l.OX{.7XE.!.;X< + % : E , 2 0XtX{ @.:.z.L.l. . . .1.",
"1. . .} k.w.w 6X].E.-XP a Y ! P e (.0XF.;.eXhXfX1XD.#.} } 1.",
"1.{ { } k.w.8 6XbXY. X.X0.0.XX^.~. X9XhXwX6XvX$Xf.;.@.{ { 1.",
"1.{ { | k.w.8 6XjX9 `.;X5XbX9XbX6X@X~.6 6 6X9X<XZ.[ | { | 1.",
"1.' ' ] j.e.8 6XoX5 [.:X=X=X}.5X&X@ o . < 7X'.'.gXn.] ' ' 1.",
"1.` ` ] j.e.8 8Xq.4 %X5X;X-X}.;X~.o X . = A.: 6 zXf.K ] ] 1.",
"1.` ` K p.e.7 8XpX; W Q.{.,X6 *X^.% * u i i 3 '.zXf.v ` K ,.",
",.H H G i.w.8 6XSXT U 9 E.nX'.`.+XT ~ ~ R W E.=XjXf.v H G 1.",
"1.G G G i.8.7 7XGXNX2Xq Y.nX*X0 @X/.r.e.^.'.`.|.fXf.v H G >.",
"1.J J v _ y.0 5XGXNXzX7.q nX.X0 }.!._.&X{.'.W L uXh.b J F 1.",
"1.F F F J f.OX$XyXg.A.Q R.mXL 0 *X!.^.lX#XI r y pXf.z F F 1.",
"1.A A A A A p.i.C c d.Q Y.mXp 5 !.E.W.9Xr.$ $ T xXs.z A c 1.",
"1.A A Z A A z x A Z N.Q Y.BXoX& - > ).0XL # p zXVXs.x A c 1.",
"1.C C C C C Z C C C N.Q R.BXVX9.t r , 6.U y.fXxXrX( x C x 1.",
"1.B B l B B B B B l N.Q T.BXGXCXzXuX4.5.V.D.h.( V l B B l 1.",
"x.N l l N N N N N k a..XE.nXMXaXrXC.g.) S j j h l N N N k >.",
"P.Z k k k k k k k k M a.u.B.a.m n f f f f M M M M k k k l z.",
"ZX;.s k k k k k k k g k S M f f g k k k k k k k k k k g D dX",
"PXK.g s s s s s s s s s d s s s s s s s s s s s s s s d l.JX",
"IXKXz.D s s s s s s s s s s s s s s s s s s s s s s V l.DXIX",
"IXIXLXkXx.>.>.>.>.>.>.>.>.>.>.>.>.>.>.>.>.>.>.>.>.x.U.JXIXIX"
};
