/* XPM */
static char *FB_PozoPluvial_A_R[] = {
/* columns rows colors chars-per-pixel */
"30 30 256 2 ",
"   c #161A1A",
".  c #1C1F1F",
"X  c #121314",
"o  c #210F0F",
"O  c #211313",
"+  c #1D3030",
"@  c #222525",
"#  c #292B2C",
"$  c #213B3B",
"%  c #373737",
"&  c #0E4343",
"*  c #2A4141",
"=  c #3C5F5F",
"-  c #127676",
";  c #544C4D",
":  c #5E5E5F",
">  c #585552",
",  c #4A4847",
"<  c #53537A",
"1  c #656567",
"2  c #636366",
"3  c #6A6A6A",
"4  c #666A68",
"5  c #6E7071",
"6  c #757474",
"7  c #787775",
"8  c #7A7875",
"9  c #7B7B7B",
"0  c #666677",
"q  c #89877C",
"w  c #38389B",
"e  c #2F619B",
"r  c #30619B",
"t  c #31629D",
"y  c #34649E",
"u  c #32649E",
"i  c #3566A1",
"p  c #3163A0",
"a  c #3868A1",
"s  c #3D6BA4",
"d  c #3E6CA5",
"f  c #3B6AA4",
"g  c #3D6BA9",
"h  c #3768A2",
"j  c #424383",
"k  c #545486",
"l  c #454599",
"z  c #5F5FB6",
"x  c #416FA7",
"c  c #416EAA",
"v  c #4371A9",
"b  c #4573AB",
"n  c #4774AC",
"m  c #4976AD",
"M  c #4975AA",
"N  c #527BAE",
"B  c #4E7BB1",
"V  c #4D7CB4",
"C  c #497DB9",
"Z  c #4C7FBB",
"A  c #4C7EBC",
"S  c #4A7EBB",
"D  c #4B75B2",
"F  c #517DB4",
"G  c #567FB6",
"H  c #0202EF",
"J  c #0000F3",
"K  c #0001FE",
"L  c #0404FC",
"P  c #090BFA",
"I  c #0F10FB",
"U  c #1819FB",
"Y  c #2323E5",
"T  c #2324FB",
"R  c #2A2BF8",
"E  c #3434F7",
"W  c #0C0DD2",
"Q  c #4545CC",
"!  c #4B4BD0",
"~  c #5B5BD7",
"^  c #5757EE",
"/  c #4F4FF8",
"(  c #5758F2",
")  c #696BE6",
"_  c #7977EE",
"`  c #6663FB",
"'  c #0B9494",
"]  c #0BAAAA",
"[  c #7F9E9E",
"{  c #4D80BB",
"}  c #4D80BC",
"|  c #4B80BC",
" . c #5481B6",
".. c #5082BD",
"X. c #5684BA",
"o. c #5A86BB",
"O. c #5C83BC",
"+. c #5E8ABE",
"@. c #7B8FA6",
"#. c #7F92A9",
"$. c #638AB8",
"%. c #6A90B1",
"&. c #7D94B1",
"*. c #7995BD",
"=. c #55BEBE",
"-. c #6DA6A6",
";. c #5A8AC2",
":. c #638DC1",
">. c #648DC3",
",. c #6187C1",
"<. c #6791C5",
"1. c #6690C3",
"2. c #6A92C5",
"3. c #6B93C6",
"4. c #6E97CA",
"5. c #6A95C9",
"6. c #6F98CC",
"7. c #719ACE",
"8. c #759CCD",
"9. c #789FCD",
"0. c #7596C5",
"q. c #769FD1",
"w. c #789FD2",
"e. c #77A0D2",
"r. c #7DA5D6",
"t. c #7AA2D4",
"y. c #7FA7D8",
"u. c #00C9C9",
"i. c #05D7D7",
"p. c #03E1E1",
"a. c #19EAEA",
"s. c #00FDFD",
"d. c #05F5F5",
"f. c #60C0C0",
"g. c #44F5F5",
"h. c #54CDCD",
"j. c #8C8D8D",
"k. c #838384",
"l. c #928F8D",
"z. c #97978C",
"x. c #8C8C97",
"c. c #959495",
"v. c #939393",
"b. c #999A9A",
"n. c #9E9E9F",
"m. c #A5A594",
"M. c #A1A19A",
"N. c #8295AC",
"B. c #8699AF",
"V. c #8B9EB3",
"C. c #869CB8",
"Z. c #9EA1A2",
"A. c #9DA5AC",
"S. c #8BA1BB",
"D. c #93A3BA",
"F. c #A1A1A1",
"G. c #A5A4A5",
"H. c #ABABAB",
"J. c #ADADAB",
"K. c #AEAEAE",
"L. c #AAAAAC",
"P. c #A8A7A8",
"I. c #B0AEAC",
"U. c #B2B1AE",
"Y. c #ABAFB2",
"T. c #ADB3B9",
"R. c #B2B2B2",
"E. c #B7B6B6",
"W. c #B3B6B9",
"Q. c #BDBCBC",
"!. c #B8B2B2",
"~. c #C2C29C",
"^. c #949DDB",
"/. c #83A6CE",
"(. c #93AAC8",
"). c #97B0CF",
"_. c #81A6D2",
"`. c #81A9D7",
"'. c #8DAED5",
"]. c #83AADA",
"[. c #84ABDB",
"{. c #87AEDD",
"}. c #87ADDA",
"|. c #88AFDE",
" X c #8CB2DD",
".X c #8FB0D6",
"XX c #93B1D6",
"oX c #93B4DC",
"OX c #99B7DB",
"+X c #9AB8DB",
"@X c #A8B6C7",
"#X c #BBBBC4",
"$X c #B3BBC3",
"%X c #ACBBD5",
"&X c #A3BDDB",
"*X c #A7B9D5",
"=X c #B4BAD9",
"-X c #8D8CE9",
";X c #8F91E6",
":X c #9B99EA",
">X c #A29FE7",
",X c #86AFE0",
"<X c #8DB3E1",
"1X c #8FB4E1",
"2X c #8BB2E3",
"3X c #92B6E2",
"4X c #93B7E3",
"5X c #94B8E3",
"6X c #95B9E5",
"7X c #9ABBE3",
"8X c #9EBDE3",
"9X c #A1BFE3",
"0X c #A2BFE4",
"qX c #B3B2E3",
"wX c #AAAAE3",
"eX c #B6C3CC",
"rX c #A6C1DF",
"tX c #B4C2D6",
"yX c #BAC5D4",
"uX c #BFCAD0",
"iX c #A7C1E2",
"pX c #A5C2E5",
"aX c #A9C3E3",
"sX c #ABC4E3",
"dX c #B6CBE5",
"fX c #B5CAE4",
"gX c #BCCEE3",
"hX c #C3C3C1",
"jX c #CCCAC6",
"kX c #CCCCCB",
"lX c #C9D1DB",
"zX c #CCD1D7",
"xX c #D6D5D4",
"cX c #D3D5DA",
"vX c #D4D8D8",
"bX c #DDDDDD",
"nX c #E3E3DB",
"mX c #EBEBDC",
"MX c #C3C1E6",
"NX c #D0CEE1",
"BX c #C9D6E4",
"VX c #DADAE7",
"CX c #D3D9ED",
"ZX c #E0DEE0",
"AX c #D5E1EE",
"SX c #DEE7F3",
"DX c #E2E3E3",
"FX c #ECECE7",
"GX c #E7E6E6",
"HX c #E4EBF4",
"JX c #E9EFF6",
"KX c #EEF2F8",
"LX c #F7F9FC",
"PX c #FFFFFF",
"IX c #F9FBFD",
"UX c #F2F6FA",
/* pixels */
"PXPXIXSX&X3.{ ................................{ >.XXCXLXPXPX",
"PXKXXX9..XaXdXfXdXdXdXdXdXdXdXdXdXdXdXdXdXdXfXdXsXOX_._.HXPX",
"IX'.'.fXsXaXaXaXaXaXaXaXaXaXaXaXaXaXaXaXaXaXaXiXaXsXfX+X8.UX",
"AX9.pX8X9X9X0X0X0X0X0X0X0X0X0X0X0XpX9X9X8X7X8XiXiX9X8XpX`.fX",
"'.}.7X7X7X7X7X7X7X7X7X7X7X7X7X7X7X7X7X8XrXdXgXlXlXiX7X7XoX<.",
";.1X4X3X4X4X4X5X5X5X3X4X5X5X4X3X1X<XoX@XzXxXhXW.E.%X6X3X5X..",
"A <X<X<X<X<X2X2X|.{.OXoX|.,X|.3X+XsX@XG.xXF.A.(.*.'.1X2X3X} ",
"} |.|.|.|.{.oX%XfXgXlXlX&X&XtXyXT.j.j.Z.vXJ.Y.sX2X,X|.{. X} ",
"{ [.[.[.[.[.).G.H.Q.F.U.vXR.7 > , # % F.kXK.R.R.*X}.].].{.| ",
"A `.`.`.r.r.OX@Xb.b.b.j.xX6 . X     # R.Q.4 c.I.$X Xr.`.].Z ",
"| r.r.t.r.(.T.W.K.L.R.c.xX2 . @ @ o $ g.h.& ; hXeX_.t.t.r.} ",
"Z e.e.q.y.D.q F.K.H.: 7 bX1 O O + - - p.u.* 9 kXyX9.q.q.t.{ ",
"A 8.8.7.t.S.6 9 G.jX3 6 bX1 ' i.i.d.d.] = 8 b.jXyX8.7.7.8.A ",
"Z 6.6.4.w.V.7 1 H.DXF.5 !.f.a.s.s.d.a.-.j.v.c.jXtX4.4.4.7.A ",
"Z 5.5.<.7.V.8 1 K.DXG.3 b.Z.v.=.=.[ v.c.c.v.v.jXtX3.5.3.5.Z ",
"S 1.1.:.4.B.8 1 J.DXF.4 b.n.v.l.v.c.v.v.z.v.Q :XuX>.>.1.<.S ",
"S :.:.$.3.B.7 2 J.CX~ < M.n.j.9 P.Q.M.v.x.Q K :XuX>.:.:.:.S ",
"S +.+.+.2.B.7 2 J.VXT j m.P.k.k.R.hX#Xz Y L P >XuX,.+.+.+.S ",
"S o.o.X.:.N.8 2 J.VXR w q m.z.6 K.#X) K L K E NX%XO.X.o.o.S ",
"C  . . .+.N.7 2 L.FX^ H l k k 4 P.#X( L K I ;XmX*XO. . . .C ",
"S F F B o.N.8 1 L.FX=XT K J J 0 ~.hXE K R -XmXGX%XX.V F F S ",
"C B B m  .#.8 1 J.GXnXwX( T U W ! ) E _ MXcX%X%X0.F B B B C ",
"C m m n G @.6 1 H.GXcXnXnXqXqX` / ) ^.eX(.*.F D v m m m m C ",
"C b b v n &.l.: L.GXnXZXZXvX@X(.S.%.$.c g g v b n b b b b C ",
"Z x x x d N D.9 P.BX@XC.$.G g g f h f x v v x x x x x x x C ",
"9.g s s s h m &.&.N v f p i s s s d d d s s s s s s s s f X.",
"BXV i a a a y x d u i a a a a a a a a a a a a a a a a a d XX",
"LX2.u t y y y t t y y y y y y y y y y y y y y y y y y t G KX",
"PXHXX.d r r r r r r r r r r r r r r r r r r r r e t i V SXPX",
"PXPXUXOX{ C C C C C C C C C C C C C C C C C C C C C /.JXPXPX"
};
