/* XPM */
static char *FB_PozoFecal_NR[] = {
/* columns rows colors chars-per-pixel */
"30 30 256 2 ",
"   c #14191C",
".  c #1C1A1A",
"X  c #161413",
"o  c #201E1E",
"O  c #39281E",
"+  c #2A2725",
"@  c #282625",
"#  c #362E28",
"$  c #3A3634",
"%  c #762F00",
"&  c #7B3500",
"*  c #7B3C02",
"=  c #743906",
"-  c #634230",
";  c #7A4E33",
":  c #695039",
">  c #464A4D",
",  c #5A4E47",
"<  c #4F5050",
"1  c #5F5F5F",
"2  c #50585E",
"3  c #635243",
"4  c #705B45",
"5  c #635D57",
"6  c #6E6154",
"7  c #666463",
"8  c #676565",
"9  c #656362",
"0  c #696765",
"q  c #676868",
"w  c #6A6A6B",
"e  c #6F6A66",
"r  c #706F6F",
"t  c #6E7276",
"y  c #747576",
"u  c #74777B",
"i  c #74787C",
"p  c #73787C",
"a  c #7B7B7B",
"s  c #803E00",
"d  c #84450A",
"f  c #8D521C",
"g  c #8A5625",
"h  c #925C28",
"j  c #8D583A",
"k  c #966534",
"l  c #A4623A",
"z  c #CE6E1D",
"x  c #CE6D1B",
"c  c #D36B14",
"v  c #D16F1D",
"b  c #D26E19",
"n  c #CF701F",
"m  c #D2701F",
"M  c #D5721E",
"N  c #D67019",
"B  c #DA751F",
"V  c #DC751D",
"C  c #D97016",
"Z  c #E37A1F",
"A  c #E0771E",
"S  c #CF762A",
"D  c #D27120",
"F  c #D57320",
"G  c #D67521",
"H  c #D67626",
"J  c #D97621",
"K  c #DA7622",
"L  c #DE7922",
"P  c #DB7925",
"I  c #DD7F2D",
"U  c #DA7C2C",
"Y  c #D77C2D",
"T  c #D77D31",
"R  c #E17A21",
"E  c #E37C22",
"W  c #E57D22",
"Q  c #E67F24",
"!  c #E97E21",
"~  c #E27F2C",
"^  c #8A6744",
"/  c #8E6C4B",
"(  c #8A755F",
")  c #997A5B",
"_  c #AB6841",
"`  c #B66E45",
"'  c #A5794E",
"]  c #A47E57",
"[  c #C87648",
"{  c #D47D4B",
"}  c #C87D52",
"|  c #FE891D",
" . c #DF802D",
".. c #CE813B",
"X. c #D68139",
"o. c #E98125",
"O. c #EE8425",
"+. c #ED8223",
"@. c #E4822D",
"#. c #EA862F",
"$. c #ED882F",
"%. c #F18626",
"&. c #F38522",
"*. c #F68927",
"=. c #FE8A21",
"-. c #F98A26",
";. c #FE8E26",
":. c #FC8B22",
">. c #F68A28",
",. c #F88B28",
"<. c #FA8D28",
"1. c #FE8F29",
"2. c #FB8F2E",
"3. c #F28728",
"4. c #FE902A",
"5. c #FF902C",
"6. c #FF9125",
"7. c #E68632",
"8. c #E88937",
"9. c #F38C30",
"0. c #F38F3E",
"q. c #F58F3D",
"w. c #F88F31",
"e. c #EB903E",
"r. c #F49137",
"t. c #FB9336",
"y. c #F5913E",
"u. c #F3903E",
"i. c #FA943B",
"p. c #B5895E",
"a. c #9B897F",
"s. c #AC8B6A",
"d. c #A3866A",
"f. c #B98F6A",
"g. c #BD916B",
"h. c #AC8A76",
"j. c #AF8F7D",
"k. c #B78F78",
"l. c #B19679",
"z. c #D98944",
"x. c #C4815C",
"c. c #D68F53",
"v. c #D99356",
"b. c #DB965A",
"n. c #ED8F41",
"m. c #EE934A",
"M. c #F39242",
"N. c #F39845",
"B. c #F69B4C",
"V. c #F69746",
"C. c #E39B59",
"Z. c #F79E56",
"A. c #EEA35F",
"S. c #F5A056",
"D. c #C2946C",
"F. c #C9976A",
"G. c #C7996E",
"H. c #C89870",
"J. c #D69B7A",
"K. c #D9A375",
"L. c #F5A867",
"P. c #E4AA74",
"I. c #F3AD70",
"U. c #F9B57D",
"Y. c #F2B27A",
"T. c #7C848C",
"R. c #838383",
"E. c #8D8C8B",
"W. c #82888C",
"Q. c #958F8B",
"!. c #898E93",
"~. c #929292",
"^. c #939495",
"/. c #959595",
"(. c #949393",
"). c #9A9997",
"_. c #9B9C9B",
"`. c #B09D8C",
"'. c #A19F9E",
"]. c #BCA58E",
"[. c #A2A19F",
"{. c #BFAF9D",
"}. c #9D9EA0",
"|. c #9DA2A5",
" X c #9FA6AB",
".X c #A1A1A1",
"XX c #A7A7A6",
"oX c #A6A4A3",
"OX c #ABAAAA",
"+X c #ADADAD",
"@X c #ABACAC",
"#X c #A3A9AD",
"$X c #B3ACA5",
"%X c #BAB1A9",
"&X c #B3B1AF",
"*X c #ACB1B6",
"=X c #B2B2B2",
"-X c #B3B5B6",
";X c #BDBDBB",
":X c #B7B7B7",
">X c #CBA889",
",X c #D3AB88",
"<X c #C1AE9D",
"1X c #C8AD93",
"2X c #D3B49B",
"3X c #DAB99B",
"4X c #E1B287",
"5X c #F5B987",
"6X c #F2BF90",
"7X c #C6B5A5",
"8X c #DABDA4",
"9X c #D7BDA4",
"0X c #C9BDB1",
"qX c #F9C395",
"wX c #DDC1A7",
"eX c #DDC5AE",
"rX c #CAC1B7",
"tX c #C1C1BF",
"yX c #DBCBBD",
"uX c #E3C4A9",
"iX c #FAD0AD",
"pX c #E1C8B1",
"aX c #AFB9C1",
"sX c #BFC7CE",
"dX c #C1C3C3",
"fX c #C5CBCD",
"gX c #CCCCCB",
"hX c #D2CBC3",
"jX c #DFD6CE",
"kX c #CACDD1",
"lX c #CED6DF",
"zX c #D6D5D4",
"xX c #DAD7D4",
"cX c #DDDDDD",
"vX c #FBDBC2",
"bX c #E1DDDA",
"nX c #E0DAD4",
"mX c #E7D6C8",
"MX c #DFE0DF",
"NX c #FCE3CE",
"BX c #E1E1DF",
"VX c #FCE9DA",
"CX c #DCDFE1",
"ZX c #DDE1E3",
"AX c #DFE6EB",
"SX c #E3E3E3",
"DX c #E9EBEC",
"FX c #E8E8E8",
"GX c #FDEEE1",
"HX c #FEF4EB",
"JX c #FDF0E4",
"KX c #E2EAF0",
"LX c #FEFAF5",
"PX c #FEFEFE",
"IX c #FDFBFA",
"UX c #FEF7F1",
/* pixels */
"PXPXIXVXqXZ.q.y.y.y.y.y.y.y.y.y.y.y.y.y.y.y.y.q.B.5XNXIXPXPX",
"PXHXU.i.<.;.;.;.;.;.;.;.;.;.;.;.;.;.;.;.;.;.;.;.;.<.t.L.GXPX",
"PXU.-.;.;.;.;.;.;.;.;.;.;.;.;.;.;.;.;.1.1.4.;.=.=.;.;.:.S.UX",
"NXV.;.1.1.1.1.1.1.1.1.1.1.1.1.1.1.1.1.;.=.| =.i.t.;.;.1.t.iX",
"U.2.1.1.1.1.1.1.1.1.1.1.1.1.1.1.1.1.1.t.B.I.Y.pXeXB.;.1.1.Z.",
"V.1.1.1.1.1.1.1.5.5.;.;.5.5.1.;.=.| r.,XyXlXsX:X-XP.5.1.1.M.",
"y.1.1.1.1.1.;.=.:.:.V.r.=.| -.t.B.I.,X XzX.X`.v...e.4.1.;.y.",
"y.<.<.<.<.;.N.P.5X6XpXpXI.A.4X3X<XE.E.'.xX+X$XY.6.=.<.<.-.y.",
"y.,.,.,.,.-.C.oX@X;X|.*XxX%Xu 2 > @ $ .XgX+X=X&XP.2.-.,.-.y.",
"y.>.>.>.*.*.S.1X_.).).E.zXy o X X . # =X;X0 (.*X7XN.&.>.*.y.",
"y.*.*.*.*.C.<X%X+XOX=X/.zX9 . @ @   # J.k.O < dX9X8.&.>.*.y.",
"u.%.%.&.w.G.T..X+XOX1 y cX8     + - - ` l $ a kXwX7.&.3.%.u.",
"y.%.%.&.9.D.t a XXgXw y cX8 ; _ ` [ [ j , a ).fXwX7.&.%.%.y.",
"y.O.O.+.9.D.u 8 OXSX.Xr -Xj.} { { } x.a.E.(.(.fX8X7.&.O.+.y.",
"y.+.o.! 9.D.i 8 +XSXoXq _.'.(.h.h.Q.(.(./.^.(.fX8X@.+.o.+.u.",
"u.o.o.! $.D.p 7 @XBX[.q _._.~.~.~./.~.~.^.~.^ {.eX@.! o.! q.",
"q.Q Q W #.D.u 9 +XnX) 5 }._.E.a XX;X}.^.Q.^ s {.eX .! Q W u.",
"u.W W Z #.g.p 7 +XbXh 3 |.oXR.R.=XdX;X( g * d 7XeXI Z Q W 0.",
"u.E E Z #.g.i 7 +XbXh : W.|.^.y +XtXs.& d & k zX8XI Z E R u.",
"u.R R A @.g.u 7 OXFX] * 4 6 6 q XX;X] * & d ].AX2XI A R R u.",
"u.L L V @.g.i 8 OXDXrXh % * * e aXtXk % g ].KXAX9XI V L V u.",
"u.L L V ~ g.i 8 @XSXZX7X] f f = / d.k l.hXjX8X3Xb.P J L B u.",
"u.J J B  .f.y 0 OXFXzXSXMX0XrXs.' p.>XuXK.v.Y G C B J J B u.",
"u.G G M J F.!.5 +XFXZXCXCXjX3X,XK.c.z.m c N B G G G G G M u.",
"M.F M F M T >Xa #XmX2XK.c.z.D m b c b M G F F F F M F M m 0.",
"I.K m m m b T H.F.X.S v c c m M m D D D m m m m m m m m M B.",
"vX8.z m m m x H G c v m D D m m m m m m m m m m m m m v P 5X",
"LXL.v z z z z x x n z z z z z z z z z z z z z z z z z x m.HX",
"PXJXm.U z z z z z z z z z z z z z z z z z z z z z z H n.VXPX",
"PXPXUXqXM.0.0.0.0.0.0.0.0.0.0.0.0.0.0.0.0.0.0.0.0.M.Y.HXPXPX"
};
