/* XPM */
static char * BotonOcultarListinInterfonos_xpm[] = {
"10 40 286 2",
"  	c None",
". 	c #677A8A",
"+ 	c #FDC355",
"@ 	c #FEC957",
"# 	c #FDC153",
"$ 	c #F29437",
"% 	c #FE9A2E",
"& 	c #FF9A2E",
"* 	c #FA9930",
"= 	c #E5882F",
"- 	c #EF8D2E",
"; 	c #FE992D",
"> 	c #ED9638",
", 	c #E29037",
"' 	c #E18228",
") 	c #FE992E",
"! 	c #D29958",
"~ 	c #DD8D36",
"{ 	c #EF8D2F",
"] 	c #FF9A2F",
"^ 	c #C2A681",
"/ 	c #DD8D37",
"( 	c #E18229",
"_ 	c #FE992F",
": 	c #F49835",
"< 	c #BCB6A5",
"[ 	c #DE8D37",
"} 	c #EF8C30",
"| 	c #FE9930",
"1 	c #FF9A30",
"2 	c #E9A75D",
"3 	c #BCB9AA",
"4 	c #DE8E39",
"5 	c #E8C495",
"6 	c #B6B3A4",
"7 	c #DF8F3A",
"8 	c #E1822A",
"9 	c #EE8B30",
"0 	c #FE9830",
"a 	c #F99733",
"b 	c #EADFC7",
"c 	c #B6B3A3",
"d 	c #E08F3B",
"e 	c #E0812A",
"f 	c #EE8B2F",
"g 	c #FE982F",
"h 	c #F1A656",
"i 	c #ECE9D7",
"j 	c #BDB9A8",
"k 	c #E1903B",
"l 	c #DF8029",
"m 	c #ED8A2F",
"n 	c #FE972F",
"o 	c #F3C694",
"p 	c #E7E3CF",
"q 	c #C5C2AF",
"r 	c #E2903C",
"s 	c #DF7F29",
"t 	c #EC892F",
"u 	c #FE952F",
"v 	c #FE962F",
"w 	c #FC952F",
"x 	c #F7E8D1",
"y 	c #E6E1CB",
"z 	c #CDCAB6",
"A 	c #E3903C",
"B 	c #DD7E29",
"C 	c #EB872F",
"D 	c #FE942E",
"E 	c #F6A04A",
"F 	c #FBF9EE",
"G 	c #EAE5CE",
"H 	c #D5D1BD",
"I 	c #E4903D",
"J 	c #DC7D29",
"K 	c #E9862E",
"L 	c #FE932E",
"M 	c #F5BF89",
"N 	c #FAF8E8",
"O 	c #F2EDD5",
"P 	c #DCD7C3",
"Q 	c #E5903D",
"R 	c #DB7C28",
"S 	c #E8852E",
"T 	c #FF922D",
"U 	c #FF922E",
"V 	c #FD912D",
"W 	c #F8E0C7",
"X 	c #FBF8E2",
"Y 	c #F9F4DB",
"Z 	c #E1DDC8",
"` 	c #E68F3E",
" .	c #D97B28",
"..	c #E6842E",
"+.	c #FF912D",
"@.	c #FF912E",
"#.	c #F8973E",
"$.	c #FDFBF5",
"%.	c #FEFAE1",
"&.	c #FDF9DF",
"*.	c #E6E2CC",
"=.	c #D87A28",
"-.	c #E5842D",
";.	c #FE902D",
">.	c #F7B577",
",.	c #FFFEF4",
"'.	c #FFFEE4",
").	c #FEFDE3",
"!.	c #EAE6CF",
"~.	c #E78F3E",
"{.	c #D67927",
"].	c #E3832D",
"^.	c #FE8F2C",
"/.	c #F8D7B8",
"(.	c #FFFFEE",
"_.	c #FFFFE6",
":.	c #FEFEE6",
"<.	c #ECE8D1",
"[.	c #D57927",
"}.	c #E2822D",
"|.	c #FD8E2C",
"1.	c #F89033",
"2.	c #FCF7F0",
"3.	c #FFFFEA",
"4.	c #FFFFE8",
"5.	c #FEFEE8",
"6.	c #EDEAD3",
"7.	c #E68E3E",
"8.	c #D37826",
"9.	c #E0812C",
"0.	c #FB8D2B",
"a.	c #F5AA65",
"b.	c #FFFFF9",
"c.	c #FFFFE9",
"d.	c #FEFEE9",
"e.	c #EEEBD4",
"f.	c #E48D3D",
"g.	c #D27626",
"h.	c #E0802C",
"i.	c #F98C2B",
"j.	c #EFAC6F",
"k.	c #FFFFF8",
"l.	c #FFFFEB",
"m.	c #EEEBD5",
"n.	c #E38C3D",
"o.	c #D17626",
"p.	c #DF7F2B",
"q.	c #F78A2B",
"r.	c #EA8A36",
"s.	c #FCFAF6",
"t.	c #E28B3D",
"u.	c #D07525",
"v.	c #DD7E2B",
"w.	c #F5882A",
"x.	c #F1862A",
"y.	c #F1D8C2",
"z.	c #FFFFE7",
"A.	c #FEFEE7",
"B.	c #E0893C",
"C.	c #CE7425",
"D.	c #DB7D2B",
"E.	c #F4872A",
"F.	c #F3872A",
"G.	c #E9B180",
"H.	c #FFFEE5",
"I.	c #FEFEE4",
"J.	c #EBE7D0",
"K.	c #DE883C",
"L.	c #CD7325",
"M.	c #DA7C2A",
"N.	c #F28629",
"O.	c #F2862A",
"P.	c #E58E42",
"Q.	c #FEFDF8",
"R.	c #FEFBE2",
"S.	c #E8E3CD",
"T.	c #DD873B",
"U.	c #CB7224",
"V.	c #D87B2A",
"W.	c #F08529",
"X.	c #F1852A",
"Y.	c #EA8229",
"Z.	c #F3E2D2",
"`.	c #FCF9E3",
" +	c #FAF5DC",
".+	c #E3DFC9",
"++	c #DB853B",
"@+	c #CA7124",
"#+	c #D67A29",
"$+	c #EF8428",
"%+	c #EE8428",
"&+	c #E8BA91",
"*+	c #FBF8E9",
"=+	c #F4EFD7",
"-+	c #DEDAC4",
";+	c #D98439",
">+	c #C87024",
",+	c #D57929",
"'+	c #ED8328",
")+	c #E0934D",
"!+	c #FCFAF0",
"~+	c #EDE8D0",
"{+	c #D7D3BF",
"]+	c #D78338",
"^+	c #C76F23",
"/+	c #D47829",
"(+	c #EC8227",
"_+	c #E27F29",
":+	c #F4EBDB",
"<+	c #E8E3CC",
"[+	c #D0CCB8",
"}+	c #D48137",
"|+	c #C56E23",
"1+	c #D27728",
"2+	c #E98127",
"3+	c #E78026",
"4+	c #E5C19D",
"5+	c #E8E5D0",
"6+	c #C8C4B1",
"7+	c #D17F35",
"8+	c #C46D23",
"9+	c #D07628",
"0+	c #E78027",
"a+	c #E88027",
"b+	c #E88026",
"c+	c #DA975A",
"d+	c #EDEADA",
"e+	c #BFBCAA",
"f+	c #CF7D34",
"g+	c #C26C23",
"h+	c #CF7528",
"i+	c #E67F26",
"j+	c #DA7C2B",
"k+	c #ECE5D2",
"l+	c #B9B5A4",
"m+	c #CD7B33",
"n+	c #C16B22",
"o+	c #CD7427",
"p+	c #E47D26",
"q+	c #E17C25",
"r+	c #DEC29F",
"s+	c #B8B5A5",
"t+	c #CA7932",
"u+	c #BF6A22",
"v+	c #CC7227",
"w+	c #E37C25",
"x+	c #D39861",
"y+	c #BFBBAC",
"z+	c #C87731",
"A+	c #BE6921",
"B+	c #CA7127",
"C+	c #E17B25",
"D+	c #D07A30",
"E+	c #C0BCAC",
"F+	c #C67530",
"G+	c #BC6821",
"H+	c #C87027",
"I+	c #DF7A25",
"J+	c #E07A25",
"K+	c #DB7724",
"L+	c #B8A389",
"M+	c #C4742F",
"N+	c #BB6721",
"O+	c #C77026",
"P+	c #DE7924",
"Q+	c #DD7924",
"R+	c #B9895B",
"S+	c #C3732E",
"T+	c #BA6620",
"U+	c #C56F26",
"V+	c #DC7824",
"W+	c #DD7824",
"X+	c #DD7823",
"Y+	c #C47734",
"Z+	c #C2732E",
"`+	c #B86520",
" @	c #C06F2C",
".@	c #D97623",
"+@	c #DA7723",
"@@	c #D47423",
"#@	c #CC7327",
"$@	c #B56929",
"%@	c #677A8B",
"&@	c #B87033",
"*@	c #B96D2E",
"=@	c #B36C30",
". + @ @ @ @ @ @ # . ",
"$ % % % % & % % * = ",
"- ; ; ; ; & ; > , ' ",
"- ) ) ) ) & ) ! ~ ' ",
"{ ) ) ) ) ] ) ^ / ( ",
"{ _ _ _ _ ] : < [ ( ",
"} | | | | 1 2 3 4 ( ",
"} | | | | | 5 6 7 8 ",
"9 0 | | | a b c d e ",
"f g g g g h i j k l ",
"m n n n n o p q r s ",
"t u v v w x y z A B ",
"C D D D E F G H I J ",
"K L L L M N O P Q R ",
"S T U V W X Y Z `  .",
"..+.@.#.$.%.&.*.` =.",
"-.;.;.>.,.'.).!.~.{.",
"].^.^./.(._.:.<.~.[.",
"}.|.1.2.3.4.5.6.7.8.",
"9.0.a.b.c.3.d.e.f.g.",
"h.i.j.k.c.l.d.m.n.o.",
"p.q.r.s.3.c.5.e.t.u.",
"v.w.x.y.(.z.A.6.B.C.",
"D.E.F.G.,.H.I.J.K.L.",
"M.N.O.P.Q.R.%.S.T.U.",
"V.W.X.Y.Z.`. +.+++@+",
"#+$+$+%+&+*+=+-+;+>+",
",+'+'+'+)+!+~+{+]+^+",
"/+(+(+(+_+:+<+[+}+|+",
"1+2+2+2+3+4+5+6+7+8+",
"9+0+a+a+b+c+d+e+f+g+",
"h+i+i+i+i+j+k+l+m+n+",
"o+p+p+p+p+q+r+s+t+u+",
"v+w+w+w+w+w+x+y+z+A+",
"B+C+C+C+C+C+D+E+F+G+",
"H+I+J+J+J+J+K+L+M+N+",
"O+P+P+P+P+P+Q+R+S+T+",
"U+V+W+W+W+W+X+Y+Z+`+",
" @.@+@+@+@+@+@@@#@$@",
"%@&@*@*@*@*@*@*@=@%@"};
