/* XPM */
static char * BotonOcultarHistorico_xpm[] = {
"40 10 175 2",
"  	c None",
". 	c #677A8A",
"+ 	c #FDC760",
"@ 	c #FDCC63",
"# 	c #FDC75F",
"$ 	c #677A8B",
"% 	c #F2953B",
"& 	c #FE9C31",
"* 	c #FE9B31",
"= 	c #FF9B31",
"- 	c #EB8A2E",
"; 	c #EE8A2F",
"> 	c #FE982F",
", 	c #FE9830",
"' 	c #FF9830",
") 	c #FCA245",
"! 	c #FCBF7E",
"~ 	c #FCB56A",
"{ 	c #FD9B38",
"] 	c #E78327",
"^ 	c #EA862D",
"/ 	c #FE932E",
"( 	c #FF932E",
"_ 	c #FE932F",
": 	c #FBA653",
"< 	c #FCC58F",
"[ 	c #FCE6D0",
"} 	c #FEFDF9",
"| 	c #FEFEF7",
"1 	c #FEFEF9",
"2 	c #FDF8F1",
"3 	c #FCDCBB",
"4 	c #FCBA7A",
"5 	c #FC9C40",
"6 	c #E37E26",
"7 	c #E4822C",
"8 	c #FD8F2C",
"9 	c #FE8F2C",
"0 	c #FC9030",
"a 	c #FAAA5F",
"b 	c #FBCC9F",
"c 	c #FCEEDF",
"d 	c #FEFEF8",
"e 	c #FFFEF2",
"f 	c #FFFFED",
"g 	c #FFFFE9",
"h 	c #FFFFEA",
"i 	c #FFFFEF",
"j 	c #FFFEF5",
"k 	c #FEFCF6",
"l 	c #FBE3CA",
"m 	c #FBC088",
"n 	c #FA9E49",
"o 	c #DD7B24",
"p 	c #DD7E2B",
"q 	c #F78A2B",
"r 	c #F48E35",
"s 	c #F2AB69",
"t 	c #F7D1AA",
"u 	c #FAF3E4",
"v 	c #FBFAEF",
"w 	c #FAF7E7",
"x 	c #FCF8E1",
"y 	c #FEFBE1",
"z 	c #FEFEE4",
"A 	c #FEFEE7",
"B 	c #FEFEE9",
"C 	c #FEFEEA",
"D 	c #FEFAE1",
"E 	c #FBF8E2",
"F 	c #FAF8E9",
"G 	c #FCFBF0",
"H 	c #F8E8D2",
"I 	c #F5C492",
"J 	c #F19E53",
"K 	c #F58B2E",
"L 	c #D67623",
"M 	c #D77A29",
"N 	c #F08528",
"O 	c #F18529",
"P 	c #F08529",
"Q 	c #E98C3A",
"R 	c #E7A96F",
"S 	c #ECCDA8",
"T 	c #EEE9D6",
"U 	c #EBE8D7",
"V 	c #E6E2CD",
"W 	c #E6E2CB",
"X 	c #ECE7D0",
"Y 	c #F4EFD7",
"Z 	c #FAF5DC",
"` 	c #FEFAE0",
" .	c #FEFEE6",
"..	c #FEFEE8",
"+.	c #FEFDE3",
"@.	c #FEF9E0",
"#.	c #F9F4DB",
"$.	c #F2EED5",
"%.	c #EBE6CE",
"&.	c #E8E4D0",
"*.	c #EDEAD8",
"=.	c #EBE0C7",
"-.	c #E9BF92",
";.	c #E59C59",
">.	c #EC8730",
",.	c #D07221",
"'.	c #D17627",
").	c #E88028",
"!.	c #D8853B",
"~.	c #C99563",
"{.	c #C1AB8F",
"].	c #BFBBAC",
"^.	c #BBB8A9",
"/.	c #B5B2A2",
"(.	c #B6B3A3",
"_.	c #BEBAA9",
":.	c #C6C2B0",
"<.	c #CECAB7",
"[.	c #D5D1BD",
"}.	c #DCD8C3",
"|.	c #E1DDC8",
"1.	c #E6E2CC",
"2.	c #E9E5CF",
"3.	c #EBE8D1",
"4.	c #ECE9D2",
"5.	c #EDEAD3",
"6.	c #EBE7D1",
"7.	c #E9E5CE",
"8.	c #E5E1CB",
"9.	c #E0DCC7",
"0.	c #DBD6C2",
"a.	c #D4D0BC",
"b.	c #CDC9B5",
"c.	c #C5C1AF",
"d.	c #BCB9A7",
"e.	c #B6B3A2",
"f.	c #B6B3A4",
"g.	c #BCB9AA",
"h.	c #BCB5A4",
"i.	c #C2A17E",
"j.	c #CB8D53",
"k.	c #DE8232",
"l.	c #E98027",
"m.	c #CA6E1F",
"n.	c #C7722C",
"o.	c #D17628",
"p.	c #B56B2C",
"q.	c #A9652A",
"r.	c #A8642A",
"s.	c #AA652B",
"t.	c #AB662C",
"u.	c #AC672D",
"v.	c #AD682E",
"w.	c #AE692E",
"x.	c #AE6A2F",
"y.	c #AF6B30",
"z.	c #B06C31",
"A.	c #B16C31",
"B.	c #B16D32",
"C.	c #B26D32",
"D.	c #B26E32",
"E.	c #B26E33",
"F.	c #B06C30",
"G.	c #AD692E",
"H.	c #AC682D",
"I.	c #AB672C",
"J.	c #AA662C",
"K.	c #A9642A",
"L.	c #AD672A",
"M.	c #BF712D",
"N.	c #DC7926",
"O.	c #BC6822",
"P.	c #BB7134",
"Q.	c #BC6F2F",
"R.	c #B76E30",
". + @ @ @ @ @ @ @ @ @ @ @ @ @ @ @ @ @ @ @ @ @ @ @ @ @ @ @ @ @ @ @ @ @ @ @ @ # $ ",
"% & * * * * * * * * * * = * * * * * * * * * * * * * * * * * * * * * * * * * & - ",
"; > , , , , , , , , , , ' , , , , , ) ! ~ { , , , , , , , , , , , , , , , , , ] ",
"^ / / / / / / / / / / / ( / _ : < [ } | 1 2 3 4 5 / / / / / / / / / / / / / / 6 ",
"7 8 9 9 9 9 9 9 9 9 9 0 a b c d e f g g g h i j k l m n 8 9 9 9 9 9 9 9 9 9 8 o ",
"p q q q q q q q r s t u v w x y z A B C C B A z D E F G H I J K q q q q q q q L ",
"M N O O P Q R S T U V W X Y Z ` z  ...B B .. .+.@.#.$.%.W &.*.=.-.;.>.O O O P ,.",
"'.).!.~.{.].^./.(._.:.<.[.}.|.1.2.3.4.5.5.4.6.7.8.9.0.a.b.c.d.e.f.g.h.i.j.k.l.m.",
"n.o.p.q.r.q.s.t.u.v.w.x.y.z.A.B.C.D.D.E.E.E.D.C.B.A.F.y.x.G.H.I.J.s.q.K.L.M.N.O.",
". P.Q.Q.Q.Q.Q.Q.Q.Q.Q.Q.Q.Q.Q.Q.Q.Q.Q.Q.Q.Q.Q.Q.Q.Q.Q.Q.Q.Q.Q.Q.Q.Q.Q.Q.Q.Q.R.. "};
