/* XPM */
static char * BotonEstadoCentralitasNormal_xpm[] = {
"30 30 241 2",
"  	c None",
". 	c #677A8D",
"+ 	c #E8E8E8",
"@ 	c #E7E7E7",
"# 	c #E2E2E2",
"$ 	c #D0D0D0",
"% 	c #F2F2F2",
"& 	c #FCFCFC",
"* 	c #FBFBFB",
"= 	c #EFEFEF",
"- 	c #C9C9C9",
"; 	c #B1B1B1",
"> 	c #CFCFCF",
", 	c #D6D6D6",
"' 	c #D8D8D8",
") 	c #D1D1D1",
"! 	c #C5C5C5",
"~ 	c #AAAAAA",
"{ 	c #A9A9A9",
"] 	c #AEAEAE",
"^ 	c #B0B0B0",
"/ 	c #ADADAD",
"( 	c #ACACAC",
"_ 	c #AFAFAF",
": 	c #A2A2A2",
"< 	c #838383",
"[ 	c #969696",
"} 	c #9A9A9A",
"| 	c #9C9C9C",
"1 	c #9B9B9B",
"2 	c #999999",
"3 	c #939393",
"4 	c #989898",
"5 	c #979797",
"6 	c #919191",
"7 	c #767676",
"8 	c #777777",
"9 	c #888888",
"0 	c #8D8D8D",
"a 	c #909090",
"b 	c #8E8E8E",
"c 	c #8F8F8F",
"d 	c #A3A3A3",
"e 	c #A1A1A1",
"f 	c #949494",
"g 	c #8B8B8B",
"h 	c #6B6B6B",
"i 	c #717171",
"j 	c #818181",
"k 	c #868686",
"l 	c #8A8A8A",
"m 	c #9F9F9F",
"n 	c #ABABAB",
"o 	c #A5A5A5",
"p 	c #898989",
"q 	c #848484",
"r 	c #7D7D7D",
"s 	c #666666",
"t 	c #6D6D6D",
"u 	c #828282",
"v 	c #858585",
"w 	c #9E9E9E",
"x 	c #A4A4A4",
"y 	c #A9A9AA",
"z 	c #BBBBBB",
"A 	c #DDDDDD",
"B 	c #808080",
"C 	c #797979",
"D 	c #636363",
"E 	c #6A6A6A",
"F 	c #7A7A7A",
"G 	c #7F7F7F",
"H 	c #959595",
"I 	c #929292",
"J 	c #B7B7B8",
"K 	c #B1B19B",
"L 	c #B7B789",
"M 	c #B6B6B1",
"N 	c #C3C3C4",
"O 	c #878787",
"P 	c #757575",
"Q 	c #606060",
"R 	c #686868",
"S 	c #7C7C7C",
"T 	c #9D9D9E",
"U 	c #B1B19C",
"V 	c #E4E423",
"W 	c #F6F60A",
"X 	c #CDCD4B",
"Y 	c #868685",
"Z 	c #737373",
"` 	c #5E5E5E",
" .	c #747474",
"..	c #9C9C9D",
"+.	c #C7C794",
"@.	c #FDFD03",
"#.	c #FEFE00",
"$.	c #E6E616",
"%.	c #A3A39F",
"&.	c #858584",
"*.	c #787878",
"=.	c #707070",
"-.	c #5C5C5C",
";.	c #727272",
">.	c #7B7B7B",
",.	c #B4B4AC",
"'.	c #DBDB4A",
").	c #F9F92D",
"!.	c #C4C471",
"~.	c #6E6E6E",
"{.	c #5A5A5A",
"].	c #616161",
"^.	c #6F6F6F",
"/.	c #CBCBCB",
"(.	c #BFBFBB",
"_.	c #C0C0B5",
":.	c #B6B6B5",
"<.	c #8F8F8E",
"[.	c #6C6C6C",
"}.	c #575757",
"|.	c #A0A0A0",
"1.	c #DEDEDE",
"2.	c #C7C7C7",
"3.	c #C6C6C7",
"4.	c #C4C4C4",
"5.	c #79797A",
"6.	c #696969",
"7.	c #555555",
"8.	c #A6A6A6",
"9.	c #A7A7A7",
"0.	c #C0C0C0",
"a.	c #9F9F9E",
"b.	c #C1C1C1",
"c.	c #BFBFBF",
"d.	c #BABABA",
"e.	c #DFDFDF",
"f.	c #828281",
"g.	c #676767",
"h.	c #545454",
"i.	c #595959",
"j.	c #BBBBBC",
"k.	c #AEAEA7",
"l.	c #B0B0A2",
"m.	c #B5B5B5",
"n.	c #C3C3C3",
"o.	c #C6C6C6",
"p.	c #AFAFAC",
"q.	c #AEAE9E",
"r.	c #B7B7B6",
"s.	c #80807F",
"t.	c #515151",
"u.	c #646464",
"v.	c #A7A797",
"w.	c #DEDE27",
"x.	c #EFEF0D",
"y.	c #BFBF67",
"z.	c #ADADAE",
"A.	c #A0A09F",
"B.	c #BEBEBE",
"C.	c #CCCCCC",
"D.	c #A9A9A3",
"E.	c #D4D439",
"F.	c #F0F00B",
"G.	c #C9C952",
"H.	c #AFAFB0",
"I.	c #7F7F7E",
"J.	c #4F4F4F",
"K.	c #565656",
"L.	c #626262",
"M.	c #9F9FA1",
"N.	c #CECE86",
"O.	c #DEDE1B",
"P.	c #A0A0A1",
"Q.	c #A1A1A0",
"R.	c #B8B8B8",
"S.	c #9D9D9D",
"T.	c #C3C39E",
"U.	c #FDFD09",
"V.	c #EEEE0E",
"W.	c #9F9F95",
"X.	c #7E7E7E",
"Y.	c #656565",
"Z.	c #5F5F5F",
"`.	c #4D4D4D",
" +	c #535353",
".+	c #B6B6A0",
"++	c #E7E72C",
"@+	c #FAFA1A",
"#+	c #C6C666",
"$+	c #90908F",
"%+	c #B6B6AD",
"&+	c #DCDC3C",
"*+	c #FCFC19",
"=+	c #D2D253",
"-+	c #B1B1B0",
";+	c #7D7D7C",
">+	c #5D5D5D",
",+	c #4B4B4B",
"'+	c #C2C2C3",
")+	c #C7C7BA",
"!+	c #CBCBB2",
"~+	c #CFCFD0",
"{+	c #737372",
"]+	c #CACACB",
"^+	c #C2C2BA",
"/+	c #CDCDB2",
"(+	c #B2B2AE",
"_+	c #7B7B7A",
":+	c #494949",
"<+	c #DBDBDB",
"[+	c #474747",
"}+	c #4C4C4C",
"|+	c #585858",
"1+	c #C2C2C2",
"2+	c #8C8C8C",
"3+	c #454545",
"4+	c #4A4A4A",
"5+	c #A8A8A8",
"6+	c #BCBCBC",
"7+	c #C8C8C8",
"8+	c #525252",
"9+	c #434343",
"0+	c #D2D2D2",
"a+	c #B7B7B7",
"b+	c #DCDCDC",
"c+	c #505050",
"d+	c #414141",
"e+	c #3E3E3E",
"f+	c #404040",
"g+	c #363636",
"h+	c #64778A",
"i+	c #444444",
"j+	c #5B5B5B",
"k+	c #4E4E4E",
"l+	c #484848",
"m+	c #3A3A3A",
"n+	c #424242",
"o+	c #343434",
"p+	c #677A8B",
"q+	c #323232",
"r+	c #67788B",
". . . . + @ @ @ @ @ @ @ @ @ @ @ @ @ @ @ @ @ @ @ @ # . . . . ",
". . $ % & & & & & & & & & & & & & & & & & & & & & * = - . . ",
". ; > , ' ' ' ' ' ' ' ' ' ' ' ' ' ' ' ' ' ' ' ' ' ' ) ! ~ . ",
". { ] ^ / ( ( ( ( ( ( ( ( ( ( ( ( ( ( ( ( ( ( ( ( ] _ ~ : . ",
"< [ } | 1 1 1 1 1 1 1 1 1 } 2 3 4 1 1 1 1 1 1 1 1 1 | 5 6 7 ",
"8 9 0 6 6 6 6 6 6 6 a b c } d : e f c 6 6 6 6 6 6 6 6 g < h ",
"i j k l l l l l l 9 l m ( _ _ ] n o d p l l l l l l l q r s ",
"t r u v k k k k k q 3 3 w x ~ y y z A p k k k k k k v B C D ",
"E F G u u u u u u j H H I 1 J K L M N O u u u u u u u r P Q ",
"R 8 S G B B B B B G H H H T U V W X ] Y B B B B B B G F Z ` ",
"s  .C r r r r r r r H H H ..+.@.#.$.%.&.r r r r r r r *.=.-.",
"D ;.7 F F F F >.S S 3 H H w ,.'.).!.J u S >.S F F F F P ~.{.",
"].^. .8 8 *.G c | } | 6 3 d /.(._.:.) <.} } } k F 8 8 ;.[.}.",
"` [.i 7 O w n ] _ _ ] |.f |.1.2.3.] 4.d _ _ _ x H 5. .^.6.7.",
"-.E ~.P f 3 x { 8.9.9.0., a.b.p u f c.m 9.9.8.d.e.f.;.t g.h.",
"i.g.h ;.5 H a w j.k.l.m.n.a.n.~ / ( o.H c.p.q.r.! s.~.6.D t.",
"}.u.6.i 4 H H e v.w.x.y.z.A.b.B.C.' ' 4 D.E.F.G.H.I.[.g.].J.",
"K.L.g.^.5 H f M.N.#.#.O.P.Q.e.A ) R.S.H T.U.#.V.W.X.E Y.Z.`.",
" +Q u.t 4 H H e .+++@+#+H.$+_ [ a a f } %+&+*+=+-+;+g.D >+,+",
"t.>+].h 4 H f ~ '+)+!+^ ~+{+R 6.6 H H S.]+^+/+(+$ _+u.Q {.:+",
"J.{.` E 5 H f ~ <+0.b.R.C.t L.Y.6 H H S.e.b.b.d./.F L.>+}.[+",
"}+|+-.g.4 H H { 1+H g 0 ! h Z.D 6 H H S./.} g 2+B.C Z.{.7.3+",
"4+7.i.s 4 H f 5+6+d { / /.6.-.Q 6 H H S.! : { ( 7+8 -.|+8+9+",
"[+8+K.D [ H f 5+z d.n.0+' g.i.>+a H H S.1+a+1+$ b+ .i.7.c+d+",
"3+J.h.i.8 c H { b+1., c.S.>+K.}.i g [ S.A 1.' 4.d u.K.8+`.e+",
"f+,+c+ +7.u.B 4 z } *.D }.h. + +h.].S c 6+e X.Y.i.h. +J.:+g+",
"h+i+4+J.t.t.7.Z.{.7.8+t.t.t.t.t.t.t.h.Z.j+7.8+t.t.c+k+l+d+h+",
". m+[+`.c+c+c+c+c+c+c+c+c+c+c+c+c+c+c+c+c+c+c+c+c+k+:+n+o+. ",
". p+m+l+k+k+k+k+k+k+k+k+k+k+k+k+k+k+k+k+k+k+k+k+k+}+n+q+r+. ",
". . . r+|+4+4+4+4+4+4+4+4+4+4+4+4+4+4+4+4+4+4+4+4+J.h+. . . "};
