/* XPM */
static char * BotonVerDetalles_xpm[] = {
"22 18 44 1",
" 	c None",
".	c #275674",
"+	c #677A8D",
"@	c #0C9A05",
"#	c #51CC32",
"$	c #59D13A",
"%	c #58D039",
"&	c #4ACE24",
"*	c #4DCF26",
"=	c #61D73A",
"-	c #65D93F",
";	c #7BE054",
">	c #7DE058",
",	c #8EE56C",
"'	c #0E9E06",
")	c #13A608",
"!	c #5DD13D",
"~	c #5FD33F",
"{	c #58D331",
"]	c #6DDB47",
"^	c #83E25F",
"/	c #9DEA7E",
"(	c #88E364",
"_	c #75DE4F",
":	c #5FD637",
"<	c #46CD21",
"[	c #7AD764",
"}	c #6AD749",
"|	c #59D533",
"1	c #6FDC49",
"2	c #85E361",
"3	c #94E673",
"4	c #8CE468",
"5	c #6BDA45",
"6	c #40C91B",
"7	c #49C82C",
"8	c #6CCE5E",
"9	c #7FE15B",
"0	c #68D941",
"a	c #4FD029",
"b	c #35C512",
"c	c #3DC124",
"d	c #85D875",
"e	c #7AD075",
"......................",
".........++++.........",
"........+@@@@+........",
"........+@#$@+........",
"........+@%&@+........",
"........+@*=@+........",
"....+++++@-;@+++++....",
"...+@@@@@@>,''''))+...",
"...+@!~{]^//(_:<[)+...",
"...+@}|123345{678)+...",
"...+@'''')90))))))+...",
"....+++++)5a)+++++....",
"........+)ab)+........",
"........+)bc)+........",
"........+)de)+........",
"........+))))+........",
".........++++.........",
"......................"};
