/* XPM */
static char * BotonMostrarHistorico_xpm[] = {
"40 10 187 2",
"  	c None",
". 	c #677A8A",
"+ 	c #FDC760",
"@ 	c #FDCC63",
"# 	c #FDC65F",
"$ 	c #677A8B",
"% 	c #F2953B",
"& 	c #FE9C31",
"* 	c #FE9B31",
"= 	c #FF9B31",
"- 	c #EB8A2E",
"; 	c #EE8A2F",
"> 	c #F09334",
", 	c #CF8F4B",
"' 	c #D3A167",
") 	c #E5B379",
"! 	c #EDBB80",
"~ 	c #F0BE84",
"{ 	c #F3C188",
"] 	c #F5C48B",
"^ 	c #F7C68F",
"/ 	c #F9C891",
"( 	c #FAC993",
"_ 	c #FBCA94",
": 	c #FCCA96",
"< 	c #FCCB96",
"[ 	c #FCCB97",
"} 	c #FDCC97",
"| 	c #FDCC98",
"1 	c #FCCA95",
"2 	c #F9C791",
"3 	c #F7C68E",
"4 	c #F5C38B",
"5 	c #F3C187",
"6 	c #F0BE83",
"7 	c #ECB97F",
"8 	c #E1AE74",
"9 	c #CB975D",
"0 	c #D58D41",
"a 	c #FB9630",
"b 	c #E78327",
"c 	c #EA862D",
"d 	c #F78E2D",
"e 	c #E2832A",
"f 	c #BD7530",
"g 	c #A2774C",
"h 	c #A08D74",
"i 	c #B0AC9C",
"j 	c #C7C4B3",
"k 	c #D6D3C1",
"l 	c #E1DECB",
"m 	c #EAE6D4",
"n 	c #F0EDDB",
"o 	c #F5F2E1",
"p 	c #F9F7E7",
"q 	c #FCFAEB",
"r 	c #FEFCEE",
"s 	c #FEFEF0",
"t 	c #FEFEF2",
"u 	c #FEFEF3",
"v 	c #FEFCED",
"w 	c #FCF9EA",
"x 	c #F8F6E6",
"y 	c #F4F1E0",
"z 	c #EFECDA",
"A 	c #E8E5D2",
"B 	c #DFDCC9",
"C 	c #D2CEBD",
"D 	c #BFBCAC",
"E 	c #A59E8E",
"F 	c #9B8061",
"G 	c #A7713D",
"H 	c #CE7A2B",
"I 	c #EE892B",
"J 	c #FD922E",
"K 	c #E37E26",
"L 	c #E4822C",
"M 	c #FD8F2C",
"N 	c #FE8F2C",
"O 	c #FC8E2C",
"P 	c #F58A2B",
"Q 	c #E27F27",
"R 	c #C6752C",
"S 	c #AB7847",
"T 	c #A78D6D",
"U 	c #B5AE9C",
"V 	c #CECAB6",
"W 	c #DEDAC4",
"X 	c #EBE6CF",
"Y 	c #F4EFD7",
"Z 	c #FAF5DC",
"` 	c #FEFAE1",
" .	c #FFFEE4",
"..	c #FFFFE7",
"+.	c #FFFFE8",
"@.	c #FFFFE9",
"#.	c #FFFFE6",
"$.	c #FFFDE3",
"%.	c #FEFAE0",
"&.	c #F9F4DB",
"*.	c #F2EED5",
"=.	c #E8E3CC",
"-.	c #D9D5C0",
";.	c #C4C0AD",
">.	c #A99F8A",
",.	c #A3805B",
"'.	c #B17238",
").	c #D47928",
"!.	c #ED8529",
"~.	c #FA8D2C",
"{.	c #DD7B24",
"].	c #DD7E2B",
"^.	c #F78A2B",
"/.	c #F6892B",
"(.	c #F1872A",
"_.	c #E27E27",
":.	c #CA7428",
"<.	c #B37842",
"[.	c #B3926E",
"}.	c #C5BBA4",
"|.	c #E0DCC6",
"1.	c #F2EED6",
"2.	c #FCF8DF",
"3.	c #FEFEE4",
"4.	c #FEFEE7",
"5.	c #FEFEE9",
"6.	c #FEFEEA",
"7.	c #FEFDE3",
"8.	c #ECE8D1",
"9.	c #D4CFBA",
"0.	c #B8A88E",
"a.	c #AD845A",
"b.	c #B97233",
"c.	c #D67725",
"d.	c #EB8329",
"e.	c #F5882A",
"f.	c #D67623",
"g.	c #D77A29",
"h.	c #F08528",
"i.	c #F18529",
"j.	c #F08529",
"k.	c #ED8328",
"l.	c #E27C26",
"m.	c #CC7225",
"n.	c #B9773B",
"o.	c #B89269",
"p.	c #CCBDA1",
"q.	c #E7E2CC",
"r.	c #F8F5DD",
"s.	c #FDFCE5",
"t.	c #FEFEE8",
"u.	c #FBFAE2",
"v.	c #F2EFD7",
"w.	c #D9D3BC",
"x.	c #BEA889",
"y.	c #B28253",
"z.	c #BE712E",
"A.	c #D77724",
"B.	c #E98027",
"C.	c #EF8428",
"D.	c #D07221",
"E.	c #D17627",
"F.	c #E98026",
"G.	c #E77F26",
"H.	c #DF7A25",
"I.	c #CC7122",
"J.	c #B6895C",
"K.	c #C9B596",
"L.	c #E2DDC6",
"M.	c #D4CCB4",
"N.	c #BCA07D",
"O.	c #B27B48",
"P.	c #C06E27",
"Q.	c #E47D26",
"R.	c #CA6E1F",
"S.	c #C6722C",
"T.	c #E17B25",
"U.	c #E27B25",
"V.	c #DB7824",
"W.	c #CB6F21",
"X.	c #BB6B28",
"Y.	c #C06B23",
"Z.	c #D47423",
"`.	c #BC6822",
" +	c #BA7134",
".+	c #BC7031",
"++	c #B66E31",
". + @ @ @ @ @ @ @ @ @ @ @ @ @ @ @ @ @ @ @ @ @ @ @ @ @ @ @ @ @ @ @ @ @ @ @ @ # $ ",
"% & * * * * * * * * * * = * * * * * * * * * * * * * * * * * * * * * * * * * & - ",
"; > , ' ) ! ~ { ] ^ / ( _ : < [ } | | | | | | } [ < 1 _ ( 2 3 4 5 6 7 8 9 0 a b ",
"c d e f g h i j k l m n o p q r s t u u u u t s v w x y z A B C D E F G H I J K ",
"L M N O P Q R S T U V W X Y Z `  ...+.@.@.+.#.$.%.&.*.=.-.;.>.,.'.).!.~.M N M {.",
"].^.^.^.^.^./.(._.:.<.[.}.|.1.2.3.4.5.6.6.5.4.7.Z 8.9.0.a.b.c.d.e.^.^.^.^.^.^.f.",
"g.h.i.i.i.i.i.i.i.j.k.l.m.n.o.p.q.r.s.5.t.u.v.w.x.y.z.A.B.C.i.i.i.i.i.i.i.i.j.D.",
"E.F.B.B.F.B.B.B.B.B.B.B.B.G.H.I.b.J.K.L.M.N.O.P.f.Q.F.B.B.B.B.B.B.B.B.B.B.B.B.R.",
"S.T.U.U.U.U.U.U.U.U.U.U.U.U.U.U.T.V.W.X.Y.Z.H.U.U.U.U.U.U.U.U.U.U.U.U.U.U.U.T.`.",
"$  +.+.+.+.+.+.+.+.+.+.+.+.+.+.+.+.+.+.+.+.+.+.+.+.+.+.+.+.+.+.+.+.+.+.+.+.+++$ "};
