/* XPM */
static char * BotonEstadoCentralitasNormalRollover_xpm[] = {
"30 30 195 2",
"  	c None",
". 	c #677A8D",
"+ 	c #E8E8E8",
"@ 	c #E7E7E7",
"# 	c #E2E2E2",
"$ 	c #D0D0D0",
"% 	c #F2F2F2",
"& 	c #FCFCFC",
"* 	c #FBFBFB",
"= 	c #EFEFEF",
"- 	c #C9C9C9",
"; 	c #B1B1B1",
"> 	c #CFCFCF",
", 	c #D6D6D6",
"' 	c #D8D8D8",
") 	c #D1D1D1",
"! 	c #C5C5C5",
"~ 	c #AAAAAA",
"{ 	c #A9A9A9",
"] 	c #AEAEAE",
"^ 	c #B0B0B0",
"/ 	c #ADADAD",
"( 	c #ACACAC",
"_ 	c #AFAFAF",
": 	c #A2A2A2",
"< 	c #838383",
"[ 	c #969696",
"} 	c #9A9A9A",
"| 	c #9C9C9C",
"1 	c #9B9B9B",
"2 	c #999999",
"3 	c #939393",
"4 	c #989898",
"5 	c #979797",
"6 	c #919191",
"7 	c #767676",
"8 	c #777777",
"9 	c #888888",
"0 	c #8D8D8D",
"a 	c #909090",
"b 	c #8E8E8E",
"c 	c #8F8F8F",
"d 	c #A3A3A3",
"e 	c #A1A1A1",
"f 	c #949494",
"g 	c #8B8B8B",
"h 	c #848484",
"i 	c #6B6B6B",
"j 	c #737373",
"k 	c #898989",
"l 	c #8A8A8A",
"m 	c #9F9F9F",
"n 	c #ABABAB",
"o 	c #A5A5A5",
"p 	c #8C8C8C",
"q 	c #878787",
"r 	c #7F7F7F",
"s 	c #686868",
"t 	c #727272",
"u 	c #9E9E9E",
"v 	c #A4A4A4",
"w 	c #A9A9AA",
"x 	c #BBBBBB",
"y 	c #DDDDDD",
"z 	c #8D8D8C",
"A 	c #868686",
"B 	c #7E7E7E",
"C 	c #676767",
"D 	c #747474",
"E 	c #959595",
"F 	c #929292",
"G 	c #B7B7B8",
"H 	c #B1B19B",
"I 	c #B7B789",
"J 	c #B6B6B1",
"K 	c #C3C3C4",
"L 	c #8E8E8D",
"M 	c #757575",
"N 	c #9D9D9E",
"O 	c #B1B19C",
"P 	c #E4E423",
"Q 	c #F6F60A",
"R 	c #CDCD4B",
"S 	c #90908F",
"T 	c #828282",
"U 	c #6A6A6A",
"V 	c #9C9C9D",
"W 	c #C7C794",
"X 	c #FEFE04",
"Y 	c #FEFE00",
"Z 	c #E6E616",
"` 	c #A3A39F",
" .	c #787878",
"..	c #B4B4AD",
"+.	c #DBDB4A",
"@.	c #F9F92E",
"#.	c #C4C471",
"$.	c #858585",
"%.	c #6D6D6D",
"&.	c #7A7A7A",
"*.	c #9D9D9D",
"=.	c #CBCBCB",
"-.	c #BFBFBB",
";.	c #C0C0B5",
">.	c #B6B6B6",
",.	c #949493",
"'.	c #6E6E6E",
").	c #7B7B7B",
"!.	c #A0A0A0",
"~.	c #DFDFDF",
"{.	c #C7C7C7",
"].	c #C6C6C7",
"^.	c #C4C4C4",
"/.	c #6F6F6F",
"(.	c #7D7D7D",
"_.	c #A6A6A6",
":.	c #A7A7A7",
"<.	c #C0C0C0",
"[.	c #9F9F9E",
"}.	c #C2C2C2",
"|.	c #BFBFBF",
"1.	c #BABABA",
"2.	c #979796",
"3.	c #717171",
"4.	c #BCBCBD",
"5.	c #AEAEA8",
"6.	c #B0B0A2",
"7.	c #B5B5B5",
"8.	c #C3C3C3",
"9.	c #C6C6C6",
"0.	c #AFAFAC",
"a.	c #AFAF9F",
"b.	c #B7B7B6",
"c.	c #808080",
"d.	c #A1A1A2",
"e.	c #A8A897",
"f.	c #DEDE27",
"g.	c #EFEF0D",
"h.	c #BFBF67",
"i.	c #ADADAE",
"j.	c #A0A09F",
"k.	c #C1C1C1",
"l.	c #BEBEBE",
"m.	c #CCCCCC",
"n.	c #A9A9A3",
"o.	c #D4D439",
"p.	c #F1F10B",
"q.	c #C9C952",
"r.	c #AFAFB0",
"s.	c #989897",
"t.	c #818181",
"u.	c #9F9FA1",
"v.	c #CFCF86",
"w.	c #DEDE1B",
"x.	c #A0A0A1",
"y.	c #A1A1A0",
"z.	c #B8B8B8",
"A.	c #C3C39E",
"B.	c #FEFE09",
"C.	c #EEEE0E",
"D.	c #9F9F95",
"E.	c #999998",
"F.	c #B6B6A1",
"G.	c #E7E72C",
"H.	c #FAFA1A",
"I.	c #C6C666",
"J.	c #939392",
"K.	c #B6B6AD",
"L.	c #DDDD3C",
"M.	c #FCFC19",
"N.	c #D2D253",
"O.	c #B1B1B0",
"P.	c #C2C2C4",
"Q.	c #C8C8BA",
"R.	c #CBCBB2",
"S.	c #CFCFD0",
"T.	c #CACACB",
"U.	c #C2C2BA",
"V.	c #CDCDB2",
"W.	c #B2B2AF",
"X.	c #DBDBDB",
"Y.	c #B9B9B9",
"Z.	c #C1C1C2",
"`.	c #797979",
" +	c #A8A8A8",
".+	c #BCBCBC",
"++	c #C8C8C8",
"@+	c #D3D3D3",
"#+	c #B7B7B7",
"$+	c #DCDCDC",
"%+	c #7C7C7C",
"&+	c #DEDEDE",
"*+	c #B3B3B3",
"=+	c #677A8C",
"-+	c #677A8A",
". . . . + @ @ @ @ @ @ @ @ @ @ @ @ @ @ @ @ @ @ @ @ # . . . . ",
". . $ % & & & & & & & & & & & & & & & & & & & & & * = - . . ",
". ; > , ' ' ' ' ' ' ' ' ' ' ' ' ' ' ' ' ' ' ' ' ' ' ) ! ~ . ",
". { ] ^ / ( ( ( ( ( ( ( ( ( ( ( ( ( ( ( ( ( ( ( ( ] _ ~ : . ",
"< [ } | 1 1 1 1 1 1 1 1 1 } 2 3 4 1 1 1 1 1 1 1 1 1 | 5 6 7 ",
"8 9 0 6 6 6 6 6 6 6 a b c } d : e f c 6 6 6 6 6 6 6 6 g h i ",
"j h k 0 0 0 0 0 0 g l m ( _ _ ] n o d g 0 0 0 0 0 0 p q r s ",
"t < 9 g p p p p p k 3 3 u v ~ w w x y z p p p p p p g A B C ",
"D h k 0 0 0 0 0 0 k E E F 1 G H I J K L 0 0 0 0 0 0 0 q r s ",
"M A g c c c c c c p E [ E N O P Q R ] S c c c c c c c k T U ",
"8 9 0 6 F F F F F b E [ E V W X Y Z ` 6 F F F F F F 6 p h i ",
" .l c 3 3 3 3 F 6 l 3 [ E u ..+.@.#.G 6 6 0 6 F 3 3 3 0 $.%.",
"&.g a E 3 c 0 5 m *.| 6 3 d =.-.;.>.) ,.*.u *.F 3 E f c q '.",
").0 F F 0 !.n ] _ _ ] !.f !.~.{.].] ^.d _ _ _ o 4 a [ a 9 /.",
"(.b 3 6 f f v { _.:.:.<., [.}.l T f |.m :.:._.1.~.2.5 F l 3.",
"B a [ 6 5 E a u 4.5.6.7.8.[.8.n / ( 9.[ |.0.a.b.! 2.2 3 g t ",
"c.F 4 3 4 [ E d.e.f.g.h.i.j.k.l.m.' ' 4 n.o.p.q.r.s.1 E 0 D ",
"t.3 2 f 5 E E u.v.Y Y w.x.y.~.y ) z.u [ A.B.Y C.D.E.| [ b M ",
"T E 1 E 4 [ E e F.G.H.I.r.J.z.o a a f } K.L.M.N.O.2 u 4 a 7 ",
"h [ | [ 4 [ E ~ P.Q.R.O.S.J.*.1 6 E E u T.U.V.W.$ } m 2 6 8 ",
"$.4 u 4 5 E f ~ X.<.k.Y.m.} : u 6 E E *.~.k.Z.1.=.| : 1 3  .",
"A 2 m 2 4 [ E { 8.E g 0 ! | v m 6 E E *.=.} g p l.u v *.f `.",
"9 1 e 1 4 [ E  +.+d { ] =.| _.e 6 E E *.! : { ( ++u o m [ ).",
"k *.d | [ [ f  +x 1.8.@+' *. +d 6 E E *.}.#+}.) $+u :.!.4 %+",
"l u v _.f 6 E { $+&+, }.n e { :.5 a [ *.y &+' 9._ u  +: 2 (.",
"$.*.d ~ { 2 a 1 8.^ m !._.~ n n ~ | a F ^.*+d m o ~ { e 4 3.",
"=+E m :.n n :.| :.~ n n n n n n n n  +| _.{ n n n ~ o 1 c -+",
". < } d :. + + + + + + + + + + + + + + + + + + + +_.u 3 7 . ",
". . t.4 !.: : : : : : : : : : : : : : : : : : : : m c j -+. ",
". . . . k $.$.$.$.$.$.$.$.h h h h h h h h h h h h < -+. . . "};
