/* XPM */
static char * BotonMostrarListinInterfonosRollover_xpm[] = {
"10 40 354 2",
"  	c None",
". 	c #677A8B",
"+ 	c #FEC557",
"@ 	c #FDCA5C",
"# 	c #FEC959",
"$ 	c #FEC957",
"% 	c #FDC155",
"& 	c #F5902B",
"* 	c #F89F3E",
"= 	c #E8A863",
"- 	c #F4A146",
"; 	c #FE9A2E",
"> 	c #FF9A2E",
", 	c #E48F3F",
"' 	c #F58C27",
") 	c #F09D44",
"! 	c #C29B6F",
"~ 	c #E7A259",
"{ 	c #FD9A30",
"] 	c #FE992D",
"^ 	c #DE8735",
"/ 	c #F48C27",
"( 	c #EF9C44",
"_ 	c #B49A79",
": 	c #DBA367",
"< 	c #F99B37",
"[ 	c #FE992E",
"} 	c #DE8736",
"| 	c #F48C28",
"1 	c #EF9C45",
"2 	c #B39B7D",
"3 	c #D1AB80",
"4 	c #F29E45",
"5 	c #FE9A2F",
"6 	c #DD8736",
"7 	c #F48C29",
"8 	c #AD9577",
"9 	c #D5BFA0",
"0 	c #E9A155",
"a 	c #FE9A30",
"b 	c #FE992F",
"c 	c #EF9C46",
"d 	c #AD9678",
"e 	c #D6CEBA",
"f 	c #DEA365",
"g 	c #FA9B36",
"h 	c #FE9930",
"i 	c #DD8737",
"j 	c #F48C2A",
"k 	c #EF9D47",
"l 	c #B1997B",
"m 	c #D9D6C5",
"n 	c #D8AD7E",
"o 	c #F49D43",
"p 	c #FE9A31",
"q 	c #DD8738",
"r 	c #F48D2C",
"s 	c #EF9E48",
"t 	c #B59D7E",
"u 	c #D2CEBC",
"v 	c #E2C9A8",
"w 	c #EBA255",
"x 	c #FE9B33",
"y 	c #FE9B32",
"z 	c #DD8839",
"A 	c #F48F2D",
"B 	c #EF9F49",
"C 	c #B9A182",
"D 	c #CECAB7",
"E 	c #EEE4D0",
"F 	c #E2A564",
"G 	c #FB9E39",
"H 	c #FE9D34",
"I 	c #FE9C34",
"J 	c #DD893A",
"K 	c #F4902F",
"L 	c #EFA14A",
"M 	c #BDA686",
"N 	c #D2CEBA",
"O 	c #F5F3E5",
"P 	c #DCAF7C",
"Q 	c #F6A144",
"R 	c #FE9F35",
"S 	c #FE9E35",
"T 	c #DD8B3B",
"U 	c #F49230",
"V 	c #EFA34C",
"W 	c #C1AA89",
"X 	c #DBD6C1",
"Y 	c #F2EFDE",
"Z 	c #E5CAA9",
"` 	c #EDA554",
" .	c #FEA137",
"..	c #FEA037",
"+.	c #DD8C3D",
"@.	c #F49432",
"#.	c #EFA54D",
"$.	c #C4AE8D",
"%.	c #E3DEC8",
"&.	c #F0ECD6",
"*.	c #F1E6D5",
"=.	c #E4A964",
"-.	c #FCA43C",
";.	c #FEA338",
">.	c #DD8D3E",
",.	c #F49634",
"'.	c #EFA64E",
").	c #C8B290",
"!.	c #EBE6CF",
"~.	c #F3EED6",
"{.	c #FCFBF3",
"].	c #DEB179",
"^.	c #F8A646",
"/.	c #FEA43A",
"(.	c #DD8F40",
"_.	c #F49736",
":.	c #F0A750",
"<.	c #CAB593",
"[.	c #F1ECD5",
"}.	c #F9F4DB",
"|.	c #FDFCF1",
"1.	c #E4C8A4",
"2.	c #EFA955",
"3.	c #FEA63D",
"4.	c #DD9041",
"5.	c #F49937",
"6.	c #EFA952",
"7.	c #CDB896",
"8.	c #F6F1D9",
"9.	c #FDF9E0",
"0.	c #FEFCEA",
"a.	c #EFE2CF",
"b.	c #E6AD65",
"c.	c #FDA840",
"d.	c #DD9143",
"e.	c #F49B39",
"f.	c #EFAB54",
"g.	c #CFBA98",
"h.	c #F9F6DD",
"i.	c #FFFDE3",
"j.	c #FFFEE5",
"k.	c #FBF9F4",
"l.	c #DEB076",
"m.	c #F9AA49",
"n.	c #DD9344",
"o.	c #F49D3B",
"p.	c #EFAC56",
"q.	c #D0BC9A",
"r.	c #FAF8DF",
"s.	c #FFFFE6",
"t.	c #FEFEF8",
"u.	c #E2C49C",
"v.	c #F2AD56",
"w.	c #DD9446",
"x.	c #F49F3D",
"y.	c #EFAE58",
"z.	c #D1BD9B",
"A.	c #FBF9E1",
"B.	c #FFFFE8",
"C.	c #FEFEF2",
"D.	c #EDDDC7",
"E.	c #E9B066",
"F.	c #DC9648",
"G.	c #F4A13F",
"H.	c #EFB059",
"I.	c #D2BE9C",
"J.	c #FBFAE2",
"K.	c #FFFFE9",
"L.	c #FFFFEA",
"M.	c #FEFEEC",
"N.	c #F9F5EF",
"O.	c #E0B274",
"P.	c #D9984E",
"Q.	c #F4A341",
"R.	c #EFB15B",
"S.	c #D2BF9D",
"T.	c #FCFAE3",
"U.	c #FFFFEB",
"V.	c #FEFEEB",
"W.	c #FAF8F3",
"X.	c #DBB075",
"Y.	c #D8994F",
"Z.	c #F5A543",
"`.	c #EFB35C",
" +	c #FCFAE2",
".+	c #FEFEF1",
"++	c #EBE0CD",
"@+	c #E2B068",
"#+	c #DB9A4C",
"$+	c #F5A744",
"%+	c #EFB45D",
"&+	c #D1BF9C",
"*+	c #FFFFE7",
"=+	c #FEFEF7",
"-+	c #DFC8A5",
";+	c #ECB25D",
">+	c #DD9C4D",
",+	c #F5A946",
"'+	c #EFB65F",
")+	c #D0BE9C",
"!+	c #FAF7DE",
"~+	c #FFFEE4",
"{+	c #FFFEE6",
"]+	c #FCFBF7",
"^+	c #D8B57E",
"/+	c #F5B454",
"(+	c #DD9E4E",
"_+	c #F4AA48",
":+	c #EFB861",
"<+	c #CEBD9B",
"[+	c #F8F3DB",
"}+	c #FEFAE1",
"|+	c #FEFCE9",
"1+	c #EFE7D8",
"2+	c #DFB470",
"3+	c #FBB851",
"4+	c #DD9F50",
"5+	c #F4AC4A",
"6+	c #EFB962",
"7+	c #CBBB99",
"8+	c #FAF6DC",
"9+	c #FEFCEF",
"0+	c #E1CFAF",
"a+	c #E9B664",
"b+	c #FEBB52",
"c+	c #DDA051",
"d+	c #F4AE4C",
"e+	c #EFBB64",
"f+	c #C9B997",
"g+	c #EDE8D1",
"h+	c #F5F0D8",
"i+	c #FDFCF3",
"j+	c #D9BB88",
"k+	c #F3BA5C",
"l+	c #FEBE54",
"m+	c #DDA253",
"n+	c #F4B04E",
"o+	c #EFBD66",
"p+	c #C6B695",
"q+	c #E6E1CB",
"r+	c #F1EDD6",
"s+	c #F1ECDD",
"t+	c #DDB776",
"u+	c #FABE58",
"v+	c #FEC056",
"w+	c #DDA355",
"x+	c #F4B24F",
"y+	c #EFBE67",
"z+	c #C2B392",
"A+	c #DDD9C3",
"B+	c #F1EEDB",
"C+	c #E3D4B6",
"D+	c #E7BB6C",
"E+	c #FDC258",
"F+	c #FEC258",
"G+	c #DDA556",
"H+	c #F4B451",
"I+	c #EFC069",
"J+	c #BEB08F",
"K+	c #D5D1BC",
"L+	c #F5F2E3",
"M+	c #D7BF8F",
"N+	c #F0BF63",
"O+	c #FEC55B",
"P+	c #FEC45A",
"Q+	c #DDA757",
"R+	c #F4B552",
"S+	c #EFC16A",
"T+	c #BAAC8C",
"U+	c #CFCBB7",
"V+	c #EDE8D4",
"W+	c #DAB97B",
"X+	c #F8C35F",
"Y+	c #FEC75D",
"Z+	c #FEC65C",
"`+	c #DDA858",
" @	c #F4B755",
".@	c #EFC36C",
"+@	c #B6A889",
"@@	c #D0CDBA",
"#@	c #DFD3B4",
"$@	c #E5BE73",
"%@	c #FCC75F",
"&@	c #FEC95F",
"*@	c #FEC85E",
"=@	c #DDAA5A",
"-@	c #F4B956",
";@	c #EFC56E",
">@	c #B2A586",
",@	c #D7D3C2",
"'@	c #D2BF93",
")@	c #EFC36A",
"!@	c #FECA61",
"~@	c #FECB61",
"{@	c #FECA60",
"]@	c #DDAB5C",
"^@	c #F4BB58",
"/@	c #EFC66F",
"(@	c #AEA283",
"_@	c #D3CFBC",
":@	c #D7BC81",
"<@	c #F7C866",
"[@	c #FECC63",
"}@	c #FECB62",
"|@	c #DDAC5D",
"1@	c #F4BC5A",
"2@	c #EFC771",
"3@	c #ACA082",
"4@	c #CEC4A9",
"5@	c #E2C17A",
"6@	c #FCCC65",
"7@	c #FECE65",
"8@	c #FECD64",
"9@	c #DDAD5F",
"0@	c #F4BE5C",
"a@	c #EFC972",
"b@	c #B1A587",
"c@	c #CBBB94",
"d@	c #ECC772",
"e@	c #FECF66",
"f@	c #FED066",
"g@	c #DDAF60",
"h@	c #F4BF5D",
"i@	c #EFCB74",
"j@	c #B3A788",
"k@	c #D2BB85",
"l@	c #F5CC6B",
"m@	c #FED268",
"n@	c #FED168",
"o@	c #DDB061",
"p@	c #F3C15F",
"q@	c #EFCD75",
"r@	c #B9AA83",
"s@	c #DFC47F",
"t@	c #FBD26A",
"u@	c #FFD56A",
"v@	c #FED56A",
"w@	c #FED369",
"x@	c #DDB262",
"y@	c #ECBD60",
"z@	c #F2CE72",
"A@	c #D6C083",
"B@	c #EACA76",
"C@	c #FED56C",
"D@	c #FFD66C",
"E@	c #FED66C",
"F@	c #FED46A",
"G@	c #D7B168",
"H@	c #677A8D",
"I@	c #DCB669",
"J@	c #D8B268",
"K@	c #DDB667",
"L@	c #E1B967",
"M@	c #D7B167",
". + @ # $ $ $ $ % . ",
"& * = - ; > ; ; ; , ",
"' ) ! ~ { > ] ] ] ^ ",
"/ ( _ : < > [ [ [ } ",
"| 1 2 3 4 5 [ [ [ 6 ",
"7 1 8 9 0 a b b b 6 ",
"7 c d e f g h h b i ",
"j k l m n o p p h q ",
"r s t u v w x y y z ",
"A B C D E F G H I J ",
"K L M N O P Q R S T ",
"U V W X Y Z `  ...+.",
"@.#.$.%.&.*.=.-.;.>.",
",.'.).!.~.{.].^./.(.",
"_.:.<.[.}.|.1.2.3.4.",
"5.6.7.8.9.0.a.b.c.d.",
"e.f.g.h.i.j.k.l.m.n.",
"o.p.q.r.s.s.t.u.v.w.",
"x.y.z.A.B.B.C.D.E.F.",
"G.H.I.J.K.L.M.N.O.P.",
"Q.R.S.T.K.U.V.W.X.Y.",
"Z.`.S. +K.K..+++@+#+",
"$+%+&+A.*+*+=+-+;+>+",
",+'+)+!+~+{+]+^+/+(+",
"_+:+<+[+}+|+1+2+3+4+",
"5+6+7+~.8+9+0+a+b+c+",
"d+e+f+g+h+i+j+k+l+m+",
"n+o+p+q+r+s+t+u+v+w+",
"x+y+z+A+B+C+D+E+F+G+",
"H+I+J+K+L+M+N+O+P+Q+",
"R+S+T+U+V+W+X+Y+Z+`+",
" @.@+@@@#@$@%@&@*@=@",
"-@;@>@,@'@)@!@~@{@]@",
"^@/@(@_@:@<@[@[@}@|@",
"1@2@3@4@5@6@7@7@8@9@",
"0@a@b@c@d@e@f@f@e@g@",
"h@i@j@k@l@m@m@m@n@o@",
"p@q@r@s@t@u@v@v@w@x@",
"y@z@A@B@C@D@E@E@F@G@",
"H@I@J@K@L@L@L@L@M@H@"};
