/* XPM */
static char * BotonMostrarListin_xpm[] = {
"10 40 288 2",
"  	c None",
". 	c #FDC760",
"+ 	c #FECD62",
"@ 	c #FDC65F",
"# 	c #F1953A",
"$ 	c #FE9C2F",
"% 	c #FB9A30",
"& 	c #FE9B2F",
"* 	c #FF9B2F",
"= 	c #FF9C2F",
"- 	c #E98B2F",
"; 	c #EE8E32",
"> 	c #FE992D",
", 	c #D58E3F",
"' 	c #FD992D",
") 	c #FF9A2E",
"! 	c #FF992D",
"~ 	c #E58225",
"{ 	c #FE992E",
"] 	c #C28C4F",
"^ 	c #F09A3D",
"/ 	c #FF992E",
"( 	c #BE894E",
"_ 	c #E3AA69",
": 	c #FF9A2F",
"< 	c #E48226",
"[ 	c #EE8D33",
"} 	c #FE992F",
"| 	c #BC884C",
"1 	c #D7BC97",
"2 	c #FF992F",
"3 	c #D3CDBA",
"4 	c #F69A39",
"5 	c #FE9930",
"6 	c #FF9930",
"7 	c #E48227",
"8 	c #EE8D34",
"9 	c #C18C51",
"0 	c #D0CDBC",
"a 	c #EFAF67",
"b 	c #FF9931",
"c 	c #ED8C34",
"d 	c #FE9830",
"e 	c #C48E53",
"f 	c #C9C5B4",
"g 	c #F1CEA2",
"h 	c #E48127",
"i 	c #EC8C33",
"j 	c #FE972F",
"k 	c #C69155",
"l 	c #C9C5B2",
"m 	c #F2EBD7",
"n 	c #FA9834",
"o 	c #FE982F",
"p 	c #FF982F",
"q 	c #E38027",
"r 	c #EC8B33",
"s 	c #C99358",
"t 	c #D0CCB8",
"u 	c #F2F0E1",
"v 	c #F6AC5E",
"w 	c #FF972F",
"x 	c #E27F27",
"y 	c #EA8A33",
"z 	c #FE952E",
"A 	c #CC955A",
"B 	c #D8D4BF",
"C 	c #EEEBD7",
"D 	c #F7CDA0",
"E 	c #FE962F",
"F 	c #FF962F",
"G 	c #E07E26",
"H 	c #E98932",
"I 	c #FE942E",
"J 	c #CF975C",
"K 	c #E0DCC6",
"L 	c #EEE9D2",
"M 	c #FAEEDC",
"N 	c #FC9530",
"O 	c #FF942F",
"P 	c #FF942E",
"Q 	c #DF7D25",
"R 	c #E88732",
"S 	c #FE932E",
"T 	c #D1995E",
"U 	c #E8E3CD",
"V 	c #F2EED5",
"W 	c #FDFCF3",
"X 	c #F9A553",
"Y 	c #FF932E",
"Z 	c #DE7C25",
"` 	c #E68631",
" .	c #FE922D",
"..	c #D39A5F",
"+.	c #F9F4DB",
"@.	c #FDFBEC",
"#.	c #F9C592",
"$.	c #FF922D",
"%.	c #DC7B24",
"&.	c #E58531",
"*.	c #FE912D",
"=.	c #D59B61",
"-.	c #F3EED7",
";.	c #FEF9E0",
">.	c #FEFBE6",
",.	c #FAE7D3",
"'.	c #FD912E",
").	c #FF912D",
"!.	c #DB7A24",
"~.	c #E48531",
"{.	c #FE902D",
"].	c #D69C61",
"^.	c #F6F2DA",
"/.	c #FFFDE3",
"(.	c #FFFEE4",
"_.	c #FEFDF8",
":.	c #FB9C45",
"<.	c #D97923",
"[.	c #E28430",
"}.	c #FE8F2C",
"|.	c #D79D62",
"1.	c #F8F5DD",
"2.	c #FFFFE6",
"3.	c #FEFEE6",
"4.	c #FEFEF5",
"5.	c #FABC84",
"6.	c #D87823",
"7.	c #E18330",
"8.	c #FC8E2C",
"9.	c #D79D63",
"0.	c #F9F6DF",
"a.	c #FFFFE8",
"b.	c #FEFEE8",
"c.	c #FEFEEF",
"d.	c #FADEC3",
"e.	c #D67723",
"f.	c #DF8230",
"g.	c #FB8D2B",
"h.	c #D69C62",
"i.	c #FAF7E0",
"j.	c #FFFFE9",
"k.	c #FEFEEA",
"l.	c #FDFBF6",
"m.	c #F89339",
"n.	c #D57623",
"o.	c #DF8130",
"p.	c #F98B2B",
"q.	c #FEFEEB",
"r.	c #F18F39",
"s.	c #D47523",
"t.	c #DD802F",
"u.	c #F78A2A",
"v.	c #D49B62",
"w.	c #FFFFEF",
"x.	c #F2DBC5",
"y.	c #F3882A",
"z.	c #D37522",
"A.	c #DB7F2F",
"B.	c #F5882A",
"C.	c #D39961",
"D.	c #F9F6DE",
"E.	c #FFFFE7",
"F.	c #FEFEE7",
"G.	c #ECB483",
"H.	c #D17422",
"I.	c #DA7E2F",
"J.	c #F3872A",
"K.	c #D19860",
"L.	c #F7F4DB",
"M.	c #FEFEE5",
"N.	c #E89043",
"O.	c #F4872A",
"P.	c #CF7221",
"Q.	c #D87D2E",
"R.	c #F28629",
"S.	c #CF965F",
"T.	c #F4F0D8",
"U.	c #FEFAE0",
"V.	c #FEFCE6",
"W.	c #F4E4D3",
"X.	c #ED8329",
"Y.	c #CE7121",
"Z.	c #D77C2E",
"`.	c #F08529",
" +	c #CC945D",
".+	c #EFEBD3",
"++	c #FAF5DC",
"@+	c #EABB91",
"#+	c #CC7021",
"$+	c #D57C2D",
"%+	c #EE8428",
"&+	c #CA915B",
"*+	c #E9E5CE",
"=+	c #F4EFD7",
"-+	c #FDFCF2",
";+	c #E4954F",
">+	c #EF8428",
",+	c #CB7020",
"'+	c #D47B2D",
")+	c #ED8327",
"!+	c #C68F59",
"~+	c #E2DDC7",
"{+	c #EFEAD3",
"]+	c #F5EBDC",
"^+	c #E58029",
"/+	c #ED8328",
"(+	c #C96F20",
"_+	c #D27A2D",
":+	c #EB8227",
"<+	c #C38B56",
"[+	c #DAD6C0",
"}+	c #EEEBD6",
"|+	c #E8C29D",
"1+	c #EA8127",
"2+	c #C86E20",
"3+	c #D1782C",
"4+	c #E98127",
"5+	c #BF8853",
"6+	c #D1CDB9",
"7+	c #F2EFDF",
"8+	c #DD9859",
"9+	c #C66C1F",
"0+	c #CF772C",
"a+	c #E78026",
"b+	c #BB8551",
"c+	c #C9C6B3",
"d+	c #EEE8D4",
"e+	c #DD7E2C",
"f+	c #E88026",
"g+	c #E78027",
"h+	c #C56B1F",
"i+	c #CE762B",
"j+	c #E57E26",
"k+	c #B7814E",
"l+	c #C9C5B3",
"m+	c #E1C29D",
"n+	c #E37D25",
"o+	c #E67E26",
"p+	c #C36A1E",
"q+	c #CC752B",
"r+	c #E47D25",
"s+	c #B47E4C",
"t+	c #CFCBBA",
"u+	c #D59960",
"v+	c #E47D26",
"w+	c #C1691E",
"x+	c #CB742B",
"y+	c #E27C25",
"z+	c #B07B49",
"A+	c #CFC9B8",
"B+	c #D47C2F",
"C+	c #E37C25",
"D+	c #C0681E",
"E+	c #C9732B",
"F+	c #E17A24",
"G+	c #AD7847",
"H+	c #C7B092",
"I+	c #DD7924",
"J+	c #E17B24",
"K+	c #E17B25",
"L+	c #BF671D",
"M+	c #C8722A",
"N+	c #DF7A24",
"O+	c #AD7848",
"P+	c #C89463",
"Q+	c #BD661D",
"R+	c #C67129",
"S+	c #DD7923",
"T+	c #B07B4A",
"U+	c #CA7A34",
"V+	c #DE7924",
"W+	c #BC651C",
"X+	c #C47029",
"Y+	c #DC7823",
"Z+	c #B47238",
"`+	c #D77523",
" @	c #DC7824",
".@	c #BA641C",
"+@	c #BD7438",
"@@	c #D67524",
"#@	c #CB7125",
"$@	c #D87624",
"%@	c #D87724",
"&@	c #B2692B",
"*@	c #B27D52",
"=@	c #B27A4B",
"-@	c #B37A4B",
";@	c #AF7A4E",
"  . + + + + + + @   ",
"# $ % & * & & & = - ",
"; > , ' ) > > > ! ~ ",
"; { ] ^ ) { { { / ~ ",
"; { ( _ : : : : / < ",
"[ } | 1 } } } } 2 < ",
"[ } ( 3 4 5 5 5 6 7 ",
"8 5 9 0 a 5 5 5 b 7 ",
"c d e f g 5 6 6 6 h ",
"i j k l m n o o p q ",
"r j s t u v j j w x ",
"y z A B C D E E F G ",
"H I J K L M N O P Q ",
"R S T U V W X S Y Z ",
"`  ...L +.@.#. .$.%.",
"&.*.=.-.;.>.,.'.).!.",
"~.{.].^./.(._.:.{.<.",
"[.}.|.1.2.3.4.5.}.6.",
"7.8.9.0.a.b.c.d.8.e.",
"f.g.h.i.j.k.k.l.m.n.",
"o.p.h.i.j.q.k.l.r.s.",
"t.u.v.i.a.j.w.x.y.z.",
"A.B.C.D.E.F.4.G.B.H.",
"I.J.K.L.(.M._.N.O.P.",
"Q.R.S.T.U.V.W.X.R.Y.",
"Z.`. +.+++@.@+`.`.#+",
"$+%+&+*+=+-+;+>+>+,+",
"'+)+!+~+{+]+^+)+/+(+",
"_+:+<+[+}+|+1+:+:+2+",
"3+4+5+6+7+8+4+4+4+9+",
"0+a+b+c+d+e+f+f+g+h+",
"i+j+k+l+m+n+o+o+o+p+",
"q+r+s+t+u+r+r+r+v+w+",
"x+y+z+A+B+C+C+C+y+D+",
"E+F+G+H+I+J+J+J+K+L+",
"M+N+O+P+N+N+N+N+N+Q+",
"R+S+T+U+V+V+V+V+V+W+",
"X+Y+Z+`+ @ @ @ @ @.@",
"+@@@#@$@%@%@%@%@@@&@",
"  *@=@-@-@-@-@-@;@  "};
