/* XPM */
static char * BotonCerrar_xpm[] = {
"20 20 273 2",
"  	c None",
". 	c #677A8D",
"+ 	c #677A8B",
"@ 	c #EF7A76",
"# 	c #F5817E",
"$ 	c #F5807D",
"% 	c #F4807C",
"& 	c #EB7471",
"* 	c #67788A",
"= 	c #E85652",
"- 	c #FC6A65",
"; 	c #FC6F6B",
"> 	c #FB6F6B",
", 	c #FA6763",
"' 	c #DB4C48",
") 	c #677A8A",
"! 	c #C66462",
"~ 	c #DC4643",
"{ 	c #DF4845",
"] 	c #DD4743",
"^ 	c #DE4845",
"/ 	c #D64340",
"( 	c #B75F5D",
"_ 	c #B94845",
": 	c #D1403D",
"< 	c #D84441",
"[ 	c #D94441",
"} 	c #D24844",
"| 	c #BB655D",
"1 	c #D64642",
"2 	c #BE645C",
"3 	c #D24743",
"4 	c #CC3E3C",
"5 	c #A33E3C",
"6 	c #B54441",
"7 	c #CE3F3C",
"8 	c #D64440",
"9 	c #D74441",
"0 	c #D04844",
"a 	c #B88E82",
"b 	c #C5C1B0",
"c 	c #BE857A",
"d 	c #D44642",
"e 	c #D44743",
"f 	c #C6897D",
"g 	c #C7C3B1",
"h 	c #B1877C",
"i 	c #CE4844",
"j 	c #CA3E3B",
"k 	c #A23E3C",
"l 	c #B44341",
"m 	c #CC3F3C",
"n 	c #D4433F",
"o 	c #CD4843",
"p 	c #B99184",
"q 	c #D2CEBB",
"r 	c #D5D1BE",
"s 	c #DCD8C4",
"t 	c #CC9688",
"u 	c #D24642",
"v 	c #D39B8D",
"w 	c #E7E2CD",
"x 	c #D7D3BF",
"y 	c #C8C4B2",
"z 	c #AF8B7F",
"A 	c #CC4843",
"B 	c #C73D3A",
"C 	c #A03D3B",
"D 	c #B14340",
"E 	c #C93E3B",
"F 	c #CE423E",
"G 	c #A57067",
"H 	c #BCB9A8",
"I 	c #CDC9B6",
"J 	c #DAD5C1",
"K 	c #EBE6D0",
"L 	c #F4F0D9",
"M 	c #D8A697",
"N 	c #DCAA9B",
"O 	c #FAF8E3",
"P 	c #F1ECD5",
"Q 	c #DAD6C1",
"R 	c #C8C4B1",
"S 	c #B3AF9F",
"T 	c #9A675E",
"U 	c #CD413E",
"V 	c #C43C3A",
"W 	c #9E3D3A",
"X 	c #AF423F",
"Y 	c #C63D3A",
"Z 	c #CA403D",
"` 	c #AC423D",
" .	c #958074",
"..	c #BDB9A7",
"+.	c #F1ECD4",
"@.	c #FDFAE2",
"#.	c #FDFCE9",
"$.	c #FDFDF2",
"%.	c #FEFDE7",
"&.	c #D7D3BE",
"*.	c #B6B2A0",
"=.	c #857166",
"-.	c #A73C38",
";.	c #CA403C",
">.	c #C23B38",
",.	c #9C3C3A",
"'.	c #AC403E",
").	c #C33B38",
"!.	c #CA3F3C",
"~.	c #C33D3A",
"{.	c #A9403C",
"].	c #A48E80",
"^.	c #D1CDB8",
"/.	c #EDE9D1",
"(.	c #FDFBE2",
"_.	c #FEFEEC",
":.	c #FEFEF1",
"<.	c #EAE5CE",
"[.	c #C9C5B1",
"}.	c #907B6F",
"|.	c #A33A37",
"1.	c #BF3A37",
"2.	c #9A3B39",
"3.	c #AA403D",
"4.	c #C03A37",
"5.	c #C73E3B",
"6.	c #C13C39",
"7.	c #A83D3A",
"8.	c #AD9586",
"9.	c #DEDAC3",
"0.	c #F7F3DA",
"a.	c #FEFEE9",
"b.	c #F3EFD7",
"c.	c #D6D2BC",
"d.	c #988275",
"e.	c #A23A36",
"f.	c #BC3936",
"g.	c #983A38",
"h.	c #A73F3C",
"i.	c #BD3A37",
"j.	c #C43D3A",
"k.	c #BC4541",
"l.	c #D7BDAD",
"m.	c #FCFCF2",
"n.	c #FEFEEF",
"o.	c #FEFEE8",
"p.	c #FDFDEA",
"q.	c #FBFAE7",
"r.	c #D4B6A5",
"s.	c #BC4440",
"t.	c #B83835",
"u.	c #953A38",
"v.	c #A43E3C",
"w.	c #B93936",
"x.	c #BD4743",
"y.	c #D4B8A7",
"z.	c #FDFBE6",
"A.	c #FEFCE6",
"B.	c #FCFAE1",
"C.	c #F3EFD6",
"D.	c #F6F1D9",
"E.	c #FDFBE1",
"F.	c #FDFAE1",
"G.	c #F8F4DD",
"H.	c #CFAE9E",
"I.	c #BC4642",
"J.	c #C03C39",
"K.	c #B53735",
"L.	c #933937",
"M.	c #A23D3B",
"N.	c #B63834",
"O.	c #BE3B38",
"P.	c #B84541",
"Q.	c #C2A99A",
"R.	c #EBE7D2",
"S.	c #EFEBD4",
"T.	c #EFEBD3",
"U.	c #E7E2CB",
"V.	c #D2CEB9",
"W.	c #DAD5BF",
"X.	c #EBE6CF",
"Y.	c #F0EBD3",
"Z.	c #E1DDC8",
"`.	c #BDA091",
" +	c #B84440",
".+	c #B23633",
"++	c #913836",
"@+	c #A03C3A",
"#+	c #B33633",
"$+	c #B93A37",
"%+	c #9B7066",
"&+	c #B8B4A3",
"*+	c #CAC6B4",
"=+	c #D6D2BD",
"-+	c #D3CFBA",
";+	c #C1BDAA",
">+	c #907368",
",+	c #A4877A",
"'+	c #CBC7B3",
")+	c #C6C2AF",
"!+	c #AFAB9B",
"~+	c #916158",
"{+	c #B03532",
"]+	c #8F3735",
"^+	c #9D3C39",
"/+	c #B53835",
"(+	c #9B3935",
"_+	c #877066",
":+	c #A6A393",
"<+	c #B9B5A3",
"[+	c #ACA998",
"}+	c #86665C",
"|+	c #9A3431",
"1+	c #9E3733",
"2+	c #9D7D71",
"3+	c #B5B2A0",
"4+	c #BAB6A4",
"5+	c #9F9C8C",
"6+	c #765E55",
"7+	c #973330",
"8+	c #B43835",
"9+	c #AC3431",
"0+	c #8D3735",
"a+	c #9B3B38",
"b+	c #AD3431",
"c+	c #B33835",
"d+	c #AD3633",
"e+	c #953734",
"f+	c #866E64",
"g+	c #939182",
"h+	c #7C5851",
"i+	c #9A3330",
"j+	c #B03734",
"k+	c #9E3633",
"l+	c #906D63",
"m+	c #969384",
"n+	c #745B53",
"o+	c #90312E",
"p+	c #A93330",
"q+	c #8B3634",
"r+	c #983C39",
"s+	c #AA3330",
"t+	c #AA3532",
"u+	c #943532",
"v+	c #7C4842",
"w+	c #99322F",
"x+	c #AE3634",
"y+	c #B13734",
"z+	c #AE3633",
"A+	c #9B3431",
"B+	c #804943",
"C+	c #90302D",
"D+	c #A5322F",
"E+	c #8A3A38",
"F+	c #974F4D",
"G+	c #9F302D",
"H+	c #AB3633",
"I+	c #AE3734",
"J+	c #A93532",
"K+	c #A43331",
"L+	c #9B2F2C",
"M+	c #894E4C",
"N+	c #8B2F2C",
"O+	c #9F3735",
"P+	c #A43A37",
"Q+	c #A43936",
"R+	c #993330",
"S+	c #7F2A28",
"T+	c #8E5554",
"U+	c #893F3D",
"V+	c #883E3C",
"W+	c #883D3C",
"X+	c #844C4A",
". + @ # $ $ $ $ $ $ $ $ $ $ $ $ % & * . ",
"+ = - ; > > > > > > > > > > > > ; , ' ) ",
"! ~ { ] ] ] ] ] ] ] ] ] ] ] ] ] ] ^ / ( ",
"_ : < [ [ } | 1 [ [ [ [ 1 2 3 [ [ < 4 5 ",
"6 7 8 9 0 a b c d 9 9 e f g h i 9 8 j k ",
"l m n o p q r s t u 3 v w x y z A n B C ",
"D E F G H I J K L M N O P Q R S T U V W ",
"X Y Z `  ...Q +.@.#.$.%.P &.*.=.-.;.>.,.",
"'.).!.~.{.].^./.(._.:.(.<.[.}.|.~.!.1.2.",
"3.4.5.5.6.7.8.9.0.a.a.b.c.d.e.6.5.5.f.g.",
"h.i.j.j.j.k.l.m.n.o.o.p.q.r.s.j.j.j.t.u.",
"v.w.6.6.x.y.z.A.B.C.D.E.F.G.H.I.6.J.K.L.",
"M.N.O.P.Q.R.S.T.U.V.W.X.Y.K Z.`. +O..+++",
"@+#+$+%+&+*+=+-+;+>+,+'+&.=+)+!+~+w.{+]+",
"^+{+/+(+_+:+<+[+}+|+1+2+3+4+5+6+7+8+9+0+",
"a+b+c+d+e+f+g+h+i+j+j+k+l+m+n+o+d+c+p+q+",
"r+s+j+j+t+u+v+w+x+y+y+z+A+B+C+t+j+j+D+E+",
"F+G+H+I+d+J+K+H+z+z+z+z+H+K+J+d+z+J+L+M+",
". N+O+P+P+P+P+P+P+P+P+P+P+P+P+P+Q+R+S+. ",
". . T+U+V+V+V+W+W+W+W+W+W+W+W+W+V+X+. . "};
