/* XPM */
static char * BotonSolicitarConsultaBBDD_xpm[] = {
"48 48 927 2",
"  	c None",
". 	c #677A8D",
"+ 	c #CDE794",
"@ 	c #C9E68A",
"# 	c #C9E78A",
"$ 	c #C7E589",
"% 	c #D0E89E",
"& 	c #C3DB93",
"* 	c #BADF6C",
"= 	c #CBF16E",
"- 	c #E1FB82",
"; 	c #E5FD87",
"> 	c #E6FD88",
", 	c #E4FD85",
"' 	c #D9F97B",
") 	c #C9F06E",
"! 	c #BDE172",
"~ 	c #B4D66C",
"{ 	c #ADCC6E",
"] 	c #B8E35F",
"^ 	c #D2F875",
"/ 	c #E2FE85",
"( 	c #EEFF92",
"_ 	c #F0FE94",
": 	c #F0FF94",
"< 	c #EFFF93",
"[ 	c #EAFF8E",
"} 	c #DFFE83",
"| 	c #CBF470",
"1 	c #B4DE5E",
"2 	c #B1CD78",
"3 	c #A8C570",
"4 	c #AFDA5A",
"5 	c #C8F56D",
"6 	c #D0FB74",
"7 	c #D4FD78",
"8 	c #D7FD7D",
"9 	c #D8FD7D",
"0 	c #D9FD7D",
"a 	c #D7FD7B",
"b 	c #D1FB77",
"c 	c #C8F46E",
"d 	c #BDE963",
"e 	c #A6CF53",
"f 	c #ABC479",
"g 	c #A0C754",
"h 	c #B3DF5A",
"i 	c #BAE760",
"j 	c #BEEB63",
"k 	c #C2EE67",
"l 	c #C0ED66",
"m 	c #C0EC66",
"n 	c #BFEB66",
"o 	c #C1ED67",
"p 	c #C0ED67",
"q 	c #BFEB65",
"r 	c #B9E560",
"s 	c #B3DF5B",
"t 	c #A9D453",
"u 	c #91B548",
"v 	c #9FBA67",
"w 	c #A0C94C",
"x 	c #ABD754",
"y 	c #AEDA55",
"z 	c #AFDB56",
"A 	c #B1DD58",
"B 	c #AEDA56",
"C 	c #ACD754",
"D 	c #ABD653",
"E 	c #ACD854",
"F 	c #AFDC58",
"G 	c #ADD956",
"H 	c #A9D452",
"I 	c #A5CF4F",
"J 	c #97BF48",
"K 	c #98B069",
"L 	c #91B24E",
"M 	c #9EC84B",
"N 	c #A4D04E",
"O 	c #A7D24F",
"P 	c #A7D350",
"Q 	c #A7D34F",
"R 	c #A6D14E",
"S 	c #A6D04F",
"T 	c #A4CC52",
"U 	c #AAC567",
"V 	c #97A966",
"W 	c #A5CF4E",
"X 	c #A6D24F",
"Y 	c #A3CE4D",
"Z 	c #A0CA4B",
"` 	c #98C047",
" .	c #86A549",
"..	c #88AB3F",
"+.	c #9BC448",
"@.	c #A3CD4D",
"#.	c #A5D04E",
"$.	c #A7D14F",
"%.	c #A4CB52",
"&.	c #A5C65C",
"*.	c #AEC474",
"=.	c #BFC1A3",
"-.	c #D6D3C0",
";.	c #A7A691",
">.	c #97B15A",
",.	c #A4CD4E",
"'.	c #A1CA4B",
").	c #9BC348",
"!.	c #94BB44",
"~.	c #7A9A38",
"{.	c #88AC3F",
"].	c #99C147",
"^.	c #9EC74B",
"/.	c #A2CB4D",
"(.	c #A7D050",
"_.	c #A6D050",
":.	c #A6CE50",
"<.	c #A5C163",
"[.	c #AEBD7F",
"}.	c #BFC0A3",
"|.	c #DEDBC8",
"1.	c #F0EDDA",
"2.	c #E6E3D0",
"3.	c #BFBBA9",
"4.	c #A1A781",
"5.	c #9CBB56",
"6.	c #A5CE4F",
"7.	c #A4CE4F",
"8.	c #9FC84C",
"9.	c #9AC148",
"0.	c #92B844",
"a.	c #7A9A39",
"b.	c #98BF47",
"c.	c #9EC64B",
"d.	c #A6CF4F",
"e.	c #A4CB50",
"f.	c #A2C05D",
"g.	c #ACBA7E",
"h.	c #C4C6A8",
"i.	c #DDDBC6",
"j.	c #F1EFDC",
"k.	c #FBF8E5",
"l.	c #E3E0CD",
"m.	c #CCC9B5",
"n.	c #B8B5A2",
"o.	c #99A472",
"p.	c #A0C351",
"q.	c #A4CD4F",
"r.	c #9FC74C",
"s.	c #99C148",
"t.	c #87AA3F",
"u.	c #9DC54A",
"v.	c #A1CA4C",
"w.	c #A6CE4F",
"x.	c #A5CD50",
"y.	c #A4CA53",
"z.	c #A4BF63",
"A.	c #AEB887",
"B.	c #C6C4AE",
"C.	c #E1DECA",
"D.	c #F5F2DF",
"E.	c #FCFAE6",
"F.	c #FCF9E5",
"G.	c #F8F4E0",
"H.	c #F3EFDB",
"I.	c #DEDAC5",
"J.	c #D5D0BD",
"K.	c #D2CEBA",
"L.	c #BCBBA1",
"M.	c #9DB168",
"N.	c #A3CC4E",
"O.	c #99BF48",
"P.	c #91B644",
"Q.	c #7A9939",
"R.	c #87A93F",
"S.	c #97BD46",
"T.	c #9CC449",
"U.	c #A0C84B",
"V.	c #A5CC4E",
"W.	c #A3C753",
"X.	c #A5BE65",
"Y.	c #AFBC83",
"Z.	c #C5C3B0",
"`.	c #E1DECB",
" +	c #F1EEDB",
".+	c #FAF6E3",
"++	c #F8F4E1",
"@+	c #F6F2DE",
"#+	c #F2EEDA",
"$+	c #EEEAD5",
"%+	c #E5E1CD",
"&+	c #DBD7C2",
"*+	c #DAD6C1",
"=+	c #DCD8C3",
"-+	c #D5D0BC",
";+	c #B6B59C",
">+	c #9DBB58",
",+	c #A3CB4E",
"'+	c #A5CD4E",
")+	c #A5CD4F",
"!+	c #9EC54B",
"~+	c #98BE47",
"{+	c #90B543",
"]+	c #799838",
"^+	c #86A83E",
"/+	c #96BC46",
"(+	c #9CC349",
"_+	c #A0C74B",
":+	c #A2CA4D",
"<+	c #9DBC56",
"[+	c #949F71",
"}+	c #A2A48B",
"|+	c #C2BEAE",
"1+	c #DAD6C6",
"2+	c #E5E2D0",
"3+	c #EBE7D5",
"4+	c #EDE9D6",
"5+	c #ECE8D3",
"6+	c #ECE7D3",
"7+	c #E8E4CF",
"8+	c #E4E0CB",
"9+	c #DFDBC5",
"0+	c #DED9C3",
"a+	c #E0DCC6",
"b+	c #E3DFC9",
"c+	c #D5D1BC",
"d+	c #A8B083",
"e+	c #A4CB4E",
"f+	c #A4CC4E",
"g+	c #9DC44A",
"h+	c #97BD47",
"i+	c #90B443",
"j+	c #85A73E",
"k+	c #95BC45",
"l+	c #9BC248",
"m+	c #9EC64A",
"n+	c #A0C84C",
"o+	c #9CC14D",
"p+	c #91A85A",
"q+	c #84896A",
"r+	c #878577",
"s+	c #9F9C8E",
"t+	c #AFAC9D",
"u+	c #B8B4A4",
"v+	c #C0BDAB",
"w+	c #C7C3B1",
"x+	c #CECAB7",
"y+	c #DBD7C1",
"z+	c #E3DFC8",
"A+	c #E6E2CB",
"B+	c #E9E4CE",
"C+	c #EBE6D0",
"D+	c #EAE6CE",
"E+	c #CECCB2",
"F+	c #ABBF73",
"G+	c #A1C84E",
"H+	c #A1C94D",
"I+	c #9CC44A",
"J+	c #96BD46",
"K+	c #8FB342",
"L+	c #789737",
"M+	c #84A63D",
"N+	c #94BA44",
"O+	c #99C048",
"P+	c #99C049",
"Q+	c #8DB143",
"R+	c #809F3F",
"S+	c #83905A",
"T+	c #7F816B",
"U+	c #928F81",
"V+	c #A5A293",
"W+	c #B5B1A1",
"X+	c #C7C3B0",
"Y+	c #CECAB6",
"Z+	c #D7D3BE",
"`+	c #DEDAC4",
" @	c #E2DEC7",
".@	c #EAE6CF",
"+@	c #EDE9D2",
"@@	c #E8E4CD",
"#@	c #C6C4AC",
"$@	c #A0B668",
"%@	c #9FC74D",
"&@	c #A1CA4D",
"*@	c #9BC249",
"=@	c #95BB46",
"-@	c #8EB242",
";@	c #779637",
">@	c #83A53D",
",@	c #93B944",
"'@	c #99C047",
")@	c #9DC64B",
"!@	c #9AC24A",
"~@	c #8FB444",
"{@	c #84A63F",
"]@	c #7E9C3F",
"^@	c #7E924E",
"/@	c #828B63",
"(@	c #8D8D7A",
"_@	c #A19E8F",
":@	c #B8B4A3",
"<@	c #C5C1AE",
"[@	c #CCC8B4",
"}@	c #D4D0BB",
"|@	c #DDD9C3",
"1@	c #DCD8C2",
"2@	c #D9D5C0",
"3@	c #DAD5C0",
"4@	c #ACB08D",
"5@	c #9ABB54",
"6@	c #9AC149",
"7@	c #94BA45",
"8@	c #8DB141",
"9@	c #769536",
"0@	c #82A53C",
"a@	c #92B943",
"b@	c #9BC349",
"c@	c #9CC54B",
"d@	c #97BD48",
"e@	c #8FB445",
"f@	c #87A940",
"g@	c #7C9B3C",
"h@	c #77933F",
"i@	c #778B49",
"j@	c #93957A",
"k@	c #9B9789",
"l@	c #B6B3A2",
"m@	c #C9C6B2",
"n@	c #D2CFBA",
"o@	c #D8D4BF",
"p@	c #E5E2CE",
"q@	c #E3E0CC",
"r@	c #DAD7C2",
"s@	c #CFCBB7",
"t@	c #C1BDAB",
"u@	c #A8A594",
"v@	c #989785",
"w@	c #949D72",
"x@	c #96B652",
"y@	c #A0C94D",
"z@	c #93B945",
"A@	c #8CB040",
"B@	c #759536",
"C@	c #81A33C",
"D@	c #91B743",
"E@	c #96BE46",
"F@	c #9AC248",
"G@	c #9DC54B",
"H@	c #9BC34A",
"I@	c #98C049",
"J@	c #93B947",
"K@	c #8AAE42",
"L@	c #81A23E",
"M@	c #78973A",
"N@	c #7B9545",
"O@	c #8F9A6A",
"P@	c #979881",
"Q@	c #A9A796",
"R@	c #F4F2E2",
"S@	c #FAF9EB",
"T@	c #F6F4E3",
"U@	c #DEDBC7",
"V@	c #A6A68D",
"W@	c #859954",
"X@	c #82A43F",
"Y@	c #90B645",
"Z@	c #9EC74C",
"`@	c #9EC64C",
" #	c #9CC44B",
".#	c #97BE48",
"+#	c #92B744",
"@#	c #8BAF40",
"##	c #759335",
"$#	c #81A23B",
"%#	c #91B643",
"&#	c #9CC34A",
"*#	c #99C149",
"=#	c #95BB47",
"-#	c #8FB344",
";#	c #86A940",
">#	c #7D9D3C",
",#	c #75923A",
"'#	c #7F954D",
")#	c #889365",
"!#	c #AAA894",
"~#	c #BBB8A6",
"{#	c #E2DEC8",
"]#	c #EFECDB",
"^#	c #FBFAF0",
"/#	c #FEFEF0",
"(#	c #E9E8CF",
"_#	c #B0BA87",
":#	c #8CA94B",
"<#	c #92B746",
"[#	c #9DC44B",
"}#	c #8AAE40",
"|#	c #749235",
"1#	c #80A13B",
"2#	c #90B542",
"3#	c #94BB46",
"4#	c #9AC14A",
"5#	c #92B846",
"6#	c #8BAF43",
"7#	c #82A33E",
"8#	c #79993A",
"9#	c #74913A",
"0#	c #909E66",
"a#	c #A4A789",
"b#	c #B4B19F",
"c#	c #E0DCC7",
"d#	c #ECE9D7",
"e#	c #FAFAF1",
"f#	c #FDFCF0",
"g#	c #ECEAD2",
"h#	c #BAC391",
"i#	c #97BB4D",
"j#	c #96BC47",
"k#	c #89AC3F",
"l#	c #739135",
"m#	c #7FA03A",
"n#	c #8EB341",
"o#	c #93BA45",
"p#	c #97BE47",
"q#	c #9BC24A",
"r#	c #98BF48",
"s#	c #88AB41",
"t#	c #81A041",
"u#	c #89A153",
"v#	c #C2C7A4",
"w#	c #E7E5D9",
"x#	c #F0EFEA",
"y#	c #F7F5F1",
"z#	c #F9F8F3",
"A#	c #FBFBF8",
"B#	c #FEFEFC",
"C#	c #FEFDF3",
"D#	c #F2F0DB",
"E#	c #BFC897",
"F#	c #9CC14F",
"G#	c #94BA46",
"H#	c #8FB443",
"I#	c #88AB3E",
"J#	c #729034",
"K#	c #7E9F3A",
"L#	c #8EB241",
"M#	c #99BF49",
"N#	c #98BC4C",
"O#	c #A0BC60",
"P#	c #BCCA91",
"Q#	c #EBEDD8",
"R#	c #FEFEF9",
"S#	c #FFFFFE",
"T#	c #FFFFFF",
"U#	c #FEFEFE",
"V#	c #FFFFFD",
"W#	c #FEFEFD",
"X#	c #FFFEF6",
"Y#	c #F4F2DD",
"Z#	c #C4CD9A",
"`#	c #9FC056",
" $	c #9AC049",
".$	c #94B946",
"+$	c #87AA3E",
"@$	c #728F34",
"#$	c #7D9D39",
"$$	c #8DB041",
"%$	c #98BE48",
"&$	c #98BA4E",
"*$	c #AEBD80",
"=$	c #C5C5AF",
"-$	c #D9D7CC",
";$	c #EAE8DD",
">$	c #F2F0E5",
",$	c #F5F3E8",
"'$	c #F8F6EB",
")$	c #FBF9EF",
"!$	c #FDFBEF",
"~$	c #FEFEFA",
"{$	c #FEFDF5",
"]$	c #F1EFDA",
"^$	c #C5CF9B",
"/$	c #9CBE52",
"($	c #98BF49",
"_$	c #92B845",
":$	c #8DB142",
"<$	c #86A93E",
"[$	c #718E34",
"}$	c #7C9C39",
"|$	c #94B945",
"1$	c #96BD48",
"2$	c #91B646",
"3$	c #92AF52",
"4$	c #A0AD75",
"5$	c #B0AE9B",
"6$	c #BAB7A5",
"7$	c #D8D4C0",
"8$	c #E7E2CC",
"9$	c #F2EED7",
"0$	c #F7F3DB",
"a$	c #FCF9E8",
"b$	c #FEFEF7",
"c$	c #FEFEFB",
"d$	c #F2F0DA",
"e$	c #C5CE9D",
"f$	c #94BA47",
"g$	c #96BD47",
"h$	c #8CB041",
"i$	c #85A73D",
"j$	c #6F8D33",
"k$	c #7B9C38",
"l$	c #8AAF40",
"m$	c #8FB542",
"n$	c #7A993A",
"o$	c #7D9548",
"p$	c #919B6D",
"q$	c #ABAA93",
"r$	c #DFDAC5",
"s$	c #EAE5CE",
"t$	c #EFEBD3",
"u$	c #F4EFD7",
"v$	c #FCFAEF",
"w$	c #FDFDF6",
"x$	c #FEFEF3",
"y$	c #F8F5DF",
"z$	c #C6CC9F",
"A$	c #9ABA56",
"B$	c #96BC48",
"C$	c #8BAF41",
"D$	c #84A73D",
"E$	c #89AD3F",
"F$	c #8EB342",
"G$	c #95BC47",
"H$	c #8BAF42",
"I$	c #81A33E",
"J$	c #779638",
"K$	c #718C38",
"L$	c #8D9D61",
"M$	c #A3A786",
"N$	c #BDBAA8",
"O$	c #D0CDB8",
"P$	c #E4E0C9",
"Q$	c #EDE8D1",
"R$	c #F0ECD4",
"S$	c #F3EED7",
"T$	c #F1EEDC",
"U$	c #EFEDDD",
"V$	c #F0EEDF",
"W$	c #ECEAD8",
"X$	c #DCD9C2",
"Y$	c #B6BE8F",
"Z$	c #97B754",
"`$	c #83A63C",
" %	c #6E8B32",
".%	c #799937",
"+%	c #88AC3E",
"@%	c #8DB241",
"#%	c #90B644",
"$%	c #94BB47",
"%%	c #93BA46",
"&%	c #90B544",
"*%	c #8AAF42",
"=%	c #83A53E",
"-%	c #7A9A3A",
";%	c #76933B",
">%	c #7D934A",
",%	c #939E6D",
"'%	c #ADAE94",
")%	c #C0BCA9",
"!%	c #EBE6CF",
"~%	c #E7E4CE",
"{%	c #B7B3A2",
"]%	c #9F9D8C",
"^%	c #979C79",
"/%	c #91AE53",
"(%	c #93B946",
"_%	c #8EB443",
":%	c #82A43C",
"<%	c #6D8A32",
"[%	c #799837",
"}%	c #87AB3E",
"|%	c #8CB141",
"1%	c #93B846",
"2%	c #91B745",
"3%	c #8DB243",
"4%	c #87AA40",
"5%	c #80A13D",
"6%	c #769438",
"7%	c #738A40",
"8%	c #A1A780",
"9%	c #ADAB97",
"0%	c #CAC6B2",
"a%	c #EAE7D2",
"b%	c #DAD7C1",
"c%	c #9F9C8B",
"d%	c #7C8D52",
"e%	c #7E9C40",
"f%	c #8AAD42",
"g%	c #82A33B",
"h%	c #6D8932",
"i%	c #779736",
"j%	c #86AA3D",
"k%	c #8EB343",
"l%	c #92B745",
"m%	c #8BAE42",
"n%	c #7C9C3B",
"o%	c #749238",
"p%	c #758F3E",
"q%	c #8F9D66",
"r%	c #A1A485",
"s%	c #B3B29D",
"t%	c #CDC9B5",
"u%	c #E4E1CC",
"v%	c #F3F0D9",
"w%	c #D7D5B9",
"x%	c #899B59",
"y%	c #7F9F3D",
"z%	c #91B545",
"A%	c #91B645",
"B%	c #80A23B",
"C%	c #6C8931",
"D%	c #769636",
"E%	c #85A83D",
"F%	c #8DB242",
"G%	c #8CB043",
"H%	c #81A23D",
"I%	c #789639",
"J%	c #708B38",
"K%	c #8A9B5E",
"L%	c #BDBEA4",
"M%	c #D2D0C4",
"N%	c #E1DED3",
"O%	c #E9E6D5",
"P%	c #BCBE9D",
"Q%	c #8DA555",
"R%	c #8DB043",
"S%	c #8BB041",
"T%	c #7FA13A",
"U%	c #6B8731",
"V%	c #90B545",
"W%	c #8EB244",
"X%	c #8BA94B",
"Y%	c #B4C18B",
"Z%	c #E3E5D0",
"`%	c #F5F5EE",
" &	c #F4F3EE",
".&	c #E5E3D6",
"+&	c #D9D5C2",
"@&	c #AAB088",
"#&	c #8EAC4D",
"$&	c #8AAF41",
"%&	c #85A93E",
"&&	c #6A8731",
"*&	c #759435",
"=&	c #83A73C",
"-&	c #8FB343",
";&	c #8EB048",
">&	c #A3B76F",
",&	c #ADB095",
"'&	c #C4C2B5",
")&	c #CECBBB",
"!&	c #D4D0BC",
"~&	c #D5D1BD",
"{&	c #D3CFBB",
"]&	c #D0CCB9",
"^&	c #D5D2BD",
"/&	c #A1AE76",
"(&	c #8DB046",
"_&	c #89AD40",
":&	c #7E9F39",
"<&	c #6A8630",
"[&	c #749335",
"}&	c #82A53B",
"|&	c #8EB243",
"1&	c #89AC41",
"2&	c #7F9749",
"3&	c #98A076",
"4&	c #A8A791",
"5&	c #B6B2A1",
"6&	c #C8C4B1",
"7&	c #CBC8B4",
"8&	c #C2C0A9",
"9&	c #92A461",
"0&	c #88AC40",
"a&	c #83A63D",
"b&	c #7D9E39",
"c&	c #698530",
"d&	c #739234",
"e&	c #81A43B",
"f&	c #769439",
"g&	c #768E3F",
"h&	c #7E8F52",
"i&	c #919772",
"j&	c #A5A292",
"k&	c #B4B1A0",
"l&	c #C4C0AE",
"m&	c #C4C1AF",
"n&	c #C5C2AF",
"o&	c #CEC9B6",
"p&	c #AAAB90",
"q&	c #889F52",
"r&	c #8CB042",
"s&	c #87AB3F",
"t&	c #7C9D38",
"u&	c #68842F",
"v&	c #86A83D",
"w&	c #8EB143",
"x&	c #8CAF42",
"y&	c #8BAD41",
"z&	c #87A83F",
"A&	c #7F9F3C",
"B&	c #779538",
"C&	c #708C35",
"D&	c #6B8336",
"E&	c #798950",
"F&	c #919479",
"G&	c #A09D8D",
"H&	c #B1AE9D",
"I&	c #B9B6A5",
"J&	c #9CA17D",
"K&	c #89A44B",
"L&	c #82A33C",
"M&	c #7B9B38",
"N&	c #67822F",
"O&	c #728F33",
"P&	c #80A13A",
"Q&	c #85A63D",
"R&	c #89AA3F",
"S&	c #8CAE42",
"T&	c #8DAF43",
"U&	c #87A840",
"V&	c #7C9A3B",
"W&	c #738F36",
"X&	c #6B8433",
"Y&	c #768A46",
"Z&	c #899169",
"`&	c #8C8D77",
" *	c #9C9A8B",
".*	c #A8A596",
"+*	c #B3AF9F",
"@*	c #B2AF9C",
"#*	c #909A6E",
"$*	c #89A845",
"%*	c #8CAF43",
"&*	c #8BAE41",
"**	c #7A9A37",
"=*	c #67812E",
"-*	c #718E33",
";*	c #84A53D",
">*	c #88A93F",
",*	c #8BAD42",
"'*	c #8AAC41",
")*	c #88AA40",
"!*	c #85A53E",
"~*	c #7F9D3C",
"{*	c #779338",
"]*	c #708B35",
"^*	c #6C8536",
"/*	c #728347",
"(*	c #818764",
"_*	c #8A8879",
":*	c #989588",
"<*	c #ACA899",
"[*	c #A2A18F",
"}*	c #86955C",
"|*	c #8AAB41",
"1*	c #8AAC40",
"2*	c #85A63E",
"3*	c #7A9937",
"4*	c #66802E",
"5*	c #708D32",
"6*	c #7E9E39",
"7*	c #83A43C",
"8*	c #89AB41",
"9*	c #89AA40",
"0*	c #86A73F",
"a*	c #82A13D",
"b*	c #7D9B3B",
"c*	c #759237",
"d*	c #6C8734",
"e*	c #698036",
"f*	c #687A3D",
"g*	c #80826C",
"h*	c #848275",
"i*	c #999688",
"j*	c #92917E",
"k*	c #7D904C",
"l*	c #89AA41",
"m*	c #89AB40",
"n*	c #799736",
"o*	c #657F2E",
"p*	c #6F8C32",
"q*	c #7D9D38",
"r*	c #88AA3F",
"s*	c #89AC40",
"t*	c #88AB40",
"u*	c #82A23C",
"v*	c #728F36",
"w*	c #6B8532",
"x*	c #6C833B",
"y*	c #758053",
"z*	c #787A64",
"A*	c #878D6C",
"B*	c #829C47",
"C*	c #7E9E3A",
"D*	c #789636",
"E*	c #657E2D",
"F*	c #6E8B31",
"G*	c #7C9C38",
"H*	c #85A83E",
"I*	c #82A43D",
"J*	c #7D9C3A",
"K*	c #769437",
"L*	c #6E8A33",
"M*	c #688232",
"N*	c #6C813F",
"O*	c #6D794D",
"P*	c #7C7C6C",
"Q*	c #79825B",
"R*	c #83A142",
"S*	c #779635",
"T*	c #637D2D",
"U*	c #86A93F",
"V*	c #7FA03B",
"W*	c #6B8732",
"X*	c #6A8534",
"Y*	c #77864E",
"Z*	c #75795F",
"`*	c #748151",
" =	c #85A73F",
".=	c #84A73E",
"+=	c #7A9B38",
"@=	c #5B7329",
"#=	c #657F31",
"$=	c #729033",
"%=	c #7D9E3A",
"&=	c #82A33D",
"*=	c #86A83F",
"==	c #83A63E",
"-=	c #81A23C",
";=	c #7C9C3A",
">=	c #729035",
",=	c #718E36",
"'=	c #76913B",
")=	c #788D49",
"!=	c #7B9741",
"~=	c #7B9B39",
"{=	c #6D8A31",
"]=	c #55692C",
"^=	c #768850",
"/=	c #6A8530",
"(=	c #759436",
"_=	c #7B9939",
":=	c #7F9E3C",
"<=	c #83A33E",
"[=	c #85A63F",
"}=	c #7B9B3A",
"|=	c #789638",
"1=	c #799739",
"2=	c #7B9A3A",
"3=	c #779537",
"4=	c #637E2D",
"5=	c #758358",
"6=	c #919B7C",
"7=	c #647C33",
"8=	c #708C34",
"9=	c #7B9A3C",
"0=	c #809E3F",
"a=	c #82A140",
"b=	c #82A240",
"c=	c #81A140",
"d=	c #81A03F",
"e=	c #7F9F3E",
"f=	c #7D9B3D",
"g=	c #7A993C",
"h=	c #78963A",
"i=	c #779439",
"j=	c #718E35",
"k=	c #5A6F2F",
"l=	c #939A84",
"m=	c #738450",
"n=	c #627A2E",
"o=	c #718D37",
"p=	c #78953B",
"q=	c #7D9A3F",
"r=	c #7F9C41",
"s=	c #7F9D41",
"t=	c #809D42",
"u=	c #809D41",
"v=	c #7E9B40",
"w=	c #7C9940",
"x=	c #79963D",
"y=	c #74903A",
"z=	c #708C36",
"A=	c #6A8532",
"B=	c #59702A",
"C=	c #65714B",
"D=	c #71814E",
"E=	c #617930",
"F=	c #6E8738",
"G=	c #77923F",
"H=	c #7B9642",
"I=	c #7C9843",
"J=	c #7B9742",
"K=	c #789440",
"L=	c #708A39",
"M=	c #657D32",
"N=	c #596E2D",
"O=	c #5F6C44",
"P=	c #7C8A61",
"Q=	c #677A3E",
"R=	c #637935",
"S=	c #687E39",
"T=	c #6B823B",
"U=	c #6C843C",
"V=	c #6B833B",
"W=	c #677E38",
"X=	c #5B702F",
"Y=	c #5B6C37",
"Z=	c #768062",
"`=	c #8B9478",
" -	c #7D8965",
".-	c #728154",
"+-	c #728054",
"@-	c #718054",
"#-	c #717F53",
"$-	c #75815A",
"%-	c #7A8664",
". . . . . . . + @ # # @ # # @ # # # @ # # @ # # @ # # @ # @ # # @ # # @ # # @ $ % . . . . . . . ",
". . . . & * = - ; > > > > > > > > > > > > > > > > > > > > > > > > > > > > > > , ' ) ! ~ . . . . ",
". . . { ] ^ / ( _ : : _ : : _ : : : _ : : _ : : _ : : _ : _ : : _ : : _ : : _ < [ } | 1 2 . . . ",
". . 3 4 5 6 7 8 9 9 9 9 9 9 9 9 9 9 9 9 9 9 9 9 9 9 9 9 9 9 9 9 9 9 9 9 9 9 9 0 a b c d e f . . ",
". . g h i j k l m m m n m m n m m m n m m n m m n m m n m n m m n m m n m m n o p q r s t u . . ",
". v w x y z A B C C C C C C C C C C x D x C C C C C C C C C C C C C C C C C C E y F G H I J K . ",
". L M N O P Q O R R R R R R R R R S T U V W R R R R R R R R R R R R R R R R R O O Q X Y Z `  .. ",
". ..+.Z @.#.S $.S $.$.S $.$.S %.&.*.=.-.;.>.,.S S $.$.S $.S $.$.S $.$.S $.$.S $.$.S W '.).!.~.. ",
". {.].^./.I S (.S (.(.S _.:.<.[.}.|.1.2.3.4.5.6.S (.(.S (.S (.(.S (.(.S (.(.S (.(.S 7.8.9.0.a.. ",
". ..b.c./.6.d.d.d.d.d.e.f.g.h.i.j.k.k.l.m.n.o.p.d.d.d.d.d.d.d.d.d.d.d.d.d.d.d.d.d.d.q.r.s.0.a.. ",
". t.b.u.v.q.w.w.x.y.z.A.B.C.D.E.F.G.H.I.J.K.L.M.N.6.d.w.d.w.d.d.w.d.d.w.d.d.w.d.d.6.N.c.O.P.Q.. ",
". R.S.T.U.N.V.W.X.Y.Z.`. +.+++@+#+$+%+&+*+=+-+;+>+,+'+'+)+'+)+)+'+)+)+'+)+)+'+)+)+'+,+!+~+{+]+. ",
". ^+/+(+_+:+<+[+}+|+1+2+3+4+5+6+7+8+9+0+a+b+b+c+d+p.e+f+f+f+f+f+f+f+f+f+f+f+f+f+f+f+:+g+h+i+]+. ",
". j+k+l+m+n+o+p+q+r+s+t+u+v+w+x+c+y+9+z+A+B+C+D+E+F+G+,+f+f+f+f+f+f+f+f+f+f+f+f+f+,+H+I+J+K+L+. ",
". M+N+O+g+c.P+Q+R+S+T+U+V+W+3.X+Y+Z+`+ @z+A+.@+@@@#@$@%@&@&@&@&@&@&@&@&@&@&@&@&@&@&@n+*@=@-@;@. ",
". >@,@'@T.)@!@~@{@]@^@/@(@_@:@<@[@}@y+|@1@*+2@y+3@[@4@5@w w w w w w w w w w w w w w r.6@7@8@9@. ",
". 0@a@b.b@)@c@d@e@f@g@h@i@j@k@l@m@n@o@p@q@r@s@t@u@v@w@x@c.8.y@y@w y@y@w y@y@w y@y@w c.s.z@A@B@. ",
". C@D@E@F@G@)@H@I@J@K@L@M@N@O@P@Q@X+-+9+R@S@T@U@V@W@X@Y@H@)@Z@Z@`@Z@Z@`@Z@Z@`@Z@Z@`@ #.#+#@###. ",
". $#%#/+O+I+G@ #&#*#=#-#;#>#,#'#)#!#~#K.{#]#^#/#(#_#:#<#!@[#G@G@G@G@G@G@G@G@G@G@G@G@&#h+P.}#|#. ",
". 1#2#3#b.H@I+ #I+H@4#.#5#6#7#8#9#0#a#b#[@c#d#e#f#g#h#i#!@H@ # #I+ # #I+ # #I+ # #I+!@j#{+k#l#. ",
". m#n#o#p#6@q#H@q#H@!@*#r#=#~@s#t#u#v#w#x#y#z#A#B#C#D#E#F#!@H@H@q#H@H@q#H@H@q#H@H@q#P+G#H#I#J#. ",
". K#L#0./+P+6@4#6@4#4#6@4#M#N#O#P#Q#R#S#T#U#T#V#W#S#X#Y#Z#`# $4#6@4#4#6@4#4#6@4#4#6@M#.$-@+$@$. ",
". #$$$P.=@r#P+P+P+P+P+P+P+%$&$*$=$-$;$>$,$'$)$!$~$V#V#{$]$^$/$($P+P+P+P+P+P+P+P+P+P+.#_$:$<$[$. ",
". }$@#{+|$d@r#r#r#r#r#r#.#1$2$3$4$5$6$7$8$+@9$0$a$b$B#c$C#d$e$f$1$.#r#r#r#r#r#r#r#r#g$P.h$i$j$. ",
". k$l$m$z@g$.#.#.#.#.#.#.#j#Y@f@n$o$p$q$<@r$s$t$u$G.v$w$b$x$y$z$A$B$.#.#.#.#.#.#.#.#j#P.C$D$j$. ",
". ~.E$F$+#=#g$1$g$1$1$g$1$G$_$H$I$J$K$L$M$N$O$P$Q$R$S$T$U$V$W$X$Y$Z$G$g$1$1$g$1$1$g$3#{+}#`$ %. ",
". .%+%@%#%G#=#G$G$G$G$G$G$$%%%&%*%=%-%;%>%,%'%)%1@@@!%~%y+Y+{%]%^%/%(%$%G$G$G$G$G$=#(%_%E$:%<%. ",
". [%}%|%{+1%G#f$G#f$f$G#f$f$G#(%2%3%4%5%6%K$7%8%9%0%|@a%D#b%c%d%e%f%<#G#f$f$G#f$f$G#_$-@{.g%h%. ",
". i%j%@#k%2%1%1%1%1%1%1%1%1%1%1%1%l%-#m%{@n%o%p%q%r%s%t%u%v%w%x%y%f%z%1%1%1%1%1%1%1%A%:$t.B%C%. ",
". D%E%}#F%Y@l%l%l%l%l%l%l%l%l%l%l%l%A%&%G%4%H%I%J%K%L%M%N%O%+@P%Q%R%z%l%l%l%l%l%l%l%&%S%<$T%U%. ",
". 9@E%}#F%&%A%<#A%<#<#A%<#<#A%<#<#<#A%A%V%W%f%X%Y%Z%`% &.&+&=+0+@&#&z%A%<#<#A%<#<#A%~@$&%&m#&&. ",
". *&=&{.S%~@&%V%&%V%V%&%V%V%&%V%V%V%&%V%&%-&;&>&,&'&)&!&~&{&]&^&s@/&(&~@V%V%&%V%V%&%k%_&D$:&<&. ",
". [&}&}%$&|&~@~@~@~@~@~@~@~@~@~@~@~@~@~@~@3%1&H%2&3&4&5&6&Y+m.7&{&8&9&Q+~@~@~@~@~@~@Q+0&a&b&c&. ",
". d&e&<$}#Q+|&k%k%k%k%k%k%k%k%k%k%k%k%k%k%:$1&7#f&g&h&i&j&k&l&m&n&o&p&q&Q+k%k%k%k%|&r&s&0@t&u&. ",
". J#$#v&k#r&R%w&R%w&w&R%w&w&R%w&w&w&R%w&Q+x&y&z&A&B&C&D&E&F&G&H&I&~#3.J&K&x&R%w&w&R%H$R.L&M&N&. ",
". O&P&Q&R&S&x&T&x&T&T&x&T&T&x&T&T&T&x&T&T&x&m%y&U&7#V&W&X&Y&Z&`& *.*+*@*#*$*m%%*T&x&&*^+$#**=*. ",
". -*m#;*>*y&S&S&S&S&S&S&S&S&S&S&S&S&S&S&S&S&S&,*'*)*!*~*{*]*^*/*(*_*:*<*[*}*|*,*S&S&1*2*1#3*4*. ",
". 5*6*7*^+8*y&y&y&y&y&y&y&y&y&y&y&y&y&y&y&y&y&y&'*'*9*0*a*b*c*d*e*f*g*h*i*j*k*l*'*y&m*;*m#n*o*. ",
". p*q*g%i$r*m*s*m*s*s*m*s*s*m*s*s*s*m*s*s*m*s*s*m*s*m*t*R.j+u*Q.v*w*x*y*z*h*A*B*)*m*R.7*C*D*E*. ",
". F*G*$#M+t.............................................t.t.H*I*J*K*L*M*N*O*P*Q*R*t.R.:%b&S*T*. ",
". <&.%K#L&^+t.t.t.t.t.t.t.t.t.t.t.t.t.t.t.t.t.t.t.t.t.t.t.t.U*H*>@V*]+[$W*X*Y*Z*`* =.=1#+=d&@=. ",
". #=$=.%%=&=j+*=H*^+^+H*^+^+H*^+^+^+H*^+^+H*^+^+H*^+^+H*^+H*^+H*j+==-=;=B&>=,='=)=!=V*~=9@{=]=. ",
". ^=/=(=_=:=<=[=[=[=[=2*[=[=2*[=[=[=2*[=[=2*[=[=2*[=[=2*[=2*[=[=2*{@=%&=A&}=|=J$1=2=Q.3=[$4=5=. ",
". 6=7=8=B&9=0=a=b=b=b=b=b=b=b=b=b=b=b=b=b=b=b=b=b=b=b=b=b=b=b=b=b=b=b=c=d=e=f=g=h=i=c*j=/=k=l=. ",
". . m=n=o=p=q=r=s=t=t=u=t=t=u=t=t=t=u=t=t=u=t=t=u=t=t=u=t=u=t=t=u=t=t=u=u=r=v=w=x=y=z=A=B=C=. . ",
". . . D=E=F=G=H=I=I=I=I=I=I=I=I=I=I=I=I=I=I=I=I=I=I=I=I=I=I=I=I=I=I=I=I=I=I=I=J=K=L=M=N=O=. . . ",
". . . . P=Q=R=S=T=U=U=U=U=U=U=U=U=U=U=U=U=U=U=U=U=U=U=U=U=U=U=U=U=U=U=U=U=U=U=V=W=X=Y=Z=. . . . ",
". . . . . . `= -.-+-+-+-+-+-+-@-@-@-@-@-@-@-@-@-@-@-@-@-@-@-@-@-@-@-@-@-@-@-@-#-$-%-. . . . . . "};
