/* XPM */
static char * BotonListinInterfonosSinInfo_xpm[] = {
"30 30 529 2",
"  	c None",
". 	c #677A8D",
"+ 	c #677A8C",
"@ 	c #677A8B",
"# 	c #FBBB65",
"$ 	c #FCB958",
"% 	c #F9B25A",
"& 	c #FBAD4D",
"* 	c #FFC957",
"= 	c #FFDE6B",
"- 	c #FFE371",
"; 	c #FFDA68",
"> 	c #FFC454",
", 	c #F59F3D",
"' 	c #F4993D",
") 	c #FEB244",
"! 	c #FFBC4C",
"~ 	c #FEC455",
"{ 	c #FEC556",
"] 	c #FFC556",
"^ 	c #FEC454",
"/ 	c #FEB648",
"( 	c #FFA83C",
"_ 	c #E68B33",
": 	c #677A8A",
"< 	c #FD9830",
"[ 	c #FFA034",
"} 	c #FFA236",
"| 	c #FFA438",
"1 	c #FFA336",
"2 	c #FFA136",
"3 	c #FF9B31",
"4 	c #F9912C",
"5 	c #D89456",
"6 	c #FE932C",
"7 	c #FF982E",
"8 	c #FF9A2F",
"9 	c #FE9A2F",
"0 	c #FB9932",
"a 	c #F29839",
"b 	c #E9963E",
"c 	c #F99934",
"d 	c #FE992F",
"e 	c #FF952D",
"f 	c #FA8E29",
"g 	c #BC793D",
"h 	c #D58A47",
"i 	c #FD8F2A",
"j 	c #FE942D",
"k 	c #FF9930",
"l 	c #FE9930",
"m 	c #FF9A30",
"n 	c #F89834",
"o 	c #E7943F",
"p 	c #D59552",
"q 	c #B8946E",
"r 	c #AD967E",
"s 	c #AA9279",
"t 	c #B59573",
"u 	c #DC954C",
"v 	c #FE9A30",
"w 	c #F68A28",
"x 	c #B26C2C",
"y 	c #D48946",
"z 	c #FD8E2A",
"A 	c #FF942D",
"B 	c #FF9830",
"C 	c #F89835",
"D 	c #CD9152",
"E 	c #AF9070",
"F 	c #A4998D",
"G 	c #A6A3A1",
"H 	c #ABABAB",
"I 	c #AEAEAE",
"J 	c #ACACAC",
"K 	c #A69F99",
"L 	c #B69068",
"M 	c #E8943F",
"N 	c #FE922C",
"O 	c #F48928",
"P 	c #AF6829",
"Q 	c #D28946",
"R 	c #FB8D29",
"S 	c #FF932C",
"T 	c #FF972F",
"U 	c #E09243",
"V 	c #8C8987",
"W 	c #9D9D9C",
"X 	c #ADADAD",
"Y 	c #A8A8A7",
"Z 	c #A6A6A5",
"` 	c #A8A8A8",
" .	c #BDBCBB",
"..	c #C0956A",
"+.	c #FE9830",
"@.	c #FE912C",
"#.	c #F38828",
"$.	c #AD6828",
"%.	c #D18845",
"&.	c #FA8B29",
"*.	c #FF962F",
"=.	c #FE962F",
"-.	c #DF9144",
";.	c #8F8F8F",
">.	c #929292",
",.	c #949494",
"'.	c #9B9B9B",
").	c #A6A6A6",
"!.	c #AAAAAA",
"~.	c #B0B0B0",
"{.	c #BCBCBC",
"].	c #DBDBDA",
"^.	c #C29970",
"/.	c #FE9630",
"(.	c #FD902B",
"_.	c #F18727",
":.	c #AC6728",
"<.	c #D08745",
"[.	c #F88A28",
"}.	c #FE8F2B",
"|.	c #FF942E",
"1.	c #FF952F",
"2.	c #DF9043",
"3.	c #909090",
"4.	c #959595",
"5.	c #BABABA",
"6.	c #B3B38D",
"7.	c #B8B889",
"8.	c #B7B7B2",
"9.	c #BDBDBD",
"0.	c #C1976E",
"a.	c #FE952F",
"b.	c #FC8E2B",
"c.	c #EF8527",
"d.	c #AB6628",
"e.	c #CF8645",
"f.	c #F68828",
"g.	c #FD8E2B",
"h.	c #FF932E",
"i.	c #DF8F43",
"j.	c #B9B973",
"k.	c #EDED13",
"l.	c #F4F40A",
"m.	c #C8C855",
"n.	c #ADADA8",
"o.	c #C0966D",
"p.	c #FE932E",
"q.	c #FF922E",
"r.	c #FA8C2A",
"s.	c #ED8426",
"t.	c #AA6528",
"u.	c #CD8544",
"v.	c #F38627",
"w.	c #FB8C2A",
"x.	c #FF912D",
"y.	c #FE922D",
"z.	c #FE9535",
"A.	c #F8B679",
"B.	c #F6B578",
"C.	c #F5B377",
"D.	c #F3B175",
"E.	c #F0B074",
"F.	c #EEAD72",
"G.	c #EDAC71",
"H.	c #D1A175",
"I.	c #AFAFAF",
"J.	c #E7E74F",
"K.	c #FEFE00",
"L.	c #E6E618",
"M.	c #A1A192",
"N.	c #C0956D",
"O.	c #FE922E",
"P.	c #FE912D",
"Q.	c #F88A2A",
"R.	c #EB8226",
"S.	c #A86428",
"T.	c #CC8545",
"U.	c #F18626",
"V.	c #F98B2A",
"W.	c #FE902D",
"X.	c #FA973E",
"Y.	c #E1E4E7",
"Z.	c #EAECEE",
"`.	c #E9EBED",
" +	c #E8EAEC",
".+	c #E6E9EB",
"++	c #E5E8EA",
"@+	c #E5E7E9",
"#+	c #CCCDCF",
"$+	c #969696",
"%+	c #939393",
"&+	c #C6C66F",
"*+	c #F5F508",
"=+	c #FCFC02",
"-+	c #D3D34B",
";+	c #ABABA5",
">+	c #F68929",
",+	c #E98125",
"'+	c #A76427",
")+	c #CA8445",
"!+	c #EF8426",
"~+	c #F78A29",
"{+	c #FE8F2C",
"]+	c #FF902D",
"^+	c #FA963E",
"/+	c #ECEDF0",
"(+	c #FDFDFC",
"_+	c #FCFCFB",
":+	c #FBFBFA",
"<+	c #FAFAF9",
"[+	c #F9F9F8",
"}+	c #DBDADA",
"|+	c #C1C1C1",
"1+	c #B6B6B4",
"2+	c #DEDEA8",
"3+	c #E3E3A1",
"4+	c #AAAAA0",
"5+	c #C6C6C6",
"6+	c #C2966E",
"7+	c #FD8F2C",
"8+	c #F48829",
"9+	c #E78025",
"0+	c #A66327",
"a+	c #C98344",
"b+	c #ED8325",
"c+	c #F58828",
"d+	c #FC8D2B",
"e+	c #FD8E2C",
"f+	c #F9953E",
"g+	c #EDEFF0",
"h+	c #E1E1E6",
"i+	c #CFCDD6",
"j+	c #CDCCD5",
"k+	c #CDCCD4",
"l+	c #BAB9BF",
"m+	c #D1D1D1",
"n+	c #C2C2C2",
"o+	c #B4B4B4",
"p+	c #B7B7B7",
"q+	c #C9C9C9",
"r+	c #D3D3D3",
"s+	c #C1956E",
"t+	c #FC8E2C",
"u+	c #FB8D2B",
"v+	c #F28628",
"w+	c #E57E24",
"x+	c #A56127",
"y+	c #C78244",
"z+	c #EA8125",
"A+	c #F28728",
"B+	c #F98B2B",
"C+	c #F98C2B",
"D+	c #F6943D",
"E+	c #EEEFF1",
"F+	c #F6F8F9",
"G+	c #C8E5EE",
"H+	c #F1F4F4",
"I+	c #F8F8F7",
"J+	c #DADAD9",
"K+	c #CDCDCD",
"L+	c #D2D2D2",
"M+	c #BEBEBE",
"N+	c #BF956E",
"O+	c #F98C2C",
"P+	c #F88B2B",
"Q+	c #EF8528",
"R+	c #E27D24",
"S+	c #A36126",
"T+	c #C58144",
"U+	c #E88024",
"V+	c #F6892A",
"W+	c #F78A2B",
"X+	c #F3923C",
"Y+	c #ECEDEF",
"Z+	c #FAFBFA",
"`+	c #ECF0F2",
" @	c #BFD9E7",
".@	c #C3DBE5",
"+@	c #F6F6F6",
"@@	c #D8D8D8",
"#@	c #C5C5C5",
"$@	c #9E9E9E",
"%@	c #828282",
"&@	c #858585",
"*@	c #A4A4A4",
"=@	c #C5C5C4",
"-@	c #BF946E",
";@	c #ED8327",
">@	c #E07B23",
",@	c #A16026",
"'@	c #C48044",
")@	c #F4872A",
"!@	c #F5882A",
"~@	c #F08E3B",
"{@	c #E7E9EB",
"]@	c #F5F7F8",
"^@	c #A2C3DA",
"/@	c #89B4CF",
"(@	c #DEE5E9",
"_@	c #D0CFD7",
":@	c #D0D0D7",
"<@	c #BCBCC1",
"[@	c #C4C4C4",
"}@	c #B8B8B8",
"|@	c #BD936E",
"1@	c #F4882B",
"2@	c #EA8127",
"3@	c #DE7A23",
"4@	c #A05F26",
"5@	c #C37F43",
"6@	c #E37C23",
"7@	c #EB8126",
"8@	c #F28629",
"9@	c #F3862A",
"0@	c #EF8D3B",
"a@	c #E7E9EC",
"b@	c #E6EBEF",
"c@	c #CFDEE6",
"d@	c #BCDDE8",
"e@	c #EFF2F2",
"f@	c #F5F5F4",
"g@	c #D8D8D7",
"h@	c #C0C0C0",
"i@	c #C8C8C8",
"j@	c #D4D4D4",
"k@	c #DBDBDB",
"l@	c #BD926E",
"m@	c #F2862A",
"n@	c #F28529",
"o@	c #E77F26",
"p@	c #DC7822",
"q@	c #9F5E26",
"r@	c #C27F43",
"s@	c #E17B23",
"t@	c #E98026",
"u@	c #F08429",
"v@	c #F18529",
"w@	c #ED8C3A",
"x@	c #F7F8F8",
"y@	c #DBE5EC",
"z@	c #AECEE0",
"A@	c #CBDCE5",
"B@	c #EDEDEE",
"C@	c #E1E1E2",
"D@	c #A4A4A5",
"E@	c #CACACA",
"F@	c #DEDEDE",
"G@	c #CDCBCA",
"H@	c #BCB3AC",
"I@	c #C28856",
"J@	c #EF8429",
"K@	c #E57E26",
"L@	c #DA7722",
"M@	c #9D5D25",
"N@	c #C07E43",
"O@	c #DF7A22",
"P@	c #E77F25",
"Q@	c #ED8328",
"R@	c #EF8427",
"S@	c #EB8B39",
"T@	c #E6E8EC",
"U@	c #F5F7F7",
"V@	c #A7C5DA",
"W@	c #8FB5CE",
"X@	c #DEE6EA",
"Y@	c #D3D3DA",
"Z@	c #D5D4DA",
"`@	c #D4D2D9",
" #	c #CECED3",
".#	c #B0AFB1",
"+#	c #979797",
"@#	c #919191",
"##	c #CCCCCC",
"$#	c #B9895F",
"%#	c #D2823D",
"&#	c #EB842B",
"*#	c #E37D25",
"=#	c #D87622",
"-#	c #9C5D25",
";#	c #BF7D43",
">#	c #E57E25",
",#	c #EB8227",
"'#	c #E98A39",
")#	c #EEF0F1",
"!#	c #D7E3EA",
"~#	c #B9D9E6",
"{#	c #F0F2F2",
"]#	c #F4F5F4",
"^#	c #F4F4F3",
"/#	c #F3F3F2",
"(#	c #F0F0EF",
"_#	c #DDDDDC",
":#	c #B5B5B5",
"<#	c #CDCDCC",
"[#	c #E1E1E0",
"}#	c #CAC8C8",
"|#	c #E48839",
"1#	c #E17C24",
"2#	c #D57521",
"3#	c #9B5C25",
"4#	c #BE7C42",
"5#	c #DA7721",
"6#	c #E27C24",
"7#	c #E98027",
"8#	c #E68838",
"9#	c #E5E7EB",
"0#	c #F5F6F6",
"a#	c #CDDDE7",
"b#	c #A5C7DC",
"c#	c #CEDBE4",
"d#	c #E4E3E6",
"e#	c #E3E2E5",
"f#	c #E2E1E4",
"g#	c #E1E0E3",
"h#	c #E1E0E2",
"i#	c #E0DFE2",
"j#	c #DEDDE0",
"k#	c #DEDDDF",
"l#	c #EAE9E9",
"m#	c #EFEFEE",
"n#	c #CECCCB",
"o#	c #E28637",
"p#	c #E88027",
"q#	c #DF7A24",
"r#	c #D37321",
"s#	c #995B25",
"t#	c #BC7C42",
"u#	c #D87521",
"v#	c #E07A24",
"w#	c #E48737",
"x#	c #E5E7EA",
"y#	c #F5F5F6",
"z#	c #AEC8DB",
"A#	c #96B8CF",
"B#	c #EAEAEC",
"C#	c #DCDBDF",
"D#	c #DBDADF",
"E#	c #DAD9DD",
"F#	c #D9D8DD",
"G#	c #D9D8DC",
"H#	c #D8D7DB",
"I#	c #D8D6DB",
"J#	c #E7E7E8",
"K#	c #EEEEED",
"L#	c #CECBCB",
"M#	c #E08537",
"N#	c #E67E26",
"O#	c #DD7823",
"P#	c #D17120",
"Q#	c #985A24",
"R#	c #BB7B42",
"S#	c #D67320",
"T#	c #DE7923",
"U#	c #E57D26",
"V#	c #E28537",
"W#	c #E5E5E9",
"X#	c #F7F6F6",
"Y#	c #F1F1F2",
"Z#	c #EDEEEF",
"`#	c #F4F3F3",
" $	c #F4F3F2",
".$	c #F3F2F2",
"+$	c #F2F1F1",
"@$	c #F1F0F0",
"#$	c #F1EFEF",
"$$	c #F0EFEF",
"%$	c #EFEEEE",
"&$	c #CDCBCB",
"*$	c #DE8337",
"=$	c #E47D26",
"-$	c #DB7723",
";$	c #CF7020",
">$	c #975924",
",$	c #B67A46",
"'$	c #D0701F",
")$	c #D97622",
"!$	c #E17B25",
"~$	c #E37C25",
"{$	c #DF8234",
"]$	c #C8C5C7",
"^$	c #D0CECF",
"/$	c #CFCDCE",
"($	c #D0CDCE",
"_$	c #CFCCCD",
":$	c #CDCCCC",
"<$	c #CECCCC",
"[$	c #CDCACB",
"}$	c #CCC9C9",
"|$	c #CCC8C9",
"1$	c #CBC8C9",
"2$	c #CBC8C8",
"3$	c #B8B3B1",
"4$	c #DB8034",
"5$	c #D67422",
"6$	c #C96C1E",
"7$	c #9E6A3D",
"8$	c #BC651C",
"9$	c #CE6F21",
"0$	c #D87624",
"a$	c #DF7A25",
"b$	c #DF7B26",
"c$	c #D98035",
"d$	c #D98036",
"e$	c #D87E33",
"f$	c #DF7A26",
"g$	c #E07A25",
"h$	c #D57423",
"i$	c #C96C1F",
"j$	c #B4601B",
"k$	c #A35D22",
"l$	c #C06A21",
"m$	c #CD7226",
"n$	c #D57728",
"o$	c #D67828",
"p$	c #D37626",
"q$	c #C66D23",
"r$	c #B8641D",
"s$	c #8D511E",
"t$	c #9E5E29",
"u$	c #B66928",
"v$	c #C8742D",
"w$	c #C9752E",
"x$	c #C5712B",
"y$	c #AC6121",
"z$	c #8B5120",
"A$	c #9D6231",
"B$	c #9D5C26",
"C$	c #985A27",
"D$	c #67778A",
". + + @ # $ $ $ $ $ $ $ $ $ $ $ $ $ $ $ $ $ $ $ $ % @ @ + . ",
"+ . & * = - - - - - - - - - - - - - - - - - - - - ; > , . + ",
"+ ' ) ! ~ { ] { { ] { { ] { { ] { { ] { { ] { { ] ^ / ( _ + ",
": < [ } | } } } } } } } } } } } } } } } } } } } 1 | 2 3 4 : ",
"5 6 7 8 8 8 8 8 8 8 8 8 8 8 8 8 8 9 0 a b c d 8 8 8 8 e f g ",
"h i j k l l m l l m l l m l l n o p q r s t u c v l l 6 w x ",
"y z A B k k k k k k k k k C D E F G H I I J K L M l B N O P ",
"Q R S T B B B B B B B B B U V W H I I X Y Z `  ...+.T @.#.$.",
"%.&.@.*.=.=.*.=.=.*.=.=.*.-.;.>.,.'.).!.X ~.{.].^./.=.(._.:.",
"<.[.}.|.1.1.1.1.1.1.1.1.1.2.3.4.,.;.5.X 6.7.8.9.0.a.|.b.c.d.",
"e.f.g.h.h.h.h.h.h.h.h.h.h.i.3.4.4.>.X j.k.l.m.n.o.p.q.r.s.t.",
"u.v.w.x.y.z.A.B.C.D.E.F.G.H.3.4.4.>.I.J.K.K.L.M.N.O.P.Q.R.S.",
"T.U.V.W.x.X.Y.Z.`. +.+++@+#+3.$+4.%+I.&+*+=+-+;+N.P.W.>+,+'+",
")+!+~+{+]+^+/+(+_+_+:+<+[+}+3.4.4.>.|+1+2+3+4+5+6+W.7+8+9+0+",
"a+b+c+d+e+f+g+:+h+i+j+k+k+l+3.4.4.>.m+n+o+p+q+r+s+t+u+v+w+x+",
"y+z+A+B+C+D+E+:+:+F+G+H+I+J+3.4.4.>.K+L+M+o+>.{.N+O+P+Q+R+S+",
"T+U+c.V+W+X+Y+Z+`+ @.@+@+@@@3.4.4.>.#@$@%@&@*@=@-@W+V+;@>@,@",
"'@w+;@)@!@~@{@]@^@/@(@_@:@<@3.4.4.>.[@}@X J !.5+|@1@)@2@3@4@",
"5@6@7@8@9@0@a@<+b@c@d@e@f@g@3.4.4.>.|+~.h@i@j@k@l@m@n@o@p@q@",
"r@s@t@u@v@w@a@x@y@z@A@B@B@C@D@>.4.%+E@@@F@k@G@H@I@v@J@K@L@M@",
"N@O@P@Q@R@S@T@U@V@W@X@Y@Z@`@ #.#+#@#5+##h@Z $#%#&#R@;@*#=#-#",
";#p@>#,#;@'#T@I+)#!#~#{#]#^#/#(#_#o+:#<#[#}#|#;@;@;@,#1#2#3#",
"4#5#6#7#2@8#9#0#a#b#c#d#e#f#g#h#i#j#k#l#m#n#o#2@2@2@p#q#r#s#",
"t#u#v#o@o@w#x#y#z#A#B#C#D#E#F#G#H#I#I#J#K#L#M#o@o@o@N#O#P#Q#",
"R#S#T#U#K@V#W#X#Y#Z#`# $.$+$@$#$$$%$%$%$%$&$*$K@K@K@=$-$;$>$",
",$'$)$!$~${$]$^$/$($_$:$<$L#[$}$|$1$2$2$2$3$4$~$~$~$!$5$6$7$",
"@ 8$9$0$a$b$c$c$c$c$c$c$d$c$c$c$c$c$c$c$c$e$f$g$g$a$h$i$j$: ",
". k$l$m$n$o$o$o$o$o$o$o$o$o$o$o$o$o$o$o$o$o$o$o$o$p$q$r$s$. ",
". . t$u$v$w$w$w$w$w$w$w$w$w$w$w$w$w$w$w$w$w$w$w$w$x$y$z$. . ",
". . . : A$B$B$B$B$B$B$B$B$B$B$B$B$B$B$B$B$B$B$B$B$C$D$. . . "};
