/* XPM */
static char * BotonEstadoCentralitasSinInfoRollover_xpm[] = {
"30 30 504 2",
"  	c None",
". 	c #677A8D",
"+ 	c #677A8B",
"@ 	c #677A8A",
"# 	c #FBC46B",
"$ 	c #FBC367",
"% 	c #FBC266",
"& 	c #F8BF6F",
"* 	c #FDB445",
"= 	c #FFD563",
"- 	c #FFE371",
"; 	c #FFE271",
"> 	c #FFDA69",
", 	c #FFC252",
"' 	c #F49E3D",
") 	c #677A8C",
"! 	c #FEA439",
"~ 	c #FEB848",
"{ 	c #FEBD4E",
"] 	c #FEBF50",
"^ 	c #FEBE4F",
"/ 	c #FEB548",
"( 	c #FEA73B",
"_ 	c #E58A33",
": 	c #FF9E33",
"< 	c #FFA135",
"[ 	c #FFA336",
"} 	c #FF9F34",
"| 	c #FF9F33",
"1 	c #FE9F34",
"2 	c #FFA136",
"3 	c #FF9A31",
"4 	c #F9902C",
"5 	c #F18928",
"6 	c #FF952C",
"7 	c #FF982E",
"8 	c #FF9A2F",
"9 	c #FB9931",
"0 	c #F49837",
"a 	c #E49645",
"b 	c #D0914E",
"c 	c #E39644",
"d 	c #FA9933",
"e 	c #FF992F",
"f 	c #FE942D",
"g 	c #F88C29",
"h 	c #B6783F",
"i 	c #F08727",
"j 	c #FE922C",
"k 	c #FE972F",
"l 	c #FE9A30",
"m 	c #FE9931",
"n 	c #F0973A",
"o 	c #D7934C",
"p 	c #BB9266",
"q 	c #AF9B86",
"r 	c #A9A39D",
"s 	c #ABA29A",
"t 	c #A9A29A",
"u 	c #B99672",
"v 	c #E49542",
"w 	c #FC9932",
"x 	c #FE9930",
"y 	c #F48A28",
"z 	c #B27136",
"A 	c #F08829",
"B 	c #FF942E",
"C 	c #FF9931",
"D 	c #FF9B32",
"E 	c #ED973D",
"F 	c #9B8C7C",
"G 	c #A3A09C",
"H 	c #ACACAB",
"I 	c #AFAFAF",
"J 	c #AEAEAE",
"K 	c #ABABAB",
"L 	c #A5A5A5",
"M 	c #ACA49B",
"N 	c #DC954A",
"O 	c #FE932E",
"P 	c #F48B2A",
"Q 	c #B27237",
"R 	c #F08B2B",
"S 	c #FF9630",
"T 	c #FF9B34",
"U 	c #FF9E35",
"V 	c #E59743",
"W 	c #939393",
"X 	c #939392",
"Y 	c #9E9E9E",
"Z 	c #A4A4A4",
"` 	c #AAAAAA",
" .	c #A9A9A9",
"..	c #A9A9AA",
"+.	c #BBBBBB",
"@.	c #DDDDDD",
"#.	c #D49856",
"$.	c #FF9D34",
"%.	c #FE9631",
"&.	c #F48D2D",
"*.	c #B27338",
"=.	c #EF8C2D",
"-.	c #FE9833",
";.	c #FE9E36",
">.	c #FEA037",
",.	c #E59944",
"'.	c #959595",
").	c #929291",
"!.	c #9B9B9B",
"~.	c #B7B7B8",
"{.	c #B1B19B",
"].	c #B7B788",
"^.	c #B6B6B1",
"/.	c #C3C3C4",
"(.	c #D49A58",
"_.	c #FE9F36",
":.	c #F4902F",
"<.	c #B27439",
"[.	c #F08F2F",
"}.	c #FF9B35",
"|.	c #FFA038",
"1.	c #FFA439",
"2.	c #E59C47",
"3.	c #969695",
"4.	c #9D9D9E",
"5.	c #B1B19C",
"6.	c #E4E423",
"7.	c #F6F60A",
"8.	c #CDCD4B",
"9.	c #D59C5A",
"0.	c #FFA339",
"a.	c #FE9B35",
"b.	c #F49231",
"c.	c #B2763A",
"d.	c #F09131",
"e.	c #FF9D37",
"f.	c #FFA33A",
"g.	c #FFA73C",
"h.	c #E59E48",
"i.	c #9C9C9D",
"j.	c #C7C794",
"k.	c #FEFE03",
"l.	c #FEFE00",
"m.	c #E6E616",
"n.	c #A3A39F",
"o.	c #D59F5C",
"p.	c #FFA53B",
"q.	c #FE9D37",
"r.	c #F49433",
"s.	c #B2783C",
"t.	c #EF9334",
"u.	c #FEA039",
"v.	c #FEA53D",
"w.	c #FEA93E",
"x.	c #FAA841",
"y.	c #EEA449",
"z.	c #C99759",
"A.	c #B4B4AC",
"B.	c #DBDB4A",
"C.	c #F9F92D",
"D.	c #C4C471",
"E.	c #D29F5E",
"F.	c #F0A547",
"G.	c #DB9D4F",
"H.	c #EBA34A",
"I.	c #FDA83F",
"J.	c #FEA73E",
"K.	c #FE9F3A",
"L.	c #F49636",
"M.	c #B2793D",
"N.	c #EF9536",
"O.	c #FFA23C",
"P.	c #FFA73F",
"Q.	c #FFAB42",
"R.	c #F7A844",
"S.	c #E1A04F",
"T.	c #C39864",
"U.	c #B49D81",
"V.	c #A9A196",
"W.	c #A99F93",
"X.	c #9C9C9C",
"Y.	c #919191",
"Z.	c #A3A3A3",
"`.	c #CBCBCB",
" +	c #BFBFBB",
".+	c #C0C0B5",
"++	c #B6B6B5",
"@+	c #D1D1D1",
"#+	c #A69885",
"$+	c #A9A094",
"%+	c #ACA193",
"&+	c #AAA093",
"*+	c #BD9B70",
"=+	c #EDA64C",
"-+	c #FFAA41",
";+	c #FEA23D",
">+	c #F49838",
",+	c #B27A3F",
"'+	c #EF9839",
")+	c #FFA53F",
"!+	c #FFAB43",
"~+	c #EAA64E",
"{+	c #A3927D",
"]+	c #A5A19C",
"^+	c #ACABAA",
"/+	c #A0A0A0",
"(+	c #949494",
"_+	c #DFDFDE",
":+	c #C7C7C7",
"<+	c #C6C6C7",
"[+	c #C4C4C4",
"}+	c #A5A5A4",
"|+	c #A49B8F",
"1+	c #D8A058",
"2+	c #FFAD44",
"3+	c #FEA540",
"4+	c #F49B3B",
"5+	c #B27C41",
"6+	c #EF9A3B",
"7+	c #FFA741",
"8+	c #FFAD45",
"9+	c #DBA256",
"0+	c #949493",
"a+	c #A6A6A6",
"b+	c #A7A7A7",
"c+	c #C0C0C0",
"d+	c #D6D6D6",
"e+	c #9F9F9E",
"f+	c #C2C2C1",
"g+	c #8A8A89",
"h+	c #828282",
"i+	c #BFBFBF",
"j+	c #9F9F9F",
"k+	c #BABABA",
"l+	c #DFDFDF",
"m+	c #CDA36B",
"n+	c #FFAF46",
"o+	c #FEA742",
"p+	c #F49D3D",
"q+	c #B27D42",
"r+	c #EF9E3F",
"s+	c #FEAB45",
"t+	c #FEB148",
"u+	c #DBA459",
"v+	c #979797",
"w+	c #909090",
"x+	c #BCBCBC",
"y+	c #AEAEA7",
"z+	c #B0B0A2",
"A+	c #B5B5B5",
"B+	c #C3C3C3",
"C+	c #ABABAA",
"D+	c #ADADAD",
"E+	c #ACACAC",
"F+	c #C6C6C6",
"G+	c #AFAFAC",
"H+	c #AFAF9E",
"I+	c #B7B7B6",
"J+	c #C5C5C5",
"K+	c #CDA56C",
"L+	c #FEB24A",
"M+	c #FEAA45",
"N+	c #F4A140",
"O+	c #B27F44",
"P+	c #EFA041",
"Q+	c #FFAD47",
"R+	c #FFB34A",
"S+	c #DBA65A",
"T+	c #989898",
"U+	c #A1A1A1",
"V+	c #A8A897",
"W+	c #DEDE27",
"X+	c #EFEF0D",
"Y+	c #BFBF67",
"Z+	c #ADADAE",
"`+	c #A0A09F",
" @	c #C1C1C1",
".@	c #BEBEBE",
"+@	c #CCCCCC",
"@@	c #D8D8D8",
"#@	c #A9A9A3",
"$@	c #D4D439",
"%@	c #F1F10B",
"&@	c #C9C952",
"*@	c #AFAFB0",
"=@	c #CDA66E",
"-@	c #FFB44C",
";@	c #FEAC47",
">@	c #F4A342",
",@	c #B28045",
"'@	c #EFA242",
")@	c #FEB049",
"!@	c #FEB64D",
"~@	c #DBA85B",
"{@	c #959594",
"]@	c #9F9FA1",
"^@	c #CFCF86",
"/@	c #DEDE1B",
"(@	c #A0A0A1",
"_@	c #A1A1A0",
":@	c #B8B8B8",
"<@	c #9E9E9D",
"[@	c #C3C39E",
"}@	c #FEFE09",
"|@	c #EEEE0E",
"1@	c #9F9F95",
"2@	c #CDA86F",
"3@	c #FEB74E",
"4@	c #FEAF49",
"5@	c #F4A644",
"6@	c #B28247",
"7@	c #EFA445",
"8@	c #FFB24B",
"9@	c #FFB84F",
"0@	c #DBAA5E",
"a@	c #B6B6A0",
"b@	c #E7E72C",
"c@	c #FAFA1A",
"d@	c #C6C666",
"e@	c #97948F",
"f@	c #C6BCAC",
"g@	c #C0AD90",
"h@	c #9A9A9A",
"i@	c #B6B6AD",
"j@	c #DDDD3C",
"k@	c #FCFC19",
"l@	c #D2D253",
"m@	c #B1B1B0",
"n@	c #CDA970",
"o@	c #FFBA50",
"p@	c #FEB14C",
"q@	c #F4A846",
"r@	c #B28348",
"s@	c #EFA647",
"t@	c #FFB44E",
"u@	c #FFBA52",
"v@	c #DBAC5F",
"w@	c #C2C2C3",
"x@	c #C8C8BA",
"y@	c #CBCBB2",
"z@	c #CFCFD0",
"A@	c #C5A369",
"B@	c #F4B858",
"C@	c #EDB55A",
"D@	c #CACACB",
"E@	c #C2C2BA",
"F@	c #CDCDB2",
"G@	c #B2B2AE",
"H@	c #D0D0D0",
"I@	c #CDAB71",
"J@	c #FFBC53",
"K@	c #FEB44F",
"L@	c #F4AA49",
"M@	c #B28549",
"N@	c #EFA94A",
"O@	c #FEB651",
"P@	c #FEBD55",
"Q@	c #DBAE61",
"R@	c #DBDBDB",
"S@	c #B9B9B8",
"T@	c #DAAF65",
"U@	c #FEC056",
"V@	c #EEB85B",
"W@	c #9D9D9D",
"X@	c #CDAC73",
"Y@	c #FEBF56",
"Z@	c #F4AC4C",
"`@	c #B2864B",
" #	c #EFAB4C",
".#	c #FFB953",
"+#	c #FFC057",
"@#	c #DBB064",
"##	c #C3C3C2",
"$#	c #8B8B8B",
"%#	c #8D8D8D",
"&#	c #DAB168",
"*#	c #FFC35A",
"=#	c #EFBB5E",
"-#	c #8C8C8C",
";#	c #CDAE76",
">#	c #FFC259",
",#	c #FEB954",
"'#	c #F4AF4E",
")#	c #B2884C",
"!#	c #EFAE4E",
"~#	c #FFBC56",
"{#	c #DBB266",
"]#	c #A8A8A8",
"^#	c #AEAEAD",
"/#	c #DAB36A",
"(#	c #FFC65D",
"_#	c #EFBD61",
":#	c #A2A2A2",
"<#	c #C8C8C8",
"[#	c #CDAF77",
"}#	c #FFC45C",
"|#	c #FEBC56",
"1#	c #F4B150",
"2#	c #B2894E",
"3#	c #EFB050",
"4#	c #FEBE58",
"5#	c #FEC55C",
"6#	c #DCB567",
"7#	c #969696",
"8#	c #D3D3D2",
"9#	c #D9B46B",
"0#	c #FEC95F",
"a#	c #EFC062",
"b#	c #919190",
"c#	c #C2C2C2",
"d#	c #B7B7B7",
"e#	c #D1D1D0",
"f#	c #DCDCDC",
"g#	c #CCAF77",
"h#	c #FEC75E",
"i#	c #F4B452",
"j#	c #B28B4F",
"k#	c #EFB253",
"l#	c #FFC15B",
"m#	c #FFC85F",
"n#	c #F5C664",
"o#	c #B2A07B",
"p#	c #949290",
"q#	c #DEDEDE",
"r#	c #C6C4C0",
"s#	c #BAB29F",
"t#	c #E7BD67",
"u#	c #FFCB61",
"v#	c #FBC962",
"w#	c #BDA677",
"x#	c #94918C",
"y#	c #C9C7C4",
"z#	c #BBB4A5",
"A#	c #DBB76D",
"B#	c #FFCA60",
"C#	c #FEC15B",
"D#	c #F4B655",
"E#	c #B59055",
"F#	c #E6AE52",
"G#	c #FCC05B",
"H#	c #FFC860",
"I#	c #FFCE64",
"J#	c #F9CA65",
"K#	c #CBAE6F",
"L#	c #A09783",
"M#	c #9D9C98",
"N#	c #CAC6BC",
"O#	c #C5B99F",
"P#	c #C4AF80",
"Q#	c #DAB86E",
"R#	c #F1C566",
"S#	c #FECD64",
"T#	c #FCCC64",
"U#	c #D4B46C",
"V#	c #A49980",
"W#	c #959490",
"X#	c #CAC7BE",
"Y#	c #C4BAA4",
"Z#	c #C6B186",
"`#	c #D6B670",
" $	c #EDC367",
".$	c #FDCD64",
"+$	c #FFCB62",
"@$	c #FCC05C",
"#$	c #EDB455",
"$$	c #AC8E5C",
"%$	c #F1B95A",
"&$	c #FCC360",
"*$	c #FECB65",
"=$	c #FECF67",
"-$	c #FECE67",
";$	c #F2C769",
">$	c #D4B46F",
",$	c #EEC56D",
"'$	c #F8CC69",
")$	c #FDCE68",
"!$	c #F6CA69",
"~$	c #D5B56E",
"{$	c #EAC36D",
"]$	c #F7CB6A",
"^$	c #FECD66",
"/$	c #FCC561",
"($	c #F2B95A",
"_$	c #D9A650",
":$	c #D6A753",
"<$	c #F2BD61",
"[$	c #FBC666",
"}$	c #FDC968",
"|$	c #FAC566",
"1$	c #EFBB5F",
"2$	c #DFAE56",
"3$	c #A88546",
"4$	c #CAA155",
"5$	c #E8BA65",
"6$	c #F0C069",
"7$	c #F0C169",
"8$	c #EABB65",
"9$	c #D1A657",
"0$	c #A68649",
"a$	c #B99B61",
"b$	c #B99A5F",
"c$	c #B99A5E",
"d$	c #B89A5E",
"e$	c #B09563",
". + @ @ # $ $ $ $ $ $ $ $ $ $ $ $ $ $ $ $ $ $ $ % & @ + . . ",
"+ @ * = - - - - - - - - - - - - - - - - - - - - ; > , ' . ) ",
"@ ! ~ { ] ] ] ] ] ] ] ] ] ] ] ] ] ] ] ] ] ] ] ] ] ^ / ( _ ) ",
"@ : < [ } | | | | | | | | | | 1 | | | | | | | | | < 2 3 4 @ ",
"5 6 7 8 8 8 8 8 8 8 8 8 9 0 a b c d 8 8 8 8 8 8 8 8 e f g h ",
"i j k l l l l l l m n o p q r s t u v w l l l l l l x j y z ",
"A B C D D D D D D E F G H I I J K L M N D D D D D D D O P Q ",
"R S T U U U U U U V W X Y Z `  ...+.@.#.U U U U U U $.%.&.*.",
"=.-.;.>.>.>.>.>.>.,.'.'.).!.~.{.].^./.(.>.>.>.>.>.>._.-.:.<.",
"[.}.|.1.1.1.1.1.1.2.'.3.'.4.5.6.7.8.J 9.1.1.1.1.1.1.0.a.b.c.",
"d.e.f.g.g.g.g.g.g.h.'.3.'.i.j.k.l.m.n.o.g.g.g.g.g.g.p.q.r.s.",
"t.u.v.w.w.w.w.x.y.z.W 3.'.Y A.B.C.D.~.E.F.G.H.I.w.w.J.K.L.M.",
"N.O.P.Q.R.S.T.U.V.W.X.Y.W Z.`. +.+++@+#+$+%+&+*+=+Q.-+;+>+,+",
"'+)+!+~+{+]+^+J I I J /+(+/+_+:+<+J [+Z.I I I }+|+1+2+3+4+5+",
"6+7+8+9+(+0+Z  .a+b+b+c+d+e+f+g+h+(+i+j+b+b+a+k+l+m+n+o+p+q+",
"r+s+t+u+v+'.w+Y x+y+z+A+B+e+B+C+D+E+F+3.i+G+H+I+J+K+L+M+N+O+",
"P+Q+R+S+T+3.'.U+V+W+X+Y+Z+`+ @.@+@@@@@T+#@$@%@&@*@=@-@;@>@,@",
"'@)@!@~@v+'.{@]@^@l.l./@(@_@l+@.@+:@<@3.[@}@l.|@1@2@3@4@5@6@",
"7@8@9@0@T+3.'.U+a@b@c@d@*@e@f@g@w+w+(+h@i@j@k@l@m@n@o@p@q@r@",
"s@t@u@v@T+3.{@` w@x@y@m@z@A@B@C@Y.'.'.<@D@E@F@G@H@I@J@K@L@M@",
"N@O@P@Q@v+'.(+` R@c+ @S@+@T@U@V@Y.'.'.W@l+ @ @k+`.X@Y@O@Z@`@",
" #.#+#@#T+3.'. .##'.$#%#J+&#*#=#Y.'.'.W@`.h@$#-#.@;#>#,#'#)#",
"!#~#*#{#T+3.{@]#x+Z. .^#`./#(#_#Y.'.'.W@J+:# .E+<#[#}#|#1#2#",
"3#4#5#6#7#3.(+]#+.k+B+8#@@9#0#a#b#'.'.W@c#d#c#e#f#g#h#4#i#j#",
"k#l#m#n#o#p#'. .f#q#d+r#s#t#u#v#w#x#7#W@@.q#@@y#z#A#B#C#D#E#",
"F#G#H#I#J#K#L#M#N#O#P#Q#R#S#I#I#T#U#V#W#X#Y#Z#`# $.$+$@$#$$$",
"+ %$&$*$=$-$;$>$,$'$)$=$=$=$=$=$=$=$!$~${$]$)$=$=$^$/$($_$@ ",
") :$<$[$}$}$}$}$}$}$}$}$}$}$}$}$}$}$}$}$}$}$}$}$}$|$1$2$3$. ",
". + 4$5$6$7$7$7$7$7$7$7$7$7$7$7$7$7$7$7$7$7$7$7$7$8$9$0$. . ",
". . . @ a$b$b$b$c$c$c$c$c$c$c$c$c$c$c$c$c$c$c$c$d$e$@ . . . "};
