/* XPM */
static char * BotonListinInterfonosSinInfoRollover_xpm[] = {
"30 30 541 2",
"  	c None",
". 	c #677A8D",
"+ 	c #677A8B",
"@ 	c #677A8A",
"# 	c #FCC466",
"$ 	c #FCC056",
"% 	c #FBBD5D",
"& 	c #FDB445",
"* 	c #FFD563",
"= 	c #FFDD6C",
"- 	c #FFE06F",
"; 	c #FFE16F",
"> 	c #FFDA69",
", 	c #FFC252",
"' 	c #F49E3D",
") 	c #677A8C",
"! 	c #FEA439",
"~ 	c #FEB848",
"{ 	c #FEBD4E",
"] 	c #FEBA4C",
"^ 	c #FFBA4C",
"/ 	c #FEB548",
"( 	c #FEA73B",
"_ 	c #E58A33",
": 	c #FF9E33",
"< 	c #FFA135",
"[ 	c #FFA336",
"} 	c #FF9F33",
"| 	c #FF9D31",
"1 	c #FFA136",
"2 	c #FF9A31",
"3 	c #F9902C",
"4 	c #D89355",
"5 	c #FD912B",
"6 	c #FF962D",
"7 	c #FF992F",
"8 	c #FF9A2F",
"9 	c #FE9A2F",
"0 	c #FB9932",
"a 	c #F29839",
"b 	c #E9963E",
"c 	c #F99934",
"d 	c #FE992F",
"e 	c #FF942C",
"f 	c #F98C29",
"g 	c #B77335",
"h 	c #D48A47",
"i 	c #FD8F2A",
"j 	c #FE952D",
"k 	c #FF9930",
"l 	c #FE9A30",
"m 	c #FF9A30",
"n 	c #FE9A31",
"o 	c #F89834",
"p 	c #E7943F",
"q 	c #D59552",
"r 	c #B8946E",
"s 	c #AD967E",
"t 	c #AA9279",
"u 	c #B59573",
"v 	c #DC954C",
"w 	c #FE9930",
"x 	c #FE932D",
"y 	c #F58A29",
"z 	c #AF6929",
"A 	c #D48B47",
"B 	c #FD912D",
"C 	c #FF9730",
"D 	c #FF9B33",
"E 	c #FF9C33",
"F 	c #F89B37",
"G 	c #CD9254",
"H 	c #AF9171",
"I 	c #A4998D",
"J 	c #A6A3A1",
"K 	c #ABABAB",
"L 	c #AEAEAE",
"M 	c #ACACAC",
"N 	c #A69F99",
"O 	c #B69069",
"P 	c #E89741",
"Q 	c #FE9C33",
"R 	c #FE952F",
"S 	c #F58C2C",
"T 	c #AF6A2B",
"U 	c #D48C49",
"V 	c #FD932F",
"W 	c #FF9932",
"X 	c #FF9E35",
"Y 	c #FF9F36",
"Z 	c #E09747",
"` 	c #8C8987",
" .	c #9D9D9C",
"..	c #ADADAD",
"+.	c #A8A8A7",
"@.	c #A6A6A5",
"#.	c #A8A8A8",
"$.	c #BDBCBB",
"%.	c #C0986C",
"&.	c #FE9F36",
"*.	c #FE9732",
"=.	c #F58E2E",
"-.	c #AF6C2C",
";.	c #D48E4A",
">.	c #FD9531",
",.	c #FE9B34",
"'.	c #FFA037",
").	c #FEA038",
"!.	c #FFA138",
"~.	c #DF994A",
"{.	c #8F8F8F",
"].	c #929292",
"^.	c #949494",
"/.	c #9B9B9B",
"(.	c #A6A6A6",
"_.	c #AAAAAA",
":.	c #B0B0B0",
"<.	c #BCBCBC",
"[.	c #DBDBDA",
"}.	c #C29D73",
"|.	c #FEA138",
"1.	c #FEA037",
"2.	c #FE9934",
"3.	c #F59030",
"4.	c #AF6D2E",
"5.	c #D4904C",
"6.	c #FD9833",
"7.	c #FF9E36",
"8.	c #FFA439",
"9.	c #FFA43A",
"0.	c #DF9C4B",
"a.	c #909090",
"b.	c #959595",
"c.	c #BABABA",
"d.	c #B3B38D",
"e.	c #B8B889",
"f.	c #B7B7B2",
"g.	c #BDBDBD",
"h.	c #C19D73",
"i.	c #FEA43A",
"j.	c #FFA339",
"k.	c #FE9C36",
"l.	c #F59332",
"m.	c #AF6F2F",
"n.	c #D4914D",
"o.	c #FD9A35",
"p.	c #FFA039",
"q.	c #FFA63B",
"r.	c #FFA73C",
"s.	c #DF9D4D",
"t.	c #B9B973",
"u.	c #EDED13",
"v.	c #F4F40A",
"w.	c #C8C855",
"x.	c #ADADA8",
"y.	c #C09D72",
"z.	c #FEA73C",
"A.	c #FE9E38",
"B.	c #F59533",
"C.	c #AF7030",
"D.	c #D4924F",
"E.	c #FD9C38",
"F.	c #FEA23B",
"G.	c #FFA83E",
"H.	c #FEA93F",
"I.	c #FEAB45",
"J.	c #F8C483",
"K.	c #F6C282",
"L.	c #F5C181",
"M.	c #F3BF80",
"N.	c #F0BD7E",
"O.	c #EEBB7C",
"P.	c #EDBA7B",
"Q.	c #D1AB7C",
"R.	c #AFAFAF",
"S.	c #E7E74F",
"T.	c #FEFE00",
"U.	c #E6E618",
"V.	c #A1A192",
"W.	c #C09E73",
"X.	c #FEA83E",
"Y.	c #FEA13B",
"Z.	c #F59736",
"`.	c #AF7132",
" +	c #D49451",
".+	c #FD9F3A",
"++	c #FFA53E",
"@+	c #FFAA41",
"#+	c #FFAB42",
"$+	c #FAAF51",
"%+	c #E1E4E7",
"&+	c #EAECEE",
"*+	c #E9EBED",
"=+	c #E8EAEC",
"-+	c #E6E9EB",
";+	c #E5E8EA",
">+	c #E5E7E9",
",+	c #CCCDCF",
"'+	c #969696",
")+	c #939393",
"!+	c #C6C66F",
"~+	c #F5F508",
"{+	c #FCFC02",
"]+	c #D3D34B",
"^+	c #ABABA5",
"/+	c #C09F75",
"(+	c #FEAB42",
"_+	c #FEA33D",
":+	c #F59A38",
"<+	c #AF7333",
"[+	c #D49653",
"}+	c #FDA23D",
"|+	c #FFA841",
"1+	c #FFAD44",
"2+	c #FFAE45",
"3+	c #FAB254",
"4+	c #ECEDF0",
"5+	c #FDFDFC",
"6+	c #FCFCFB",
"7+	c #FBFBFA",
"8+	c #FAFAF9",
"9+	c #F9F9F8",
"0+	c #DBDADA",
"a+	c #C1C1C1",
"b+	c #B6B6B4",
"c+	c #DEDEA8",
"d+	c #E3E3A1",
"e+	c #AAAAA0",
"f+	c #C6C6C6",
"g+	c #C2A278",
"h+	c #FEAE45",
"i+	c #FEA640",
"j+	c #F59D3B",
"k+	c #AF7535",
"l+	c #D49855",
"m+	c #FDA440",
"n+	c #FFAA43",
"o+	c #FFB047",
"p+	c #FAB556",
"q+	c #EDEFF0",
"r+	c #E1E1E6",
"s+	c #CFCDD6",
"t+	c #CDCCD5",
"u+	c #CDCCD4",
"v+	c #BAB9BF",
"w+	c #D1D1D1",
"x+	c #C2C2C2",
"y+	c #B4B4B4",
"z+	c #B7B7B7",
"A+	c #C9C9C9",
"B+	c #D3D3D3",
"C+	c #C2A379",
"D+	c #FEB048",
"E+	c #FEA842",
"F+	c #F59F3E",
"G+	c #AF7737",
"H+	c #D49956",
"I+	c #FCA743",
"J+	c #FEAE46",
"K+	c #FFB34A",
"L+	c #FEB34A",
"M+	c #FBB759",
"N+	c #EEEFF1",
"O+	c #F6F8F9",
"P+	c #C8E5EE",
"Q+	c #F1F4F4",
"R+	c #F8F8F7",
"S+	c #DADAD9",
"T+	c #CDCDCD",
"U+	c #D2D2D2",
"V+	c #BEBEBE",
"W+	c #C2A47A",
"X+	c #FEAB46",
"Y+	c #F5A241",
"Z+	c #AF7839",
"`+	c #D39B58",
" @	c #FDAA45",
".@	c #FFB049",
"+@	c #FFB54C",
"@@	c #FFB64C",
"#@	c #FAB95A",
"$@	c #ECEDEF",
"%@	c #FAFBFA",
"&@	c #ECF0F2",
"*@	c #BFD9E7",
"=@	c #C3DBE5",
"-@	c #F6F6F6",
";@	c #D8D8D8",
">@	c #C5C5C5",
",@	c #9E9E9E",
"'@	c #828282",
")@	c #858585",
"!@	c #A4A4A4",
"~@	c #C5C5C4",
"{@	c #C2A57C",
"]@	c #FEB64D",
"^@	c #FEAD48",
"/@	c #F5A443",
"(@	c #AF7A3A",
"_@	c #D39D59",
":@	c #FCAC47",
"<@	c #FEB34B",
"[@	c #FFB84E",
"}@	c #FEB94F",
"|@	c #F9BB5C",
"1@	c #E7E9EB",
"2@	c #F5F7F8",
"3@	c #A2C3DA",
"4@	c #89B4CF",
"5@	c #DEE5E9",
"6@	c #D0CFD7",
"7@	c #D0D0D7",
"8@	c #BCBCC1",
"9@	c #C4C4C4",
"0@	c #B8B8B8",
"a@	c #C1A67D",
"b@	c #FEB84E",
"c@	c #FEB04A",
"d@	c #F5A745",
"e@	c #AF7B3B",
"f@	c #D39E5B",
"g@	c #FDAE49",
"h@	c #FFB54E",
"i@	c #FFBB51",
"j@	c #FFBC51",
"k@	c #F9BE5F",
"l@	c #E7E9EC",
"m@	c #E6EBEF",
"n@	c #CFDEE6",
"o@	c #BCDDE8",
"p@	c #EFF2F2",
"q@	c #F5F5F4",
"r@	c #D8D8D7",
"s@	c #C0C0C0",
"t@	c #C8C8C8",
"u@	c #D4D4D4",
"v@	c #DBDBDB",
"w@	c #C2A87D",
"x@	c #FEBC52",
"y@	c #FEB24D",
"z@	c #F5A947",
"A@	c #AF7D3D",
"B@	c #D3A05C",
"C@	c #FDB14C",
"D@	c #FFB750",
"E@	c #FFBD54",
"F@	c #FFBE54",
"G@	c #F9C061",
"H@	c #F7F8F8",
"I@	c #DBE5EC",
"J@	c #AECEE0",
"K@	c #CBDCE5",
"L@	c #EDEDEE",
"M@	c #E1E1E2",
"N@	c #A4A4A5",
"O@	c #CACACA",
"P@	c #DEDEDE",
"Q@	c #CDCCCB",
"R@	c #BDB8AF",
"S@	c #CAA76D",
"T@	c #FEBE54",
"U@	c #FEB450",
"V@	c #F5AB4A",
"W@	c #AF7E3F",
"X@	c #D3A15E",
"Y@	c #FCB34F",
"Z@	c #FEBA53",
"`@	c #FFC057",
" #	c #FEC157",
".#	c #F9C264",
"+#	c #E6E8EC",
"@#	c #F5F7F7",
"##	c #A7C5DA",
"$#	c #8FB5CE",
"%#	c #DEE6EA",
"&#	c #D3D3DA",
"*#	c #D5D4DA",
"=#	c #D4D2D9",
"-#	c #CECED3",
";#	c #B0AFB1",
">#	c #979797",
",#	c #919191",
"'#	c #CCCCCC",
")#	c #C0A575",
"!#	c #DEB061",
"~#	c #FABF59",
"{#	c #FEC057",
"]#	c #FEB752",
"^#	c #F5AD4C",
"/#	c #AF8041",
"(#	c #D3A360",
"_#	c #FDB652",
":#	c #FFBD56",
"<#	c #FFC359",
"[#	c #FFC35A",
"}#	c #F9C467",
"|#	c #EEF0F1",
"1#	c #D7E3EA",
"2#	c #B9D9E6",
"3#	c #F0F2F2",
"4#	c #F4F5F4",
"5#	c #F4F4F3",
"6#	c #F3F3F2",
"7#	c #F0F0EF",
"8#	c #DDDDDC",
"9#	c #B5B5B5",
"0#	c #CDCDCC",
"a#	c #E1E1E0",
"b#	c #CBCBCA",
"c#	c #F4C165",
"d#	c #FFC45A",
"e#	c #FFC259",
"f#	c #FEBA55",
"g#	c #F5B04F",
"h#	c #AF8242",
"i#	c #D3A562",
"j#	c #FDB854",
"k#	c #FFC058",
"l#	c #FFC55C",
"m#	c #FFC65D",
"n#	c #F9C769",
"o#	c #E5E7EB",
"p#	c #F5F6F6",
"q#	c #CDDDE7",
"r#	c #A5C7DC",
"s#	c #CEDBE4",
"t#	c #E4E3E6",
"u#	c #E3E2E5",
"v#	c #E2E1E4",
"w#	c #E1E0E3",
"x#	c #E1E0E2",
"y#	c #E0DFE2",
"z#	c #DEDDE0",
"A#	c #DEDDDF",
"B#	c #EAE9E9",
"C#	c #EFEFEE",
"D#	c #CFCFCD",
"E#	c #F5C467",
"F#	c #FEBD57",
"G#	c #F5B351",
"H#	c #AF8343",
"I#	c #D3A663",
"J#	c #FCBB56",
"K#	c #FEC25A",
"L#	c #FFC85E",
"M#	c #FEC85F",
"N#	c #F9C96A",
"O#	c #E5E7EA",
"P#	c #AEC8DB",
"Q#	c #96B8CF",
"R#	c #EAEBEC",
"S#	c #DCDBDF",
"T#	c #DBDADF",
"U#	c #DAD9DD",
"V#	c #D9D9DD",
"W#	c #D9D8DC",
"X#	c #D8D7DB",
"Y#	c #E7E7E8",
"Z#	c #EEEEED",
"`#	c #CFCFCE",
" $	c #F4C569",
".$	c #FFC95F",
"+$	c #FEC85E",
"@$	c #FEBF59",
"#$	c #F5B553",
"$$	c #AF8545",
"%$	c #D2A865",
"&$	c #FCBE59",
"*$	c #FFC55D",
"=$	c #FFCB61",
"-$	c #F9CC6D",
";$	c #F7F7F6",
">$	c #F1F2F2",
",$	c #EDEFEF",
"'$	c #F4F4F2",
")$	c #F2F2F1",
"!$	c #F1F1F0",
"~$	c #F1F0EF",
"{$	c #F5C86B",
"]$	c #FFCC61",
"^$	c #FEC25C",
"/$	c #F5B856",
"($	c #B0894A",
"_$	c #CCA86C",
":$	c #F5BA58",
"<$	c #FDC35E",
"[$	c #FFCB62",
"}$	c #FFCE64",
"|$	c #F8CC6D",
"1$	c #C9CBCB",
"2$	c #D1D2D1",
"3$	c #D0D1D1",
"4$	c #D0D1D0",
"5$	c #CECFCF",
"6$	c #CFD0CF",
"7$	c #CFD0CE",
"8$	c #CECFCE",
"9$	c #CDCECD",
"0$	c #CCCDCB",
"a$	c #BABAB7",
"b$	c #F3C96C",
"c$	c #FCC15D",
"d$	c #EDB455",
"e$	c #AE8F5B",
"f$	c #F1B95A",
"g$	c #FCC360",
"h$	c #FECB65",
"i$	c #FECD67",
"j$	c #FDCE68",
"k$	c #F4CB70",
"l$	c #F5CB70",
"m$	c #F3CA6E",
"n$	c #FDCE67",
"o$	c #FECF67",
"p$	c #FFCF67",
"q$	c #FECD66",
"r$	c #FCC561",
"s$	c #F2B95A",
"t$	c #D9A650",
"u$	c #D6A753",
"v$	c #F2BD61",
"w$	c #FBC666",
"x$	c #FCC768",
"y$	c #FCC968",
"z$	c #FDC968",
"A$	c #FAC566",
"B$	c #EFBB5F",
"C$	c #DFAE56",
"D$	c #A88546",
"E$	c #CAA155",
"F$	c #E8BA65",
"G$	c #E7BA65",
"H$	c #ECBE68",
"I$	c #E6B964",
"J$	c #D1A657",
"K$	c #A68649",
"L$	c #B19C74",
"M$	c #B39B6A",
"N$	c #B59B68",
"O$	c #B49B68",
"P$	c #AE986D",
". + @ @ # $ $ $ $ $ $ $ $ $ $ $ $ $ $ $ $ $ $ $ $ % @ + . . ",
"+ @ & * = - ; - - ; - - ; - - ; - - ; - - ; - - - > , ' . ) ",
"@ ! ~ { ] ] ^ ] ] ^ ] ] ^ ] ] ^ ] ] ^ ] ] ^ ] ] ^ ] / ( _ ) ",
"@ : < [ } | | | | | | | | | | | | | | | | | | | | } 1 2 3 @ ",
"4 5 6 7 8 8 8 8 8 8 8 8 8 8 8 8 8 9 0 a b c d 8 8 8 7 e f g ",
"h i j k l l m l l m l l m l n o p q r s t u v c l l w x y z ",
"A B C D E E E E E E E E E F G H I J K L L M N O P Q D R S T ",
"U V W X Y Y Y Y Y Y Y Y Y Z `  .K L L ..+.@.#.$.%.&.X *.=.-.",
";.>.,.'.).).!.).).!.).).!.~.{.].^./.(._...:.<.[.}.|.1.2.3.4.",
"5.6.7.8.9.9.9.9.9.9.9.9.9.0.a.b.^.{.c...d.e.f.g.h.i.j.k.l.m.",
"n.o.p.q.r.r.r.r.r.r.r.r.r.s.a.b.b.]...t.u.v.w.x.y.z.q.A.B.C.",
"D.E.F.G.H.I.J.K.L.M.N.O.P.Q.a.b.b.].R.S.T.T.U.V.W.H.X.Y.Z.`.",
" +.+++@+#+$+%+&+*+=+-+;+>+,+a.'+b.)+R.!+~+{+]+^+/+(+@+_+:+<+",
"[+}+|+1+2+3+4+5+6+6+7+8+9+0+a.b.b.].a+b+c+d+e+f+g+h+1+i+j+k+",
"l+m+n+o+o+p+q+7+r+s+t+u+u+v+a.b.b.].w+x+y+z+A+B+C+D+o+E+F+G+",
"H+I+J+K+L+M+N+7+7+O+P+Q+R+S+a.b.b.].T+U+V+y+].<.W+L+L+X+Y+Z+",
"`+ @.@+@@@#@$@%@&@*@=@-@-@;@a.b.b.].>@,@'@)@!@~@{@]@+@^@/@(@",
"_@:@<@[@}@|@1@2@3@4@5@6@7@8@a.b.b.].9@0@..M _.f+a@}@b@c@d@e@",
"f@g@h@i@j@k@l@8+m@n@o@p@q@r@a.b.b.].a+:.s@t@u@v@w@x@i@y@z@A@",
"B@C@D@E@F@G@l@H@I@J@K@L@L@M@N@].b.)+O@;@P@v@Q@R@S@T@E@U@V@W@",
"X@Y@Z@`@ #.#+#@###$#%#&#*#=#-#;#>#,#f+'#s@(.)#!#~# #{#]#^#/#",
"(#_#:#<#[#}#+#R+|#1#2#3#4#5#6#7#8#y+9#0#a#b#c#[#d#[#e#f#g#h#",
"i#j#k#l#m#n#o#p#q#r#s#t#u#v#w#x#y#z#A#B#C#D#E#m#m#m#l#F#G#H#",
"I#J#K#L#M#N#O#p#P#Q#R#S#T#U#V#W#X#X#X#Y#Z#`# $M#.$M#+$@$#$$$",
"%$&$*$=$=$-$>+;$>$,$5#'$6#)$!$~$7#C#C#C#C#D#{$=$]$=$=$^$/$($",
"_$:$<$[$}$|$1$2$3$2$4$5$6$7$8$9$0#0#0#0$0$a$b$}$}$}$[$c$d$e$",
"+ f$g$h$i$j$k$k$k$l$k$k$k$k$k$k$k$k$k$k$k$m$n$o$p$q$r$s$t$@ ",
") u$v$w$x$y$z$y$y$z$y$y$z$y$y$z$y$y$z$y$y$z$y$y$z$A$B$C$D$. ",
". + E$F$G$H$H$H$H$H$H$H$H$H$H$H$H$H$H$H$H$H$H$H$H$I$J$K$. . ",
". . . @ L$M$N$N$N$N$N$O$O$O$O$O$O$O$O$O$O$O$O$O$O$P$@ . . . "};
