/* XPM */
static char * BotonOcultarHistoricoRollover_xpm[] = {
"40 10 212 2",
"  	c None",
". 	c #677A8C",
"+ 	c #FDC963",
"@ 	c #FDCC63",
"# 	c #FCC45E",
"$ 	c #F59230",
"% 	c #FE9C31",
"& 	c #FE9B31",
"* 	c #FF9B31",
"= 	c #FE9C33",
"- 	c #FB9E3B",
"; 	c #F8A347",
"> 	c #F9A141",
", 	c #FD9D36",
"' 	c #FE9C32",
") 	c #E68E3B",
"! 	c #F5912E",
"~ 	c #FE9E34",
"{ 	c #FF9E35",
"] 	c #FE9E35",
"^ 	c #FD9F38",
"/ 	c #FAA140",
"( 	c #F4A550",
"_ 	c #ECA860",
": 	c #E6B074",
"< 	c #E9C49A",
"[ 	c #E6B987",
"} 	c #E8AA67",
"| 	c #F0A759",
"1 	c #F7A347",
"2 	c #FCA03C",
"3 	c #FE9E36",
"4 	c #FE9D34",
"5 	c #E18834",
"6 	c #F59835",
"7 	c #FEA63C",
"8 	c #FEA73D",
"9 	c #FDA841",
"0 	c #F9AA4B",
"a 	c #F2AD59",
"b 	c #E9AF69",
"c 	c #E6BA84",
"d 	c #ECD1AF",
"e 	c #F4E8D8",
"f 	c #FDFBF7",
"g 	c #FEFEF8",
"h 	c #FEFEFA",
"i 	c #F9F3EB",
"j 	c #F0DCC3",
"k 	c #E8C599",
"l 	c #E6B273",
"m 	c #EDAE62",
"n 	c #F5AC53",
"o 	c #FBA945",
"p 	c #FEA73E",
"q 	c #E18F3A",
"r 	c #F59F3C",
"s 	c #FFAE44",
"t 	c #FFAE45",
"u 	c #FEAE44",
"v 	c #FEAE46",
"w 	c #FCAF4C",
"x 	c #F7B156",
"y 	c #EFB365",
"z 	c #E7B573",
"A 	c #E7C495",
"B 	c #EEDABF",
"C 	c #F8F1E7",
"D 	c #FFFEF3",
"E 	c #FFFFED",
"F 	c #FFFFE9",
"G 	c #FFFFEB",
"H 	c #FFFFF0",
"I 	c #FFFEF6",
"J 	c #FCFAF4",
"K 	c #F2E5D2",
"L 	c #EACFA9",
"M 	c #E5BA80",
"N 	c #EBB46C",
"O 	c #F3B25D",
"P 	c #FAB051",
"Q 	c #FDAE48",
"R 	c #FEAE45",
"S 	c #FFAD44",
"T 	c #E19440",
"U 	c #F5A744",
"V 	c #FEB64C",
"W 	c #FEB64F",
"X 	c #FBB755",
"Y 	c #F5B861",
"Z 	c #EDB96E",
"` 	c #E3BA7E",
" .	c #E6CBA1",
"..	c #EFE1C9",
"+.	c #F9F6EA",
"@.	c #FBF9EE",
"#.	c #FAF7E6",
"$.	c #FCF8E1",
"%.	c #FEFBE1",
"&.	c #FEFEE4",
"*.	c #FEFEE7",
"=.	c #FEFEE9",
"-.	c #FEFEEB",
";.	c #FEFEEA",
">.	c #FEFEE8",
",.	c #FEFDE3",
"'.	c #FEFAE1",
").	c #FBF8E3",
"!.	c #FAF8E9",
"~.	c #FBFAEF",
"{.	c #F4ECD9",
"].	c #E9D5B4",
"^.	c #E2C08D",
"/.	c #E8B974",
"(.	c #F1B968",
"_.	c #F8B85A",
":.	c #FDB651",
"<.	c #FEB64D",
"[.	c #FEB54C",
"}.	c #E19B47",
"|.	c #F5AE4C",
"1.	c #FDBE57",
"2.	c #FABF5E",
"3.	c #F3BF6A",
"4.	c #E9BE77",
"5.	c #DEBD87",
"6.	c #E0CCA5",
"7.	c #E8DEC3",
"8.	c #EDEAD9",
"9.	c #E9E6D5",
"0.	c #E5E1CC",
"a.	c #E6E2CB",
"b.	c #EDE8D0",
"c.	c #F4F0D7",
"d.	c #FAF6DC",
"e.	c #FEFEE6",
"f.	c #FDF9DF",
"g.	c #F8F3DB",
"h.	c #F2EDD5",
"i.	c #EAE5CE",
"j.	c #E6E1CB",
"k.	c #E7E3CF",
"l.	c #EBE8D7",
"m.	c #E8E2CD",
"n.	c #E2D2B2",
"o.	c #DBC194",
"p.	c #E3BC7D",
"q.	c #EFBF71",
"r.	c #F6BF65",
"s.	c #FCBE5A",
"t.	c #FEBD55",
"u.	c #E1A14D",
"v.	c #EFB760",
"w.	c #E4C07E",
"x.	c #CBB284",
"y.	c #BDAE8F",
"z.	c #B7B19F",
"A.	c #BAB6A8",
"B.	c #B4B1A2",
"C.	c #B0AD9D",
"D.	c #B3B0A0",
"E.	c #BBB7A6",
"F.	c #C3BFAD",
"G.	c #CBC7B4",
"H.	c #D2CEBA",
"I.	c #D8D4BF",
"J.	c #DDD9C4",
"K.	c #E1DDC8",
"L.	c #E5E1CB",
"M.	c #E7E3CD",
"N.	c #E8E4CE",
"O.	c #E8E5CF",
"P.	c #E6E2CC",
"Q.	c #E4E0CA",
"R.	c #E0DCC6",
"S.	c #DBD7C2",
"T.	c #D6D2BD",
"U.	c #CFCBB8",
"V.	c #C8C4B1",
"W.	c #C0BCAB",
"X.	c #B8B5A4",
"Y.	c #B1AE9E",
"Z.	c #B1AE9F",
"`.	c #B6B3A5",
" +	c #B6B2A3",
".+	c #B7AD95",
"++	c #C1AD88",
"@+	c #D6B880",
"#+	c #F0C577",
"$+	c #E0A855",
"%+	c #E4B769",
"&+	c #D8BD83",
"*+	c #C9B27E",
"=+	c #C5AE7C",
"-+	c #C6AF7D",
";+	c #C7B07E",
">+	c #C8B17E",
",+	c #C8B17F",
"'+	c #C8B27F",
")+	c #C9B27F",
"!+	c #C9B280",
"~+	c #CAB380",
"{+	c #C9B380",
"]+	c #C6B07E",
"^+	c #C5AE7D",
"/+	c #CEB680",
"(+	c #E6C47F",
"_+	c #D7A95E",
":+	c #677A8D",
"<+	c #D6B069",
"[+	c #D6AF66",
"}+	c #D3AD66",
". + @ @ @ @ @ @ @ @ @ @ @ @ @ @ @ @ @ @ @ @ @ @ @ @ @ @ @ @ @ @ @ @ @ @ @ @ # . ",
"$ % & & & & & & & & & & * & & & & = - ; > , ' & & & & & & & & & & & & & & & % ) ",
"! ~ ~ ~ ~ ~ ~ ~ ~ ~ ~ ~ { ] ^ / ( _ : < [ } | 1 2 3 ] ~ ~ ~ ~ ~ ~ ~ ~ ~ ~ ~ 4 5 ",
"6 7 7 7 7 7 7 7 7 7 8 9 0 a b c d e f g h i j k l m n o p 7 7 7 7 7 7 7 7 7 7 q ",
"r s t t u t t v w x y z A B C g D E F F F G H I J K L M N O P Q R t t t t t S T ",
"U V V V W X Y Z `  ...+.@.#.$.%.&.*.=.-.;.>.*.,.'.).!.~.{.].^./.(._.:.<.V V [.}.",
"|.1.2.3.4.5.6.7.8.9.0.a.b.c.d.'.&.e.>.=.=.>.e.,.f.g.h.i.j.k.l.m.n.o.p.q.r.s.t.u.",
"v.w.x.y.z.A.B.C.D.E.F.G.H.I.J.K.L.M.N.O.O.N.P.Q.R.S.T.U.V.W.X.Y.Z.`. +.+++@+#+$+",
"%+&+*+=+=+=+=+-+-+;+;+>+,+'+)+!+!+!+~+~+~+~+{+!+!+!+'+,+,+;+]+-+-+^+=+=+-+/+(+_+",
":+<+[+[+[+[+[+[+[+[+[+[+[+[+[+[+[+[+[+[+[+[+[+[+[+[+[+[+[+[+[+[+[+[+[+[+[+[+}+:+"};
