/* XPM */
static char * BotonMostrarHistoricoRollover_xpm[] = {
"40 10 233 2",
"  	c None",
". 	c #6C7B89",
"+ 	c #FDC963",
"@ 	c #FDCC63",
"# 	c #FCC45D",
"$ 	c #677A8C",
"% 	c #F59231",
"& 	c #FC9E39",
"* 	c #FB9E3B",
"= 	c #FB9E3A",
"- 	c #FD9D35",
"; 	c #E68E3B",
"> 	c #EE9137",
", 	c #DAA468",
"' 	c #C69F73",
") 	c #D3AE83",
"! 	c #DEB98D",
"~ 	c #E1BD90",
"{ 	c #E4BF93",
"] 	c #E6C296",
"^ 	c #E8C499",
"/ 	c #EAC69C",
"( 	c #EBC89E",
"_ 	c #ECC9A0",
": 	c #EDCAA1",
"< 	c #EECAA2",
"[ 	c #EECBA3",
"} 	c #EFCBA4",
"| 	c #EFCCA4",
"1 	c #EDC9A1",
"2 	c #ECC89F",
"3 	c #EBC79D",
"4 	c #E9C59B",
"5 	c #E7C398",
"6 	c #E5C195",
"7 	c #E3BE92",
"8 	c #E0BC8F",
"9 	c #DAB58A",
"0 	c #C9A479",
"a 	c #C99E6C",
"b 	c #EAA153",
"c 	c #E08834",
"d 	c #EC9539",
"e 	c #DDA35D",
"f 	c #CEA16A",
"g 	c #B3956F",
"h 	c #A7967C",
"i 	c #AAA391",
"j 	c #BBB8A9",
"k 	c #CFCCBB",
"l 	c #DCD9C7",
"m 	c #E6E3D1",
"n 	c #EDEAD9",
"o 	c #F2F0E0",
"p 	c #F7F4E5",
"q 	c #FAF8EA",
"r 	c #FDFBED",
"s 	c #FEFDF0",
"t 	c #FEFEF2",
"u 	c #FEFEF4",
"v 	c #FEFEF5",
"w 	c #FEFEF3",
"x 	c #FEFCEF",
"y 	c #FCFAEC",
"z 	c #F9F7E8",
"A 	c #F5F3E3",
"B 	c #F1EEDD",
"C 	c #EBE8D7",
"D 	c #E2DFCE",
"E 	c #D6D3C2",
"F 	c #C6C3B2",
"G 	c #ADA99A",
"H 	c #A39782",
"I 	c #A69071",
"J 	c #BE986A",
"K 	c #D5A365",
"L 	c #E8A24D",
"M 	c #E08E3A",
"N 	c #F49E3C",
"O 	c #F8AA44",
"P 	c #F1A748",
"Q 	c #E7A652",
"R 	c #DCA65F",
"S 	c #D0A46A",
"T 	c #BD9D72",
"U 	c #AD9A7B",
"V 	c #ADA38E",
"W 	c #BAB6A4",
"X 	c #D1CDB9",
"Y 	c #E0DCC6",
"Z 	c #ECE8D0",
"` 	c #F5F0D7",
" .	c #FAF6DD",
"..	c #FEFBE1",
"+.	c #FFFEE4",
"@.	c #FFFFE7",
"#.	c #FFFFE8",
"$.	c #FFFFE9",
"%.	c #FFFFE6",
"&.	c #FFFDE3",
"*.	c #FEF9E0",
"=.	c #F9F4DB",
"-.	c #F2EDD5",
";.	c #E8E3CC",
">.	c #D9D5C0",
",.	c #C4C0AE",
"'.	c #ACA693",
").	c #A7997F",
"!.	c #AF9672",
"~.	c #C7A06E",
"{.	c #D6A565",
"].	c #E1A658",
"^.	c #ECA74C",
"/.	c #F4A845",
"(.	c #FBAB44",
"_.	c #E19440",
":.	c #F5A744",
"<.	c #FEB64C",
"[.	c #FDB54C",
"}.	c #FAB34C",
"|.	c #F4B04D",
"1.	c #EBAD53",
"2.	c #E1AC5E",
"3.	c #D5AA6B",
"4.	c #C7A674",
"5.	c #B9A37F",
"6.	c #BCB095",
"7.	c #CBC5B0",
"8.	c #E3DEC9",
"9.	c #F4EFD7",
"0.	c #FDF9E0",
"a.	c #FEFEE4",
"b.	c #FEFEE7",
"c.	c #FEFEE9",
"d.	c #FEFEEB",
"e.	c #FEFEEA",
"f.	c #FEFEE8",
"g.	c #FEFEE6",
"h.	c #FEFDE3",
"i.	c #F9F4DC",
"j.	c #EBE7D0",
"k.	c #D2CEB9",
"l.	c #BCB39C",
"m.	c #B3A385",
"n.	c #BA9F75",
"o.	c #CEA870",
"p.	c #DBAB65",
"q.	c #E6AC58",
"r.	c #F0AE4F",
"s.	c #F7B14C",
"t.	c #FCB44C",
"u.	c #FEB54C",
"v.	c #E19B47",
"w.	c #F5AE4B",
"x.	c #FEBE53",
"y.	c #FEBD53",
"z.	c #FCBC53",
"A.	c #F6B853",
"B.	c #EEB557",
"C.	c #E4B260",
"D.	c #D9B06B",
"E.	c #CEAC75",
"F.	c #C1AA81",
"G.	c #C3B596",
"H.	c #D2CAB2",
"I.	c #E7E3CD",
"J.	c #F8F5DD",
"K.	c #FDFCE5",
"L.	c #FAF8E1",
"M.	c #EFECD5",
"N.	c #D6D1BA",
"O.	c #C3B89E",
"P.	c #BBA986",
"Q.	c #C4A878",
"R.	c #D4AE71",
"S.	c #DFB166",
"T.	c #EAB45B",
"U.	c #F2B654",
"V.	c #FABA53",
"W.	c #FDBD53",
"X.	c #E1A14D",
"Y.	c #F5B552",
"Z.	c #FEC65C",
"`.	c #FDC45C",
" +	c #F9C25B",
".+	c #F2BE5D",
"++	c #E9BA64",
"@+	c #DEB76D",
"#+	c #D2B377",
"$+	c #C6AE80",
"%+	c #C4B593",
"&+	c #D0C7AC",
"*+	c #E0DBC5",
"=+	c #D2CBB4",
"-+	c #C3B799",
";+	c #BEAB84",
">+	c #CBAF7A",
",+	c #D7B472",
"'+	c #E3B868",
")+	c #EDBC60",
"!+	c #F5C05C",
"~+	c #FBC35B",
"{+	c #FEC55C",
"]+	c #E1A853",
"^+	c #EEB759",
"/+	c #FECD64",
"(+	c #FDCC64",
"_+	c #FBCA63",
":+	c #F5C663",
"<+	c #ECC267",
"[+	c #E2BE70",
"}+	c #D6B978",
"|+	c #CCB47F",
"1+	c #D0B67C",
"2+	c #DCBB74",
"3+	c #E7C06B",
"4+	c #F0C464",
"5+	c #F8C963",
"6+	c #FCCC63",
"7+	c #FECB63",
"8+	c #D9AA5C",
"9+	c #677A8D",
"0+	c #DEB567",
"a+	c #E1B667",
"b+	c #E0B666",
"c+	c #DEB466",
"d+	c #DAB165",
"e+	c #D5AE67",
"f+	c #D7AF66",
"g+	c #DCB365",
"h+	c #DFB566",
"i+	c #E1B666",
"j+	c #D8AF64",
". + @ @ @ @ @ @ @ @ @ @ @ @ @ @ @ @ @ @ @ @ @ @ @ @ @ @ @ @ @ @ @ @ @ @ @ @ # $ ",
"% & * * * * * * * * * * * * * * * * * * * * * * * * * * * * * * * * * * * = - ; ",
"> , ' ) ! ~ { ] ^ / ( _ : < [ [ } } | | | } } } [ [ < 1 2 3 4 5 6 7 8 9 0 a b c ",
"d e f g h i j k l m n o p q r s t u v v v u w t x y z A B C D E F G H I J K L M ",
"N O P Q R S T U V W X Y Z `  ...+.@.#.$.$.#.%.&.*.=.-.;.>.,.'.).!.~.{.].^./.(._.",
":.<.<.[.}.|.1.2.3.4.5.6.7.8.9.0.a.b.c.d.e.f.g.h.i.j.k.l.m.n.o.p.q.r.s.t.u.<.u.v.",
"w.x.x.x.x.x.y.z.A.B.C.D.E.F.G.H.I.J.K.c.b.L.M.N.O.P.Q.R.S.T.U.V.W.y.x.x.x.x.y.X.",
"Y.Z.Z.Z.Z.Z.Z.Z.Z.Z.`. +.+++@+#+$+%+&+*+=+-+;+>+,+'+)+!+~+{+Z.Z.Z.Z.Z.Z.Z.Z.{+]+",
"^+/+/+/+/+/+/+/+/+/+/+/+/+(+_+:+<+[+}+|+1+2+3+4+5+6+/+/+/+/+/+/+/+/+/+/+/+/+7+8+",
"9+0+a+a+a+a+a+a+a+a+a+a+a+a+a+a+b+c+d+e+f+g+h+a+a+a+a+i+i+i+i+i+i+i+i+i+i+i+j+9+"};
