/* XPM */
static char *dummy[]={
"22 18 196 2",
"ba c None",
"ay c #159414",
"bb c #19394d",
"aI c #198c17",
".f c #1e3d52",
".n c #1e3f54",
".e c #1e4158",
".g c #1e4259",
".m c #1f455e",
"b. c #20475f",
".d c #214a64",
"aK c #234e6a",
"aW c #24506c",
"a9 c #24516e",
".P c #25506b",
".1 c #25536e",
".y c #255371",
"Qt c #265573",
"aX c #273a46",
".z c #27404f",
".o c #27465a",
".J c #275573",
"a4 c #275673",
"aR c #2a5775",
".t c #2c5975",
".9 c #2d5974",
"#9 c #2d5975",
".W c #2f5a75",
"aU c #30a329",
"b# c #323c43",
"ap c #38a933",
"a3 c #3a6179",
"aL c #404549",
"a2 c #454545",
".I c #47667b",
".s c #4b4b4b",
"ax c #50bc4b",
"aT c #51a44e",
"ao c #57c250",
".A c #585858",
".p c #595959",
"aA c #599659",
".r c #636363",
"aF c #63b562",
".q c #666666",
"aY c #696969",
"aS c #6aa768",
"#Y c #72828e",
"a1 c #747474",
"aV c #74af71",
"aQ c #778289",
"ai c #77b874",
".K c #7e8790",
"a5 c #7e8c8f",
"a8 c #7f8b90",
"aJ c #80948c",
"ae c #828282",
"#. c #82868d",
"aZ c #838383",
"#b c #83868d",
"a. c #838b8e",
"ab c #838c8e",
".h c #838c94",
"an c #83d17d",
"ak c #848484",
"#F c #874c0e",
".B c #878787",
"aM c #888888",
"aB c #889d8a",
"aE c #899b95",
".H c #8a8e92",
"#d c #8b8b8b",
"aj c #8ca096",
"#T c #8d8d8d",
"#n c #8e8e8e",
"a7 c #8ebe8a",
"#R c #8f8f8f",
"aq c #8fbc8e",
".2 c #909090",
"#S c #939393",
".3 c #949494",
"a6 c #94bb90",
"#E c #95681d",
"#c c #959595",
"#Q c #96958a",
"ar c #98a599",
"al c #9a9a9a",
"aH c #9ac89b",
".4 c #9b9b9b",
"#L c #9b9d97",
"ag c #9ba8a4",
"az c #9bcb9b",
"ah c #9cc799",
".5 c #9f9f9f",
"aw c #9fb1a1",
".C c #a1a1a1",
".Q c #a2a2a2",
".c c #a39598",
".# c #a49da0",
".S c #a4a4a4",
"#0 c #a5641d",
".T c #a5a5a5",
"am c #a5b4a7",
"#m c #a6a091",
"#j c #a6a69b",
".U c #a7a7a7",
".G c #a8a8a8",
"au c #aaaaaa",
".D c #ababab",
".R c #acacac",
"#v c #ad7824",
".F c #adadad",
"#1 c #ae853b",
".E c #aeaeae",
".6 c #afafaf",
"aP c #b0b1b2",
".Y c #b12929",
".V c #b1b2b2",
"#h c #b2b2b2",
"#H c #b3a28d",
"#x c #b3a995",
"#5 c #b3b3b3",
".X c #b4898a",
"#N c #b5650d",
"#y c #b5b5b5",
"#r c #b6b67c",
"#U c #b6b6b6",
"#f c #b7b795",
"#i c #b7b7b7",
"#C c #b8b29a",
"#O c #b96f19",
"#s c #b9b1a1",
"at c #b9b9b9",
"#6 c #bababa",
"#4 c #bcbcbc",
"a0 c #bdbdbd",
".0 c #be8989",
"#u c #beab77",
"#o c #bebe59",
"## c #bf8383",
"#g c #bfbfa5",
".Z c #c02929",
"#K c #c1c17d",
"#a c #c38484",
"af c #c3c3c3",
"#B c #c4c436",
"#8 c #c4c4c4",
"#X c #c4c5c5",
"av c #c5c5c5",
"aG c #c5dfc5",
".u c #c75b5a",
".x c #c93a3a",
".L c #ca7b7b",
".7 c #cacaca",
"#Z c #cba465",
".O c #cc7373",
"a# c #ccb089",
"#I c #cccc58",
"#e c #cccccc",
".l c #cd6e6e",
".w c #cd9999",
"as c #cdcdcd",
".8 c #cecece",
"ad c #cfcfcf",
"aa c #d0b480",
"#7 c #d0d0d0",
".b c #d19394",
"#2 c #d1b167",
"aC c #d3d3d3",
".N c #d4a1a1",
"#W c #d4d4ac",
".a c #d69a9a",
".M c #d6aaaa",
"#l c #d8b163",
"ac c #d9d9d9",
"aN c #dadada",
"#k c #dbc48e",
"aD c #dbdbdb",
".i c #dd9c9c",
"#w c #de9321",
"aO c #dedede",
"#3 c #dfdfdf",
".k c #e1a1a1",
"#G c #e27711",
".v c #e2afae",
"#V c #e4e4b1",
"#P c #e59b2e",
"#M c #e7a43f",
".j c #e8a7a7",
"#t c #f0cc6b",
"#D c #f4c442",
"#q c #f4f409",
"#J c #f7f707",
"#z c #f8f82e",
"#p c #fdfd01",
"#A c #ffff00",
"QtQtQt.#.a.b.cQtQtQtQtQtQt.d.e.f.gQtQtQtQtQt",
"QtQt.h.i.j.k.l.hQtQt.m.n.o.p.q.r.s.tQtQtQtQt",
"QtQt.h.u.v.w.x.h.y.z.A.B.C.D.E.F.G.H.I.JQtQt",
"QtQt.K.L.M.N.O.K.P.B.Q.F.E.R.E.S.T.U.V.WQtQt",
"QtQtQt.X.Y.Z.0Qt.1.2.2.3.4.5.6.U.D.7.8.9QtQt",
"QtQtQt#.###a#bQt.1.2#c.3#d#e.G#f#g#h#i.9QtQt",
"QtQtQt#j#k#l#mQt.1.2#c#c#n.6#o#p#q#r.T.9QtQt",
"QtQt#s#t#u#v#w#x.1.2#c#c#n#y#z#A#A#B.T.9QtQt",
"QtQt#C#D#E#F#G#H.1.2#c#c#n#y#I#p#J#K.T.9QtQt",
"QtQt#L#M#N#O#P#Q.1#R#S#S#T.8#U#V#W.S#X.9QtQt",
"QtQt#Y#Z#0#1#2#Y.1.2#c#c#n#3#4#5#6#7#8#9QtQt",
"QtQtQta.a#aaabQt.1.2#c#c#nacad.R.5aeaf#9QtQt",
"QtQtQtagahaiajQt.1.2#c#c#n#7ak#Tal#iaf#9QtQt",
"QtQtamanaoapaqar.1.2#c#c#nasat.G.Gauav#9QtQt",
"QtQtawaxayazaAaB.1#n#c#c#n#e#yadaCaD.8.tQtQt",
"QtQtaEaFaGaHaIaJaKaLaM.3#naN#3aOaCaPaQaRQtQt",
"QtQtQtaSaTaUaVQtQtaWaXaYaZa0.Ra1a2a3a4QtQtQt",
"QtQtQta5a6a7a8QtQtQta9b.b#bababb.gQtQtQtQtQt"};
