/* XPM */
static char * BotonEstadoCentralitasSinInfo_xpm[] = {
"30 30 514 2",
"  	c None",
". 	c #677A8D",
"+ 	c #677A8C",
"@ 	c #677A8B",
"# 	c #FAC26C",
"$ 	c #FBC366",
"% 	c #FBC367",
"& 	c #FBC266",
"* 	c #F9BF6E",
"= 	c #FBAD4D",
"- 	c #FFC957",
"; 	c #FFDF6D",
"> 	c #FFE371",
", 	c #FFDB6A",
"' 	c #FFC454",
") 	c #F59F3D",
"! 	c #F4993D",
"~ 	c #FEB244",
"{ 	c #FFBC4C",
"] 	c #FEBE50",
"^ 	c #FEBF50",
"/ 	c #FFBF50",
"( 	c #FEBE4F",
"_ 	c #FEB648",
": 	c #FFA83C",
"< 	c #E68B33",
"[ 	c #677A8A",
"} 	c #FD9830",
"| 	c #FFA034",
"1 	c #FFA236",
"2 	c #FFA135",
"3 	c #FF9F33",
"4 	c #FE9F34",
"5 	c #FFA136",
"6 	c #FF9B31",
"7 	c #F9912C",
"8 	c #D8914F",
"9 	c #FE932B",
"0 	c #FF972D",
"a 	c #FF992F",
"b 	c #FF9A2F",
"c 	c #FD9930",
"d 	c #F79835",
"e 	c #E89741",
"f 	c #D5924C",
"g 	c #DC9448",
"h 	c #F69836",
"i 	c #FE9A30",
"j 	c #FF942D",
"k 	c #F98D29",
"l 	c #B7783F",
"m 	c #D3833A",
"n 	c #FD8F2A",
"o 	c #FE952D",
"p 	c #FF9930",
"q 	c #FE9930",
"r 	c #FF9A30",
"s 	c #F69835",
"t 	c #DE9446",
"u 	c #C3925E",
"v 	c #B3997D",
"w 	c #A9A198",
"x 	c #ABA39B",
"y 	c #AAA29A",
"z 	c #B4997C",
"A 	c #DB954B",
"B 	c #F99833",
"C 	c #FE922C",
"D 	c #F48A28",
"E 	c #B37135",
"F 	c #D2823A",
"G 	c #FD8E2A",
"H 	c #FF9830",
"I 	c #F99834",
"J 	c #B18D68",
"K 	c #9F9993",
"L 	c #AAA9A9",
"M 	c #AEAEAE",
"N 	c #AFAFAF",
"O 	c #ABABAB",
"P 	c #A7A7A7",
"Q 	c #AAA49D",
"R 	c #CF955A",
"S 	c #FE912C",
"T 	c #F38928",
"U 	c #D1813A",
"V 	c #FB8D2A",
"W 	c #FF932D",
"X 	c #FF972F",
"Y 	c #F69635",
"Z 	c #A5917C",
"` 	c #939392",
" .	c #9A9A9A",
"..	c #A3A3A2",
"+.	c #A9A9A9",
"@.	c #A9A9AA",
"#.	c #B6B6B6",
"$.	c #D8D8D7",
"%.	c #CFA172",
"&.	c #FD902C",
"*.	c #F28828",
"=.	c #B27035",
"-.	c #D08039",
";.	c #FA8C29",
">.	c #FF962F",
",.	c #FE962F",
"'.	c #F69534",
").	c #A6917D",
"!.	c #969696",
"~.	c #939393",
"{.	c #B7B7B8",
"].	c #AFAFA3",
"^.	c #B6B689",
"/.	c #B8B8A8",
"(.	c #BEBEBF",
"_.	c #CC9E6F",
":.	c #FE952F",
"<.	c #FD8F2B",
"[.	c #F08627",
"}.	c #B16F34",
"|.	c #CE7F39",
"1.	c #F88A29",
"2.	c #FE8F2C",
"3.	c #FF942E",
"4.	c #FF952F",
"5.	c #F69334",
"6.	c #959595",
"7.	c #979797",
"8.	c #AFAFA6",
"9.	c #D5D540",
"0.	c #F5F50A",
"a.	c #D9D936",
"b.	c #ADAD9E",
"c.	c #CA9A6C",
"d.	c #FB8D2B",
"e.	c #EE8527",
"f.	c #B06E34",
"g.	c #CC7E38",
"h.	c #F68828",
"i.	c #FD8E2B",
"j.	c #FF922E",
"k.	c #FF932E",
"l.	c #F69233",
"m.	c #A6917C",
"n.	c #BABAA3",
"o.	c #F6F61F",
"p.	c #FEFE00",
"q.	c #F0F00D",
"r.	c #A7A783",
"s.	c #CA996D",
"t.	c #FF922D",
"u.	c #F98B2A",
"v.	c #EC8326",
"w.	c #AE6D34",
"x.	c #CB7D38",
"y.	c #F38728",
"z.	c #FB8C2B",
"A.	c #FF912D",
"B.	c #FE912D",
"C.	c #FF912E",
"D.	c #FD912F",
"E.	c #F29037",
"F.	c #DC8D44",
"G.	c #9C8E80",
"H.	c #B4B4B0",
"I.	c #CCCC64",
"J.	c #F8F82E",
"K.	c #D2D25C",
"L.	c #B4B4AE",
"M.	c #C99A6E",
"N.	c #DF8D42",
"O.	c #E78E3E",
"P.	c #FB9130",
"Q.	c #FE902D",
"R.	c #F7892A",
"S.	c #EA8126",
"T.	c #AD6C33",
"U.	c #C97C38",
"V.	c #F18627",
"W.	c #FE902C",
"X.	c #FC902D",
"Y.	c #EA8C37",
"Z.	c #CE8B4E",
"`.	c #B9926E",
" +	c #AA9B8D",
".+	c #AB9E93",
"++	c #A09D9A",
"@+	c #949494",
"#+	c #929292",
"$+	c #999999",
"%+	c #CCCCCC",
"&+	c #BCBCBA",
"*+	c #C1C1B6",
"=+	c #B8B8B5",
"-+	c #AC9E91",
";+	c #AB9E92",
">+	c #AA9D91",
",+	c #BA926D",
"'+	c #E98F3D",
")+	c #F58929",
"!+	c #E88025",
"~+	c #AC6C33",
"{+	c #C87B38",
"]+	c #EF8527",
"^+	c #F78A29",
"/+	c #FB8E2E",
"(+	c #BA8A60",
"_+	c #A2978E",
":+	c #AAA8A6",
"<+	c #AEAEAD",
"[+	c #A6A6A6",
"}+	c #D7D7D7",
"|+	c #C6C6C6",
"1+	c #B4B4B4",
"2+	c #BEBEBE",
"3+	c #A8A8A8",
"4+	c #A7A6A6",
"5+	c #A3998F",
"6+	c #D28C4E",
"7+	c #FD8E2C",
"8+	c #F38729",
"9+	c #E67F25",
"0+	c #AA6B33",
"a+	c #C67A37",
"b+	c #ED8326",
"c+	c #F58828",
"d+	c #F78C2E",
"e+	c #A48F7C",
"f+	c #929291",
"g+	c #9D9D9D",
"h+	c #B5B5B5",
"i+	c #D6D6D6",
"j+	c #A4A4A3",
"k+	c #C4C4C4",
"l+	c #828282",
"m+	c #8F8F8F",
"n+	c #A5A5A5",
"o+	c #B7B7B6",
"p+	c #DCDCDC",
"q+	c #CB986B",
"r+	c #FA8C2B",
"s+	c #F18528",
"t+	c #E47D24",
"u+	c #A96A33",
"v+	c #C47937",
"w+	c #EA8226",
"x+	c #F28728",
"y+	c #F48B2E",
"z+	c #A4907D",
"A+	c #909090",
"B+	c #BBBBBB",
"C+	c #B1B1AF",
"D+	c #AFAF9F",
"E+	c #B6B6B3",
"F+	c #BDBDBD",
"G+	c #A2A2A1",
"H+	c #C4C4C3",
"I+	c #ADADAD",
"J+	c #ACACAC",
"K+	c #BFBFBF",
"L+	c #9E9E9D",
"M+	c #AEAE9F",
"N+	c #B7B7B4",
"O+	c #C2C2C2",
"P+	c #C89669",
"Q+	c #F78B2B",
"R+	c #EE8428",
"S+	c #E17C24",
"T+	c #A76933",
"U+	c #C27736",
"V+	c #E88024",
"W+	c #EF8427",
"X+	c #F2882D",
"Y+	c #A48F7D",
"Z+	c #ABABA7",
"`+	c #C6C64F",
" @	c #D1D141",
".@	c #ACACA4",
"+@	c #9F9F9E",
"@@	c #BABABA",
"#@	c #CBCBCB",
"$@	c #D5D5D5",
"%@	c #DADADA",
"&@	c #A0A0A0",
"*@	c #AAAAA6",
"=@	c #CACA4A",
"-@	c #CFCF46",
";@	c #AFAFA9",
">@	c #C59267",
",@	c #F5882A",
"'@	c #EC8227",
")@	c #DF7A23",
"!@	c #A66832",
"~@	c #C17636",
"{@	c #E67E24",
"]@	c #ED8327",
"^@	c #F0872D",
"/@	c #BABAA5",
"(@	c #F7F71F",
"_@	c #F1F10A",
":@	c #A4A47B",
"<@	c #9F9F9F",
"[@	c #DDDDDD",
"}@	c #A2A2A2",
"|@	c #949493",
"1@	c #BCBCA3",
"2@	c #F7F71B",
"3@	c #F2F20B",
"4@	c #A4A486",
"5@	c #C49267",
"6@	c #F3872A",
"7@	c #E98127",
"8@	c #DD7923",
"9@	c #A46732",
"0@	c #BF7535",
"a@	c #E37C23",
"b@	c #EB8126",
"c@	c #EE852C",
"d@	c #A38F7D",
"e@	c #D2D253",
"f@	c #FAFA1A",
"g@	c #DBDB44",
"h@	c #AEAEA3",
"i@	c #9C9996",
"j@	c #BDAEA2",
"k@	c #BFA48D",
"l@	c #9A938C",
"m@	c #D4D44E",
"n@	c #FBFB1A",
"o@	c #D9D949",
"p@	c #B1B1A9",
"q@	c #C49167",
"r@	c #F18529",
"s@	c #E77F26",
"t@	c #DB7722",
"u@	c #A36631",
"v@	c #BD7435",
"w@	c #E17B23",
"x@	c #E98026",
"y@	c #EC842B",
"z@	c #A38E7D",
"A@	c #CACACA",
"B@	c #BEBEB9",
"C@	c #CDCDB3",
"D@	c #B8B8B0",
"E@	c #C7C7C8",
"F@	c #BB997B",
"G@	c #E28433",
"H@	c #E78532",
"I@	c #9F8C7D",
"J@	c #C9C9C9",
"K@	c #BFBFBA",
"L@	c #B6B6AF",
"M@	c #C59469",
"N@	c #EF8429",
"O@	c #E47E25",
"P@	c #D97621",
"Q@	c #A26531",
"R@	c #BC7335",
"S@	c #DF7A22",
"T@	c #E77F25",
"U@	c #EA832B",
"V@	c #A28E7C",
"W@	c #C1C1C1",
"X@	c #C69973",
"Y@	c #E7832D",
"Z@	c #9E8C7C",
"`@	c #D9D9D8",
" #	c #C5C5C5",
".#	c #C9C9C8",
"+#	c #C49368",
"@#	c #EC8328",
"##	c #E27D25",
"$#	c #D67521",
"%#	c #A16531",
"&#	c #BA7234",
"*#	c #DD7822",
"=#	c #E57D25",
"-#	c #E7822A",
";#	c #A28E7D",
">#	c #8C8C8C",
",#	c #B2B2B2",
"'#	c #E5822D",
")#	c #C8C8C8",
"!#	c #A1A1A0",
"~#	c #B7B7B7",
"{#	c #C39268",
"]#	c #EA8127",
"^#	c #E07B24",
"/#	c #D47420",
"(#	c #A06430",
"_#	c #B97134",
":#	c #DB7721",
"<#	c #E27C24",
"[#	c #E4802A",
"}#	c #A18D7C",
"|#	c #979796",
"1#	c #A9A9A8",
"2#	c #C49872",
"3#	c #E98027",
"4#	c #E2802C",
"5#	c #969695",
"6#	c #C3C3C3",
"7#	c #C19168",
"8#	c #E78027",
"9#	c #DE7A24",
"0#	c #D27220",
"a#	c #9E6330",
"b#	c #B77034",
"c#	c #D97521",
"d#	c #E07A24",
"e#	c #E27E29",
"f#	c #A08C7A",
"g#	c #CDCDCD",
"h#	c #D9D9D9",
"i#	c #C39872",
"j#	c #E67E26",
"k#	c #E07E2B",
"l#	c #9E8B7B",
"m#	c #B6B5B5",
"n#	c #C2C1C1",
"o#	c #CFCECE",
"p#	c #DBDBDB",
"q#	c #BF9067",
"r#	c #E57D26",
"s#	c #DC7823",
"t#	c #D0711F",
"u#	c #9D6230",
"v#	c #B56F33",
"w#	c #D67420",
"x#	c #DE7923",
"y#	c #E37D26",
"z#	c #C0804A",
"A#	c #978B81",
"B#	c #CAC8C6",
"C#	c #B9ADA2",
"D#	c #C48550",
"E#	c #E47D26",
"F#	c #E37D27",
"G#	c #BE814D",
"H#	c #968B81",
"I#	c #CAC7C5",
"J#	c #B9ACA0",
"K#	c #C5834A",
"L#	c #E37C26",
"M#	c #DA7723",
"N#	c #CE6F1F",
"O#	c #9E6533",
"P#	c #B3723C",
"Q#	c #CF6F1E",
"R#	c #D87522",
"S#	c #E17A24",
"T#	c #E17B26",
"U#	c #CB7B38",
"V#	c #A48266",
"W#	c #938D87",
"X#	c #C0B9B3",
"Y#	c #BFAD9F",
"Z#	c #BC9371",
"`#	c #C0804B",
" $	c #D37C33",
".$	c #E07B27",
"+$	c #E27B25",
"@$	c #C97C3A",
"#$	c #A38368",
"$$	c #938D88",
"%$	c #C1BAB4",
"&$	c #BFAD9D",
"*$	c #BB9271",
"=$	c #C1804A",
"-$	c #D37C32",
";$	c #E07B26",
">$	c #D47321",
",$	c #C66A1D",
"'$	c #98673E",
")$	c #BC651C",
"!$	c #CE6F21",
"~$	c #D87624",
"{$	c #DE7925",
"]$	c #DF7A25",
"^$	c #DA7A29",
"/$	c #C57B3D",
"($	c #CA7C3B",
"_$	c #D97C2F",
":$	c #DD7A28",
"<$	c #DF7A26",
"[$	c #DA7A2A",
"}$	c #C47B3E",
"|$	c #CC7D3A",
"1$	c #D57423",
"2$	c #C96C1F",
"3$	c #B4601B",
"4$	c #A35D22",
"5$	c #C06A21",
"6$	c #CD7226",
"7$	c #D37629",
"8$	c #D47729",
"9$	c #D07427",
"0$	c #C66D23",
"a$	c #B8641D",
"b$	c #8D511E",
"c$	c #9E5E29",
"d$	c #B66928",
"e$	c #C4722D",
"f$	c #C6732E",
"g$	c #C16F2B",
"h$	c #AC6121",
"i$	c #8B5120",
"j$	c #9D6C43",
"k$	c #9C6335",
"l$	c #9B6435",
"m$	c #9B6335",
"n$	c #97663E",
"o$	c #67778A",
". + + @ # $ % % % % % % % % % % % % % % % % % % & * @ @ + . ",
"+ . = - ; > > > > > > > > > > > > > > > > > > > > , ' ) . + ",
"+ ! ~ { ] ^ / ^ ^ / ^ ^ / ^ ^ / ^ ^ / ^ ^ / ^ ^ / ( _ : < + ",
"[ } | 1 2 3 3 3 3 3 3 3 3 3 3 4 4 3 3 3 3 3 3 3 3 2 5 6 7 [ ",
"8 9 0 a b b b b b b b b c d e f g h i b b b b b b b a j k l ",
"m n o p q q r q q q s t u v w x y z A B q r q q r q q C D E ",
"F G j H p p p p p I J K L M N M O P Q R p p p p p p H S T E ",
"U V W X H H H H H Y Z `  ...+.+.@.#.$.%.H H H H H H X &.*.=.",
"-.;.S >.,.,.>.,.,.'.).!.~.~.{.].^./.(._.,.>.,.,.>.,.:.<.[.}.",
"|.1.2.3.4.4.4.4.4.5.).!.6.7.8.9.0.a.b.c.4.4.4.4.4.4.3.d.e.f.",
"g.h.i.j.k.k.k.k.k.l.m.!.6.!.n.o.p.q.r.s.k.k.k.k.k.k.t.u.v.w.",
"x.y.z.A.B.B.C.D.E.F.G.!.6.7.H.I.J.K.L.M.E.N.O.P.C.B.Q.R.S.T.",
"U.V.u.W.X.Y.Z.`. +.+++@+#+$+%+&+*+=+%+-+ +;+>+,+'+Q.2.)+!+~+",
"{+]+^+/+(+_+:+<+N N N [+7.@+}+%+|+1+2+3+N N N 4+5+6+7+8+9+0+",
"a+b+c+d+e+f+g++.P [+P h+i+j+k+@+l+m+h+n+3+[+[+o+p+q+r+s+t+u+",
"v+w+x+y+z+!.~.A+B+C+D+E+F+G+H+I+J+J+K+L+B+C+M+N+O+P+Q+R+S+T+",
"U+V+W+X+Y+!.6.!.Z+`+q. @.@+@O+@@#@$@%@&@*@=@q.-@;@>@,@'@)@!@",
"~@{@]@^@Y+!.6.6./@(@p._@:@<@i+[@$@2+}@|@1@2@p.3@4@5@6@7@8@9@",
"0@a@b@c@d@!.6.!.L.e@f@g@h@i@j@k@l@m+~.7.L.m@n@o@p@q@r@s@t@u@",
"v@w@x@y@z@!.6.7.A@B@C@D@E@F@G@H@I@!.6.$+J@K@C@L@%+M@N@O@P@Q@",
"R@S@T@U@V@!.6.7.$.|+W@B+|+X@W+Y@Z@6.6.$+`@ #W@B+.#+#@###$#%#",
"&#*#=#-#;#!.6.7.J@}@>#>#,#X@'@'#I@!.6.$+)#!#>#>#~#{#]#^#/#(#",
"_#:#<#[#}#!.6.|#k+n+1#J+W@2#3#4#Z@5#6.$+6#n+3+J+k+7#8#9#0#a#",
"b#c#d#e#f#!.6.|#O+h+O+g#h#i#j#k#l#5#6.$+W@m#n#o#p#q#r#s#t#u#",
"v#w#x#y#z#A#6.7.$@[@%@B#C#D#E#F#G#H#6.$+i+[@%@I#J#K#L#M#N#O#",
"P#Q#R#S#T#U#V#W#X#Y#Z#`# $.$+$+$T#@$#$$$%$&$*$=$-$;$d#>$,$'$",
"@ )$!$~${$]$^$/$($_$:$<$]$]$]$]$]$]$[$}$|$_$:$<$]${$1$2$3$[ ",
". 4$5$6$7$8$8$8$8$8$8$8$8$8$8$8$8$8$8$8$8$8$8$8$8$9$0$a$b$. ",
". . c$d$e$f$f$f$f$f$f$f$f$f$f$f$f$f$f$f$f$f$f$f$f$g$h$i$. . ",
". . . [ j$k$l$m$m$l$m$m$l$m$m$l$m$m$l$m$m$l$m$m$m$n$o$. . . "};
