/* XPM */
static char *dummy[]={
"22 18 296 2",
"cK c #2c4554",
"cJ c #42525d",
"cI c #4c5b64",
"cw c #666666",
".t c #707070",
".q c #7a7a7a",
".z c #36566b",
"cL c #234d67",
".A c #757575",
".g c #28516b",
".o c #28516c",
"cv c #959595",
".s c #7f7f7f",
".r c #828282",
".p c #325870",
".f c #27526e",
".h c #25526e",
"cr c #7e3f44",
".n c #265370",
"cH c #275470",
"cs c #5c4f4f",
".e c #265472",
"c# c #d73c3c",
".P c #455870",
"#V c #2a526d",
"a2 c #2c5773",
"ad c #2c5875",
".B c #939393",
"cG c #275674",
"#B c #464355",
"bh c #555b71",
"c. c #594c5d",
"cq c #614c5c",
".3 c #964d58",
"bB c #b0515a",
"bP c #159414",
"b8 c #198c17",
"#7 c #22374a",
"cB c #234c66",
"#8 c #234d68",
"ap c #234e69",
"#O c #243648",
"bu c #26506b",
"bc c #26506c",
".Y c #26516d",
"Qt c #265573",
"aq c #275573",
".d c #275674",
"ao c #283b4a",
".J c #285674",
"cA c #2a3746",
"aH c #2b546c",
"cl c #2c3848",
"aX c #2d556e",
".u c #305b76",
"co c #30a329",
"by c #38a933",
"cx c #436072",
"bt c #464758",
"bb c #4c4b5b",
"bM c #4e4758",
"#e c #4f3b4c",
"bO c #50bc4b",
".X c #514355",
"cn c #51a44e",
"cy c #564756",
"bx c #57c250",
"bR c #599659",
".I c #5a707f",
"#w c #5e2c36",
"cc c #635a5a",
"b5 c #63b562",
"#N c #65333a",
"#6 c #66353b",
"cm c #6aa768",
"aI c #72828e",
"cp c #74af71",
"b3 c #77434b",
"bf c #77b874",
"ct c #797979",
"af c #7a6363",
"cz c #7b4047",
"ck c #7c3439",
"#W c #7e6363",
".K c #7e8790",
"cC c #7e8c8f",
"cF c #7f8b90",
"b9 c #80948c",
"an c #824242",
"#f c #82868d",
"bF c #837878",
"#i c #83868d",
"aY c #838b8e",
"a1 c #838c8e",
".i c #838c94",
"bw c #83d17d",
"aa c #874c0e",
"bW c #877d7d",
"ae c #878686",
"aG c #887f7f",
"bS c #889d8a",
"a3 c #897e7e",
"b4 c #899b95",
"bg c #8ca096",
"bG c #8e6f6f",
"aO c #8e8484",
"ay c #8e8d8d",
"cE c #8ebe8a",
"bz c #8fbc8e",
"aN c #909090",
"bV c #913f3f",
"ax c #919191",
"az c #946969",
"cD c #94bb90",
"a# c #95681d",
".H c #959596",
"cb c #964141",
".7 c #967373",
".S c #967a7a",
"aw c #96958a",
"bA c #98a599",
".8 c #999797",
"bE c #9a4d4d",
"ch c #9a7c7c",
"b7 c #9ac89b",
"ar c #9b9d97",
"bd c #9ba8a4",
"bQ c #9bcb9b",
"aF c #9c3939",
"be c #9cc799",
"aW c #9d8383",
"#o c #9f8989",
".U c #9f9595",
"bN c #9fb1a1",
"#p c #a1a0a0",
"## c #a29797",
".c c #a39598",
".# c #a49da0",
"aK c #a5641d",
".C c #a5a5a5",
"bv c #a5b4a7",
"#A c #a6a091",
".T c #a6a5a5",
"#x c #a6a69b",
"#H c #a77e45",
"#. c #a7a7a7",
"bn c #a84141",
"#j c #a84248",
".G c #aaaaaa",
"#q c #aba385",
"bs c #ac393e",
"bL c #ac3b3f",
"#S c #ad7824",
".D c #adadad",
"aL c #ae853b",
"bY c #ae8f8f",
".F c #aeaeae",
".E c #afafaf",
".9 c #b0b0b0",
".0 c #b12929",
"ag c #b35050",
"ac c #b3a28d",
"#U c #b3a995",
".Z c #b4898a",
"b1 c #b50707",
"at c #b5650d",
"cu c #b5b5b5",
".Q c #b75e5e",
"#9 c #b8b29a",
".W c #b94b51",
"au c #b96f19",
"#P c #b9b1a1",
"bJ c #bb0101",
"#G c #bb6666",
"ci c #bd4141",
".6 c #bd6868",
".R c #be5858",
"#C c #be5c5c",
"aP c #be6363",
".2 c #be8989",
"#R c #beab77",
"bX c #bebdbd",
"b0 c #bf1111",
"cj c #bf2829",
"#g c #bf8383",
"bK c #c00f0f",
".1 c #c02929",
"#X c #c15858",
"b2 c #c22a2a",
"bo c #c23333",
"aV c #c33d3d",
"#n c #c36767",
"#h c #c38484",
"cd c #c3c3c3",
"cg c #c4c3c3",
"b6 c #c5dfc5",
"bH c #c74242",
"bT c #c7444a",
"bZ c #c74a4a",
".v c #c75b5a",
"ba c #c84949",
".y c #c93a3a",
".L c #ca7b7b",
"bq c #cb0202",
"bI c #cb1111",
"aJ c #cba465",
"#d c #cc5c60",
".O c #cc7373",
"aZ c #ccb089",
"br c #cd1010",
"bi c #cd6363",
".m c #cd6e6e",
".x c #cd9999",
".V c #cf7575",
"a0 c #d0b480",
".b c #d19394",
"aM c #d1b167",
"am c #d23a37",
"a4 c #d36767",
"aA c #d43939",
".N c #d4a1a1",
"#M c #d6595a",
".a c #d69a9a",
".M c #d6aaaa",
"#a c #d78787",
"#z c #d8b163",
"#v c #d9595a",
".4 c #d97b7b",
"bm c #da2424",
"bp c #db1010",
"#5 c #db5858",
"#y c #dbc48e",
"aQ c #dc1818",
"#r c #dc8276",
"b# c #dd1010",
".j c #dd9c9c",
"cf c #dddddd",
"#T c #de9321",
"ce c #dedede",
"b. c #df0101",
".l c #e1a1a1",
"bD c #e22323",
"#1 c #e2705c",
"ab c #e27711",
"#I c #e29828",
".w c #e2afae",
"#k c #e37676",
"bj c #e41e1e",
".5 c #e48484",
"#l c #e57e7e",
"av c #e59b2e",
"bC c #e61c1c",
"aU c #e70b0b",
"ca c #e72d2d",
"ah c #e75a5a",
"as c #e7a43f",
"a9 c #e80d0d",
"#D c #e87070",
".k c #e8a7a7",
"aR c #e90101",
"bk c #e90202",
"#s c #e97b7b",
"#m c #e97f7f",
"aS c #ea0202",
"aC c #ea0e0e",
"#E c #ea7878",
"aT c #eb0202",
"a6 c #eb0404",
"aE c #eb1211",
"aB c #eb1d1d",
"#0 c #eb7272",
"#2 c #eb7360",
"aD c #ec0505",
"a7 c #ec0707",
"a8 c #ed1717",
"a5 c #ed2424",
"#F c #ed7979",
"#b c #ed8181",
"#Y c #ee6868",
"bU c #ef0808",
"ak c #ef3c3c",
"ai c #ef5858",
"#Z c #ef7272",
"bl c #f00707",
"al c #f03433",
"aj c #f04e4e",
"#Q c #f0cc6b",
"#c c #f18282",
"#K c #f37d7d",
"#3 c #f4706f",
"#t c #f48080",
"a. c #f4c442",
"#u c #f77777",
"#J c #f77f6d",
"#4 c #f86767",
"#L c #f87474",
"QtQtQt.#.a.b.cQt.d.d.d.d.d.e.f.g.h.d.d.d.d.d",
"QtQt.i.j.k.l.m.i.d.d.n.o.p.q.r.s.t.u.d.d.d.d",
"QtQt.i.v.w.x.y.i.d.z.A.B.C.D.E.F.G.H.I.J.d.d",
"QtQt.K.L.M.N.O.K.P.Q.R.S.T.F.E.C.C.U.V.W.X.Y",
"QtQtQt.Z.0.1.2Qt.3.4.5.6.7.8.9#.###a#b#c#d#e",
"QtQtQt#f#g#h#iQt#j#k#l#m#n#o#p#q#r#s#t#u#v#w",
"QtQtQt#x#y#z#AQt#B#C#D#E#F#G#H#I#J#K#L#M#N#O",
"QtQt#P#Q#R#S#T#U#V#W#X#Y#Z#0#1#2#3#4#5#6#7#8",
"QtQt#9a.a#aaabacadaeafagahaiajakalamanaoapaq",
"QtQtarasatauavawadaxayazaAaBaCaDaEaFaGaHaq.d",
"QtQtaIaJaKaLaMaIadaNaOaPaQaRaSaTaUaVaWaX.d.d",
"QtQtQtaYaZa0a1Qta2a3a4a5a6a7a8a9b.b#babbbc.d",
"QtQtQtbdbebfbgQtbhbibjbkblbmbnbobpbqbrbsbtbu",
"QtQtbvbwbxbybzbAbBbCaSblbDbEbFbGbHbIbJbKbLbM",
"QtQtbNbObPbQbRbSbTaCbUbDbVbW#.bXbYbZb0b1b2b3",
"QtQtb4b5b6b7b8b9c.c#cacbcccdcecfcgchcicjckcl",
"QtQtQtcmcncocpQt.YcqcrcsctcdcucvcwcxcyczcAcB",
"QtQtQtcCcDcEcFQt.d.dcGcHcIcJcKcL.h.d.d.d.d.d"};
