/* XPM */
static char *dummy[]={
"22 18 304 2",
".w c #707070",
".t c #7a7a7a",
"cR c #b9881c",
"cE c #bb8c2e",
"cQ c #c08d1f",
".F c #757575",
".E c #626954",
"cP c #c39022",
".v c #7f7f7f",
".u c #828282",
"cD c #a19785",
".s c #5f6b58",
"cz c #7e3f44",
"cS c #9f822d",
".r c #87793c",
"cA c #5c4f4f",
"ch c #d73c3c",
"cT c #b68d24",
".q c #b78d26",
".G c #939393",
".g c #be9022",
".h c #e49f0e",
"cy c #725652",
"bq c #8d754b",
"## c #964d58",
"#J c #97712f",
"bJ c #b0515a",
"b# c #b88e26",
"aE c #b88e27",
".W c #c18e25",
".i c #f1a407",
"bX c #159414",
"ce c #198c17",
"cw c #30a329",
"bG c #38a933",
"bW c #50bc4b",
"cv c #51a44e",
".a c #56685a",
"bF c #57c250",
"bZ c #599659",
"bk c #605551",
"ck c #635a5a",
"cb c #63b562",
"cu c #6aa768",
"cF c #6c7059",
".6 c #6e714d",
"bC c #6f5d45",
"aQ c #72828e",
"cx c #74af71",
"bo c #77b874",
"cB c #797979",
"an c #7a6363",
"#4 c #7e6363",
".Q c #7e8790",
"cK c #7e8c8f",
"cN c #7f8b90",
"cf c #80948c",
"aV c #81867e",
"av c #824242",
"#n c #82868d",
"bN c #837878",
"#q c #83868d",
"a7 c #838b8e",
"b. c #838c8e",
".l c #838c94",
"bE c #83d17d",
"bU c #84653d",
"bl c #867b40",
"ai c #874c0e",
"b4 c #877d7d",
"am c #878686",
"ac c #884f2e",
"aO c #887f7f",
"b0 c #889d8a",
"cH c #894c3f",
"ba c #897e7e",
"ca c #899b95",
"cs c #8a4133",
"a6 c #8a7b3d",
".V c #8c8b80",
"bp c #8ca096",
"cG c #8e6839",
"bO c #8e6f6f",
"aX c #8e8484",
"aG c #8e8d8d",
"cM c #8ebe8a",
"bH c #8fbc8e",
"aW c #909090",
"b3 c #913f3f",
"aF c #919191",
"#E c #945624",
"aH c #946969",
"cL c #94bb90",
"ah c #95681d",
".M c #959596",
"cj c #964141",
"#d c #967373",
".Z c #967a7a",
"aD c #96958a",
"#V c #985b27",
"bI c #98a599",
"#e c #999797",
"bM c #9a4d4d",
"cp c #9a7c7c",
"cd c #9ac89b",
"ay c #9b9d97",
"bm c #9ba8a4",
"bY c #9bcb9b",
"aN c #9c3939",
"bn c #9cc799",
"#W c #9d7620",
"a5 c #9d8383",
".f c #9e8433",
"#w c #9f8989",
".1 c #9f9595",
"bV c #9fb1a1",
"#x c #a1a0a0",
"#h c #a29797",
".N c #a38a47",
".e c #a39598",
"c# c #a46532",
"#m c #a47027",
".b c #a49da0",
"aS c #a5641d",
".H c #a5a5a5",
"bD c #a5b4a7",
"#I c #a6a091",
".0 c #a6a5a5",
"#F c #a6a69b",
"#P c #a77e45",
"#g c #a7a7a7",
"bw c #a84141",
"#r c #a84248",
"aw c #aa7e1e",
".L c #aaaaaa",
"#y c #aba385",
"bB c #ac393e",
"bT c #ac3b3f",
"#0 c #ad7824",
".I c #adadad",
"aT c #ae853b",
"b6 c #ae8f8f",
".K c #aeaeae",
".J c #afafaf",
"#f c #b0b0b0",
".8 c #b12929",
"ao c #b35050",
"ak c #b3a28d",
"#2 c #b3a995",
".7 c #b4898a",
"b9 c #b50707",
"aA c #b5650d",
"cC c #b5b5b5",
".X c #b75e5e",
".k c #b78e26",
"cO c #b78e27",
"aP c #b88d24",
"af c #b8b29a",
".3 c #b94b51",
"aB c #b96f19",
"#X c #b9b1a1",
"bR c #bb0101",
"#O c #bb6666",
"cq c #bd4141",
"#c c #bd6868",
".Y c #be5858",
"#K c #be5c5c",
"aY c #be6363",
"#. c #be8989",
"#Z c #beab77",
"b5 c #bebdbd",
"b8 c #bf1111",
"cr c #bf2829",
"#o c #bf8383",
"bS c #c00f0f",
".9 c #c02929",
"#5 c #c15858",
"c. c #c22a2a",
"bx c #c23333",
"a4 c #c33d3d",
"#v c #c36767",
"#p c #c38484",
"cl c #c3c3c3",
"co c #c4c3c3",
".4 c #c5881c",
"cc c #c5dfc5",
"bP c #c74242",
"b1 c #c7444a",
"b7 c #c74a4a",
".z c #c75b5a",
"bj c #c84949",
"cg c #c88b1f",
".C c #c93a3a",
".x c #c9951f",
".R c #ca7b7b",
"bz c #cb0202",
"bQ c #cb1111",
"aR c #cba465",
"#l c #cc5c60",
".U c #cc7373",
"a8 c #ccb089",
"bA c #cd1010",
"br c #cd6363",
".p c #cd6e6e",
".B c #cd9999",
".P c #ce971a",
".2 c #cf7575",
".D c #cf971a",
"a9 c #d0b480",
".d c #d19394",
"aU c #d1b167",
"au c #d23a37",
"bb c #d36767",
"ad c #d3930f",
"aI c #d43939",
".T c #d4a1a1",
"#U c #d6595a",
".c c #d69a9a",
".S c #d6aaaa",
"#i c #d78787",
".5 c #d79914",
"#H c #d8b163",
"#D c #d9595a",
"#a c #d97b7b",
"bv c #da2424",
"by c #db1010",
"ab c #db5858",
"#G c #dbc48e",
"aZ c #dc1818",
"#z c #dc8276",
"bi c #dd1010",
".m c #dd9c9c",
"cn c #dddddd",
"#1 c #de9321",
"cm c #dedede",
"bh c #df0101",
".o c #e1a1a1",
"bL c #e22323",
"#9 c #e2705c",
"aj c #e27711",
"#Q c #e29828",
".A c #e2afae",
"#s c #e37676",
"bs c #e41e1e",
"#b c #e48484",
".y c #e49f0e",
"#t c #e57e7e",
"aC c #e59b2e",
"bK c #e61c1c",
"ae c #e69f0c",
"ax c #e6a00c",
".# c #e6a00d",
"a3 c #e70b0b",
"ci c #e72d2d",
"ap c #e75a5a",
"#3 c #e7a00d",
"al c #e7a10d",
"az c #e7a43f",
"bg c #e80d0d",
"#L c #e87070",
".n c #e8a7a7",
"a0 c #e90101",
"bt c #e90202",
"#A c #e97b7b",
"#u c #e97f7f",
"cI c #e99e07",
"a1 c #ea0202",
"aK c #ea0e0e",
"#M c #ea7878",
"ct c #ea9f07",
"a2 c #eb0202",
"bd c #eb0404",
"aM c #eb1211",
"aJ c #eb1d1d",
"#8 c #eb7272",
"a. c #eb7360",
".j c #eba20a",
"aL c #ec0505",
"be c #ec0707",
"bf c #ed1717",
"bc c #ed2424",
"#N c #ed7979",
"#j c #ed8181",
"#6 c #ee6868",
"cJ c #eea308",
"b2 c #ef0808",
"as c #ef3c3c",
"aq c #ef5858",
"#7 c #ef7272",
".O c #efa409",
"bu c #f00707",
"at c #f03433",
"ar c #f04e4e",
"#Y c #f0cc6b",
"#k c #f18282",
"#S c #f37d7d",
"a# c #f4706f",
"#B c #f48080",
"ag c #f4c442",
"#C c #f77777",
"#R c #f77f6d",
"aa c #f86767",
"#T c #f87474",
"Qt c #ffaa00",
"Qt.#.a.b.c.d.e.fQtQtQtQtQt.g.hQt.i.jQtQtQtQt",
"Qt.k.l.m.n.o.p.lQtQt.q.r.s.t.u.v.w.x.yQtQtQt",
"Qt.k.l.z.A.B.C.l.D.E.F.G.H.I.J.K.L.M.N.O.DQt",
"Qt.P.Q.R.S.T.U.V.W.X.Y.Z.0.K.J.H.H.1.2.3.4.5",
"QtQt.6.7.8.9#..f###a#b#c#d#e#f#g#h#i#j#k#l#m",
"QtQt.k#n#o#p#q.P#r#s#t#u#v#w#x#y#z#A#B#C#D#E",
"Qt.#.a#F#G#H#I.P#J#K#L#M#N#O#P#Q#R#S#T#U#V#W",
"Qt.6#X#Y#Z#0#1#2#3#4#5#6#7#8#9a.a#aaabacadae",
"Qt.6afagahaiajakalamanaoapaqarasatauavawaxQt",
"Qt.6ayazaAaBaCaDaEaFaGaHaIaJaKaLaMaNaOaPQtQt",
"Qt.kaQaRaSaTaUaVaEaWaXaYaZa0a1a2a3a4a5a6QtQt",
"QtQt.6a7a8a9b..#b#babbbcbdbebfbgbhbibjbkaxQt",
"QtQtblbmbnbobpQtbqbrbsbtbubvbwbxbybzbAbBbCax",
"QtblbDbEbFbGbHbIbJbKa1bubLbMbNbObPbQbRbSbTbU",
"Qt.6bVbWbXbYbZb0b1aKb2bLb3b4#gb5b6b7b8b9c.c#",
"Qtblcacbcccdcecfcgchcicjckclcmcncocpcqcrcsct",
"Qt.#.6cucvcwcx.kaxcyczcAcBclcCcDcEcFcGcHcIcJ",
"QtQt.kcKcLcMcNQtQtQtcOQtcPcQcRcScTQtQtQtQtQt"};
