/* XPM */
static char * BotonListinInterfonosNormalRollover_xpm[] = {
"30 30 281 2",
"  	c None",
". 	c #677A8D",
"+ 	c #E8E8E8",
"@ 	c #E2E2E2",
"# 	c #D0D0D0",
"$ 	c #F2F2F2",
"% 	c #F9F9F9",
"& 	c #FAFAFA",
"* 	c #EFEFEF",
"= 	c #C9C9C9",
"- 	c #B1B1B1",
"; 	c #CFCFCF",
"> 	c #D6D6D6",
", 	c #D2D2D2",
"' 	c #D1D1D1",
") 	c #C5C5C5",
"! 	c #AAAAAA",
"~ 	c #A9A9A9",
"{ 	c #AEAEAE",
"] 	c #B0B0B0",
"^ 	c #ABABAB",
"/ 	c #AFAFAF",
"( 	c #A2A2A2",
"_ 	c #979797",
": 	c #919191",
"< 	c #969696",
"[ 	c #9A9A9A",
"} 	c #999999",
"| 	c #959595",
"1 	c #8E8E8E",
"2 	c #6F6F6F",
"3 	c #878787",
"4 	c #858585",
"5 	c #8B8B8B",
"6 	c #909090",
"7 	c #929292",
"8 	c #939393",
"9 	c #8F8F8F",
"0 	c #8A8A8A",
"a 	c #828282",
"b 	c #5E5E5E",
"c 	c #818181",
"d 	c #8C8C8C",
"e 	c #8D8D8D",
"f 	c #898989",
"g 	c #A3A3A3",
"h 	c #ACACAC",
"i 	c #9F9F9F",
"j 	c #868686",
"k 	c #7E7E7E",
"l 	c #5C5C5C",
"m 	c #848484",
"n 	c #808080",
"o 	c #9D9D9D",
"p 	c #ADADAD",
"q 	c #A8A8A8",
"r 	c #A6A6A6",
"s 	c #BCBCBC",
"t 	c #7D7D7D",
"u 	c #5B5B5B",
"v 	c #949494",
"w 	c #9B9B9B",
"x 	c #DBDBDB",
"y 	c #969695",
"z 	c #7F7F7F",
"A 	c #BABABA",
"B 	c #B3B38D",
"C 	c #B8B889",
"D 	c #B7B7B2",
"E 	c #BDBDBD",
"F 	c #888888",
"G 	c #B9B973",
"H 	c #EDED13",
"I 	c #F4F40A",
"J 	c #C8C855",
"K 	c #ADADA8",
"L 	c #959594",
"M 	c #838383",
"N 	c #5F5F5F",
"O 	c #B6B7B8",
"P 	c #B4B5B6",
"Q 	c #B2B4B5",
"R 	c #B1B2B4",
"S 	c #AEB0B2",
"T 	c #ACAEB1",
"U 	c #ABADB0",
"V 	c #A0A1A4",
"W 	c #E7E74F",
"X 	c #FEFE00",
"Y 	c #E6E618",
"Z 	c #A1A192",
"` 	c #606060",
" .	c #9B9B9C",
"..	c #E1E4E8",
"+.	c #EAECEF",
"@.	c #E9EBEE",
"#.	c #E8EAED",
"$.	c #E6E9EC",
"%.	c #E5E8EB",
"&.	c #E5E7EA",
"*.	c #CCCDCF",
"=.	c #C6C66F",
"-.	c #F5F508",
";.	c #FCFC02",
">.	c #D3D34B",
",.	c #ABABA5",
"'.	c #616161",
").	c #9C9C9D",
"!.	c #ECEDF0",
"~.	c #FDFDFD",
"{.	c #FCFCFC",
"].	c #FBFBFB",
"^.	c #DBDADB",
"/.	c #C1C1C1",
"(.	c #B6B6B4",
"_.	c #DEDEA8",
":.	c #E3E3A1",
"<.	c #AAAAA0",
"[.	c #C6C6C6",
"}.	c #999998",
"|.	c #626262",
"1.	c #989898",
"2.	c #9E9E9F",
"3.	c #EDEFF1",
"4.	c #E1E1E7",
"5.	c #CFCDD7",
"6.	c #CDCCD6",
"7.	c #CDCCD5",
"8.	c #BAB9C0",
"9.	c #C2C2C2",
"0.	c #B4B4B4",
"a.	c #B7B7B7",
"b.	c #D3D3D3",
"c.	c #646464",
"d.	c #9FA0A0",
"e.	c #EEEFF1",
"f.	c #F6F8FA",
"g.	c #C8E5EF",
"h.	c #F1F4F5",
"i.	c #F8F8F8",
"j.	c #DADADA",
"k.	c #CDCDCD",
"l.	c #BEBEBE",
"m.	c #9A9A99",
"n.	c #656565",
"o.	c #A1A1A2",
"p.	c #FAFBFB",
"q.	c #ECF0F3",
"r.	c #BFD9E8",
"s.	c #C3DBE6",
"t.	c #F6F6F7",
"u.	c #D8D8D9",
"v.	c #9E9E9E",
"w.	c #A4A4A4",
"x.	c #666666",
"y.	c #9C9C9C",
"z.	c #E7E9EC",
"A.	c #F5F7F9",
"B.	c #A2C3DB",
"C.	c #89B4D0",
"D.	c #DEE5EA",
"E.	c #D0CFD8",
"F.	c #D0D0D8",
"G.	c #BCBCC1",
"H.	c #C4C4C4",
"I.	c #B8B8B8",
"J.	c #A3A3A4",
"K.	c #E7E9ED",
"L.	c #E6EBF0",
"M.	c #CFDEE7",
"N.	c #BCDDE9",
"O.	c #EFF2F3",
"P.	c #F5F5F5",
"Q.	c #D8D8D8",
"R.	c #C0C0C0",
"S.	c #C8C8C8",
"T.	c #D4D4D4",
"U.	c #686868",
"V.	c #A0A0A0",
"W.	c #A4A5A6",
"X.	c #F7F8F9",
"Y.	c #DBE5ED",
"Z.	c #AECEE1",
"`.	c #CBDCE6",
" +	c #EDEDEF",
".+	c #E1E1E3",
"++	c #A4A4A5",
"@+	c #CACACA",
"#+	c #DEDEDE",
"$+	c #CCCCCC",
"%+	c #B6B6B6",
"&+	c #696969",
"*+	c #A1A1A1",
"=+	c #A6A7A8",
"-+	c #E6E8ED",
";+	c #F5F7F8",
">+	c #A7C5DB",
",+	c #8FB5CF",
"'+	c #DEE6EB",
")+	c #D3D3DB",
"!+	c #D5D4DB",
"~+	c #D4D2DA",
"{+	c #CECED4",
"]+	c #B0AFB2",
"^+	c #A5A6A7",
"/+	c #6A6A6A",
"(+	c #A8A8AA",
"_+	c #EEF0F2",
":+	c #D7E3EB",
"<+	c #B9D9E7",
"[+	c #F0F2F3",
"}+	c #F4F5F5",
"|+	c #F4F4F4",
"1+	c #F3F3F3",
"2+	c #F0F0F0",
"3+	c #DDDDDD",
"4+	c #B5B5B5",
"5+	c #E1E1E1",
"6+	c #C7C9CD",
"7+	c #A5A5A5",
"8+	c #6B6B6B",
"9+	c #A9AAAB",
"0+	c #E5E7EC",
"a+	c #F5F6F7",
"b+	c #CDDDE8",
"c+	c #A5C7DD",
"d+	c #CEDBE5",
"e+	c #E4E3E7",
"f+	c #E3E2E6",
"g+	c #E2E1E5",
"h+	c #E1E0E4",
"i+	c #E1E0E3",
"j+	c #E0DFE3",
"k+	c #DEDDE1",
"l+	c #DEDDE0",
"m+	c #EAE9EA",
"n+	c #CACDD1",
"o+	c #6C6C6C",
"p+	c #A7A7A7",
"q+	c #ABABAC",
"r+	c #E5E7EB",
"s+	c #F5F6F6",
"t+	c #AEC8DC",
"u+	c #96B8D0",
"v+	c #EAEBED",
"w+	c #DCDBE0",
"x+	c #DBDADF",
"y+	c #DAD9DE",
"z+	c #D9D9DE",
"A+	c #D9D8DD",
"B+	c #D8D7DC",
"C+	c #E7E7E9",
"D+	c #EEEEEE",
"E+	c #CBCDD1",
"F+	c #A8A8A9",
"G+	c #6E6E6E",
"H+	c #ACACAD",
"I+	c #E4E6EB",
"J+	c #F7F7F7",
"K+	c #F1F2F3",
"L+	c #EDEFF0",
"M+	c #F4F4F3",
"N+	c #F1F1F1",
"O+	c #F1F0F0",
"P+	c #A9AAAA",
"Q+	c #6D6D6D",
"R+	c #C5C8CF",
"S+	c #CED0D5",
"T+	c #CDD0D4",
"U+	c #CCCFD3",
"V+	c #CBCED2",
"W+	c #C9CCD0",
"X+	c #C9CBD0",
"Y+	c #C8CBCF",
"Z+	c #B3B7BD",
"`+	c #787878",
" @	c #677A8C",
".@	c #AAABAC",
"+@	c #677A8A",
"@@	c #767676",
"#@	c #737373",
". . . . + + + + + + + + + + + + + + + + + + + + + @ . . . . ",
". . # $ % & & & & & & & & & & & & & & & & & & & & % * = . . ",
". - ; > , , ' ' ' ' ' ' ' ' ' ' ' ' ' ' ' ' ' ' , , ' ) ! . ",
". ~ { ] ^ ~ ~ ~ ~ ~ ~ ~ ~ ~ ~ ~ ~ ~ ~ ~ ~ ~ ~ ~ ~ ! / ! ( . ",
"_ : < [ [ [ [ [ [ [ [ [ [ [ [ [ [ [ [ } _ [ [ [ [ [ [ | 1 2 ",
"3 4 5 6 6 6 6 6 6 6 6 6 6 6 6 6 1 6 7 | 6 8 9 6 6 6 6 0 a b ",
"4 c 3 d e e e e e e e e e d f e _ g ^ { { h i 5 5 e d j k l ",
"m n j 5 d d d d d d d d d f f o ^ { { p q r q s 6 d 5 4 t u ",
"4 a 3 e 1 1 1 1 1 1 1 1 1 5 9 7 v w r ! p ] s x y 1 e 3 z l ",
"j m 0 9 6 6 6 6 6 6 6 6 6 d 6 | v 9 A p B C D E | 6 9 f c b ",
"F j d : 7 7 7 7 7 7 7 7 7 1 6 | | 7 p G H I J K L 7 : 5 M N ",
"f 3 e 7 8 < O P Q R S T U V 6 | | 7 / W X X Y Z | 8 7 d m ` ",
"0 f 9 v |  ...+.@.#.$.%.&.*.6 < | 8 / =.-.;.>.,.y | v 1 j '.",
"0 0 6 | < ).!.~.{.{.].& % ^.6 | | 7 /.(._.:.<.[.}.< < 9 3 |.",
"d d 7 _ 1.2.3.].4.5.6.7.7.8.6 | | 7 ' 9.0.a.= b.} 1.1.: f c.",
"d e v 1.} d.e.].].f.g.h.i.j.6 | | 7 k., l.0.7 s m.} } 7 0 n.",
"e 9 < [ w o.!.p.q.r.s.t.t.u.6 | | 7 ) v.a 4 w.) [ w w v d x.",
"1 6 _ y.o o.z.A.B.C.D.E.F.G.6 | | 7 H.I.p h ! [.w o y.< e x.",
"9 7 } v.i J.K.& L.M.N.O.P.Q.6 | | 7 /.] R.S.T.x y.i v.1.9 U.",
"6 v [ V.V.W.K.X.Y.Z.`. + +.+++7 | 8 @+Q.#+x $+%+_ V.V.} : &+",
": < y.*+( =+-+;+>+,+'+)+!+~+{+]+_ : [.$+R.^+_ } *+( ( w 7 /+",
"7 _ o g w.(+-+i._+:+<+[+}+|+1+2+3+0.4+k.5+6+^+w.7+w.w.y.v 8+",
"8 1.V.7+r 9+0+a+b+c+d+e+f+g+h+i+j+k+l+m+* n+=+r r r 7+v.| o+",
"v [ *+p+p+q+r+s+t+u+v+w+x+y+z+A+B+B+B+C+D+E+F+p+q p+p+V._ G+",
"v w g q ~ H+I+J+K+L+|+M+1+$ N+O+2+* * * * n+P+~ ~ ~ q *+1.Q+",
"1.1.*+q ^ H+R+S+T+T+U+V+V+V+n+W+X+Y+Y+Y+Y+Z+9+^ ^ ^ ~ V.< `+",
" @| i p+! ^ q+q+q+q+q+.@q+q+q+q+q+q+q+q+q+9+^ ^ ^ ! 7+w 9 +@",
". M [ g r p+p+p+p+p+p+p+p+p+p+p+p+p+p+p+p+p+p+p+p+7+v.8 @@. ",
". . c 1.w i i i i i i i i i i i i i i i i i i i i w 9 #@+@. ",
". . . . 1 f f f f f f f f f f f f f f f f f f f F 3 +@. . . "};
