/* XPM */
static char * BotonListinInterfonosSinCom_xpm[] = {
"30 30 531 2",
"  	c None",
". 	c #677A8D",
"+ 	c #677A8C",
"@ 	c #FAFA8D",
"# 	c #FBFB8A",
"$ 	c #F9F88D",
"% 	c #677A8B",
"& 	c #FBFA73",
"* 	c #FFFF84",
"= 	c #FFFF9A",
"- 	c #FFFF9F",
"; 	c #FFFF97",
"> 	c #FFFF80",
", 	c #F5F464",
"' 	c #F4F263",
") 	c #FEFE71",
"! 	c #FFFF7A",
"~ 	c #FEFE7D",
"{ 	c #FFFF7D",
"] 	c #FFFF7E",
"^ 	c #FEFE75",
"/ 	c #FFFF68",
"( 	c #E7E457",
"_ 	c #FDFC5C",
": 	c #FFFF61",
"< 	c #FFFF63",
"[ 	c #FEFE61",
"} 	c #FFFF5E",
"| 	c #F9F757",
"1 	c #D7D58A",
"2 	c #FBFA56",
"3 	c #FFFF5B",
"4 	c #FFFF5D",
"5 	c #FEFE5D",
"6 	c #FBFB5F",
"7 	c #F2F262",
"8 	c #E9E964",
"9 	c #F9F960",
"0 	c #FCFA56",
"a 	c #C1BE45",
"b 	c #CDCB72",
"c 	c #FAF855",
"d 	c #FEFE59",
"e 	c #FEFE5E",
"f 	c #F8F860",
"g 	c #E7E764",
"h 	c #D5D56F",
"i 	c #B8B87F",
"j 	c #ADAD88",
"k 	c #AAAA84",
"l 	c #B5B582",
"m 	c #DCDC6C",
"n 	c #FFFE59",
"o 	c #F8F454",
"p 	c #C2BF42",
"q 	c #CCCA71",
"r 	c #FAF654",
"s 	c #CDCD6D",
"t 	c #AFAF7E",
"u 	c #A4A492",
"v 	c #A6A6A2",
"w 	c #ABABAB",
"x 	c #AEAEAE",
"y 	c #ACACAC",
"z 	c #A6A69C",
"A 	c #B6B679",
"B 	c #E8E864",
"C 	c #F7F353",
"D 	c #C3BF41",
"E 	c #CCC96F",
"F 	c #FAF451",
"G 	c #FFFE56",
"H 	c #FFFF5A",
"I 	c #E0E064",
"J 	c #8C8C88",
"K 	c #9D9D9D",
"L 	c #ADADAD",
"M 	c #A8A8A7",
"N 	c #A6A6A5",
"O 	c #A8A8A8",
"P 	c #BDBDBC",
"Q 	c #C0C07C",
"R 	c #FEFE5B",
"S 	c #FFFD57",
"T 	c #F7F151",
"U 	c #C3BD3F",
"V 	c #CCC86D",
"W 	c #FAF24E",
"X 	c #FEFC53",
"Y 	c #FFFF56",
"Z 	c #FEFE57",
"` 	c #FFFF57",
" .	c #DFDF61",
"..	c #8F8F8F",
"+.	c #929292",
"@.	c #949494",
"#.	c #9B9B9B",
"$.	c #A6A6A6",
"%.	c #AAAAAA",
"&.	c #B0B0B0",
"*.	c #BCBCBC",
"=.	c #DBDBDA",
"-.	c #C2C27F",
";.	c #FFFB53",
">.	c #F7EF4D",
",.	c #C3BC3D",
"'.	c #CCC66B",
").	c #FAEF4A",
"!.	c #FFF94F",
"~.	c #FFFE52",
"{.	c #FFFF53",
"].	c #DFDF5F",
"^.	c #909090",
"/.	c #959595",
"(.	c #BABABA",
"_.	c #B3B38D",
":.	c #B8B889",
"<.	c #B7B7B2",
"[.	c #BDBDBD",
"}.	c #C1C17D",
"|.	c #FEFE53",
"1.	c #F7EC4A",
"2.	c #C3BA3A",
"3.	c #CCC569",
"4.	c #FAED46",
"5.	c #FFF74B",
"6.	c #FFFE4E",
"7.	c #FFFF4F",
"8.	c #FFFF50",
"9.	c #DFDF5C",
"0.	c #B9B973",
"a.	c #EDED13",
"b.	c #F4F40A",
"c.	c #C8C855",
"d.	c #ADADA8",
"e.	c #C0C07A",
"f.	c #FEFE50",
"g.	c #FFFE4F",
"h.	c #FFF64B",
"i.	c #F7EA46",
"j.	c #C3B837",
"k.	c #CCC367",
"l.	c #FAEA43",
"m.	c #FEF447",
"n.	c #FFFB4B",
"o.	c #FEFD4C",
"p.	c #FEFC52",
"q.	c #F8F88D",
"r.	c #F6F78B",
"s.	c #F5F58A",
"t.	c #F3F489",
"u.	c #F0F287",
"v.	c #EEF086",
"w.	c #EDEF84",
"x.	c #D1D283",
"y.	c #AFAFAF",
"z.	c #E7E74F",
"A.	c #FEFE00",
"B.	c #E6E618",
"C.	c #A1A192",
"D.	c #C0BF79",
"E.	c #FEFC4B",
"F.	c #FFF348",
"G.	c #F7E742",
"H.	c #C3B534",
"I.	c #CCC265",
"J.	c #FAE73F",
"K.	c #FFF243",
"L.	c #FFF947",
"M.	c #FFFA48",
"N.	c #FAF756",
"O.	c #E1E4E7",
"P.	c #EAECEE",
"Q.	c #E9EBED",
"R.	c #E8EAEC",
"S.	c #E6E9EB",
"T.	c #E5E8EA",
"U.	c #E5E7E9",
"V.	c #CCCDCF",
"W.	c #969696",
"X.	c #939393",
"Y.	c #C6C66F",
"Z.	c #F5F508",
"`.	c #FCFC02",
" +	c #D3D34B",
".+	c #ABABA5",
"++	c #C0BE77",
"@+	c #FEFA48",
"#+	c #FFF144",
"$+	c #F7E53F",
"%+	c #C3B431",
"&+	c #CCC063",
"*+	c #FAE53B",
"=+	c #FFEF3F",
"-+	c #FFF643",
";+	c #FFF844",
">+	c #FAF553",
",+	c #ECEDF0",
"'+	c #FDFDFC",
")+	c #FCFCFB",
"!+	c #FBFBFA",
"~+	c #FAFAF9",
"{+	c #F9F9F8",
"]+	c #DBDADA",
"^+	c #C1C1C1",
"/+	c #B6B6B4",
"(+	c #DEDEA8",
"_+	c #E3E3A1",
":+	c #AAAAA0",
"<+	c #C6C6C6",
"[+	c #C2BF77",
"}+	c #FEF844",
"|+	c #FFF843",
"1+	c #FFEF40",
"2+	c #F7E23B",
"3+	c #C2B22E",
"4+	c #CCBF61",
"5+	c #FAE338",
"6+	c #FFED3C",
"7+	c #FFF43F",
"8+	c #FFF640",
"9+	c #FAF34F",
"0+	c #EDEFF0",
"a+	c #E1E1E6",
"b+	c #CFCDD6",
"c+	c #CDCCD5",
"d+	c #CDCCD4",
"e+	c #BAB9BF",
"f+	c #D1D1D1",
"g+	c #C2C2C2",
"h+	c #B4B4B4",
"i+	c #B7B7B7",
"j+	c #C9C9C9",
"k+	c #D3D3D3",
"l+	c #C2BE76",
"m+	c #FEF540",
"n+	c #FFF540",
"o+	c #FFEC3C",
"p+	c #F7E038",
"q+	c #C2B02B",
"r+	c #CCBD5F",
"s+	c #FAE034",
"t+	c #FEE938",
"u+	c #FFF13B",
"v+	c #FEF23B",
"w+	c #FBF04C",
"x+	c #EEEFF1",
"y+	c #F6F8F9",
"z+	c #C8E5EE",
"A+	c #F1F4F4",
"B+	c #F8F8F7",
"C+	c #DADAD9",
"D+	c #CDCDCD",
"E+	c #D2D2D2",
"F+	c #BEBEBE",
"G+	c #C2BD74",
"H+	c #FEF23C",
"I+	c #FFE938",
"J+	c #F7DD34",
"K+	c #C2AE29",
"L+	c #CCBC5D",
"M+	c #FADE31",
"N+	c #FFE735",
"O+	c #FFEF38",
"P+	c #FFF038",
"Q+	c #FAEE49",
"R+	c #ECEDEF",
"S+	c #FAFBFA",
"T+	c #ECF0F2",
"U+	c #BFD9E7",
"V+	c #C3DBE5",
"W+	c #F6F6F6",
"X+	c #D8D8D8",
"Y+	c #C5C5C5",
"Z+	c #9E9E9E",
"`+	c #828282",
" @	c #858585",
".@	c #A4A4A4",
"+@	c #C5C5C4",
"@@	c #C2BC74",
"#@	c #FEF039",
"$@	c #F7DB31",
"%@	c #C2AC26",
"&@	c #CCBB5B",
"*@	c #FADC2D",
"=@	c #FEE531",
"-@	c #FFED34",
";@	c #FEEE35",
">@	c #F9EA44",
",@	c #E7E9EB",
"'@	c #F5F7F8",
")@	c #A2C3DA",
"!@	c #89B4CF",
"~@	c #DEE5E9",
"{@	c #D0CFD7",
"]@	c #D0D0D7",
"^@	c #BCBCC1",
"/@	c #C4C4C4",
"(@	c #B8B8B8",
"_@	c #C1BB72",
":@	c #FEED34",
"<@	c #FFE431",
"[@	c #F7D92D",
"}@	c #C2AA23",
"|@	c #CCBA59",
"1@	c #FADA2A",
"2@	c #FFE32E",
"3@	c #FFEA31",
"4@	c #FFEC31",
"5@	c #F9E941",
"6@	c #E7E9EC",
"7@	c #E6EBEF",
"8@	c #CFDEE6",
"9@	c #BCDDE8",
"0@	c #EFF2F2",
"a@	c #F5F5F4",
"b@	c #D8D8D7",
"c@	c #C0C0C0",
"d@	c #C8C8C8",
"e@	c #D4D4D4",
"f@	c #DBDBDB",
"g@	c #C2BA71",
"h@	c #FEEB31",
"i@	c #FFEB31",
"j@	c #FFE22E",
"k@	c #F7D72A",
"l@	c #C2A921",
"m@	c #CCB857",
"n@	c #FAD626",
"o@	c #FFE029",
"p@	c #FFE62C",
"q@	c #FFE82D",
"r@	c #F9E53E",
"s@	c #F7F8F8",
"t@	c #DBE5EC",
"u@	c #AECEE0",
"v@	c #CBDCE5",
"w@	c #EDEDEE",
"x@	c #E1E1E2",
"y@	c #A4A4A5",
"z@	c #CACACA",
"A@	c #DEDEDE",
"B@	c #CDCDCA",
"C@	c #BDBBAC",
"D@	c #CABD58",
"E@	c #FEE82D",
"F@	c #FFE72D",
"G@	c #FFDF2A",
"H@	c #F7D426",
"I@	c #C2A61E",
"J@	c #CCB655",
"K@	c #FAD423",
"L@	c #FEDD26",
"M@	c #FFE429",
"N@	c #FEE52A",
"O@	c #F9E33B",
"P@	c #E6E8EC",
"Q@	c #F5F7F7",
"R@	c #A7C5DA",
"S@	c #8FB5CE",
"T@	c #DEE6EA",
"U@	c #D3D3DA",
"V@	c #D5D4DA",
"W@	c #D4D2D9",
"X@	c #CECED3",
"Y@	c #B0AFB1",
"Z@	c #979797",
"`@	c #919191",
" #	c #CCCCCC",
".#	c #A6A7A5",
"+#	c #C0B55F",
"@#	c #DECB3E",
"##	c #FAE22D",
"$#	c #FEE529",
"%#	c #FFDD26",
"&#	c #F7D123",
"*#	c #C2A41B",
"=#	c #CCB553",
"-#	c #FAD11F",
";#	c #FFDA21",
">#	c #FFE124",
",#	c #FFE325",
"'#	c #F9E137",
")#	c #EEF0F1",
"!#	c #D7E3EA",
"~#	c #B9D9E6",
"{#	c #F0F2F2",
"]#	c #F4F5F4",
"^#	c #F4F4F3",
"/#	c #F3F3F2",
"(#	c #F0F0EF",
"_#	c #DDDDDC",
":#	c #B5B5B5",
"<#	c #CDCDCC",
"[#	c #E1E1E0",
"}#	c #CBCCC8",
"|#	c #F4DC36",
"1#	c #FFE225",
"2#	c #FFDA22",
"3#	c #F7CF1F",
"4#	c #C2A218",
"5#	c #CCB451",
"6#	c #FACF1B",
"7#	c #FFD81E",
"8#	c #FFDF21",
"9#	c #FFE121",
"0#	c #F9DF33",
"a#	c #E5E7EB",
"b#	c #F5F6F6",
"c#	c #CDDDE7",
"d#	c #A5C7DC",
"e#	c #CEDBE4",
"f#	c #E4E3E6",
"g#	c #E3E2E5",
"h#	c #E2E1E4",
"i#	c #E1E0E3",
"j#	c #E1E0E2",
"k#	c #E0DFE2",
"l#	c #DEDDE0",
"m#	c #DEDDDF",
"n#	c #EAE9E9",
"o#	c #EFEFEE",
"p#	c #CFD0CB",
"q#	c #F5DB33",
"r#	c #FFE021",
"s#	c #FFD81F",
"t#	c #F7CC1B",
"u#	c #C2A115",
"v#	c #CCB24F",
"w#	c #FACD17",
"x#	c #FED61A",
"y#	c #FFDD1C",
"z#	c #FEDE1D",
"A#	c #F9DD2F",
"B#	c #E5E7EA",
"C#	c #AEC8DB",
"D#	c #96B8CF",
"E#	c #EAEBEC",
"F#	c #DCDBDF",
"G#	c #DBDADF",
"H#	c #DAD9DD",
"I#	c #D9D9DD",
"J#	c #D9D8DC",
"K#	c #D8D7DB",
"L#	c #E7E7E8",
"M#	c #EEEEED",
"N#	c #F4D92F",
"O#	c #FFDE1D",
"P#	c #FEDD1D",
"Q#	c #FFD51B",
"R#	c #F7CA18",
"S#	c #C29F12",
"T#	c #CCB14D",
"U#	c #FACA14",
"V#	c #FFD317",
"W#	c #FFDA19",
"X#	c #FFDC1A",
"Y#	c #F9DA2C",
"Z#	c #F7F7F6",
"`#	c #F1F2F2",
" $	c #EDEFEF",
".$	c #F4F4F2",
"+$	c #F2F2F1",
"@$	c #F1F1F0",
"#$	c #F1F0EF",
"$$	c #CFD0CA",
"%$	c #F5D62C",
"&$	c #FFDB19",
"*$	c #F7C814",
"=$	c #C29D0F",
"-$	c #CAB055",
";$	c #F5C310",
">$	c #FECE13",
",$	c #FFD615",
"'$	c #FFD916",
")$	c #F8D626",
"!$	c #C9CBC6",
"~$	c #D1D2CE",
"{$	c #D0D2CD",
"]$	c #D1D2CC",
"^$	c #D0D1CC",
"/$	c #CED0CB",
"($	c #CECFC9",
"_$	c #CDCEC8",
":$	c #CDCDC8",
"<$	c #CDCDC7",
"[$	c #CCCDC7",
"}$	c #BABBB0",
"|$	c #F3D327",
"1$	c #FFD816",
"2$	c #FECE14",
"3$	c #F3C211",
"4$	c #AF8C0D",
"5$	c #E4B30C",
"6$	c #F8C40F",
"7$	c #FECE12",
"8$	c #FED413",
"9$	c #FDD515",
"0$	c #F4D125",
"a$	c #F4D126",
"b$	c #F5D126",
"c$	c #F3D024",
"d$	c #FED613",
"e$	c #FFD613",
"f$	c #FED513",
"g$	c #FDCB11",
"h$	c #F3BF0E",
"i$	c #DAAC0B",
"j$	c #677A8A",
"k$	c #C59C13",
"l$	c #EAB70E",
"m$	c #F8C313",
"n$	c #FDCA15",
"o$	c #FECC14",
"p$	c #FECD14",
"q$	c #FDCA13",
"r$	c #F0BD0F",
"s$	c #E0AF0B",
"t$	c #AB8711",
"u$	c #BF9718",
"v$	c #DDAD13",
"w$	c #F2BE17",
"x$	c #F4C018",
"y$	c #F1BD16",
"z$	c #D3A40E",
"A$	c #A98411",
"B$	c #BD961E",
"C$	c #BF9513",
"D$	c #C09614",
"E$	c #C09514",
"F$	c #BA9216",
". + . . @ # # # # # # # # # # # # # # # # # # # # $ % + + . ",
"+ . & * = - - - - - - - - - - - - - - - - - - - - ; > , . + ",
". ' ) ! ~ ~ { ~ ~ { ~ ~ { ~ ~ { ~ ~ { ~ ~ { ~ ~ ] ~ ^ / ( . ",
". _ : < < : : : : : : : : : : [ [ : : : : : : : : < < } | % ",
"1 2 3 4 4 4 4 4 4 4 4 4 4 4 4 4 4 5 6 7 8 9 5 4 4 4 4 3 0 a ",
"b c d 4 e e } e e } e e } e e f g h i j k l m 9 e e e n o p ",
"q r n 4 } } } } } } } } } f s t u v w x x y z A B e 4 n C D ",
"E F G H 3 3 3 3 3 3 3 3 3 I J K w x x L M N O P Q R 3 S T U ",
"V W X Y Z Z ` Z Z ` Z Z `  ...+.@.#.$.%.L &.*.=.-.Z Z ;.>.,.",
"'.).!.~.{.{.{.{.{.{.{.{.{.].^./.@...(.L _.:.<.[.}.|.{.!.1.2.",
"3.4.5.6.7.7.8.7.7.8.7.7.8.9.^././.+.L 0.a.b.c.d.e.f.g.h.i.j.",
"k.l.m.n.o.p.q.r.s.t.u.v.w.x.^././.+.y.z.A.A.B.C.D.o.E.F.G.H.",
"I.J.K.L.M.N.O.P.Q.R.S.T.U.V.^.W./.X.y.Y.Z.`. +.+++@+M.#+$+%+",
"&+*+=+-+;+>+,+'+)+)+!+~+{+]+^././.+.^+/+(+_+:+<+[+}+|+1+2+3+",
"4+5+6+7+8+9+0+!+a+b+c+d+d+e+^././.+.f+g+h+i+j+k+l+m+n+o+p+q+",
"r+s+t+u+v+w+x+!+!+y+z+A+B+C+^././.+.D+E+F+h++.*.G+H+v+I+J+K+",
"L+M+N+O+P+Q+R+S+T+U+V+W+W+X+^././.+.Y+Z+`+ @.@+@@@#@O+N+$@%@",
"&@*@=@-@;@>@,@'@)@!@~@{@]@^@^././.+./@(@L y %.<+_@;@:@<@[@}@",
"|@1@2@3@4@5@6@~+7@8@9@0@a@b@^././.+.^+&.c@d@e@f@g@h@i@j@k@l@",
"m@n@o@p@q@r@6@s@t@u@v@w@w@x@y@+./.X.z@X+A@f@B@C@D@E@F@G@H@I@",
"J@K@L@M@N@O@P@Q@R@S@T@U@V@W@X@Y@Z@`@<+ #c@.#+#@###N@$#%#&#*#",
"=#-#;#>#,#'#P@B+)#!#~#{#]#^#/#(#_#h+:#<#[#}#|#,#,#,#1#2#3#4#",
"5#6#7#8#9#0#a#b#c#d#e#f#g#h#i#j#k#l#m#n#o#p#q#9#9#9#r#s#t#u#",
"v#w#x#y#z#A#B#b#C#D#E#F#G#H#I#J#K#K#K#L#M#p#N#z#O#z#P#Q#R#S#",
"T#U#V#W#X#Y#U.Z#`# $^#.$/#+$@$#$(#o#o#o#o#$$%$X#X#X#&$V#*$=$",
"-$;$>$,$'$)$!$~${$]$^$/$p#$$($_$:$<$<$[$[$}$|$'$'$'$1$2$3$4$",
"% 5$6$7$8$9$0$a$a$b$a$a$a$0$0$0$0$0$0$0$0$c$9$d$e$f$g$h$i$j$",
". k$l$m$n$o$p$p$p$p$p$p$p$p$p$p$p$p$p$p$p$p$p$p$p$q$r$s$t$. ",
". % u$v$w$x$x$x$x$x$x$x$x$x$x$x$x$x$x$x$x$x$x$x$x$y$z$A$. . ",
". . . j$B$C$D$D$E$E$E$E$E$E$E$E$E$E$E$E$E$E$E$E$E$F$% . . . "};
