/* XPM */
static char * BotonOcultarListin_xpm[] = {
"10 40 291 2",
"  	c None",
". 	c #FDC760",
"+ 	c #FECD62",
"@ 	c #FDC65F",
"# 	c #F1953A",
"$ 	c #FE9C2F",
"% 	c #FE9B2F",
"& 	c #FF9B2F",
"* 	c #FE9B2E",
"= 	c #FC9B30",
"- 	c #E98B2F",
"; 	c #EE8E32",
"> 	c #FE992D",
", 	c #FF9A2E",
"' 	c #F29735",
") 	c #E19038",
"! 	c #E58225",
"~ 	c #FE992E",
"{ 	c #D89A53",
"] 	c #DB8C38",
"^ 	c #FF992E",
"/ 	c #FF9A2F",
"( 	c #C7A67D",
"_ 	c #DA8C38",
": 	c #E48226",
"< 	c #EE8D33",
"[ 	c #FE992F",
"} 	c #F79732",
"| 	c #BFB7A4",
"1 	c #DB8D39",
"2 	c #FE9930",
"3 	c #FF9A30",
"4 	c #E9A356",
"5 	c #C0BDAD",
"6 	c #DC8E3A",
"7 	c #E48227",
"8 	c #EE8D34",
"9 	c #FF9A31",
"0 	c #E8C08E",
"a 	c #BAB7A7",
"b 	c #DD8F3C",
"c 	c #ED8C34",
"d 	c #FF9830",
"e 	c #FF9930",
"f 	c #FA9732",
"g 	c #EADDC2",
"h 	c #B9B6A5",
"i 	c #DE8F3D",
"j 	c #E48127",
"k 	c #EC8C33",
"l 	c #FE982F",
"m 	c #F1A34F",
"n 	c #EDEAD8",
"o 	c #BFBBA9",
"p 	c #DF903D",
"q 	c #E38027",
"r 	c #EC8B33",
"s 	c #FE972F",
"t 	c #F3C28C",
"u 	c #E8E5D1",
"v 	c #C7C3B1",
"w 	c #E0903E",
"x 	c #E27F27",
"y 	c #EA8A33",
"z 	c #FE952F",
"A 	c #FE962F",
"B 	c #FC952F",
"C 	c #F6E4CB",
"D 	c #E7E2CC",
"E 	c #CFCBB8",
"F 	c #E2903F",
"G 	c #E07E26",
"H 	c #E98932",
"I 	c #FF942E",
"J 	c #FF942F",
"K 	c #F69D45",
"L 	c #FBF9EE",
"M 	c #EBE6CE",
"N 	c #D7D3BF",
"O 	c #E3903F",
"P 	c #DF7D25",
"Q 	c #E88732",
"R 	c #FE932E",
"S 	c #F5BC82",
"T 	c #FAF8E9",
"U 	c #F2EDD5",
"V 	c #DEDAC4",
"W 	c #E49140",
"X 	c #DE7C25",
"Y 	c #E68631",
"Z 	c #FE922D",
"` 	c #FD912D",
" .	c #F8DEC3",
"..	c #FBF8E3",
"+.	c #F9F4DB",
"@.	c #E4DFC9",
"#.	c #E49040",
"$.	c #DC7B24",
"%.	c #E58531",
"&.	c #FE912D",
"*.	c #F8963B",
"=.	c #FDFAF3",
"-.	c #FEFAE1",
";.	c #FDF9E0",
">.	c #E8E4CE",
",.	c #E59041",
"'.	c #DB7A24",
").	c #E48531",
"!.	c #FE902D",
"~.	c #FF902D",
"{.	c #F7B373",
"].	c #FFFEF5",
"^.	c #FFFEE4",
"/.	c #FFFDE3",
"(.	c #ECE8D1",
"_.	c #E69041",
":.	c #D97923",
"<.	c #E28430",
"[.	c #FE8F2C",
"}.	c #F7D5B4",
"|.	c #FFFFEF",
"1.	c #FEFEE6",
"2.	c #EEEAD4",
"3.	c #D87823",
"4.	c #E18330",
"5.	c #FC8E2C",
"6.	c #F88F32",
"7.	c #FCF5ED",
"8.	c #FFFFEA",
"9.	c #FEFEE8",
"0.	c #F0ECD5",
"a.	c #E58F41",
"b.	c #D67723",
"c.	c #DF8230",
"d.	c #FB8D2B",
"e.	c #F4A863",
"f.	c #FEFEF9",
"g.	c #FFFFE9",
"h.	c #FEFEEA",
"i.	c #FEFEE9",
"j.	c #F1EDD6",
"k.	c #E38E41",
"l.	c #D57623",
"m.	c #DF8130",
"n.	c #F98C2B",
"o.	c #ECA565",
"p.	c #FEFEEB",
"q.	c #F1EED7",
"r.	c #E28E41",
"s.	c #D47523",
"t.	c #DD802F",
"u.	c #F78A2B",
"v.	c #E88630",
"w.	c #FAF6F1",
"x.	c #FFFFE8",
"y.	c #E18D40",
"z.	c #D37522",
"A.	c #DB7F2F",
"B.	c #F5882A",
"C.	c #F1862A",
"D.	c #EDD0B6",
"E.	c #FEFEE7",
"F.	c #EFECD5",
"G.	c #DF8B40",
"H.	c #D17422",
"I.	c #DA7E2F",
"J.	c #F3872A",
"K.	c #E5A974",
"L.	c #FEFEE4",
"M.	c #EDE9D2",
"N.	c #DD893F",
"O.	c #CF7221",
"P.	c #D87D2E",
"Q.	c #F28629",
"R.	c #E28738",
"S.	c #FCFAF5",
"T.	c #FEFBE2",
"U.	c #FEFAE0",
"V.	c #EAE5CF",
"W.	c #DC883E",
"X.	c #CE7121",
"Y.	c #D77C2E",
"Z.	c #F08529",
"`.	c #F0852A",
" +	c #EA8128",
".+	c #EED9C5",
"++	c #FCF9E4",
"@+	c #FAF5DC",
"#+	c #E5E1CB",
"$+	c #DA873E",
"%+	c #CC7021",
"&+	c #D57C2D",
"*+	c #EE8428",
"=+	c #EF8428",
"-+	c #E3B082",
";+	c #FBF9EB",
">+	c #F3EFD6",
",+	c #DFDBC6",
"'+	c #D8853B",
")+	c #CB7020",
"!+	c #D47B2D",
"~+	c #ED8327",
"{+	c #DD8B41",
"]+	c #FCFAF0",
"^+	c #ECE7D0",
"/+	c #D8D4C0",
"(+	c #D5843A",
"_+	c #C96F20",
":+	c #D27A2D",
"<+	c #EB8227",
"[+	c #E27D27",
"}+	c #F0E2CF",
"|+	c #E8E4CD",
"1+	c #D1CDB9",
"2+	c #D38239",
"3+	c #C86E20",
"4+	c #D1782C",
"5+	c #E98127",
"6+	c #E88026",
"7+	c #E0B68C",
"8+	c #EAE7D3",
"9+	c #C9C5B2",
"0+	c #D08038",
"a+	c #C66C1F",
"b+	c #CF772C",
"c+	c #E78026",
"d+	c #E78027",
"e+	c #D68D4B",
"f+	c #EFEDDD",
"g+	c #C0BCAA",
"h+	c #CE7E37",
"i+	c #C56B1F",
"j+	c #CE762B",
"k+	c #E67E26",
"l+	c #DA7926",
"m+	c #E9DFC9",
"n+	c #BAB7A6",
"o+	c #CB7B35",
"p+	c #C36A1E",
"q+	c #CC752B",
"r+	c #E47D25",
"s+	c #E47D26",
"t+	c #E17C25",
"u+	c #D9B68F",
"v+	c #BCB9A9",
"w+	c #C87934",
"x+	c #C1691E",
"y+	c #CB742B",
"z+	c #E27C25",
"A+	c #E37C25",
"B+	c #CE8D52",
"C+	c #C3C0B1",
"D+	c #C67833",
"E+	c #C0681E",
"F+	c #C9732B",
"G+	c #E17A24",
"H+	c #E17B24",
"I+	c #E17B25",
"J+	c #D17628",
"K+	c #C0B9A8",
"L+	c #C47632",
"M+	c #BF671D",
"N+	c #C8722A",
"O+	c #DF7A24",
"P+	c #DF7A25",
"Q+	c #DB7824",
"R+	c #B99D7D",
"S+	c #C27431",
"T+	c #BD661D",
"U+	c #C67129",
"V+	c #DD7923",
"W+	c #DE7924",
"X+	c #DD7924",
"Y+	c #BB8350",
"Z+	c #C17430",
"`+	c #BC651C",
" @	c #C47029",
".@	c #DC7823",
"+@	c #DC7824",
"@@	c #C8742B",
"#@	c #C27430",
"$@	c #BA641C",
"%@	c #BD7438",
"&@	c #D67524",
"*@	c #D87724",
"=@	c #D47424",
"-@	c #CD7225",
";@	c #B2692B",
">@	c #B27D52",
",@	c #B37A4B",
"'@	c #AF7A4E",
"  . + + + + + + @   ",
"# $ % % & % % * = - ",
"; > > > , > > ' ) ! ",
"; ~ ~ ~ , ~ ~ { ] ! ",
"; ^ / / / / ~ ( _ : ",
"< [ [ [ / [ } | 1 : ",
"< [ 2 2 3 2 4 5 6 7 ",
"8 2 2 2 9 2 0 a b 7 ",
"c d e e e f g h i j ",
"k l l l d m n o p q ",
"r s s s s t u v w x ",
"y z A A B C D E F G ",
"H I J J K L M N O P ",
"Q R R R S T U V W X ",
"Y Z Z `  ...+.@.#.$.",
"%.&.&.*.=.-.;.>.,.'.",
").!.~.{.].^./.(._.:.",
"<.[.[.}.|.1.1.2._.3.",
"4.5.6.7.8.9.9.0.a.b.",
"c.d.e.f.g.h.i.j.k.l.",
"m.n.o.f.g.p.i.q.r.s.",
"t.u.v.w.8.g.x.j.y.z.",
"A.B.C.D.|.E.E.F.G.H.",
"I.J.J.K.].L.L.M.N.O.",
"P.Q.Q.R.S.T.U.V.W.X.",
"Y.Z.`. +.+++@+#+$+%+",
"&+*+=+*+-+;+>+,+'+)+",
"!+~+~+~+{+]+^+/+(+_+",
":+<+<+<+[+}+|+1+2+3+",
"4+5+5+5+6+7+8+9+0+a+",
"b+c+6+6+d+e+f+g+h+i+",
"j+k+k+k+k+l+m+n+o+p+",
"q+r+r+r+s+t+u+v+w+x+",
"y+z+A+A+A+z+B+C+D+E+",
"F+G+H+H+I+H+J+K+L+M+",
"N+O+O+O+P+O+Q+R+S+T+",
"U+V+W+W+W+W+X+Y+Z+`+",
" @.@+@+@+@+@+@@@#@$@",
"%@&@*@*@*@*@*@=@-@;@",
"  >@,@,@,@,@,@,@'@  "};
