/* XPM */
static char * BotonMostrarListinInterfonos_xpm[] = {
"10 40 293 2",
"  	c None",
". 	c #677A8A",
"+ 	c #FEC556",
"@ 	c #FEC957",
"# 	c #FDC155",
"$ 	c #F5902B",
"% 	c #FE9A2E",
"& 	c #F99830",
"* 	c #FF9A2E",
"= 	c #E38F3F",
"- 	c #F58C27",
"; 	c #FE992D",
"> 	c #D18D42",
", 	c #FD992D",
"' 	c #DE8735",
") 	c #FE992E",
"! 	c #BF925C",
"~ 	c #F29634",
"{ 	c #DE8736",
"] 	c #F48C28",
"^ 	c #BD925F",
"/ 	c #E4A35B",
"( 	c #FF9A2F",
"_ 	c #DD8736",
": 	c #FE992F",
"< 	c #B88D5B",
"[ 	c #DCB98C",
"} 	c #F48C29",
"| 	c #FE9930",
"1 	c #B98E5C",
"2 	c #D7CDB7",
"3 	c #F79732",
"4 	c #FF9A30",
"5 	c #DD8737",
"6 	c #F48C2A",
"7 	c #BC915F",
"8 	c #D8D5C4",
"9 	c #ECA354",
"0 	c #FF9A31",
"a 	c #DD8738",
"b 	c #F48B2A",
"c 	c #C09462",
"d 	c #D1CDBB",
"e 	c #EDC28F",
"f 	c #FE9830",
"g 	c #DD8637",
"h 	c #F38A29",
"i 	c #FE982F",
"j 	c #C49865",
"k 	c #CECAB6",
"l 	c #F1E3C9",
"m 	c #FA9630",
"n 	c #FE972F",
"o 	c #DC8537",
"p 	c #F28929",
"q 	c #C89B68",
"r 	c #D2CEBA",
"s 	c #F5F3E5",
"t 	c #F3A04A",
"u 	c #FE962F",
"v 	c #DB8537",
"w 	c #F18828",
"x 	c #CC9F6B",
"y 	c #DBD7C1",
"z 	c #F1EEDD",
"A 	c #F3BE87",
"B 	c #FE952E",
"C 	c #DA8436",
"D 	c #F08728",
"E 	c #FE942E",
"F 	c #CFA16E",
"G 	c #E3DFC8",
"H 	c #F0ECD6",
"I 	c #F6E1C8",
"J 	c #FC932E",
"K 	c #D88236",
"L 	c #EF8528",
"M 	c #FE932E",
"N 	c #D2A471",
"O 	c #EBE6CF",
"P 	c #F3EED6",
"Q 	c #FDFAF1",
"R 	c #F6983E",
"S 	c #D78136",
"T 	c #ED8427",
"U 	c #FE922D",
"V 	c #D5A673",
"W 	c #F1ECD4",
"X 	c #F9F4DB",
"Y 	c #FDFCF0",
"Z 	c #F5B679",
"` 	c #FF922E",
" .	c #FE912D",
"..	c #D68135",
"+.	c #EC8327",
"@.	c #D7A875",
"#.	c #F6F1D9",
"$.	c #FDF9E0",
"%.	c #FEFCEA",
"&.	c #F7D7B8",
"*.	c #FD902D",
"=.	c #FE902D",
"-.	c #D48035",
";.	c #EA8226",
">.	c #D9AA76",
",.	c #F9F5DC",
"'.	c #FFFDE3",
").	c #FFFEE6",
"!.	c #FCF7F0",
"~.	c #F89234",
"{.	c #FE902C",
"].	c #D37F35",
"^.	c #E98126",
"/.	c #FE8F2C",
"(.	c #DAAA77",
"_.	c #FAF8DF",
":.	c #FFFFE6",
"<.	c #FEFEF8",
"[.	c #F6AB66",
"}.	c #FD8F2C",
"|.	c #D27E34",
"1.	c #E78126",
"2.	c #FD8E2C",
"3.	c #DAAB78",
"4.	c #FBF9E1",
"5.	c #FFFFE8",
"6.	c #FEFEF2",
"7.	c #F6CDA7",
"8.	c #FB8D2C",
"9.	c #D07D34",
"0.	c #E67F25",
"a.	c #FB8D2B",
"b.	c #FBF9E2",
"c.	c #FFFFE9",
"d.	c #FFFFEA",
"e.	c #FEFEEC",
"f.	c #FAF0E5",
"g.	c #F68B2D",
"h.	c #CF7C34",
"i.	c #E57F25",
"j.	c #FA8C2B",
"k.	c #FCFAE3",
"l.	c #FFFFEB",
"m.	c #FEFEEB",
"n.	c #F9F3EC",
"o.	c #EF882E",
"p.	c #CE7C34",
"q.	c #E47E25",
"r.	c #F78A2B",
"s.	c #D9AA78",
"t.	c #FCFAE2",
"u.	c #FEFEF1",
"v.	c #ECCDB0",
"w.	c #F3882A",
"x.	c #CD7B33",
"y.	c #E27C24",
"z.	c #F5882A",
"A.	c #D7A877",
"B.	c #FFFFE7",
"C.	c #FEFEF7",
"D.	c #E6A76E",
"E.	c #F4882A",
"F.	c #CC7A33",
"G.	c #E07B24",
"H.	c #F4872A",
"I.	c #D5A676",
"J.	c #FAF7DE",
"K.	c #FFFEE4",
"L.	c #FCF9F4",
"M.	c #E48735",
"N.	c #F3872A",
"O.	c #CA7933",
"P.	c #DE7A23",
"Q.	c #F2862A",
"R.	c #D3A474",
"S.	c #F7F3DB",
"T.	c #FEFBE1",
"U.	c #FFFDE9",
"V.	c #EED7C0",
"W.	c #ED8329",
"X.	c #F18629",
"Y.	c #C97832",
"Z.	c #DD7923",
"`.	c #F1852A",
" +	c #D0A272",
".+	c #FAF6DD",
"++	c #FEFCEF",
"@+	c #E4AF7F",
"#+	c #F08529",
"$+	c #C87732",
"%+	c #DB7822",
"&+	c #EF8428",
"*+	c #CD9F6F",
"=+	c #EDE8D1",
"-+	c #F5F0D8",
";+	c #FDFBF3",
">+	c #DE8A3F",
",+	c #EE8428",
"'+	c #C67732",
")+	c #D97722",
"!+	c #ED8328",
"~+	c #C99C6C",
"{+	c #E6E1CB",
"]+	c #F1EDD6",
"^+	c #F0E1CF",
"/+	c #E47F27",
"(+	c #C57631",
"_+	c #D87622",
":+	c #EC8227",
"<+	c #C59869",
"[+	c #DED9C4",
"}+	c #F1EEDB",
"|+	c #E2B68B",
"1+	c #EA8127",
"2+	c #EB8227",
"3+	c #C47531",
"4+	c #D67521",
"5+	c #E98127",
"6+	c #C09466",
"7+	c #D5D1BC",
"8+	c #F4F2E3",
"9+	c #D88E4B",
"0+	c #E88026",
"a+	c #C27431",
"b+	c #D57421",
"c+	c #E88027",
"d+	c #BC8F62",
"e+	c #CFCBB7",
"f+	c #ECE2CC",
"g+	c #DC7B27",
"h+	c #E77F26",
"i+	c #C17330",
"j+	c #D37321",
"k+	c #E67F26",
"l+	c #B78B5F",
"m+	c #D0CCB9",
"n+	c #DCB991",
"o+	c #E37D25",
"p+	c #E57E26",
"q+	c #C07230",
"r+	c #D17220",
"s+	c #E47D26",
"t+	c #B3875B",
"u+	c #D6D2C0",
"v+	c #D08F53",
"w+	c #E47D25",
"x+	c #BE7130",
"y+	c #D07020",
"z+	c #E37C25",
"A+	c #AE8358",
"B+	c #D2CBB8",
"C+	c #D2772A",
"D+	c #E27C25",
"E+	c #BD7030",
"F+	c #CE6F20",
"G+	c #E17B25",
"H+	c #AC8156",
"I+	c #C9AD8C",
"J+	c #DD7924",
"K+	c #E17B24",
"L+	c #E07A24",
"M+	c #BC6F2F",
"N+	c #CC6E1F",
"O+	c #DF7A25",
"P+	c #AE835A",
"Q+	c #C58E5B",
"R+	c #DF7A24",
"S+	c #E07A25",
"T+	c #DF7924",
"U+	c #BA6E2F",
"V+	c #CA6D1F",
"W+	c #DE7924",
"X+	c #B08459",
"Y+	c #C9752D",
"Z+	c #B96E2E",
"`+	c #C96C1E",
" @	c #DC7824",
".@	c #B0753F",
"+@	c #D67522",
"@@	c #DD7824",
"#@	c #DD7823",
"$@	c #DB7823",
"%@	c #B86D2E",
"&@	c #C16A21",
"*@	c #DA7723",
"=@	c #C97127",
"-@	c #D87523",
";@	c #B47036",
">@	c #677A8B",
",@	c #B86F32",
"'@	c #B96D2E",
")@	c #B26C32",
"!@	c #677A8D",
". + @ @ @ @ @ @ # . ",
"$ % & % % * % % % = ",
"- ; > , ; * ; ; ; ' ",
"- ) ! ~ ) * ) ) ) { ",
"] ) ^ / ) ( ) ) ) _ ",
"] : < [ : ( : : : _ ",
"} | 1 2 3 4 | | : 5 ",
"6 | 7 8 9 0 | | | a ",
"b | c d e f | | f g ",
"h i j k l m i i n o ",
"p n q r s t n n u v ",
"w u x y z A u u B C ",
"D E F G H I J E E K ",
"L M N O P Q R M M S ",
"T U V W X Y Z `  ...",
"+. .@.#.$.%.&.*.=.-.",
";.=.>.,.'.).!.~.{.].",
"^./.(._.:.:.<.[.}.|.",
"1.2.3.4.5.5.6.7.8.9.",
"0.a.3.b.c.d.e.f.g.h.",
"i.j.3.k.c.l.m.n.o.p.",
"q.r.s.t.c.c.u.v.w.x.",
"y.z.A.4.B.B.C.D.E.F.",
"G.H.I.J.K.).L.M.N.O.",
"P.Q.R.S.T.U.V.W.X.Y.",
"Z.`. +P .+++@+#+#+$+",
"%+&+*+=+-+;+>+&+,+'+",
")+!+~+{+]+^+/+!++.(+",
"_+:+<+[+}+|+1+:+2+3+",
"4+5+6+7+8+9+^.^.0+a+",
"b+c+d+e+f+g+0+0+h+i+",
"j+k+l+m+n+o+k+k+p+q+",
"r+s+t+u+v+w+w+w+w+x+",
"y+z+A+B+C+z+z+z+D+E+",
"F+G+H+I+J+G+K+K+L+M+",
"N+O+P+Q+R+S+L+L+T+U+",
"V+W+X+Y+W+W+W+W+J+Z+",
"`+ @.@+@@@@@#@#@$@%@",
"&@*@=@*@*@*@*@*@-@;@",
">@,@'@'@'@'@'@'@)@!@"};
