/* XPM */
static char * BotonCerrarRollover_xpm[] = {
"20 20 316 2",
"  	c None",
". 	c #677A8D",
"+ 	c #677A8A",
"@ 	c #EF7A76",
"# 	c #F5817E",
"$ 	c #F5807D",
"% 	c #F5817D",
"& 	c #F4817E",
"* 	c #F4807C",
"= 	c #EB7471",
"- 	c #67788A",
"; 	c #677A8B",
"> 	c #E85652",
", 	c #FC6A65",
"' 	c #FB706C",
") 	c #FA7470",
"! 	c #F67C79",
"~ 	c #F67D79",
"{ 	c #F97571",
"] 	c #F97570",
"^ 	c #FC706C",
"/ 	c #FA6763",
"( 	c #DB4C48",
"_ 	c #C66462",
": 	c #DC4643",
"< 	c #DF4946",
"[ 	c #DB4F4B",
"} 	c #D8615E",
"| 	c #D47371",
"1 	c #D47977",
"2 	c #D57572",
"3 	c #D96461",
"4 	c #DB514D",
"5 	c #DC514D",
"6 	c #D96361",
"7 	c #D57472",
"8 	c #DC4F4B",
"9 	c #DE4946",
"0 	c #D64340",
"a 	c #B75F5D",
"b 	c #B94845",
"c 	c #D1413E",
"d 	c #D64C48",
"e 	c #D3605D",
"f 	c #CE7371",
"g 	c #C67A78",
"h 	c #B4877F",
"i 	c #C77B78",
"j 	c #CF7573",
"k 	c #D46764",
"l 	c #C87B79",
"m 	c #B2867E",
"n 	c #C67A77",
"o 	c #CC3F3C",
"p 	c #A33E3C",
"q 	c #B84543",
"r 	c #D14643",
"s 	c #D45E5C",
"t 	c #B2988E",
"u 	c #C7C3B2",
"v 	c #BCA094",
"w 	c #C87C79",
"x 	c #CF7977",
"y 	c #CE7977",
"z 	c #C87C7A",
"A 	c #BFA699",
"B 	c #C7C3B1",
"C 	c #AD9388",
"D 	c #D35E5B",
"E 	c #CC4441",
"F 	c #A43F3D",
"G 	c #BA4644",
"H 	c #D14C49",
"I 	c #CF6C6A",
"J 	c #C77A78",
"K 	c #B4998E",
"L 	c #D0CCBA",
"M 	c #D5D1BD",
"N 	c #DED9C5",
"O 	c #CCB0A2",
"P 	c #C97E7B",
"Q 	c #CA7E7B",
"R 	c #D0B6A8",
"S 	c #E7E3CE",
"T 	c #C6C3B1",
"U 	c #B2948A",
"V 	c #CC4A48",
"W 	c #A6403E",
"X 	c #BC4745",
"Y 	c #CF4D4B",
"Z 	c #CC6E6C",
"` 	c #A9817A",
" .	c #B5B1A1",
"..	c #CBC7B4",
"+.	c #D9D4C0",
"@.	c #EAE6CF",
"#.	c #F5F1DA",
"$.	c #D9BEAF",
"%.	c #DDC2B4",
"&.	c #FBF9E4",
"*.	c #EFEBD4",
"=.	c #D8D4BF",
"-.	c #C5C1AF",
";.	c #ACA899",
">.	c #A07770",
",.	c #CB4C49",
"'.	c #A7413F",
").	c #BE4746",
"!.	c #D14A48",
"~.	c #CC6766",
"{.	c #BB7674",
"].	c #9B887E",
"^.	c #B8B4A3",
"/.	c #D8D3BE",
"(.	c #F0EBD3",
"_.	c #FDFAE1",
":.	c #FDFCE9",
"<.	c #FDFDF2",
"[.	c #FEFCE6",
"}.	c #D4D0BB",
"|.	c #B0AD9C",
"1.	c #86746B",
"2.	c #B77270",
"3.	c #CD4947",
"4.	c #A94140",
"5.	c #C14847",
"6.	c #D74644",
"7.	c #D25554",
"8.	c #CA6C6A",
"9.	c #BC7775",
"0.	c #A9968A",
"a.	c #CDC9B4",
"b.	c #ECE7CF",
"c.	c #FDFBE1",
"d.	c #FEFEEC",
"e.	c #FEFEF0",
"f.	c #FDFAE2",
"g.	c #E8E3CC",
"h.	c #C4C1AD",
"i.	c #938076",
"j.	c #B87372",
"k.	c #CA6C6B",
"l.	c #D34442",
"m.	c #AC4241",
"n.	c #C54A48",
"o.	c #DF4644",
"p.	c #DF4C4A",
"q.	c #D55D5C",
"r.	c #CD7473",
"s.	c #BF7B79",
"t.	c #B5A395",
"u.	c #DBD7C1",
"v.	c #F6F2D9",
"w.	c #FEFEE8",
"x.	c #F2EED6",
"y.	c #D2CEB9",
"z.	c #9B897D",
"A.	c #B97674",
"B.	c #D45D5C",
"C.	c #DE4C4A",
"D.	c #DA4442",
"E.	c #AF4342",
"F.	c #C84B49",
"G.	c #E64846",
"H.	c #E95352",
"I.	c #DE6866",
"J.	c #D57978",
"K.	c #CD7F7D",
"L.	c #DBC3B5",
"M.	c #FEFEF3",
"N.	c #FEFEF1",
"O.	c #FEFEE9",
"P.	c #D5BEAE",
"Q.	c #D47978",
"R.	c #DD6866",
"S.	c #E85352",
"T.	c #E14745",
"U.	c #B34442",
"V.	c #CB4C4A",
"W.	c #E8504E",
"X.	c #E86867",
"Y.	c #DE7A79",
"Z.	c #D5817F",
"`.	c #D5BAAB",
" +	c #FCFAE5",
".+	c #F3EFD6",
"++	c #FDFBE2",
"@+	c #F6F2DB",
"#+	c #CDB3A5",
"$+	c #D2807E",
"%+	c #DB7979",
"&+	c #E56867",
"*+	c #E24E4C",
"=+	c #B54544",
"-+	c #CD4E4D",
";+	c #E75A59",
">+	c #E17776",
",+	c #D6817F",
"'+	c #C7AA9D",
")+	c #E9E5D0",
"!+	c #D3CFBA",
"~+	c #DAD6C0",
"{+	c #DFDAC6",
"]+	c #BCA396",
"^+	c #D37F7E",
"/+	c #DF7676",
"(+	c #E05857",
"_+	c #B74746",
":+	c #CF4F4E",
"<+	c #E75F5D",
"[+	c #DF7B7A",
"}+	c #B3837D",
"|+	c #B3AF9F",
"1+	c #C9C5B2",
"2+	c #D6D2BD",
"3+	c #C3BFAC",
"4+	c #9E8A7F",
"5+	c #B29D90",
"6+	c #CCC8B4",
"7+	c #D8D4BE",
"8+	c #D6D1BD",
"9+	c #C4C0AD",
"0+	c #A9A696",
"a+	c #A57973",
"b+	c #DB7A79",
"c+	c #DE5C5B",
"d+	c #B84847",
"e+	c #D24F4E",
"f+	c #EA5857",
"g+	c #E07473",
"h+	c #CC7C7A",
"i+	c #987E76",
"j+	c #A3A090",
"k+	c #B9B5A4",
"l+	c #AFAC9B",
"m+	c #978177",
"n+	c #C07877",
"o+	c #C57B7A",
"p+	c #AB9388",
"q+	c #B8B4A2",
"r+	c #B9B5A3",
"s+	c #9B9889",
"t+	c #8A7069",
"u+	c #C77978",
"v+	c #DC7372",
"w+	c #E15655",
"x+	c #BA4847",
"y+	c #D44F4E",
"z+	c #EF504F",
"A+	c #E76362",
"B+	c #DA7675",
"C+	c #C87B7A",
"D+	c #969384",
"E+	c #89756C",
"F+	c #C17675",
"G+	c #D67574",
"H+	c #C67A79",
"I+	c #9E877D",
"J+	c #969284",
"K+	c #886F68",
"L+	c #C67978",
"M+	c #D97675",
"N+	c #E56262",
"O+	c #E94E4E",
"P+	c #BD4847",
"Q+	c #D75151",
"R+	c #F74F4E",
"S+	c #F35555",
"T+	c #E56464",
"U+	c #DA7676",
"V+	c #C77B7A",
"W+	c #99716C",
"X+	c #D87070",
"Y+	c #E15E5E",
"Z+	c #C57978",
"`+	c #9A716C",
" @	c #C57878",
".@	c #F25555",
"+@	c #F14D4C",
"@@	c #C14D4C",
"#@	c #CC6161",
"$@	c #F04D4C",
"%@	c #FA5353",
"&@	c #F25757",
"*@	c #E56363",
"=@	c #DA6F6F",
"-@	c #D26F6F",
";@	c #D96C6C",
">@	c #E45E5D",
",@	c #EF5353",
"'@	c #E45D5D",
")@	c #F95252",
"!@	c #EA4A4A",
"~@	c #B55D5D",
"{@	c #D44948",
"]@	c #F25554",
"^@	c #F55757",
"/@	c #ED5857",
"(@	c #E45A59",
"_@	c #E05959",
":@	c #E45858",
"<@	c #ED5656",
"[@	c #F45756",
"}@	c #E45959",
"|@	c #F55756",
"1@	c #EB504F",
"2@	c #C44242",
"3@	c #BF6766",
"4@	c #C95655",
"5@	c #C85454",
"6@	c #C55353",
"7@	c #C35252",
"8@	c #C45353",
"9@	c #C75454",
"0@	c #C95555",
"a@	c #C75555",
". + @ # $ % & # $ $ $ $ # & % $ * = - . ",
"; > , ' ) ! # ~ { ' ' ] ~ # ! ) ^ / ( ; ",
"_ : < [ } | 1 2 3 4 5 6 7 1 | } 8 9 0 a ",
"b c d e f g h i j k k j l m n f e d o p ",
"q r s f g t u v w x y z A B C g f D E F ",
"G H I J K L M N O P Q R S M T U J I V W ",
"X Y Z `  ...+.@.#.$.%.&.*.=.-.;.>.Z ,.'.",
").!.~.{.].^./.(._.:.<.[.(.}.|.1.2.~.3.4.",
"5.6.7.8.9.0.a.b.c.d.e.f.g.h.i.j.k.7.l.m.",
"n.o.p.q.r.s.t.u.v.w.w.x.y.z.A.r.B.C.D.E.",
"F.G.H.I.J.K.L.M.N.O.w.d.:.P.K.Q.R.S.T.U.",
"V.W.X.Y.Z.`. +[.f..+v.++_.@+#+$+%+&+*+=+",
"-+;+>+,+'+)+*.(.g.!+~+b.(.@.{+]+^+/+(+_+",
":+<+[+}+|+1+2+}.3+4+5+6+7+8+9+0+a+b+c+d+",
"e+f+g+h+i+j+k+l+m+n+o+p+q+r+s+t+u+v+w+x+",
"y+z+A+B+C+i+D+E+F+G+G+H+I+J+K+L+M+N+O+P+",
"Q+R+S+T+U+V+W+F+X+Y+Y+X+Z+`+ @U+T+.@+@@@",
"#@$@%@&@*@=@-@;@>@,@,@'@;@-@=@*@&@)@!@~@",
". {@]@^@/@(@_@:@<@[@[@<@:@_@}@/@|@1@2@. ",
". . 3@4@5@6@7@8@9@0@0@9@8@7@8@9@a@~@. . "};
