/* XPM */
static char * BotonSolicitarConsulta_xpm[] = {
"48 48 942 2",
"  	c None",
". 	c #677A8D",
"+ 	c #677A8C",
"@ 	c #677A8B",
"# 	c #CBE39A",
"$ 	c #CFE998",
"% 	c #C8E589",
"& 	c #C6E28C",
"* 	c #677A8A",
"= 	c #BBDC77",
"- 	c #BFE765",
"; 	c #D8F87A",
"> 	c #E3FC84",
", 	c #E6FD87",
"' 	c #DFFB80",
") 	c #D1F573",
"! 	c #C2EB6A",
"~ 	c #BBDB79",
"{ 	c #B1D962",
"] 	c #CBF46E",
"^ 	c #DEFD81",
"/ 	c #EAFF8D",
"( 	c #F0FF93",
"_ 	c #F0FF94",
": 	c #EEFF91",
"< 	c #E6FF89",
"[ 	c #D9FC7D",
"} 	c #C3EF69",
"| 	c #AED461",
"1 	c #A6CD55",
"2 	c #C1ED67",
"3 	c #CFFA72",
"4 	c #D3FC77",
"5 	c #D6FD7B",
"6 	c #D9FD7E",
"7 	c #D9FD7D",
"8 	c #D5FD79",
"9 	c #CEF974",
"0 	c #C5F16B",
"a 	c #B4E05D",
"b 	c #A1C755",
"c 	c #9DBF56",
"d 	c #ADD856",
"e 	c #B8E55F",
"f 	c #BDEA63",
"g 	c #C1EE66",
"h 	c #C1EE67",
"i 	c #C0ED66",
"j 	c #C2EE68",
"k 	c #C0ED67",
"l 	c #BDE963",
"m 	c #B8E45F",
"n 	c #B0DB58",
"o 	c #A3CD4F",
"p 	c #92B252",
"q 	c #9AC249",
"r 	c #A9D553",
"s 	c #ADD955",
"t 	c #AFDB56",
"u 	c #B0DC57",
"v 	c #B0DB57",
"w 	c #ACD854",
"x 	c #ACD754",
"y 	c #ABD653",
"z 	c #AED955",
"A 	c #AFDB57",
"B 	c #ACD855",
"C 	c #A7D251",
"D 	c #A2CD4E",
"E 	c #90B744",
"F 	c #8CAB50",
"G 	c #9BC448",
"H 	c #A4CF4E",
"I 	c #A6D14E",
"J 	c #A7D350",
"K 	c #A7D24F",
"L 	c #A6D14F",
"M 	c #A5D04F",
"N 	c #A4CB54",
"O 	c #ABC46B",
"P 	c #95AA62",
"Q 	c #A5CF4E",
"R 	c #A6D24E",
"S 	c #A7D34F",
"T 	c #A8D350",
"U 	c #A5D14E",
"V 	c #A2CD4D",
"W 	c #9FC94A",
"X 	c #94BB45",
"Y 	c #829D4B",
"Z 	c #82A43C",
"` 	c #99C146",
" .	c #A2CB4C",
"..	c #A7D14F",
"+.	c #A6D04F",
"@.	c #A4C954",
"#.	c #A7C462",
"$.	c #AFBE7F",
"%.	c #C3C3AA",
"&.	c #D8D5C2",
"*.	c #9E9F85",
"=.	c #98B259",
"-.	c #A3CC4E",
";.	c #A4CE4D",
">.	c #9EC74A",
",.	c #99C247",
"'.	c #91B743",
").	c #729034",
"!.	c #82A53D",
"~.	c #97BE46",
"{.	c #9DC54A",
"].	c #A0C94C",
"^.	c #A4CE4E",
"/.	c #A6D050",
"(.	c #A7D050",
"_.	c #A5CA55",
":.	c #A7C168",
"<.	c #B1BC87",
"[.	c #C8C7B0",
"}.	c #E2DFCC",
"|.	c #F2F0DD",
"1.	c #B8B5A2",
"2.	c #9EA47D",
"3.	c #9BBA56",
"4.	c #A5CE4F",
"5.	c #98BF47",
"6.	c #8FB543",
"7.	c #729035",
"8.	c #83A43C",
"9.	c #96BD46",
"0.	c #9CC54A",
"a.	c #A4CD4E",
"b.	c #A6CF4F",
"c.	c #A6CE4F",
"d.	c #A3C852",
"e.	c #A4BB6A",
"f.	c #B4BD8D",
"g.	c #CBCAB0",
"h.	c #E3E0CD",
"i.	c #F6F4E0",
"j.	c #FBF8E5",
"k.	c #FCF8E4",
"l.	c #DEDAC7",
"m.	c #C9C5B3",
"n.	c #B6B3A0",
"o.	c #98A470",
"p.	c #A0C451",
"q.	c #A3CB4E",
"r.	c #9DC44A",
"s.	c #97BE47",
"t.	c #8FB442",
"u.	c #739035",
"v.	c #82A33D",
"w.	c #96BC46",
"x.	c #9CC349",
"y.	c #9FC84B",
"z.	c #A4CB51",
"A.	c #A4C559",
"B.	c #A7BC6E",
"C.	c #B3B596",
"D.	c #D4D1BC",
"E.	c #EAE6D3",
"F.	c #F8F5E3",
"G.	c #FDF9E6",
"H.	c #FBF7E3",
"I.	c #F8F3E0",
"J.	c #F2EEDA",
"K.	c #D9D5C1",
"L.	c #D5D1BC",
"M.	c #D0CCB8",
"N.	c #BBBAA0",
"O.	c #9DB167",
"P.	c #A4CC4E",
"Q.	c #A2CA4D",
"R.	c #9CC44A",
"S.	c #97BD47",
"T.	c #8EB342",
"U.	c #728F35",
"V.	c #81A23C",
"W.	c #95BB45",
"X.	c #9BC249",
"Y.	c #9FC74A",
"Z.	c #A3CB4D",
"`.	c #A4CA50",
" +	c #A4C459",
".+	c #A9BA75",
"++	c #B9BD99",
"@+	c #D1CDBC",
"#+	c #E8E4D2",
"$+	c #F7F3E0",
"%+	c #FAF6E3",
"&+	c #F8F4E0",
"*+	c #F5F1DD",
"=+	c #F1EDD9",
"-+	c #EEE9D5",
";+	c #E4DFCB",
">+	c #D9D5C0",
",+	c #DBD7C2",
"'+	c #DCD8C3",
")+	c #D4D0BC",
"!+	c #B5B39B",
"~+	c #9DBA58",
"{+	c #A5CD4E",
"]+	c #A5CD4F",
"^+	c #A1C94D",
"/+	c #8EB242",
"(+	c #728F34",
"_+	c #81A13C",
":+	c #94BA44",
"<+	c #9AC248",
"[+	c #9EC54A",
"}+	c #97A964",
"|+	c #939A75",
"1+	c #B2AEA0",
"2+	c #DFDBCA",
"3+	c #E9E5D3",
"4+	c #EBE7D4",
"5+	c #EDE9D5",
"6+	c #ECE8D4",
"7+	c #EAE6D2",
"8+	c #E6E2CE",
"9+	c #E3DFCA",
"0+	c #DEDAC5",
"a+	c #DDD9C4",
"b+	c #E1DCC6",
"c+	c #E3DFC9",
"d+	c #D5D0BC",
"e+	c #A9B085",
"f+	c #9FC351",
"g+	c #A0C84C",
"h+	c #9BC149",
"i+	c #95BB46",
"j+	c #8DB141",
"k+	c #718E34",
"l+	c #80A13B",
"m+	c #93B944",
"n+	c #99C148",
"o+	c #9DC449",
"p+	c #9FC54D",
"q+	c #97B652",
"r+	c #8C9963",
"s+	c #7F7E6F",
"t+	c #939083",
"u+	c #A6A395",
"v+	c #B3AFA0",
"w+	c #BBB8A7",
"x+	c #C3BFAD",
"y+	c #CAC6B3",
"z+	c #CFCBB8",
"A+	c #D6D2BD",
"B+	c #E0DCC5",
"C+	c #E3DFC8",
"D+	c #E6E2CB",
"E+	c #E9E5CE",
"F+	c #EBE7D0",
"G+	c #EAE5CE",
"H+	c #CFCDB4",
"I+	c #ADBE76",
"J+	c #A1C74E",
"K+	c #9FC84C",
"L+	c #9AC148",
"M+	c #94BA45",
"N+	c #8CB041",
"O+	c #718D34",
"P+	c #7FA03A",
"Q+	c #92B844",
"R+	c #9EC64B",
"S+	c #9CC34A",
"T+	c #93B946",
"U+	c #87A940",
"V+	c #7E9647",
"W+	c #818666",
"X+	c #858474",
"Y+	c #979587",
"Z+	c #AEAA9A",
"`+	c #B9B5A4",
" @	c #C1BDAA",
".@	c #C8C5B1",
"+@	c #D1CDB9",
"@@	c #D9D4BF",
"#@	c #E0DBC5",
"$@	c #E2DEC7",
"%@	c #E7E3CC",
"&@	c #EAE6CF",
"*@	c #EDE9D2",
"=@	c #C8C6AE",
"-@	c #A2B56D",
";@	c #9FC54E",
">@	c #A1CA4D",
",@	c #98BF48",
"'@	c #93B945",
")@	c #8BAF40",
"!@	c #708C34",
"~@	c #7E9F3A",
"{@	c #9DC54B",
"]@	c #95BB47",
"^@	c #8AAE42",
"/@	c #7F9F3D",
"(@	c #7D9745",
"_@	c #7E8E55",
":@	c #868B6C",
"<@	c #949184",
"[@	c #AAA696",
"}@	c #BCB8A6",
"|@	c #C6C3AF",
"1@	c #CFCBB6",
"2@	c #D6D1BD",
"3@	c #DCD8C2",
"4@	c #DDD9C3",
"5@	c #DCD8C1",
"6@	c #DBD7C1",
"7@	c #DAD6C1",
"8@	c #CDC9B5",
"9@	c #AEB190",
"0@	c #9BB859",
"a@	c #98BE47",
"b@	c #8AAE3F",
"c@	c #6F8C33",
"d@	c #7D9E3A",
"e@	c #91B642",
"f@	c #9DC64B",
"g@	c #9AC14A",
"h@	c #94BA47",
"i@	c #8BAE42",
"j@	c #81A23E",
"k@	c #79973B",
"l@	c #789143",
"m@	c #7E8C57",
"n@	c #979583",
"o@	c #A29F8F",
"p@	c #BCB9A7",
"q@	c #CECAB6",
"r@	c #D4D0BB",
"s@	c #D9D5BF",
"t@	c #E8E5D1",
"u@	c #E2DFCB",
"v@	c #DAD6C2",
"w@	c #CECBB7",
"x@	c #C0BDAA",
"y@	c #A8A595",
"z@	c #989785",
"A@	c #949C74",
"B@	c #96B256",
"C@	c #9FC84D",
"D@	c #A0C94D",
"E@	c #91B744",
"F@	c #89AD3F",
"G@	c #6E8B33",
"H@	c #7C9D39",
"I@	c #8FB542",
"J@	c #95BC46",
"K@	c #98C047",
"L@	c #9DC64C",
"M@	c #9CC44B",
"N@	c #9AC24A",
"O@	c #95BC48",
"P@	c #8FB445",
"Q@	c #87A941",
"R@	c #7E9F3C",
"S@	c #77943B",
"T@	c #829751",
"U@	c #929973",
"V@	c #999884",
"W@	c #B3B09F",
"X@	c #E0DCC6",
"Y@	c #F7F6E6",
"Z@	c #FAF9EB",
"`@	c #F5F4E3",
" #	c #DDDAC6",
".#	c #A8A790",
"+#	c #869956",
"@#	c #82A23F",
"##	c #8EB344",
"$#	c #9EC64C",
"%#	c #9BC24A",
"&#	c #90B543",
"*#	c #88AC3F",
"=#	c #6D8A32",
"-#	c #7B9B39",
";#	c #9BC349",
">#	c #97BE48",
",#	c #8CB043",
"'#	c #82A33E",
")#	c #7A983A",
"!#	c #75923C",
"~#	c #849756",
"{#	c #8F9571",
"]#	c #ADAA97",
"^#	c #C0BCAA",
"/#	c #E3E0CB",
"(#	c #F0EDDD",
"_#	c #FBFBF1",
":#	c #FEFEF0",
"<#	c #EBE9D1",
"[#	c #B3BB8B",
"}#	c #8DA94D",
"|#	c #90B445",
"1#	c #9AC149",
"2#	c #94BA46",
"3#	c #8FB443",
"4#	c #88AA3E",
"5#	c #6D8932",
"6#	c #7A9B39",
"7#	c #8EB341",
"8#	c #93BA45",
"9#	c #96BD47",
"0#	c #9BC34A",
"a#	c #99C149",
"b#	c #96BC47",
"c#	c #8FB444",
"d#	c #88AB41",
"e#	c #80A13D",
"f#	c #779639",
"g#	c #799242",
"h#	c #949F6D",
"i#	c #A8A98F",
"j#	c #B4B19F",
"k#	c #E1DDC8",
"l#	c #EDEAD8",
"m#	c #FAFAF2",
"n#	c #FDFDF1",
"o#	c #EDECD5",
"p#	c #BEC697",
"q#	c #99BA52",
"r#	c #9BC34B",
"s#	c #99C049",
"t#	c #87A93E",
"u#	c #6C8832",
"v#	c #799A37",
"w#	c #8CB140",
"x#	c #99C048",
"y#	c #97BD48",
"z#	c #8EB243",
"A#	c #85A840",
"B#	c #819E42",
"C#	c #92A660",
"D#	c #CCCFB1",
"E#	c #E8E6DC",
"F#	c #F1F0EC",
"G#	c #F7F6F1",
"H#	c #F9F8F3",
"I#	c #FBFBF8",
"J#	c #FEFEFC",
"K#	c #FEFDF4",
"L#	c #F4F2DD",
"M#	c #C9CDA6",
"N#	c #9CC150",
"O#	c #97BF48",
"P#	c #8DB241",
"Q#	c #85A83D",
"R#	c #6B8731",
"S#	c #799837",
"T#	c #8CB040",
"U#	c #95BA45",
"V#	c #99BF48",
"W#	c #98BE48",
"X#	c #99BB50",
"Y#	c #A4BE66",
"Z#	c #CBD3A9",
"`#	c #F1F1E1",
" $	c #FEFEFA",
".$	c #FFFFFF",
"+$	c #FFFFFD",
"@$	c #FFFFFE",
"#$	c #FFFEF7",
"$$	c #FAF7E5",
"%$	c #CBD0A6",
"&$	c #A2C15B",
"*$	c #91B644",
"=$	c #8DB041",
"-$	c #85A73D",
";$	c #6A8631",
">$	c #789737",
",$	c #8BAE40",
"'$	c #93B845",
")$	c #9AB856",
"!$	c #B8C192",
"~$	c #CAC8B9",
"{$	c #DDDBD0",
"]$	c #ECEADF",
"^$	c #F2F0E6",
"/$	c #F6F3E8",
"($	c #F9F6EB",
"_$	c #FBF9EF",
":$	c #FDFBEF",
"<$	c #FFFFFA",
"[$	c #F5F3DF",
"}$	c #CED4A7",
"|$	c #A2BF5D",
"1$	c #90B544",
"2$	c #8BAF41",
"3$	c #84A63D",
"4$	c #6A8531",
"5$	c #779636",
"6$	c #8AAD3F",
"7$	c #8FB342",
"8$	c #92B744",
"9$	c #90B446",
"0$	c #94AE59",
"a$	c #A7AD83",
"b$	c #B0AD9B",
"c$	c #BFBCAA",
"d$	c #DAD7C2",
"e$	c #E8E4CD",
"f$	c #EEE9D2",
"g$	c #F3EED7",
"h$	c #F7F3DB",
"i$	c #FCF9E7",
"j$	c #FEFDF6",
"k$	c #FEFEFB",
"l$	c #FEFEF5",
"m$	c #F6F4DF",
"n$	c #D0D5AB",
"o$	c #9CBC56",
"p$	c #96BD48",
"q$	c #8AAE40",
"r$	c #82A53C",
"s$	c #688430",
"t$	c #769536",
"u$	c #95BC47",
"v$	c #94BB47",
"w$	c #84A53F",
"x$	c #78963B",
"y$	c #81974E",
"z$	c #949C73",
"A$	c #AFAD98",
"B$	c #C9C5B2",
"C$	c #E0DBC6",
"D$	c #F0EBD3",
"E$	c #F4EFD7",
"F$	c #F8F4DF",
"G$	c #FCFAEE",
"H$	c #FDFDF6",
"I$	c #FEFDF7",
"J$	c #FFFEF4",
"K$	c #FAF8E5",
"L$	c #DBDABD",
"M$	c #9DB95D",
"N$	c #8FB343",
"O$	c #8AAD40",
"P$	c #759435",
"Q$	c #88AB3E",
"R$	c #90B643",
"S$	c #91B645",
"T$	c #89AC41",
"U$	c #759438",
"V$	c #718C39",
"W$	c #95A26B",
"X$	c #A7A98B",
"Y$	c #BEBBA8",
"Z$	c #D1CEB9",
"`$	c #E4E0C9",
" %	c #EDE8D1",
".%	c #F0ECD3",
"+%	c #F2EED6",
"@%	c #F2EEDB",
"#%	c #F0EEE0",
"$%	c #EDEBDB",
"%%	c #E4E1CC",
"&%	c #C2C5A1",
"*%	c #9CB55F",
"=%	c #95BB48",
"-%	c #8DB242",
";%	c #89AC3F",
">%	c #81A33B",
",%	c #688330",
"'%	c #749335",
")%	c #86AA3D",
"!%	c #92B845",
"~%	c #92B946",
"{%	c #88AC41",
"]%	c #81A33D",
"^%	c #799839",
"/%	c #76923B",
"(%	c #7F944E",
"_%	c #95A071",
":%	c #AEAE95",
"<%	c #EBE6CF",
"[%	c #E9E5CF",
"}%	c #CFCCB8",
"|%	c #BBB8A6",
"1%	c #A4A292",
"2%	c #989B7F",
"3%	c #93A85F",
"4%	c #92B746",
"5%	c #8CB141",
"6%	c #87AB3E",
"7%	c #7FA23A",
"8%	c #66822F",
"9%	c #739234",
"0%	c #86A93D",
"a%	c #92B745",
"b%	c #93B846",
"c%	c #90B644",
"d%	c #8CB143",
"e%	c #7FA03C",
"f%	c #749238",
"g%	c #718C38",
"h%	c #738A41",
"i%	c #A3A982",
"j%	c #ADAB96",
"k%	c #C9C5B1",
"l%	c #E8E4CF",
"m%	c #F2F1DC",
"n%	c #E1DDC7",
"o%	c #ABA796",
"p%	c #838C61",
"q%	c #7A973E",
"r%	c #87A942",
"s%	c #90B444",
"t%	c #87AA3E",
"u%	c #7FA13A",
"v%	c #66812F",
"w%	c #8FB344",
"x%	c #83A43E",
"y%	c #7C9B3B",
"z%	c #749138",
"A%	c #768F3E",
"B%	c #8F9D65",
"C%	c #A0A484",
"D%	c #B2B19B",
"E%	c #E0DDC8",
"F%	c #F3F1DA",
"G%	c #E0DDC3",
"H%	c #9CA675",
"I%	c #7C9C3B",
"J%	c #88AA41",
"K%	c #8AAE41",
"L%	c #86A83E",
"M%	c #65802F",
"N%	c #718F34",
"O%	c #83A63C",
"P%	c #8CAF42",
"Q%	c #87AA40",
"R%	c #81A13D",
"S%	c #789639",
"T%	c #708B38",
"U%	c #88995B",
"V%	c #BABCA0",
"W%	c #CFCDC1",
"X%	c #DFDDD2",
"Y%	c #E8E5D5",
"Z%	c #EEEAD3",
"`%	c #D2CFB7",
" &	c #8FA25F",
".&	c #89AD40",
"+&	c #84A73D",
"@&	c #7D9E39",
"#&	c #647F2E",
"$&	c #8BB041",
"%&	c #91B646",
"&&	c #90B545",
"*&	c #8EB244",
"=&	c #8AAD42",
"-&	c #8BA84B",
";&	c #B3C08A",
">&	c #E2E4CF",
",&	c #F4F4EC",
"'&	c #F6F5F1",
")&	c #E8E6DA",
"!&	c #DAD6C3",
"~&	c #E5E1CA",
"{&	c #B9B99C",
"]&	c #8FA657",
"^&	c #8EB343",
"/&	c #88AC40",
"(&	c #7C9E39",
"_&	c #647E2E",
":&	c #708E33",
"<&	c #82A53B",
"[&	c #8AAF40",
"}&	c #8EB048",
"|&	c #A4B770",
"1&	c #ACB094",
"2&	c #C3C2B4",
"3&	c #CDCABB",
"4&	c #D3CFBC",
"5&	c #D5D1BD",
"6&	c #D3CFBB",
"7&	c #D2CEBA",
"8&	c #D7D3BE",
"9&	c #B0B58D",
"0&	c #90AC50",
"a&	c #8CB142",
"b&	c #87AB3F",
"c&	c #83A53C",
"d&	c #7C9C38",
"e&	c #637D2D",
"f&	c #6F8D33",
"g&	c #80A33A",
"h&	c #89AE40",
"i&	c #8DB243",
"j&	c #81A23D",
"k&	c #7F9747",
"l&	c #97A075",
"m&	c #A6A68F",
"n&	c #B3AF9E",
"o&	c #C7C3B0",
"p&	c #CDCAB6",
"q&	c #CDC9B6",
"r&	c #CAC7B1",
"s&	c #A0AA7B",
"t&	c #8DAD49",
"u&	c #8BB042",
"v&	c #86A93F",
"w&	c #81A43C",
"x&	c #7A9B38",
"y&	c #627D2D",
"z&	c #6E8C32",
"A&	c #80A23A",
"B&	c #8CB042",
"C&	c #8DB042",
"D&	c #89AB41",
"E&	c #82A23E",
"F&	c #779539",
"G&	c #758F3F",
"H&	c #7E8F50",
"I&	c #8D956B",
"J&	c #A3A090",
"K&	c #B1AF9D",
"L&	c #C2BEAC",
"M&	c #C5C1AF",
"N&	c #C5C1AE",
"O&	c #CBC7B4",
"P&	c #BBB9A4",
"Q&	c #8F9A68",
"R&	c #85A83E",
"S&	c #7A9A37",
"T&	c #627B2D",
"U&	c #88AB3F",
"V&	c #8DB143",
"W&	c #80A03D",
"X&	c #718D36",
"Y&	c #6B8535",
"Z&	c #748648",
"`&	c #919576",
" *	c #9C9A89",
".*	c #ACA999",
"+*	c #B9B5A5",
"@*	c #BAB7A6",
"#*	c #C0BDAB",
"$*	c #AEAC99",
"%*	c #889D54",
"&*	c #8BAD43",
"**	c #8AAD41",
"=*	c #80A23B",
"-*	c #617B2C",
";*	c #6D8931",
">*	c #7E9F39",
",*	c #84A53C",
"'*	c #8BAD41",
")*	c #8DAF43",
"!*	c #8CAF43",
"~*	c #87A840",
"{*	c #83A33E",
"]*	c #7D9B3B",
"^*	c #759137",
"/*	c #6B8533",
"(*	c #728740",
"_*	c #879164",
":*	c #898B70",
"<*	c #9A9789",
"[*	c #A5A293",
"}*	c #AFAC9C",
"|*	c #B7B4A3",
"1*	c #9FA183",
"2*	c #879E50",
"3*	c #8BAD42",
"4*	c #89AC40",
"5*	c #84A53D",
"6*	c #789736",
"7*	c #617A2C",
"8*	c #6C8831",
"9*	c #7E9E39",
"0*	c #86A73E",
"a*	c #89AB40",
"b*	c #8CAE42",
"c*	c #8AAC41",
"d*	c #89AA40",
"e*	c #85A53F",
"f*	c #809F3C",
"g*	c #789438",
"h*	c #718C35",
"i*	c #6C8535",
"j*	c #708440",
"k*	c #7A845A",
"l*	c #8B8A78",
"m*	c #918E81",
"n*	c #A3A091",
"o*	c #ADAA99",
"p*	c #909672",
"q*	c #86A149",
"r*	c #8BAC41",
"s*	c #7F9F3A",
"t*	c #789636",
"u*	c #60782C",
"v*	c #6B8730",
"w*	c #82A23B",
"x*	c #85A63D",
"y*	c #88AA40",
"z*	c #87A83F",
"A*	c #7D9C3B",
"B*	c #769338",
"C*	c #6F8A35",
"D*	c #698134",
"E*	c #697C3C",
"F*	c #787F5B",
"G*	c #7E7D6E",
"H*	c #999788",
"I*	c #828A63",
"J*	c #85A244",
"K*	c #87A93F",
"L*	c #82A33C",
"M*	c #779535",
"N*	c #5F782B",
"O*	c #6A8630",
"P*	c #7B9B38",
"Q*	c #6C8732",
"R*	c #6A8335",
"S*	c #738348",
"T*	c #777B61",
"U*	c #7F7E6E",
"V*	c #888877",
"W*	c #808F58",
"X*	c #81A23B",
"Y*	c #7C9C39",
"Z*	c #769435",
"`*	c #5E772B",
" =	c #6A8530",
".=	c #80A13A",
"+=	c #87AA3F",
"@=	c #83A63D",
"#=	c #7E9E3B",
"$=	c #789638",
"%=	c #698037",
"&=	c #6E7D48",
"*=	c #767A60",
"==	c #787868",
"-=	c #7D924C",
";=	c #88AA3F",
">=	c #749334",
",=	c #5D752A",
"'=	c #66802E",
")=	c #779736",
"!=	c #85A83F",
"~=	c #80A13C",
"{=	c #749336",
"]=	c #6C8932",
"^=	c #698532",
"/=	c #718640",
"(=	c #788357",
"_=	c #72755E",
":=	c #7B9446",
"<=	c #7E9E3A",
"[=	c #799937",
"}=	c #718E32",
"|=	c #546A26",
"1=	c #617A2F",
"2=	c #6F8D32",
"3=	c #789836",
"4=	c #80A23C",
"5=	c #84A63E",
"6=	c #86A83F",
"7=	c #85A73E",
"8=	c #84A73E",
"9=	c #82A43D",
"0=	c #7F9F3B",
"a=	c #749136",
"b=	c #718E35",
"c=	c #738F37",
"d=	c #789142",
"e=	c #798F48",
"f=	c #7E9D3E",
"g=	c #799938",
"h=	c #69852F",
"i=	c #4F602C",
"j=	c #739135",
"k=	c #799738",
"l=	c #7D9D3B",
"m=	c #82A13E",
"n=	c #85A63F",
"o=	c #84A53E",
"p=	c #7A9839",
"q=	c #779538",
"r=	c #7A993A",
"s=	c #7B9A3A",
"t=	c #799838",
"u=	c #759236",
"v=	c #6F8B32",
"w=	c #5E772A",
"x=	c #677D39",
"y=	c #6B8631",
"z=	c #759237",
"A=	c #7A983B",
"B=	c #81A03F",
"C=	c #82A240",
"D=	c #83A240",
"E=	c #81A13F",
"F=	c #809F3F",
"G=	c #7F9D3E",
"H=	c #7C9A3C",
"I=	c #79973C",
"J=	c #77953A",
"K=	c #657F2E",
"L=	c #5A6D34",
"M=	c #60772F",
"N=	c #6C8733",
"O=	c #76933A",
"P=	c #7B983E",
"Q=	c #7E9B40",
"R=	c #7F9D41",
"S=	c #809D42",
"T=	c #809D41",
"U=	c #7F9C41",
"V=	c #77943C",
"W=	c #738F39",
"X=	c #657F2F",
"Y=	c #546829",
"Z=	c #617733",
"`=	c #75903D",
" -	c #7A9641",
".-	c #7C9742",
"+-	c #7D9843",
"@-	c #7D9743",
"#-	c #7B9641",
"$-	c #76913D",
"%-	c #6D8737",
"&-	c #61792F",
"*-	c #53672C",
"=-	c #6F804B",
"--	c #617834",
";-	c #657C38",
">-	c #6A813A",
",-	c #6D843C",
"'-	c #637935",
")-	c #576C2C",
"!-	c #657446",
"~-	c #879270",
"{-	c #78865B",
"]-	c #6D7E4A",
"^-	c #728155",
"/-	c #76845A",
". . + + @ . # $ % % % % % % % % % % % % % % % % % % % % % % % % % % % % % % % % &   @ * . . . . ",
". + . . = - ; > , , , , , , , , , , , , , , , , , , , , , , , , , , , , , , , , ' ) ! ~ * @ + . ",
"+ . . { ] ^ / ( _ _ _ _ _ _ _ _ _ _ _ _ _ _ _ _ _ _ _ _ _ _ _ _ _ _ _ _ _ _ _ _ : < [ } | * @ + ",
". . 1 2 3 4 5 6 7 7 7 7 7 7 7 7 7 7 7 7 7 7 7 7 7 7 7 7 7 7 7 7 7 7 7 7 7 7 7 7 7 8 9 0 a b . @ ",
". c d e f g h 2 i i i i i i i i i i i i i i i i i i i i i i i i i i i i i i i i j k l m n o p * ",
"* q r s t u v s w w w w w w w w w w x y x w w w w w w w w w w w w w w w w w w w z A n B C D E * ",
"F G H I J J K K I I I I I I I I L M N O P Q I I I I I I I I I I I I I I I I I R K S T U V W X Y ",
"Z ` W  .Q L ..............L +.@.#.$.%.&.*.=.-.+.....................................L ;.>.,.'.).",
"!.~.{.].^./.(.(.(.(.(./.+._.:.<.[.}.|.}.1.2.3.4.(.(.(.(.(.(.(.(.(.(.(.(.(.(.(.(.(.(./.-.{.5.6.7.",
"8.9.0.].a.b.b.b.b.b.c.d.e.f.g.h.i.j.k.l.m.n.o.p.b.b.b.b.b.b.b.b.b.b.b.b.b.b.b.b.b.b.b.q.r.s.t.u.",
"v.w.x.y.-.b.c.c.z.A.B.C.D.E.F.G.H.I.J.K.L.M.N.O.P.4.c.b.b.b.b.b.b.b.b.b.b.b.b.b.b.b.4.Q.R.S.T.U.",
"V.W.X.Y.Z.a.`. +.+++@+#+$+%+&+*+=+-+;+>+,+'+)+!+~+q.{+]+]+]+]+]+]+]+]+]+]+]+]+]+]+]+]+^+X.w./+(+",
"_+:+<+[+Q.p.}+|+1+@+2+3+4+5+6+7+8+9+0+a+b+c+c+d+e+f+q.P.P.P.P.P.P.P.P.P.P.P.P.P.P.P.P.g+h+i+j+k+",
"l+m+n+o+g+p+q+r+s+t+u+v+w+x+y+z+A+,+B+C+D+E+F+G+H+I+J+Z.P.P.P.P.P.P.P.P.P.P.P.P.P.P.q.K+L+M+N+O+",
"P+Q+5.x.R+S+T+U+V+W+X+Y+Z+`+ @.@+@@@#@$@C+%@&@*@E+=@-@;@>@>@>@>@>@>@>@>@>@>@>@>@>@>@>@R+,@'@)@!@",
"~@'.s.<+{@R.]@^@/@(@_@:@<@[@}@|@1@2@3@4@5@6@>+6@7@8@9@0@K+].].].].].].].].].].].].].].{@a@Q+b@c@",
"d@e@~.n+{@f@g@h@i@j@k@l@m@n@o@p@q@r@s@t@u@v@w@x@y@z@A@B@R+C@D@D@D@D@D@D@D@D@D@D@D@D@K+0.~.E@F@G@",
"H@I@J@K@R.L@M@N@O@P@Q@R@S@T@U@V@W@y+A+X@Y@Z@`@ #.#+#@###N@{@$#$#$#$#$#$#$#$#$#$#$#$#$#%#i+&#*#=#",
"-#t.W.a@;#{@{@M@N@>#T+,#'#)#!#~#{#]#^#)+/#(#_#:#<#[#}#|#g@M@{@{@{@{@{@{@{@{@{@{@{@{@{@1#2#3#4#5#",
"6#7#8#9#q M@M@M@S+0#a#b#c#d#e#f#g#h#i#j#M.k#l#m#n#o#p#q#N@r#M@M@M@M@M@M@M@M@M@M@M@M@M@s#'@T.t#u#",
"v#w#Q+J@x#0#0#0#0#%#N@s#y#T+z#A#B#C#D#E#F#G#H#I#J#K#L#M#N#N@%#0#0#0#0#0#0#0#0#0#0#0#0#O#Q+P#Q#R#",
"S#T#'.U#V#g@g@g@g@g@g@g@s#W#X#Y#Z#`# $.$.$.$.$+$+$@$#$$$%$&$s#1#g@g@g@g@g@g@g@g@g@g@g@y#*$=$-$;$",
">$,$&#'$s.s#s#s#s#s#s#s#s#y#)$!$~${$]$^$/$($_$:$<$+$+$#$[$}$|$W#s#s#s#s#s#s#s#s#s#s#s#b#1$2$3$4$",
"5$6$7$8$b#,@,@,@,@,@,@,@>#]@9$0$a$b$c$d$e$f$g$h$i$j$J#k$l$m$n$o$p$>#,@,@,@,@,@,@,@,@,@i+3#q$r$s$",
"t$F@T.8$u$>#>#>#>#>#>#>#p$v$##w$x$y$z$A$B$C$G+D$E$F$G$H$I$J$K$L$M$O@>#>#>#>#>#>#>#>#>#2#N$O$Z s$",
"P$Q$P#R$2#p$p$p$p$p$p$p$9#v$S$T$R@U$V$W$X$Y$Z$`$ %.%+%@%(##%$%%%&%*%=%9#p$p$p$p$p$p$p$'@-%;%>%,%",
"'%)%w#t.!%]@u$u$u$u$u$u$u$v$~%c#{%]%^%/%(%_%:%x@3@e$<%[%3@}%|%1%2%3%4%v$u$u$u$u$u$u$]@Q+5%6%7%8%",
"9%0%)@T.a%2#h@h@h@h@h@h@h@h@2#b%c%d%U+e%f%g%h%i%j%k%3@l%m%n%o%p%q%r%s%T+h@h@h@h@h@h@2#*$N+t%u%v%",
").-$q$-%*$b%b%b%b%b%b%b%b%b%b%b%4%S$w%i@x%y%z%A%B%C%D%B$E%F%G%H%I%J%w%4%b%b%b%b%b%b%b%s%K%L%~@M%",
"N%O%F@N+c#a%a%a%a%a%a%a%a%a%a%a%a%a%S$s%P%Q%R%S%T%U%V%W%X%Y%Z%`% &i@s%S$a%a%a%a%a%a%a%N$.&+&@&#&",
"N%O%*#$&c#S$4%4%4%4%4%4%4%4%4%4%4%4%%&S$&&*&=&-&;&>&,&'&)&!&,+~&{&]&c#S$4%4%4%4%4%4%S$^&/&+&(&_&",
":&<&6%[&^&1$&&&&&&&&&&&&&&&&&&&&&&&&&&&&1$N$}&|&1&2&3&4&5&6&+@7&8&9&0&w%&&&&&&&&&&&&1$a&b&c&d&e&",
"f&g&)%h&-%c#c#c#c#c#c#c#c#c#c#c#c#c#c#c#c#i&T$j&k&l&m&n&o&p&q&y+7&r&s&t&##c#c#c#c#c#c#u&v&w&x&y&",
"z&A&Q#*#B&z#^&^&^&^&^&^&^&^&^&^&^&^&^&^&^&C&D&E&F&G&H&I&J&K&L&M&N&O&P&Q&,#z#^&^&^&^&z#2$R&>%S&T&",
"=#P+3$U&2$V&V&V&V&V&V&V&V&V&V&V&V&V&V&V&V&,#^@U+W&S%X&Y&Z&`& *.*+*@*#*$*%*&*V&V&V&V&V&**-$=*S#-*",
";*>*,*t#'*)*)*)*)*)*)*)*)*)*)*)*)*)*)*)*)*!*i@**~*{*]*^*/*(*_*:*<*[*}*|*1*2*3*P%)*)*P%4*5*P+6*7*",
"8*9*8.0*a*b*b*b*b*b*b*b*b*b*b*b*b*b*b*b*b*b*b*3*c*d*e*f*g*h*i*j*k*l*m*n*o*p*q*r*b*b*b*a*8.s*t*u*",
"v*d&w*x*y*'*'*'*'*'*'*'*'*'*'*'*'*'*'*'*'*'*'*'*c*c*a*z*E&A*B*C*D*E*F*G*t+H*I*J*c*'*'*K*L*@&M*N*",
"O*P*l+c&K*4*4*4*4*4*4*4*4*4*4*4*4*4*4*4*4*4*4*4*4*4*a*a*K*0*v.A*^*Q*R*S*T*U*V*W*K*a*a*L%X*Y*Z*`*",
" =S&.=8.v&U&U&U&U&U&U&U&U&U&U&U&U&U&U&U&U&U&U&U&U&U&U&U&+=+=L%@=#=$=k+4$%=&=*===-=K*;=0*l+d&>=,=",
"'=)=@&X*x*K*+=+=+=+=+=+=+=+=+=+=+=+=+=+=+=+=+=+=+=+=+=+=+=+=v&!=3$~=-#{=]=^=/=(=_=:=!=5*<=[=}=|=",
"1=2=3=Y*4=5=!=6=L%L%L%L%L%L%L%L%L%L%L%L%L%L%L%L%L%L%L%L%L%L%R&R&7=8=9=0=^%a=b=c=d=e=f=#=g='%h=i=",
"* '=j=k=l=m=w$n=n=n=n=n=n=n=n=n=n=n=n=n=n=n=n=n=n=n=n=n=n=n=n=n=n=n=o=x%~=A*p=q=S%r=s=t=u=v=w=@ ",
". x=y=z=A=f=B=C=C=D=D=D=D=D=D=D=D=D=D=D=D=D=D=D=D=D=D=D=D=D=D=D=D=D=D=C=E=F=G=H=I=J=B*a=c@K=L=. ",
". * M=N=O=P=Q=R=S=S=S=S=S=S=S=S=S=S=S=S=S=S=S=S=S=S=S=S=S=S=S=S=S=S=S=S=T=U=U=Q=P=V=W=C*X=Y=* . ",
". . * Z=R*`= -.-+-+-+-+-+-+-+-+-+-+-+-+-+-+-+-+-+-+-+-+-+-+-+-+-+-+-+-+-+-+-+-@-#-$-%-&-*-* . . ",
". . . * =---;->-,-,-,-,-,-,-,-,-,-,-,-,-,-,-,-,-,-,-,-,-,-,-,-,-,-,-,-,-,-,-,-,->-'-)-!-* . . . ",
". . . . . * ~-{-]-]-]-]-]-]-]-]-]-]-]-]-]-]-]-]-]-]-]-]-]-]-]-]-]-]-]-]-]-]-]-]-^-/-@ . . . . + "};
