/* XPM */
static char * BotonFijarCamara_xpm[] = {
"22 18 163 2",
"  	c None",
". 	c #275674",
"+ 	c #65788A",
"@ 	c #6D7E8E",
"# 	c #82919E",
"$ 	c #85939F",
"% 	c #81909C",
"& 	c #D2D7D8",
"* 	c #8E8DB7",
"= 	c #CFD6DB",
"- 	c #D4D7D8",
"; 	c #CFD1D2",
"> 	c #C4C5C4",
", 	c #B4B3B1",
"' 	c #ABABAA",
") 	c #ABADAC",
"! 	c #ABAEAD",
"~ 	c #B0B3B2",
"{ 	c #B5B5B8",
"] 	c #29283C",
"^ 	c #4C4D69",
"/ 	c #393A56",
"( 	c #BDBCBE",
"_ 	c #CFCDCB",
": 	c #D1D0CE",
"< 	c #CCCCCB",
"[ 	c #CBCFCF",
"} 	c #CAD2D4",
"| 	c #CDD6D8",
"1 	c #CFD6D8",
"2 	c #DBDFDF",
"3 	c #525570",
"4 	c #616789",
"5 	c #666A95",
"6 	c #4C5076",
"7 	c #A3A4B3",
"8 	c #E9E8E7",
"9 	c #E1E1E1",
"0 	c #E1E5E8",
"a 	c #E1EBEF",
"b 	c #D8E6EB",
"c 	c #CCDBE0",
"d 	c #C8D4D8",
"e 	c #D5DDDF",
"f 	c #9298A6",
"g 	c #5D6283",
"h 	c #353656",
"i 	c #8E8F9D",
"j 	c #B8B6B4",
"k 	c #C8C9CB",
"l 	c #E3E8ED",
"m 	c #CAD5D8",
"n 	c #B5C5CE",
"o 	c #98A6B4",
"p 	c #808999",
"q 	c #66697D",
"r 	c #647687",
"s 	c #515167",
"t 	c #83838C",
"u 	c #AEADAC",
"v 	c #BBBBBE",
"w 	c #B3B8C3",
"x 	c #52556E",
"y 	c #434E67",
"z 	c #516B86",
"A 	c #5F89AB",
"B 	c #649FCD",
"C 	c #434D72",
"D 	c #8A8DB4",
"E 	c #FCFBFA",
"F 	c #BABABE",
"G 	c #A3A6B7",
"H 	c #8194A7",
"I 	c #C7F4FD",
"J 	c #CAEBF2",
"K 	c #ACE6FC",
"L 	c #A1D9F4",
"M 	c #4F587C",
"N 	c #8083AC",
"O 	c #FDFDFC",
"P 	c #B6B5C0",
"Q 	c #5C5D73",
"R 	c #8C8582",
"S 	c #D5D7C6",
"T 	c #E7D1B5",
"U 	c #D0C9BB",
"V 	c #B9B6AD",
"W 	c #505374",
"X 	c #8084B8",
"Y 	c #7E81A7",
"Z 	c #F8F7F6",
"` 	c #A8A8BA",
" .	c #373958",
"..	c #5C5451",
"+.	c #817559",
"@.	c #A99377",
"#.	c #898072",
"$.	c #787A74",
"%.	c #4A4D6F",
"&.	c #7276A3",
"*.	c #7E80A0",
"=.	c #EDEBEB",
"-.	c #A6A6B6",
";.	c #333451",
">.	c #574D4C",
",.	c #807B66",
"'.	c #978C7E",
").	c #587788",
"!.	c #3D5B73",
"~.	c #45496D",
"{.	c #6D709B",
"].	c #81819B",
"^.	c #E3E1E0",
"/.	c #BAB9C1",
"(.	c #80808F",
"_.	c #4B434D",
":.	c #3D475A",
"<.	c #303248",
"[.	c #2B2C45",
"}.	c #31324F",
"|.	c #34374E",
"1.	c #616388",
"2.	c #838398",
"3.	c #DEDCDB",
"4.	c #BCBBC2",
"5.	c #A1A0A9",
"6.	c #2D2D49",
"7.	c #292A45",
"8.	c #2A2A45",
"9.	c #30324F",
"0.	c #333552",
"a.	c #252739",
"b.	c #5D6F80",
"c.	c #7A798C",
"d.	c #DDDAD9",
"e.	c #BFBEC6",
"f.	c #9C9BAA",
"g.	c #262641",
"h.	c #1C1C32",
"i.	c #1E1E34",
"j.	c #212138",
"k.	c #24243C",
"l.	c #1B1D2B",
"m.	c #556574",
"n.	c #5B6A7B",
"o.	c #656477",
"p.	c #DDDADA",
"q.	c #C1C1C8",
"r.	c #9493A1",
"s.	c #202038",
"t.	c #151527",
"u.	c #151425",
"v.	c #161626",
"w.	c #1D1D30",
"x.	c #1B1D2A",
"y.	c #637688",
"z.	c #605E6B",
"A.	c #DFDDE0",
"B.	c #BABAC9",
"C.	c #888897",
"D.	c #25263D",
"E.	c #2E2F46",
"F.	c #3E405D",
". . . . . . . . . . . . . . . . . . . . . . ",
". . . . . + + + @ # $ %   &   * + . . . . . ",
". . . .   = - ; > , ' ) ! ~ { ]   . . . . . ",
". . . + ^ / ( _ : < [ } | 1 2 3 4 . . . . . ",
". . . + 5 6 7 8 9 0 a b c d e f . . . . . . ",
". . . . g h i j k l m n o p q   . . . . . . ",
". . . . r s t u v w x y z A B C + . . . . . ",
". . . . .   D E F G H I J K L M + . . . . . ",
". . . . .   N O P Q R S T U V W + . . . . . ",
". . . . + X Y Z `  ...+.@.#.$.%.+ . . . . . ",
". . . . + &.*.=.-.;.>.,.'.).!.~.. . . . . . ",
". . . . + {.].^./.(._.:.<.[.}.|.. . . . . . ",
". . . . . 1.2.3.4.5.6.7.8.9.0.a.b.. . . . . ",
". . . . .   c.d.e.f.g.h.i.j.k.l.m.. . . . . ",
". . . . . n.o.p.q.r.s.t.u.v.w.x.y.. . . . . ",
". . . . . + z.A.B.C.D.E.F.    + . . . . . . ",
". . . . . . +         + + . . . . . . . . . ",
". . . . . . . . . . . . . . . . . . . . . . "};
