/* XPM */
static char * BotonLlamarInterfono_xpm[] = {
"22 18 76 1",
" 	c None",
".	c #275674",
"+	c #8D8D8D",
"@	c #8C8C8C",
"#	c #898989",
"$	c #909090",
"%	c #3A6078",
"&	c #818181",
"*	c #949494",
"=	c #A5A5A5",
"-	c #ADADAD",
";	c #AFAFAF",
">	c #AEAEAE",
",	c #AAAAAA",
"'	c #969696",
")	c #A3A3A3",
"!	c #A6A6A6",
"~	c #A8A8A8",
"{	c #B3B3B3",
"]	c #919191",
"^	c #959595",
"/	c #9C9C9C",
"(	c #A1A1A1",
"_	c #B0B0B0",
":	c #ACACAC",
"<	c #CACACA",
"[	c #CECECE",
"}	c #CDCDCD",
"|	c #A9A9A9",
"1	c #B8B896",
"2	c #C0C0A6",
"3	c #B8B8B8",
"4	c #8F8F8F",
"5	c #B1B1B1",
"6	c #BFBF5A",
"7	c #FDFD01",
"8	c #F4F409",
"9	c #B7B77D",
"0	c #B7B7B7",
"a	c #F8F82F",
"b	c #FFFF00",
"c	c #C5C537",
"d	c #CCCC59",
"e	c #F7F707",
"f	c #C2C27E",
"g	c #CFCFCF",
"h	c #E5E5B3",
"i	c #D5D5AE",
"j	c #C6C6C6",
"k	c #E0E0E0",
"l	c #BDBDBD",
"m	c #B4B4B4",
"n	c #BBBBBB",
"o	c #D0D0D0",
"p	c #C5C5C5",
"q	c #DADADA",
"r	c #A0A0A0",
"s	c #838383",
"t	c #C4C4C4",
"u	c #D1D1D1",
"v	c #858585",
"w	c #8E8E8E",
"x	c #9B9B9B",
"y	c #BABABA",
"z	c #ABABAB",
"A	c #B6B6B6",
"B	c #D3D3D3",
"C	c #DBDBDB",
"D	c #737C82",
"E	c #DFDFDF",
"F	c #DEDEDE",
"G	c #D4D4D4",
"H	c #B5B5B5",
"I	c #436378",
"J	c #A2A2A2",
"K	c #647784",
"......................",
"..........+@#$........",
"......%&*=-;>,' ......",
"......#)>;>;=!~{......",
"......]]^/(_~:<[......",
"......]'^@}|12{3......",
"......]''456789!......",
"......]''40abbc!......",
"......]''40d7ef!......",
"......]^^4g3hi=j......",
"......]''4klmnop......",
"......]''4qg-rst......",
"......]''4uvwx3t......",
"......]''4[y||zj......",
"......$''4}AgBC[......",
"......D+^4CEFGH$......",
".......Iv#pHJv .......",
".........K  .........."};
