/* XPM */
static char * BotonOcultarListinInterfonosRollover_xpm[] = {
"10 40 330 2",
"  	c None",
". 	c #687A8A",
"+ 	c #FDC355",
"@ 	c #FEC957",
"# 	c #FEC958",
"$ 	c #FDC155",
"% 	c #677A8B",
"& 	c #F19437",
"* 	c #FE9A2E",
"= 	c #FF9A2E",
"- 	c #FD9A30",
"; 	c #EFA250",
"> 	c #EBA355",
", 	c #E38933",
"' 	c #EF8D2E",
") 	c #FE992D",
"! 	c #F89B38",
"~ 	c #D8A369",
"{ 	c #CC9B65",
"] 	c #DC832F",
"^ 	c #FE992E",
"/ 	c #F19E45",
"( 	c #C5A37B",
"_ 	c #C89864",
": 	c #DB832F",
"< 	c #EF8D2F",
"[ 	c #FE9A30",
"} 	c #E8A157",
"| 	c #BDAB91",
"1 	c #DB8330",
"2 	c #FE992F",
"3 	c #FA9B37",
"4 	c #DDA366",
"5 	c #BCB7A7",
"6 	c #C89965",
"7 	c #EF8C30",
"8 	c #FE9930",
"9 	c #F39E44",
"0 	c #D6AF82",
"a 	c #BEBBAC",
"b 	c #C99966",
"c 	c #DB8331",
"d 	c #EF8D31",
"e 	c #FE9A31",
"f 	c #FE9A32",
"g 	c #EAA155",
"h 	c #DEC8A8",
"i 	c #B8B5A5",
"j 	c #CA9B67",
"k 	c #EF8E32",
"l 	c #FE9B32",
"m 	c #FB9C37",
"n 	c #E0A465",
"o 	c #E7E0CA",
"p 	c #B7B4A3",
"q 	c #CB9C69",
"r 	c #DB8432",
"s 	c #EF8F33",
"t 	c #FE9D34",
"u 	c #F5A044",
"v 	c #DCB281",
"w 	c #ECE9D7",
"x 	c #BDBAA8",
"y 	c #CC9E6B",
"z 	c #DB8534",
"A 	c #EF9135",
"B 	c #FE9E35",
"C 	c #FE9F35",
"D 	c #FE9F36",
"E 	c #EDA453",
"F 	c #E6CEAF",
"G 	c #E7E4D0",
"H 	c #C5C2AF",
"I 	c #CEA06C",
"J 	c #DB8635",
"K 	c #EF9236",
"L 	c #FEA137",
"M 	c #FCA13B",
"N 	c #E3A865",
"O 	c #F3EAD8",
"P 	c #E6E2CB",
"Q 	c #CECAB6",
"R 	c #CFA26E",
"S 	c #DB8837",
"T 	c #EF9438",
"U 	c #FEA339",
"V 	c #FEA439",
"W 	c #F7A544",
"X 	c #DFB47F",
"Y 	c #FBFAEE",
"Z 	c #EAE5CE",
"` 	c #D5D1BD",
" .	c #D0A570",
"..	c #DB8A38",
"+.	c #EF953A",
"@.	c #FEA53A",
"#.	c #FEA53B",
"$.	c #EFA854",
"%.	c #E7CEAC",
"&.	c #FAF8E9",
"*.	c #F2EDD5",
"=.	c #DCD8C3",
"-.	c #D1A672",
";.	c #DB8B3A",
">.	c #EF973C",
",.	c #FFA63D",
"'.	c #FDA73F",
").	c #E5AB64",
"!.	c #F2E8D8",
"~.	c #FBF8E2",
"{.	c #F8F4DB",
"].	c #E2DEC8",
"^.	c #D2A873",
"/.	c #DB8C3B",
"(.	c #EF983D",
"_.	c #FFA83F",
":.	c #F9A947",
"<.	c #DFB37A",
"[.	c #FDFCF6",
"}.	c #FEFAE1",
"|.	c #FDF9DF",
"1.	c #E7E2CC",
"2.	c #D2A975",
"3.	c #DB8E3D",
"4.	c #EF9A3F",
"5.	c #FEAA41",
"6.	c #F1AC56",
"7.	c #E6CAA5",
"8.	c #FFFEF4",
"9.	c #FFFDE3",
"0.	c #FEFDE3",
"a.	c #EAE6D0",
"b.	c #D3AB77",
"c.	c #DB8F3E",
"d.	c #EF9C41",
"e.	c #FDAC45",
"f.	c #E8AF66",
"g.	c #F0E3D1",
"h.	c #FFFFEE",
"i.	c #FFFFE6",
"j.	c #FEFEE6",
"k.	c #EDE9D2",
"l.	c #D3AC78",
"m.	c #DB9140",
"n.	c #EF9E43",
"o.	c #FAAF4C",
"p.	c #E0B378",
"q.	c #FBF9F4",
"r.	c #FFFFEA",
"s.	c #FFFFE8",
"t.	c #FEFEE8",
"u.	c #EEEBD4",
"v.	c #D3AD79",
"w.	c #DB9241",
"x.	c #EFA045",
"y.	c #F3B056",
"z.	c #E4C69D",
"A.	c #FFFFF8",
"B.	c #FFFFE9",
"C.	c #FEFEE9",
"D.	c #EFEBD5",
"E.	c #D4AE7A",
"F.	c #DB9443",
"G.	c #EFA246",
"H.	c #F0B057",
"I.	c #E2C9A4",
"J.	c #FFFFEB",
"K.	c #EFECD5",
"L.	c #D4AF7B",
"M.	c #DB9645",
"N.	c #EFA548",
"O.	c #F6B250",
"P.	c #DBB47D",
"Q.	c #FDFCF8",
"R.	c #D4B07C",
"S.	c #DB9846",
"T.	c #EFA649",
"U.	c #FCB54D",
"V.	c #E1B16B",
"W.	c #F0E7D9",
"X.	c #FFFFE7",
"Y.	c #FEFEE7",
"Z.	c #D3B17C",
"`.	c #DB9947",
" +	c #EFA84B",
".+	c #FEB84E",
"++	c #EBB460",
"@+	c #E4D0B0",
"#+	c #FFFEE5",
"$+	c #FEFEE4",
"%+	c #ECE8D1",
"&+	c #D3B17D",
"*+	c #DB9A49",
"=+	c #EFA94D",
"-+	c #FEBA51",
";+	c #F4B757",
">+	c #DBBB88",
",+	c #FEFDF8",
"'+	c #FEFBE2",
")+	c #E8E4CE",
"!+	c #D2B27E",
"~+	c #DB9C4B",
"{+	c #EFAB4F",
"]+	c #FFBC52",
"^+	c #FBBB54",
"/+	c #DFB571",
"(+	c #F3EDE2",
"_+	c #FCF9E3",
":+	c #FAF5DC",
"<+	c #E4E0CA",
"[+	c #DB9D4C",
"}+	c #EFAC51",
"|+	c #FFBE55",
"1+	c #FDBE55",
"2+	c #E9B867",
"3+	c #E5D6BA",
"4+	c #FBF8E9",
"5+	c #F4EFD7",
"6+	c #DEDAC5",
"7+	c #D1B27E",
"8+	c #DB9F4E",
"9+	c #EFAE52",
"0+	c #FFC057",
"a+	c #FEC157",
"b+	c #F2BB5E",
"c+	c #DBC191",
"d+	c #FCFBF1",
"e+	c #EDE8D0",
"f+	c #D8D4BF",
"g+	c #D0B27E",
"h+	c #DBA04F",
"i+	c #EFB054",
"j+	c #FFC258",
"k+	c #F9C05A",
"l+	c #DDB979",
"m+	c #F5F1E4",
"n+	c #E8E3CD",
"o+	c #D0CCB9",
"p+	c #CFB27E",
"q+	c #DBA251",
"r+	c #EFB255",
"s+	c #FFC55B",
"t+	c #FDC45B",
"u+	c #E6BC6F",
"v+	c #E6DAC0",
"w+	c #E9E5D1",
"x+	c #C8C4B2",
"y+	c #CEB27E",
"z+	c #DBA352",
"A+	c #EFB357",
"B+	c #FFC65C",
"C+	c #FFC75D",
"D+	c #FEC65D",
"E+	c #F0C066",
"F+	c #DAC498",
"G+	c #EEEBDB",
"H+	c #C0BCAA",
"I+	c #CDB27E",
"J+	c #DBA553",
"K+	c #EFB559",
"L+	c #FFC85E",
"M+	c #FFC95F",
"N+	c #FEC95F",
"O+	c #F8C561",
"P+	c #D9BB7E",
"Q+	c #ECE8D6",
"R+	c #B9B6A5",
"S+	c #CCB27E",
"T+	c #DBA755",
"U+	c #EFB75A",
"V+	c #FFCB61",
"W+	c #FCC961",
"X+	c #E4C075",
"Y+	c #E0D6BA",
"Z+	c #B9B6A6",
"`+	c #CAB27E",
" @	c #DBA856",
".@	c #EFB85C",
"+@	c #FFCC62",
"@@	c #FFCC63",
"#@	c #FECC63",
"$@	c #EEC46D",
"%@	c #D4C39A",
"&@	c #C0BDAE",
"*@	c #C9B17E",
"=@	c #DBA958",
"-@	c #EFB95E",
";@	c #FFCE64",
">@	c #FFCE65",
",@	c #FECE65",
"'@	c #F6C968",
")@	c #D6BC84",
"!@	c #C1BDAE",
"~@	c #C8B17E",
"{@	c #DBAA5A",
"]@	c #EEBB5F",
"^@	c #FFCF66",
"/@	c #FFD066",
"(@	c #FCCE67",
"_@	c #E2C27C",
":@	c #BDB59F",
"<@	c #DBAC5B",
"[@	c #EEBD61",
"}@	c #FFD268",
"|@	c #FED268",
"1@	c #EBC874",
"2@	c #C1B38F",
"3@	c #C7B27F",
"4@	c #DBAD5C",
"5@	c #EEBE62",
"6@	c #FFD469",
"7@	c #FFD56A",
"8@	c #F4CE6E",
"9@	c #D0BB87",
"0@	c #C9B581",
"a@	c #DBAF5D",
"b@	c #E9BD66",
"c@	c #FED56B",
"d@	c #FFD66C",
"e@	c #FBD36C",
"f@	c #E1C47A",
"g@	c #DBBF7B",
"h@	c #D7AF61",
"i@	c #677A8D",
"j@	c #DEB76A",
"k@	c #E1B968",
"l@	c #E1B967",
"m@	c #E1B867",
"n@	c #DAB466",
"o@	c #D2AD65",
". + @ @ @ @ @ # $ % ",
"& * * * * = - ; > , ",
"' ) ) ) ) = ! ~ { ] ",
"' ^ ^ ^ ^ * / ( _ : ",
"< ^ ^ ^ ^ [ } | _ 1 ",
"< 2 2 2 2 3 4 5 6 1 ",
"7 8 8 8 [ 9 0 a b c ",
"d e e e f g h i j c ",
"k l l l m n o p q r ",
"s t t t u v w x y z ",
"A B C D E F G H I J ",
"K L L M N O P Q R S ",
"T U V W X Y Z `  ...",
"+.@.#.$.%.&.*.=.-.;.",
">.,.'.).!.~.{.].^./.",
"(._.:.<.[.}.|.1.2.3.",
"4.5.6.7.8.9.0.a.b.c.",
"d.e.f.g.h.i.j.k.l.m.",
"n.o.p.q.r.s.t.u.v.w.",
"x.y.z.A.B.r.C.D.E.F.",
"G.H.I.A.B.J.C.K.L.M.",
"N.O.P.Q.r.B.t.K.R.S.",
"T.U.V.W.h.X.Y.u.Z.`.",
" +.+++@+8.#+$+%+&+*+",
"=+-+;+>+,+'+}.)+!+~+",
"{+]+^+/+(+_+:+<+!+[+",
"}+|+1+2+3+4+5+6+7+8+",
"9+0+a+b+c+d+e+f+g+h+",
"i+j+j+k+l+m+n+o+p+q+",
"r+s+s+t+u+v+w+x+y+z+",
"A+B+C+D+E+F+G+H+I+J+",
"K+L+M+N+O+P+Q+R+S+T+",
"U+V+V+V+W+X+Y+Z+`+ @",
".@+@@@@@#@$@%@&@*@=@",
"-@;@>@>@,@'@)@!@~@{@",
"]@^@/@/@/@(@_@:@~@<@",
"[@}@}@}@}@|@1@2@3@4@",
"5@6@7@7@7@7@8@9@0@a@",
"b@c@d@d@d@d@e@f@g@h@",
"i@j@k@l@l@l@m@n@o@i@"};
