/* XPM */
static char * BotonListinInterfonosNormal_xpm[] = {
"30 30 339 2",
"  	c None",
". 	c #677A8D",
"+ 	c #E3E3E3",
"@ 	c #E9E9E9",
"# 	c #DADADA",
"$ 	c #D0D0D0",
"% 	c #F2F2F2",
"& 	c #FCFCFC",
"* 	c #FEFEFE",
"= 	c #FBFBFB",
"- 	c #EFEFEF",
"; 	c #C9C9C9",
"> 	c #B1B1B1",
", 	c #CFCFCF",
"' 	c #D6D6D6",
") 	c #DFDFDF",
"! 	c #E0E0E0",
"~ 	c #D1D1D1",
"{ 	c #C5C5C5",
"] 	c #AAAAAA",
"^ 	c #A9A9A9",
"/ 	c #AEAEAE",
"( 	c #B0B0B0",
"_ 	c #B4B4B4",
": 	c #B2B2B2",
"< 	c #AFAFAF",
"[ 	c #A2A2A2",
"} 	c #9E9E9E",
"| 	c #969696",
"1 	c #9B9B9B",
"2 	c #9D9D9D",
"3 	c #9C9C9C",
"4 	c #9A9A9A",
"5 	c #999999",
"6 	c #939393",
"7 	c #767676",
"8 	c #898989",
"9 	c #878787",
"0 	c #8D8D8D",
"a 	c #919191",
"b 	c #929292",
"c 	c #8F8F8F",
"d 	c #959595",
"e 	c #949494",
"f 	c #8C8C8C",
"g 	c #848484",
"h 	c #646464",
"i 	c #7F7F7F",
"j 	c #858585",
"k 	c #8A8A8A",
"l 	c #8B8B8B",
"m 	c #979797",
"n 	c #A3A3A3",
"o 	c #ABABAB",
"p 	c #ACACAC",
"q 	c #9F9F9F",
"r 	c #7D7D7D",
"s 	c #5B5B5B",
"t 	c #818181",
"u 	c #7B7B7B",
"v 	c #868686",
"w 	c #ADADAD",
"x 	c #A8A8A8",
"y 	c #A6A6A6",
"z 	c #BCBCBC",
"A 	c #8E8E8D",
"B 	c #808080",
"C 	c #797979",
"D 	c #585858",
"E 	c #787878",
"F 	c #828282",
"G 	c #DBDBDB",
"H 	c #838382",
"I 	c #757575",
"J 	c #555555",
"K 	c #7E7E7E",
"L 	c #909090",
"M 	c #BABABA",
"N 	c #B3B38D",
"O 	c #B8B889",
"P 	c #B7B7B2",
"Q 	c #BDBDBD",
"R 	c #8F8F8E",
"S 	c #7A7A7A",
"T 	c #737373",
"U 	c #535353",
"V 	c #7C7C7C",
"W 	c #B9B973",
"X 	c #EDED13",
"Y 	c #F4F40A",
"Z 	c #C7C755",
"` 	c #ACACA8",
" .	c #8D8D8C",
"..	c #7E7E7D",
"+.	c #777777",
"@.	c #707070",
"#.	c #525252",
"$.	c #A8A8A9",
"%.	c #A6A7A8",
"&.	c #A4A5A7",
"*.	c #A2A4A5",
"=.	c #A0A2A4",
"-.	c #9EA0A2",
";.	c #9D9EA1",
">.	c #959799",
",.	c #E7E74F",
"'.	c #FEFE00",
").	c #E5E518",
"!.	c #A0A092",
"~.	c #8C8C8B",
"{.	c #6E6E6E",
"].	c #4F4F4F",
"^.	c #6D6D6D",
"/.	c #727272",
"(.	c #818182",
"_.	c #E0E3E7",
":.	c #E9EBEE",
"<.	c #E8EAED",
"[.	c #E7E9EC",
"}.	c #E5E8EB",
"|.	c #E4E7EA",
"1.	c #E4E6E9",
"2.	c #CBCCCF",
"3.	c #C6C66F",
"4.	c #F5F508",
"5.	c #FCFC02",
"6.	c #D3D34B",
"7.	c #ABABA5",
"8.	c #8B8B8A",
"9.	c #6B6B6B",
"0.	c #4E4E4E",
"a.	c #747474",
"b.	c #7E7F7F",
"c.	c #EBEDF0",
"d.	c #FAFAFA",
"e.	c #F9F9F9",
"f.	c #F8F8F8",
"g.	c #C1C1C1",
"h.	c #B6B6B4",
"i.	c #DEDEA8",
"j.	c #E3E3A1",
"k.	c #AAAAA0",
"l.	c #C6C6C6",
"m.	c #6F6F6F",
"n.	c #686868",
"o.	c #4C4C4C",
"p.	c #717171",
"q.	c #7C7D7D",
"r.	c #EDEFF0",
"s.	c #E0E0E6",
"t.	c #CECCD6",
"u.	c #CCCBD5",
"v.	c #CCCBD4",
"w.	c #B9B9BF",
"x.	c #C2C2C2",
"y.	c #B7B7B7",
"z.	c #D3D3D3",
"A.	c #666666",
"B.	c #4A4A4A",
"C.	c #656565",
"D.	c #6A6A6A",
"E.	c #79797A",
"F.	c #EEEFF1",
"G.	c #F5F7F9",
"H.	c #C7E4EE",
"I.	c #F0F3F4",
"J.	c #F7F7F7",
"K.	c #D9D9D9",
"L.	c #CDCDCD",
"M.	c #D2D2D2",
"N.	c #BEBEBE",
"O.	c #898988",
"P.	c #696969",
"Q.	c #636363",
"R.	c #484848",
"S.	c #6C6C6C",
"T.	c #767677",
"U.	c #EBEDEF",
"V.	c #F9FAFA",
"W.	c #EBEFF2",
"X.	c #BED8E7",
"Y.	c #C2DAE5",
"Z.	c #F5F5F6",
"`.	c #D7D7D8",
" +	c #A4A4A4",
".+	c #C4C4C4",
"++	c #888888",
"@+	c #676767",
"#+	c #616161",
"$+	c #464646",
"%+	c #606060",
"&+	c #737374",
"*+	c #E6E8EB",
"=+	c #F4F6F8",
"-+	c #A1C2DA",
";+	c #88B3CF",
">+	c #DDE4E9",
",+	c #CFCED7",
"'+	c #CFCFD7",
")+	c #BCBBC1",
"!+	c #B8B8B8",
"~+	c #5E5E5E",
"{+	c #454545",
"]+	c #717273",
"^+	c #E5EAEF",
"/+	c #CEDDE6",
"(+	c #BBDCE8",
"_+	c #EEF1F2",
":+	c #F4F4F4",
"<+	c #D7D7D7",
"[+	c #C0C0C0",
"}+	c #C8C8C8",
"|+	c #D4D4D4",
"1+	c #626262",
"2+	c #5C5C5C",
"3+	c #434343",
"4+	c #6E6F70",
"5+	c #E6E8EC",
"6+	c #F6F7F8",
"7+	c #DAE4EC",
"8+	c #ADCDE0",
"9+	c #CADBE5",
"0+	c #ECECEE",
"a+	c #E0E0E2",
"b+	c #A4A4A5",
"c+	c #CACACA",
"d+	c #D8D8D8",
"e+	c #DEDEDE",
"f+	c #CBCBCB",
"g+	c #595959",
"h+	c #414141",
"i+	c #6C6D6E",
"j+	c #E5E8EC",
"k+	c #F4F6F7",
"l+	c #A6C4DA",
"m+	c #8EB4CE",
"n+	c #DDE5EA",
"o+	c #D2D2DA",
"p+	c #D4D3DA",
"q+	c #D3D1D9",
"r+	c #CDCDD3",
"s+	c #AFAFB1",
"t+	c #969697",
"u+	c #CCCCCC",
"v+	c #A4A5A6",
"w+	c #5D5D5D",
"x+	c #575757",
"y+	c #3F3F3F",
"z+	c #565656",
"A+	c #5F5F5F",
"B+	c #6A6A6B",
"C+	c #EDEFF1",
"D+	c #D6E2EA",
"E+	c #B8D8E6",
"F+	c #EFF1F2",
"G+	c #F3F4F4",
"H+	c #F3F3F3",
"I+	c #DCDCDC",
"J+	c #B5B5B5",
"K+	c #C4C6CA",
"L+	c #68696A",
"M+	c #5A5A5A",
"N+	c #545454",
"O+	c #3E3E3E",
"P+	c #686869",
"Q+	c #E4E7EB",
"R+	c #F4F5F6",
"S+	c #CCDCE7",
"T+	c #A4C6DC",
"U+	c #CDDAE4",
"V+	c #E3E2E6",
"W+	c #E2E1E5",
"X+	c #E1E0E4",
"Y+	c #E0DFE3",
"Z+	c #E0DFE2",
"`+	c #DFDEE2",
" @	c #DDDCE0",
".@	c #DDDCDF",
"+@	c #E9E8E9",
"@@	c #EEEEEE",
"#@	c #C7CACD",
"$@	c #666768",
"%@	c #3C3C3C",
"&@	c #515151",
"*@	c #646566",
"=@	c #E4E6EA",
"-@	c #AEC8DB",
";@	c #95B7CF",
">@	c #E9EAEC",
",@	c #DBDADF",
"'@	c #DAD9DF",
")@	c #D9D8DD",
"!@	c #D8D8DD",
"~@	c #D8D7DC",
"{@	c #D7D6DB",
"]@	c #E6E6E8",
"^@	c #EDEDED",
"/@	c #C7C9CD",
"(@	c #636465",
"_@	c #3A3A3A",
":@	c #616263",
"<@	c #E3E5E9",
"[@	c #F6F6F6",
"}@	c #F0F1F2",
"|@	c #ECEEEF",
"1@	c #F3F3F2",
"2@	c #F1F1F1",
"3@	c #F0F0F0",
"4@	c #F0EFEF",
"5@	c #606162",
"6@	c #4D4D4D",
"7@	c #383838",
"8@	c #5D5E5F",
"9@	c #BFC3CA",
"0@	c #C9CCD1",
"a@	c #C9CCD0",
"b@	c #C8CBD0",
"c@	c #C7CACF",
"d@	c #C7CACE",
"e@	c #C6C9CD",
"f@	c #C5C7CC",
"g@	c #C4C7CB",
"h@	c #C4C7CA",
"i@	c #ABB0B5",
"j@	c #5C5D5E",
"k@	c #64778A",
"l@	c #444444",
"m@	c #5B5B5C",
"n@	c #5B5C5C",
"o@	c #5B5C5D",
"p@	c #595A5B",
"q@	c #474747",
"r@	c #505050",
"s@	c #494949",
"t@	c #424242",
"u@	c #343434",
"v@	c #677A8B",
"w@	c #323232",
"x@	c #67788B",
". . . . + @ @ @ @ @ @ @ @ @ @ @ @ @ @ @ @ @ @ @ @ # . . . . ",
". . $ % & * * * * * * * * * * * * * * * * * * * * = - ; . . ",
". > , ' ) ! ! ! ! ! ! ! ! ! ! ! ! ! ! ! ! ! ! ! ! ) ~ { ] . ",
". ^ / ( _ : > > > > > > > > > > > > > > > > > > : _ < ] [ . ",
"} | 1 } 2 2 2 2 2 2 2 2 2 2 2 2 2 2 2 3 4 2 2 2 2 2 2 5 6 7 ",
"8 9 0 a b b b b b b b b b b b b c a b d a e a b b b b f g h ",
"g i j k l l l l l l l l l k 8 f m n o / / p q l 8 l k g r s ",
"t u t j v v v v v v v v v g 8 2 o / / w x y x z A v j B C D ",
"i E r F F F F F F F F F F F c b e 1 y ] w ( z G a H F r I J ",
"K I u i B B B B B B B B B B L d e c M w N O P Q R B B S T U ",
"V T E V r r r r r r r r r i L d d b w W X Y Z `  ...r +.@.#.",
"u @.I S u i $.%.&.*.=.-.;.>.L d d b < ,.'.'.).!.~.u S I {.].",
"C ^./.+.E (._.:.<.[.}.|.1.2.L | d 6 < 3.4.5.6.7.8.E E /.9.0.",
"+.9.@.a.I b.c.& = = d.e.f.# L d d b g.h.i.j.k.l.~.I I m.n.o.",
"7 n.^.p.T q.r.d.s.t.u.v.v.w.L d d b ~ x._ y.; z.8.T /.^.A.B.",
"a.C.D.{.{.E.F.d.d.G.H.I.J.K.L d d b L.M.N._ b z O.m.{.P.Q.R.",
"/.Q.n.S.S.T.U.V.W.X.Y.Z.Z.`.L d d b { } F j  +.+++S.S.@+#+$+",
"p.%+C.P.D.&+*+=+-+;+>+,+'+)+L d d b .+!+w p ] l.9 D.D.C.~+{+",
"@.~+Q.@+n.]+[.e.^+/+(+_+:+<+L d d b g.( [+}+|+G v n.@+1+2+3+",
"{.s %+h C.4+5+6+7+8+9+0+0+a+b+b d 6 c+d+e+G f+> 7 C.h %+g+h+",
"S.g+~+1+1+i+j+k+l+m+n+o+p+q+r+s+t+a l.u+[+v+C P.h 1+1+w+x+y+",
"9.z+s A+%+B+j+J.C+D+E+F+G+H+% - I+_ J+u+! K+L+%+%+%+A+M+N+O+",
"P.N+D 2+w+P+Q+R+S+T+U+V+W+X+Y+Z+`+ @.@+@@@#@$@w+w+w+2+D #.%@",
"@+&@z+g+M+*@=@R+-@;@>@,@'@)@!@~@{@{@{@]@^@/@(@M+M+M+g+J ]._@",
"A.0.U z+x+:@<@[@}@|@H+1@% 2@3@4@- @@@@@@@@/@5@x+x+x+z+#.6@7@",
"P.B.].U N+8@9@0@a@b@c@d@d@e@e@f@g@g@h@K+K+i@j@N+N+N+U 0.R.O+",
"k@l@B.].&@#.m@n@n@n@n@n@o@n@n@m@m@m@m@m@m@p@#.&@&@&@0.R.h+k@",
". _@q@6@].r@r@r@r@r@r@r@r@r@r@r@r@r@r@r@r@r@r@r@r@0.s@t@u@. ",
". v@_@R.0.].].].].].].].].].].].].].].].].].].].].6@t@w@x@. ",
". . . x@$+y+y+y+y+y+y+y+y+y+y+y+y+y+y+y+y+y+y+y+y+O+k@. . . "};
