/* XPM */
static char * BotonEstadoCentralitasSinComunicacionRollover_xpm[] = {
"30 30 501 2",
"  	c None",
". 	c #677A8D",
"+ 	c #677A8C",
"@ 	c #FAFA8D",
"# 	c #FBFB8A",
"$ 	c #F9F88D",
"% 	c #677A8A",
"& 	c #677A8B",
"* 	c #FBFA73",
"= 	c #FFFF84",
"- 	c #FFFF9A",
"; 	c #FFFF9E",
"> 	c #FFFF97",
", 	c #FFFF80",
"' 	c #F5F464",
") 	c #F4F263",
"! 	c #FEFE71",
"~ 	c #FFFF7A",
"{ 	c #FEFE7D",
"] 	c #FFFF7D",
"^ 	c #FEFE75",
"/ 	c #FFFF68",
"( 	c #E7E557",
"_ 	c #FDFC5C",
": 	c #FFFF61",
"< 	c #FFFF63",
"[ 	c #FEFE61",
"} 	c #FFFF5E",
"| 	c #F9F757",
"1 	c #D8D66B",
"2 	c #FEFD58",
"3 	c #FFFF5B",
"4 	c #FFFF5D",
"5 	c #FDFD5E",
"6 	c #F7F760",
"7 	c #E8E866",
"8 	c #D5D56B",
"9 	c #DCDC69",
"0 	c #F6F661",
"a 	c #FEFE5D",
"b 	c #FFFE59",
"c 	c #F9F554",
"d 	c #B7B558",
"e 	c #D3D05A",
"f 	c #FDFA56",
"g 	c #FEFE5B",
"h 	c #FEFE5E",
"i 	c #F6F660",
"j 	c #DEDE68",
"k 	c #C3C375",
"l 	c #B3B389",
"m 	c #A9A99C",
"n 	c #ABAB9F",
"o 	c #AAAA9E",
"p 	c #B4B489",
"q 	c #DBDB6B",
"r 	c #F9F960",
"s 	c #FEFD59",
"t 	c #F4F153",
"u 	c #B3B14F",
"v 	c #D3D05C",
"w 	c #FDFA58",
"x 	c #FFFF60",
"y 	c #F9F962",
"z 	c #B1B179",
"A 	c #9F9F95",
"B 	c #AAAAA9",
"C 	c #AEAEAE",
"D 	c #AFAFAF",
"E 	c #ABABAB",
"F 	c #A7A7A7",
"G 	c #AAAAA0",
"H 	c #CFCF75",
"I 	c #FEFD5B",
"J 	c #F4F055",
"K 	c #B4B151",
"L 	c #D3CF5D",
"M 	c #FDF95B",
"N 	c #FFFF5F",
"O 	c #FFFF62",
"P 	c #F6F664",
"Q 	c #A5A586",
"R 	c #939392",
"S 	c #9A9A9A",
"T 	c #A3A3A2",
"U 	c #A9A9A9",
"V 	c #A9A9AA",
"W 	c #B6B6B6",
"X 	c #D8D8D7",
"Y 	c #CFCF89",
"Z 	c #FEFC5D",
"` 	c #F4EF57",
" .	c #B4B052",
"..	c #D3CE5E",
"+.	c #FDF85D",
"@.	c #FFFF64",
"#.	c #FEFE65",
"$.	c #FFFF65",
"%.	c #F6F666",
"&.	c #A6A688",
"*.	c #969696",
"=.	c #939393",
"-.	c #B7B7B8",
";.	c #AFAFA3",
">.	c #B6B689",
",.	c #B8B8A8",
"'.	c #BEBEBF",
").	c #CCCC87",
"!.	c #FEFE64",
"~.	c #FEFB5F",
"{.	c #F4EF59",
"].	c #B3B053",
"^.	c #D3CE60",
"/.	c #FDF75F",
"(.	c #FFFE63",
"_.	c #FFFF67",
":.	c #F6F669",
"<.	c #959595",
"[.	c #979797",
"}.	c #AFAFA6",
"|.	c #D5D540",
"1.	c #F5F50A",
"2.	c #D9D936",
"3.	c #ADAD9E",
"4.	c #CACA86",
"5.	c #FEFB61",
"6.	c #F4EE5B",
"7.	c #B4AF55",
"8.	c #D3CD62",
"9.	c #FDF661",
"0.	c #FFFD65",
"a.	c #FFFF69",
"b.	c #FFFF6A",
"c.	c #F6F66B",
"d.	c #BABAA3",
"e.	c #F6F61F",
"f.	c #FEFE00",
"g.	c #F0F00D",
"h.	c #A7A783",
"i.	c #CACA87",
"j.	c #FEFA64",
"k.	c #F4ED5D",
"l.	c #B4AF56",
"m.	c #D2CC63",
"n.	c #FDF563",
"o.	c #FEFD67",
"p.	c #FFFF6B",
"q.	c #FEFE6C",
"r.	c #FFFF6C",
"s.	c #FDFD6C",
"t.	c #F2F26F",
"u.	c #DCDC71",
"v.	c #9C9C89",
"w.	c #B4B4B0",
"x.	c #CCCC64",
"y.	c #F8F82E",
"z.	c #D2D25C",
"A.	c #B4B4AE",
"B.	c #C9C989",
"C.	c #DFDF71",
"D.	c #E7E770",
"E.	c #FBFB6C",
"F.	c #FEFE6B",
"G.	c #FEF966",
"H.	c #F4EC5F",
"I.	c #B3AE57",
"J.	c #D2CB65",
"K.	c #FDF465",
"L.	c #FFFC6A",
"M.	c #FFFF6D",
"N.	c #FCFC6E",
"O.	c #EAEA6F",
"P.	c #CECE75",
"Q.	c #B9B985",
"R.	c #AAAA96",
"S.	c #ABAB9A",
"T.	c #A0A09C",
"U.	c #949494",
"V.	c #929292",
"W.	c #999999",
"X.	c #CCCCCC",
"Y.	c #BCBCBA",
"Z.	c #C1C1B6",
"`.	c #B8B8B5",
" +	c #ACAC99",
".+	c #AAAA99",
"++	c #BABA85",
"@+	c #E9E973",
"#+	c #FEFE6E",
"$+	c #FEF868",
"%+	c #F4EB61",
"&+	c #B4AD58",
"*+	c #D2CA66",
"=+	c #FDF367",
"-+	c #FFFB6C",
";+	c #FCFC70",
">+	c #BABA7D",
",+	c #A2A294",
"'+	c #AAAAA7",
")+	c #AEAEAD",
"!+	c #A6A6A6",
"~+	c #D7D7D7",
"{+	c #C6C6C6",
"]+	c #B4B4B4",
"^+	c #BEBEBE",
"/+	c #A8A8A8",
"(+	c #A7A7A6",
"_+	c #A3A395",
":+	c #D2D278",
"<+	c #FEFE6F",
"[+	c #FEF76A",
"}+	c #F4EA63",
"|+	c #B4AD5A",
"1+	c #D2CA68",
"2+	c #FDF26A",
"3+	c #FFFA6E",
"4+	c #FAFA73",
"5+	c #A4A48A",
"6+	c #929291",
"7+	c #9D9D9D",
"8+	c #B5B5B5",
"9+	c #D6D6D6",
"0+	c #A4A4A3",
"a+	c #C4C4C4",
"b+	c #828282",
"c+	c #8F8F8F",
"d+	c #A5A5A5",
"e+	c #B7B7B6",
"f+	c #DCDCDC",
"g+	c #CCCC8B",
"h+	c #FEFE72",
"i+	c #FEF66C",
"j+	c #F4E965",
"k+	c #B4AC5B",
"l+	c #D2C96A",
"m+	c #FDF16D",
"n+	c #FEF971",
"o+	c #FAFA76",
"p+	c #A5A58B",
"q+	c #909090",
"r+	c #BBBBBB",
"s+	c #B1B1AF",
"t+	c #AFAF9F",
"u+	c #B6B6B3",
"v+	c #BDBDBD",
"w+	c #A2A2A1",
"x+	c #C4C4C3",
"y+	c #ADADAD",
"z+	c #ACACAC",
"A+	c #BFBFBF",
"B+	c #9E9E9D",
"C+	c #AEAE9F",
"D+	c #B7B7B4",
"E+	c #C2C2C2",
"F+	c #CBCB8B",
"G+	c #FEFD75",
"H+	c #FEF56F",
"I+	c #F4E868",
"J+	c #B3AC5D",
"K+	c #D2C86B",
"L+	c #FDF06F",
"M+	c #FFF873",
"N+	c #FAF978",
"O+	c #A5A58C",
"P+	c #ABABA7",
"Q+	c #C6C64F",
"R+	c #D1D141",
"S+	c #ACACA4",
"T+	c #9F9F9E",
"U+	c #BABABA",
"V+	c #CBCBCB",
"W+	c #D5D5D5",
"X+	c #DADADA",
"Y+	c #A0A0A0",
"Z+	c #AAAAA6",
"`+	c #CACA4A",
" @	c #CFCF46",
".@	c #AFAFA9",
"+@	c #C8C88A",
"@@	c #FEFD77",
"#@	c #FEF471",
"$@	c #F4E76A",
"%@	c #B4AB5E",
"&@	c #D2C76D",
"*@	c #FDEF71",
"=@	c #FEF775",
"-@	c #FAF97A",
";@	c #BABAA5",
">@	c #F7F71F",
",@	c #F1F10A",
"'@	c #A4A47B",
")@	c #9F9F9F",
"!@	c #DDDDDD",
"~@	c #A2A2A2",
"{@	c #949493",
"]@	c #BCBCA3",
"^@	c #F7F71B",
"/@	c #F2F20B",
"(@	c #A4A486",
"_@	c #C8C88C",
":@	c #FEFC79",
"<@	c #FEF274",
"[@	c #F4E66C",
"}@	c #B3AA5F",
"|@	c #D2C66E",
"1@	c #FDEE73",
"2@	c #FFF678",
"3@	c #FAF87C",
"4@	c #A6A58D",
"5@	c #D2D253",
"6@	c #FAFA1A",
"7@	c #DBDB44",
"8@	c #AEAEA3",
"9@	c #9C9C99",
"0@	c #BEBEAD",
"a@	c #C2C1A2",
"b@	c #9B9B92",
"c@	c #D4D44E",
"d@	c #FBFB1A",
"e@	c #D9D949",
"f@	c #B1B1A9",
"g@	c #C9C88C",
"h@	c #FEFB7C",
"i@	c #FEF176",
"j@	c #F4E56E",
"k@	c #B4AA60",
"l@	c #D2C670",
"m@	c #FDED75",
"n@	c #FFF57A",
"o@	c #FAF77E",
"p@	c #A5A58D",
"q@	c #CACACA",
"r@	c #BEBEB9",
"s@	c #CDCDB3",
"t@	c #B8B8B0",
"u@	c #C7C7C8",
"v@	c #C0BF97",
"w@	c #EEEC7E",
"x@	c #F3F17F",
"y@	c #A1A18B",
"z@	c #C9C9C9",
"A@	c #BFBFBA",
"B@	c #B6B6AF",
"C@	c #CBCA90",
"D@	c #FEFA7E",
"E@	c #FEF078",
"F@	c #F4E371",
"G@	c #B4A962",
"H@	c #D2C572",
"I@	c #FDEB77",
"J@	c #FEF47C",
"K@	c #FAF680",
"L@	c #A5A48D",
"M@	c #D8D8D8",
"N@	c #C1C1C1",
"O@	c #CDCB98",
"P@	c #FEFB81",
"Q@	c #F6F381",
"R@	c #A1A18C",
"S@	c #D9D9D9",
"T@	c #C5C5C5",
"U@	c #CBC991",
"V@	c #FEF980",
"W@	c #FEEF7A",
"X@	c #F4E273",
"Y@	c #B3A863",
"Z@	c #D2C473",
"`@	c #FDEB79",
" #	c #FFF37E",
".#	c #FAF583",
"+#	c #A6A58E",
"@#	c #8C8C8C",
"##	c #B2B2B2",
"$#	c #CDCB9A",
"%#	c #FFFA83",
"&#	c #F6F283",
"*#	c #A2A18C",
"=#	c #C8C8C8",
"-#	c #A1A1A1",
";#	c #B7B7B7",
">#	c #CBC993",
",#	c #FEF882",
"'#	c #FEEE7C",
")#	c #F4E275",
"!#	c #B4A864",
"~#	c #D2C475",
"{#	c #FDEA7B",
"]#	c #FFF381",
"^#	c #FAF485",
"/#	c #A5A48E",
"(#	c #FFF986",
"_#	c #F6F185",
":#	c #A2A18D",
"<#	c #C3C3C3",
"[#	c #CBC893",
"}#	c #FEF785",
"|#	c #FEEE7E",
"1#	c #F4E177",
"2#	c #B4A766",
"3#	c #D2C376",
"4#	c #FDE97D",
"5#	c #FEF183",
"6#	c #FAF387",
"7#	c #CDCDCD",
"8#	c #CDCB9B",
"9#	c #FEF888",
"0#	c #F6F187",
"a#	c #CFCFCF",
"b#	c #DBDBDB",
"c#	c #CAC794",
"d#	c #FEF687",
"e#	c #FEED80",
"f#	c #F4E079",
"g#	c #B3A767",
"h#	c #D2C277",
"i#	c #FDE87F",
"j#	c #FFF085",
"k#	c #FDF58A",
"l#	c #D1CC89",
"m#	c #9A998D",
"n#	c #CBCBC8",
"o#	c #BDBCAF",
"p#	c #D4CF8E",
"q#	c #FFF78A",
"r#	c #CEC989",
"s#	c #99988D",
"t#	c #CACAC8",
"u#	c #BCBBAE",
"v#	c #D6D18B",
"w#	c #FEF689",
"x#	c #FEEC83",
"y#	c #F4DF7B",
"z#	c #B7A96C",
"A#	c #CEBF7D",
"B#	c #F8E17E",
"C#	c #FEEB85",
"D#	c #FFF48B",
"E#	c #FDF58D",
"F#	c #E1DA89",
"G#	c #AEAB88",
"H#	c #95948E",
"I#	c #C2C1BA",
"J#	c #C4C2B1",
"K#	c #C7C39A",
"L#	c #D1CC8B",
"M#	c #EAE38B",
"N#	c #FCF38C",
"O#	c #FFF68D",
"P#	c #FDF58C",
"Q#	c #DFD989",
"R#	c #ACAA89",
"S#	c #C3C3BB",
"T#	c #C4C3B0",
"U#	c #C6C39A",
"V#	c #D3CD8B",
"W#	c #EBE48B",
"X#	c #FCF48C",
"Y#	c #FFF38B",
"Z#	c #FCE783",
"`#	c #EDD879",
" $	c #ADA26F",
".$	c #E4CE76",
"+$	c #F8E182",
"@$	c #FEEC89",
"#$	c #FEF28E",
"$$	c #FEF38E",
"%$	c #F9EE8E",
"&$	c #DDD48A",
"*$	c #E3DA8C",
"=$	c #F5EB8F",
"-$	c #FCF18F",
";$	c #FFF48E",
">$	c #F8EE8E",
",$	c #DBD38A",
"'$	c #E5DC8D",
")$	c #F6EB8F",
"!$	c #FEF28D",
"~$	c #FDE987",
"{$	c #F3DB7F",
"]$	c #DAC571",
"^$	c #C5B36E",
"/$	c #EAD37E",
"($	c #F8E188",
"_$	c #FDE78C",
":$	c #FDE88D",
"<$	c #FBE48A",
"[$	c #F0D982",
"}$	c #E0CA77",
"|$	c #AB9B5F",
"1$	c #BEAD70",
"2$	c #DDC87E",
"3$	c #EDD788",
"4$	c #F0DA8A",
"5$	c #F1DA8A",
"6$	c #EBD485",
"7$	c #D3BE75",
"8$	c #A99860",
"9$	c #B7A87B",
"0$	c #B9A975",
"a$	c #B9A875",
"b$	c #B1A375",
". + . . @ # # # # # # # # # # # # # # # # # # # # $ % & + . ",
"+ . * = - ; ; ; ; ; ; ; ; ; ; ; ; ; ; ; ; ; ; ; ; > , ' . + ",
". ) ! ~ { { ] { { ] { { ] { { ] { { ] { { ] { { ] { ^ / ( . ",
". _ : < < : : : : : : : : : : [ [ : : : : : : : : < < } | % ",
"1 2 3 4 4 4 4 4 4 4 4 4 5 6 7 8 9 0 a 4 4 4 4 4 4 4 4 b c d ",
"e f g } h h } h h h i j k l m n o p q r h } h h } h h s t u ",
"v w 4 x x x x x x y z A B C D C E F G H x x x x x x x I J K ",
"L M N O < < < < < P Q R S T U U V W X Y < < < < < < O Z `  .",
"..+.[ @.#.#.$.#.#.%.&.*.=.=.-.;.>.,.'.).#.$.#.#.$.#.!.~.{.].",
"^./.(._._._._._._.:.&.*.<.[.}.|.1.2.3.4._._._._._._._.5.6.7.",
"8.9.0.a.b.b.b.b.b.c.&.*.<.*.d.e.f.g.h.i.b.b.b.b.b.b.a.j.k.l.",
"m.n.o.p.q.q.r.s.t.u.v.*.<.[.w.x.y.z.A.B.t.C.D.E.r.q.F.G.H.I.",
"J.K.L.M.N.O.P.Q.R.S.T.U.V.W.X.Y.Z.`.X. +R.S..+++@+#+M.$+%+&+",
"*+=+-+;+>+,+'+)+D D D !+[.U.~+X.{+]+^+/+D D D (+_+:+<+[+}+|+",
"1+2+3+4+5+6+7+U F !+F 8+9+0+a+U.b+c+8+d+/+!+!+e+f+g+h+i+j+k+",
"l+m+n+o+p+*.=.q+r+s+t+u+v+w+x+y+z+z+A+B+r+s+C+D+E+F+G+H+I+J+",
"K+L+M+N+O+*.<.*.P+Q+g.R+S+T+E+U+V+W+X+Y+Z+`+g. @.@+@@@#@$@%@",
"&@*@=@-@O+*.<.<.;@>@f.,@'@)@9+!@W+^+~@{@]@^@f./@(@_@:@<@[@}@",
"|@1@2@3@4@*.<.*.A.5@6@7@8@9@0@a@b@c+=.[.A.c@d@e@f@g@h@i@j@k@",
"l@m@n@o@p@*.<.[.q@r@s@t@u@v@w@x@y@*.<.W.z@A@s@B@X.C@D@E@F@G@",
"H@I@J@K@L@*.<.[.M@{+N@r+{+O@P@Q@R@<.<.W.S@T@N@r+z@U@V@W@X@Y@",
"Z@`@ #.#+#*.<.[.z@~@@#@###$#%#&#*#*.<.W.=#-#@#@#;#>#,#'#)#!#",
"~#{#]#^#/#*.<.[.a+d+U z+N@$#(#_#:#*.<.W.<#d+/+z+a+[#}#|#1#2#",
"3#4#5#6#L@*.<.[.E+8+E+7#S@8#9#0#:#*.<.W.N@W E+a#b#c#d#e#f#g#",
"h#i#j#k#l#m#<.[.W+!@X+n#o#p#q#k#r#s#<.W.9+!@X+t#u#v#w#x#y#z#",
"A#B#C#D#E#F#G#H#I#J#K#L#M#N#O#O#P#Q#R#H#S#T#U#V#W#X#Y#Z#`# $",
". .$+$@$#$$$%$&$*$=$-$$$;$$$$$;$$$$$>$,$'$)$-$$$;$!$~${$]$% ",
". ^$/$($_$:$:$:$:$:$:$:$:$:$:$:$:$:$:$:$:$:$:$:$:$<$[$}$|$. ",
". . 1$2$3$4$5$4$4$5$4$4$5$4$4$5$4$4$5$4$4$5$4$4$4$6$7$8$. . ",
". . . . 9$0$0$0$0$0$0$0$0$0$0$0$0$0$0$0$a$0$a$a$a$b$% . . . "};
