/* XPM */
static char * BotonEstadoCentralitasSinComunicacion_xpm[] = {
"30 30 515 2",
"  	c None",
". 	c #677A8D",
"+ 	c #677A8C",
"@ 	c #FAFA8D",
"# 	c #FBFB8A",
"$ 	c #F9F88D",
"% 	c #677A8B",
"& 	c #FBFA73",
"* 	c #FFFF84",
"= 	c #FFFF9A",
"- 	c #FFFF9F",
"; 	c #FFFF97",
"> 	c #FFFF80",
", 	c #F5F464",
"' 	c #F4F263",
") 	c #FEFE71",
"! 	c #FFFF7A",
"~ 	c #FEFE7D",
"{ 	c #FFFF7D",
"] 	c #FFFF7E",
"^ 	c #FEFE75",
"/ 	c #FFFF68",
"( 	c #E7E457",
"_ 	c #FDFC5C",
": 	c #FFFF61",
"< 	c #FFFF63",
"[ 	c #FEFE61",
"} 	c #FFFF5E",
"| 	c #F9F757",
"1 	c #D8D66B",
"2 	c #FEFD58",
"3 	c #FFFF5B",
"4 	c #FFFF5D",
"5 	c #FDFD5E",
"6 	c #F7F760",
"7 	c #E8E866",
"8 	c #D5D56B",
"9 	c #DCDC69",
"0 	c #F6F661",
"a 	c #FEFE5D",
"b 	c #FFFE59",
"c 	c #F9F554",
"d 	c #B7B558",
"e 	c #D3D05A",
"f 	c #FDFA56",
"g 	c #FEFE5A",
"h 	c #FEFE5E",
"i 	c #F6F660",
"j 	c #DEDE68",
"k 	c #C3C375",
"l 	c #B3B389",
"m 	c #A9A99C",
"n 	c #ABAB9F",
"o 	c #AAAA9E",
"p 	c #B4B489",
"q 	c #DBDB6B",
"r 	c #F9F95F",
"s 	c #FEFD59",
"t 	c #F4F153",
"u 	c #B3B14F",
"v 	c #D3D059",
"w 	c #FDF955",
"x 	c #FFFE5A",
"y 	c #B1B178",
"z 	c #9F9F95",
"A 	c #AAAAA9",
"B 	c #AEAEAE",
"C 	c #AFAFAF",
"D 	c #ABABAB",
"E 	c #A7A7A7",
"F 	c #AAAAA0",
"G 	c #CFCF74",
"H 	c #FEFC57",
"I 	c #F4EF52",
"J 	c #B4B04F",
"K 	c #D3CE57",
"L 	c #FDF752",
"M 	c #FFFE56",
"N 	c #FFFF5A",
"O 	c #F6F65D",
"P 	c #A5A585",
"Q 	c #939392",
"R 	c #9A9A9A",
"S 	c #A3A3A2",
"T 	c #A9A9A9",
"U 	c #A9A9AA",
"V 	c #B6B6B6",
"W 	c #D8D8D7",
"X 	c #CFCF85",
"Y 	c #FEFB55",
"Z 	c #F4ED4F",
"` 	c #B4AF4D",
" .	c #D3CC55",
"..	c #FDF54F",
"+.	c #FEFD53",
"@.	c #FFFF56",
"#.	c #FEFE56",
"$.	c #F6F659",
"%.	c #A6A685",
"&.	c #969696",
"*.	c #939393",
"=.	c #B7B7B8",
"-.	c #AFAFA3",
";.	c #B6B689",
">.	c #B8B8A8",
",.	c #BEBEBF",
"'.	c #CCCC80",
").	c #FEF951",
"!.	c #F4EB4C",
"~.	c #B3AE4B",
"{.	c #D3CA52",
"].	c #FDF34B",
"^.	c #FFFA4F",
"/.	c #FFFF52",
"(.	c #F6F655",
"_.	c #A6A684",
":.	c #959595",
"<.	c #979797",
"[.	c #AFAFA6",
"}.	c #D5D540",
"|.	c #F5F50A",
"1.	c #D9D936",
"2.	c #ADAD9E",
"3.	c #CACA7D",
"4.	c #FFFE52",
"5.	c #FEF64E",
"6.	c #F4E948",
"7.	c #B4AD49",
"8.	c #D3C84F",
"9.	c #FDF047",
"0.	c #FFF84B",
"a.	c #FFFE4F",
"b.	c #F6F652",
"c.	c #A6A683",
"d.	c #BABAA3",
"e.	c #F6F61F",
"f.	c #FEFE00",
"g.	c #F0F00D",
"h.	c #A7A783",
"i.	c #CAC97B",
"j.	c #FFFD4E",
"k.	c #FEF44A",
"l.	c #F4E645",
"m.	c #B4AB46",
"n.	c #D2C64C",
"o.	c #FDED43",
"p.	c #FEF547",
"q.	c #FFFB4B",
"r.	c #FEFC4B",
"s.	c #FFFC4B",
"t.	c #FDFA4C",
"u.	c #F2F052",
"v.	c #DCDA5A",
"w.	c #9C9C84",
"x.	c #B4B4B0",
"y.	c #CCCC64",
"z.	c #F8F82E",
"A.	c #D2D25C",
"B.	c #B4B4AE",
"C.	c #C9C87B",
"D.	c #DFDD58",
"E.	c #E7E556",
"F.	c #FBF94D",
"G.	c #FEFB4A",
"H.	c #FEF046",
"I.	c #F4E441",
"J.	c #B3A944",
"K.	c #D2C44A",
"L.	c #FDEA40",
"M.	c #FFF344",
"N.	c #FFF947",
"O.	c #FCF748",
"P.	c #EAE64E",
"Q.	c #CECB5E",
"R.	c #B9B878",
"S.	c #AAAA91",
"T.	c #ABAA96",
"U.	c #A0A09B",
"V.	c #949494",
"W.	c #929292",
"X.	c #999999",
"Y.	c #CCCCCC",
"Z.	c #BCBCBA",
"`.	c #C1C1B6",
" +	c #B8B8B5",
".+	c #ACAB94",
"++	c #ABAB95",
"@+	c #AAAA94",
"#+	c #BAB877",
"$+	c #E9E553",
"%+	c #FEF948",
"&+	c #FFF847",
"*+	c #FEEE42",
"=+	c #F4E13D",
"-+	c #B4A842",
";+	c #D2C347",
">+	c #FDE83C",
",+	c #FFF03F",
"'+	c #FCF444",
")+	c #BAB76A",
"!+	c #A2A190",
"~+	c #AAAAA6",
"{+	c #AEAEAD",
"]+	c #A6A6A6",
"^+	c #D7D7D7",
"/+	c #C6C6C6",
"(+	c #B4B4B4",
"_+	c #BEBEBE",
":+	c #A8A8A8",
"<+	c #A7A7A6",
"[+	c #A3A391",
"}+	c #D2CD5D",
"|+	c #FEF643",
"1+	c #FEEC3E",
"2+	c #F4DF3A",
"3+	c #B4A640",
"4+	c #D2C145",
"5+	c #FDE639",
"6+	c #FFEE3C",
"7+	c #FAF041",
"8+	c #A4A280",
"9+	c #929291",
"0+	c #9D9D9D",
"a+	c #B5B5B5",
"b+	c #D6D6D6",
"c+	c #A4A4A3",
"d+	c #C4C4C4",
"e+	c #828282",
"f+	c #8F8F8F",
"g+	c #A5A5A5",
"h+	c #B7B7B6",
"i+	c #DCDCDC",
"j+	c #CCC773",
"k+	c #FEF33F",
"l+	c #FEEA3B",
"m+	c #F4DD36",
"n+	c #B4A53E",
"o+	c #D2BF41",
"p+	c #FDE335",
"q+	c #FEEA38",
"r+	c #FAED3D",
"s+	c #A5A380",
"t+	c #909090",
"u+	c #BBBBBB",
"v+	c #B1B1AF",
"w+	c #AFAF9F",
"x+	c #B6B6B3",
"y+	c #BDBDBD",
"z+	c #A2A2A1",
"A+	c #C4C4C3",
"B+	c #ADADAD",
"C+	c #ACACAC",
"D+	c #BFBFBF",
"E+	c #9E9E9D",
"F+	c #AEAE9F",
"G+	c #B7B7B4",
"H+	c #C2C2C2",
"I+	c #CBC570",
"J+	c #FEF03B",
"K+	c #FEE737",
"L+	c #F4DA33",
"M+	c #B3A33B",
"N+	c #D2BD40",
"O+	c #FDE131",
"P+	c #FFE835",
"Q+	c #FAEB3A",
"R+	c #A5A37F",
"S+	c #ABABA7",
"T+	c #C6C64F",
"U+	c #D1D141",
"V+	c #ACACA4",
"W+	c #9F9F9E",
"X+	c #BABABA",
"Y+	c #CBCBCB",
"Z+	c #D5D5D5",
"`+	c #DADADA",
" @	c #A0A0A0",
".@	c #CACA4A",
"+@	c #CFCF46",
"@@	c #AFAFA9",
"#@	c #C8C26D",
"$@	c #FEEE38",
"%@	c #FEE534",
"&@	c #F4D830",
"*@	c #B4A239",
"=@	c #D2BB3D",
"-@	c #FDDF2E",
";@	c #FEE631",
">@	c #FAE936",
",@	c #A5A27F",
"'@	c #BABAA5",
")@	c #F7F71F",
"!@	c #F1F10A",
"~@	c #A4A47B",
"{@	c #9F9F9F",
"]@	c #DDDDDD",
"^@	c #A2A2A2",
"/@	c #949493",
"(@	c #BCBCA3",
"_@	c #F7F71B",
":@	c #F2F20B",
"<@	c #A4A486",
"[@	c #C8C16B",
"}@	c #FEEC34",
"|@	c #FEE230",
"1@	c #F4D62C",
"2@	c #B3A137",
"3@	c #D2BA3B",
"4@	c #FDDC2A",
"5@	c #FFE42D",
"6@	c #FAE633",
"7@	c #A6A27E",
"8@	c #D2D253",
"9@	c #FAFA1A",
"0@	c #DBDB44",
"a@	c #AEAEA3",
"b@	c #9C9B97",
"c@	c #BEBCA3",
"d@	c #C2BD8E",
"e@	c #9B9A8D",
"f@	c #D4D44E",
"g@	c #FBFB1A",
"h@	c #D9D949",
"i@	c #B1B1A9",
"j@	c #C9C06A",
"k@	c #FEE930",
"l@	c #FEE02D",
"m@	c #F4D429",
"n@	c #B49F35",
"o@	c #D2B837",
"p@	c #FDD926",
"q@	c #FFE129",
"r@	c #FAE32F",
"s@	c #A5A17D",
"t@	c #CACACA",
"u@	c #BEBEB9",
"v@	c #CDCDB3",
"w@	c #B8B8B0",
"x@	c #C7C7C8",
"y@	c #C0B87C",
"z@	c #EEDA37",
"A@	c #F3DF35",
"B@	c #A19E7D",
"C@	c #C9C9C9",
"D@	c #BFBFBA",
"E@	c #B6B6AF",
"F@	c #CBC16A",
"G@	c #FEE62C",
"H@	c #FEDD28",
"I@	c #F4D125",
"J@	c #B49D33",
"K@	c #D2B635",
"L@	c #FDD722",
"M@	c #FEDE26",
"N@	c #FAE12B",
"O@	c #A5A07C",
"P@	c #C1C1C1",
"Q@	c #CDC273",
"R@	c #FEE529",
"S@	c #F6DE2E",
"T@	c #A19D7C",
"U@	c #D9D9D8",
"V@	c #C5C5C5",
"W@	c #C9C9C8",
"X@	c #CBBF69",
"Y@	c #FEE328",
"Z@	c #FEDA25",
"`@	c #F4CE21",
" #	c #B39C31",
".#	c #D2B432",
"+#	c #FDD41F",
"@#	c #FFDB22",
"##	c #FADE27",
"$#	c #A6A07C",
"%#	c #8C8C8C",
"&#	c #B2B2B2",
"*#	c #CDC272",
"=#	c #FFE224",
"-#	c #F6DC2A",
";#	c #A29D7C",
">#	c #C8C8C8",
",#	c #A1A1A0",
"'#	c #B7B7B7",
")#	c #CBBE67",
"!#	c #FEE124",
"~#	c #FED821",
"{#	c #F4CC1E",
"]#	c #B49A2F",
"^#	c #D2B230",
"/#	c #FDD21B",
"(#	c #FFD91E",
"_#	c #FADC24",
":#	c #A5A07B",
"<#	c #979796",
"[#	c #A9A9A8",
"}#	c #CDC070",
"|#	c #FFE021",
"1#	c #F6D926",
"2#	c #A29C7B",
"3#	c #969695",
"4#	c #C3C3C3",
"5#	c #CBBD65",
"6#	c #FEDE20",
"7#	c #FED51D",
"8#	c #F4CA1A",
"9#	c #B4992C",
"0#	c #D2B02D",
"a#	c #FDD017",
"b#	c #FED71A",
"c#	c #FADA20",
"d#	c #A59F78",
"e#	c #CDCDCD",
"f#	c #D9D9D9",
"g#	c #CDBF6F",
"h#	c #FEDD1D",
"i#	c #F6D723",
"j#	c #A29C79",
"k#	c #B6B6B5",
"l#	c #C2C2C1",
"m#	c #CFCFCE",
"n#	c #DBDBDB",
"o#	c #CABB63",
"p#	c #FEDC1D",
"q#	c #FED31A",
"r#	c #F4C816",
"s#	c #B3982A",
"t#	c #D2AE2A",
"u#	c #FDCC14",
"v#	c #FFD417",
"w#	c #FDD91A",
"x#	c #D1BA42",
"y#	c #9A967F",
"z#	c #CBCAC6",
"A#	c #BDB8A0",
"B#	c #D4BE49",
"C#	c #FFDB19",
"D#	c #FDDA1B",
"E#	c #CEB845",
"F#	c #999580",
"G#	c #CACAC5",
"H#	c #BCB89F",
"I#	c #D6BF42",
"J#	c #FED919",
"K#	c #FED016",
"L#	c #F4C513",
"M#	c #B7992C",
"N#	c #CEAC32",
"O#	c #F8C510",
"P#	c #FECE13",
"Q#	c #FFD615",
"R#	c #FDD717",
"S#	c #E1C32C",
"T#	c #AEA161",
"U#	c #959286",
"V#	c #C2BFB2",
"W#	c #C4BD9C",
"X#	c #C7B76B",
"Y#	c #D1B941",
"Z#	c #EACA26",
"`#	c #FCD618",
" $	c #FFD815",
".$	c #DFC22F",
"+$	c #ACA063",
"@$	c #959387",
"#$	c #C3C0B2",
"$$	c #C4BD9A",
"%$	c #C6B76A",
"&$	c #D3BA40",
"*$	c #EBCB25",
"=$	c #FCD617",
"-$	c #FFD515",
";$	c #FCCB12",
">$	c #EDBD0F",
",$	c #AD9337",
"'$	c #E4B30C",
")$	c #F8C40F",
"!$	c #FECE12",
"~$	c #FED413",
"{$	c #FED513",
"]$	c #F9D118",
"^$	c #DDBE2F",
"/$	c #E3C22D",
"($	c #F5CF1E",
"_$	c #FCD416",
":$	c #FFD513",
"<$	c #F8D118",
"[$	c #DBBD30",
"}$	c #E5C42B",
"|$	c #F6D01E",
"1$	c #FED412",
"2$	c #FDCB11",
"3$	c #F3BF0E",
"4$	c #DAAC0B",
"5$	c #677A8A",
"6$	c #C59C13",
"7$	c #EAB70E",
"8$	c #F8C313",
"9$	c #FDC915",
"0$	c #FDCB15",
"a$	c #FBC713",
"b$	c #F0BD0F",
"c$	c #E0AF0B",
"d$	c #AB8711",
"e$	c #BF9718",
"f$	c #DDAD13",
"g$	c #EDBB18",
"h$	c #F0BD18",
"i$	c #F1BD18",
"j$	c #EBB815",
"k$	c #D3A40E",
"l$	c #A98411",
"m$	c #B79736",
"n$	c #B99525",
"o$	c #B99526",
"p$	c #B19130",
". + . . @ # # # # # # # # # # # # # # # # # # # # $ % + + . ",
"+ . & * = - - - - - - - - - - - - - - - - - - - - ; > , . + ",
". ' ) ! ~ ~ { ~ ~ { ~ ~ { ~ ~ { ~ ~ { ~ ~ { ~ ~ ] ~ ^ / ( . ",
". _ : < < : : : : : : : : : : [ [ : : : : : : : : < < } | % ",
"1 2 3 4 4 4 4 4 4 4 4 4 5 6 7 8 9 0 a 4 4 4 4 4 4 4 4 b c d ",
"e f g } h h } h h h i j k l m n o p q r h } h h } h a s t u ",
"v w x 4 } } } } } r y z A B C B D E F G } } } } } } 4 H I J ",
"K L M N N N N N N O P Q R S T T U V W X N N N N N N N Y Z ` ",
" ...+.@.#.#.@.#.#.$.%.&.*.*.=.-.;.>.,.'.#.@.#.#.@.#.#.).!.~.",
"{.].^././././././.(._.&.:.<.[.}.|.1.2.3././././././.4.5.6.7.",
"8.9.0.a.a.a.a.a.a.b.c.&.:.&.d.e.f.g.h.i.a.a.a.a.a.a.j.k.l.m.",
"n.o.p.q.r.r.s.t.u.v.w.&.:.<.x.y.z.A.B.C.u.D.E.F.s.r.G.H.I.J.",
"K.L.M.N.O.P.Q.R.S.T.U.V.W.X.Y.Z.`. +Y..+S.++@+#+$+%+&+*+=+-+",
";+>+,+'+)+!+~+{+C C C ]+<.V.^+Y./+(+_+:+C C C <+[+}+|+1+2+3+",
"4+5+6+7+8+9+0+T E ]+E a+b+c+d+V.e+f+a+g+:+]+]+h+i+j+k+l+m+n+",
"o+p+q+r+s+&.*.t+u+v+w+x+y+z+A+B+C+C+D+E+u+v+F+G+H+I+J+K+L+M+",
"N+O+P+Q+R+&.:.&.S+T+g.U+V+W+H+X+Y+Z+`+ @~+.@g.+@@@#@$@%@&@*@",
"=@-@;@>@,@&.:.:.'@)@f.!@~@{@b+]@Z+_+^@/@(@_@f.:@<@[@}@|@1@2@",
"3@4@5@6@7@&.:.&.B.8@9@0@a@b@c@d@e@f+*.<.B.f@g@h@i@j@k@l@m@n@",
"o@p@q@r@s@&.:.<.t@u@v@w@x@y@z@A@B@&.:.X.C@D@v@E@Y.F@G@H@I@J@",
"K@L@M@N@O@&.:.<.W /+P@u+/+Q@R@S@T@:.:.X.U@V@P@u+W@X@Y@Z@`@ #",
".#+#@###$#&.:.<.C@^@%#%#&#*#=#-#;#&.:.X.>#,#%#%#'#)#!#~#{#]#",
"^#/#(#_#:#&.:.<#d+g+[#C+P@}#|#1#2#3#:.X.4#g+:+C+d+5#6#7#8#9#",
"0#a#b#c#d#&.:.<#H+a+H+e#f#g#h#i#j#3#:.X.P@k#l#m#n#o#p#q#r#s#",
"t#u#v#w#x#y#:.<.Z+]@`+z#A#B#C#D#E#F#:.X.b+]@`+G#H#I#J#K#L#M#",
"N#O#P#Q#R#S#T#U#V#W#X#Y#Z#`# $ $R#.$+$@$#$$$%$&$*$=$-$;$>$,$",
"% '$)$!$~${$]$^$/$($_${$:${${$:${${$<$[$}$|$_${$:$1$2$3$4$5$",
". 6$7$8$9$0$0$0$0$0$0$0$0$0$0$0$0$0$0$0$0$0$0$0$0$a$b$c$d$. ",
". % e$f$g$h$i$h$h$i$h$h$i$h$h$i$h$h$i$h$h$i$h$h$h$j$k$l$. . ",
". . . 5$m$n$o$o$o$o$o$o$o$o$o$o$o$o$o$o$o$o$o$o$n$p$% . . . "};
