/* XPM */
static char *dummy[]={
"22 18 303 2",
"cD c #666666",
".w c #707070",
"cQ c #8a982f",
".t c #7a7a7a",
"cO c #9ba438",
"cP c #c0c61f",
".F c #757575",
".E c #627c54",
"cR c #668348",
"cC c #959595",
".v c #7f7f7f",
".u c #828282",
".s c #5f7d58",
"cy c #7e3f44",
".r c #a1b22f",
"cz c #5c4f4f",
"cg c #d73c3c",
"cS c #b6c524",
".G c #939393",
"cx c #726052",
"bp c #8d914b",
"## c #964d58",
"bI c #b0515a",
"b. c #b8c726",
"aD c #b8c727",
".W c #c1c725",
".g c #dbe313",
".q c #e7ec0d",
".h c #f3f506",
".i c #f5f705",
"bW c #159414",
"cd c #198c17",
"cv c #30a329",
"bF c #38a933",
"bV c #50bc4b",
"cu c #51a44e",
".a c #567a5a",
"bE c #57c250",
"bY c #599659",
"cj c #635a5a",
"ca c #63b562",
"ct c #6aa768",
"cE c #6c8359",
".6 c #6e8e4d",
"aP c #72828e",
"cw c #74af71",
"#m c #76663b",
"bn c #77b874",
"cA c #797979",
"an c #7a6363",
"cG c #7b4047",
"cF c #7b6f43",
"#4 c #7e6363",
".R c #7e8790",
"cJ c #7e8c8f",
".N c #7e8f63",
"cM c #7f8b90",
"ce c #80948c",
"aU c #81907e",
"av c #824242",
"#n c #82868d",
"bM c #837878",
"#q c #83868d",
"a6 c #838b8e",
"a9 c #838c8e",
".l c #838c94",
"bD c #83d17d",
"bk c #86a040",
"ai c #874c0e",
"#V c #87602d",
"b3 c #877d7d",
"am c #878686",
"ac c #88612e",
"aN c #887f7f",
"bZ c #889d8a",
"b# c #897e7e",
"c# c #899b95",
"cr c #8a4a33",
"bo c #8ca096",
"bN c #8e6f6f",
"aW c #8e8484",
"aF c #8e8d8d",
"cL c #8ebe8a",
"bG c #8fbc8e",
"aV c #909090",
"b2 c #913f3f",
"aE c #919191",
"aG c #946969",
"#E c #947224",
"cK c #94bb90",
"ah c #95681d",
".M c #959596",
"ci c #964141",
"#d c #967373",
".Z c #967a7a",
"aC c #96958a",
"a5 c #97aa36",
"bH c #98a599",
"#e c #999797",
"bL c #9a4d4d",
"co c #9a7c7c",
"cc c #9ac89b",
"ax c #9b9d97",
"bl c #9ba8a4",
"bX c #9bcb9b",
"aM c #9c3939",
"bm c #9cc799",
"a4 c #9d8383",
"#W c #9da520",
"cI c #9db02d",
".f c #9eb333",
"#w c #9f8989",
".1 c #9f9595",
"bU c #9fb1a1",
"#x c #a1a0a0",
"#h c #a29797",
".e c #a39598",
".b c #a49da0",
"aR c #a5641d",
".H c #a5a5a5",
"bC c #a5b4a7",
"#I c #a6a091",
".0 c #a6a5a5",
"#F c #a6a69b",
"#P c #a77e45",
"#g c #a7a7a7",
"bv c #a84141",
"#r c #a84248",
".L c #aaaaaa",
"aw c #aab11e",
"#y c #aba385",
"#J c #acab26",
"#0 c #ad7824",
".I c #adadad",
"aS c #ae853b",
"b5 c #ae8f8f",
".K c #aeaeae",
".J c #afafaf",
"#f c #b0b0b0",
".8 c #b12929",
"ao c #b35050",
"ak c #b3a28d",
"#2 c #b3a995",
".7 c #b4898a",
"b8 c #b50707",
"bA c #b54f37",
"bS c #b55138",
"az c #b5650d",
"cf c #b5af2a",
"cB c #b5b5b5",
".X c #b75e5e",
".5 c #b7c524",
".k c #b7c626",
"cN c #b7c727",
"af c #b8b29a",
"aO c #b8c624",
".3 c #b94b51",
"aA c #b96f19",
"#X c #b9b1a1",
"bQ c #bb0101",
"#O c #bb6666",
"cp c #bd4141",
"#c c #bd6868",
"ad c #bdc416",
".Y c #be5858",
"#K c #be5c5c",
"aX c #be6363",
"#. c #be8989",
"#Z c #beab77",
"b4 c #bebdbd",
"b7 c #bf1111",
"cq c #bf2829",
"#o c #bf8383",
"bB c #bfbf1f",
"bR c #c00f0f",
".9 c #c02929",
"#5 c #c15858",
"b9 c #c22a2a",
"bw c #c23333",
"a3 c #c33d3d",
"#v c #c36767",
"#p c #c38484",
"ck c #c3c3c3",
"cn c #c4c3c3",
"cb c #c5dfc5",
"bO c #c74242",
"b0 c #c7444a",
"b6 c #c74a4a",
".z c #c75b5a",
"bi c #c84949",
".C c #c93a3a",
".S c #ca7b7b",
"bT c #cac81a",
"by c #cb0202",
"bP c #cb1111",
"aQ c #cba465",
".4 c #cbc719",
"#l c #cc5c60",
".V c #cc7373",
"a7 c #ccb089",
"bz c #cd1010",
"bq c #cd6363",
".p c #cd6e6e",
".B c #cd9999",
".Q c #ced91a",
".2 c #cf7575",
"cH c #cfd210",
".D c #cfd91a",
"a8 c #d0b480",
"cs c #d0d310",
".d c #d19394",
"aT c #d1b167",
"au c #d23a37",
"ba c #d36767",
"aH c #d43939",
".U c #d4a1a1",
"#U c #d6595a",
".c c #d69a9a",
".T c #d6aaaa",
"c. c #d6c716",
"#i c #d78787",
"#H c #d8b163",
"#D c #d9595a",
"#a c #d97b7b",
"bu c #da2424",
"bx c #db1010",
"ab c #db5858",
"#G c #dbc48e",
"bj c #dbdb12",
"aY c #dc1818",
"#z c #dc8276",
"bh c #dd1010",
".m c #dd9c9c",
"cm c #dddddd",
"#1 c #de9321",
"cl c #dedede",
"bg c #df0101",
".P c #dfe611",
".o c #e1a1a1",
".x c #e1e711",
"bK c #e22323",
"#9 c #e2705c",
"aj c #e27711",
"#Q c #e29828",
".A c #e2afae",
"#s c #e37676",
"br c #e41e1e",
"#b c #e48484",
".O c #e4ea0e",
"#t c #e57e7e",
"aB c #e59b2e",
"bJ c #e61c1c",
"ae c #e6eb0c",
".# c #e6ec0d",
"a2 c #e70b0b",
"ch c #e72d2d",
"ap c #e75a5a",
"ay c #e7a43f",
"#3 c #e7eb0d",
"al c #e7ec0d",
"bf c #e80d0d",
"#L c #e87070",
".n c #e8a7a7",
"aZ c #e90101",
"bs c #e90202",
"#A c #e97b7b",
"#u c #e97f7f",
"a0 c #ea0202",
"aJ c #ea0e0e",
"#M c #ea7878",
"a1 c #eb0202",
"bc c #eb0404",
"aL c #eb1211",
"aI c #eb1d1d",
"#8 c #eb7272",
"a. c #eb7360",
"aK c #ec0505",
"bd c #ec0707",
"be c #ed1717",
"bb c #ed2424",
"#N c #ed7979",
"#j c #ed8181",
"#6 c #ee6868",
"b1 c #ef0808",
"as c #ef3c3c",
"aq c #ef5858",
"#7 c #ef7272",
".j c #eff308",
"bt c #f00707",
"at c #f03433",
"ar c #f04e4e",
"#Y c #f0cc6b",
"#k c #f18282",
"#S c #f37d7d",
".y c #f3f606",
"a# c #f4706f",
"#B c #f48080",
"ag c #f4c442",
"#C c #f77777",
"#R c #f77f6d",
"aa c #f86767",
"#T c #f87474",
"Qt c #ffff00",
"Qt.#.a.b.c.d.e.fQtQtQtQtQt.g.hQt.i.jQtQtQtQt",
"Qt.k.l.m.n.o.p.lQtQt.q.r.s.t.u.v.w.x.yQtQtQt",
"Qt.k.l.z.A.B.C.l.D.E.F.G.H.I.J.K.L.M.N.O.PQt",
"Qt.Q.R.S.T.U.V.R.W.X.Y.Z.0.K.J.H.H.1.2.3.4.5",
"QtQt.6.7.8.9#..f###a#b#c#d#e#f#g#h#i#j#k#l#m",
"QtQt.k#n#o#p#q.Q#r#s#t#u#v#w#x#y#z#A#B#C#D#E",
"Qt.#.a#F#G#H#I.Q#J#K#L#M#N#O#P#Q#R#S#T#U#V#W",
"Qt.6#X#Y#Z#0#1#2#3#4#5#6#7#8#9a.a#aaabacadae",
"Qt.6afagahaiajakalamanaoapaqarasatauavawaeQt",
"Qt.6axayazaAaBaCaDaEaFaGaHaIaJaKaLaMaNaOQtQt",
"Qt.kaPaQaRaSaTaUaDaVaWaXaYaZa0a1a2a3a4a5QtQt",
"QtQt.6a6a7a8a9.#b.b#babbbcbdbebfbgbhbibjaeQt",
"QtQtbkblbmbnbo.#bpbqbrbsbtbubvbwbxbybzbAbBae",
"QtbkbCbDbEbFbGbHbIbJa0btbKbLbMbNbObPbQbRbSbT",
"Qt.6bUbVbWbXbYbZb0aJb1bKb2b3#gb4b5b6b7b8b9c.",
"Qtbkc#cacbcccdcecfcgchcicjckclcmcncocpcqcrcs",
"Qt.#.6ctcucvcw.kaecxcyczcAckcBcCcDcEcFcGcHcI",
"QtQt.kcJcKcLcMQtQtQtcNQtcOcPcQcRcSQtQt.D.DQt"};
