/* XPM */
static char * BotonLlamarInterfonoNoDisponible_xpm[] = {
"22 18 199 2",
"  	c None",
". 	c #275674",
"+ 	c #295775",
"@ 	c #2C5976",
"# 	c #2B5875",
"$ 	c #355E78",
"% 	c #8D8D8D",
"& 	c #8C8C8C",
"* 	c #898989",
"= 	c #909090",
"- 	c #345E78",
"; 	c #3D6279",
"> 	c #818181",
", 	c #949494",
"' 	c #A5A5A5",
") 	c #ADADAD",
"! 	c #AFAFAF",
"~ 	c #AEAEAE",
"{ 	c #AAAAAA",
"] 	c #969696",
"^ 	c #285674",
"/ 	c #4B5970",
"( 	c #B75E5E",
"_ 	c #BE5858",
": 	c #967A7A",
"< 	c #A6A5A5",
"[ 	c #9F9595",
"} 	c #CF7575",
"| 	c #C04A4F",
"1 	c #514355",
"2 	c #26516D",
"3 	c #9E4D56",
"4 	c #D97B7B",
"5 	c #E48484",
"6 	c #BD6868",
"7 	c #967373",
"8 	c #999797",
"9 	c #B0B0B0",
"0 	c #A7A7A7",
"a 	c #A29797",
"b 	c #D78787",
"c 	c #ED8181",
"d 	c #F28282",
"e 	c #CC5C60",
"f 	c #4F3B4C",
"g 	c #AD4146",
"h 	c #E37676",
"i 	c #E57E7E",
"j 	c #E97F7F",
"k 	c #C36767",
"l 	c #9F8989",
"m 	c #A1A0A0",
"n 	c #ABA385",
"o 	c #DC8276",
"p 	c #E97B7B",
"q 	c #F48080",
"r 	c #F77777",
"s 	c #D9595A",
"t 	c #5E2C36",
"u 	c #4A4152",
"v 	c #BE5C5C",
"w 	c #E87070",
"x 	c #EA7878",
"y 	c #ED7979",
"z 	c #BB6666",
"A 	c #A77E45",
"B 	c #E29828",
"C 	c #F77F6D",
"D 	c #F37D7D",
"E 	c #F87474",
"F 	c #D7595A",
"G 	c #65333A",
"H 	c #243648",
"I 	c #2B526D",
"J 	c #7E6363",
"K 	c #C15858",
"L 	c #EE6868",
"M 	c #EF7272",
"N 	c #EB7272",
"O 	c #E2705C",
"P 	c #EB7360",
"Q 	c #F4706F",
"R 	c #F86767",
"S 	c #DB5858",
"T 	c #693338",
"U 	c #22374A",
"V 	c #234D68",
"W 	c #2D5976",
"X 	c #878686",
"Y 	c #7A6363",
"Z 	c #B35050",
"` 	c #E75A5A",
" .	c #EF5858",
"..	c #F04E4E",
"+.	c #EF3C3C",
"@.	c #F03433",
"#.	c #D23A37",
"$.	c #824242",
"%.	c #273745",
"&.	c #234E69",
"*.	c #275573",
"=.	c #919191",
"-.	c #8E8D8D",
";.	c #946969",
">.	c #D43939",
",.	c #EB1D1D",
"'.	c #EA0E0E",
").	c #EC0505",
"!.	c #EB1211",
"~.	c #9C3939",
"{.	c #887F7F",
"].	c #2B536B",
"^.	c #8E8484",
"/.	c #BE6363",
"(.	c #DC1818",
"_.	c #E90101",
":.	c #EA0202",
"<.	c #EB0202",
"[.	c #E70B0B",
"}.	c #C33D3D",
"|.	c #9D8383",
"1.	c #2D546D",
"2.	c #2D5874",
"3.	c #897E7E",
"4.	c #D36767",
"5.	c #ED2424",
"6.	c #EB0404",
"7.	c #EC0707",
"8.	c #ED1717",
"9.	c #E80D0D",
"0.	c #DF0101",
"a.	c #DD1010",
"b.	c #C84949",
"c.	c #4F4958",
"d.	c #26506C",
"e.	c #5C5C71",
"f.	c #CD6363",
"g.	c #E41E1E",
"h.	c #E90202",
"i.	c #F00707",
"j.	c #DA2424",
"k.	c #A84141",
"l.	c #C23333",
"m.	c #DB1010",
"n.	c #CB0202",
"o.	c #CD1010",
"p.	c #B0383C",
"q.	c #464758",
"r.	c #26506B",
"s.	c #B85159",
"t.	c #E61C1C",
"u.	c #E22323",
"v.	c #9A4D4D",
"w.	c #837878",
"x.	c #8E6F6F",
"y.	c #C74242",
"z.	c #CB1111",
"A.	c #BB0101",
"B.	c #C00F0F",
"C.	c #AC3B3F",
"D.	c #4E4758",
"E.	c #CC4449",
"F.	c #EF0808",
"G.	c #913F3F",
"H.	c #877D7D",
"I.	c #BEBDBD",
"J.	c #AE8F8F",
"K.	c #C74A4A",
"L.	c #BF1111",
"M.	c #B50707",
"N.	c #C22A2A",
"O.	c #77434B",
"P.	c #5D4B5B",
"Q.	c #DE3B3B",
"R.	c #E72D2D",
"S.	c #964141",
"T.	c #635A5A",
"U.	c #C3C3C3",
"V.	c #DEDEDE",
"W.	c #DDDDDD",
"X.	c #C4C3C3",
"Y.	c #9A7B7B",
"Z.	c #BF3F3F",
"`.	c #C02829",
" +	c #7C3439",
".+	c #2C3848",
"++	c #634C5B",
"@+	c #894044",
"#+	c #5A4C4C",
"$+	c #797979",
"%+	c #B5B5B5",
"&+	c #A2A2A2",
"*+	c #848484",
"=+	c #63434E",
"-+	c #7B4047",
";+	c #2A3746",
">+	c #234C66",
",+	c #285774",
"'+	c #647784",
". . . . . . . . . . . + @ . . . . . . . . . ",
". . . . . . . . # $ % & * = - . . . . . . . ",
". . . . . . ; > , ' ) ! ~ { ]   ^ . . . . . ",
". . . . . / ( _ : < ~ ! ' ' [ } | 1 2 . . . ",
". . . . . 3 4 5 6 7 8 9 0 a b c d e f . . . ",
". . . . . g h i j k l m n o p q r s t . . . ",
". . . . . u v w x y z A B C D E F G H . . . ",
". . . . . I J K L M N O P Q R S T U V . . . ",
". . . . . W X Y Z `  ...+.@.#.$.%.&.*.. . . ",
". . . . . W =.-.;.>.,.'.).!.~.{.].*.. . . . ",
". . . . . W = ^./.(._.:.<.[.}.|.1.. . . . . ",
". . . . . 2.3.4.5.6.7.8.9.0.a.b.c.d.. . . . ",
". . . . . e.f.g.h.i.j.k.l.m.n.o.p.q.r.. . . ",
". . . . . s.t.:.i.u.v.w.x.y.z.A.B.C.D.. . . ",
". . . . . E.'.F.u.G.H.0 I.J.K.L.M.N.O.. . . ",
". . . . . P.Q.R.S.T.U.V.W.X.Y.Z.`. +.+. . . ",
". . . . . 2 ++@+#+$+U.%+&+*+  =+-+;+>+. . . ",
". . . . . . . . ,+'+    . . . . . . . . . . "};
