/* XPM */
static char * BotonListinInterfonosSinComRollover_xpm[] = {
"30 30 532 2",
"  	c None",
". 	c #677A8D",
"+ 	c #677A8C",
"@ 	c #FCFB87",
"# 	c #FCFB7F",
"$ 	c #FCFC80",
"% 	c #FCFB80",
"& 	c #FBFB7F",
"* 	c #677A8A",
"= 	c #677A8B",
"- 	c #FBFA73",
"; 	c #FFFF84",
"> 	c #FFFF97",
", 	c #FFFF9C",
"' 	c #FFFF98",
") 	c #FFFF80",
"! 	c #F5F464",
"~ 	c #F4F263",
"{ 	c #FEFE71",
"] 	c #FFFF7A",
"^ 	c #FEFE79",
"/ 	c #FFFF79",
"( 	c #FEFE75",
"_ 	c #FFFF68",
": 	c #E7E557",
"< 	c #FDFC5C",
"[ 	c #FFFF61",
"} 	c #FFFF63",
"| 	c #FFFF5F",
"1 	c #FFFF60",
"2 	c #FFFF5E",
"3 	c #F9F757",
"4 	c #D3D182",
"5 	c #FBF956",
"6 	c #FFFF5A",
"7 	c #FFFF5D",
"8 	c #FEFE5D",
"9 	c #FBFB5F",
"0 	c #F2F262",
"a 	c #E9E964",
"b 	c #F9F960",
"c 	c #FFFE5A",
"d 	c #FBF755",
"e 	c #C4C145",
"f 	c #CDCB71",
"g 	c #FAF755",
"h 	c #FEFE5A",
"i 	c #FEFE5E",
"j 	c #F8F860",
"k 	c #E7E764",
"l 	c #D5D56F",
"m 	c #B8B87F",
"n 	c #ADAD88",
"o 	c #AAAA84",
"p 	c #B5B582",
"q 	c #DCDC6C",
"r 	c #F7F454",
"s 	c #C3BF42",
"t 	c #CCCA72",
"u 	c #FAF757",
"v 	c #FFFE5C",
"w 	c #F8F863",
"x 	c #CDCD6F",
"y 	c #AFAF7F",
"z 	c #A4A492",
"A 	c #A6A6A2",
"B 	c #ABABAB",
"C 	c #AEAEAE",
"D 	c #ACACAC",
"E 	c #A6A69C",
"F 	c #B6B67A",
"G 	c #E8E867",
"H 	c #FEFE61",
"I 	c #F7F356",
"J 	c #C3BF43",
"K 	c #CCCA73",
"L 	c #FAF659",
"M 	c #FFFE5F",
"N 	c #FFFF62",
"O 	c #FFFF64",
"P 	c #E0E06B",
"Q 	c #8C8C88",
"R 	c #9D9D9D",
"S 	c #ADADAD",
"T 	c #A8A8A7",
"U 	c #A6A6A5",
"V 	c #A8A8A8",
"W 	c #BDBDBC",
"X 	c #C0C07F",
"Y 	c #FEFE64",
"Z 	c #FFFD5E",
"` 	c #F7F358",
" .	c #C3BE45",
"..	c #CCC975",
"+.	c #FAF55B",
"@.	c #FFFF65",
"#.	c #FEFE66",
"$.	c #FFFF66",
"%.	c #DFDF6D",
"&.	c #8F8F8F",
"*.	c #929292",
"=.	c #949494",
"-.	c #9B9B9B",
";.	c #A6A6A6",
">.	c #AAAAAA",
",.	c #B0B0B0",
"'.	c #BCBCBC",
").	c #DBDBDA",
"!.	c #C2C286",
"~.	c #FEFE65",
"{.	c #FFFD60",
"].	c #F7F15A",
"^.	c #C3BE47",
"/.	c #CCC876",
"(.	c #FAF45E",
"_.	c #FFFD63",
":.	c #FFFF67",
"<.	c #DFDF6E",
"[.	c #909090",
"}.	c #959595",
"|.	c #BABABA",
"1.	c #B3B38D",
"2.	c #B8B889",
"3.	c #B7B7B2",
"4.	c #BDBDBD",
"5.	c #C1C185",
"6.	c #FEFE68",
"7.	c #FFFC63",
"8.	c #F7F15C",
"9.	c #C3BD49",
"0.	c #CCC877",
"a.	c #FAF360",
"b.	c #FFFD65",
"c.	c #FFFF69",
"d.	c #FFFF6A",
"e.	c #DFDF6F",
"f.	c #B9B973",
"g.	c #EDED13",
"h.	c #F4F40A",
"i.	c #C8C855",
"j.	c #ADADA8",
"k.	c #C0C084",
"l.	c #FEFE6A",
"m.	c #FFFC65",
"n.	c #F7EF5E",
"o.	c #C3BC4A",
"p.	c #CCC778",
"q.	c #FAF262",
"r.	c #FEFC67",
"s.	c #FFFF6B",
"t.	c #FEFE6C",
"u.	c #F8F99F",
"v.	c #F6F79E",
"w.	c #F5F69D",
"x.	c #F3F49B",
"y.	c #F0F29A",
"z.	c #EEF098",
"A.	c #EDEF97",
"B.	c #D1D391",
"C.	c #AFAFAF",
"D.	c #E7E74F",
"E.	c #FEFE00",
"F.	c #E6E618",
"G.	c #A1A192",
"H.	c #C0C085",
"I.	c #FFFB68",
"J.	c #F7EE60",
"K.	c #C3BC4C",
"L.	c #CCC779",
"M.	c #FAF064",
"N.	c #FFFA69",
"O.	c #FFFF6D",
"P.	c #FFFF6E",
"Q.	c #FAFB79",
"R.	c #E1E4E7",
"S.	c #EAECEE",
"T.	c #E9EBED",
"U.	c #E8EAEC",
"V.	c #E6E9EB",
"W.	c #E5E8EA",
"X.	c #E5E7E9",
"Y.	c #CCCDCF",
"Z.	c #969696",
"`.	c #939393",
" +	c #C6C66F",
".+	c #F5F508",
"++	c #FCFC02",
"@+	c #D3D34B",
"#+	c #ABABA5",
"$+	c #C0C086",
"%+	c #FEFE6E",
"&+	c #FFFA6A",
"*+	c #F7ED63",
"=+	c #C3BB4D",
"-+	c #CCC67A",
";+	c #FAEF66",
">+	c #FFF96B",
",+	c #FFFF6F",
"'+	c #FFFF70",
")+	c #FAFB7B",
"!+	c #ECEDF0",
"~+	c #FDFDFC",
"{+	c #FCFCFB",
"]+	c #FBFBFA",
"^+	c #FAFAF9",
"/+	c #F9F9F8",
"(+	c #DBDADA",
"_+	c #C1C1C1",
":+	c #B6B6B4",
"<+	c #DEDEA8",
"[+	c #E3E3A1",
"}+	c #AAAAA0",
"|+	c #C6C6C6",
"1+	c #C2C289",
"2+	c #FEFE70",
"3+	c #FFF96C",
"4+	c #F7EC65",
"5+	c #C2BA4F",
"6+	c #CCC57B",
"7+	c #FAEF68",
"8+	c #FFF86E",
"9+	c #FFFE72",
"0+	c #FFFF73",
"a+	c #FAFB7E",
"b+	c #EDEFF0",
"c+	c #E1E1E6",
"d+	c #CFCDD6",
"e+	c #CDCCD5",
"f+	c #CDCCD4",
"g+	c #BAB9BF",
"h+	c #D1D1D1",
"i+	c #C2C2C2",
"j+	c #B4B4B4",
"k+	c #B7B7B7",
"l+	c #C9C9C9",
"m+	c #D3D3D3",
"n+	c #C2C28A",
"o+	c #FEFE74",
"p+	c #F7EB67",
"q+	c #C2B951",
"r+	c #CCC47D",
"s+	c #FAED6B",
"t+	c #FEF770",
"u+	c #FFFE75",
"v+	c #FEFE76",
"w+	c #FBFB80",
"x+	c #EEEFF1",
"y+	c #F6F8F9",
"z+	c #C8E5EE",
"A+	c #F1F4F4",
"B+	c #F8F8F7",
"C+	c #DADAD9",
"D+	c #CDCDCD",
"E+	c #D2D2D2",
"F+	c #BEBEBE",
"G+	c #C2C28C",
"H+	c #FFF771",
"I+	c #F7EA6A",
"J+	c #C2B853",
"K+	c #CCC47E",
"L+	c #FAEC6D",
"M+	c #FFF673",
"N+	c #FFFE77",
"O+	c #FFFF78",
"P+	c #FAFB82",
"Q+	c #ECEDEF",
"R+	c #FAFBFA",
"S+	c #ECF0F2",
"T+	c #BFD9E7",
"U+	c #C3DBE5",
"V+	c #F6F6F6",
"W+	c #D8D8D8",
"X+	c #C5C5C5",
"Y+	c #9E9E9E",
"Z+	c #828282",
"`+	c #858585",
" @	c #A4A4A4",
".@	c #C5C5C4",
"+@	c #C2C28D",
"@@	c #FEFE78",
"#@	c #FFFE78",
"$@	c #F7E96C",
"%@	c #C2B755",
"&@	c #CCC37F",
"*@	c #FAEB6F",
"=@	c #FEF575",
"-@	c #FFFD79",
";@	c #FEFE7B",
">@	c #F9F984",
",@	c #E7E9EB",
"'@	c #F5F7F8",
")@	c #A2C3DA",
"!@	c #89B4CF",
"~@	c #DEE5E9",
"{@	c #D0CFD7",
"]@	c #D0D0D7",
"^@	c #BCBCC1",
"/@	c #C4C4C4",
"(@	c #B8B8B8",
"_@	c #C1C18E",
":@	c #FEFD7A",
"<@	c #FFF475",
"[@	c #F7E86E",
"}@	c #C2B657",
"|@	c #CCC380",
"1@	c #FAEA71",
"2@	c #FFF477",
"3@	c #FFFB7C",
"4@	c #FFFD7D",
"5@	c #F9F886",
"6@	c #E7E9EC",
"7@	c #E6EBEF",
"8@	c #CFDEE6",
"9@	c #BCDDE8",
"0@	c #EFF2F2",
"a@	c #F5F5F4",
"b@	c #D8D8D7",
"c@	c #C0C0C0",
"d@	c #C8C8C8",
"e@	c #D4D4D4",
"f@	c #DBDBDB",
"g@	c #C2C18F",
"h@	c #FEFC7D",
"i@	c #FFFC7D",
"j@	c #FFF378",
"k@	c #F7E770",
"l@	c #C2B658",
"m@	c #CCC282",
"n@	c #FAE974",
"o@	c #FFF37A",
"p@	c #FFFA7E",
"q@	c #FFFB7F",
"r@	c #F9F788",
"s@	c #E7E9ED",
"t@	c #F7F8F8",
"u@	c #DBE5EC",
"v@	c #AECEE1",
"w@	c #CBDCE6",
"x@	c #EDEDEF",
"y@	c #EDEDEE",
"z@	c #E1E1E2",
"A@	c #A4A4A5",
"B@	c #CACACA",
"C@	c #DEDEDE",
"D@	c #CDCDCB",
"E@	c #BDBDB3",
"F@	c #CAC885",
"G@	c #FEFB7F",
"H@	c #FFF27A",
"I@	c #F7E673",
"J@	c #C2B55A",
"K@	c #CCC283",
"L@	c #FAE876",
"M@	c #FEF27C",
"N@	c #FFF980",
"O@	c #FEFA81",
"P@	c #F9F68A",
"Q@	c #E6E8ED",
"R@	c #A7C5DB",
"S@	c #8FB5CF",
"T@	c #DEE6EB",
"U@	c #D3D3DB",
"V@	c #D5D4DB",
"W@	c #D4D2DA",
"X@	c #CECED4",
"Y@	c #B0AFB2",
"Z@	c #979797",
"`@	c #919191",
" #	c #CCCCCC",
".#	c #A6A7A6",
"+#	c #C0BF88",
"@#	c #DEDB80",
"##	c #FAF681",
"$#	c #FFF17C",
"%#	c #F7E575",
"&#	c #C2B45B",
"*#	c #CCC184",
"=#	c #FAE778",
"-#	c #FFF17E",
";#	c #FFF983",
">#	c #FFFA83",
",#	c #F9F58C",
"'#	c #F8F8F8",
")#	c #EEF0F2",
"!#	c #D7E3EB",
"~#	c #B9D9E7",
"{#	c #F0F2F3",
"]#	c #F4F5F5",
"^#	c #F4F4F4",
"/#	c #F3F3F3",
"(#	c #F0F0F0",
"_#	c #DDDDDD",
":#	c #B5B5B5",
"<#	c #E1E1E1",
"[#	c #CBCDCC",
"}#	c #F4F18A",
"|#	c #FFFA84",
"1#	c #FFF07E",
"2#	c #F7E477",
"3#	c #C2B35D",
"4#	c #CCC185",
"5#	c #FAE77A",
"6#	c #FFF180",
"7#	c #FFF885",
"8#	c #FFF986",
"9#	c #F9F58E",
"0#	c #E5E7EC",
"a#	c #F5F6F7",
"b#	c #CDDDE8",
"c#	c #A5C7DD",
"d#	c #CEDBE5",
"e#	c #E4E3E7",
"f#	c #E3E2E6",
"g#	c #E2E1E5",
"h#	c #E1E0E4",
"i#	c #E1E0E3",
"j#	c #E0DFE3",
"k#	c #DEDDE1",
"l#	c #DEDDE0",
"m#	c #EAE9EA",
"n#	c #EFEFEF",
"o#	c #CFD1D0",
"p#	c #F5F18B",
"q#	c #FFF985",
"r#	c #FFF080",
"s#	c #F7E479",
"t#	c #C2B35F",
"u#	c #CCC086",
"v#	c #FAE57C",
"w#	c #FEEF82",
"x#	c #FFF787",
"y#	c #FEF888",
"z#	c #F9F48F",
"A#	c #E5E7EB",
"B#	c #F5F6F6",
"C#	c #AEC8DC",
"D#	c #96B8D0",
"E#	c #EAEBED",
"F#	c #DCDBE0",
"G#	c #DBDADF",
"H#	c #DAD9DE",
"I#	c #D9D9DE",
"J#	c #D9D8DD",
"K#	c #D8D7DC",
"L#	c #E7E7E9",
"M#	c #EEEEEE",
"N#	c #F4F08D",
"O#	c #FFF888",
"P#	c #FEF887",
"Q#	c #FFEF82",
"R#	c #F7E27B",
"S#	c #C2B260",
"T#	c #CCC089",
"U#	c #F9E47E",
"V#	c #FFEF84",
"W#	c #FFF689",
"X#	c #FFF78A",
"Y#	c #F9F392",
"Z#	c #E5E7EA",
"`#	c #F7F7F7",
" $	c #F1F2F3",
".$	c #F4F4F3",
"+$	c #F2F2F2",
"@$	c #F1F1F1",
"#$	c #F1F0F0",
"$$	c #F5EF90",
"%$	c #FFF78B",
"&$	c #FFEE84",
"*$	c #F7E17D",
"=$	c #C0AF61",
"-$	c #C8BD8F",
";$	c #F1DB7B",
">$	c #FDE884",
",$	c #FFF28A",
"'$	c #FFF68D",
")$	c #F8F192",
"!$	c #C9CDCD",
"~$	c #D1D3D4",
"{$	c #D0D3D3",
"]$	c #D1D3D3",
"^$	c #D0D2D2",
"/$	c #CED1D0",
"($	c #CFD2D1",
"_$	c #CFD2D0",
":$	c #CDD0CF",
"<$	c #CDCFCE",
"[$	c #CCCFCE",
"}$	c #BABEBA",
"|$	c #F3ED90",
"1$	c #FFF48B",
"2$	c #FDE984",
"3$	c #F0DA7B",
"4$	c #AD9E5E",
"5$	c #E4CE76",
"6$	c #F8E182",
"7$	c #FEEC89",
"8$	c #FEF08D",
"9$	c #FDF28E",
"0$	c #F4EA92",
"a$	c #F5EA92",
"b$	c #F3E991",
"c$	c #FDF18E",
"d$	c #FEF38E",
"e$	c #FFF38E",
"f$	c #FEF18D",
"g$	c #FDE987",
"h$	c #F3DB7F",
"i$	c #DAC571",
"j$	c #C5B36E",
"k$	c #EAD37E",
"l$	c #F8E188",
"m$	c #FBE58C",
"n$	c #FCE68C",
"o$	c #FDE68D",
"p$	c #FCE68D",
"q$	c #FBE48B",
"r$	c #F0D982",
"s$	c #E0CA77",
"t$	c #AB9B5F",
"u$	c #BEAD70",
"v$	c #DDC87E",
"w$	c #E6D085",
"x$	c #ECD588",
"y$	c #ECD688",
"z$	c #E8D285",
"A$	c #D3BE75",
"B$	c #A99860",
"C$	c #B2A784",
"D$	c #B3A67C",
"E$	c #B5A77B",
"F$	c #B4A77B",
"G$	c #B1A57B",
". + . . @ # $ % % $ % % $ % % $ % % $ % % $ % % $ & * = + . ",
"+ . - ; > , , , , , , , , , , , , , , , , , , , , ' ) ! . + ",
". ~ { ] ^ ^ / ^ ^ / ^ ^ / ^ ^ / ^ ^ / ^ ^ / ^ ^ / ^ ( _ : . ",
". < [ } [ | | | | | | | | | | | | | | | | | | | | 1 } 2 3 * ",
"4 5 6 7 7 7 7 7 7 7 7 7 7 7 7 7 7 8 9 0 a b 8 7 7 7 7 c d e ",
"f g h 7 i i 2 i i 2 i i 2 i i j k l m n o p q b i i i c r s ",
"t u v 1 [ [ [ [ [ [ [ [ [ w x y z A B C C D E F G H [ v I J ",
"K L M N O O O O O O O O O P Q R B C C S T U V W X Y } Z `  .",
"..+.H @.#.#.$.#.#.$.#.#.$.%.&.*.=.-.;.>.S ,.'.).!.#.~.{.].^.",
"/.(._.:._ _ _ _ _ _ _ _ _ <.[.}.=.&.|.S 1.2.3.4.5.6.:.7.8.9.",
"0.a.b.c.d.d.d.d.d.d.d.d.d.e.[.}.}.*.S f.g.h.i.j.k.l.c.m.n.o.",
"p.q.r.s.t.{ u.v.w.x.y.z.A.B.[.}.}.*.C.D.E.E.F.G.H.t.t.I.J.K.",
"L.M.N.O.P.Q.R.S.T.U.V.W.X.Y.[.Z.}.`.C. +.+++@+#+$+%+P.&+*+=+",
"-+;+>+,+'+)+!+~+{+{+]+^+/+(+[.}.}.*._+:+<+[+}+|+1+2+'+3+4+5+",
"6+7+8+9+0+a+b+]+c+d+e+f+f+g+[.}.}.*.h+i+j+k+l+m+n+o+0+8+p+q+",
"r+s+t+u+v+w+x+]+]+y+z+A+B+C+[.}.}.*.D+E+F+j+*.'.G+v+v+H+I+J+",
"K+L+M+N+O+P+Q+R+S+T+U+V+V+W+[.}.}.*.X+Y+Z+`+ @.@+@@@#@M+$@%@",
"&@*@=@-@;@>@,@'@)@!@~@{@]@^@[.}.}.*./@(@S D >.|+_@;@:@<@[@}@",
"|@1@2@3@4@5@6@^+7@8@9@0@a@b@[.}.}.*._+,.c@d@e@f@g@h@i@j@k@l@",
"m@n@o@p@q@r@s@t@u@v@w@x@y@z@A@*.}.`.B@W+C@f@D@E@F@G@q@H@I@J@",
"K@L@M@N@O@P@Q@'@R@S@T@U@V@W@X@Y@Z@`@|+ #c@.#+#@###O@O@$#%#&#",
"*#=#-#;#>#,#Q@'#)#!#~#{#]#^#/#(#_#j+:#D+<#[#}#>#|#>#;#1#2#3#",
"4#5#6#7#8#9#0#a#b#c#d#e#f#g#h#i#j#k#l#m#n#o#p#8#8#8#q#r#s#t#",
"u#v#w#x#y#z#A#B#C#D#E#F#G#H#I#J#K#K#K#L#M#o#N#y#O#y#P#Q#R#S#",
"T#U#V#W#X#Y#Z#`# $b+^#.$/#+$@$#$(#n#n#n#n#o#$$X#%$X#X#&$*$=$",
"-$;$>$,$'$)$!$~${$]$^$/$($_$/$:$<$<$<$[$[$}$|$'$'$'$1$2$3$4$",
". 5$6$7$8$9$0$0$0$a$0$0$0$0$0$0$0$0$0$0$0$b$c$d$e$f$g$h$i$* ",
". j$k$l$m$n$o$p$p$o$p$p$o$p$p$o$p$p$o$p$p$o$p$p$o$q$r$s$t$. ",
". . u$v$w$x$y$y$y$y$y$y$y$y$y$y$y$y$y$y$y$y$y$y$y$z$A$B$. . ",
". . . . C$D$E$E$E$E$E$F$F$F$F$F$F$F$F$F$F$F$F$F$F$G$* . . . "};
