/* XPM */
static char * EstadoSinComunicacion_xpm[] = {
"22 18 118 2",
"  	c None",
". 	c #275674",
"+ 	c #929292",
"@ 	c #909090",
"# 	c #A1A1A1",
"$ 	c #9D9D9D",
"% 	c #BEBEBE",
"& 	c #CFCFCF",
"* 	c #9A9A9A",
"= 	c #919191",
"- 	c #B4B4B4",
"; 	c #C6C6C6",
"> 	c #EF7A7A",
", 	c #E97474",
"' 	c #E67272",
") 	c #DF7375",
"! 	c #C9C9C9",
"~ 	c #868686",
"{ 	c #CECECE",
"] 	c #F29292",
"^ 	c #F1A5A5",
"/ 	c #E37979",
"( 	c #E88282",
"_ 	c #DE6C6D",
": 	c #D8585A",
"< 	c #ED9898",
"[ 	c #E93232",
"} 	c #D0D0D0",
"| 	c #DF7473",
"1 	c #E6A8A8",
"2 	c #FFFFFF",
"3 	c #E9ABAA",
"4 	c #C93C3A",
"5 	c #CA3A3A",
"6 	c #E2BBBB",
"7 	c #FDFCFC",
"8 	c #D69999",
"9 	c #CA0F0E",
"0 	c #D56463",
"a 	c #D36C6C",
"b 	c #F2D6D6",
"c 	c #DEA0A0",
"d 	c #E2BAB9",
"e 	c #FEFCFC",
"f 	c #C89797",
"g 	c #98292A",
"h 	c #D11515",
"i 	c #D05655",
"j 	c #CB3837",
"k 	c #C25B58",
"l 	c #E6AFAE",
"m 	c #FEFEFF",
"n 	c #FDFDFD",
"o 	c #C69898",
"p 	c #942222",
"q 	c #CC0B0B",
"r 	c #D61C1B",
"s 	c #D1D1D1",
"t 	c #C54240",
"u 	c #B42220",
"v 	c #AC1C1A",
"w 	c #E3ADAD",
"x 	c #FEFEFE",
"y 	c #B66767",
"z 	c #9E2728",
"A 	c #CA1B1B",
"B 	c #D81616",
"C 	c #C8C8C8",
"D 	c #CA3F3E",
"E 	c #B41C1B",
"F 	c #ECC9C9",
"G 	c #D6BEBE",
"H 	c #D4B6B6",
"I 	c #C68989",
"J 	c #BA2C2D",
"K 	c #D93534",
"L 	c #C7C7C7",
"M 	c #B9B7B7",
"N 	c #C35C5C",
"O 	c #E5AFAE",
"P 	c #D2B7B7",
"Q 	c #A12C2C",
"R 	c #AA292A",
"S 	c #D8B9B9",
"T 	c #D98B8C",
"U 	c #D15D5E",
"V 	c #969796",
"W 	c #D2BFC0",
"X 	c #C77A79",
"Y 	c #D6ADAD",
"Z 	c #961818",
"` 	c #B01717",
" .	c #B61414",
"..	c #A62122",
"+.	c #E1B5B5",
"@.	c #D07272",
"#.	c #D2B4B3",
"$.	c #999799",
"%.	c #B82C2C",
"&.	c #A12121",
"*.	c #AE1D1C",
"=.	c #B41B1B",
"-.	c #C31313",
";.	c #BF1111",
">.	c #B62A2A",
",.	c #DE3939",
"'.	c #CEC9C8",
").	c #868787",
"!.	c #B62727",
"~.	c #BC2220",
"{.	c #C62222",
"].	c #CB2120",
"^.	c #CA2625",
"/.	c #DF2F2E",
"(.	c #C82A29",
"_.	c #C92C2C",
":.	c #BFBFBF",
"<.	c #BDBDBD",
". . . . . . . . . . . . . . . . . . . . . . ",
". . . . . . . .   + @ @ +   . . . . . . . . ",
". . . . . .   # $ % & & % * #   . . . . . . ",
". . . .   = @ - ; > , ' ) ! - @ +   . . . . ",
". . . . ~ { & ] ^ / ( _ : < [ & { ~ . . . . ",
". . . . ~ } | 1 2 3 4 5 6 7 8 9 & ~ . . . . ",
". . . . ~ & 0 a b 2 c d e f g h & ~ . . . . ",
". . . . ~ } i j k l m n o p q r & ~ . . . . ",
". . . . ~ s t u v w x x y z A B & ~ . . . . ",
". . . . ~ C D E F 2 G H x I J K L ~ . . . . ",
". . . .   M N O 2 P Q R S n T U - ~ . . . . ",
". . . . . V W X Y Z `  ...+.@.#.$.. . . . . ",
". . . . . ~ } %.&.*.=.-.;.>.,.'.).. . . . . ",
". . . . .   ~ & !.~.{.].^./.& ~   . . . . . ",
". . . . . .   ~ & ; (._.; & ~   . . . . . . ",
". . . . . . .   ~ :.& & <.~   . . . . . . . ",
". . . . . . . .   ~ ~ ~ ~   . . . . . . . . ",
". . . . . . . . . .     . . . . . . . . . . "};
