/* XPM */
static char * EstadoNormal_xpm[] = {
"22 18 117 2",
"  	c None",
". 	c #275674",
"+ 	c #929292",
"@ 	c #909090",
"# 	c #A1A1A1",
"$ 	c #9D9D9D",
"% 	c #BEBEBE",
"& 	c #CFCFCF",
"* 	c #9A9A9A",
"= 	c #919191",
"- 	c #C6C6C6",
"; 	c #B1C4B0",
"> 	c #6BCB66",
", 	c #48BB41",
"' 	c #60B05F",
") 	c #C9C9C9",
"! 	c #868686",
"~ 	c #CECECE",
"{ 	c #ADBEAC",
"] 	c #8CDA86",
"^ 	c #86D97F",
"/ 	c #66CB5F",
"( 	c #40B638",
"_ 	c #39AC33",
": 	c #259621",
"< 	c #549155",
"[ 	c #D0D0D0",
"} 	c #85D67D",
"| 	c #87DD80",
"1 	c #87D981",
"2 	c #69CB61",
"3 	c #45BB3D",
"4 	c #2DAB27",
"5 	c #1A9D13",
"6 	c #83C07E",
"7 	c #A5CCA5",
"8 	c #438543",
"9 	c #84D17E",
"0 	c #6ACD62",
"a 	c #57C54F",
"b 	c #41B83B",
"c 	c #32AE2D",
"d 	c #1BA018",
"e 	c #46A744",
"f 	c #FFFFFF",
"g 	c #EAECEA",
"h 	c #166816",
"i 	c #84CA80",
"j 	c #4CBF45",
"k 	c #1EAD18",
"l 	c #10A10D",
"m 	c #058F05",
"n 	c #0E830F",
"o 	c #E0EBE1",
"p 	c #FCFAFC",
"q 	c #2A732B",
"r 	c #066206",
"s 	c #D1D1D1",
"t 	c #6DBD6C",
"u 	c #46BB41",
"v 	c #55BB56",
"w 	c #1B921C",
"x 	c #007501",
"y 	c #9FCE9E",
"z 	c #8AB38A",
"A 	c #006500",
"B 	c #157414",
"C 	c #64B264",
"D 	c #3EB03C",
"E 	c #CEE6CE",
"F 	c #6EB36C",
"G 	c #FBFFFB",
"H 	c #DCE3DD",
"I 	c #007900",
"J 	c #037F00",
"K 	c #147A12",
"L 	c #C7C7C7",
"M 	c #BABABA",
"N 	c #77A677",
"O 	c #21A21F",
"P 	c #67B168",
"Q 	c #FFF9FF",
"R 	c #F8F4F8",
"S 	c #248925",
"T 	c #009100",
"U 	c #10920B",
"V 	c #82AB82",
"W 	c #B4B4B5",
"X 	c #969696",
"Y 	c #23A320",
"Z 	c #008400",
"` 	c #5BA35B",
" .	c #FCF2FC",
"..	c #72A372",
"+.	c #009400",
"@.	c #20A816",
"#.	c #28A424",
"$.	c #B3C2B4",
"%.	c #989899",
"&.	c #7C9E7B",
"*.	c #299D25",
"=.	c #108B0D",
"-.	c #429141",
";.	c #23971E",
">.	c #25AC18",
",.	c #32B129",
"'.	c #9DAB9D",
").	c #6F9F6A",
"!.	c #46AC3D",
"~.	c #249D17",
"{.	c #39AF2C",
"].	c #3FBC32",
"^.	c #799979",
"/.	c #76C16A",
"(.	c #50C346",
"_.	c #BFBFBF",
":.	c #BDBDBD",
". . . . . . . . . . . . . . . . . . . . . . ",
". . . . . . . .   + @ @ +   . . . . . . . . ",
". . . . . .   # $ % & & % * #   . . . . . . ",
". . . .   = @ - - ; > , ' ) - @ +   . . . . ",
". . . . ! ~ & { ] ^ / ( _ : < & ~ ! . . . . ",
". . . . ! [ } | 1 2 3 4 5 6 7 8 & ! . . . . ",
". . . . ! & 9 0 a b c d e f g h & ! . . . . ",
". . . . ! [ i j k l m n o p q r & ! . . . . ",
". . . . ! s t u v w x y f z A B & ! . . . . ",
". . . . ! [ C D f E F G H I J K L ! . . . . ",
". . . .   M N O P Q f R S T U V W ! . . . . ",
". . . . . X & Y Z `  ...+.@.#.$.%.. . . . . ",
". . . . . ! [ &.*.=.-.;.>.,.'.~ ! . . . . . ",
". . . . .   ! & ).!.~.{.].^.~ !   . . . . . ",
". . . . . .   ! & - /.(.- & !   . . . . . . ",
". . . . . . .   ! _.& & :.!   . . . . . . . ",
". . . . . . . .   ! ! ! !   . . . . . . . . ",
". . . . . . . . . .     . . . . . . . . . . "};
