/* XPM */
static char * EstadoSinInformacion_xpm[] = {
"22 18 115 2",
"  	c None",
". 	c #275674",
"+ 	c #929292",
"@ 	c #909090",
"# 	c #A1A1A1",
"$ 	c #9D9D9D",
"% 	c #BEBEBE",
"& 	c #CFCFCF",
"* 	c #9A9A9A",
"= 	c #919191",
"- 	c #C6C6C6",
"; 	c #D3B97F",
"> 	c #F6BE50",
", 	c #E9AC28",
"' 	c #D99B25",
") 	c #C9C9C9",
"! 	c #868686",
"~ 	c #CECECE",
"{ 	c #D9BB60",
"] 	c #F1CB62",
"^ 	c #F6DD9B",
"/ 	c #FED86C",
"( 	c #F8BB31",
"_ 	c #EAA735",
": 	c #E59F1E",
"< 	c #D99417",
"[ 	c #D0D0D0",
"} 	c #F8C15D",
"| 	c #F9CD5B",
"1 	c #F0D795",
"2 	c #FAE39D",
"3 	c #5C5A5B",
"4 	c #65604F",
"5 	c #D5870B",
"6 	c #E5982C",
"7 	c #E4A31F",
"8 	c #CB9718",
"9 	c #F1CC56",
"0 	c #F5CE53",
"a 	c #FBD97C",
"b 	c #F5D888",
"c 	c #4A484B",
"d 	c #3E2C1E",
"e 	c #C3770A",
"f 	c #F08703",
"g 	c #DB720F",
"h 	c #D88614",
"i 	c #EEC94C",
"j 	c #F3C73F",
"k 	c #FCCC4D",
"l 	c #E9B02D",
"m 	c #2A1809",
"n 	c #3A281A",
"o 	c #B3630A",
"p 	c #F17D0D",
"q 	c #DD680B",
"r 	c #D67913",
"s 	c #D1D1D1",
"t 	c #EAC65D",
"u 	c #F3C338",
"v 	c #F8B123",
"w 	c #DD8200",
"x 	c #37210C",
"y 	c #C66D0A",
"z 	c #F17F10",
"A 	c #E07515",
"B 	c #D68824",
"C 	c #E3C573",
"D 	c #EEB134",
"E 	c #F29624",
"F 	c #DD7501",
"G 	c #2D231B",
"H 	c #382D23",
"I 	c #D1720A",
"J 	c #F4911D",
"K 	c #E68F24",
"L 	c #D29B3D",
"M 	c #C7C7C7",
"N 	c #BABABA",
"O 	c #CBB074",
"P 	c #EAA340",
"Q 	c #EE8E23",
"R 	c #E37B05",
"S 	c #DE780A",
"T 	c #EE931F",
"U 	c #F7A029",
"V 	c #E7A532",
"W 	c #C29632",
"X 	c #B5B5B5",
"Y 	c #969696",
"Z 	c #DB9D2A",
"` 	c #ED8D1C",
" .	c #EA7E0C",
"..	c #393230",
"+.	c #534330",
"@.	c #D9A03C",
"#.	c #FAC242",
"$.	c #E3A421",
"%.	c #AF996B",
"&.	c #EA9610",
"*.	c #ED851A",
"=.	c #675942",
"-.	c #CEA046",
";.	c #F1B42A",
">.	c #BB9D57",
",.	c #B79253",
"'.	c #EA992E",
").	c #CC893A",
"!.	c #C89443",
"~.	c #F2B02C",
"{.	c #BD9E54",
"].	c #E39F40",
"^.	c #F5A610",
"/.	c #BFBFBF",
"(.	c #BDBDBD",
". . . . . . . . . . . . . . . . . . . . . . ",
". . . . . . . . . + @ @ + . . . . . . . . . ",
". . . . . . . # $ % & & % * # . . . . . . . ",
". . . . . = @ - - ; > , ' ) - @ + . . . . . ",
". . . . ! ~ & { ] ^ / ( _ : < & ~ ! . . . . ",
". . . . ! [ } | 1 2 3 4 5 6 7 8 & ! . . . . ",
". . . . ! & 9 0 a b c d e f g h & ! . . . . ",
". . . . ! [ i j k l m n o p q r & ! . . . . ",
". . . . ! s t u v w m x y z A B & ! . . . . ",
". . . . ! [ C D E F G H I J K L M ! . . . . ",
". . . . . N O P Q R F S T U V W X ! . . . . ",
". . . . . Y & Z `  ...+.@.#.$.~ Y . . . . . ",
". . . . . ! [ %.&.*.m =.-.;.>.~ ! . . . . . ",
". . . . . . ! & ,.'.).!.~.{.& ! . . . . . . ",
". . . . . . . ! & - ].^.- & ! . . . . . . . ",
". . . . . . . . ! /.& & (.! . . . . . . . . ",
". . . . . . . . . ! ! ! ! . . . . . . . . . ",
". . . . . . . . . . . . . . . . . . . . . . "};
