/* XPM */
static char * estaciones_1x1_oscuro8_xpm[] = {
"100 75 9 1",
" 	c None",
".	c #271B2C",
"+	c #838484",
"@	c #405360",
"#	c #5E5B61",
"$	c #767576",
"%	c #D3D3D1",
"&	c #653446",
"*	c #393C4C",
"%%%%%%%%%%%%%%%%%%%%%%%%%%%%%%%%%%%%%%%%%%%%%%%%%%%%%%%%%%%%%%%%%%%%%%%%%%%%%%%%%%%%%%%%%%%%%%%%%%%%",
"%%%%%%%%%%%%%%%%%%%%%%%%%%%%%%%%%%%%%%%%%%%%%%%%%%%%%%%%%%%%%%%%%%%%%%%%%%%%%%%%%%%%%%%%%%%%%%%%%%%%",
"%%+%%%%%%%%%%%%%%%%%%%%%%%%%%%%%%%%%%%%%%%%%%%%%%%%%%%%%%%%%%%%%%%%%%%%%%%%%%%%%%%%%%%%%%%%%%%%%%%%%",
"%%+......................**..**************@@*@****@*$$++++++++++++++++++++++++++++++++++++++++++%%%",
"%%+....................*.**..***************@*@*@**@*$$++++++++++++++++++++++++++++++++++++++++++%%%",
"%%+*....................*.*********************@@@@@@$$++++++++++++++++++++++++++++++++++++++++++%%%",
"%%+.*...................*..*******************@**@*@#$$++$++++++++++++++++++++++++++++++++++++++$%%%",
"%%+...*...................**.****.**********@****@@@*$$++$+++++++$+++++++++++++++++++++++++++++++%%%",
"%%+....*..................**....********@****@@**@@@*$$++$$++$$$++$$$$+++++++++++++++++++++++$$$+%%%",
"%%+.....*.......................*******************@*$$++$$$$$$$$$$$$$$$$++$+++++++++++++++++$$+$%%%",
"%%+...........................***@*&**..********@*@@*$$++$$$$$$$$$$$$$$$$$$$$$$+$$$+$$$+++++++$$$%%%",
"%%+........*.....................@#*@@####@*******@**$$+$$$$$$$$$$$$$$$$$$$$$$$$+$$+$+++$+$$$+$+$%%%",
"%%+..........*..................*...***....**#####***$$+$$$$$$$$$$$$$$$$$$$$$$+$$+$+$$$$$+$+$$$++%%%",
"%%+...........*..................**...************###$$+$$$$$$$$$$$$$$$$$$$$$$$$$$$$+$+$$+$$$$$$$%%%",
"%%+**..........*.................**..***********@***@$++$$$$$$$$$$$$$$$$$$$$$$$$$$$$$$$$$$$+$+$$$%%%",
"%%+*.**..........*..............**.*....************#$++$$$$$$$$$$$$$$$$$$$$$$$$$$$$$$$$$+$$$$$$$%%%",
"%%+.**.**.........*...................*************@*$++$$$$$$$$$$$$$$$$$$$$$$$$$$$$$$$$$$$$$$$$$%%%",
"%%+.*..*.**........*.................************@***$++$$$$$$$$$$$$$$$$$$$$$$$$$$$$$$$$$$$$$$$$$%%%",
"%%+...***..*..........................**...********@@#+$$$$$$$$$$$$$$$$$$$$$$$$$$$$$$$$$$$$$$$$$$%%%",
"%%+.....*.**.*.........*.....*.......*.*************@#+$$$$$$$$$$$$$$$$$$$$$$$$$$$$$$$$$$$$$$$$$$%%%",
"%%+..*....*.*.**........*....@......@....**********@@$+$$$$$$$$$$$$$$$$$$$$$$$$$$$$$$$$$$$$$$$$$$%%%",
"%%+.*...*....*****.......**..@......@.*......******@*#+$$$$$$$$$$$$$$$$$$$$$$$$$$$$$$$$$$$$$$$$$$%%%",
"%%+#*.**..*...*.*.*..........#......@.*.....*..****@@#+$$$$$$$$$$$$$$$$$$$$$$$$$$$$$$$$$$$$$$$$#$%%%",
"%%+####*........******.......@......#......*..******@#+$$$$$$$$$$$$$$$$$$$$$$$$$$$$$$$$$$$$$#$$$$%%%",
"%%+$@#####**..*.*.******.....#*...*.#..*.....*.****@*#+$$$$$$$$$$$$$$$$$$$$$$$$$$$$$$$$$$$$$$$$$$%%%",
"%%+++$$#####@*..**...****....@.*....#.......*********#$$$$$$$$$$$$$$$$$$$$$$$$$$$$$$$$$#$$$$$$$$$%%%",
"%%++++++$@####@.*.*...*.***..#......#.........*****@@#$$$$$$$$$$$$$$$$$$$$$$$$$$$$$$$$$$$$$$$$$++%%%",
"%%+++$+++++$##$##...**..****@@...**.#@@@*..*..*****@*$$$$$$$$$$$$$$$$$$$$$$$$$$$$$$#$$$$$$$++++++%%%",
"%%+++++++$++++$####*...**.***@...*.*#....*#@@*******@$$$$$$$$$$$$$$$$$$$$$$$$$$###$$$$$$+++++++++%%%",
"%%+.@#$++++++++++$####@.*****@**....#****....@@*****@$$$$$$$$$$$$$$$$$$$$$$$$##$$$$$$++++++++++++%%%",
"%%+.*****$$++++++$+$$$###*.*******..#***...*@@#******$$$$$$$$$$$$$$$$$$$$$$##$$$$$+++++++++++$$$$%%%",
"%%+&&*****.$++++++$#$$++$##@**.***@@@#######.*#*****@+$$$$$$$$$$$$$$$$$$#$$$$$$+++++++++$$$$$$$$$%%%",
"%%+####&.*...*#++$$$$$+$+++$#@@@@@@&#&#####$$*#..**.@+$$$$$$$$$$$$$$$$##$$$$++++++++$$$$#**$$$$$$%%%",
"%%+####$+$$##*.$$$@++++++++++@@@@@@@@@@@@@@@@$$.*.**#+$$$$$$$$$$$$$##$$$+++++++$$$$$$$$#*.#..#$$$%%%",
"%%+&#&&####$#$$$#&*...$..#$+$@*@@*****&$###@#@$#*@#*#$$$$$$$$#$$$$$$$++++++$###$$$$$$$#**...#.$$$%%%",
"%%+$#&#######$$+$#&###&#&.*.***@$@**&##$$$$$$$#+#..##$$$$$$$$$$$$$$+++$$$$&$$$$$$$$$$$#.#####*#$$%%%",
"%%++++&$$$$#$$##$#&#$$$$$$$$.#.$$$@.&##$$$$$$$$$+$..$+$$$$$$$$$###$$#@#+$$*$$$$$$$$$$$$.###$##$$$%%%",
"%%++++#$$#+$$#++$&######$$$$$@.$$$@.&$$$$$$$+$$$$$*..$$$$$#$++$*###*#$$$+$#$$$$$$$$$$$#$$#####$$$%%%",
"%%++++#$$$$++$++$*$+$$$++$$#+*.##$#*@$$$$$$+$+#$$$#..$*.*$.$$+$&$#$#$$$$$+#$$+$$$##&$$#$++$$#*$++%%%",
"%%+$$$#$$#$$$#++$##$$$$+++++@@.##$@*#$$$$$$+$$*$$$@*.*#@.&$$+$$$#$*$$$$$+$##$+.*$##&$$&$++++$.$$$%%%",
"%%+$$$#$$$#$+&$$$$#$$$#$$$$$*$#*$#**@$$$$$$$$$@$$$@*..@#.&#$+$$+$##$$$+$$$$*##..@#$&$$$#$++++$@$$%%%",
"%%++++&$$$#$$#++$$#+###++$$+#@@$#@@*#$$$$#+$$$@$$$#@.@@#*@##*.#++$##$$$$#$$#..*..##$$$@#$$++$.*#+%%%",
"%%++++&$$$#$$#$$$$&#$$###$$$#*.$$@@*@$$$$+$$$$@$$$$#.*@#**#*.@.#$*@@#$+##$$$$.*.*$$$@#$$$$+#&&&@$%%%",
"%%+&&&&$$##$$&&&#$#$$#@++$$$#*.@$#@.#$$$$#$$$$*#$$$*@**@.##*@#*@**@@@$*##$$$#@...#$#@#$$#.$##@@**%%%",
"%%+$$$&$$$#$$#++$#&$$$@##$#$#..##.#.@@$*&*...*.#$$$#$#*&#$$*@@**@*@@*@@###$$&&.@$$$###$$$$&@&@@*@%%%",
"%%++++&$$$#$$#$&#$#$##@+$$$$#***##$*@#$$***&***#$$#$$$@#$$#@@@*@###@@#####$$&#*@$$$$#$$$$#######*%%%",
"%%+$$#&$$$#$$&$$#.&#&#&##$$$#*@@#$#*.*$&@......$$$@$$@@**#**@@@@####@#########*$$$$$#$$$#&#####@#%%%",
"%%+&&&&$$$#$$#$##&###$$$$$$$#&.##$@$*$$$.......$$$#$$$**.#**@@*@##@#@####@@####$$$$##$+$&@######*%%%",
"%%+$++########&######&&###$$#*.###*#.###.......$$##$$$@@@#**@@*@##@@@###@#@###$$$$$#$+$$&@#####@*%%%",
"%%+$#&&&&&#&##$+$&&&&#&&&$&##..@@#@*.&+#.......$$*#$$$*@.#..***@#@@@@@###*@##$&$$$$#++$+&######**%%%",
"%%+&&&&&#&##&###&&&&&&#&&$&##..#@#**$$+$#......$#.#$$$@@&#*.*@**@@@@**###@*##..$$$$$+++$$######@*%%%",
"%%+&&&&&#&###&&&&&&&##&&#$###..###@*$$+$#......$#*$$$$**&#..**@@@@*@**####@##..#$$$++++$+*#####@@%%%",
"%%+$++&#&&$+&&&&&&&&&&&&&#+##..$##**.#$&......*$###$$$@*.$.**@*@@**@**@@#*@##*.#$$$++++++.######*%%%",
"%%+#&&&&&+$+$&&&&$&&&&&&&&#&...$@#@*..........##$@#$$+....***@*@#@@@***@**@#&..$$$++$$$++.*####@*%%%",
"%%+&&&&&$+&&++&&&&&&&&&&#&#@**.*@***...#.....@@#$$$$$$$$##*****##*@#**@#.*@##.*$$$#+$*++$**###*@*%%%",
"%%+&&&&&+&&&#+&&&&&&&&&#####$@@@@@@@@##@@#@#$$+.#$$$$$$###*@*@**#*##**@#*..$&...##.*+.#$@#####&**%%%",
"%%+&&&&$#&&&+&&&&*.&&#&&#..*$$$+++$++$+++$$#&+$.#$$$$$$$##****##*@#@**###.*$&...*..@####@######@*%%%",
"%%+&&&&+$&&$$&&&&.&&##&..#**$$+++++#$++++$+&&+$*#$$$$$$###**#**@@@@@*@###@*&#*..@.*##@#######@***%%%",
"%%+&&&&#+$&+&&&&&......@#@*###*##$$$$$$$##**+$#*$$$$$$$$$$**#*@@#@@@**##@@###...#**##*#######&*.*%%%",
"%%+&&&&&#+$$&&&&&....**@#*#*.$@*@#######.***+$@#$$$$$$$$$$***@@@*###**#@#@####@.$#.@#**###@@***.@%%%",
"%%+&&&&&&&$&&&&&&..*..**#@.**#@@@@##@#@#*@@*$@@$$$$$$$$$$#***@@###@#**##@*####$.$$..*#*@@*****.*@%%%",
"%%+&&&&&&&&&&#&......**.*.@*##@*@##**#@#&.*@@**$$$$$$$$$$$***@@@##@#*@##@#$##$*#$$...**#....**@*@%%%",
"%%+&&&&&&&&&&...........***@##***.*####@###****$$$$$$$$$$$***@@@@###*@####$##$$$$$#.#@#$@*@*@*@*@%%%",
"%%+&&&&&&&&&............*####.***#*@*.#@#######$$$$$$$$$$$***@#@@@@#*@###@$#.$$$$$..##@&@*@*@****%%%",
"%%+&&&&&&.*.##*.......*@*@##.@###@@##@####@@*##$$$$$$$$$$$***###@#@#*#####$##$#$$#..#####*@*@@***%%%",
"%%+&&&&&..@$##.......**####*.###@##########@@#$$$$$$$$$$$$#**@#@@###*####*$#$$##$$$$####@#*******%%%",
"%%+&&&.&**$###.....*@#@$##**####@@@########*##$$$$$$$$$$$$$#**@#@#@@*####*$#$$$$####*@##&&*******%%%",
"%%+.&&##@@#*##....*@@####.*##@*#@@#########@#$$$$$$$$$$$$$$@*@##@@@#*####@$#$$$$$$$$#***##@******%%%",
"%%+..*###*@#*#.*.**@####..$##**@*@########@@@$$$$$$$$$$$$$$$*@#@#@#**###@*$#$$$$$$$$*@***#@*****.%%%",
"%%+..**@**@@*##**@@###@..###*@**@@##@####@*#@$$$$$$$$$$$$$$$*@*@@@@@.$@##@$#$$$$$$$$***#$*******.%%%",
"%%+*.*##*@***.@*@@####..###@@@*@@@##@@#@*#@##$$$$$$$$$$$$$$.*@#*@@@*.$#@@*##$$$$$$$$*@*********..%%%",
"%%+#.####@.*.**@####*.*#$#@@*@*@**##@@#@@#*#$$$$$$$$$$$$$$$$*##@@@##.$###@.*$$$$$$$$****@@*****..%%%",
"%%+++++++++++++++++++++++++++++++++++++++++++++++++++++++++++++++++++++++++++++++++++++++++++++++%%%",
"%%%%%%%%%%%%%%%%%%%%%%%%%%%%%%%%%%%%%%%%%%%%%%%%%%%%%%%%%%%%%%%%%%%%%%%%%%%%%%%%%%%%%%%%%%%%%%%%%%%%",
"%%%%%%%%%%%%%%%%%%%%%%%%%%%%%%%%%%%%%%%%%%%%%%%%%%%%%%%%%%%%%%%%%%%%%%%%%%%%%%%%%%%%%%%%%%%%%%%%%%%%"};
