/* XPM */
static char * trenes_1x1_xpm[] = {
"100 75 139 2",
"  	c None",
". 	c #9CA9A4",
"+ 	c #838471",
"@ 	c #A6AFAA",
"# 	c #94A29A",
"$ 	c #7E8D7E",
"% 	c #859487",
"& 	c #637669",
"* 	c #556A5F",
"= 	c #708173",
"- 	c #B4B9B1",
"; 	c #EAE6E4",
"> 	c #151D1F",
", 	c #212D2C",
"' 	c #515C58",
") 	c #CDCBC6",
"! 	c #D7D4D0",
"~ 	c #C4C2BC",
"{ 	c #BABBB6",
"] 	c #A1A79D",
"^ 	c #6A7D73",
"/ 	c #7F8F86",
"( 	c #8D9B91",
"_ 	c #B0B5B0",
": 	c #626967",
"< 	c #414137",
"[ 	c #E0DDDA",
"} 	c #C3C4C0",
"| 	c #767967",
"1 	c #BBC0BA",
"2 	c #B9BEBA",
"3 	c #2E3E3A",
"4 	c #A6AEA6",
"5 	c #3C4944",
"6 	c #A8AEA6",
"7 	c #97A197",
"8 	c #3B4E47",
"9 	c #49554E",
"0 	c #A0AAA1",
"a 	c #89958C",
"b 	c #3F332B",
"c 	c #9EA8A0",
"d 	c #8F9992",
"e 	c #6F7975",
"f 	c #8F5034",
"g 	c #485F55",
"h 	c #4E5145",
"i 	c #78887D",
"j 	c #946B4C",
"k 	c #8B8B7B",
"l 	c #586361",
"m 	c #79807B",
"n 	c #79402A",
"o 	c #C3C7C4",
"p 	c #5B6252",
"q 	c #637166",
"r 	c #56655C",
"s 	c #65736F",
"t 	c #485A51",
"u 	c #ACA59A",
"v 	c #7C8A82",
"w 	c #7F8181",
"x 	c #B2B4AC",
"y 	c #767877",
"z 	c #869088",
"A 	c #5D6C65",
"B 	c #4F4C42",
"C 	c #8E7358",
"D 	c #99A29C",
"E 	c #32231E",
"F 	c #4B4439",
"G 	c #7E5A42",
"H 	c #6C5241",
"I 	c #B9B1A4",
"J 	c #9DA59C",
"K 	c #615443",
"L 	c #4F291D",
"M 	c #8C928F",
"N 	c #686D5D",
"O 	c #56534B",
"P 	c #523629",
"Q 	c #929284",
"R 	c #A2907E",
"S 	c #72847C",
"T 	c #A69F90",
"U 	c #9A8974",
"V 	c #897C65",
"W 	c #90836E",
"X 	c #936D56",
"Y 	c #9A998E",
"Z 	c #CDCDCA",
"` 	c #915D40",
" .	c #8C4328",
"..	c #6C2F1C",
"+.	c #6B5744",
"@.	c #736B5B",
"#.	c #636459",
"$.	c #8C664C",
"%.	c #756960",
"&.	c #5E4737",
"*.	c #988A78",
"=.	c #544435",
"-.	c #585446",
";.	c #7C4D36",
">.	c #707466",
",.	c #666051",
"'.	c #9D7566",
").	c #8A361C",
"!.	c #694A38",
"~.	c #AEA69A",
"{.	c #B59F8E",
"].	c #939C92",
"^.	c #79634E",
"/.	c #714A34",
"(.	c #957C6C",
"_.	c #B7AFA4",
":.	c #9C988A",
"<.	c #8F9A8D",
"[.	c #936F60",
"}.	c #7B705A",
"|.	c #A77C6C",
"1.	c #7D8070",
"2.	c #A49F94",
"3.	c #6E6550",
"4.	c #6C6F6D",
"5.	c #5C3A2B",
"6.	c #594F43",
"7.	c #806A58",
"8.	c #B2B7B0",
"9.	c #895940",
"0.	c #B0A89A",
"a.	c #5B625E",
"b.	c #91604A",
"c.	c #84614D",
"d.	c #967A62",
"e.	c #81684E",
"f.	c #5B5D4F",
"g.	c #B8ACA0",
"h.	c #85877A",
". + . . @ @ # @ @ . $ % $ $ & $ * = $ - ; ; = > , , > > > > > > > > > > > > > > > > > > > > > > > > > > > > > > > > > > > > > > > > > > > > , ' ) ) ! ; ) ~ { ~ { ! ] ^ / ( { _ { { _ : , < ! ; [ } _ : ",
". ( $ $ # @ # % $ $ ( & = * = = | $ 1 ; ; - > , > > > > > > > > > > > > > > > > > > > > > > > > > > > > > > > > > > > > > > > > > > > > ' ] ) ! ! ) ) ~ ~ { ) @ * $ # . # . _ @ @ _ @ 2 ! ) $ # 3 , > > ",
"( . # % + $ # # # $ ( $ $ = = & + . ; ; 4 5 , > > > > > > > > > > > > > > > > > > > > > > > > > > > > > > > > > > > > > > > > > > > ( } ) ! ! ! ~ ~ _ ~ 6 = | # , > # # # # { _ @ 6 7 & * > > > > > > > ",
". ( % $ $ $ $ $ % * $ $ = = & = $ ; ; 4 8 > > > > > > > > > > > > > > > > > > > > > > > > > > > > > > > > > > > > > > > > > > 9 0 ~ ; ; ) ) ~ ~ ~ ) . a . # . # b , # # _ @ 6 _ 6 c ( 3 > > > > > > > > ",
"* $ ( % $ = = $ * $ * = = & & $ ; ; d 5 > > > > > > > > > > > > > > > > > > > > > > > > > > > > > > > > > > > > > > > > > e ) ! ; ) ~ ~ ~ { ~ ] $ . # # # . # @ f , . _ @ _ _ { @ c ^ , > > > > > > > > ",
"$ g & & * & * * * * $ & g 8 * [ ; ; 3 > > > > > > > > > > > > > > > > > > > > > > > > > > > > > > > > > > > > > > > h _ ~ ! ! ) } { { ! a i # # @ # 6 @ _ @ @ @ j k @ 6 _ 6 @ @ _ @ l > > > > > > > > > ",
"* = $ & & * & g * & & & = & m ; ; 8 > > > > > > > > > > > > > > > > > > > > > > > > > > > > > > > > > > > > > > : } ) ; ! ~ ~ ~ ) @ = # . # . c 6 _ @ @ _ _ { _ f n @ @ @ 6 @ _ @ # l > > > > > > > > > ",
"& * 8 g * & * & * & = * & ( o ; 3 > > > > > > > > > > > > > > > > > > > > > > > > > > > > > > > > > > > > > 6 } [ ! ) ~ ~ ) ] # . . . . # @ _ { . @ ~ _ _ { . @ , 8 c @ @ _ ~ _ 6 # ' > > > > > > > > > ",
"g * * & & & * * & & * = 7 @ } g > > > > > > > > > > > > > > > > > > > > > > > > > > > > > > > > > > > p ~ ) ! ) ) ~ ) ~ $ # . # # # _ @ % i q / @ { _ 7 r s @ # g g { @ @ c ) ! _ # l > > > > > > > > > ",
"* * & * g t * & * * * = - u r > > > > > > > > > > > > > > > > > > > > > > > > > > > > > > > > > < v ; ; ) ) ~ { { ( # . # # . _ _ @ $ . & ^ $ ] # , = # . # # . > # 6 . . _ [ ; _ # ' > > > > > > > > > ",
"g g g g * * & * * & & - ; w , > > > > > > > > > > > > > > > > > > > > > > > > > > > > > > > e } [ ! { { { ) ( ( c c . c @ x { _ _ ~ & . & ( @ . 3 % . # # # . @ . $ 8 3 / _ ) ! _ . l > > > > > > > > > ",
"g g g g g 8 3 3 * & & ; y 3 > > > > > > > > > > > > > > > > > > > > > > > > > > > > , { ~ ; ) ~ { { $ % # # # # @ _ @ _ ~ { @ _ _ @ ~ c _ _ { _ * # # # . # # , > > > , : o 6 { { @ 9 > > > > > > > > > ",
"g * & g 8 , 3 > , & = r + 5 > > > > > > > > > > > > > > > > > > > > > > > > > b z ) ! ~ ~ ~ { 7 % # # . # @ @ { _ @ { ~ # _ _ { @ _ @ _ @ @ _ ~ & @ . 5 & ( . > > > > , l ~ _ ~ { @ ' > > > > > > > > > ",
"& g & 8 a _ c s 8 * | A $ B 8 | > > > > > > > > > > > > > > > > > > > > > > @ ! ! ~ ~ ) $ ( . . . . @ { { ~ @ _ ] A > C + . _ . _ 6 { # 8 g 8 z $ # . > , l r , > > > > l @ @ @ { @ 9 > > > > > > > > > ",
"g * g * D ; ; ; ; ; ; ; ; ; [ > > > > > > > > > > > > > > > > > > > > l ) ; ) _ ~ ] % # # # c _ { _ @ @ 6 ~ E F G H E > > _ @ k g 8 8 8 g g 8 z ( ~ , , > e l 8 g , 3 3 m _ { @ ) . ' > > > > > > > > > ",
"g g g 8 D ; I 1 ; ; ; ; ; ; ; 3 > > > > > > > > > > > > > > > > 3 J ! ! ~ @ ) ( # # . . @ ~ . _ @ x @ . _ 8 K b b L > > > 8 g 8 8 8 8 g 8 8 * v . { g > , d y $ ( { [ ; ; ! c _ ! # 9 > > > > > > > > > ",
"g 3 8 8 M ; ; ; ; ; ; ; ; ; ; 3 > > > > > > > > > > > > > > N ) ; ~ ~ ~ % . . . @ . { . # _ @ _ _ _ @ ~ . p O L b P Q R ( 8 8 8 8 g * = & = z _ ( { g > t D M [ ; ; ! ! ! _ @ _ ~ # 9 > > > > > > > > > ",
"8 8 3 3 S { [ ; ; ; ; ; ; ; ; > > > > > > > > > > > > < T ; [ ) ) _ @ . . . { 6 c _ 6 # . 6 c _ @ . = g 8 | U V W X f Y L g & i $ ! { ; ; [ ; ! # @ # @ _ { z ) { ~ 7 = S @ _ _ ~ ( 5 > > > > > > > > > ",
"8 , , 8 w ; y , > > , 3 3 K / > > > > > , , > > , : Z ! ! ; . ; ! [ { { @ @ { 5 t % . @ c . % 9 : ^ * g * h Q j `  .> b , z ; ; ; ; ; ; [ ~ z z @ # ; [ ) { l 8 , , > > S @ _ . ~ ( 5 > > > > > > > > > ",
"3 , 3 , z 3 > > > > > > > > > > > > > > > > , # ; [ [ { } ) [ ; ; ! _ _ . % + F F l ^ g > C . V N & g * * , A > > ..+..., ; ; ; [ ~ ! . / = ] _ . | ~ ! ~ ] ' > > > > > s . . # ~ ^ , > > > > > > > > > ",
", 3 , ; 5 > > > > > > > > > > > > > > > : 2 ~ _ ~ ( @ . _ ~ { _ _ _ _ { . . @ < @.#.g * > ( ` ` $.= ; ~ ; > %.b E , b &.8 ~ @ ( ( g g g 8 8 g s _ & , ' # z 5 , > > > > l # { . ~ ' > > > > > > > > > > ",
", 8 @ . > > > > > > > > > > > > > > ! ) _ @ ( # @ 6 ~ ~ S p & ~ @ . ^ r 8 _ R f f & 8 & > *.*.X $.^ ! [ { , W =.3 , -., E & & 8 8 8 8 8 8 8 8 S . & , a . s 3 > > > > > A # . # ~ 9 > > > > > > > > > > ",
". $ & g 5 > > > > > > > > > 9 [ @ # S % % . . ( . @ _ # ' ;.g N B & * * | @ @ X Q >.8 * > ;.;.+.,.= = Q ( > '. . .).f j j 8 8 g 8 g 8 3 3 3 t & . @ > : @ ' > > > > > > l . # . c l > > > > = _ } [ [ ) ",
"= ~ . * 5 > > > > > > 5 4 Z 6 $ ( % @ 7 # # -.. ( N & $ 9 !.| ! S o ! ; _ @ ~.f {.].8 8 N p ^./.,.g 8 ( _ > W (.@ _.:.j W 8 8 8 8 , 3 3 3 3 9 & # _ > ' # ' > > > > > > l . c # # ' 5 9 , > | # # ( $ ^ ",
"= ~ & & ' > > > > $ ~ ] $ ( _ % * $ # <.& N -.6 * A 2 ! w &.c ! Z [ T = -.+ @ ` [.& g > = j W }.8 g 8 g _ , *.~.|.P > ( @ 8 g 3 8 , 3 3 , 3 r & # ( > 5 S ' > > > > > 3 ^ c @ ( . 9 > > > > > > > > > > ",
"$ & * > > > > =.> * $ . _ / v # # * r D J D F @ ; Z ! x S n _ -.-.8 F * & C @ 6 1.g 8 > 8 , E 9 g 3 8 8 # , 2.~.[.L * ) ~ 8 3 8 8 3 3 8 , 8 ^ S # * > , ' l > > > > > 3 / # @ @ . ' > > > > > > > > > > ",
"8 , > > > > > > > % 8 = = * = % }.& * z [ ! , . + -.g S Q -.( * -.3 5 g % , @ B 3.8 8 > , > 4.Z M 8 g * ~ > Y R %.5.# ) _ 8 g , 8 , 8 8 8 3 ^ S % 8 > > l ' > > > > > 9 % . # # . l > > > > > > > > > > ",
"g > > > > > > > > * $ | = & ( % % 8 g 8 N p n Y 6.g 8 v _ > & 8 3 3 5 g # > 2.` 3., 8 > > > B g 8 8 & = . < Y Y 7.b , -.$ 8 3 3 8 8 , 8 3 , s ( & 3 > > l ' > > > > > 9 ( @ # # # ' > > > > > > > > > > ",
"g > > > > > > > > g . p 8 8 8 ( V , 3 3 g -.-.j 8 8 8 v ~ > 8 g F g t g _ > k ` K 8 3 > , > 3 , 3 3 8 8 . j G f ..E , -.* 8 8 3 3 3 8 , 8 3 s # * > > > A ' > > > > > ' . . # # . 9 > > > > > > > > > > ",
"> > > > > > > > > g . 8 3 8 8 c 8 > 8 , 8 +.| 5.g 8 t z } E 8 g 8 -.* g 6 > Q B 3 3 3 > , > b > , 3 8 8 . k E 5.L > > > 3 3 3 , 8 , , 3 , 3 ^ # & , > , 9 9 > > > > > ' ( # . # # 5 > > > > > > > > > > ",
"3 > > > > > > > > * @ * * * r ( 8 = , 5 N ' # j 8 & g S } C , g -.-.g 8 { > C l 3 3 3 > > > > > 3 3 3 8 # @ > L > > > -.8 8 , 3 8 3 , 8 3 3 l # $ . > % ( s > > > > > 9 # . # # . 5 > > > > > > > > > > ",
"> > > > > > > > > % # ( % % $ $ | $ = $ & $ ~ 3 # # ( # _ +.# # . . # @ _ p ` 8._ . . . $ ( % $ ( % # % $ _ b P b > > 9.g 8 8 g 3 , 3 3 3 3 ^ # c 3 > l . / 9 , , 8 ' . # . # # # 5 > > > > > > > > > > ",
", > > > > > > > > ( $ ( % ( $ g + $ $ = $ + ) > ( ( # k 0.E # . c # # # # V j (.Q ( ( # . . # . # # . # V ~ @.3.=.> L 8 . . . # # . . . . # # . # # . s s # # ( $ $ ( # # # # # ( 3 > > > > > > > > > > ",
"$ # $ & 8 g 3 > * % . # % # ( 8 * * $ = $ $ ) Y $ % ( S 4.> . . # # # . % @ > > ' ( . # ( ( # ( # # ( % 3 _ E > B (.( & . # # # . # # # # ( / # # # # # c # # # . . ( ( . # . # ( 3 > > > > > , > > > > ",
"( . . # $ $ $ $ # & g = # ( ( > % ( $ $ $ % ) Y # . . A a.b . # # # . # }.~ j b l ( # # # ( % . ( ( . c > @ > > > > > $ # # . # # . # # . % % # ( ( # # / S # # # # # # # # # . $ 3 , , , , , , , , , , ",
"$ % $ $ $ $ $ ( ( # @ . s g = 3 ( $ $ % # # > , @ # . A 4.( . # . . . # -.~ Q > ' # ( % ( . ( # ( # ( # > _ /.b b.c.> # ( # # . # # ( # # % % ( . ( # ( % ( # . # ( # ( . # # . # , , , 3 , , , > 3 , , ",
"$ # $ % ( # ( ( c % # ( # % ( g > = & $ % % > p . . . l > > @ . . # ( . > ) Y Q % ( # ( ( % # ( ( # # $ > _ L K =.> > ( . ( ( . ( # # # # S i ( $ # ( ( % / # # # . ( ( # # # . ( , , , , > , , , , , , ",
"{ . ( . @ _ _ @ @ @ . . ( % . $ ( ( & t 5 & N $ . # # l > > # . . . . . > *.;.V Q ( ( $ ( # ( ( ( . % ( > @ =.> > =.> . # # # # # # . # . / = S # ( ( ( ( ( # . # # # # . # # . $ , 3 , > , , , , , , , ",
"@ . @ @ _ _ { ~ { { c _ ~ ~ ~ @ . . Q ( # ( -.g & 7 . l > > _ . . . . # > > > 9 $ ( # ( ( ( ( # ( # # ( > # W W *.W j ( # # # # . # # % # / t S ( ( # # ( ( # # # # . # # . . ( # , , > , , > 3 > , , , ",
"_ @ 6 _ @ @ . @ @ . _ @ _ { ) _ . . . @ _ c @ @ # 9 5 & & % # { _ . _ # > > > 5 ( . # . ( . ( # ( ( ( # > 2.d.j j j d.( # . # ( # # ( . % $ 9 ^ # ( . % ( ( # # # . ( # . # # . ( , , , , , , > , > , , ",
"{ # @ { @ @ @ @ @ @ { _ @ @ @ @ # Q c . @ @ . ~ ~ { { . i & & = 7 x _ c > > > ' . # # # . # # # . # % # > E > > E b 3 ( # . # ( # # . # % = g & # ( ( $ $ # ( # . # # # # . ( # ( 3 3 > , , , > , 3 > , ",
"# $ # ~ @ { @ @ c . { _ 2.. @ { . { ~ ~ ~ _ @ _ _ { { ] % @ # | 3 8 * N * 3 , l ( % % ( ( # % ( ( # ( ( > > > > > > > . $ . # # ( # # . # ( = i . # # ^ ^ ( . # # # ( ( # . # . % , , , , > , , , , , , ",
"@ { { { ~ ~ ~ ~ ~ ~ . _ _ @ _ ~ . @ c { ~ _ @ { ~ { ) ~ x ~ ~ { ~ . S 5 3 , 8 ^ $ % ( $ # ( # # # # ( | > > > > > > > # # # # # . # % # # # % $ ( # . ( # # . # ( ( # # # # # # $ 3 > , , , > , 3 > , , ",
"$ % ~ ~ ) ) ) ~ ~ { ~ ) ~ ~ ~ ~ ~ { ~ _ c 2.@ ~ ~ ~ { @ { @ ~ ~ _ { _ @ + p | , 3 3 , g $ ( ( ( ( ( # + > > > > > E !.. ( . # # ( # # # # ( # # # ( ( ( # ( # # # ( # . # . # . $ 3 , , , , , , , , , , ",
"@ { ~ ) ) ~ { { . @ @ ~ ~ ~ ~ ~ ~ ~ ~ ~ ~ ~ ~ ~ ! ~ _ @ 7 @ @ . . # ( # V % | = & g 5 , , 8 , & % # ( $ > > > > > E g % . ( # . . # . # # . ( % % # % ( # # # . ( . # # # # ( # % , , , , , , , , , , , ",
"~ ~ ! [ ) ) ) ~ ~ ) ~ @ @ @ . c # @ . . _ _ @ @ { ~ ) ~ ~ ) ~ ~ ~ ~ ~ { @ 7 # @ . # . = = > 3 > , 8 8 8 h 8 > > > E b . ( # # # # # # . # ( ( # ( # ( # ( . # # . # . # . # # ( $ > , , , 3 > , , , , , ",
". { ) [ ! ! ) ~ { . _ _ @ @ { ~ _ { _ @ _ . { { ~ ) ~ ~ _ ~ ) { ~ { _ { @ @ 2.~.@ _ @ @ ~ _ $ & 5 , > > > 8 t * * ^.-.( # # # . # . # ( . ( # ( ( . ( # # # . # ( # # # # # . ( $ , , , > > , > , , , , ",
"~ ~ ! ! ! ! ) ) ~ ) ) ) ~ ~ _ . . c # . _ ~ ~ ~ ~ ) ~ ~ { ~ ~ @ @ . . :.Q *.6 @ { . @ @ @ { @ _ . # % g , g > > 3 3 * . . ( # . . # # . ( # ( ( . # # . # ( # # . # . ( . # ( % * , , , > , , > > 3 > , ",
"_ ~ ) ! ! ~ ! ~ ~ ~ ~ ) ~ ~ ) ~ ~ ~ ~ ~ _ # ~ ~ c . . 2.. @ @ _ @ @ . % $ V C + V k % Y :.2.6 _ { . @ c V $ 9 3 3 3 > 8 8 t S ( . ( # . # . ( ( # # . ( # # # . # # # # . # # $ 8 , , , , > , , , > , , ",
"{ { ~ ) [ ! ) ) ) ) ~ ~ _ @ @ . @ . # # . . # . ~ ~ ~ { ~ { ~ _ . c 7 *.+ V }.| $ $ + + $ $ $ + + + W W k Y Q }.& g , , > , , 3 3 g % . # % $ % % # $ % % ( % # . # # # # . % ( , > , > , > , , > , , > ",
"# . ~ ~ ! ~ ) ~ ~ ~ ~ ~ ) ) ~ ) ~ { _ @ @ @ @ . c ~ ~ { ~ ~ % { { _ _ _ Y + V + V = + = V $ :.@ @ @ @ ( Q *.k k W ( & & * 8 , 8 , > , 8 3 r 5 r # ( $ # ( # # % # # # ( . # % % , , , , , , > , , , , , ",
"% # @ { ) ~ ~ { @ ~ _ { _ @ _ ~ { ) ~ ) ~ ~ { ~ ~ _ c ( Q . . . # # ( + + N C ( . . . # ( ( + | | + + 3.+.}.+.3.C e.+ { @ = * * t , , > , 3 3 , 8 g 8 = # # # # ( . ( ( # # # % 3 5 a _ _ . . $ r , > , ",
"% % . _ ~ ~ ~ { @ _ { _ _ @ @ _ # # . ( # ( . . ~ ~ ~ ] $ % ( $ ( @ _ . @ _ . @ @ @ @ _ _ @ { @ _ @ @ # V V -.-.-.g * = $ i c # S * = & > 3 3 > , 3 > & ( % ( # ( # ( ( . # % % > P n ).L # > g , > , , ",
"$ # 7 _ ~ ~ ~ 6 { _ ~ { _ _ @ # . . . . # # # ( # ( ] { ~ $ $ ~ _ _ @ _ _ @ @ _ @ @ _ . { . _ @ _ @ @ @ c c c Q # . @ @ _ @ 7 $ + @ _ = * g 3 , g , , , ' % % % # ( ( ( # % ( % , L ).).)., > , 3 , > , ",
"% $ . @ ) ~ ) _ ~ _ ~ { _ c _ . # @ { ) ~ ~ ~ ) ~ ~ ~ ~ { ~ { % $ = $ + + C + $ ( . @ @ _ @ . @ @ . _ R . . 2.6 2.2.. _ _ _ _ @ @ = $ $ = # . a & * g > , 9 $ % $ % $ ( ( % ( $ > 5.).).L $ ) g 5 , > > ",
"{ { { ~ ~ ) ~ ~ { ~ { ~ { ~ { ~ ~ ~ } ~ ~ ~ ~ ) ~ ) ~ { { { { ~ $ + $ | | N }.= = & | V $ $ @ _ @ { . 6 _ 2.2.2.2.2.@ _ # = $ $ $ $ = $ = & & = @ { = & & r g $ $ $ % % % % % $ , L ).).> $ $ = 8 > , > ",
"~ ~ ~ ) ) ! ! ! ) ! ! [ ! ) ) ) ) ) ! ) ) ) ~ ~ ) ~ { ~ { ~ ~ { @ c % $ + = V & }.$ N | = V + + + V }.e.C j V + W W + $ $ $ = = $ = $ $ = & = & & = | _ _ ( $ = $ = = $ % % % $ , > > > > > > > , > > > ",
"~ ~ ) ) ) ) ) ) [ [ ; [ ! ! ! ! ! ) ) ) ~ ) ~ ~ ~ ~ ) _ c Q $ $ $ $ + + }.& & % % ( _ @ @ @ @ @ _ @ 6 @ @ @ _ 2.. @ { { { _ { ~ _ _ _ @ _ _ _ _ _ { { { _ { . ~ % % $ S % $ $ i > , , , > > > > > > > > ",
"~ { ~ ~ ) ) ! ! ) ! [ ! ! ! ! ) ) ) ~ ) ) ~ ) ) ) ~ ] % % ( % $ $ $ $ + | | & & & & * & + % @ @ _ { _ @ c c 2.@ . @ { . { { { @ { { _ ~ _ _ _ { { { @ { { _ { ~ @ ~ _ ( $ $ $ ( , > > , > , , > , , > > ",
"~ { ~ ~ ) ) ! ) [ ! ) ; ! ) ! ) ) ) ) ) ) ) ) ) ) . ( % % % % $ $ $ = $ & V * $ & = = | = + = | + + 6 @ _ c @ @ 2.. { ~ _ { _ { _ ~ _ { { { @ @ { _ { _ _ { { _ { { ~ @ _ { + V g C f.3 , > , , > , > > ",
"~ ~ ~ ~ ) ) ) ! ! [ ! ! ! [ ) ) ! ) ) ) ) ~ ) ~ ~ _ ( ( ( $ # $ = $ $ + V + & = & = * & = N = $ $ + N V . @ _ ~.g.c _ { { _ { _ { . { . _ _ { { @ { @ _ { { { @ { { _ { _ _ @ @ 2.X ` e.g $ , > , > > > ",
"{ { ~ ~ ~ ) ) ) ! [ ; [ [ ! ! ) ) ! ) ) ) ~ ) ~ _ { _ . # ( # ( ( % + $ $ + + + + $ + * + * = N = + & N e.W _ ~._ c _ { { { ~ { { { _ @ { @ @ @ ~ _ @ @ @ _ @ { _ { @ { { { ~ @ . Q 2.@ # | & * * 5 > > ",
"~ { ~ ~ ~ ~ ~ ) ! [ ! ! ! ! [ ) [ ) ) ~ ) ) ~ ~ ( . ( ( # ( ( $ % $ + % . { { @ _ _ _ { { _ _ ( $ | + N | }.e.N N e.Q _ ~ _ { _ { . { { _ @ @ _ . { { { _ @ @ @ _ { { _ _ _ @ _ . ~.2.Y ( ~ ~ . & g g * ",
"{ ~ ~ ~ ~ ~ ) ~ ) ! ! [ ! [ ) ! ) ! ) ! ~ _ # # # ( # ( . ( % ( # _ ~ { { _ { _ { _ _ { { { _ { { { c _ _ c p N N = + V $ + + k c _ @ @ _ { _ _ ~ . { @ _ { _ ~ @ @ @ @ _ _ _ c _ Y @ . # @ 7 # # 6 h.& ",
"{ { ~ { { ~ ~ ) ) ! [ [ [ ) ~ ~ _ _ . . . . . # # # # % # # # $ ] ~ ~ _ { { _ { { { { { { { @ { { _ @ _ # _ _ @ 7 V $ $ $ = = + = + $ = | & = V . . c c . Y # # # k % % $ % { . @ 2.c Y @ . . @ . c ( @ ",
"= = $ $ % $ % . @ _ ~ ~ ~ ~ ~ { @ @ # . # ( # ( # @ { ~ ~ { ) ~ ~ { { ~ { ~ _ { _ _ _ { { _ @ { @ @ { . _ @ _ _ @ { { { _ { ~ _ ~ @ _ _ ( $ + & | = + = & = & = = = & = N = p N -.8 3 g 8 8 -.3 g + ( . ",
"& $ = $ % ( # ( # @ ~ ~ ~ ~ { ~ . _ . . _ } ~ ! ) ~ ~ ~ ~ ) ~ ) ~ ) ~ ~ { { ~ { { _ ~ { { @ { @ @ ~ @ _ @ _ @ @ _ _ _ { { _ _ { { { { @ { _ _ { { _ $ + = = = * = & & = & & & g 8 g 8 t 8 8 8 8 8 8 3 8 ",
"$ = $ $ $ % ( # # @ { ~ ) { ~ { _ @ @ { ) ) ) ) ) ) ~ ~ ) ~ ~ ) { { ~ ~ { { { { _ { { _ { { { { _ @ @ @ . @ @ _ _ @ { { _ @ _ _ { _ ~ _ _ { { ~ _ ~ _ _ @ % = $ $ & $ = = = * & g g g g 8 * g 3 g 3 8 3 ",
"= = $ = $ % % # # { @ ~ ~ ~ ~ @ ~ @ @ { ) ) ) ) ~ ) ) ~ ~ ~ ~ ~ ~ ~ ~ { { { { _ { { ~ _ { { { { { { . { @ @ _ @ @ _ @ _ _ _ _ { ~ . { { { _ _ { _ _ @ { { _ _ = & $ & & & & * 8 8 8 8 8 g 3 8 3 8 8 3 8 ",
"$ & $ $ $ $ $ ( ( . _ { ~ ~ ~ { { { @ _ { ) ) ) ) ~ ~ } ) ~ ~ ~ ~ ~ ~ ~ ~ ~ ~ ~ { { ~ ~ { { { { { { _ _ ~ @ _ @ { _ { { { { ~ _ _ { { { _ _ _ _ ~ @ { _ { { { . = = $ = & & & * 8 8 8 8 8 3 8 g 3 3 8 8 ",
"& = = = $ i % $ ( # # _ _ { { { { { _ _ . . ~ ) ) ) ~ ! ~ ) ~ ~ ~ { { ~ ~ { { ~ ~ _ ~ _ _ { ~ { _ ~ . { @ . { { @ _ { { _ _ _ { _ _ _ { _ { _ { _ ~ { _ { { 6 $ $ = & = = * & 8 g 8 8 8 3 8 3 8 , 8 3 8 ",
"= $ = = $ = $ % # # # . _ ~ { { { ~ { _ _ c # . # c _ ~ { ~ ~ ~ ~ ~ { { ~ { { ~ { ~ ~ _ ~ { { _ { ~ _ { { { @ @ { @ . _ { _ { { { { { . _ _ @ _ . V V }.& & = = & = & = = & * * g g 3 8 g , g 3 8 8 3 8 ",
"= = % $ = $ ( $ ( # # @ @ _ { { ~ . 6 _ @ @ . # % ( ( ( ( % $ % $ % % ( Q ( ~ { ~ { { ~ _ ~ _ _ { _ { _ { . _ @ _ _ ~ _ { _ _ _ _ { { { { { { 6 # ( $ = = = = = = $ & = $ = * * * 8 r ( # @ % # ( . # # ",
"= = $ = $ = % $ # # # . @ ~ ~ ~ { { { @ @ . . . # # # ( # $ # ( % % ( ( # $ ( . # Y # { ~ _ ~ ~ ~ ~ _ ~ _ ~ { ~ _ ~ _ { { @ { { { _ _ _ { { { _ $ = = $ = ^ & = = $ * & = = * % . _ . @ . . # @ . # # . ",
"$ # # . @ { ~ ~ ~ ) ) ) ! ! ! ) [ ! ~ { _ _ # # . . # % ( # $ % % $ % $ $ $ $ $ $ + + + _ ~ { ~ _ ~ { _ ~ @ { _ { @ ~ { ~ { { _ { _ { { { _ { ~ ~ = = = = $ $ $ $ = = = = ( ~ @ _ @ @ . @ . # @ # . # . "};
